# https://github.com/mikedh/trimesh
v -1.39338804 1.30764600 0.09714052
v 1.11989582 1.36809592 0.04080930
v -1.15773181 -1.24328602 0.18592130
v 1.12677650 -1.06284424 0.19238238
v -0.11999157 -0.70937671 1.77246440
v -0.34915271 0.86002262 1.60763776
v -0.05000271 -0.86088304 -1.76979506
v 0.01434694 0.80020296 -1.95076591
v 2.07288581 -0.16137734 -1.25478668
v 2.05723630 0.10263603 1.15239926
v -2.24755863 -0.08525050 -1.18384781
v -2.09807898 0.11239800 1.05435020
v 0.13855333 1.53784909 0.24066971
v -0.40133815 -1.75572409 -0.03175033
v -0.64523458 -1.26279141 1.06812491
v 0.53783353 -1.36465148 0.88534786
v -0.60427794 1.29708850 0.88587957
v 0.80876636 1.13581699 1.00320957
v -0.22285928 -0.00558652 1.88227937
v -0.78141439 -1.29177060 -1.13147864
v 0.79522874 -1.25406093 -0.99653261
v -0.85635952 1.28717464 -1.13050956
v 0.92629269 1.37336241 -1.04302203
v 0.34904862 0.24356378 -1.92910800
v 1.75102146 0.55611673 -0.64615858
v 2.37772845 -0.68105402 -0.49674904
v 1.19981734 -0.55282312 -1.55852661
v 1.02824426 0.43989216 -1.53624962
v 2.02972932 0.81294771 0.54667773
v 2.14217845 -0.70144195 0.35408099
v 1.04154741 -0.55034265 1.72292780
v 1.31041603 0.49748409 1.64570318
v 2.62729529 0.11344174 -0.08875459
v -2.34072492 0.83007893 -0.65154266
v -2.01278141 -0.77085663 -0.79604492
v -1.55213026 -0.34781187 -1.44313918
v -1.06375207 0.48851365 -1.57507066
v -2.10632842 0.75816147 0.55358022
v -2.13127972 -0.72537562 0.88973006
v -1.62670829 -0.39134413 1.72613819
v -1.49288123 0.50113948 1.63428598
v -2.59279654 -0.05955892 -0.22498771
f 1 38 17
f 38 12 41
f 17 41 6
f 38 41 17
f 1 17 13
f 17 6 18
f 13 18 2
f 17 18 13
f 1 13 22
f 13 2 23
f 22 23 8
f 13 23 22
f 1 22 34
f 22 8 37
f 34 37 11
f 22 37 34
f 1 34 38
f 34 11 42
f 38 42 12
f 34 42 38
f 2 18 29
f 18 6 32
f 29 32 10
f 18 32 29
f 6 41 19
f 41 12 40
f 19 40 5
f 41 40 19
f 12 42 39
f 42 11 35
f 39 35 3
f 42 35 39
f 11 37 36
f 37 8 24
f 36 24 7
f 37 24 36
f 8 23 28
f 23 2 25
f 28 25 9
f 23 25 28
f 4 30 16
f 30 10 31
f 16 31 5
f 30 31 16
f 4 16 14
f 16 5 15
f 14 15 3
f 16 15 14
f 4 14 21
f 14 3 20
f 21 20 7
f 14 20 21
f 4 21 26
f 21 7 27
f 26 27 9
f 21 27 26
f 4 26 30
f 26 9 33
f 30 33 10
f 26 33 30
f 5 31 19
f 31 10 32
f 19 32 6
f 31 32 19
f 3 15 39
f 15 5 40
f 39 40 12
f 15 40 39
f 7 20 36
f 20 3 35
f 36 35 11
f 20 35 36
f 9 27 28
f 27 7 24
f 28 24 8
f 27 24 28
f 10 33 29
f 33 9 25
f 29 25 2
f 33 25 29

