# https://github.com/mikedh/trimesh
v 0.00000000 6.00000000 -0.00000000
v 0.65000000 6.00000000 -0.00000000
v 0.65000000 0.00000000 0.00000000
v 0.00000000 0.00000000 0.00000000
v 0.32500000 6.00000000 0.56291651
v 0.32500000 0.00000000 0.56291651
v -0.32500000 6.00000000 0.56291651
v -0.32500000 0.00000000 0.56291651
v -0.65000000 6.00000000 -0.00000000
v -0.65000000 0.00000000 0.00000000
v -0.32500000 6.00000000 -0.56291651
v -0.32500000 0.00000000 -0.56291651
v 0.32500000 6.00000000 -0.56291651
v 0.32500000 0.00000000 -0.56291651
v 0.00000000 7.00000000 0.00000000
v 0.65000000 7.00000000 0.00000000
v 0.00000000 5.00000000 0.00000000
v 0.32500000 7.00000000 0.56291651
v -0.32500000 7.00000000 0.56291651
v -0.65000000 7.00000000 0.00000000
v -0.32500000 7.00000000 -0.56291651
v 0.32500000 7.00000000 -0.56291651
f 2 1 5
f 2 5 3
f 3 5 6
f 3 6 4
f 5 1 7
f 5 7 6
f 6 7 8
f 6 8 4
f 7 1 9
f 7 9 8
f 8 9 10
f 8 10 4
f 9 1 11
f 9 11 10
f 10 11 12
f 10 12 4
f 11 1 13
f 11 13 12
f 12 13 14
f 12 14 4
f 13 1 2
f 13 2 14
f 14 2 3
f 14 3 4
f 16 15 18
f 16 18 17
f 18 15 19
f 18 19 17
f 19 15 20
f 19 20 17
f 20 15 21
f 20 21 17
f 21 15 22
f 21 22 17
f 22 15 16
f 22 16 17

