# https://github.com/mikedh/trimesh
v -3.00000000 0.00000000 -0.65000000
v -3.00000000 0.00000000 0.65000000
v -3.00000000 6.00000000 -0.65000000
v -3.00000000 6.00000000 0.65000000
v -2.25000000 0.00000000 -0.65000000
v -2.25000000 0.00000000 0.65000000
v -2.25000000 6.00000000 -0.65000000
v -2.25000000 6.00000000 0.65000000
v 2.25000000 0.00000000 -0.65000000
v 2.25000000 0.00000000 0.65000000
v 2.25000000 6.00000000 -0.65000000
v 2.25000000 6.00000000 0.65000000
v 3.00000000 0.00000000 -0.65000000
v 3.00000000 0.00000000 0.65000000
v 3.00000000 6.00000000 -0.65000000
v 3.00000000 6.00000000 0.65000000
v -3.00000000 5.25000000 -0.65000000
v -3.00000000 5.25000000 0.65000000
v -3.00000000 6.00000000 -0.65000000
v -3.00000000 6.00000000 0.65000000
v 3.00000000 5.25000000 -0.65000000
v 3.00000000 5.25000000 0.65000000
v 3.00000000 6.00000000 -0.65000000
v 3.00000000 6.00000000 0.65000000
v -2.00000000 4.60000000 0.25000000
v -1.82000000 4.60000000 0.25000000
v -2.00000000 5.80000000 0.25000000
v -1.88777184 4.60000000 0.10927033
v -2.04005377 4.60000000 0.07451298
v -2.16217440 4.60000000 0.17190093
v -2.16217440 4.60000000 0.32809907
v -2.04005377 4.60000000 0.42548702
v -1.88777184 4.60000000 0.39072967
v -1.00000000 4.30000000 0.25000000
v -0.82000000 4.30000000 0.25000000
v -1.00000000 6.10000000 0.25000000
v -0.88777184 4.30000000 0.10927033
v -1.04005377 4.30000000 0.07451298
v -1.16217440 4.30000000 0.17190093
v -1.16217440 4.30000000 0.32809907
v -1.04005377 4.30000000 0.42548702
v -0.88777184 4.30000000 0.39072967
v 0.00000000 4.65000000 0.25000000
v 0.18000000 4.65000000 0.25000000
v 0.00000000 5.75000000 0.25000000
v 0.11222816 4.65000000 0.10927033
v -0.04005377 4.65000000 0.07451298
v -0.16217440 4.65000000 0.17190093
v -0.16217440 4.65000000 0.32809907
v -0.04005377 4.65000000 0.42548702
v 0.11222816 4.65000000 0.39072967
v 1.00000000 4.40000000 0.25000000
v 1.18000000 4.40000000 0.25000000
v 1.00000000 6.00000000 0.25000000
v 1.11222816 4.40000000 0.10927033
v 0.95994623 4.40000000 0.07451298
v 0.83782560 4.40000000 0.17190093
v 0.83782560 4.40000000 0.32809907
v 0.95994623 4.40000000 0.42548702
v 1.11222816 4.40000000 0.39072967
v 2.00000000 4.70000000 0.25000000
v 2.18000000 4.70000000 0.25000000
v 2.00000000 5.70000000 0.25000000
v 2.11222816 4.70000000 0.10927033
v 1.95994623 4.70000000 0.07451298
v 1.83782560 4.70000000 0.17190093
v 1.83782560 4.70000000 0.32809907
v 1.95994623 4.70000000 0.42548702
v 2.11222816 4.70000000 0.39072967
f 2 4 1
f 5 2 1
f 1 4 3
f 3 5 1
f 2 8 4
f 6 2 5
f 6 8 2
f 4 8 3
f 7 5 3
f 3 8 7
f 7 6 5
f 8 6 7
f 10 12 9
f 13 10 9
f 9 12 11
f 11 13 9
f 10 16 12
f 14 10 13
f 14 16 10
f 12 16 11
f 15 13 11
f 11 16 15
f 15 14 13
f 16 14 15
f 18 20 17
f 21 18 17
f 17 20 19
f 19 21 17
f 18 24 20
f 22 18 21
f 22 24 18
f 20 24 19
f 23 21 19
f 19 24 23
f 23 22 21
f 24 22 23
f 26 25 28
f 26 28 27
f 28 25 29
f 28 29 27
f 29 25 30
f 29 30 27
f 30 25 31
f 30 31 27
f 31 25 32
f 31 32 27
f 32 25 33
f 32 33 27
f 33 25 26
f 33 26 27
f 35 34 37
f 35 37 36
f 37 34 38
f 37 38 36
f 38 34 39
f 38 39 36
f 39 34 40
f 39 40 36
f 40 34 41
f 40 41 36
f 41 34 42
f 41 42 36
f 42 34 35
f 42 35 36
f 44 43 46
f 44 46 45
f 46 43 47
f 46 47 45
f 47 43 48
f 47 48 45
f 48 43 49
f 48 49 45
f 49 43 50
f 49 50 45
f 50 43 51
f 50 51 45
f 51 43 44
f 51 44 45
f 53 52 55
f 53 55 54
f 55 52 56
f 55 56 54
f 56 52 57
f 56 57 54
f 57 52 58
f 57 58 54
f 58 52 59
f 58 59 54
f 59 52 60
f 59 60 54
f 60 52 53
f 60 53 54
f 62 61 64
f 62 64 63
f 64 61 65
f 64 65 63
f 65 61 66
f 65 66 63
f 66 61 67
f 66 67 63
f 67 61 68
f 67 68 63
f 68 61 69
f 68 69 63
f 69 61 62
f 69 62 63

