# https://github.com/mikedh/trimesh
v -0.34008284 3.47244319 0.19588481
v 0.02579202 3.49287395 0.19588481
v 0.24177099 -0.37488539 0.19588481
v -0.12410387 -0.39531615 0.19588481
v -0.15714541 3.48265857 0.51323536
v 0.05883356 -0.38510077 0.51323536
v -0.52302026 3.46222781 0.51323536
v -0.30704129 -0.40553153 0.51323536
v -0.70595769 3.45201242 0.19588481
v -0.48997872 -0.41574692 0.19588481
v -0.52302026 3.46222781 -0.12146574
v -0.30704129 -0.40553153 -0.12146574
v -0.15714541 3.48265857 -0.12146574
v 0.05883356 -0.38510077 -0.12146574
v -0.39090142 4.38250421 0.19588481
v -0.02502656 4.40293497 0.19588481
v -0.28926425 2.56238217 0.19588481
v -0.20796399 4.39271959 0.51323536
v -0.57383884 4.37228883 0.51323536
v -0.75677627 4.36207345 0.19588481
v -0.57383884 4.37228883 -0.12146574
v -0.20796399 4.39271959 -0.12146574
v -0.63303958 2.74011079 0.73322854
v -0.28434872 2.74363940 0.73322854
v -0.25343875 -0.31082829 0.73322854
v -0.60212961 -0.31435690 0.73322854
v -0.45869415 2.74187510 1.03521915
v -0.42778418 -0.31259260 1.03521915
v -0.80738502 2.73834649 1.03521915
v -0.77647504 -0.31612121 1.03521915
v -0.98173045 2.73658218 0.73322854
v -0.95082047 -0.31788551 0.73322854
v -0.80738502 2.73834649 0.43123794
v -0.77647504 -0.31612121 0.43123794
v -0.45869415 2.74187510 0.43123794
v -0.42778418 -0.31259260 0.43123794
v -0.64031252 3.45880907 0.73322854
v -0.29162166 3.46233768 0.73322854
v -0.62576665 2.02141251 0.73322854
v -0.46596709 3.46057338 1.03521915
v -0.81465795 3.45704477 1.03521915
v -0.98900338 3.45528046 0.73322854
v -0.81465795 3.45704477 0.43123794
v -0.46596709 3.46057338 0.43123794
v -0.86783269 1.83332379 -1.28822530
v -0.48952241 1.71444729 -1.28822530
v -1.11587602 -0.27884829 -1.28822530
v -1.49418629 -0.15997179 -1.28822530
v -0.67867755 1.77388554 -0.94480469
v -1.30503116 -0.21941004 -0.94480469
v -1.05698782 1.89276204 -0.94480469
v -1.68334143 -0.10053354 -0.94480469
v -1.24614296 1.95220029 -1.28822530
v -1.87249656 -0.04109529 -1.28822530
v -1.05698782 1.89276204 -1.63164590
v -1.68334143 -0.10053354 -1.63164590
v -0.67867755 1.77388554 -1.63164590
v -1.30503116 -0.21941004 -1.63164590
v -0.72045537 2.30233452 -1.28822530
v -0.34214509 2.18345802 -1.28822530
v -1.01521000 1.36431307 -1.28822530
v -0.53130023 2.24289627 -0.94480469
v -0.90961050 2.36177277 -0.94480469
v -1.09876564 2.42121102 -1.28822530
v -0.90961050 2.36177277 -1.63164590
v -0.53130023 2.24289627 -1.63164590
v 1.23383631 1.68773088 0.86841600
v 1.69231667 1.66812313 0.86841600
v 1.61189351 -0.21238005 0.86841600
v 1.15341316 -0.19277230 0.86841600
v 1.46307649 1.67792701 1.26583457
v 1.38265333 -0.20257617 1.26583457
v 1.00459614 1.69753476 1.26583457
v 0.92417298 -0.18296842 1.26583457
v 0.77535596 1.70733863 0.86841600
v 0.69493280 -0.17316455 0.86841600
v 1.00459614 1.69753476 0.47099742
v 0.92417298 -0.18296842 0.47099742
v 1.46307649 1.67792701 0.47099742
v 1.38265333 -0.20257617 0.47099742
v 1.25275941 2.13020222 0.86841600
v 1.71123976 2.11059447 0.86841600
v 1.21491322 1.24525955 0.86841600
v 1.48199959 2.12039835 1.26583457
v 1.02351923 2.14000610 1.26583457
v 0.79427905 2.14980997 0.86841600
v 1.02351923 2.14000610 0.47099742
v 1.48199959 2.12039835 0.47099742
v -0.88637125 3.47777272 -1.22429913
v -0.51942751 3.57995118 -1.22429913
v 0.53899165 -0.22104830 -1.22429913
v 0.17204791 -0.32322676 -1.22429913
v -0.70289938 3.52886195 -0.89442626
v 0.35551978 -0.27213753 -0.89442626
v -1.06984311 3.42668349 -0.89442626
v -0.01142395 -0.37431599 -0.89442626
v -1.25331498 3.37559426 -1.22429913
v -0.19489582 -0.42540522 -1.22429913
v -1.06984311 3.42668349 -1.55417200
v -0.01142395 -0.37431599 -1.55417200
v -0.70289938 3.52886195 -1.55417200
v 0.35551978 -0.27213753 -1.55417200
v -1.13541105 4.37212554 -1.22429913
v -0.76846731 4.47430400 -1.22429913
v -0.63733144 2.58341990 -1.22429913
v -0.95193918 4.42321477 -0.89442626
v -1.31888292 4.32103631 -0.89442626
v -1.50235478 4.26994708 -1.22429913
v -1.31888292 4.32103631 -1.55417200
v -0.95193918 4.42321477 -1.55417200
v -0.61926370 2.13378517 -0.83065307
v -0.26175848 2.20310942 -0.83065307
v 0.19502391 -0.15251789 -0.83065307
v -0.16248131 -0.22184214 -0.83065307
v -0.44051109 2.16844730 -0.51527730
v 0.01627130 -0.18718002 -0.51527730
v -0.79801631 2.09912305 -0.51527730
v -0.34123392 -0.25650426 -0.51527730
v -0.97676892 2.06446093 -0.83065307
v -0.51998653 -0.29116639 -0.83065307
v -0.79801631 2.09912305 -1.14602884
v -0.34123392 -0.25650426 -1.14602884
v -0.44051109 2.16844730 -1.14602884
v 0.01627130 -0.18718002 -1.14602884
v -0.72674191 2.68805043 -0.83065307
v -0.36923669 2.75737467 -0.83065307
v -0.51178549 1.57951992 -0.83065307
v -0.54798930 2.72271255 -0.51527730
v -0.90549452 2.65338830 -0.51527730
v -1.08424713 2.61872618 -0.83065307
v -0.90549452 2.65338830 -1.14602884
v -0.54798930 2.72271255 -1.14602884
v 1.42415480 2.18280633 0.88196082
v 1.80461344 2.19181924 0.88196082
v 1.86224866 -0.24111499 0.88196082
v 1.48179002 -0.25012790 0.88196082
v 1.61438412 2.18731279 1.21154011
v 1.67201934 -0.24562144 1.21154011
v 1.23392548 2.17829988 1.21154011
v 1.29156070 -0.25463435 1.21154011
v 1.04369616 2.17379342 0.88196082
v 1.10133138 -0.25914081 0.88196082
v 1.23392548 2.17829988 0.55238154
v 1.29156070 -0.25463435 0.55238154
v 1.61438412 2.18731279 0.55238154
v 1.67201934 -0.24562144 0.55238154
v 1.41059357 2.75526145 0.88196082
v 1.79105221 2.76427436 0.88196082
v 1.43771603 1.61035122 0.88196082
v 1.60082289 2.75976790 1.21154011
v 1.22036425 2.75075499 1.21154011
v 1.03013494 2.74624854 0.88196082
v 1.22036425 2.75075499 0.55238154
v 1.60082289 2.75976790 0.55238154
v 0.91767727 3.34274268 0.59104781
v 1.45772313 3.34764899 0.59104781
v 1.49157606 -0.37860645 0.59104781
v 0.95153020 -0.38351275 0.59104781
v 1.18770020 3.34519584 1.05876054
v 1.22155313 -0.38105960 1.05876054
v 0.64765435 3.34028953 1.05876054
v 0.68150728 -0.38596591 1.05876054
v 0.37763142 3.33783638 0.59104781
v 0.41148435 -0.38841906 0.59104781
v 0.64765435 3.34028953 0.12333508
v 0.68150728 -0.38596591 0.12333508
v 1.18770020 3.34519584 0.12333508
v 1.22155313 -0.38105960 0.12333508
v 0.90971188 4.21950867 0.59104781
v 1.44975773 4.22441497 0.59104781
v 0.92564267 2.46597670 0.59104781
v 1.17973481 4.22196182 1.05876054
v 0.63968895 4.21705552 1.05876054
v 0.36966602 4.21460237 0.59104781
v 0.63968895 4.21705552 0.12333508
v 1.17973481 4.22196182 0.12333508
v -1.20302399 -0.03810617 0.09696361
v 1.18185286 0.02773820 -0.23278830
v -1.60207737 -0.61471429 -0.31495626
v 1.63337078 -0.64116661 -0.19556628
v -0.12423320 -0.46316724 1.46904027
v 0.43753232 -0.11669221 1.54747477
v 0.09869040 -0.48767862 -1.74894947
v -0.12097127 -0.11132517 -1.35480435
v 2.39724781 -0.28668483 -1.31785465
v 2.28038254 -0.30078180 1.24636964
v -1.98864130 -0.29667975 -0.90412271
v -2.35459047 -0.32045625 0.98551384
v -0.08301265 0.05903366 0.10202401
v -0.04428077 -0.61879451 -0.16922254
v -0.84697996 -0.57753514 0.66004618
v 0.98685082 -0.56304090 1.19262985
v -0.85965520 0.00022311 1.03288978
v 0.49001459 -0.00841644 0.71910417
v 0.06375104 -0.27953473 1.91124488
v -1.30183302 -0.54211294 -0.88921224
v 1.07048508 -0.60234307 -0.99316175
v -0.39019406 -0.02231646 -0.99909823
v 0.76818754 0.01126956 -1.17054289
v -0.07003321 -0.32488494 -1.49462107
v 2.46412613 -0.12207607 -0.54260963
v 2.17538729 -0.48726144 -0.60228854
v 1.76658679 -0.41630584 -1.55265155
v 1.44387415 -0.15022535 -1.44028869
v 1.99123037 -0.12313957 0.58182955
v 1.93363149 -0.49574811 0.63046333
v 1.28075199 -0.36086456 1.56643691
v 1.27482577 -0.19376056 1.37742783
v 2.60584578 -0.27805227 -0.00840124
v -2.64587801 -0.16242269 -0.48863817
v -2.47370207 -0.48336393 -0.41105685
v -1.42138567 -0.41548839 -1.56965491
v -1.13482506 -0.21073504 -1.69350045
v -2.20126470 -0.07838247 0.63754126
v -1.87533680 -0.43949874 0.41623174
v -1.35087258 -0.40972227 1.52134512
v -1.09291030 -0.15077931 1.63209314
v -2.46972789 -0.31513942 0.13211396
f 2 1 5
f 2 5 3
f 3 5 6
f 3 6 4
f 5 1 7
f 5 7 6
f 6 7 8
f 6 8 4
f 7 1 9
f 7 9 8
f 8 9 10
f 8 10 4
f 9 1 11
f 9 11 10
f 10 11 12
f 10 12 4
f 11 1 13
f 11 13 12
f 12 13 14
f 12 14 4
f 13 1 2
f 13 2 14
f 14 2 3
f 14 3 4
f 16 15 18
f 16 18 17
f 18 15 19
f 18 19 17
f 19 15 20
f 19 20 17
f 20 15 21
f 20 21 17
f 21 15 22
f 21 22 17
f 22 15 16
f 22 16 17
f 24 23 27
f 24 27 25
f 25 27 28
f 25 28 26
f 27 23 29
f 27 29 28
f 28 29 30
f 28 30 26
f 29 23 31
f 29 31 30
f 30 31 32
f 30 32 26
f 31 23 33
f 31 33 32
f 32 33 34
f 32 34 26
f 33 23 35
f 33 35 34
f 34 35 36
f 34 36 26
f 35 23 24
f 35 24 36
f 36 24 25
f 36 25 26
f 38 37 40
f 38 40 39
f 40 37 41
f 40 41 39
f 41 37 42
f 41 42 39
f 42 37 43
f 42 43 39
f 43 37 44
f 43 44 39
f 44 37 38
f 44 38 39
f 46 45 49
f 46 49 47
f 47 49 50
f 47 50 48
f 49 45 51
f 49 51 50
f 50 51 52
f 50 52 48
f 51 45 53
f 51 53 52
f 52 53 54
f 52 54 48
f 53 45 55
f 53 55 54
f 54 55 56
f 54 56 48
f 55 45 57
f 55 57 56
f 56 57 58
f 56 58 48
f 57 45 46
f 57 46 58
f 58 46 47
f 58 47 48
f 60 59 62
f 60 62 61
f 62 59 63
f 62 63 61
f 63 59 64
f 63 64 61
f 64 59 65
f 64 65 61
f 65 59 66
f 65 66 61
f 66 59 60
f 66 60 61
f 68 67 71
f 68 71 69
f 69 71 72
f 69 72 70
f 71 67 73
f 71 73 72
f 72 73 74
f 72 74 70
f 73 67 75
f 73 75 74
f 74 75 76
f 74 76 70
f 75 67 77
f 75 77 76
f 76 77 78
f 76 78 70
f 77 67 79
f 77 79 78
f 78 79 80
f 78 80 70
f 79 67 68
f 79 68 80
f 80 68 69
f 80 69 70
f 82 81 84
f 82 84 83
f 84 81 85
f 84 85 83
f 85 81 86
f 85 86 83
f 86 81 87
f 86 87 83
f 87 81 88
f 87 88 83
f 88 81 82
f 88 82 83
f 90 89 93
f 90 93 91
f 91 93 94
f 91 94 92
f 93 89 95
f 93 95 94
f 94 95 96
f 94 96 92
f 95 89 97
f 95 97 96
f 96 97 98
f 96 98 92
f 97 89 99
f 97 99 98
f 98 99 100
f 98 100 92
f 99 89 101
f 99 101 100
f 100 101 102
f 100 102 92
f 101 89 90
f 101 90 102
f 102 90 91
f 102 91 92
f 104 103 106
f 104 106 105
f 106 103 107
f 106 107 105
f 107 103 108
f 107 108 105
f 108 103 109
f 108 109 105
f 109 103 110
f 109 110 105
f 110 103 104
f 110 104 105
f 112 111 115
f 112 115 113
f 113 115 116
f 113 116 114
f 115 111 117
f 115 117 116
f 116 117 118
f 116 118 114
f 117 111 119
f 117 119 118
f 118 119 120
f 118 120 114
f 119 111 121
f 119 121 120
f 120 121 122
f 120 122 114
f 121 111 123
f 121 123 122
f 122 123 124
f 122 124 114
f 123 111 112
f 123 112 124
f 124 112 113
f 124 113 114
f 126 125 128
f 126 128 127
f 128 125 129
f 128 129 127
f 129 125 130
f 129 130 127
f 130 125 131
f 130 131 127
f 131 125 132
f 131 132 127
f 132 125 126
f 132 126 127
f 134 133 137
f 134 137 135
f 135 137 138
f 135 138 136
f 137 133 139
f 137 139 138
f 138 139 140
f 138 140 136
f 139 133 141
f 139 141 140
f 140 141 142
f 140 142 136
f 141 133 143
f 141 143 142
f 142 143 144
f 142 144 136
f 143 133 145
f 143 145 144
f 144 145 146
f 144 146 136
f 145 133 134
f 145 134 146
f 146 134 135
f 146 135 136
f 148 147 150
f 148 150 149
f 150 147 151
f 150 151 149
f 151 147 152
f 151 152 149
f 152 147 153
f 152 153 149
f 153 147 154
f 153 154 149
f 154 147 148
f 154 148 149
f 156 155 159
f 156 159 157
f 157 159 160
f 157 160 158
f 159 155 161
f 159 161 160
f 160 161 162
f 160 162 158
f 161 155 163
f 161 163 162
f 162 163 164
f 162 164 158
f 163 155 165
f 163 165 164
f 164 165 166
f 164 166 158
f 165 155 167
f 165 167 166
f 166 167 168
f 166 168 158
f 167 155 156
f 167 156 168
f 168 156 157
f 168 157 158
f 170 169 172
f 170 172 171
f 172 169 173
f 172 173 171
f 173 169 174
f 173 174 171
f 174 169 175
f 174 175 171
f 175 169 176
f 175 176 171
f 176 169 170
f 176 170 171
f 177 214 193
f 214 188 217
f 193 217 182
f 214 217 193
f 177 193 189
f 193 182 194
f 189 194 178
f 193 194 189
f 177 189 198
f 189 178 199
f 198 199 184
f 189 199 198
f 177 198 210
f 198 184 213
f 210 213 187
f 198 213 210
f 177 210 214
f 210 187 218
f 214 218 188
f 210 218 214
f 178 194 205
f 194 182 208
f 205 208 186
f 194 208 205
f 182 217 195
f 217 188 216
f 195 216 181
f 217 216 195
f 188 218 215
f 218 187 211
f 215 211 179
f 218 211 215
f 187 213 212
f 213 184 200
f 212 200 183
f 213 200 212
f 184 199 204
f 199 178 201
f 204 201 185
f 199 201 204
f 180 206 192
f 206 186 207
f 192 207 181
f 206 207 192
f 180 192 190
f 192 181 191
f 190 191 179
f 192 191 190
f 180 190 197
f 190 179 196
f 197 196 183
f 190 196 197
f 180 197 202
f 197 183 203
f 202 203 185
f 197 203 202
f 180 202 206
f 202 185 209
f 206 209 186
f 202 209 206
f 181 207 195
f 207 186 208
f 195 208 182
f 207 208 195
f 179 191 215
f 191 181 216
f 215 216 188
f 191 216 215
f 183 196 212
f 196 179 211
f 212 211 187
f 196 211 212
f 185 203 204
f 203 183 200
f 204 200 184
f 203 200 204
f 186 209 205
f 209 185 201
f 205 201 178
f 209 201 205

