# https://github.com/mikedh/trimesh
v -3.00000000 0.00000000 0.00000000
v -2.75000000 0.00000000 0.00000000
v -3.00000000 2.20000000 -0.00000000
v -2.84412755 -0.00000000 -0.19545787
v -3.05563023 -0.00000000 -0.24373198
v -3.22524222 -0.00000000 -0.10847093
v -3.22524222 0.00000000 0.10847093
v -3.05563023 0.00000000 0.24373198
v -2.84412755 0.00000000 0.19545787
v -2.14285714 0.00000000 0.00000000
v -1.89285714 0.00000000 0.00000000
v -2.14285714 2.20000000 -0.00000000
v -1.98698469 -0.00000000 -0.19545787
v -2.19848738 -0.00000000 -0.24373198
v -2.36809936 -0.00000000 -0.10847093
v -2.36809936 0.00000000 0.10847093
v -2.19848738 0.00000000 0.24373198
v -1.98698469 0.00000000 0.19545787
v -1.28571429 0.00000000 0.00000000
v -1.03571429 0.00000000 0.00000000
v -1.28571429 2.20000000 -0.00000000
v -1.12984184 -0.00000000 -0.19545787
v -1.34134452 -0.00000000 -0.24373198
v -1.51095650 -0.00000000 -0.10847093
v -1.51095650 0.00000000 0.10847093
v -1.34134452 0.00000000 0.24373198
v -1.12984184 0.00000000 0.19545787
v -0.42857143 0.00000000 0.00000000
v -0.17857143 0.00000000 0.00000000
v -0.42857143 2.20000000 -0.00000000
v -0.27269898 -0.00000000 -0.19545787
v -0.48420166 -0.00000000 -0.24373198
v -0.65381365 -0.00000000 -0.10847093
v -0.65381365 0.00000000 0.10847093
v -0.48420166 0.00000000 0.24373198
v -0.27269898 0.00000000 0.19545787
v 0.42857143 0.00000000 0.00000000
v 0.67857143 0.00000000 0.00000000
v 0.42857143 2.20000000 -0.00000000
v 0.58444388 -0.00000000 -0.19545787
v 0.37294120 -0.00000000 -0.24373198
v 0.20332921 -0.00000000 -0.10847093
v 0.20332921 0.00000000 0.10847093
v 0.37294120 0.00000000 0.24373198
v 0.58444388 0.00000000 0.19545787
v 1.28571429 0.00000000 0.00000000
v 1.53571429 0.00000000 0.00000000
v 1.28571429 2.20000000 -0.00000000
v 1.44158674 -0.00000000 -0.19545787
v 1.23008405 -0.00000000 -0.24373198
v 1.06047207 -0.00000000 -0.10847093
v 1.06047207 0.00000000 0.10847093
v 1.23008405 0.00000000 0.24373198
v 1.44158674 0.00000000 0.19545787
v 2.14285714 0.00000000 0.00000000
v 2.39285714 0.00000000 0.00000000
v 2.14285714 2.20000000 -0.00000000
v 2.29872959 -0.00000000 -0.19545787
v 2.08722691 -0.00000000 -0.24373198
v 1.91761493 -0.00000000 -0.10847093
v 1.91761493 0.00000000 0.10847093
v 2.08722691 0.00000000 0.24373198
v 2.29872959 0.00000000 0.19545787
v 3.00000000 0.00000000 0.00000000
v 3.25000000 0.00000000 0.00000000
v 3.00000000 2.20000000 -0.00000000
v 3.15587245 -0.00000000 -0.19545787
v 2.94436977 -0.00000000 -0.24373198
v 2.77475778 -0.00000000 -0.10847093
v 2.77475778 0.00000000 0.10847093
v 2.94436977 0.00000000 0.24373198
v 3.15587245 0.00000000 0.19545787
f 2 1 4
f 2 4 3
f 4 1 5
f 4 5 3
f 5 1 6
f 5 6 3
f 6 1 7
f 6 7 3
f 7 1 8
f 7 8 3
f 8 1 9
f 8 9 3
f 9 1 2
f 9 2 3
f 11 10 13
f 11 13 12
f 13 10 14
f 13 14 12
f 14 10 15
f 14 15 12
f 15 10 16
f 15 16 12
f 16 10 17
f 16 17 12
f 17 10 18
f 17 18 12
f 18 10 11
f 18 11 12
f 20 19 22
f 20 22 21
f 22 19 23
f 22 23 21
f 23 19 24
f 23 24 21
f 24 19 25
f 24 25 21
f 25 19 26
f 25 26 21
f 26 19 27
f 26 27 21
f 27 19 20
f 27 20 21
f 29 28 31
f 29 31 30
f 31 28 32
f 31 32 30
f 32 28 33
f 32 33 30
f 33 28 34
f 33 34 30
f 34 28 35
f 34 35 30
f 35 28 36
f 35 36 30
f 36 28 29
f 36 29 30
f 38 37 40
f 38 40 39
f 40 37 41
f 40 41 39
f 41 37 42
f 41 42 39
f 42 37 43
f 42 43 39
f 43 37 44
f 43 44 39
f 44 37 45
f 44 45 39
f 45 37 38
f 45 38 39
f 47 46 49
f 47 49 48
f 49 46 50
f 49 50 48
f 50 46 51
f 50 51 48
f 51 46 52
f 51 52 48
f 52 46 53
f 52 53 48
f 53 46 54
f 53 54 48
f 54 46 47
f 54 47 48
f 56 55 58
f 56 58 57
f 58 55 59
f 58 59 57
f 59 55 60
f 59 60 57
f 60 55 61
f 60 61 57
f 61 55 62
f 61 62 57
f 62 55 63
f 62 63 57
f 63 55 56
f 63 56 57
f 65 64 67
f 65 67 66
f 67 64 68
f 67 68 66
f 68 64 69
f 68 69 66
f 69 64 70
f 69 70 66
f 70 64 71
f 70 71 66
f 71 64 72
f 71 72 66
f 72 64 65
f 72 65 66

