# https://github.com/mikedh/trimesh
v -0.50000000 -0.09659091 -0.31250000
v -0.50000000 -0.09659091 0.27840909
v -0.50000000 -0.02840909 -0.31250000
v -0.50000000 -0.02840909 0.27840909
v 0.50000000 -0.09659091 -0.31250000
v 0.50000000 -0.09659091 0.27840909
v 0.50000000 -0.02840909 -0.31250000
v 0.50000000 -0.02840909 0.27840909
v -0.50000000 -0.17045455 -0.31250000
v -0.50000000 -0.17045455 -0.24431818
v -0.50000000 -0.10227273 -0.31250000
v -0.50000000 -0.10227273 -0.24431818
v 0.50000000 -0.17045455 -0.31250000
v 0.50000000 -0.17045455 -0.24431818
v 0.50000000 -0.10227273 -0.31250000
v 0.50000000 -0.10227273 -0.24431818
v -0.50000000 -0.17045455 0.21022727
v -0.50000000 -0.17045455 0.27840909
v -0.50000000 -0.10227273 0.21022727
v -0.50000000 -0.10227273 0.27840909
v 0.50000000 -0.17045455 0.21022727
v 0.50000000 -0.17045455 0.27840909
v 0.50000000 -0.10227273 0.21022727
v 0.50000000 -0.10227273 0.27840909
v -0.50000000 -0.17045455 -0.27840909
v -0.50000000 -0.17045455 0.24431818
v -0.50000000 -0.10227273 -0.27840909
v -0.50000000 -0.10227273 0.24431818
v -0.43181818 -0.17045455 -0.27840909
v -0.43181818 -0.17045455 0.24431818
v -0.43181818 -0.10227273 -0.27840909
v -0.43181818 -0.10227273 0.24431818
v 0.43181818 -0.17045455 -0.27840909
v 0.43181818 -0.17045455 0.24431818
v 0.43181818 -0.10227273 -0.27840909
v 0.43181818 -0.10227273 0.24431818
v 0.50000000 -0.17045455 -0.27840909
v 0.50000000 -0.17045455 0.24431818
v 0.50000000 -0.10227273 -0.27840909
v 0.50000000 -0.10227273 0.24431818
v -0.48863636 -0.00000000 -0.01704545
v -0.48863636 -0.00000000 -0.30113636
v 0.48863636 -0.00000000 -0.30113636
v 0.48863636 -0.00000000 -0.01704545
v -0.48863636 0.08778892 -0.28723196
v 0.48863636 0.08778892 -0.28723196
v -0.48863636 0.16698445 -0.24687983
v 0.48863636 0.16698445 -0.24687983
v -0.48863636 0.22983437 -0.18402990
v 0.48863636 0.22983437 -0.18402990
v -0.48863636 0.27018651 -0.10483437
v 0.48863636 0.27018651 -0.10483437
v -0.48863636 0.28409091 -0.01704545
v 0.48863636 0.28409091 -0.01704545
v -0.48863636 0.27018651 0.07074346
v 0.48863636 0.27018651 0.07074346
v -0.48863636 0.22983437 0.14993899
v 0.48863636 0.22983437 0.14993899
v -0.48863636 0.16698445 0.21278892
v 0.48863636 0.16698445 0.21278892
v -0.48863636 0.08778892 0.25314106
v 0.48863636 0.08778892 0.25314106
v -0.48863636 0.00000000 0.26704545
v 0.48863636 0.00000000 0.26704545
v -0.48863636 -0.08778892 0.25314106
v 0.48863636 -0.08778892 0.25314106
v -0.48863636 -0.16698445 0.21278892
v 0.48863636 -0.16698445 0.21278892
v -0.48863636 -0.22983437 0.14993899
v 0.48863636 -0.22983437 0.14993899
v -0.48863636 -0.27018651 0.07074346
v 0.48863636 -0.27018651 0.07074346
v -0.48863636 -0.28409091 -0.01704545
v 0.48863636 -0.28409091 -0.01704545
v -0.48863636 -0.27018651 -0.10483437
v 0.48863636 -0.27018651 -0.10483437
v -0.48863636 -0.22983437 -0.18402990
v 0.48863636 -0.22983437 -0.18402990
v -0.48863636 -0.16698445 -0.24687983
v 0.48863636 -0.16698445 -0.24687983
v -0.48863636 -0.08778892 -0.28723196
v 0.48863636 -0.08778892 -0.28723196
v -0.48863636 0.06818182 -0.01704545
v -0.48863636 0.06818182 -0.23295455
v 0.48863636 0.06818182 -0.23295455
v 0.48863636 0.06818182 -0.01704545
v -0.48863636 0.13490140 -0.22238720
v 0.48863636 0.13490140 -0.22238720
v -0.48863636 0.19509000 -0.19171958
v 0.48863636 0.19509000 -0.19171958
v -0.48863636 0.24285594 -0.14395363
v 0.48863636 0.24285594 -0.14395363
v -0.48863636 0.27352357 -0.08376503
v 0.48863636 0.27352357 -0.08376503
v -0.48863636 0.28409091 -0.01704545
v 0.48863636 0.28409091 -0.01704545
v -0.48863636 0.27352357 0.04967412
v 0.48863636 0.27352357 0.04967412
v -0.48863636 0.24285594 0.10986272
v 0.48863636 0.24285594 0.10986272
v -0.48863636 0.19509000 0.15762867
v 0.48863636 0.19509000 0.15762867
v -0.48863636 0.13490140 0.18829629
v 0.48863636 0.13490140 0.18829629
v -0.48863636 0.06818182 0.19886364
v 0.48863636 0.06818182 0.19886364
v -0.48863636 0.00146224 0.18829629
v 0.48863636 0.00146224 0.18829629
v -0.48863636 -0.05872636 0.15762867
v 0.48863636 -0.05872636 0.15762867
v -0.48863636 -0.10649231 0.10986272
v 0.48863636 -0.10649231 0.10986272
v -0.48863636 -0.13715993 0.04967412
v 0.48863636 -0.13715993 0.04967412
v -0.48863636 -0.14772727 -0.01704545
v 0.48863636 -0.14772727 -0.01704545
v -0.48863636 -0.13715993 -0.08376503
v 0.48863636 -0.13715993 -0.08376503
v -0.48863636 -0.10649231 -0.14395363
v 0.48863636 -0.10649231 -0.14395363
v -0.48863636 -0.05872636 -0.19171958
v 0.48863636 -0.05872636 -0.19171958
v -0.48863636 0.00146224 -0.22238720
v 0.48863636 0.00146224 -0.22238720
v -0.48863636 0.11931818 -0.01704545
v -0.48863636 0.11931818 -0.15340909
v 0.48863636 0.11931818 -0.15340909
v 0.48863636 0.11931818 -0.01704545
v -0.48863636 0.16145686 -0.14673498
v 0.48863636 0.16145686 -0.14673498
v -0.48863636 0.19947072 -0.12736595
v 0.48863636 0.19947072 -0.12736595
v -0.48863636 0.22963868 -0.09719799
v 0.48863636 0.22963868 -0.09719799
v -0.48863636 0.24900771 -0.05918414
v 0.48863636 0.24900771 -0.05918414
v -0.48863636 0.25568182 -0.01704545
v 0.48863636 0.25568182 -0.01704545
v -0.48863636 0.24900771 0.02509323
v 0.48863636 0.24900771 0.02509323
v -0.48863636 0.22963868 0.06310708
v 0.48863636 0.22963868 0.06310708
v -0.48863636 0.19947072 0.09327504
v 0.48863636 0.19947072 0.09327504
v -0.48863636 0.16145686 0.11264407
v 0.48863636 0.16145686 0.11264407
v -0.48863636 0.11931818 0.11931818
v 0.48863636 0.11931818 0.11931818
v -0.48863636 0.07717950 0.11264407
v 0.48863636 0.07717950 0.11264407
v -0.48863636 0.03916565 0.09327504
v 0.48863636 0.03916565 0.09327504
v -0.48863636 0.00899768 0.06310708
v 0.48863636 0.00899768 0.06310708
v -0.48863636 -0.01037134 0.02509323
v 0.48863636 -0.01037134 0.02509323
v -0.48863636 -0.01704545 -0.01704545
v 0.48863636 -0.01704545 -0.01704545
v -0.48863636 -0.01037134 -0.05918414
v 0.48863636 -0.01037134 -0.05918414
v -0.48863636 0.00899768 -0.09719799
v 0.48863636 0.00899768 -0.09719799
v -0.48863636 0.03916565 -0.12736595
v 0.48863636 0.03916565 -0.12736595
v -0.48863636 0.07717950 -0.14673498
v 0.48863636 0.07717950 -0.14673498
v -0.02840909 -0.19886364 0.28977273
v -0.02840909 -0.19886364 0.31250000
v -0.02840909 -0.09659091 0.28977273
v -0.02840909 -0.09659091 0.31250000
v 0.02840909 -0.19886364 0.28977273
v 0.02840909 -0.19886364 0.31250000
v 0.02840909 -0.09659091 0.28977273
v 0.02840909 -0.09659091 0.31250000
f 2 4 1
f 5 2 1
f 1 4 3
f 3 5 1
f 2 8 4
f 6 2 5
f 6 8 2
f 4 8 3
f 7 5 3
f 3 8 7
f 7 6 5
f 8 6 7
f 10 12 9
f 13 10 9
f 9 12 11
f 11 13 9
f 10 16 12
f 14 10 13
f 14 16 10
f 12 16 11
f 15 13 11
f 11 16 15
f 15 14 13
f 16 14 15
f 18 20 17
f 21 18 17
f 17 20 19
f 19 21 17
f 18 24 20
f 22 18 21
f 22 24 18
f 20 24 19
f 23 21 19
f 19 24 23
f 23 22 21
f 24 22 23
f 26 28 25
f 29 26 25
f 25 28 27
f 27 29 25
f 26 32 28
f 30 26 29
f 30 32 26
f 28 32 27
f 31 29 27
f 27 32 31
f 31 30 29
f 32 30 31
f 34 36 33
f 37 34 33
f 33 36 35
f 35 37 33
f 34 40 36
f 38 34 37
f 38 40 34
f 36 40 35
f 39 37 35
f 35 40 39
f 39 38 37
f 40 38 39
f 42 41 45
f 42 45 43
f 43 45 46
f 43 46 44
f 45 41 47
f 45 47 46
f 46 47 48
f 46 48 44
f 47 41 49
f 47 49 48
f 48 49 50
f 48 50 44
f 49 41 51
f 49 51 50
f 50 51 52
f 50 52 44
f 51 41 53
f 51 53 52
f 52 53 54
f 52 54 44
f 53 41 55
f 53 55 54
f 54 55 56
f 54 56 44
f 55 41 57
f 55 57 56
f 56 57 58
f 56 58 44
f 57 41 59
f 57 59 58
f 58 59 60
f 58 60 44
f 59 41 61
f 59 61 60
f 60 61 62
f 60 62 44
f 61 41 63
f 61 63 62
f 62 63 64
f 62 64 44
f 63 41 65
f 63 65 64
f 64 65 66
f 64 66 44
f 65 41 67
f 65 67 66
f 66 67 68
f 66 68 44
f 67 41 69
f 67 69 68
f 68 69 70
f 68 70 44
f 69 41 71
f 69 71 70
f 70 71 72
f 70 72 44
f 71 41 73
f 71 73 72
f 72 73 74
f 72 74 44
f 73 41 75
f 73 75 74
f 74 75 76
f 74 76 44
f 75 41 77
f 75 77 76
f 76 77 78
f 76 78 44
f 77 41 79
f 77 79 78
f 78 79 80
f 78 80 44
f 79 41 81
f 79 81 80
f 80 81 82
f 80 82 44
f 81 41 42
f 81 42 82
f 82 42 43
f 82 43 44
f 84 83 87
f 84 87 85
f 85 87 88
f 85 88 86
f 87 83 89
f 87 89 88
f 88 89 90
f 88 90 86
f 89 83 91
f 89 91 90
f 90 91 92
f 90 92 86
f 91 83 93
f 91 93 92
f 92 93 94
f 92 94 86
f 93 83 95
f 93 95 94
f 94 95 96
f 94 96 86
f 95 83 97
f 95 97 96
f 96 97 98
f 96 98 86
f 97 83 99
f 97 99 98
f 98 99 100
f 98 100 86
f 99 83 101
f 99 101 100
f 100 101 102
f 100 102 86
f 101 83 103
f 101 103 102
f 102 103 104
f 102 104 86
f 103 83 105
f 103 105 104
f 104 105 106
f 104 106 86
f 105 83 107
f 105 107 106
f 106 107 108
f 106 108 86
f 107 83 109
f 107 109 108
f 108 109 110
f 108 110 86
f 109 83 111
f 109 111 110
f 110 111 112
f 110 112 86
f 111 83 113
f 111 113 112
f 112 113 114
f 112 114 86
f 113 83 115
f 113 115 114
f 114 115 116
f 114 116 86
f 115 83 117
f 115 117 116
f 116 117 118
f 116 118 86
f 117 83 119
f 117 119 118
f 118 119 120
f 118 120 86
f 119 83 121
f 119 121 120
f 120 121 122
f 120 122 86
f 121 83 123
f 121 123 122
f 122 123 124
f 122 124 86
f 123 83 84
f 123 84 124
f 124 84 85
f 124 85 86
f 126 125 129
f 126 129 127
f 127 129 130
f 127 130 128
f 129 125 131
f 129 131 130
f 130 131 132
f 130 132 128
f 131 125 133
f 131 133 132
f 132 133 134
f 132 134 128
f 133 125 135
f 133 135 134
f 134 135 136
f 134 136 128
f 135 125 137
f 135 137 136
f 136 137 138
f 136 138 128
f 137 125 139
f 137 139 138
f 138 139 140
f 138 140 128
f 139 125 141
f 139 141 140
f 140 141 142
f 140 142 128
f 141 125 143
f 141 143 142
f 142 143 144
f 142 144 128
f 143 125 145
f 143 145 144
f 144 145 146
f 144 146 128
f 145 125 147
f 145 147 146
f 146 147 148
f 146 148 128
f 147 125 149
f 147 149 148
f 148 149 150
f 148 150 128
f 149 125 151
f 149 151 150
f 150 151 152
f 150 152 128
f 151 125 153
f 151 153 152
f 152 153 154
f 152 154 128
f 153 125 155
f 153 155 154
f 154 155 156
f 154 156 128
f 155 125 157
f 155 157 156
f 156 157 158
f 156 158 128
f 157 125 159
f 157 159 158
f 158 159 160
f 158 160 128
f 159 125 161
f 159 161 160
f 160 161 162
f 160 162 128
f 161 125 163
f 161 163 162
f 162 163 164
f 162 164 128
f 163 125 165
f 163 165 164
f 164 165 166
f 164 166 128
f 165 125 126
f 165 126 166
f 166 126 127
f 166 127 128
f 168 170 167
f 171 168 167
f 167 170 169
f 169 171 167
f 168 174 170
f 172 168 171
f 172 174 168
f 170 174 169
f 173 171 169
f 169 174 173
f 173 172 171
f 174 172 173

