# https://github.com/mikedh/trimesh
v -0.45316654 -0.21524470 -0.30291184
v -0.45316654 -0.21524470 0.23598892
v -0.45316654 -0.12706094 -0.30291184
v -0.45316654 -0.12706094 0.23598892
v 0.45316654 -0.21524470 -0.30291184
v 0.45316654 -0.21524470 0.23598892
v 0.45316654 -0.12706094 -0.30291184
v 0.45316654 -0.12706094 0.23598892
v -0.45316654 -0.16625373 -0.30291184
v -0.45316654 -0.16625373 -0.24412266
v -0.45316654 0.25506868 -0.30291184
v -0.45316654 0.25506868 -0.24412266
v 0.45316654 -0.16625373 -0.30291184
v 0.45316654 -0.16625373 -0.24412266
v 0.45316654 0.25506868 -0.30291184
v 0.45316654 0.25506868 -0.24412266
v -0.45316654 -0.16625373 0.17719974
v -0.45316654 -0.16625373 0.23598892
v -0.45316654 0.25506868 0.17719974
v -0.45316654 0.25506868 0.23598892
v 0.45316654 -0.16625373 0.17719974
v 0.45316654 -0.16625373 0.23598892
v 0.45316654 0.25506868 0.17719974
v 0.45316654 0.25506868 0.23598892
v -0.44091880 -0.16625373 -0.27351725
v -0.44091880 -0.16625373 0.20659433
v -0.44091880 0.25506868 -0.27351725
v -0.44091880 0.25506868 0.20659433
v -0.38212962 -0.16625373 -0.27351725
v -0.38212962 -0.16625373 0.20659433
v -0.38212962 0.25506868 -0.27351725
v -0.38212962 0.25506868 0.20659433
v 0.38212962 -0.16625373 -0.27351725
v 0.38212962 -0.16625373 0.20659433
v 0.38212962 0.25506868 -0.27351725
v 0.38212962 0.25506868 0.20659433
v 0.44091880 -0.16625373 -0.27351725
v 0.44091880 -0.16625373 0.20659433
v 0.44091880 0.25506868 -0.27351725
v 0.44091880 0.25506868 0.20659433
v -0.40417556 0.16064103 0.19731350
v -0.40417556 0.14852980 0.23458805
v -0.40417556 0.25382741 0.22759159
v -0.40417556 0.24171618 0.26486614
v 0.40417556 0.16064103 0.19731350
v 0.40417556 0.14852980 0.23458805
v 0.40417556 0.25382741 0.22759159
v 0.40417556 0.24171618 0.26486614
v -0.40417556 -0.07196522 0.22440593
v -0.40417556 -0.06116223 0.26208045
v -0.40417556 0.01280245 0.20009919
v -0.40417556 0.02360544 0.23777371
v 0.40417556 -0.07196522 0.22440593
v 0.40417556 -0.06116223 0.26208045
v 0.40417556 0.01280245 0.20009919
v 0.40417556 0.02360544 0.23777371
v -0.37723053 -0.26423568 -0.25392086
v -0.37723053 -0.26423568 -0.14614071
v -0.37723053 -0.21524470 -0.25392086
v -0.37723053 -0.21524470 -0.14614071
v -0.26945038 -0.26423568 -0.25392086
v -0.26945038 -0.26423568 -0.14614071
v -0.26945038 -0.21524470 -0.25392086
v -0.26945038 -0.21524470 -0.14614071
v 0.26945038 -0.26423568 -0.25392086
v 0.26945038 -0.26423568 -0.14614071
v 0.26945038 -0.21524470 -0.25392086
v 0.26945038 -0.21524470 -0.14614071
v 0.37723053 -0.26423568 -0.25392086
v 0.37723053 -0.26423568 -0.14614071
v 0.37723053 -0.21524470 -0.25392086
v 0.37723053 -0.21524470 -0.14614071
v -0.37723053 -0.26423568 0.07921779
v -0.37723053 -0.26423568 0.18699794
v -0.37723053 -0.21524470 0.07921779
v -0.37723053 -0.21524470 0.18699794
v -0.26945038 -0.26423568 0.07921779
v -0.26945038 -0.26423568 0.18699794
v -0.26945038 -0.21524470 0.07921779
v -0.26945038 -0.21524470 0.18699794
v 0.26945038 -0.26423568 0.07921779
v 0.26945038 -0.26423568 0.18699794
v 0.26945038 -0.21524470 0.07921779
v 0.26945038 -0.21524470 0.18699794
v 0.37723053 -0.26423568 0.07921779
v 0.37723053 -0.26423568 0.18699794
v 0.37723053 -0.21524470 0.07921779
v 0.37723053 -0.21524470 0.18699794
v -0.06368827 0.03460928 0.23108982
v -0.06368827 0.03460928 0.26048441
v -0.06368827 0.15218763 0.23108982
v -0.06368827 0.15218763 0.26048441
v 0.06368827 0.03460928 0.23108982
v 0.06368827 0.03460928 0.26048441
v 0.06368827 0.15218763 0.23108982
v 0.06368827 0.15218763 0.26048441
v -0.34741682 0.21942329 0.25068621
v -0.31559151 0.21495053 0.25068621
v -0.32950069 0.11598157 0.25068621
v -0.36132600 0.12045432 0.25068621
v -0.33150416 0.21718691 0.27851860
v -0.34541335 0.11821794 0.27851860
v -0.36332948 0.22165967 0.27851860
v -0.37723866 0.12269070 0.27851860
v -0.37924214 0.22389605 0.25068621
v -0.39315132 0.12492708 0.25068621
v -0.36332948 0.22165967 0.22285382
v -0.37723866 0.12269070 0.22285382
v -0.33150416 0.21718691 0.22285382
v -0.34541335 0.11821794 0.22285382
v -0.34741682 0.21942329 0.25068621
v -0.30860546 0.21396871 0.25068621
v -0.35396232 0.17284966 0.25068621
v -0.32801114 0.21669600 0.28462815
v -0.36682250 0.22215058 0.28462815
v -0.38622818 0.22487787 0.25068621
v -0.36682250 0.22215058 0.21674426
v -0.32801114 0.21669600 0.21674426
v -0.28920717 0.25911473 0.26048441
v -0.24925464 0.26331391 0.26048441
v -0.23602210 0.13741471 0.26048441
v -0.27597463 0.13321553 0.26048441
v -0.26923090 0.26121432 0.29527490
v -0.25599837 0.13531512 0.29527490
v -0.30918344 0.25701514 0.29527490
v -0.29595090 0.13111594 0.29527490
v -0.32915970 0.25491555 0.26048441
v -0.31592716 0.12901635 0.26048441
v -0.30918344 0.25701514 0.22569391
v -0.29595090 0.13111594 0.22569391
v -0.26923090 0.26121432 0.22569391
v -0.25599837 0.13531512 0.22569391
v -0.28920717 0.25911473 0.26048441
v -0.24048457 0.26423568 0.26048441
v -0.28298009 0.19986805 0.26048441
v -0.26484587 0.26167521 0.30291184
v -0.31356847 0.25655425 0.30291184
v -0.33792977 0.25399378 0.26048441
v -0.31356847 0.25655425 0.21805697
v -0.26484587 0.26167521 0.21805697
v 0.34741682 0.21942329 0.25068621
v 0.37924214 0.22389605 0.25068621
v 0.39315132 0.12492708 0.25068621
v 0.36132600 0.12045432 0.25068621
v 0.36332948 0.22165967 0.27851860
v 0.37723866 0.12269070 0.27851860
v 0.33150416 0.21718691 0.27851860
v 0.34541335 0.11821794 0.27851860
v 0.31559151 0.21495053 0.25068621
v 0.32950069 0.11598157 0.25068621
v 0.33150416 0.21718691 0.22285382
v 0.34541335 0.11821794 0.22285382
v 0.36332948 0.22165967 0.22285382
v 0.37723866 0.12269070 0.22285382
v 0.34741682 0.21942329 0.25068621
v 0.38622818 0.22487787 0.25068621
v 0.35396232 0.17284966 0.25068621
v 0.36682250 0.22215058 0.28462815
v 0.32801114 0.21669600 0.28462815
v 0.30860546 0.21396871 0.25068621
v 0.32801114 0.21669600 0.21674426
v 0.36682250 0.22215058 0.21674426
v 0.28920717 0.25911473 0.26048441
v 0.32915970 0.25491555 0.26048441
v 0.31592716 0.12901635 0.26048441
v 0.27597463 0.13321553 0.26048441
v 0.30918344 0.25701514 0.29527490
v 0.29595090 0.13111594 0.29527490
v 0.26923090 0.26121432 0.29527490
v 0.25599837 0.13531512 0.29527490
v 0.24925464 0.26331391 0.26048441
v 0.23602210 0.13741471 0.26048441
v 0.26923090 0.26121432 0.22569391
v 0.25599837 0.13531512 0.22569391
v 0.30918344 0.25701514 0.22569391
v 0.29595090 0.13111594 0.22569391
v 0.28920717 0.25911473 0.26048441
v 0.33792977 0.25399378 0.26048441
v 0.28298009 0.19986805 0.26048441
v 0.31356847 0.25655425 0.30291184
v 0.26484587 0.26167521 0.30291184
v 0.24048457 0.26423568 0.26048441
v 0.26484587 0.26167521 0.21805697
v 0.31356847 0.25655425 0.21805697
v -0.45309993 0.14298180 -0.11184702
v -0.42559362 0.13713516 -0.11184702
v -0.44498737 0.04589470 -0.11184702
v -0.47249369 0.05174135 -0.11184702
v -0.43934677 0.14005848 -0.08749368
v -0.45874053 0.04881803 -0.08749368
v -0.46685309 0.14590513 -0.08749368
v -0.48624684 0.05466467 -0.08749368
v -0.48060624 0.14882845 -0.11184702
v -0.50000000 0.05758800 -0.11184702
v -0.46685309 0.14590513 -0.13620037
v -0.48624684 0.05466467 -0.13620037
v -0.43934677 0.14005848 -0.13620037
v -0.45874053 0.04881803 -0.13620037
v -0.45309993 0.14298180 -0.11184702
v -0.41955564 0.13585175 -0.11184702
v -0.46222640 0.10004512 -0.11184702
v -0.43632779 0.13941678 -0.08214782
v -0.46987207 0.14654683 -0.08214782
v -0.48664421 0.15011186 -0.11184702
v -0.46987207 0.14654683 -0.14154623
v -0.43632779 0.13941678 -0.14154623
v 0.45309993 0.14298180 -0.11184702
v 0.48060624 0.14882845 -0.11184702
v 0.50000000 0.05758800 -0.11184702
v 0.47249369 0.05174135 -0.11184702
v 0.46685309 0.14590513 -0.08749368
v 0.48624684 0.05466467 -0.08749368
v 0.43934677 0.14005848 -0.08749368
v 0.45874053 0.04881803 -0.08749368
v 0.42559362 0.13713516 -0.11184702
v 0.44498737 0.04589470 -0.11184702
v 0.43934677 0.14005848 -0.13620037
v 0.45874053 0.04881803 -0.13620037
v 0.46685309 0.14590513 -0.13620037
v 0.48624684 0.05466467 -0.13620037
v 0.45309993 0.14298180 -0.11184702
v 0.48664421 0.15011186 -0.11184702
v 0.46222640 0.10004512 -0.11184702
v 0.46987207 0.14654683 -0.08214782
v 0.43632779 0.13941678 -0.08214782
v 0.41955564 0.13585175 -0.11184702
v 0.43632779 0.13941678 -0.14154623
v 0.46987207 0.14654683 -0.14154623
v 0.00000000 0.17668312 0.25068621
v -0.05389008 0.10809575 0.25068621
v 0.00000000 0.03950838 0.25068621
v 0.00000000 0.17668312 0.28987899
v -0.05389008 0.10809575 0.28987899
v 0.00000000 0.03950838 0.28987899
v 0.00000000 0.17668312 0.25068621
v 0.05389008 0.10809575 0.25068621
v 0.00000000 0.03950838 0.25068621
v 0.00000000 0.17668312 0.28987899
v 0.05389008 0.10809575 0.28987899
v 0.00000000 0.03950838 0.28987899
f 2 4 1
f 5 2 1
f 1 4 3
f 3 5 1
f 2 8 4
f 6 2 5
f 6 8 2
f 4 8 3
f 7 5 3
f 3 8 7
f 7 6 5
f 8 6 7
f 10 12 9
f 13 10 9
f 9 12 11
f 11 13 9
f 10 16 12
f 14 10 13
f 14 16 10
f 12 16 11
f 15 13 11
f 11 16 15
f 15 14 13
f 16 14 15
f 18 20 17
f 21 18 17
f 17 20 19
f 19 21 17
f 18 24 20
f 22 18 21
f 22 24 18
f 20 24 19
f 23 21 19
f 19 24 23
f 23 22 21
f 24 22 23
f 26 28 25
f 29 26 25
f 25 28 27
f 27 29 25
f 26 32 28
f 30 26 29
f 30 32 26
f 28 32 27
f 31 29 27
f 27 32 31
f 31 30 29
f 32 30 31
f 34 36 33
f 37 34 33
f 33 36 35
f 35 37 33
f 34 40 36
f 38 34 37
f 38 40 34
f 36 40 35
f 39 37 35
f 35 40 39
f 39 38 37
f 40 38 39
f 42 44 41
f 45 42 41
f 41 44 43
f 43 45 41
f 42 48 44
f 46 42 45
f 46 48 42
f 44 48 43
f 47 45 43
f 43 48 47
f 47 46 45
f 48 46 47
f 50 52 49
f 53 50 49
f 49 52 51
f 51 53 49
f 50 56 52
f 54 50 53
f 54 56 50
f 52 56 51
f 55 53 51
f 51 56 55
f 55 54 53
f 56 54 55
f 58 60 57
f 61 58 57
f 57 60 59
f 59 61 57
f 58 64 60
f 62 58 61
f 62 64 58
f 60 64 59
f 63 61 59
f 59 64 63
f 63 62 61
f 64 62 63
f 66 68 65
f 69 66 65
f 65 68 67
f 67 69 65
f 66 72 68
f 70 66 69
f 70 72 66
f 68 72 67
f 71 69 67
f 67 72 71
f 71 70 69
f 72 70 71
f 74 76 73
f 77 74 73
f 73 76 75
f 75 77 73
f 74 80 76
f 78 74 77
f 78 80 74
f 76 80 75
f 79 77 75
f 75 80 79
f 79 78 77
f 80 78 79
f 82 84 81
f 85 82 81
f 81 84 83
f 83 85 81
f 82 88 84
f 86 82 85
f 86 88 82
f 84 88 83
f 87 85 83
f 83 88 87
f 87 86 85
f 88 86 87
f 90 92 89
f 93 90 89
f 89 92 91
f 91 93 89
f 90 96 92
f 94 90 93
f 94 96 90
f 92 96 91
f 95 93 91
f 91 96 95
f 95 94 93
f 96 94 95
f 98 97 101
f 98 101 99
f 99 101 102
f 99 102 100
f 101 97 103
f 101 103 102
f 102 103 104
f 102 104 100
f 103 97 105
f 103 105 104
f 104 105 106
f 104 106 100
f 105 97 107
f 105 107 106
f 106 107 108
f 106 108 100
f 107 97 109
f 107 109 108
f 108 109 110
f 108 110 100
f 109 97 98
f 109 98 110
f 110 98 99
f 110 99 100
f 112 111 114
f 112 114 113
f 114 111 115
f 114 115 113
f 115 111 116
f 115 116 113
f 116 111 117
f 116 117 113
f 117 111 118
f 117 118 113
f 118 111 112
f 118 112 113
f 120 119 123
f 120 123 121
f 121 123 124
f 121 124 122
f 123 119 125
f 123 125 124
f 124 125 126
f 124 126 122
f 125 119 127
f 125 127 126
f 126 127 128
f 126 128 122
f 127 119 129
f 127 129 128
f 128 129 130
f 128 130 122
f 129 119 131
f 129 131 130
f 130 131 132
f 130 132 122
f 131 119 120
f 131 120 132
f 132 120 121
f 132 121 122
f 134 133 136
f 134 136 135
f 136 133 137
f 136 137 135
f 137 133 138
f 137 138 135
f 138 133 139
f 138 139 135
f 139 133 140
f 139 140 135
f 140 133 134
f 140 134 135
f 142 141 145
f 142 145 143
f 143 145 146
f 143 146 144
f 145 141 147
f 145 147 146
f 146 147 148
f 146 148 144
f 147 141 149
f 147 149 148
f 148 149 150
f 148 150 144
f 149 141 151
f 149 151 150
f 150 151 152
f 150 152 144
f 151 141 153
f 151 153 152
f 152 153 154
f 152 154 144
f 153 141 142
f 153 142 154
f 154 142 143
f 154 143 144
f 156 155 158
f 156 158 157
f 158 155 159
f 158 159 157
f 159 155 160
f 159 160 157
f 160 155 161
f 160 161 157
f 161 155 162
f 161 162 157
f 162 155 156
f 162 156 157
f 164 163 167
f 164 167 165
f 165 167 168
f 165 168 166
f 167 163 169
f 167 169 168
f 168 169 170
f 168 170 166
f 169 163 171
f 169 171 170
f 170 171 172
f 170 172 166
f 171 163 173
f 171 173 172
f 172 173 174
f 172 174 166
f 173 163 175
f 173 175 174
f 174 175 176
f 174 176 166
f 175 163 164
f 175 164 176
f 176 164 165
f 176 165 166
f 178 177 180
f 178 180 179
f 180 177 181
f 180 181 179
f 181 177 182
f 181 182 179
f 182 177 183
f 182 183 179
f 183 177 184
f 183 184 179
f 184 177 178
f 184 178 179
f 186 185 189
f 186 189 187
f 187 189 190
f 187 190 188
f 189 185 191
f 189 191 190
f 190 191 192
f 190 192 188
f 191 185 193
f 191 193 192
f 192 193 194
f 192 194 188
f 193 185 195
f 193 195 194
f 194 195 196
f 194 196 188
f 195 185 197
f 195 197 196
f 196 197 198
f 196 198 188
f 197 185 186
f 197 186 198
f 198 186 187
f 198 187 188
f 200 199 202
f 200 202 201
f 202 199 203
f 202 203 201
f 203 199 204
f 203 204 201
f 204 199 205
f 204 205 201
f 205 199 206
f 205 206 201
f 206 199 200
f 206 200 201
f 208 207 211
f 208 211 209
f 209 211 212
f 209 212 210
f 211 207 213
f 211 213 212
f 212 213 214
f 212 214 210
f 213 207 215
f 213 215 214
f 214 215 216
f 214 216 210
f 215 207 217
f 215 217 216
f 216 217 218
f 216 218 210
f 217 207 219
f 217 219 218
f 218 219 220
f 218 220 210
f 219 207 208
f 219 208 220
f 220 208 209
f 220 209 210
f 222 221 224
f 222 224 223
f 224 221 225
f 224 225 223
f 225 221 226
f 225 226 223
f 226 221 227
f 226 227 223
f 227 221 228
f 227 228 223
f 228 221 222
f 228 222 223
f 229 230 231
f 232 234 233
f 229 232 233
f 229 233 230
f 230 233 234
f 230 234 231
f 231 234 232
f 231 232 229
f 235 236 237
f 238 240 239
f 235 238 239
f 235 239 236
f 236 239 240
f 236 240 237
f 237 240 238
f 237 238 235

