# https://github.com/mikedh/trimesh
v -0.50000000 -0.15774613 -0.31039326
v -0.50000000 -0.15774613 0.27387640
v -0.50000000 -0.09033040 -0.31039326
v -0.50000000 -0.09033040 0.27387640
v 0.50000000 -0.15774613 -0.31039326
v 0.50000000 -0.15774613 0.27387640
v 0.50000000 -0.09033040 -0.31039326
v 0.50000000 -0.09033040 0.27387640
v -0.50000000 -0.21954388 -0.31039326
v -0.50000000 -0.21954388 -0.24297753
v -0.50000000 -0.15212815 -0.31039326
v -0.50000000 -0.15212815 -0.24297753
v 0.50000000 -0.21954388 -0.31039326
v 0.50000000 -0.21954388 -0.24297753
v 0.50000000 -0.15212815 -0.31039326
v 0.50000000 -0.15212815 -0.24297753
v -0.50000000 -0.21954388 0.20646067
v -0.50000000 -0.21954388 0.27387640
v -0.50000000 -0.15212815 0.20646067
v -0.50000000 -0.15212815 0.27387640
v 0.50000000 -0.21954388 0.20646067
v 0.50000000 -0.21954388 0.27387640
v 0.50000000 -0.15212815 0.20646067
v 0.50000000 -0.15212815 0.27387640
v -0.50000000 -0.21954388 -0.27668539
v -0.50000000 -0.21954388 0.24016854
v -0.50000000 -0.15212815 -0.27668539
v -0.50000000 -0.15212815 0.24016854
v -0.43258427 -0.21954388 -0.27668539
v -0.43258427 -0.21954388 0.24016854
v -0.43258427 -0.15212815 -0.27668539
v -0.43258427 -0.15212815 0.24016854
v 0.43258427 -0.21954388 -0.27668539
v 0.43258427 -0.21954388 0.24016854
v 0.43258427 -0.15212815 -0.27668539
v 0.43258427 -0.15212815 0.24016854
v 0.50000000 -0.21954388 -0.27668539
v 0.50000000 -0.21954388 0.24016854
v 0.50000000 -0.15212815 -0.27668539
v 0.50000000 -0.15212815 0.24016854
v -0.48314607 -0.03976860 -0.01825843
v -0.48314607 -0.03976860 -0.28792135
v 0.48314607 -0.03976860 -0.28792135
v 0.48314607 -0.03976860 -0.01825843
v -0.48314607 0.05246155 -0.27165868
v 0.48314607 0.05246155 -0.27165868
v -0.48314607 0.13356738 -0.22483221
v 0.48314607 0.13356738 -0.22483221
v -0.48314607 0.19376634 -0.15308989
v 0.48314607 0.19376634 -0.15308989
v -0.48314607 0.22579753 -0.06508490
v 0.48314607 0.22579753 -0.06508490
v -0.48314607 0.22579753 0.02856805
v 0.48314607 0.22579753 0.02856805
v -0.48314607 0.19376634 0.11657303
v 0.48314607 0.19376634 0.11657303
v -0.48314607 0.13356738 0.18831536
v 0.48314607 0.13356738 0.18831536
v -0.48314607 0.05246155 0.23514183
v 0.48314607 0.05246155 0.23514183
v -0.48314607 -0.03976860 0.25140449
v 0.48314607 -0.03976860 0.25140449
v -0.48314607 -0.13199875 0.23514183
v 0.48314607 -0.13199875 0.23514183
v -0.48314607 -0.21310459 0.18831536
v 0.48314607 -0.21310459 0.18831536
v -0.48314607 -0.27330354 0.11657303
v 0.48314607 -0.27330354 0.11657303
v -0.48314607 -0.30533474 0.02856805
v 0.48314607 -0.30533474 0.02856805
v -0.48314607 -0.30533474 -0.06508490
v 0.48314607 -0.30533474 -0.06508490
v -0.48314607 -0.27330354 -0.15308989
v 0.48314607 -0.27330354 -0.15308989
v -0.48314607 -0.21310459 -0.22483221
v 0.48314607 -0.21310459 -0.22483221
v -0.48314607 -0.13199875 -0.27165868
v 0.48314607 -0.13199875 -0.27165868
v -0.48314607 0.03888308 -0.01825843
v -0.48314607 0.03888308 -0.20926966
v 0.48314607 0.03888308 -0.20926966
v 0.48314607 0.03888308 -0.01825843
v -0.48314607 0.10421277 -0.19775028
v 0.48314607 0.10421277 -0.19775028
v -0.48314607 0.16166274 -0.16458152
v 0.48314607 0.16166274 -0.16458152
v -0.48314607 0.20430367 -0.11376404
v 0.48314607 0.20430367 -0.11376404
v -0.48314607 0.22699243 -0.05142718
v 0.48314607 0.22699243 -0.05142718
v -0.48314607 0.22699243 0.01491033
v 0.48314607 0.22699243 0.01491033
v -0.48314607 0.20430367 0.07724719
v 0.48314607 0.20430367 0.07724719
v -0.48314607 0.16166274 0.12806467
v 0.48314607 0.16166274 0.12806467
v -0.48314607 0.10421277 0.16123342
v 0.48314607 0.10421277 0.16123342
v -0.48314607 0.03888308 0.17275281
v 0.48314607 0.03888308 0.17275281
v -0.48314607 -0.02644661 0.16123342
v 0.48314607 -0.02644661 0.16123342
v -0.48314607 -0.08389657 0.12806467
v 0.48314607 -0.08389657 0.12806467
v -0.48314607 -0.12653750 0.07724719
v 0.48314607 -0.12653750 0.07724719
v -0.48314607 -0.14922626 0.01491033
v 0.48314607 -0.14922626 0.01491033
v -0.48314607 -0.14922626 -0.05142718
v 0.48314607 -0.14922626 -0.05142718
v -0.48314607 -0.12653750 -0.11376404
v 0.48314607 -0.12653750 -0.11376404
v -0.48314607 -0.08389657 -0.16458152
v 0.48314607 -0.08389657 -0.16458152
v -0.48314607 -0.02644661 -0.19775028
v 0.48314607 -0.02644661 -0.19775028
v -0.30248359 0.28741696 -0.00702247
v -0.26598832 0.28228789 -0.00702247
v -0.28300184 0.16123040 -0.00702247
v -0.31949712 0.16635947 -0.00702247
v -0.28423596 0.28485242 0.02489397
v -0.30124948 0.16379493 0.02489397
v -0.32073123 0.28998150 0.02489397
v -0.33774475 0.16892401 0.02489397
v -0.33897887 0.29254604 -0.00702247
v -0.35599239 0.17148855 -0.00702247
v -0.32073123 0.28998150 -0.03893891
v -0.33774475 0.16892401 -0.03893891
v -0.28423596 0.28485242 -0.03893891
v -0.30124948 0.16379493 -0.03893891
v -0.30248359 0.28741696 -0.00702247
v -0.25797716 0.28116199 -0.00702247
v -0.31048996 0.23044873 -0.00702247
v -0.28023038 0.28428948 0.03190002
v -0.32473681 0.29054445 0.03190002
v -0.34699002 0.29367193 -0.00702247
v -0.32473681 0.29054445 -0.04594496
v -0.28023038 0.28428948 -0.04594496
v -0.10433432 0.30239451 -0.00702247
v -0.05833004 0.30480550 -0.00702247
v -0.04993276 0.14457595 -0.00702247
v -0.09593704 0.14216497 -0.00702247
v -0.08133218 0.30360001 0.03287308
v -0.07293490 0.14337046 0.03287308
v -0.12733646 0.30118902 0.03287308
v -0.11893918 0.14095948 0.03287308
v -0.15033860 0.29998353 -0.00702247
v -0.14194133 0.13975398 -0.00702247
v -0.12733646 0.30118902 -0.04691802
v -0.11893918 0.14095948 -0.04691802
v -0.08133218 0.30360001 -0.04691802
v -0.07293490 0.14337046 -0.04691802
v -0.10433432 0.30239451 -0.00702247
v -0.04823154 0.30533474 -0.00702247
v -0.10038266 0.22699237 -0.00702247
v -0.07628293 0.30386463 0.04163064
v -0.13238571 0.30092440 0.04163064
v -0.16043710 0.29945429 -0.00702247
v -0.13238571 0.30092440 -0.05567558
v -0.07628293 0.30386463 -0.05567558
v 0.10433432 0.30239451 -0.00702247
v 0.15033860 0.29998353 -0.00702247
v 0.14194133 0.13975398 -0.00702247
v 0.09593704 0.14216497 -0.00702247
v 0.12733646 0.30118902 0.03287308
v 0.11893918 0.14095948 0.03287308
v 0.08133218 0.30360001 0.03287308
v 0.07293490 0.14337046 0.03287308
v 0.05833004 0.30480550 -0.00702247
v 0.04993276 0.14457595 -0.00702247
v 0.08133218 0.30360001 -0.04691802
v 0.07293490 0.14337046 -0.04691802
v 0.12733646 0.30118902 -0.04691802
v 0.11893918 0.14095948 -0.04691802
v 0.10433432 0.30239451 -0.00702247
v 0.16043710 0.29945429 -0.00702247
v 0.10038266 0.22699237 -0.00702247
v 0.13238571 0.30092440 0.04163064
v 0.07628293 0.30386463 0.04163064
v 0.04823154 0.30533474 -0.00702247
v 0.07628293 0.30386463 -0.05567558
v 0.13238571 0.30092440 -0.05567558
v 0.30248359 0.28741696 -0.00702247
v 0.33897887 0.29254604 -0.00702247
v 0.35599239 0.17148855 -0.00702247
v 0.31949712 0.16635947 -0.00702247
v 0.32073123 0.28998150 0.02489397
v 0.33774475 0.16892401 0.02489397
v 0.28423596 0.28485242 0.02489397
v 0.30124948 0.16379493 0.02489397
v 0.26598832 0.28228789 -0.00702247
v 0.28300184 0.16123040 -0.00702247
v 0.28423596 0.28485242 -0.03893891
v 0.30124948 0.16379493 -0.03893891
v 0.32073123 0.28998150 -0.03893891
v 0.33774475 0.16892401 -0.03893891
v 0.30248359 0.28741696 -0.00702247
v 0.34699002 0.29367193 -0.00702247
v 0.31048996 0.23044873 -0.00702247
v 0.32473681 0.29054445 0.03190002
v 0.28023038 0.28428948 0.03190002
v 0.25797716 0.28116199 -0.00702247
v 0.28023038 0.28428948 -0.04594496
v 0.32473681 0.29054445 -0.04594496
v -0.02808989 -0.25886972 0.28230337
v -0.02808989 -0.25886972 0.31039326
v -0.02808989 -0.14651017 0.28230337
v -0.02808989 -0.14651017 0.31039326
v 0.02808989 -0.25886972 0.28230337
v 0.02808989 -0.25886972 0.31039326
v 0.02808989 -0.14651017 0.28230337
v 0.02808989 -0.14651017 0.31039326
f 2 4 1
f 5 2 1
f 1 4 3
f 3 5 1
f 2 8 4
f 6 2 5
f 6 8 2
f 4 8 3
f 7 5 3
f 3 8 7
f 7 6 5
f 8 6 7
f 10 12 9
f 13 10 9
f 9 12 11
f 11 13 9
f 10 16 12
f 14 10 13
f 14 16 10
f 12 16 11
f 15 13 11
f 11 16 15
f 15 14 13
f 16 14 15
f 18 20 17
f 21 18 17
f 17 20 19
f 19 21 17
f 18 24 20
f 22 18 21
f 22 24 18
f 20 24 19
f 23 21 19
f 19 24 23
f 23 22 21
f 24 22 23
f 26 28 25
f 29 26 25
f 25 28 27
f 27 29 25
f 26 32 28
f 30 26 29
f 30 32 26
f 28 32 27
f 31 29 27
f 27 32 31
f 31 30 29
f 32 30 31
f 34 36 33
f 37 34 33
f 33 36 35
f 35 37 33
f 34 40 36
f 38 34 37
f 38 40 34
f 36 40 35
f 39 37 35
f 35 40 39
f 39 38 37
f 40 38 39
f 42 41 45
f 42 45 43
f 43 45 46
f 43 46 44
f 45 41 47
f 45 47 46
f 46 47 48
f 46 48 44
f 47 41 49
f 47 49 48
f 48 49 50
f 48 50 44
f 49 41 51
f 49 51 50
f 50 51 52
f 50 52 44
f 51 41 53
f 51 53 52
f 52 53 54
f 52 54 44
f 53 41 55
f 53 55 54
f 54 55 56
f 54 56 44
f 55 41 57
f 55 57 56
f 56 57 58
f 56 58 44
f 57 41 59
f 57 59 58
f 58 59 60
f 58 60 44
f 59 41 61
f 59 61 60
f 60 61 62
f 60 62 44
f 61 41 63
f 61 63 62
f 62 63 64
f 62 64 44
f 63 41 65
f 63 65 64
f 64 65 66
f 64 66 44
f 65 41 67
f 65 67 66
f 66 67 68
f 66 68 44
f 67 41 69
f 67 69 68
f 68 69 70
f 68 70 44
f 69 41 71
f 69 71 70
f 70 71 72
f 70 72 44
f 71 41 73
f 71 73 72
f 72 73 74
f 72 74 44
f 73 41 75
f 73 75 74
f 74 75 76
f 74 76 44
f 75 41 77
f 75 77 76
f 76 77 78
f 76 78 44
f 77 41 42
f 77 42 78
f 78 42 43
f 78 43 44
f 80 79 83
f 80 83 81
f 81 83 84
f 81 84 82
f 83 79 85
f 83 85 84
f 84 85 86
f 84 86 82
f 85 79 87
f 85 87 86
f 86 87 88
f 86 88 82
f 87 79 89
f 87 89 88
f 88 89 90
f 88 90 82
f 89 79 91
f 89 91 90
f 90 91 92
f 90 92 82
f 91 79 93
f 91 93 92
f 92 93 94
f 92 94 82
f 93 79 95
f 93 95 94
f 94 95 96
f 94 96 82
f 95 79 97
f 95 97 96
f 96 97 98
f 96 98 82
f 97 79 99
f 97 99 98
f 98 99 100
f 98 100 82
f 99 79 101
f 99 101 100
f 100 101 102
f 100 102 82
f 101 79 103
f 101 103 102
f 102 103 104
f 102 104 82
f 103 79 105
f 103 105 104
f 104 105 106
f 104 106 82
f 105 79 107
f 105 107 106
f 106 107 108
f 106 108 82
f 107 79 109
f 107 109 108
f 108 109 110
f 108 110 82
f 109 79 111
f 109 111 110
f 110 111 112
f 110 112 82
f 111 79 113
f 111 113 112
f 112 113 114
f 112 114 82
f 113 79 115
f 113 115 114
f 114 115 116
f 114 116 82
f 115 79 80
f 115 80 116
f 116 80 81
f 116 81 82
f 118 117 121
f 118 121 119
f 119 121 122
f 119 122 120
f 121 117 123
f 121 123 122
f 122 123 124
f 122 124 120
f 123 117 125
f 123 125 124
f 124 125 126
f 124 126 120
f 125 117 127
f 125 127 126
f 126 127 128
f 126 128 120
f 127 117 129
f 127 129 128
f 128 129 130
f 128 130 120
f 129 117 118
f 129 118 130
f 130 118 119
f 130 119 120
f 132 131 134
f 132 134 133
f 134 131 135
f 134 135 133
f 135 131 136
f 135 136 133
f 136 131 137
f 136 137 133
f 137 131 138
f 137 138 133
f 138 131 132
f 138 132 133
f 140 139 143
f 140 143 141
f 141 143 144
f 141 144 142
f 143 139 145
f 143 145 144
f 144 145 146
f 144 146 142
f 145 139 147
f 145 147 146
f 146 147 148
f 146 148 142
f 147 139 149
f 147 149 148
f 148 149 150
f 148 150 142
f 149 139 151
f 149 151 150
f 150 151 152
f 150 152 142
f 151 139 140
f 151 140 152
f 152 140 141
f 152 141 142
f 154 153 156
f 154 156 155
f 156 153 157
f 156 157 155
f 157 153 158
f 157 158 155
f 158 153 159
f 158 159 155
f 159 153 160
f 159 160 155
f 160 153 154
f 160 154 155
f 162 161 165
f 162 165 163
f 163 165 166
f 163 166 164
f 165 161 167
f 165 167 166
f 166 167 168
f 166 168 164
f 167 161 169
f 167 169 168
f 168 169 170
f 168 170 164
f 169 161 171
f 169 171 170
f 170 171 172
f 170 172 164
f 171 161 173
f 171 173 172
f 172 173 174
f 172 174 164
f 173 161 162
f 173 162 174
f 174 162 163
f 174 163 164
f 176 175 178
f 176 178 177
f 178 175 179
f 178 179 177
f 179 175 180
f 179 180 177
f 180 175 181
f 180 181 177
f 181 175 182
f 181 182 177
f 182 175 176
f 182 176 177
f 184 183 187
f 184 187 185
f 185 187 188
f 185 188 186
f 187 183 189
f 187 189 188
f 188 189 190
f 188 190 186
f 189 183 191
f 189 191 190
f 190 191 192
f 190 192 186
f 191 183 193
f 191 193 192
f 192 193 194
f 192 194 186
f 193 183 195
f 193 195 194
f 194 195 196
f 194 196 186
f 195 183 184
f 195 184 196
f 196 184 185
f 196 185 186
f 198 197 200
f 198 200 199
f 200 197 201
f 200 201 199
f 201 197 202
f 201 202 199
f 202 197 203
f 202 203 199
f 203 197 204
f 203 204 199
f 204 197 198
f 204 198 199
f 206 208 205
f 209 206 205
f 205 208 207
f 207 209 205
f 206 212 208
f 210 206 209
f 210 212 206
f 208 212 207
f 211 209 207
f 207 212 211
f 211 210 209
f 212 210 211

