# https://github.com/mikedh/trimesh
v -0.45316654 -0.21524470 -0.30291184
v -0.45316654 -0.21524470 0.23598892
v -0.45316654 -0.12706094 -0.30291184
v -0.45316654 -0.12706094 0.23598892
v 0.45316654 -0.21524470 -0.30291184
v 0.45316654 -0.21524470 0.23598892
v 0.45316654 -0.12706094 -0.30291184
v 0.45316654 -0.12706094 0.23598892
v -0.45316654 -0.16625373 -0.30291184
v -0.45316654 -0.16625373 -0.24412266
v -0.45316654 0.25506868 -0.30291184
v -0.45316654 0.25506868 -0.24412266
v 0.45316654 -0.16625373 -0.30291184
v 0.45316654 -0.16625373 -0.24412266
v 0.45316654 0.25506868 -0.30291184
v 0.45316654 0.25506868 -0.24412266
v -0.45316654 -0.16625373 0.17719974
v -0.45316654 -0.16625373 0.23598892
v -0.45316654 0.25506868 0.17719974
v -0.45316654 0.25506868 0.23598892
v 0.45316654 -0.16625373 0.17719974
v 0.45316654 -0.16625373 0.23598892
v 0.45316654 0.25506868 0.17719974
v 0.45316654 0.25506868 0.23598892
v -0.44091880 -0.16625373 -0.27351725
v -0.44091880 -0.16625373 0.20659433
v -0.44091880 0.25506868 -0.27351725
v -0.44091880 0.25506868 0.20659433
v -0.38212962 -0.16625373 -0.27351725
v -0.38212962 -0.16625373 0.20659433
v -0.38212962 0.25506868 -0.27351725
v -0.38212962 0.25506868 0.20659433
v 0.38212962 -0.16625373 -0.27351725
v 0.38212962 -0.16625373 0.20659433
v 0.38212962 0.25506868 -0.27351725
v 0.38212962 0.25506868 0.20659433
v 0.44091880 -0.16625373 -0.27351725
v 0.44091880 -0.16625373 0.20659433
v 0.44091880 0.25506868 -0.27351725
v 0.44091880 0.25506868 0.20659433
v -0.40417556 0.16064103 0.19731350
v -0.40417556 0.14852980 0.23458805
v -0.40417556 0.25382741 0.22759159
v -0.40417556 0.24171618 0.26486614
v 0.40417556 0.16064103 0.19731350
v 0.40417556 0.14852980 0.23458805
v 0.40417556 0.25382741 0.22759159
v 0.40417556 0.24171618 0.26486614
v -0.40417556 -0.07196522 0.22440593
v -0.40417556 -0.06116223 0.26208045
v -0.40417556 0.01280245 0.20009919
v -0.40417556 0.02360544 0.23777371
v 0.40417556 -0.07196522 0.22440593
v 0.40417556 -0.06116223 0.26208045
v 0.40417556 0.01280245 0.20009919
v 0.40417556 0.02360544 0.23777371
v -0.37723053 -0.26423568 -0.25392086
v -0.37723053 -0.26423568 -0.14614071
v -0.37723053 -0.21524470 -0.25392086
v -0.37723053 -0.21524470 -0.14614071
v -0.26945038 -0.26423568 -0.25392086
v -0.26945038 -0.26423568 -0.14614071
v -0.26945038 -0.21524470 -0.25392086
v -0.26945038 -0.21524470 -0.14614071
v 0.26945038 -0.26423568 -0.25392086
v 0.26945038 -0.26423568 -0.14614071
v 0.26945038 -0.21524470 -0.25392086
v 0.26945038 -0.21524470 -0.14614071
v 0.37723053 -0.26423568 -0.25392086
v 0.37723053 -0.26423568 -0.14614071
v 0.37723053 -0.21524470 -0.25392086
v 0.37723053 -0.21524470 -0.14614071
v -0.37723053 -0.26423568 0.07921779
v -0.37723053 -0.26423568 0.18699794
v -0.37723053 -0.21524470 0.07921779
v -0.37723053 -0.21524470 0.18699794
v -0.26945038 -0.26423568 0.07921779
v -0.26945038 -0.26423568 0.18699794
v -0.26945038 -0.21524470 0.07921779
v -0.26945038 -0.21524470 0.18699794
v 0.26945038 -0.26423568 0.07921779
v 0.26945038 -0.26423568 0.18699794
v 0.26945038 -0.21524470 0.07921779
v 0.26945038 -0.21524470 0.18699794
v 0.37723053 -0.26423568 0.07921779
v 0.37723053 -0.26423568 0.18699794
v 0.37723053 -0.21524470 0.07921779
v 0.37723053 -0.21524470 0.18699794
v -0.06368827 0.03460928 0.23108982
v -0.06368827 0.03460928 0.26048441
v -0.06368827 0.15218763 0.23108982
v -0.06368827 0.15218763 0.26048441
v 0.06368827 0.03460928 0.23108982
v 0.06368827 0.03460928 0.26048441
v 0.06368827 0.15218763 0.23108982
v 0.06368827 0.15218763 0.26048441
v -0.34741682 0.21942329 0.25068621
v -0.31559151 0.21495053 0.25068621
v -0.32950069 0.11598157 0.25068621
v -0.36132600 0.12045432 0.25068621
v -0.33150416 0.21718691 0.27851860
v -0.34541335 0.11821794 0.27851860
v -0.36332948 0.22165967 0.27851860
v -0.37723866 0.12269070 0.27851860
v -0.37924214 0.22389605 0.25068621
v -0.39315132 0.12492708 0.25068621
v -0.36332948 0.22165967 0.22285382
v -0.37723866 0.12269070 0.22285382
v -0.33150416 0.21718691 0.22285382
v -0.34541335 0.11821794 0.22285382
v -0.34741682 0.21942329 0.25068621
v -0.30860546 0.21396871 0.25068621
v -0.35396232 0.17284966 0.25068621
v -0.32801114 0.21669600 0.28462815
v -0.36682250 0.22215058 0.28462815
v -0.38622818 0.22487787 0.25068621
v -0.36682250 0.22215058 0.21674426
v -0.32801114 0.21669600 0.21674426
v -0.28920717 0.25911473 0.26048441
v -0.24925464 0.26331391 0.26048441
v -0.23602210 0.13741471 0.26048441
v -0.27597463 0.13321553 0.26048441
v -0.26923090 0.26121432 0.29527490
v -0.25599837 0.13531512 0.29527490
v -0.30918344 0.25701514 0.29527490
v -0.29595090 0.13111594 0.29527490
v -0.32915970 0.25491555 0.26048441
v -0.31592716 0.12901635 0.26048441
v -0.30918344 0.25701514 0.22569391
v -0.29595090 0.13111594 0.22569391
v -0.26923090 0.26121432 0.22569391
v -0.25599837 0.13531512 0.22569391
v -0.28920717 0.25911473 0.26048441
v -0.24048457 0.26423568 0.26048441
v -0.28298009 0.19986805 0.26048441
v -0.26484587 0.26167521 0.30291184
v -0.31356847 0.25655425 0.30291184
v -0.33792977 0.25399378 0.26048441
v -0.31356847 0.25655425 0.21805697
v -0.26484587 0.26167521 0.21805697
v 0.34741682 0.21942329 0.25068621
v 0.37924214 0.22389605 0.25068621
v 0.39315132 0.12492708 0.25068621
v 0.36132600 0.12045432 0.25068621
v 0.36332948 0.22165967 0.27851860
v 0.37723866 0.12269070 0.27851860
v 0.33150416 0.21718691 0.27851860
v 0.34541335 0.11821794 0.27851860
v 0.31559151 0.21495053 0.25068621
v 0.32950069 0.11598157 0.25068621
v 0.33150416 0.21718691 0.22285382
v 0.34541335 0.11821794 0.22285382
v 0.36332948 0.22165967 0.22285382
v 0.37723866 0.12269070 0.22285382
v 0.34741682 0.21942329 0.25068621
v 0.38622818 0.22487787 0.25068621
v 0.35396232 0.17284966 0.25068621
v 0.36682250 0.22215058 0.28462815
v 0.32801114 0.21669600 0.28462815
v 0.30860546 0.21396871 0.25068621
v 0.32801114 0.21669600 0.21674426
v 0.36682250 0.22215058 0.21674426
v 0.28920717 0.25911473 0.26048441
v 0.32915970 0.25491555 0.26048441
v 0.31592716 0.12901635 0.26048441
v 0.27597463 0.13321553 0.26048441
v 0.30918344 0.25701514 0.29527490
v 0.29595090 0.13111594 0.29527490
v 0.26923090 0.26121432 0.29527490
v 0.25599837 0.13531512 0.29527490
v 0.24925464 0.26331391 0.26048441
v 0.23602210 0.13741471 0.26048441
v 0.26923090 0.26121432 0.22569391
v 0.25599837 0.13531512 0.22569391
v 0.30918344 0.25701514 0.22569391
v 0.29595090 0.13111594 0.22569391
v 0.28920717 0.25911473 0.26048441
v 0.33792977 0.25399378 0.26048441
v 0.28298009 0.19986805 0.26048441
v 0.31356847 0.25655425 0.30291184
v 0.26484587 0.26167521 0.30291184
v 0.24048457 0.26423568 0.26048441
v 0.26484587 0.26167521 0.21805697
v 0.31356847 0.25655425 0.21805697
v -0.45309993 0.14298180 -0.11184702
v -0.42559362 0.13713516 -0.11184702
v -0.44498737 0.04589470 -0.11184702
v -0.47249369 0.05174135 -0.11184702
v -0.43934677 0.14005848 -0.08749368
v -0.45874053 0.04881803 -0.08749368
v -0.46685309 0.14590513 -0.08749368
v -0.48624684 0.05466467 -0.08749368
v -0.48060624 0.14882845 -0.11184702
v -0.50000000 0.05758800 -0.11184702
v -0.46685309 0.14590513 -0.13620037
v -0.48624684 0.05466467 -0.13620037
v -0.43934677 0.14005848 -0.13620037
v -0.45874053 0.04881803 -0.13620037
v -0.45309993 0.14298180 -0.11184702
v -0.41955564 0.13585175 -0.11184702
v -0.46222640 0.10004512 -0.11184702
v -0.43632779 0.13941678 -0.08214782
v -0.46987207 0.14654683 -0.08214782
v -0.48664421 0.15011186 -0.11184702
v -0.46987207 0.14654683 -0.14154623
v -0.43632779 0.13941678 -0.14154623
v 0.45309993 0.14298180 -0.11184702
v 0.48060624 0.14882845 -0.11184702
v 0.50000000 0.05758800 -0.11184702
v 0.47249369 0.05174135 -0.11184702
v 0.46685309 0.14590513 -0.08749368
v 0.48624684 0.05466467 -0.08749368
v 0.43934677 0.14005848 -0.08749368
v 0.45874053 0.04881803 -0.08749368
v 0.42559362 0.13713516 -0.11184702
v 0.44498737 0.04589470 -0.11184702
v 0.43934677 0.14005848 -0.13620037
v 0.45874053 0.04881803 -0.13620037
v 0.46685309 0.14590513 -0.13620037
v 0.48624684 0.05466467 -0.13620037
v 0.45309993 0.14298180 -0.11184702
v 0.48664421 0.15011186 -0.11184702
v 0.46222640 0.10004512 -0.11184702
v 0.46987207 0.14654683 -0.08214782
v 0.43632779 0.13941678 -0.08214782
v 0.41955564 0.13585175 -0.11184702
v 0.43632779 0.13941678 -0.14154623
v 0.46987207 0.14654683 -0.14154623
v 0.00000000 0.17668312 0.25068621
v -0.05389008 0.10809575 0.25068621
v 0.00000000 0.03950838 0.25068621
v 0.00000000 0.17668312 0.28987899
v -0.05389008 0.10809575 0.28987899
v 0.00000000 0.03950838 0.28987899
v 0.00000000 0.17668312 0.25068621
v 0.05389008 0.10809575 0.25068621
v 0.00000000 0.03950838 0.25068621
v 0.00000000 0.17668312 0.28987899
v 0.05389008 0.10809575 0.28987899
v 0.00000000 0.03950838 0.28987899
v -0.50000000 0.83325550 0.07138145
v -0.50000000 1.37498090 -0.14748982
v -0.50000000 0.80800112 0.00887467
v -0.50000000 1.34972652 -0.20999660
v 0.50000000 0.83325550 0.07138145
v 0.50000000 1.37498090 -0.14748982
v 0.50000000 0.80800112 0.00887467
v 0.50000000 1.34972652 -0.20999660
v -0.50000000 0.85640534 0.12867932
v -0.50000000 0.91891212 0.10342495
v -0.50000000 0.83115097 0.06617255
v -0.50000000 0.89365774 0.04091817
v 0.50000000 0.85640534 0.12867932
v 0.50000000 0.91891212 0.10342495
v 0.50000000 0.83115097 0.06617255
v 0.50000000 0.89365774 0.04091817
v -0.50000000 1.33562397 -0.06493757
v -0.50000000 1.39813074 -0.09019194
v -0.50000000 1.31036959 -0.12744434
v -0.50000000 1.37287637 -0.15269872
v 0.50000000 1.33562397 -0.06493757
v 0.50000000 1.39813074 -0.09019194
v 0.50000000 1.31036959 -0.12744434
v 0.50000000 1.37287637 -0.15269872
v -0.50000000 0.88765873 0.11605214
v -0.50000000 1.36687735 -0.07756476
v -0.50000000 0.86240436 0.05354536
v -0.50000000 1.34162298 -0.14007153
v -0.43258427 0.88765873 0.11605214
v -0.43258427 1.36687735 -0.07756476
v -0.43258427 0.86240436 0.05354536
v -0.43258427 1.34162298 -0.14007153
v 0.43258427 0.88765873 0.11605214
v 0.43258427 1.36687735 -0.07756476
v 0.43258427 0.86240436 0.05354536
v 0.43258427 1.34162298 -0.14007153
v 0.50000000 0.88765873 0.11605214
v 0.50000000 1.36687735 -0.07756476
v 0.50000000 0.86240436 0.05354536
v 0.50000000 1.34162298 -0.14007153
v -0.48314607 1.05992304 -0.14744105
v -0.48314607 0.80989593 -0.04642354
v 0.48314607 0.80989593 -0.04642354
v 0.48314607 1.05992304 -0.14744105
v -0.48314607 0.79042439 -0.13802995
v 0.48314607 0.79042439 -0.13802995
v -0.48314607 0.80345836 -0.23077147
v 0.48314607 0.80345836 -0.23077147
v -0.48314607 0.84742576 -0.31346212
v 0.48314607 0.84742576 -0.31346212
v -0.48314607 0.91702346 -0.37612818
v 0.48314607 0.91702346 -0.37612818
v -0.48314607 1.00385696 -0.41121119
v 0.48314607 1.00385696 -0.41121119
v -0.48314607 1.09745286 -0.41447963
v 0.48314607 1.09745286 -0.41447963
v -0.48314607 1.18652211 -0.38553928
v 0.48314607 1.18652211 -0.38553928
v -0.48314607 1.26032164 -0.32788076
v 0.48314607 1.26032164 -0.32788076
v -0.48314607 1.30995015 -0.24845856
v 0.48314607 1.30995015 -0.24845856
v -0.48314607 1.32942169 -0.15685215
v 0.48314607 1.32942169 -0.15685215
v -0.48314607 1.31638772 -0.06411062
v 0.48314607 1.31638772 -0.06411062
v -0.48314607 1.27242032 0.01858002
v 0.48314607 1.27242032 0.01858002
v -0.48314607 1.20282262 0.08124608
v 0.48314607 1.20282262 0.08124608
v -0.48314607 1.11598911 0.11632909
v 0.48314607 1.11598911 0.11632909
v -0.48314607 1.02239321 0.11959753
v 0.48314607 1.02239321 0.11959753
v -0.48314607 0.93332397 0.09065718
v 0.48314607 0.93332397 0.09065718
v -0.48314607 0.85952443 0.03299867
v 0.48314607 0.85952443 0.03299867
v -0.48314607 1.03045960 -0.22036562
v -0.48314607 0.85335706 -0.14881155
v 0.48314607 0.85335706 -0.14881155
v 0.48314607 1.03045960 -0.22036562
v -0.48314607 0.83956472 -0.21369942
v 0.48314607 0.83956472 -0.21369942
v -0.48314607 0.84879712 -0.27939134
v 0.48314607 0.84879712 -0.27939134
v -0.48314607 0.87994069 -0.33796388
v 0.48314607 0.87994069 -0.33796388
v -0.48314607 0.92923906 -0.38235234
v 0.48314607 0.92923906 -0.38235234
v -0.48314607 0.99074613 -0.40720280
v 0.48314607 0.99074613 -0.40720280
v -0.48314607 1.05704322 -0.40951795
v 0.48314607 1.05704322 -0.40951795
v -0.48314607 1.12013394 -0.38901853
v 0.48314607 1.12013394 -0.38901853
v -0.48314607 1.17240861 -0.34817709
v 0.48314607 1.17240861 -0.34817709
v -0.48314607 1.20756213 -0.29191969
v 0.48314607 1.20756213 -0.29191969
v -0.48314607 1.22135448 -0.22703182
v 0.48314607 1.22135448 -0.22703182
v -0.48314607 1.21212208 -0.16133990
v 0.48314607 1.21212208 -0.16133990
v -0.48314607 1.18097851 -0.10276736
v 0.48314607 1.18097851 -0.10276736
v -0.48314607 1.13168013 -0.05837891
v 0.48314607 1.13168013 -0.05837891
v -0.48314607 1.07017307 -0.03352844
v 0.48314607 1.07017307 -0.03352844
v -0.48314607 1.00387597 -0.03121329
v 0.48314607 1.00387597 -0.03121329
v -0.48314607 0.94078526 -0.05171271
v 0.48314607 0.94078526 -0.05171271
v -0.48314607 0.88851059 -0.09255416
v 0.48314607 0.88851059 -0.09255416
v -0.30248359 0.94777497 -0.45501128
v -0.26598832 0.94969635 -0.45025569
v -0.28300184 0.99504528 -0.33801314
v -0.31949712 0.99312390 -0.34276873
v -0.28423596 0.97832807 -0.46458959
v -0.30124948 1.02367700 -0.35234704
v -0.32073123 0.97640668 -0.46934519
v -0.33774475 1.02175562 -0.35710264
v -0.33897887 0.94585358 -0.45976688
v -0.35599239 0.99120251 -0.34752433
v -0.32073123 0.91722186 -0.44543297
v -0.33774475 0.96257080 -0.33319042
v -0.28423596 0.91914325 -0.44067738
v -0.30124948 0.96449218 -0.32843483
v -0.30248359 0.94777497 -0.45501128
v -0.25797716 0.95011812 -0.44921178
v -0.31048996 0.96911564 -0.40219126
v -0.28023038 0.98503485 -0.46669215
v -0.32473681 0.98269169 -0.47249166
v -0.34699002 0.94543181 -0.46081079
v -0.32473681 0.91051508 -0.44333042
v -0.28023038 0.91285824 -0.43753091
v -0.10433432 0.94216428 -0.46889823
v -0.05833004 0.94126111 -0.47113365
v -0.04993276 1.00128415 -0.32257140
v -0.09593704 1.00218732 -0.32033598
v -0.08133218 0.97870320 -0.48496108
v -0.07293490 1.03872625 -0.33639883
v -0.12733646 0.97960637 -0.48272565
v -0.11893918 1.03962942 -0.33416340
v -0.15033860 0.94306745 -0.46666280
v -0.14194133 1.00309049 -0.31810055
v -0.12733646 0.90562535 -0.45283538
v -0.11893918 0.96564839 -0.30427313
v -0.08133218 0.90472218 -0.45507080
v -0.07293490 0.96474522 -0.30650855
v -0.10433432 0.94216428 -0.46889823
v -0.04823154 0.94106285 -0.47162435
v -0.10038266 0.97041041 -0.39898658
v -0.07628293 0.98672394 -0.48848707
v -0.13238571 0.98782537 -0.48576094
v -0.16043710 0.94326570 -0.46617210
v -0.13238571 0.89760461 -0.44930939
v -0.07628293 0.89650318 -0.45203551
v 0.10433432 0.94216428 -0.46889823
v 0.15033860 0.94306745 -0.46666280
v 0.14194133 1.00309049 -0.31810055
v 0.09593704 1.00218732 -0.32033598
v 0.12733646 0.97960637 -0.48272565
v 0.11893918 1.03962942 -0.33416340
v 0.08133218 0.97870320 -0.48496108
v 0.07293490 1.03872625 -0.33639883
v 0.05833004 0.94126111 -0.47113365
v 0.04993276 1.00128415 -0.32257140
v 0.08133218 0.90472218 -0.45507080
v 0.07293490 0.96474522 -0.30650855
v 0.12733646 0.90562535 -0.45283538
v 0.11893918 0.96564839 -0.30427313
v 0.10433432 0.94216428 -0.46889823
v 0.16043710 0.94326570 -0.46617210
v 0.10038266 0.97041041 -0.39898658
v 0.13238571 0.98782537 -0.48576094
v 0.07628293 0.98672394 -0.48848707
v 0.04823154 0.94106285 -0.47162435
v 0.07628293 0.89650318 -0.45203551
v 0.13238571 0.89760461 -0.44930939
v 0.30248359 0.94777497 -0.45501128
v 0.33897887 0.94585358 -0.45976688
v 0.35599239 0.99120251 -0.34752433
v 0.31949712 0.99312390 -0.34276873
v 0.32073123 0.97640668 -0.46934519
v 0.33774475 1.02175562 -0.35710264
v 0.28423596 0.97832807 -0.46458959
v 0.30124948 1.02367700 -0.35234704
v 0.26598832 0.94969635 -0.45025569
v 0.28300184 0.99504528 -0.33801314
v 0.28423596 0.91914325 -0.44067738
v 0.30124948 0.96449218 -0.32843483
v 0.32073123 0.91722186 -0.44543297
v 0.33774475 0.96257080 -0.33319042
v 0.30248359 0.94777497 -0.45501128
v 0.34699002 0.94543181 -0.46081079
v 0.31048996 0.96911564 -0.40219126
v 0.32473681 0.98269169 -0.47249166
v 0.28023038 0.98503485 -0.46669215
v 0.25797716 0.95011812 -0.44921178
v 0.28023038 0.91285824 -0.43753091
v 0.32473681 0.91051508 -0.44333042
v -0.02808989 1.42067581 -0.05688645
v -0.02808989 1.44672030 -0.06740911
v -0.02808989 1.37858518 -0.16106442
v -0.02808989 1.40462967 -0.17158707
v 0.02808989 1.42067581 -0.05688645
v 0.02808989 1.44672030 -0.06740911
v 0.02808989 1.37858518 -0.16106442
v 0.02808989 1.40462967 -0.17158707
f 2 4 1
f 5 2 1
f 1 4 3
f 3 5 1
f 2 8 4
f 6 2 5
f 6 8 2
f 4 8 3
f 7 5 3
f 3 8 7
f 7 6 5
f 8 6 7
f 10 12 9
f 13 10 9
f 9 12 11
f 11 13 9
f 10 16 12
f 14 10 13
f 14 16 10
f 12 16 11
f 15 13 11
f 11 16 15
f 15 14 13
f 16 14 15
f 18 20 17
f 21 18 17
f 17 20 19
f 19 21 17
f 18 24 20
f 22 18 21
f 22 24 18
f 20 24 19
f 23 21 19
f 19 24 23
f 23 22 21
f 24 22 23
f 26 28 25
f 29 26 25
f 25 28 27
f 27 29 25
f 26 32 28
f 30 26 29
f 30 32 26
f 28 32 27
f 31 29 27
f 27 32 31
f 31 30 29
f 32 30 31
f 34 36 33
f 37 34 33
f 33 36 35
f 35 37 33
f 34 40 36
f 38 34 37
f 38 40 34
f 36 40 35
f 39 37 35
f 35 40 39
f 39 38 37
f 40 38 39
f 42 44 41
f 45 42 41
f 41 44 43
f 43 45 41
f 42 48 44
f 46 42 45
f 46 48 42
f 44 48 43
f 47 45 43
f 43 48 47
f 47 46 45
f 48 46 47
f 50 52 49
f 53 50 49
f 49 52 51
f 51 53 49
f 50 56 52
f 54 50 53
f 54 56 50
f 52 56 51
f 55 53 51
f 51 56 55
f 55 54 53
f 56 54 55
f 58 60 57
f 61 58 57
f 57 60 59
f 59 61 57
f 58 64 60
f 62 58 61
f 62 64 58
f 60 64 59
f 63 61 59
f 59 64 63
f 63 62 61
f 64 62 63
f 66 68 65
f 69 66 65
f 65 68 67
f 67 69 65
f 66 72 68
f 70 66 69
f 70 72 66
f 68 72 67
f 71 69 67
f 67 72 71
f 71 70 69
f 72 70 71
f 74 76 73
f 77 74 73
f 73 76 75
f 75 77 73
f 74 80 76
f 78 74 77
f 78 80 74
f 76 80 75
f 79 77 75
f 75 80 79
f 79 78 77
f 80 78 79
f 82 84 81
f 85 82 81
f 81 84 83
f 83 85 81
f 82 88 84
f 86 82 85
f 86 88 82
f 84 88 83
f 87 85 83
f 83 88 87
f 87 86 85
f 88 86 87
f 90 92 89
f 93 90 89
f 89 92 91
f 91 93 89
f 90 96 92
f 94 90 93
f 94 96 90
f 92 96 91
f 95 93 91
f 91 96 95
f 95 94 93
f 96 94 95
f 98 97 101
f 98 101 99
f 99 101 102
f 99 102 100
f 101 97 103
f 101 103 102
f 102 103 104
f 102 104 100
f 103 97 105
f 103 105 104
f 104 105 106
f 104 106 100
f 105 97 107
f 105 107 106
f 106 107 108
f 106 108 100
f 107 97 109
f 107 109 108
f 108 109 110
f 108 110 100
f 109 97 98
f 109 98 110
f 110 98 99
f 110 99 100
f 112 111 114
f 112 114 113
f 114 111 115
f 114 115 113
f 115 111 116
f 115 116 113
f 116 111 117
f 116 117 113
f 117 111 118
f 117 118 113
f 118 111 112
f 118 112 113
f 120 119 123
f 120 123 121
f 121 123 124
f 121 124 122
f 123 119 125
f 123 125 124
f 124 125 126
f 124 126 122
f 125 119 127
f 125 127 126
f 126 127 128
f 126 128 122
f 127 119 129
f 127 129 128
f 128 129 130
f 128 130 122
f 129 119 131
f 129 131 130
f 130 131 132
f 130 132 122
f 131 119 120
f 131 120 132
f 132 120 121
f 132 121 122
f 134 133 136
f 134 136 135
f 136 133 137
f 136 137 135
f 137 133 138
f 137 138 135
f 138 133 139
f 138 139 135
f 139 133 140
f 139 140 135
f 140 133 134
f 140 134 135
f 142 141 145
f 142 145 143
f 143 145 146
f 143 146 144
f 145 141 147
f 145 147 146
f 146 147 148
f 146 148 144
f 147 141 149
f 147 149 148
f 148 149 150
f 148 150 144
f 149 141 151
f 149 151 150
f 150 151 152
f 150 152 144
f 151 141 153
f 151 153 152
f 152 153 154
f 152 154 144
f 153 141 142
f 153 142 154
f 154 142 143
f 154 143 144
f 156 155 158
f 156 158 157
f 158 155 159
f 158 159 157
f 159 155 160
f 159 160 157
f 160 155 161
f 160 161 157
f 161 155 162
f 161 162 157
f 162 155 156
f 162 156 157
f 164 163 167
f 164 167 165
f 165 167 168
f 165 168 166
f 167 163 169
f 167 169 168
f 168 169 170
f 168 170 166
f 169 163 171
f 169 171 170
f 170 171 172
f 170 172 166
f 171 163 173
f 171 173 172
f 172 173 174
f 172 174 166
f 173 163 175
f 173 175 174
f 174 175 176
f 174 176 166
f 175 163 164
f 175 164 176
f 176 164 165
f 176 165 166
f 178 177 180
f 178 180 179
f 180 177 181
f 180 181 179
f 181 177 182
f 181 182 179
f 182 177 183
f 182 183 179
f 183 177 184
f 183 184 179
f 184 177 178
f 184 178 179
f 186 185 189
f 186 189 187
f 187 189 190
f 187 190 188
f 189 185 191
f 189 191 190
f 190 191 192
f 190 192 188
f 191 185 193
f 191 193 192
f 192 193 194
f 192 194 188
f 193 185 195
f 193 195 194
f 194 195 196
f 194 196 188
f 195 185 197
f 195 197 196
f 196 197 198
f 196 198 188
f 197 185 186
f 197 186 198
f 198 186 187
f 198 187 188
f 200 199 202
f 200 202 201
f 202 199 203
f 202 203 201
f 203 199 204
f 203 204 201
f 204 199 205
f 204 205 201
f 205 199 206
f 205 206 201
f 206 199 200
f 206 200 201
f 208 207 211
f 208 211 209
f 209 211 212
f 209 212 210
f 211 207 213
f 211 213 212
f 212 213 214
f 212 214 210
f 213 207 215
f 213 215 214
f 214 215 216
f 214 216 210
f 215 207 217
f 215 217 216
f 216 217 218
f 216 218 210
f 217 207 219
f 217 219 218
f 218 219 220
f 218 220 210
f 219 207 208
f 219 208 220
f 220 208 209
f 220 209 210
f 222 221 224
f 222 224 223
f 224 221 225
f 224 225 223
f 225 221 226
f 225 226 223
f 226 221 227
f 226 227 223
f 227 221 228
f 227 228 223
f 228 221 222
f 228 222 223
f 229 230 231
f 232 234 233
f 229 232 233
f 229 233 230
f 230 233 234
f 230 234 231
f 231 234 232
f 231 232 229
f 235 236 237
f 238 240 239
f 235 238 239
f 235 239 236
f 236 239 240
f 236 240 237
f 237 240 238
f 237 238 235
f 242 244 241
f 245 242 241
f 241 244 243
f 243 245 241
f 242 248 244
f 246 242 245
f 246 248 242
f 244 248 243
f 247 245 243
f 243 248 247
f 247 246 245
f 248 246 247
f 250 252 249
f 253 250 249
f 249 252 251
f 251 253 249
f 250 256 252
f 254 250 253
f 254 256 250
f 252 256 251
f 255 253 251
f 251 256 255
f 255 254 253
f 256 254 255
f 258 260 257
f 261 258 257
f 257 260 259
f 259 261 257
f 258 264 260
f 262 258 261
f 262 264 258
f 260 264 259
f 263 261 259
f 259 264 263
f 263 262 261
f 264 262 263
f 266 268 265
f 269 266 265
f 265 268 267
f 267 269 265
f 266 272 268
f 270 266 269
f 270 272 266
f 268 272 267
f 271 269 267
f 267 272 271
f 271 270 269
f 272 270 271
f 274 276 273
f 277 274 273
f 273 276 275
f 275 277 273
f 274 280 276
f 278 274 277
f 278 280 274
f 276 280 275
f 279 277 275
f 275 280 279
f 279 278 277
f 280 278 279
f 282 281 285
f 282 285 283
f 283 285 286
f 283 286 284
f 285 281 287
f 285 287 286
f 286 287 288
f 286 288 284
f 287 281 289
f 287 289 288
f 288 289 290
f 288 290 284
f 289 281 291
f 289 291 290
f 290 291 292
f 290 292 284
f 291 281 293
f 291 293 292
f 292 293 294
f 292 294 284
f 293 281 295
f 293 295 294
f 294 295 296
f 294 296 284
f 295 281 297
f 295 297 296
f 296 297 298
f 296 298 284
f 297 281 299
f 297 299 298
f 298 299 300
f 298 300 284
f 299 281 301
f 299 301 300
f 300 301 302
f 300 302 284
f 301 281 303
f 301 303 302
f 302 303 304
f 302 304 284
f 303 281 305
f 303 305 304
f 304 305 306
f 304 306 284
f 305 281 307
f 305 307 306
f 306 307 308
f 306 308 284
f 307 281 309
f 307 309 308
f 308 309 310
f 308 310 284
f 309 281 311
f 309 311 310
f 310 311 312
f 310 312 284
f 311 281 313
f 311 313 312
f 312 313 314
f 312 314 284
f 313 281 315
f 313 315 314
f 314 315 316
f 314 316 284
f 315 281 317
f 315 317 316
f 316 317 318
f 316 318 284
f 317 281 282
f 317 282 318
f 318 282 283
f 318 283 284
f 320 319 323
f 320 323 321
f 321 323 324
f 321 324 322
f 323 319 325
f 323 325 324
f 324 325 326
f 324 326 322
f 325 319 327
f 325 327 326
f 326 327 328
f 326 328 322
f 327 319 329
f 327 329 328
f 328 329 330
f 328 330 322
f 329 319 331
f 329 331 330
f 330 331 332
f 330 332 322
f 331 319 333
f 331 333 332
f 332 333 334
f 332 334 322
f 333 319 335
f 333 335 334
f 334 335 336
f 334 336 322
f 335 319 337
f 335 337 336
f 336 337 338
f 336 338 322
f 337 319 339
f 337 339 338
f 338 339 340
f 338 340 322
f 339 319 341
f 339 341 340
f 340 341 342
f 340 342 322
f 341 319 343
f 341 343 342
f 342 343 344
f 342 344 322
f 343 319 345
f 343 345 344
f 344 345 346
f 344 346 322
f 345 319 347
f 345 347 346
f 346 347 348
f 346 348 322
f 347 319 349
f 347 349 348
f 348 349 350
f 348 350 322
f 349 319 351
f 349 351 350
f 350 351 352
f 350 352 322
f 351 319 353
f 351 353 352
f 352 353 354
f 352 354 322
f 353 319 355
f 353 355 354
f 354 355 356
f 354 356 322
f 355 319 320
f 355 320 356
f 356 320 321
f 356 321 322
f 358 357 361
f 358 361 359
f 359 361 362
f 359 362 360
f 361 357 363
f 361 363 362
f 362 363 364
f 362 364 360
f 363 357 365
f 363 365 364
f 364 365 366
f 364 366 360
f 365 357 367
f 365 367 366
f 366 367 368
f 366 368 360
f 367 357 369
f 367 369 368
f 368 369 370
f 368 370 360
f 369 357 358
f 369 358 370
f 370 358 359
f 370 359 360
f 372 371 374
f 372 374 373
f 374 371 375
f 374 375 373
f 375 371 376
f 375 376 373
f 376 371 377
f 376 377 373
f 377 371 378
f 377 378 373
f 378 371 372
f 378 372 373
f 380 379 383
f 380 383 381
f 381 383 384
f 381 384 382
f 383 379 385
f 383 385 384
f 384 385 386
f 384 386 382
f 385 379 387
f 385 387 386
f 386 387 388
f 386 388 382
f 387 379 389
f 387 389 388
f 388 389 390
f 388 390 382
f 389 379 391
f 389 391 390
f 390 391 392
f 390 392 382
f 391 379 380
f 391 380 392
f 392 380 381
f 392 381 382
f 394 393 396
f 394 396 395
f 396 393 397
f 396 397 395
f 397 393 398
f 397 398 395
f 398 393 399
f 398 399 395
f 399 393 400
f 399 400 395
f 400 393 394
f 400 394 395
f 402 401 405
f 402 405 403
f 403 405 406
f 403 406 404
f 405 401 407
f 405 407 406
f 406 407 408
f 406 408 404
f 407 401 409
f 407 409 408
f 408 409 410
f 408 410 404
f 409 401 411
f 409 411 410
f 410 411 412
f 410 412 404
f 411 401 413
f 411 413 412
f 412 413 414
f 412 414 404
f 413 401 402
f 413 402 414
f 414 402 403
f 414 403 404
f 416 415 418
f 416 418 417
f 418 415 419
f 418 419 417
f 419 415 420
f 419 420 417
f 420 415 421
f 420 421 417
f 421 415 422
f 421 422 417
f 422 415 416
f 422 416 417
f 424 423 427
f 424 427 425
f 425 427 428
f 425 428 426
f 427 423 429
f 427 429 428
f 428 429 430
f 428 430 426
f 429 423 431
f 429 431 430
f 430 431 432
f 430 432 426
f 431 423 433
f 431 433 432
f 432 433 434
f 432 434 426
f 433 423 435
f 433 435 434
f 434 435 436
f 434 436 426
f 435 423 424
f 435 424 436
f 436 424 425
f 436 425 426
f 438 437 440
f 438 440 439
f 440 437 441
f 440 441 439
f 441 437 442
f 441 442 439
f 442 437 443
f 442 443 439
f 443 437 444
f 443 444 439
f 444 437 438
f 444 438 439
f 446 448 445
f 449 446 445
f 445 448 447
f 447 449 445
f 446 452 448
f 450 446 449
f 450 452 446
f 448 452 447
f 451 449 447
f 447 452 451
f 451 450 449
f 452 450 451

