# https://github.com/mikedh/trimesh
v -0.47916667 -0.24739583 -0.30623001
v -0.47916667 -0.24739583 0.27710332
v -0.47916667 -0.15364583 -0.30623001
v -0.47916667 -0.15364583 0.27710332
v 0.47916667 -0.24739583 -0.30623001
v 0.47916667 -0.24739583 0.27710332
v 0.47916667 -0.15364583 -0.30623001
v 0.47916667 -0.15364583 0.27710332
v -0.47916667 -0.20052083 -0.30623001
v -0.47916667 -0.20052083 -0.24373001
v -0.47916667 0.29947917 -0.30623001
v -0.47916667 0.29947917 -0.24373001
v 0.47916667 -0.20052083 -0.30623001
v 0.47916667 -0.20052083 -0.24373001
v 0.47916667 0.29947917 -0.30623001
v 0.47916667 0.29947917 -0.24373001
v -0.47916667 -0.20052083 0.21460332
v -0.47916667 -0.20052083 0.27710332
v -0.47916667 0.29947917 0.21460332
v -0.47916667 0.29947917 0.27710332
v 0.47916667 -0.20052083 0.21460332
v 0.47916667 -0.20052083 0.27710332
v 0.47916667 0.29947917 0.21460332
v 0.47916667 0.29947917 0.27710332
v -0.47916667 -0.20052083 -0.27498001
v -0.47916667 -0.20052083 0.24585332
v -0.47916667 0.29947917 -0.27498001
v -0.47916667 0.29947917 0.24585332
v -0.41666667 -0.20052083 -0.27498001
v -0.41666667 -0.20052083 0.24585332
v -0.41666667 0.29947917 -0.27498001
v -0.41666667 0.29947917 0.24585332
v 0.41666667 -0.20052083 -0.27498001
v 0.41666667 -0.20052083 0.24585332
v 0.41666667 0.29947917 -0.27498001
v 0.41666667 0.29947917 0.24585332
v 0.47916667 -0.20052083 -0.27498001
v 0.47916667 -0.20052083 0.24585332
v 0.47916667 0.29947917 -0.27498001
v 0.47916667 0.29947917 0.24585332
v -0.44270833 0.15885417 0.25887416
v -0.44270833 0.15885417 0.29533249
v -0.44270833 0.21093750 0.25887416
v -0.44270833 0.21093750 0.29533249
v 0.44270833 0.15885417 0.25887416
v 0.44270833 0.15885417 0.29533249
v 0.44270833 0.21093750 0.25887416
v 0.44270833 0.21093750 0.29533249
v -0.44270833 -0.08072917 0.25887416
v -0.44270833 -0.08072917 0.29533249
v -0.44270833 -0.02864583 0.25887416
v -0.44270833 -0.02864583 0.29533249
v 0.44270833 -0.08072917 0.25887416
v 0.44270833 -0.08072917 0.29533249
v 0.44270833 -0.02864583 0.25887416
v 0.44270833 -0.02864583 0.29533249
v -0.44270833 0.15885417 -0.32445918
v -0.44270833 0.15885417 -0.28800084
v -0.44270833 0.21093750 -0.32445918
v -0.44270833 0.21093750 -0.28800084
v 0.44270833 0.15885417 -0.32445918
v 0.44270833 0.15885417 -0.28800084
v 0.44270833 0.21093750 -0.32445918
v 0.44270833 0.21093750 -0.28800084
v -0.44270833 -0.08072917 -0.32445918
v -0.44270833 -0.08072917 -0.28800084
v -0.44270833 -0.02864583 -0.32445918
v -0.44270833 -0.02864583 -0.28800084
v 0.44270833 -0.08072917 -0.32445918
v 0.44270833 -0.08072917 -0.28800084
v 0.44270833 -0.02864583 -0.32445918
v 0.44270833 -0.02864583 -0.28800084
v -0.50000000 -0.13802083 0.13126999
v -0.50000000 -0.13802083 0.17293666
v -0.50000000 0.27864583 0.13126999
v -0.50000000 0.27864583 0.17293666
v -0.45833333 -0.13802083 0.13126999
v -0.45833333 -0.13802083 0.17293666
v -0.45833333 0.27864583 0.13126999
v -0.45833333 0.27864583 0.17293666
v -0.50000000 -0.13802083 -0.20206334
v -0.50000000 -0.13802083 -0.16039668
v -0.50000000 0.27864583 -0.20206334
v -0.50000000 0.27864583 -0.16039668
v -0.45833333 -0.13802083 -0.20206334
v -0.45833333 -0.13802083 -0.16039668
v -0.45833333 0.27864583 -0.20206334
v -0.45833333 0.27864583 -0.16039668
v 0.45833333 -0.13802083 0.13126999
v 0.45833333 -0.13802083 0.17293666
v 0.45833333 0.27864583 0.13126999
v 0.45833333 0.27864583 0.17293666
v 0.50000000 -0.13802083 0.13126999
v 0.50000000 -0.13802083 0.17293666
v 0.50000000 0.27864583 0.13126999
v 0.50000000 0.27864583 0.17293666
v 0.45833333 -0.13802083 -0.20206334
v 0.45833333 -0.13802083 -0.16039668
v 0.45833333 0.27864583 -0.20206334
v 0.45833333 0.27864583 -0.16039668
v 0.50000000 -0.13802083 -0.20206334
v 0.50000000 -0.13802083 -0.16039668
v 0.50000000 0.27864583 -0.20206334
v 0.50000000 0.27864583 -0.16039668
v -0.40104167 -0.29947917 -0.24893834
v -0.40104167 -0.29947917 -0.13435501
v -0.40104167 -0.24739583 -0.24893834
v -0.40104167 -0.24739583 -0.13435501
v -0.28645833 -0.29947917 -0.24893834
v -0.28645833 -0.29947917 -0.13435501
v -0.28645833 -0.24739583 -0.24893834
v -0.28645833 -0.24739583 -0.13435501
v 0.28645833 -0.29947917 -0.24893834
v 0.28645833 -0.29947917 -0.13435501
v 0.28645833 -0.24739583 -0.24893834
v 0.28645833 -0.24739583 -0.13435501
v 0.40104167 -0.29947917 -0.24893834
v 0.40104167 -0.29947917 -0.13435501
v 0.40104167 -0.24739583 -0.24893834
v 0.40104167 -0.24739583 -0.13435501
v -0.40104167 -0.29947917 0.10522832
v -0.40104167 -0.29947917 0.21981166
v -0.40104167 -0.24739583 0.10522832
v -0.40104167 -0.24739583 0.21981166
v -0.28645833 -0.29947917 0.10522832
v -0.28645833 -0.29947917 0.21981166
v -0.28645833 -0.24739583 0.10522832
v -0.28645833 -0.24739583 0.21981166
v 0.28645833 -0.29947917 0.10522832
v 0.28645833 -0.29947917 0.21981166
v 0.28645833 -0.24739583 0.10522832
v 0.28645833 -0.24739583 0.21981166
v 0.40104167 -0.29947917 0.10522832
v 0.40104167 -0.29947917 0.21981166
v 0.40104167 -0.24739583 0.10522832
v 0.40104167 -0.24739583 0.21981166
v -0.06250000 -0.01302083 0.27449916
v -0.06250000 -0.01302083 0.30054082
v -0.06250000 0.17447917 0.27449916
v -0.06250000 0.17447917 0.30054082
v 0.06250000 -0.01302083 0.27449916
v 0.06250000 -0.01302083 0.30054082
v 0.06250000 0.17447917 0.27449916
v 0.06250000 0.17447917 0.30054082
v 0.06354167 0.04947917 0.31356166
v 0.06135332 0.04947917 0.32029669
v 0.05562415 0.04947917 0.32445918
v 0.04854251 0.04947917 0.32445918
v 0.04281335 0.04947917 0.32029669
v 0.04062500 0.04947917 0.31356166
v 0.04281335 0.04947917 0.30682662
v 0.04854251 0.04947917 0.30266413
v 0.05562415 0.04947917 0.30266413
v 0.06135332 0.04947917 0.30682662
v 0.05970964 0.07121170 0.31356166
v 0.05765326 0.07046324 0.32029669
v 0.05226961 0.06850375 0.32445918
v 0.04561504 0.06608168 0.32445918
v 0.04023139 0.06412219 0.32029669
v 0.03817501 0.06337373 0.31356166
v 0.04023139 0.06412219 0.30682662
v 0.04561504 0.06608168 0.30266413
v 0.05226961 0.06850375 0.30266413
v 0.05765326 0.07046324 0.30682662
v 0.04867574 0.09032296 0.31356166
v 0.04699937 0.08891632 0.32029669
v 0.04261057 0.08523368 0.32445918
v 0.03718572 0.08068169 0.32445918
v 0.03279693 0.07699906 0.32029669
v 0.03112056 0.07559241 0.31356166
v 0.03279693 0.07699906 0.30682662
v 0.03718572 0.08068169 0.30266413
v 0.04261057 0.08523368 0.30266413
v 0.04699937 0.08891632 0.30682662
v 0.03177083 0.10450786 0.31356166
v 0.03067666 0.10261270 0.32029669
v 0.02781208 0.09765110 0.32445918
v 0.02427126 0.09151822 0.32445918
v 0.02140667 0.08655661 0.32029669
v 0.02031250 0.08466145 0.31356166
v 0.02140667 0.08655661 0.30682662
v 0.02427126 0.09151822 0.30266413
v 0.02781208 0.09765110 0.30266413
v 0.03067666 0.10261270 0.30682662
v 0.01103389 0.11205549 0.31356166
v 0.01065389 0.10990039 0.32029669
v 0.00965903 0.10425826 0.32445918
v 0.00842932 0.09728421 0.32445918
v 0.00743446 0.09164208 0.32029669
v 0.00705446 0.08948698 0.31356166
v 0.00743446 0.09164208 0.30682662
v 0.00842932 0.09728421 0.30266413
v 0.00965903 0.10425826 0.30266413
v 0.01065389 0.10990039 0.30682662
v -0.01103389 0.11205549 0.31356166
v -0.01065389 0.10990039 0.32029669
v -0.00965903 0.10425826 0.32445918
v -0.00842932 0.09728421 0.32445918
v -0.00743446 0.09164208 0.32029669
v -0.00705446 0.08948698 0.31356166
v -0.00743446 0.09164208 0.30682662
v -0.00842932 0.09728421 0.30266413
v -0.00965903 0.10425826 0.30266413
v -0.01065389 0.10990039 0.30682662
v -0.03177083 0.10450786 0.31356166
v -0.03067666 0.10261270 0.32029669
v -0.02781208 0.09765110 0.32445918
v -0.02427126 0.09151822 0.32445918
v -0.02140667 0.08655661 0.32029669
v -0.02031250 0.08466145 0.31356166
v -0.02140667 0.08655661 0.30682662
v -0.02427126 0.09151822 0.30266413
v -0.02781208 0.09765110 0.30266413
v -0.03067666 0.10261270 0.30682662
v -0.04867574 0.09032296 0.31356166
v -0.04699937 0.08891632 0.32029669
v -0.04261057 0.08523368 0.32445918
v -0.03718572 0.08068169 0.32445918
v -0.03279693 0.07699906 0.32029669
v -0.03112056 0.07559241 0.31356166
v -0.03279693 0.07699906 0.30682662
v -0.03718572 0.08068169 0.30266413
v -0.04261057 0.08523368 0.30266413
v -0.04699937 0.08891632 0.30682662
v -0.05970964 0.07121170 0.31356166
v -0.05765326 0.07046324 0.32029669
v -0.05226961 0.06850375 0.32445918
v -0.04561504 0.06608168 0.32445918
v -0.04023139 0.06412219 0.32029669
v -0.03817501 0.06337373 0.31356166
v -0.04023139 0.06412219 0.30682662
v -0.04561504 0.06608168 0.30266413
v -0.05226961 0.06850375 0.30266413
v -0.05765326 0.07046324 0.30682662
v -0.06354167 0.04947917 0.31356166
v -0.06135332 0.04947917 0.32029669
v -0.05562415 0.04947917 0.32445918
v -0.04854251 0.04947917 0.32445918
v -0.04281335 0.04947917 0.32029669
v -0.04062500 0.04947917 0.31356166
v -0.04281335 0.04947917 0.30682662
v -0.04854251 0.04947917 0.30266413
v -0.05562415 0.04947917 0.30266413
v -0.06135332 0.04947917 0.30682662
v -0.05970964 0.02774664 0.31356166
v -0.05765326 0.02849510 0.32029669
v -0.05226961 0.03045459 0.32445918
v -0.04561504 0.03287665 0.32445918
v -0.04023139 0.03483614 0.32029669
v -0.03817501 0.03558460 0.31356166
v -0.04023139 0.03483614 0.30682662
v -0.04561504 0.03287665 0.30266413
v -0.05226961 0.03045459 0.30266413
v -0.05765326 0.02849510 0.30682662
v -0.04867574 0.00863537 0.31356166
v -0.04699937 0.01004201 0.32029669
v -0.04261057 0.01372465 0.32445918
v -0.03718572 0.01827664 0.32445918
v -0.03279693 0.02195928 0.32029669
v -0.03112056 0.02336592 0.31356166
v -0.03279693 0.02195928 0.30682662
v -0.03718572 0.01827664 0.30266413
v -0.04261057 0.01372465 0.30266413
v -0.04699937 0.01004201 0.30682662
v -0.03177083 -0.00554953 0.31356166
v -0.03067666 -0.00365437 0.32029669
v -0.02781208 0.00130724 0.32445918
v -0.02427126 0.00744012 0.32445918
v -0.02140667 0.01240172 0.32029669
v -0.02031250 0.01429688 0.31356166
v -0.02140667 0.01240172 0.30682662
v -0.02427126 0.00744012 0.30266413
v -0.02781208 0.00130724 0.30266413
v -0.03067666 -0.00365437 0.30682662
v -0.01103389 -0.01309716 0.31356166
v -0.01065389 -0.01094206 0.32029669
v -0.00965903 -0.00529993 0.32445918
v -0.00842932 0.00167412 0.32445918
v -0.00743446 0.00731625 0.32029669
v -0.00705446 0.00947135 0.31356166
v -0.00743446 0.00731625 0.30682662
v -0.00842932 0.00167412 0.30266413
v -0.00965903 -0.00529993 0.30266413
v -0.01065389 -0.01094206 0.30682662
v 0.01103389 -0.01309716 0.31356166
v 0.01065389 -0.01094206 0.32029669
v 0.00965903 -0.00529993 0.32445918
v 0.00842932 0.00167412 0.32445918
v 0.00743446 0.00731625 0.32029669
v 0.00705446 0.00947135 0.31356166
v 0.00743446 0.00731625 0.30682662
v 0.00842932 0.00167412 0.30266413
v 0.00965903 -0.00529993 0.30266413
v 0.01065389 -0.01094206 0.30682662
v 0.03177083 -0.00554953 0.31356166
v 0.03067666 -0.00365437 0.32029669
v 0.02781208 0.00130724 0.32445918
v 0.02427126 0.00744012 0.32445918
v 0.02140667 0.01240172 0.32029669
v 0.02031250 0.01429688 0.31356166
v 0.02140667 0.01240172 0.30682662
v 0.02427126 0.00744012 0.30266413
v 0.02781208 0.00130724 0.30266413
v 0.03067666 -0.00365437 0.30682662
v 0.04867574 0.00863537 0.31356166
v 0.04699937 0.01004201 0.32029669
v 0.04261057 0.01372465 0.32445918
v 0.03718572 0.01827664 0.32445918
v 0.03279693 0.02195928 0.32029669
v 0.03112056 0.02336592 0.31356166
v 0.03279693 0.02195928 0.30682662
v 0.03718572 0.01827664 0.30266413
v 0.04261057 0.01372465 0.30266413
v 0.04699937 0.01004201 0.30682662
v 0.05970964 0.02774664 0.31356166
v 0.05765326 0.02849510 0.32029669
v 0.05226961 0.03045459 0.32445918
v 0.04561504 0.03287665 0.32445918
v 0.04023139 0.03483614 0.32029669
v 0.03817501 0.03558460 0.31356166
v 0.04023139 0.03483614 0.30682662
v 0.04561504 0.03287665 0.30266413
v 0.05226961 0.03045459 0.30266413
v 0.05765326 0.02849510 0.30682662
v 0.00000000 0.15364583 0.30835332
v 0.01302083 0.15364583 0.30835332
v 0.01302083 0.03906250 0.30835332
v 0.00000000 0.03906250 0.30835332
v 0.00920712 0.15364583 0.31756044
v 0.00920712 0.03906250 0.31756044
v 0.00000000 0.15364583 0.32137416
v 0.00000000 0.03906250 0.32137416
v -0.00920712 0.15364583 0.31756044
v -0.00920712 0.03906250 0.31756044
v -0.01302083 0.15364583 0.30835332
v -0.01302083 0.03906250 0.30835332
v -0.00920712 0.15364583 0.29914620
v -0.00920712 0.03906250 0.29914620
v -0.00000000 0.15364583 0.29533249
v -0.00000000 0.03906250 0.29533249
v 0.00920712 0.15364583 0.29914620
v 0.00920712 0.03906250 0.29914620
v -0.04166667 0.13802083 0.30835332
v -0.04166667 0.13802083 0.29689499
v 0.04166667 0.13802083 0.29689499
v 0.04166667 0.13802083 0.30835332
v -0.04166667 0.14612310 0.30025106
v 0.04166667 0.14612310 0.30025106
v -0.04166667 0.14947917 0.30835332
v 0.04166667 0.14947917 0.30835332
v -0.04166667 0.14612310 0.31645559
v 0.04166667 0.14612310 0.31645559
v -0.04166667 0.13802083 0.31981166
v 0.04166667 0.13802083 0.31981166
v -0.04166667 0.12991857 0.31645559
v 0.04166667 0.12991857 0.31645559
v -0.04166667 0.12656250 0.30835332
v 0.04166667 0.12656250 0.30835332
v -0.04166667 0.12991857 0.30025106
v 0.04166667 0.12991857 0.30025106
v -0.00520833 0.05989583 0.30835332
v -0.00520833 0.05989583 0.31876999
v -0.05208333 0.11197917 0.31876999
v -0.05208333 0.11197917 0.30835332
v -0.00065732 0.06399175 0.31678058
v -0.04753232 0.11607508 0.31678058
v 0.00215536 0.06652316 0.31157225
v -0.04471964 0.11860649 0.31157225
v 0.00215536 0.06652316 0.30513440
v -0.04471964 0.11860649 0.30513440
v -0.00065732 0.06399175 0.29992606
v -0.04753232 0.11607508 0.29992606
v -0.00520833 0.05989583 0.29793666
v -0.05208333 0.11197917 0.29793666
v -0.00975935 0.05579992 0.29992606
v -0.05663435 0.10788325 0.29992606
v -0.01257203 0.05326851 0.30513440
v -0.05944703 0.10535184 0.30513440
v -0.01257203 0.05326851 0.31157225
v -0.05944703 0.10535184 0.31157225
v -0.00975935 0.05579992 0.31678058
v -0.05663435 0.10788325 0.31678058
v 0.00520833 0.05989583 0.30835332
v 0.00520833 0.05989583 0.29793666
v 0.05208333 0.11197917 0.29793666
v 0.05208333 0.11197917 0.30835332
v 0.00065732 0.06399175 0.29992606
v 0.04753232 0.11607508 0.29992606
v -0.00215536 0.06652316 0.30513440
v 0.04471964 0.11860649 0.30513440
v -0.00215536 0.06652316 0.31157225
v 0.04471964 0.11860649 0.31157225
v 0.00065732 0.06399175 0.31678058
v 0.04753232 0.11607508 0.31678058
v 0.00520833 0.05989583 0.31876999
v 0.05208333 0.11197917 0.31876999
v 0.00975935 0.05579992 0.31678058
v 0.05663435 0.10788325 0.31678058
v 0.01257203 0.05326851 0.31157225
v 0.05944703 0.10535184 0.31157225
v 0.01257203 0.05326851 0.30513440
v 0.05944703 0.10535184 0.30513440
v 0.00975935 0.05579992 0.29992606
v 0.05663435 0.10788325 0.29992606
f 2 4 1
f 5 2 1
f 1 4 3
f 3 5 1
f 2 8 4
f 6 2 5
f 6 8 2
f 4 8 3
f 7 5 3
f 3 8 7
f 7 6 5
f 8 6 7
f 10 12 9
f 13 10 9
f 9 12 11
f 11 13 9
f 10 16 12
f 14 10 13
f 14 16 10
f 12 16 11
f 15 13 11
f 11 16 15
f 15 14 13
f 16 14 15
f 18 20 17
f 21 18 17
f 17 20 19
f 19 21 17
f 18 24 20
f 22 18 21
f 22 24 18
f 20 24 19
f 23 21 19
f 19 24 23
f 23 22 21
f 24 22 23
f 26 28 25
f 29 26 25
f 25 28 27
f 27 29 25
f 26 32 28
f 30 26 29
f 30 32 26
f 28 32 27
f 31 29 27
f 27 32 31
f 31 30 29
f 32 30 31
f 34 36 33
f 37 34 33
f 33 36 35
f 35 37 33
f 34 40 36
f 38 34 37
f 38 40 34
f 36 40 35
f 39 37 35
f 35 40 39
f 39 38 37
f 40 38 39
f 42 44 41
f 45 42 41
f 41 44 43
f 43 45 41
f 42 48 44
f 46 42 45
f 46 48 42
f 44 48 43
f 47 45 43
f 43 48 47
f 47 46 45
f 48 46 47
f 50 52 49
f 53 50 49
f 49 52 51
f 51 53 49
f 50 56 52
f 54 50 53
f 54 56 50
f 52 56 51
f 55 53 51
f 51 56 55
f 55 54 53
f 56 54 55
f 58 60 57
f 61 58 57
f 57 60 59
f 59 61 57
f 58 64 60
f 62 58 61
f 62 64 58
f 60 64 59
f 63 61 59
f 59 64 63
f 63 62 61
f 64 62 63
f 66 68 65
f 69 66 65
f 65 68 67
f 67 69 65
f 66 72 68
f 70 66 69
f 70 72 66
f 68 72 67
f 71 69 67
f 67 72 71
f 71 70 69
f 72 70 71
f 74 76 73
f 77 74 73
f 73 76 75
f 75 77 73
f 74 80 76
f 78 74 77
f 78 80 74
f 76 80 75
f 79 77 75
f 75 80 79
f 79 78 77
f 80 78 79
f 82 84 81
f 85 82 81
f 81 84 83
f 83 85 81
f 82 88 84
f 86 82 85
f 86 88 82
f 84 88 83
f 87 85 83
f 83 88 87
f 87 86 85
f 88 86 87
f 90 92 89
f 93 90 89
f 89 92 91
f 91 93 89
f 90 96 92
f 94 90 93
f 94 96 90
f 92 96 91
f 95 93 91
f 91 96 95
f 95 94 93
f 96 94 95
f 98 100 97
f 101 98 97
f 97 100 99
f 99 101 97
f 98 104 100
f 102 98 101
f 102 104 98
f 100 104 99
f 103 101 99
f 99 104 103
f 103 102 101
f 104 102 103
f 106 108 105
f 109 106 105
f 105 108 107
f 107 109 105
f 106 112 108
f 110 106 109
f 110 112 106
f 108 112 107
f 111 109 107
f 107 112 111
f 111 110 109
f 112 110 111
f 114 116 113
f 117 114 113
f 113 116 115
f 115 117 113
f 114 120 116
f 118 114 117
f 118 120 114
f 116 120 115
f 119 117 115
f 115 120 119
f 119 118 117
f 120 118 119
f 122 124 121
f 125 122 121
f 121 124 123
f 123 125 121
f 122 128 124
f 126 122 125
f 126 128 122
f 124 128 123
f 127 125 123
f 123 128 127
f 127 126 125
f 128 126 127
f 130 132 129
f 133 130 129
f 129 132 131
f 131 133 129
f 130 136 132
f 134 130 133
f 134 136 130
f 132 136 131
f 135 133 131
f 131 136 135
f 135 134 133
f 136 134 135
f 138 140 137
f 141 138 137
f 137 140 139
f 139 141 137
f 138 144 140
f 142 138 141
f 142 144 138
f 140 144 139
f 143 141 139
f 139 144 143
f 143 142 141
f 144 142 143
f 145 155 146
f 146 155 156
f 146 156 147
f 147 156 157
f 147 157 148
f 148 157 158
f 148 158 149
f 149 158 159
f 149 159 150
f 150 159 160
f 150 160 151
f 151 160 161
f 151 161 152
f 152 161 162
f 152 162 153
f 153 162 163
f 153 163 154
f 154 163 164
f 154 164 145
f 145 164 155
f 155 165 156
f 156 165 166
f 156 166 157
f 157 166 167
f 157 167 158
f 158 167 168
f 158 168 159
f 159 168 169
f 159 169 160
f 160 169 170
f 160 170 161
f 161 170 171
f 161 171 162
f 162 171 172
f 162 172 163
f 163 172 173
f 163 173 164
f 164 173 174
f 164 174 155
f 155 174 165
f 165 175 166
f 166 175 176
f 166 176 167
f 167 176 177
f 167 177 168
f 168 177 178
f 168 178 169
f 169 178 179
f 169 179 170
f 170 179 180
f 170 180 171
f 171 180 181
f 171 181 172
f 172 181 182
f 172 182 173
f 173 182 183
f 173 183 174
f 174 183 184
f 174 184 165
f 165 184 175
f 175 185 176
f 176 185 186
f 176 186 177
f 177 186 187
f 177 187 178
f 178 187 188
f 178 188 179
f 179 188 189
f 179 189 180
f 180 189 190
f 180 190 181
f 181 190 191
f 181 191 182
f 182 191 192
f 182 192 183
f 183 192 193
f 183 193 184
f 184 193 194
f 184 194 175
f 175 194 185
f 185 195 186
f 186 195 196
f 186 196 187
f 187 196 197
f 187 197 188
f 188 197 198
f 188 198 189
f 189 198 199
f 189 199 190
f 190 199 200
f 190 200 191
f 191 200 201
f 191 201 192
f 192 201 202
f 192 202 193
f 193 202 203
f 193 203 194
f 194 203 204
f 194 204 185
f 185 204 195
f 195 205 196
f 196 205 206
f 196 206 197
f 197 206 207
f 197 207 198
f 198 207 208
f 198 208 199
f 199 208 209
f 199 209 200
f 200 209 210
f 200 210 201
f 201 210 211
f 201 211 202
f 202 211 212
f 202 212 203
f 203 212 213
f 203 213 204
f 204 213 214
f 204 214 195
f 195 214 205
f 205 215 206
f 206 215 216
f 206 216 207
f 207 216 217
f 207 217 208
f 208 217 218
f 208 218 209
f 209 218 219
f 209 219 210
f 210 219 220
f 210 220 211
f 211 220 221
f 211 221 212
f 212 221 222
f 212 222 213
f 213 222 223
f 213 223 214
f 214 223 224
f 214 224 205
f 205 224 215
f 215 225 216
f 216 225 226
f 216 226 217
f 217 226 227
f 217 227 218
f 218 227 228
f 218 228 219
f 219 228 229
f 219 229 220
f 220 229 230
f 220 230 221
f 221 230 231
f 221 231 222
f 222 231 232
f 222 232 223
f 223 232 233
f 223 233 224
f 224 233 234
f 224 234 215
f 215 234 225
f 225 235 226
f 226 235 236
f 226 236 227
f 227 236 237
f 227 237 228
f 228 237 238
f 228 238 229
f 229 238 239
f 229 239 230
f 230 239 240
f 230 240 231
f 231 240 241
f 231 241 232
f 232 241 242
f 232 242 233
f 233 242 243
f 233 243 234
f 234 243 244
f 234 244 225
f 225 244 235
f 235 245 236
f 236 245 246
f 236 246 237
f 237 246 247
f 237 247 238
f 238 247 248
f 238 248 239
f 239 248 249
f 239 249 240
f 240 249 250
f 240 250 241
f 241 250 251
f 241 251 242
f 242 251 252
f 242 252 243
f 243 252 253
f 243 253 244
f 244 253 254
f 244 254 235
f 235 254 245
f 245 255 246
f 246 255 256
f 246 256 247
f 247 256 257
f 247 257 248
f 248 257 258
f 248 258 249
f 249 258 259
f 249 259 250
f 250 259 260
f 250 260 251
f 251 260 261
f 251 261 252
f 252 261 262
f 252 262 253
f 253 262 263
f 253 263 254
f 254 263 264
f 254 264 245
f 245 264 255
f 255 265 256
f 256 265 266
f 256 266 257
f 257 266 267
f 257 267 258
f 258 267 268
f 258 268 259
f 259 268 269
f 259 269 260
f 260 269 270
f 260 270 261
f 261 270 271
f 261 271 262
f 262 271 272
f 262 272 263
f 263 272 273
f 263 273 264
f 264 273 274
f 264 274 255
f 255 274 265
f 265 275 266
f 266 275 276
f 266 276 267
f 267 276 277
f 267 277 268
f 268 277 278
f 268 278 269
f 269 278 279
f 269 279 270
f 270 279 280
f 270 280 271
f 271 280 281
f 271 281 272
f 272 281 282
f 272 282 273
f 273 282 283
f 273 283 274
f 274 283 284
f 274 284 265
f 265 284 275
f 275 285 276
f 276 285 286
f 276 286 277
f 277 286 287
f 277 287 278
f 278 287 288
f 278 288 279
f 279 288 289
f 279 289 280
f 280 289 290
f 280 290 281
f 281 290 291
f 281 291 282
f 282 291 292
f 282 292 283
f 283 292 293
f 283 293 284
f 284 293 294
f 284 294 275
f 275 294 285
f 285 295 286
f 286 295 296
f 286 296 287
f 287 296 297
f 287 297 288
f 288 297 298
f 288 298 289
f 289 298 299
f 289 299 290
f 290 299 300
f 290 300 291
f 291 300 301
f 291 301 292
f 292 301 302
f 292 302 293
f 293 302 303
f 293 303 294
f 294 303 304
f 294 304 285
f 285 304 295
f 295 305 296
f 296 305 306
f 296 306 297
f 297 306 307
f 297 307 298
f 298 307 308
f 298 308 299
f 299 308 309
f 299 309 300
f 300 309 310
f 300 310 301
f 301 310 311
f 301 311 302
f 302 311 312
f 302 312 303
f 303 312 313
f 303 313 304
f 304 313 314
f 304 314 295
f 295 314 305
f 305 315 306
f 306 315 316
f 306 316 307
f 307 316 317
f 307 317 308
f 308 317 318
f 308 318 309
f 309 318 319
f 309 319 310
f 310 319 320
f 310 320 311
f 311 320 321
f 311 321 312
f 312 321 322
f 312 322 313
f 313 322 323
f 313 323 314
f 314 323 324
f 314 324 305
f 305 324 315
f 315 145 316
f 316 145 146
f 316 146 317
f 317 146 147
f 317 147 318
f 318 147 148
f 318 148 319
f 319 148 149
f 319 149 320
f 320 149 150
f 320 150 321
f 321 150 151
f 321 151 322
f 322 151 152
f 322 152 323
f 323 152 153
f 323 153 324
f 324 153 154
f 324 154 315
f 315 154 145
f 326 325 329
f 326 329 327
f 327 329 330
f 327 330 328
f 329 325 331
f 329 331 330
f 330 331 332
f 330 332 328
f 331 325 333
f 331 333 332
f 332 333 334
f 332 334 328
f 333 325 335
f 333 335 334
f 334 335 336
f 334 336 328
f 335 325 337
f 335 337 336
f 336 337 338
f 336 338 328
f 337 325 339
f 337 339 338
f 338 339 340
f 338 340 328
f 339 325 341
f 339 341 340
f 340 341 342
f 340 342 328
f 341 325 326
f 341 326 342
f 342 326 327
f 342 327 328
f 344 343 347
f 344 347 345
f 345 347 348
f 345 348 346
f 347 343 349
f 347 349 348
f 348 349 350
f 348 350 346
f 349 343 351
f 349 351 350
f 350 351 352
f 350 352 346
f 351 343 353
f 351 353 352
f 352 353 354
f 352 354 346
f 353 343 355
f 353 355 354
f 354 355 356
f 354 356 346
f 355 343 357
f 355 357 356
f 356 357 358
f 356 358 346
f 357 343 359
f 357 359 358
f 358 359 360
f 358 360 346
f 359 343 344
f 359 344 360
f 360 344 345
f 360 345 346
f 362 361 365
f 362 365 363
f 363 365 366
f 363 366 364
f 365 361 367
f 365 367 366
f 366 367 368
f 366 368 364
f 367 361 369
f 367 369 368
f 368 369 370
f 368 370 364
f 369 361 371
f 369 371 370
f 370 371 372
f 370 372 364
f 371 361 373
f 371 373 372
f 372 373 374
f 372 374 364
f 373 361 375
f 373 375 374
f 374 375 376
f 374 376 364
f 375 361 377
f 375 377 376
f 376 377 378
f 376 378 364
f 377 361 379
f 377 379 378
f 378 379 380
f 378 380 364
f 379 361 381
f 379 381 380
f 380 381 382
f 380 382 364
f 381 361 362
f 381 362 382
f 382 362 363
f 382 363 364
f 384 383 387
f 384 387 385
f 385 387 388
f 385 388 386
f 387 383 389
f 387 389 388
f 388 389 390
f 388 390 386
f 389 383 391
f 389 391 390
f 390 391 392
f 390 392 386
f 391 383 393
f 391 393 392
f 392 393 394
f 392 394 386
f 393 383 395
f 393 395 394
f 394 395 396
f 394 396 386
f 395 383 397
f 395 397 396
f 396 397 398
f 396 398 386
f 397 383 399
f 397 399 398
f 398 399 400
f 398 400 386
f 399 383 401
f 399 401 400
f 400 401 402
f 400 402 386
f 401 383 403
f 401 403 402
f 402 403 404
f 402 404 386
f 403 383 384
f 403 384 404
f 404 384 385
f 404 385 386

