# https://github.com/mikedh/trimesh
v -0.50000000 -0.16805493 -0.31039326
v -0.50000000 -0.16805493 0.27387640
v -0.50000000 -0.10063920 -0.31039326
v -0.50000000 -0.10063920 0.27387640
v 0.50000000 -0.16805493 -0.31039326
v 0.50000000 -0.16805493 0.27387640
v 0.50000000 -0.10063920 -0.31039326
v 0.50000000 -0.10063920 0.27387640
v -0.50000000 -0.23547066 -0.31039326
v -0.50000000 -0.23547066 -0.24297753
v -0.50000000 -0.16805493 -0.31039326
v -0.50000000 -0.16805493 -0.24297753
v 0.50000000 -0.23547066 -0.31039326
v 0.50000000 -0.23547066 -0.24297753
v 0.50000000 -0.16805493 -0.31039326
v 0.50000000 -0.16805493 -0.24297753
v -0.50000000 -0.23547066 0.20646067
v -0.50000000 -0.23547066 0.27387640
v -0.50000000 -0.16805493 0.20646067
v -0.50000000 -0.16805493 0.27387640
v 0.50000000 -0.23547066 0.20646067
v 0.50000000 -0.23547066 0.27387640
v 0.50000000 -0.16805493 0.20646067
v 0.50000000 -0.16805493 0.27387640
v -0.50000000 -0.23547066 -0.27668539
v -0.50000000 -0.23547066 0.24016854
v -0.50000000 -0.16805493 -0.27668539
v -0.50000000 -0.16805493 0.24016854
v -0.43258427 -0.23547066 -0.27668539
v -0.43258427 -0.23547066 0.24016854
v -0.43258427 -0.16805493 -0.27668539
v -0.43258427 -0.16805493 0.24016854
v 0.43258427 -0.23547066 -0.27668539
v 0.43258427 -0.23547066 0.24016854
v 0.43258427 -0.16805493 -0.27668539
v 0.43258427 -0.16805493 0.24016854
v 0.50000000 -0.23547066 -0.27668539
v 0.50000000 -0.23547066 0.24016854
v 0.50000000 -0.16805493 -0.27668539
v 0.50000000 -0.16805493 0.24016854
v -0.48314607 -0.05569537 -0.01825843
v -0.48314607 -0.05569537 -0.29353933
v 0.48314607 -0.05569537 -0.29353933
v 0.48314607 -0.05569537 -0.01825843
v -0.48314607 0.02937110 -0.28006612
v 0.48314607 0.02937110 -0.28006612
v -0.48314607 0.10611068 -0.24096535
v 0.48314607 0.10611068 -0.24096535
v -0.48314607 0.16701155 -0.18006448
v 0.48314607 0.16701155 -0.18006448
v -0.48314607 0.20611232 -0.10332490
v 0.48314607 0.20611232 -0.10332490
v -0.48314607 0.21958552 -0.01825843
v 0.48314607 0.21958552 -0.01825843
v -0.48314607 0.20611232 0.06680805
v 0.48314607 0.20611232 0.06680805
v -0.48314607 0.16701155 0.14354763
v 0.48314607 0.16701155 0.14354763
v -0.48314607 0.10611068 0.20444850
v 0.48314607 0.10611068 0.20444850
v -0.48314607 0.02937110 0.24354927
v 0.48314607 0.02937110 0.24354927
v -0.48314607 -0.05569537 0.25702247
v 0.48314607 -0.05569537 0.25702247
v -0.48314607 -0.14076185 0.24354927
v 0.48314607 -0.14076185 0.24354927
v -0.48314607 -0.21750143 0.20444850
v 0.48314607 -0.21750143 0.20444850
v -0.48314607 -0.27840230 0.14354763
v 0.48314607 -0.27840230 0.14354763
v -0.48314607 -0.31750307 0.06680805
v 0.48314607 -0.31750307 0.06680805
v -0.48314607 -0.33097627 -0.01825843
v 0.48314607 -0.33097627 -0.01825843
v -0.48314607 -0.31750307 -0.10332490
v 0.48314607 -0.31750307 -0.10332490
v -0.48314607 -0.27840230 -0.18006448
v 0.48314607 -0.27840230 -0.18006448
v -0.48314607 -0.21750143 -0.24096535
v 0.48314607 -0.21750143 -0.24096535
v -0.48314607 -0.14076185 -0.28006612
v 0.48314607 -0.14076185 -0.28006612
v -0.48314607 0.02295631 -0.01825843
v -0.48314607 0.02295631 -0.20926966
v 0.48314607 0.02295631 -0.20926966
v 0.48314607 0.02295631 -0.01825843
v -0.48314607 0.08198203 -0.19992091
v 0.48314607 0.08198203 -0.19992091
v -0.48314607 0.13522990 -0.17278976
v 0.48314607 0.13522990 -0.17278976
v -0.48314607 0.17748765 -0.13053201
v 0.48314607 0.17748765 -0.13053201
v -0.48314607 0.20461879 -0.07728414
v 0.48314607 0.20461879 -0.07728414
v -0.48314607 0.21396755 -0.01825843
v 0.48314607 0.21396755 -0.01825843
v -0.48314607 0.20461879 0.04076729
v 0.48314607 0.20461879 0.04076729
v -0.48314607 0.17748765 0.09401516
v 0.48314607 0.17748765 0.09401516
v -0.48314607 0.13522990 0.13627291
v 0.48314607 0.13522990 0.13627291
v -0.48314607 0.08198203 0.16340405
v 0.48314607 0.08198203 0.16340405
v -0.48314607 0.02295631 0.17275281
v 0.48314607 0.02295631 0.17275281
v -0.48314607 -0.03606941 0.16340405
v 0.48314607 -0.03606941 0.16340405
v -0.48314607 -0.08931728 0.13627291
v 0.48314607 -0.08931728 0.13627291
v -0.48314607 -0.13157503 0.09401516
v 0.48314607 -0.13157503 0.09401516
v -0.48314607 -0.15870617 0.04076729
v 0.48314607 -0.15870617 0.04076729
v -0.48314607 -0.16805493 -0.01825843
v 0.48314607 -0.16805493 -0.01825843
v -0.48314607 -0.15870617 -0.07728414
v 0.48314607 -0.15870617 -0.07728414
v -0.48314607 -0.13157503 -0.13053201
v 0.48314607 -0.13157503 -0.13053201
v -0.48314607 -0.08931728 -0.17278976
v 0.48314607 -0.08931728 -0.17278976
v -0.48314607 -0.03606941 -0.19992091
v 0.48314607 -0.03606941 -0.19992091
v -0.48314607 0.02295631 0.14747191
v -0.48314607 0.02295631 0.18679775
v -0.48314607 0.06790013 0.14747191
v -0.48314607 0.06790013 0.18679775
v 0.48314607 0.02295631 0.14747191
v 0.48314607 0.02295631 0.18679775
v 0.48314607 0.06790013 0.14747191
v 0.48314607 0.06790013 0.18679775
v -0.48314607 0.02295631 -0.22331461
v -0.48314607 0.02295631 -0.18398876
v -0.48314607 0.06790013 -0.22331461
v -0.48314607 0.06790013 -0.18398876
v 0.48314607 0.02295631 -0.22331461
v 0.48314607 0.02295631 -0.18398876
v 0.48314607 0.06790013 -0.22331461
v 0.48314607 0.06790013 -0.18398876
v -0.48314607 0.14655182 0.07443820
v -0.48314607 0.14655182 0.11376404
v -0.48314607 0.19149564 0.07443820
v -0.48314607 0.19149564 0.11376404
v 0.48314607 0.14655182 0.07443820
v 0.48314607 0.14655182 0.11376404
v 0.48314607 0.19149564 0.07443820
v 0.48314607 0.19149564 0.11376404
v -0.48314607 0.14655182 -0.15028090
v -0.48314607 0.14655182 -0.11095506
v -0.48314607 0.19149564 -0.15028090
v -0.48314607 0.19149564 -0.11095506
v 0.48314607 0.14655182 -0.15028090
v 0.48314607 0.14655182 -0.11095506
v 0.48314607 0.19149564 -0.15028090
v 0.48314607 0.19149564 -0.11095506
v -0.02808989 -0.26917852 0.28230337
v -0.02808989 -0.26917852 0.31039326
v -0.02808989 -0.16805493 0.28230337
v -0.02808989 -0.16805493 0.31039326
v 0.02808989 -0.26917852 0.28230337
v 0.02808989 -0.26917852 0.31039326
v 0.02808989 -0.16805493 0.28230337
v 0.02808989 -0.16805493 0.31039326
v -0.11797753 0.19149564 0.08286517
v -0.12119634 0.18158914 0.08286517
v -0.12962331 0.17546659 0.08286517
v -0.14003961 0.17546659 0.08286517
v -0.14846658 0.18158914 0.08286517
v -0.15168539 0.19149564 0.08286517
v -0.14846658 0.20140213 0.08286517
v -0.14003961 0.20752468 0.08286517
v -0.12962331 0.20752468 0.08286517
v -0.12119634 0.20140213 0.08286517
v -0.12509244 0.19149564 0.12321586
v -0.12811714 0.18158914 0.12211496
v -0.13603590 0.17546659 0.11923277
v -0.14582402 0.17546659 0.11567018
v -0.15374278 0.18158914 0.11278799
v -0.15676748 0.19149564 0.11168709
v -0.15374278 0.20140213 0.11278799
v -0.14582402 0.20752468 0.11567018
v -0.13603590 0.20752468 0.11923277
v -0.12811714 0.20140213 0.12211496
v -0.14557903 0.19149564 0.15869966
v -0.14804478 0.18158914 0.15663065
v -0.15450021 0.17546659 0.15121390
v -0.16247956 0.17546659 0.14451843
v -0.16893499 0.18158914 0.13910168
v -0.17140075 0.19149564 0.13703266
v -0.16893499 0.20140213 0.13910168
v -0.16247956 0.20752468 0.14451843
v -0.15450021 0.20752468 0.15121390
v -0.14804478 0.20140213 0.15663065
v -0.17696629 0.19149564 0.18503670
v -0.17857570 0.18158914 0.18224913
v -0.18278918 0.17546659 0.17495116
v -0.18799733 0.17546659 0.16593038
v -0.19221082 0.18158914 0.15863241
v -0.19382022 0.19149564 0.15584484
v -0.19221082 0.20140213 0.15863241
v -0.18799733 0.20752468 0.16593038
v -0.18278918 0.20752468 0.17495116
v -0.17857570 0.20140213 0.18224913
v -0.21546847 0.19149564 0.19905035
v -0.21602741 0.18158914 0.19588044
v -0.21749074 0.17546659 0.18758150
v -0.21929951 0.17546659 0.17732344
v -0.22076284 0.18158914 0.16902450
v -0.22132178 0.19149564 0.16585459
v -0.22076284 0.20140213 0.16902450
v -0.21929951 0.20752468 0.17732344
v -0.21749074 0.20752468 0.18758150
v -0.21602741 0.20140213 0.19588044
v -0.25644164 0.19149564 0.19905035
v -0.25588270 0.18158914 0.19588044
v -0.25441937 0.17546659 0.18758150
v -0.25261060 0.17546659 0.17732344
v -0.25114727 0.18158914 0.16902450
v -0.25058833 0.19149564 0.16585459
v -0.25114727 0.20140213 0.16902450
v -0.25261060 0.20752468 0.17732344
v -0.25441937 0.20752468 0.18758150
v -0.25588270 0.20140213 0.19588044
v -0.29494382 0.19149564 0.18503670
v -0.29333441 0.18158914 0.18224913
v -0.28912093 0.17546659 0.17495116
v -0.28391278 0.17546659 0.16593038
v -0.27969929 0.18158914 0.15863241
v -0.27808989 0.19149564 0.15584484
v -0.27969929 0.20140213 0.15863241
v -0.28391278 0.20752468 0.16593038
v -0.28912093 0.20752468 0.17495116
v -0.29333441 0.20140213 0.18224913
v -0.32633109 0.19149564 0.15869966
v -0.32386533 0.18158914 0.15663065
v -0.31740990 0.17546659 0.15121390
v -0.30943055 0.17546659 0.14451843
v -0.30297512 0.18158914 0.13910168
v -0.30050936 0.19149564 0.13703266
v -0.30297512 0.20140213 0.13910168
v -0.30943055 0.20752468 0.14451843
v -0.31740990 0.20752468 0.15121390
v -0.32386533 0.20140213 0.15663065
v -0.34681767 0.19149564 0.12321586
v -0.34379297 0.18158914 0.12211496
v -0.33587421 0.17546659 0.11923277
v -0.32608609 0.17546659 0.11567018
v -0.31816733 0.18158914 0.11278799
v -0.31514264 0.19149564 0.11168709
v -0.31816733 0.20140213 0.11278799
v -0.32608609 0.20752468 0.11567018
v -0.33587421 0.20752468 0.11923277
v -0.34379297 0.20140213 0.12211496
v -0.35393258 0.19149564 0.08286517
v -0.35071377 0.18158914 0.08286517
v -0.34228680 0.17546659 0.08286517
v -0.33187050 0.17546659 0.08286517
v -0.32344353 0.18158914 0.08286517
v -0.32022472 0.19149564 0.08286517
v -0.32344353 0.20140213 0.08286517
v -0.33187050 0.20752468 0.08286517
v -0.34228680 0.20752468 0.08286517
v -0.35071377 0.20140213 0.08286517
v -0.34681767 0.19149564 0.04251448
v -0.34379297 0.18158914 0.04361538
v -0.33587421 0.17546659 0.04649757
v -0.32608609 0.17546659 0.05006015
v -0.31816733 0.18158914 0.05294235
v -0.31514264 0.19149564 0.05404325
v -0.31816733 0.20140213 0.05294235
v -0.32608609 0.20752468 0.05006015
v -0.33587421 0.20752468 0.04649757
v -0.34379297 0.20140213 0.04361538
v -0.32633109 0.19149564 0.00703068
v -0.32386533 0.18158914 0.00909969
v -0.31740990 0.17546659 0.01451644
v -0.30943055 0.17546659 0.02121191
v -0.30297512 0.18158914 0.02662866
v -0.30050936 0.19149564 0.02869767
v -0.30297512 0.20140213 0.02662866
v -0.30943055 0.20752468 0.02121191
v -0.31740990 0.20752468 0.01451644
v -0.32386533 0.20140213 0.00909969
v -0.29494382 0.19149564 -0.01930637
v -0.29333441 0.18158914 -0.01651879
v -0.28912093 0.17546659 -0.00922083
v -0.28391278 0.17546659 -0.00020004
v -0.27969929 0.18158914 0.00709792
v -0.27808989 0.19149564 0.00988550
v -0.27969929 0.20140213 0.00709792
v -0.28391278 0.20752468 -0.00020004
v -0.28912093 0.20752468 -0.00922083
v -0.29333441 0.20140213 -0.01651879
v -0.25644164 0.19149564 -0.03332002
v -0.25588270 0.18158914 -0.03015010
v -0.25441937 0.17546659 -0.02185116
v -0.25261060 0.17546659 -0.01159310
v -0.25114727 0.18158914 -0.00329416
v -0.25058833 0.19149564 -0.00012425
v -0.25114727 0.20140213 -0.00329416
v -0.25261060 0.20752468 -0.01159310
v -0.25441937 0.20752468 -0.02185116
v -0.25588270 0.20140213 -0.03015010
v -0.21546847 0.19149564 -0.03332002
v -0.21602741 0.18158914 -0.03015010
v -0.21749074 0.17546659 -0.02185116
v -0.21929951 0.17546659 -0.01159310
v -0.22076284 0.18158914 -0.00329416
v -0.22132178 0.19149564 -0.00012425
v -0.22076284 0.20140213 -0.00329416
v -0.21929951 0.20752468 -0.01159310
v -0.21749074 0.20752468 -0.02185116
v -0.21602741 0.20140213 -0.03015010
v -0.17696629 0.19149564 -0.01930637
v -0.17857570 0.18158914 -0.01651879
v -0.18278918 0.17546659 -0.00922083
v -0.18799733 0.17546659 -0.00020004
v -0.19221082 0.18158914 0.00709792
v -0.19382022 0.19149564 0.00988550
v -0.19221082 0.20140213 0.00709792
v -0.18799733 0.20752468 -0.00020004
v -0.18278918 0.20752468 -0.00922083
v -0.17857570 0.20140213 -0.01651879
v -0.14557903 0.19149564 0.00703068
v -0.14804478 0.18158914 0.00909969
v -0.15450021 0.17546659 0.01451644
v -0.16247956 0.17546659 0.02121191
v -0.16893499 0.18158914 0.02662866
v -0.17140075 0.19149564 0.02869767
v -0.16893499 0.20140213 0.02662866
v -0.16247956 0.20752468 0.02121191
v -0.15450021 0.20752468 0.01451644
v -0.14804478 0.20140213 0.00909969
v -0.12509244 0.19149564 0.04251448
v -0.12811714 0.18158914 0.04361538
v -0.13603590 0.17546659 0.04649757
v -0.14582402 0.17546659 0.05006015
v -0.15374278 0.18158914 0.05294235
v -0.15676748 0.19149564 0.05404325
v -0.15374278 0.20140213 0.05294235
v -0.14582402 0.20752468 0.05006015
v -0.13603590 0.20752468 0.04649757
v -0.12811714 0.20140213 0.04361538
v 0.18783099 0.25672268 -0.08567416
v 0.31778699 0.25672268 -0.08567416
v 0.18783099 0.10379669 -0.08567416
v 0.31778699 0.10379669 -0.08567416
v 0.25280899 0.13300295 -0.04744266
v 0.25280899 0.22751641 -0.04744266
v 0.25280899 0.13300295 -0.12390565
v 0.25280899 0.22751641 -0.12390565
v 0.35794561 0.18025968 -0.10930252
v 0.35794561 0.18025968 -0.06204579
v 0.14767237 0.18025968 -0.10930252
v 0.14767237 0.18025968 -0.06204579
v 0.25280899 0.27014732 -0.08567416
v 0.25280899 0.09037204 -0.08567416
v 0.21461588 0.10753905 -0.06320225
v 0.29100210 0.10753905 -0.06320225
v 0.21461588 0.25298031 -0.06320225
v 0.29100210 0.25298031 -0.06320225
v 0.25280899 0.18025968 -0.04073034
v 0.21461588 0.10753905 -0.10814607
v 0.29100210 0.10753905 -0.10814607
v 0.21461588 0.25298031 -0.10814607
v 0.29100210 0.25298031 -0.10814607
v 0.25280899 0.18025968 -0.13061798
v 0.35279985 0.22520350 -0.09956256
v 0.35279985 0.13531586 -0.09956256
v 0.31460674 0.15248287 -0.12203447
v 0.31460674 0.20803649 -0.12203447
v 0.35279985 0.22520350 -0.07178575
v 0.35279985 0.13531586 -0.07178575
v 0.31460674 0.15248287 -0.04931384
v 0.31460674 0.20803649 -0.04931384
v 0.37640449 0.18025968 -0.08567416
v 0.15281812 0.22520350 -0.09956256
v 0.15281812 0.13531586 -0.09956256
v 0.19101124 0.15248287 -0.12203447
v 0.19101124 0.20803649 -0.12203447
v 0.15281812 0.22520350 -0.07178575
v 0.15281812 0.13531586 -0.07178575
v 0.19101124 0.15248287 -0.04931384
v 0.19101124 0.20803649 -0.04931384
v 0.12921348 0.18025968 -0.08567416
v 0.04494382 0.23643946 0.02106742
v 0.05894711 0.20137976 0.03792135
v 0.03094053 0.20137976 0.03792135
v 0.04494382 0.23643946 0.05477528
v 0.04494382 0.11958552 0.02106742
v 0.04494382 0.11958552 0.05477528
v 0.04494382 0.23643946 0.02106742
v 0.08261483 0.23892333 0.03792135
v 0.07396032 0.21228749 0.03792135
v 0.04494382 0.23643946 0.05477528
v 0.15607851 0.20032961 0.02106742
v 0.15607851 0.20032961 0.05477528
v 0.04494382 0.23643946 0.02106742
v 0.05422249 0.27303428 0.03792135
v 0.07688029 0.25657242 0.03792135
v 0.04494382 0.23643946 0.05477528
v 0.11362884 0.33097627 0.02106742
v 0.11362884 0.33097627 0.05477528
v 0.04494382 0.23643946 0.02106742
v 0.01300735 0.25657242 0.03792135
v 0.03566515 0.27303428 0.03792135
v 0.04494382 0.23643946 0.05477528
v -0.02374120 0.33097627 0.02106742
v -0.02374120 0.33097627 0.05477528
v 0.04494382 0.23643946 0.02106742
v 0.01592732 0.21228749 0.03792135
v 0.00727281 0.23892333 0.03792135
v 0.04494382 0.23643946 0.05477528
v -0.06619087 0.20032961 0.02106742
v -0.06619087 0.20032961 0.05477528
v -0.03370787 0.23643946 -0.13061798
v -0.03370787 0.23643946 -0.17556180
v 0.06741573 0.23643946 -0.13061798
v -0.03370787 0.26285677 -0.16697829
v -0.03370787 0.27918357 -0.14450638
v -0.03370787 0.27918357 -0.11672957
v -0.03370787 0.26285677 -0.09425766
v -0.03370787 0.23643946 -0.08567416
v -0.03370787 0.21002214 -0.09425766
v -0.03370787 0.19369534 -0.11672957
v -0.03370787 0.19369534 -0.14450638
v -0.03370787 0.21002214 -0.16697829
f 2 4 1
f 5 2 1
f 1 4 3
f 3 5 1
f 2 8 4
f 6 2 5
f 6 8 2
f 4 8 3
f 7 5 3
f 3 8 7
f 7 6 5
f 8 6 7
f 10 12 9
f 13 10 9
f 9 12 11
f 11 13 9
f 10 16 12
f 14 10 13
f 14 16 10
f 12 16 11
f 15 13 11
f 11 16 15
f 15 14 13
f 16 14 15
f 18 20 17
f 21 18 17
f 17 20 19
f 19 21 17
f 18 24 20
f 22 18 21
f 22 24 18
f 20 24 19
f 23 21 19
f 19 24 23
f 23 22 21
f 24 22 23
f 26 28 25
f 29 26 25
f 25 28 27
f 27 29 25
f 26 32 28
f 30 26 29
f 30 32 26
f 28 32 27
f 31 29 27
f 27 32 31
f 31 30 29
f 32 30 31
f 34 36 33
f 37 34 33
f 33 36 35
f 35 37 33
f 34 40 36
f 38 34 37
f 38 40 34
f 36 40 35
f 39 37 35
f 35 40 39
f 39 38 37
f 40 38 39
f 42 41 45
f 42 45 43
f 43 45 46
f 43 46 44
f 45 41 47
f 45 47 46
f 46 47 48
f 46 48 44
f 47 41 49
f 47 49 48
f 48 49 50
f 48 50 44
f 49 41 51
f 49 51 50
f 50 51 52
f 50 52 44
f 51 41 53
f 51 53 52
f 52 53 54
f 52 54 44
f 53 41 55
f 53 55 54
f 54 55 56
f 54 56 44
f 55 41 57
f 55 57 56
f 56 57 58
f 56 58 44
f 57 41 59
f 57 59 58
f 58 59 60
f 58 60 44
f 59 41 61
f 59 61 60
f 60 61 62
f 60 62 44
f 61 41 63
f 61 63 62
f 62 63 64
f 62 64 44
f 63 41 65
f 63 65 64
f 64 65 66
f 64 66 44
f 65 41 67
f 65 67 66
f 66 67 68
f 66 68 44
f 67 41 69
f 67 69 68
f 68 69 70
f 68 70 44
f 69 41 71
f 69 71 70
f 70 71 72
f 70 72 44
f 71 41 73
f 71 73 72
f 72 73 74
f 72 74 44
f 73 41 75
f 73 75 74
f 74 75 76
f 74 76 44
f 75 41 77
f 75 77 76
f 76 77 78
f 76 78 44
f 77 41 79
f 77 79 78
f 78 79 80
f 78 80 44
f 79 41 81
f 79 81 80
f 80 81 82
f 80 82 44
f 81 41 42
f 81 42 82
f 82 42 43
f 82 43 44
f 84 83 87
f 84 87 85
f 85 87 88
f 85 88 86
f 87 83 89
f 87 89 88
f 88 89 90
f 88 90 86
f 89 83 91
f 89 91 90
f 90 91 92
f 90 92 86
f 91 83 93
f 91 93 92
f 92 93 94
f 92 94 86
f 93 83 95
f 93 95 94
f 94 95 96
f 94 96 86
f 95 83 97
f 95 97 96
f 96 97 98
f 96 98 86
f 97 83 99
f 97 99 98
f 98 99 100
f 98 100 86
f 99 83 101
f 99 101 100
f 100 101 102
f 100 102 86
f 101 83 103
f 101 103 102
f 102 103 104
f 102 104 86
f 103 83 105
f 103 105 104
f 104 105 106
f 104 106 86
f 105 83 107
f 105 107 106
f 106 107 108
f 106 108 86
f 107 83 109
f 107 109 108
f 108 109 110
f 108 110 86
f 109 83 111
f 109 111 110
f 110 111 112
f 110 112 86
f 111 83 113
f 111 113 112
f 112 113 114
f 112 114 86
f 113 83 115
f 113 115 114
f 114 115 116
f 114 116 86
f 115 83 117
f 115 117 116
f 116 117 118
f 116 118 86
f 117 83 119
f 117 119 118
f 118 119 120
f 118 120 86
f 119 83 121
f 119 121 120
f 120 121 122
f 120 122 86
f 121 83 123
f 121 123 122
f 122 123 124
f 122 124 86
f 123 83 84
f 123 84 124
f 124 84 85
f 124 85 86
f 126 128 125
f 129 126 125
f 125 128 127
f 127 129 125
f 126 132 128
f 130 126 129
f 130 132 126
f 128 132 127
f 131 129 127
f 127 132 131
f 131 130 129
f 132 130 131
f 134 136 133
f 137 134 133
f 133 136 135
f 135 137 133
f 134 140 136
f 138 134 137
f 138 140 134
f 136 140 135
f 139 137 135
f 135 140 139
f 139 138 137
f 140 138 139
f 142 144 141
f 145 142 141
f 141 144 143
f 143 145 141
f 142 148 144
f 146 142 145
f 146 148 142
f 144 148 143
f 147 145 143
f 143 148 147
f 147 146 145
f 148 146 147
f 150 152 149
f 153 150 149
f 149 152 151
f 151 153 149
f 150 156 152
f 154 150 153
f 154 156 150
f 152 156 151
f 155 153 151
f 151 156 155
f 155 154 153
f 156 154 155
f 158 160 157
f 161 158 157
f 157 160 159
f 159 161 157
f 158 164 160
f 162 158 161
f 162 164 158
f 160 164 159
f 163 161 159
f 159 164 163
f 163 162 161
f 164 162 163
f 165 175 166
f 166 175 176
f 166 176 167
f 167 176 177
f 167 177 168
f 168 177 178
f 168 178 169
f 169 178 179
f 169 179 170
f 170 179 180
f 170 180 171
f 171 180 181
f 171 181 172
f 172 181 182
f 172 182 173
f 173 182 183
f 173 183 174
f 174 183 184
f 174 184 165
f 165 184 175
f 175 185 176
f 176 185 186
f 176 186 177
f 177 186 187
f 177 187 178
f 178 187 188
f 178 188 179
f 179 188 189
f 179 189 180
f 180 189 190
f 180 190 181
f 181 190 191
f 181 191 182
f 182 191 192
f 182 192 183
f 183 192 193
f 183 193 184
f 184 193 194
f 184 194 175
f 175 194 185
f 185 195 186
f 186 195 196
f 186 196 187
f 187 196 197
f 187 197 188
f 188 197 198
f 188 198 189
f 189 198 199
f 189 199 190
f 190 199 200
f 190 200 191
f 191 200 201
f 191 201 192
f 192 201 202
f 192 202 193
f 193 202 203
f 193 203 194
f 194 203 204
f 194 204 185
f 185 204 195
f 195 205 196
f 196 205 206
f 196 206 197
f 197 206 207
f 197 207 198
f 198 207 208
f 198 208 199
f 199 208 209
f 199 209 200
f 200 209 210
f 200 210 201
f 201 210 211
f 201 211 202
f 202 211 212
f 202 212 203
f 203 212 213
f 203 213 204
f 204 213 214
f 204 214 195
f 195 214 205
f 205 215 206
f 206 215 216
f 206 216 207
f 207 216 217
f 207 217 208
f 208 217 218
f 208 218 209
f 209 218 219
f 209 219 210
f 210 219 220
f 210 220 211
f 211 220 221
f 211 221 212
f 212 221 222
f 212 222 213
f 213 222 223
f 213 223 214
f 214 223 224
f 214 224 205
f 205 224 215
f 215 225 216
f 216 225 226
f 216 226 217
f 217 226 227
f 217 227 218
f 218 227 228
f 218 228 219
f 219 228 229
f 219 229 220
f 220 229 230
f 220 230 221
f 221 230 231
f 221 231 222
f 222 231 232
f 222 232 223
f 223 232 233
f 223 233 224
f 224 233 234
f 224 234 215
f 215 234 225
f 225 235 226
f 226 235 236
f 226 236 227
f 227 236 237
f 227 237 228
f 228 237 238
f 228 238 229
f 229 238 239
f 229 239 230
f 230 239 240
f 230 240 231
f 231 240 241
f 231 241 232
f 232 241 242
f 232 242 233
f 233 242 243
f 233 243 234
f 234 243 244
f 234 244 225
f 225 244 235
f 235 245 236
f 236 245 246
f 236 246 237
f 237 246 247
f 237 247 238
f 238 247 248
f 238 248 239
f 239 248 249
f 239 249 240
f 240 249 250
f 240 250 241
f 241 250 251
f 241 251 242
f 242 251 252
f 242 252 243
f 243 252 253
f 243 253 244
f 244 253 254
f 244 254 235
f 235 254 245
f 245 255 246
f 246 255 256
f 246 256 247
f 247 256 257
f 247 257 248
f 248 257 258
f 248 258 249
f 249 258 259
f 249 259 250
f 250 259 260
f 250 260 251
f 251 260 261
f 251 261 252
f 252 261 262
f 252 262 253
f 253 262 263
f 253 263 254
f 254 263 264
f 254 264 245
f 245 264 255
f 255 265 256
f 256 265 266
f 256 266 257
f 257 266 267
f 257 267 258
f 258 267 268
f 258 268 259
f 259 268 269
f 259 269 260
f 260 269 270
f 260 270 261
f 261 270 271
f 261 271 262
f 262 271 272
f 262 272 263
f 263 272 273
f 263 273 264
f 264 273 274
f 264 274 255
f 255 274 265
f 265 275 266
f 266 275 276
f 266 276 267
f 267 276 277
f 267 277 268
f 268 277 278
f 268 278 269
f 269 278 279
f 269 279 270
f 270 279 280
f 270 280 271
f 271 280 281
f 271 281 272
f 272 281 282
f 272 282 273
f 273 282 283
f 273 283 274
f 274 283 284
f 274 284 265
f 265 284 275
f 275 285 276
f 276 285 286
f 276 286 277
f 277 286 287
f 277 287 278
f 278 287 288
f 278 288 279
f 279 288 289
f 279 289 280
f 280 289 290
f 280 290 281
f 281 290 291
f 281 291 282
f 282 291 292
f 282 292 283
f 283 292 293
f 283 293 284
f 284 293 294
f 284 294 275
f 275 294 285
f 285 295 286
f 286 295 296
f 286 296 287
f 287 296 297
f 287 297 288
f 288 297 298
f 288 298 289
f 289 298 299
f 289 299 290
f 290 299 300
f 290 300 291
f 291 300 301
f 291 301 292
f 292 301 302
f 292 302 293
f 293 302 303
f 293 303 294
f 294 303 304
f 294 304 285
f 285 304 295
f 295 305 296
f 296 305 306
f 296 306 297
f 297 306 307
f 297 307 298
f 298 307 308
f 298 308 299
f 299 308 309
f 299 309 300
f 300 309 310
f 300 310 301
f 301 310 311
f 301 311 302
f 302 311 312
f 302 312 303
f 303 312 313
f 303 313 304
f 304 313 314
f 304 314 295
f 295 314 305
f 305 315 306
f 306 315 316
f 306 316 307
f 307 316 317
f 307 317 308
f 308 317 318
f 308 318 309
f 309 318 319
f 309 319 310
f 310 319 320
f 310 320 311
f 311 320 321
f 311 321 312
f 312 321 322
f 312 322 313
f 313 322 323
f 313 323 314
f 314 323 324
f 314 324 305
f 305 324 315
f 315 325 316
f 316 325 326
f 316 326 317
f 317 326 327
f 317 327 318
f 318 327 328
f 318 328 319
f 319 328 329
f 319 329 320
f 320 329 330
f 320 330 321
f 321 330 331
f 321 331 322
f 322 331 332
f 322 332 323
f 323 332 333
f 323 333 324
f 324 333 334
f 324 334 315
f 315 334 325
f 325 335 326
f 326 335 336
f 326 336 327
f 327 336 337
f 327 337 328
f 328 337 338
f 328 338 329
f 329 338 339
f 329 339 330
f 330 339 340
f 330 340 331
f 331 340 341
f 331 341 332
f 332 341 342
f 332 342 333
f 333 342 343
f 333 343 334
f 334 343 344
f 334 344 325
f 325 344 335
f 335 165 336
f 336 165 166
f 336 166 337
f 337 166 167
f 337 167 338
f 338 167 168
f 338 168 339
f 339 168 169
f 339 169 340
f 340 169 170
f 340 170 341
f 341 170 171
f 341 171 342
f 342 171 172
f 342 172 343
f 343 172 173
f 343 173 344
f 344 173 174
f 344 174 335
f 335 174 165
f 345 382 361
f 382 356 385
f 361 385 350
f 382 385 361
f 345 361 357
f 361 350 362
f 357 362 346
f 361 362 357
f 345 357 366
f 357 346 367
f 366 367 352
f 357 367 366
f 345 366 378
f 366 352 381
f 378 381 355
f 366 381 378
f 345 378 382
f 378 355 386
f 382 386 356
f 378 386 382
f 346 362 373
f 362 350 376
f 373 376 354
f 362 376 373
f 350 385 363
f 385 356 384
f 363 384 349
f 385 384 363
f 356 386 383
f 386 355 379
f 383 379 347
f 386 379 383
f 355 381 380
f 381 352 368
f 380 368 351
f 381 368 380
f 352 367 372
f 367 346 369
f 372 369 353
f 367 369 372
f 348 374 360
f 374 354 375
f 360 375 349
f 374 375 360
f 348 360 358
f 360 349 359
f 358 359 347
f 360 359 358
f 348 358 365
f 358 347 364
f 365 364 351
f 358 364 365
f 348 365 370
f 365 351 371
f 370 371 353
f 365 371 370
f 348 370 374
f 370 353 377
f 374 377 354
f 370 377 374
f 349 375 363
f 375 354 376
f 363 376 350
f 375 376 363
f 347 359 383
f 359 349 384
f 383 384 356
f 359 384 383
f 351 364 380
f 364 347 379
f 380 379 355
f 364 379 380
f 353 371 372
f 371 351 368
f 372 368 352
f 371 368 372
f 354 377 373
f 377 353 369
f 373 369 346
f 377 369 373
f 387 388 389
f 390 392 391
f 387 390 388
f 388 390 392
f 388 392 389
f 389 392 391
f 389 391 387
f 387 391 390
f 393 394 395
f 396 398 397
f 393 396 394
f 394 396 398
f 394 398 395
f 395 398 397
f 395 397 393
f 393 397 396
f 399 400 401
f 402 404 403
f 399 402 400
f 400 402 404
f 400 404 401
f 401 404 403
f 401 403 399
f 399 403 402
f 405 406 407
f 408 410 409
f 405 408 406
f 406 408 410
f 406 410 407
f 407 410 409
f 407 409 405
f 405 409 408
f 411 412 413
f 414 416 415
f 411 414 412
f 412 414 416
f 412 416 413
f 413 416 415
f 413 415 411
f 411 415 414
f 418 417 420
f 418 420 419
f 420 417 421
f 420 421 419
f 421 417 422
f 421 422 419
f 422 417 423
f 422 423 419
f 423 417 424
f 423 424 419
f 424 417 425
f 424 425 419
f 425 417 426
f 425 426 419
f 426 417 427
f 426 427 419
f 427 417 428
f 427 428 419
f 428 417 418
f 428 418 419

