# https://github.com/mikedh/trimesh
v -0.47916667 -0.24739583 -0.30623001
v -0.47916667 -0.24739583 0.27710332
v -0.47916667 -0.15364583 -0.30623001
v -0.47916667 -0.15364583 0.27710332
v 0.47916667 -0.24739583 -0.30623001
v 0.47916667 -0.24739583 0.27710332
v 0.47916667 -0.15364583 -0.30623001
v 0.47916667 -0.15364583 0.27710332
v -0.47916667 -0.20052083 -0.30623001
v -0.47916667 -0.20052083 -0.24373001
v -0.47916667 0.29947917 -0.30623001
v -0.47916667 0.29947917 -0.24373001
v 0.47916667 -0.20052083 -0.30623001
v 0.47916667 -0.20052083 -0.24373001
v 0.47916667 0.29947917 -0.30623001
v 0.47916667 0.29947917 -0.24373001
v -0.47916667 -0.20052083 0.21460332
v -0.47916667 -0.20052083 0.27710332
v -0.47916667 0.29947917 0.21460332
v -0.47916667 0.29947917 0.27710332
v 0.47916667 -0.20052083 0.21460332
v 0.47916667 -0.20052083 0.27710332
v 0.47916667 0.29947917 0.21460332
v 0.47916667 0.29947917 0.27710332
v -0.47916667 -0.20052083 -0.27498001
v -0.47916667 -0.20052083 0.24585332
v -0.47916667 0.29947917 -0.27498001
v -0.47916667 0.29947917 0.24585332
v -0.41666667 -0.20052083 -0.27498001
v -0.41666667 -0.20052083 0.24585332
v -0.41666667 0.29947917 -0.27498001
v -0.41666667 0.29947917 0.24585332
v 0.41666667 -0.20052083 -0.27498001
v 0.41666667 -0.20052083 0.24585332
v 0.41666667 0.29947917 -0.27498001
v 0.41666667 0.29947917 0.24585332
v 0.47916667 -0.20052083 -0.27498001
v 0.47916667 -0.20052083 0.24585332
v 0.47916667 0.29947917 -0.27498001
v 0.47916667 0.29947917 0.24585332
v -0.44270833 0.15885417 0.25887416
v -0.44270833 0.15885417 0.29533249
v -0.44270833 0.21093750 0.25887416
v -0.44270833 0.21093750 0.29533249
v 0.44270833 0.15885417 0.25887416
v 0.44270833 0.15885417 0.29533249
v 0.44270833 0.21093750 0.25887416
v 0.44270833 0.21093750 0.29533249
v -0.44270833 -0.08072917 0.25887416
v -0.44270833 -0.08072917 0.29533249
v -0.44270833 -0.02864583 0.25887416
v -0.44270833 -0.02864583 0.29533249
v 0.44270833 -0.08072917 0.25887416
v 0.44270833 -0.08072917 0.29533249
v 0.44270833 -0.02864583 0.25887416
v 0.44270833 -0.02864583 0.29533249
v -0.44270833 0.15885417 -0.32445918
v -0.44270833 0.15885417 -0.28800084
v -0.44270833 0.21093750 -0.32445918
v -0.44270833 0.21093750 -0.28800084
v 0.44270833 0.15885417 -0.32445918
v 0.44270833 0.15885417 -0.28800084
v 0.44270833 0.21093750 -0.32445918
v 0.44270833 0.21093750 -0.28800084
v -0.44270833 -0.08072917 -0.32445918
v -0.44270833 -0.08072917 -0.28800084
v -0.44270833 -0.02864583 -0.32445918
v -0.44270833 -0.02864583 -0.28800084
v 0.44270833 -0.08072917 -0.32445918
v 0.44270833 -0.08072917 -0.28800084
v 0.44270833 -0.02864583 -0.32445918
v 0.44270833 -0.02864583 -0.28800084
v -0.50000000 -0.13802083 0.13126999
v -0.50000000 -0.13802083 0.17293666
v -0.50000000 0.27864583 0.13126999
v -0.50000000 0.27864583 0.17293666
v -0.45833333 -0.13802083 0.13126999
v -0.45833333 -0.13802083 0.17293666
v -0.45833333 0.27864583 0.13126999
v -0.45833333 0.27864583 0.17293666
v -0.50000000 -0.13802083 -0.20206334
v -0.50000000 -0.13802083 -0.16039668
v -0.50000000 0.27864583 -0.20206334
v -0.50000000 0.27864583 -0.16039668
v -0.45833333 -0.13802083 -0.20206334
v -0.45833333 -0.13802083 -0.16039668
v -0.45833333 0.27864583 -0.20206334
v -0.45833333 0.27864583 -0.16039668
v 0.45833333 -0.13802083 0.13126999
v 0.45833333 -0.13802083 0.17293666
v 0.45833333 0.27864583 0.13126999
v 0.45833333 0.27864583 0.17293666
v 0.50000000 -0.13802083 0.13126999
v 0.50000000 -0.13802083 0.17293666
v 0.50000000 0.27864583 0.13126999
v 0.50000000 0.27864583 0.17293666
v 0.45833333 -0.13802083 -0.20206334
v 0.45833333 -0.13802083 -0.16039668
v 0.45833333 0.27864583 -0.20206334
v 0.45833333 0.27864583 -0.16039668
v 0.50000000 -0.13802083 -0.20206334
v 0.50000000 -0.13802083 -0.16039668
v 0.50000000 0.27864583 -0.20206334
v 0.50000000 0.27864583 -0.16039668
v -0.40104167 -0.29947917 -0.24893834
v -0.40104167 -0.29947917 -0.13435501
v -0.40104167 -0.24739583 -0.24893834
v -0.40104167 -0.24739583 -0.13435501
v -0.28645833 -0.29947917 -0.24893834
v -0.28645833 -0.29947917 -0.13435501
v -0.28645833 -0.24739583 -0.24893834
v -0.28645833 -0.24739583 -0.13435501
v 0.28645833 -0.29947917 -0.24893834
v 0.28645833 -0.29947917 -0.13435501
v 0.28645833 -0.24739583 -0.24893834
v 0.28645833 -0.24739583 -0.13435501
v 0.40104167 -0.29947917 -0.24893834
v 0.40104167 -0.29947917 -0.13435501
v 0.40104167 -0.24739583 -0.24893834
v 0.40104167 -0.24739583 -0.13435501
v -0.40104167 -0.29947917 0.10522832
v -0.40104167 -0.29947917 0.21981166
v -0.40104167 -0.24739583 0.10522832
v -0.40104167 -0.24739583 0.21981166
v -0.28645833 -0.29947917 0.10522832
v -0.28645833 -0.29947917 0.21981166
v -0.28645833 -0.24739583 0.10522832
v -0.28645833 -0.24739583 0.21981166
v 0.28645833 -0.29947917 0.10522832
v 0.28645833 -0.29947917 0.21981166
v 0.28645833 -0.24739583 0.10522832
v 0.28645833 -0.24739583 0.21981166
v 0.40104167 -0.29947917 0.10522832
v 0.40104167 -0.29947917 0.21981166
v 0.40104167 -0.24739583 0.10522832
v 0.40104167 -0.24739583 0.21981166
v -0.06250000 -0.01302083 0.27449916
v -0.06250000 -0.01302083 0.30054082
v -0.06250000 0.17447917 0.27449916
v -0.06250000 0.17447917 0.30054082
v 0.06250000 -0.01302083 0.27449916
v 0.06250000 -0.01302083 0.30054082
v 0.06250000 0.17447917 0.27449916
v 0.06250000 0.17447917 0.30054082
v 0.06354167 0.04947917 0.31356166
v 0.06135332 0.04947917 0.32029669
v 0.05562415 0.04947917 0.32445918
v 0.04854251 0.04947917 0.32445918
v 0.04281335 0.04947917 0.32029669
v 0.04062500 0.04947917 0.31356166
v 0.04281335 0.04947917 0.30682662
v 0.04854251 0.04947917 0.30266413
v 0.05562415 0.04947917 0.30266413
v 0.06135332 0.04947917 0.30682662
v 0.05970964 0.07121170 0.31356166
v 0.05765326 0.07046324 0.32029669
v 0.05226961 0.06850375 0.32445918
v 0.04561504 0.06608168 0.32445918
v 0.04023139 0.06412219 0.32029669
v 0.03817501 0.06337373 0.31356166
v 0.04023139 0.06412219 0.30682662
v 0.04561504 0.06608168 0.30266413
v 0.05226961 0.06850375 0.30266413
v 0.05765326 0.07046324 0.30682662
v 0.04867574 0.09032296 0.31356166
v 0.04699937 0.08891632 0.32029669
v 0.04261057 0.08523368 0.32445918
v 0.03718572 0.08068169 0.32445918
v 0.03279693 0.07699906 0.32029669
v 0.03112056 0.07559241 0.31356166
v 0.03279693 0.07699906 0.30682662
v 0.03718572 0.08068169 0.30266413
v 0.04261057 0.08523368 0.30266413
v 0.04699937 0.08891632 0.30682662
v 0.03177083 0.10450786 0.31356166
v 0.03067666 0.10261270 0.32029669
v 0.02781208 0.09765110 0.32445918
v 0.02427126 0.09151822 0.32445918
v 0.02140667 0.08655661 0.32029669
v 0.02031250 0.08466145 0.31356166
v 0.02140667 0.08655661 0.30682662
v 0.02427126 0.09151822 0.30266413
v 0.02781208 0.09765110 0.30266413
v 0.03067666 0.10261270 0.30682662
v 0.01103389 0.11205549 0.31356166
v 0.01065389 0.10990039 0.32029669
v 0.00965903 0.10425826 0.32445918
v 0.00842932 0.09728421 0.32445918
v 0.00743446 0.09164208 0.32029669
v 0.00705446 0.08948698 0.31356166
v 0.00743446 0.09164208 0.30682662
v 0.00842932 0.09728421 0.30266413
v 0.00965903 0.10425826 0.30266413
v 0.01065389 0.10990039 0.30682662
v -0.01103389 0.11205549 0.31356166
v -0.01065389 0.10990039 0.32029669
v -0.00965903 0.10425826 0.32445918
v -0.00842932 0.09728421 0.32445918
v -0.00743446 0.09164208 0.32029669
v -0.00705446 0.08948698 0.31356166
v -0.00743446 0.09164208 0.30682662
v -0.00842932 0.09728421 0.30266413
v -0.00965903 0.10425826 0.30266413
v -0.01065389 0.10990039 0.30682662
v -0.03177083 0.10450786 0.31356166
v -0.03067666 0.10261270 0.32029669
v -0.02781208 0.09765110 0.32445918
v -0.02427126 0.09151822 0.32445918
v -0.02140667 0.08655661 0.32029669
v -0.02031250 0.08466145 0.31356166
v -0.02140667 0.08655661 0.30682662
v -0.02427126 0.09151822 0.30266413
v -0.02781208 0.09765110 0.30266413
v -0.03067666 0.10261270 0.30682662
v -0.04867574 0.09032296 0.31356166
v -0.04699937 0.08891632 0.32029669
v -0.04261057 0.08523368 0.32445918
v -0.03718572 0.08068169 0.32445918
v -0.03279693 0.07699906 0.32029669
v -0.03112056 0.07559241 0.31356166
v -0.03279693 0.07699906 0.30682662
v -0.03718572 0.08068169 0.30266413
v -0.04261057 0.08523368 0.30266413
v -0.04699937 0.08891632 0.30682662
v -0.05970964 0.07121170 0.31356166
v -0.05765326 0.07046324 0.32029669
v -0.05226961 0.06850375 0.32445918
v -0.04561504 0.06608168 0.32445918
v -0.04023139 0.06412219 0.32029669
v -0.03817501 0.06337373 0.31356166
v -0.04023139 0.06412219 0.30682662
v -0.04561504 0.06608168 0.30266413
v -0.05226961 0.06850375 0.30266413
v -0.05765326 0.07046324 0.30682662
v -0.06354167 0.04947917 0.31356166
v -0.06135332 0.04947917 0.32029669
v -0.05562415 0.04947917 0.32445918
v -0.04854251 0.04947917 0.32445918
v -0.04281335 0.04947917 0.32029669
v -0.04062500 0.04947917 0.31356166
v -0.04281335 0.04947917 0.30682662
v -0.04854251 0.04947917 0.30266413
v -0.05562415 0.04947917 0.30266413
v -0.06135332 0.04947917 0.30682662
v -0.05970964 0.02774664 0.31356166
v -0.05765326 0.02849510 0.32029669
v -0.05226961 0.03045459 0.32445918
v -0.04561504 0.03287665 0.32445918
v -0.04023139 0.03483614 0.32029669
v -0.03817501 0.03558460 0.31356166
v -0.04023139 0.03483614 0.30682662
v -0.04561504 0.03287665 0.30266413
v -0.05226961 0.03045459 0.30266413
v -0.05765326 0.02849510 0.30682662
v -0.04867574 0.00863537 0.31356166
v -0.04699937 0.01004201 0.32029669
v -0.04261057 0.01372465 0.32445918
v -0.03718572 0.01827664 0.32445918
v -0.03279693 0.02195928 0.32029669
v -0.03112056 0.02336592 0.31356166
v -0.03279693 0.02195928 0.30682662
v -0.03718572 0.01827664 0.30266413
v -0.04261057 0.01372465 0.30266413
v -0.04699937 0.01004201 0.30682662
v -0.03177083 -0.00554953 0.31356166
v -0.03067666 -0.00365437 0.32029669
v -0.02781208 0.00130724 0.32445918
v -0.02427126 0.00744012 0.32445918
v -0.02140667 0.01240172 0.32029669
v -0.02031250 0.01429688 0.31356166
v -0.02140667 0.01240172 0.30682662
v -0.02427126 0.00744012 0.30266413
v -0.02781208 0.00130724 0.30266413
v -0.03067666 -0.00365437 0.30682662
v -0.01103389 -0.01309716 0.31356166
v -0.01065389 -0.01094206 0.32029669
v -0.00965903 -0.00529993 0.32445918
v -0.00842932 0.00167412 0.32445918
v -0.00743446 0.00731625 0.32029669
v -0.00705446 0.00947135 0.31356166
v -0.00743446 0.00731625 0.30682662
v -0.00842932 0.00167412 0.30266413
v -0.00965903 -0.00529993 0.30266413
v -0.01065389 -0.01094206 0.30682662
v 0.01103389 -0.01309716 0.31356166
v 0.01065389 -0.01094206 0.32029669
v 0.00965903 -0.00529993 0.32445918
v 0.00842932 0.00167412 0.32445918
v 0.00743446 0.00731625 0.32029669
v 0.00705446 0.00947135 0.31356166
v 0.00743446 0.00731625 0.30682662
v 0.00842932 0.00167412 0.30266413
v 0.00965903 -0.00529993 0.30266413
v 0.01065389 -0.01094206 0.30682662
v 0.03177083 -0.00554953 0.31356166
v 0.03067666 -0.00365437 0.32029669
v 0.02781208 0.00130724 0.32445918
v 0.02427126 0.00744012 0.32445918
v 0.02140667 0.01240172 0.32029669
v 0.02031250 0.01429688 0.31356166
v 0.02140667 0.01240172 0.30682662
v 0.02427126 0.00744012 0.30266413
v 0.02781208 0.00130724 0.30266413
v 0.03067666 -0.00365437 0.30682662
v 0.04867574 0.00863537 0.31356166
v 0.04699937 0.01004201 0.32029669
v 0.04261057 0.01372465 0.32445918
v 0.03718572 0.01827664 0.32445918
v 0.03279693 0.02195928 0.32029669
v 0.03112056 0.02336592 0.31356166
v 0.03279693 0.02195928 0.30682662
v 0.03718572 0.01827664 0.30266413
v 0.04261057 0.01372465 0.30266413
v 0.04699937 0.01004201 0.30682662
v 0.05970964 0.02774664 0.31356166
v 0.05765326 0.02849510 0.32029669
v 0.05226961 0.03045459 0.32445918
v 0.04561504 0.03287665 0.32445918
v 0.04023139 0.03483614 0.32029669
v 0.03817501 0.03558460 0.31356166
v 0.04023139 0.03483614 0.30682662
v 0.04561504 0.03287665 0.30266413
v 0.05226961 0.03045459 0.30266413
v 0.05765326 0.02849510 0.30682662
v 0.00000000 0.15364583 0.30835332
v 0.01302083 0.15364583 0.30835332
v 0.01302083 0.03906250 0.30835332
v 0.00000000 0.03906250 0.30835332
v 0.00920712 0.15364583 0.31756044
v 0.00920712 0.03906250 0.31756044
v 0.00000000 0.15364583 0.32137416
v 0.00000000 0.03906250 0.32137416
v -0.00920712 0.15364583 0.31756044
v -0.00920712 0.03906250 0.31756044
v -0.01302083 0.15364583 0.30835332
v -0.01302083 0.03906250 0.30835332
v -0.00920712 0.15364583 0.29914620
v -0.00920712 0.03906250 0.29914620
v -0.00000000 0.15364583 0.29533249
v -0.00000000 0.03906250 0.29533249
v 0.00920712 0.15364583 0.29914620
v 0.00920712 0.03906250 0.29914620
v -0.04166667 0.13802083 0.30835332
v -0.04166667 0.13802083 0.29689499
v 0.04166667 0.13802083 0.29689499
v 0.04166667 0.13802083 0.30835332
v -0.04166667 0.14612310 0.30025106
v 0.04166667 0.14612310 0.30025106
v -0.04166667 0.14947917 0.30835332
v 0.04166667 0.14947917 0.30835332
v -0.04166667 0.14612310 0.31645559
v 0.04166667 0.14612310 0.31645559
v -0.04166667 0.13802083 0.31981166
v 0.04166667 0.13802083 0.31981166
v -0.04166667 0.12991857 0.31645559
v 0.04166667 0.12991857 0.31645559
v -0.04166667 0.12656250 0.30835332
v 0.04166667 0.12656250 0.30835332
v -0.04166667 0.12991857 0.30025106
v 0.04166667 0.12991857 0.30025106
v -0.00520833 0.05989583 0.30835332
v -0.00520833 0.05989583 0.31876999
v -0.05208333 0.11197917 0.31876999
v -0.05208333 0.11197917 0.30835332
v -0.00065732 0.06399175 0.31678058
v -0.04753232 0.11607508 0.31678058
v 0.00215536 0.06652316 0.31157225
v -0.04471964 0.11860649 0.31157225
v 0.00215536 0.06652316 0.30513440
v -0.04471964 0.11860649 0.30513440
v -0.00065732 0.06399175 0.29992606
v -0.04753232 0.11607508 0.29992606
v -0.00520833 0.05989583 0.29793666
v -0.05208333 0.11197917 0.29793666
v -0.00975935 0.05579992 0.29992606
v -0.05663435 0.10788325 0.29992606
v -0.01257203 0.05326851 0.30513440
v -0.05944703 0.10535184 0.30513440
v -0.01257203 0.05326851 0.31157225
v -0.05944703 0.10535184 0.31157225
v -0.00975935 0.05579992 0.31678058
v -0.05663435 0.10788325 0.31678058
v 0.00520833 0.05989583 0.30835332
v 0.00520833 0.05989583 0.29793666
v 0.05208333 0.11197917 0.29793666
v 0.05208333 0.11197917 0.30835332
v 0.00065732 0.06399175 0.29992606
v 0.04753232 0.11607508 0.29992606
v -0.00215536 0.06652316 0.30513440
v 0.04471964 0.11860649 0.30513440
v -0.00215536 0.06652316 0.31157225
v 0.04471964 0.11860649 0.31157225
v 0.00065732 0.06399175 0.31678058
v 0.04753232 0.11607508 0.31678058
v 0.00520833 0.05989583 0.31876999
v 0.05208333 0.11197917 0.31876999
v 0.00975935 0.05579992 0.31678058
v 0.05663435 0.10788325 0.31678058
v 0.01257203 0.05326851 0.31157225
v 0.05944703 0.10535184 0.31157225
v 0.01257203 0.05326851 0.30513440
v 0.05944703 0.10535184 0.30513440
v 0.00975935 0.05579992 0.29992606
v 0.05663435 0.10788325 0.29992606
v -0.50000000 0.38194507 -0.33039326
v -0.50000000 0.38194507 0.25387640
v -0.50000000 0.44936080 -0.33039326
v -0.50000000 0.44936080 0.25387640
v 0.50000000 0.38194507 -0.33039326
v 0.50000000 0.38194507 0.25387640
v 0.50000000 0.44936080 -0.33039326
v 0.50000000 0.44936080 0.25387640
v -0.50000000 0.31452934 -0.33039326
v -0.50000000 0.31452934 -0.26297753
v -0.50000000 0.38194507 -0.33039326
v -0.50000000 0.38194507 -0.26297753
v 0.50000000 0.31452934 -0.33039326
v 0.50000000 0.31452934 -0.26297753
v 0.50000000 0.38194507 -0.33039326
v 0.50000000 0.38194507 -0.26297753
v -0.50000000 0.31452934 0.18646067
v -0.50000000 0.31452934 0.25387640
v -0.50000000 0.38194507 0.18646067
v -0.50000000 0.38194507 0.25387640
v 0.50000000 0.31452934 0.18646067
v 0.50000000 0.31452934 0.25387640
v 0.50000000 0.38194507 0.18646067
v 0.50000000 0.38194507 0.25387640
v -0.50000000 0.31452934 -0.29668539
v -0.50000000 0.31452934 0.22016854
v -0.50000000 0.38194507 -0.29668539
v -0.50000000 0.38194507 0.22016854
v -0.43258427 0.31452934 -0.29668539
v -0.43258427 0.31452934 0.22016854
v -0.43258427 0.38194507 -0.29668539
v -0.43258427 0.38194507 0.22016854
v 0.43258427 0.31452934 -0.29668539
v 0.43258427 0.31452934 0.22016854
v 0.43258427 0.38194507 -0.29668539
v 0.43258427 0.38194507 0.22016854
v 0.50000000 0.31452934 -0.29668539
v 0.50000000 0.31452934 0.22016854
v 0.50000000 0.38194507 -0.29668539
v 0.50000000 0.38194507 0.22016854
v -0.48314607 0.49430463 -0.03825843
v -0.48314607 0.49430463 -0.31353933
v 0.48314607 0.49430463 -0.31353933
v 0.48314607 0.49430463 -0.03825843
v -0.48314607 0.57937110 -0.30006612
v 0.48314607 0.57937110 -0.30006612
v -0.48314607 0.65611068 -0.26096535
v 0.48314607 0.65611068 -0.26096535
v -0.48314607 0.71701155 -0.20006448
v 0.48314607 0.71701155 -0.20006448
v -0.48314607 0.75611232 -0.12332490
v 0.48314607 0.75611232 -0.12332490
v -0.48314607 0.76958552 -0.03825843
v 0.48314607 0.76958552 -0.03825843
v -0.48314607 0.75611232 0.04680805
v 0.48314607 0.75611232 0.04680805
v -0.48314607 0.71701155 0.12354763
v 0.48314607 0.71701155 0.12354763
v -0.48314607 0.65611068 0.18444850
v 0.48314607 0.65611068 0.18444850
v -0.48314607 0.57937110 0.22354927
v 0.48314607 0.57937110 0.22354927
v -0.48314607 0.49430463 0.23702247
v 0.48314607 0.49430463 0.23702247
v -0.48314607 0.40923815 0.22354927
v 0.48314607 0.40923815 0.22354927
v -0.48314607 0.33249857 0.18444850
v 0.48314607 0.33249857 0.18444850
v -0.48314607 0.27159770 0.12354763
v 0.48314607 0.27159770 0.12354763
v -0.48314607 0.23249693 0.04680805
v 0.48314607 0.23249693 0.04680805
v -0.48314607 0.21902373 -0.03825843
v 0.48314607 0.21902373 -0.03825843
v -0.48314607 0.23249693 -0.12332490
v 0.48314607 0.23249693 -0.12332490
v -0.48314607 0.27159770 -0.20006448
v 0.48314607 0.27159770 -0.20006448
v -0.48314607 0.33249857 -0.26096535
v 0.48314607 0.33249857 -0.26096535
v -0.48314607 0.40923815 -0.30006612
v 0.48314607 0.40923815 -0.30006612
v -0.48314607 0.57295631 -0.03825843
v -0.48314607 0.57295631 -0.22926966
v 0.48314607 0.57295631 -0.22926966
v 0.48314607 0.57295631 -0.03825843
v -0.48314607 0.63198203 -0.21992091
v 0.48314607 0.63198203 -0.21992091
v -0.48314607 0.68522990 -0.19278976
v 0.48314607 0.68522990 -0.19278976
v -0.48314607 0.72748765 -0.15053201
v 0.48314607 0.72748765 -0.15053201
v -0.48314607 0.75461879 -0.09728414
v 0.48314607 0.75461879 -0.09728414
v -0.48314607 0.76396755 -0.03825843
v 0.48314607 0.76396755 -0.03825843
v -0.48314607 0.75461879 0.02076729
v 0.48314607 0.75461879 0.02076729
v -0.48314607 0.72748765 0.07401516
v 0.48314607 0.72748765 0.07401516
v -0.48314607 0.68522990 0.11627291
v 0.48314607 0.68522990 0.11627291
v -0.48314607 0.63198203 0.14340405
v 0.48314607 0.63198203 0.14340405
v -0.48314607 0.57295631 0.15275281
v 0.48314607 0.57295631 0.15275281
v -0.48314607 0.51393059 0.14340405
v 0.48314607 0.51393059 0.14340405
v -0.48314607 0.46068272 0.11627291
v 0.48314607 0.46068272 0.11627291
v -0.48314607 0.41842497 0.07401516
v 0.48314607 0.41842497 0.07401516
v -0.48314607 0.39129383 0.02076729
v 0.48314607 0.39129383 0.02076729
v -0.48314607 0.38194507 -0.03825843
v 0.48314607 0.38194507 -0.03825843
v -0.48314607 0.39129383 -0.09728414
v 0.48314607 0.39129383 -0.09728414
v -0.48314607 0.41842497 -0.15053201
v 0.48314607 0.41842497 -0.15053201
v -0.48314607 0.46068272 -0.19278976
v 0.48314607 0.46068272 -0.19278976
v -0.48314607 0.51393059 -0.21992091
v 0.48314607 0.51393059 -0.21992091
v -0.48314607 0.57295631 0.12747191
v -0.48314607 0.57295631 0.16679775
v -0.48314607 0.61790013 0.12747191
v -0.48314607 0.61790013 0.16679775
v 0.48314607 0.57295631 0.12747191
v 0.48314607 0.57295631 0.16679775
v 0.48314607 0.61790013 0.12747191
v 0.48314607 0.61790013 0.16679775
v -0.48314607 0.57295631 -0.24331461
v -0.48314607 0.57295631 -0.20398876
v -0.48314607 0.61790013 -0.24331461
v -0.48314607 0.61790013 -0.20398876
v 0.48314607 0.57295631 -0.24331461
v 0.48314607 0.57295631 -0.20398876
v 0.48314607 0.61790013 -0.24331461
v 0.48314607 0.61790013 -0.20398876
v -0.48314607 0.69655182 0.05443820
v -0.48314607 0.69655182 0.09376404
v -0.48314607 0.74149564 0.05443820
v -0.48314607 0.74149564 0.09376404
v 0.48314607 0.69655182 0.05443820
v 0.48314607 0.69655182 0.09376404
v 0.48314607 0.74149564 0.05443820
v 0.48314607 0.74149564 0.09376404
v -0.48314607 0.69655182 -0.17028090
v -0.48314607 0.69655182 -0.13095506
v -0.48314607 0.74149564 -0.17028090
v -0.48314607 0.74149564 -0.13095506
v 0.48314607 0.69655182 -0.17028090
v 0.48314607 0.69655182 -0.13095506
v 0.48314607 0.74149564 -0.17028090
v 0.48314607 0.74149564 -0.13095506
v -0.02808989 0.28082148 0.26230337
v -0.02808989 0.28082148 0.29039326
v -0.02808989 0.38194507 0.26230337
v -0.02808989 0.38194507 0.29039326
v 0.02808989 0.28082148 0.26230337
v 0.02808989 0.28082148 0.29039326
v 0.02808989 0.38194507 0.26230337
v 0.02808989 0.38194507 0.29039326
v -0.11797753 0.74149564 0.06286517
v -0.12119634 0.73158914 0.06286517
v -0.12962331 0.72546659 0.06286517
v -0.14003961 0.72546659 0.06286517
v -0.14846658 0.73158914 0.06286517
v -0.15168539 0.74149564 0.06286517
v -0.14846658 0.75140213 0.06286517
v -0.14003961 0.75752468 0.06286517
v -0.12962331 0.75752468 0.06286517
v -0.12119634 0.75140213 0.06286517
v -0.12509244 0.74149564 0.10321586
v -0.12811714 0.73158914 0.10211496
v -0.13603590 0.72546659 0.09923277
v -0.14582402 0.72546659 0.09567018
v -0.15374278 0.73158914 0.09278799
v -0.15676748 0.74149564 0.09168709
v -0.15374278 0.75140213 0.09278799
v -0.14582402 0.75752468 0.09567018
v -0.13603590 0.75752468 0.09923277
v -0.12811714 0.75140213 0.10211496
v -0.14557903 0.74149564 0.13869966
v -0.14804478 0.73158914 0.13663065
v -0.15450021 0.72546659 0.13121390
v -0.16247956 0.72546659 0.12451843
v -0.16893499 0.73158914 0.11910168
v -0.17140075 0.74149564 0.11703266
v -0.16893499 0.75140213 0.11910168
v -0.16247956 0.75752468 0.12451843
v -0.15450021 0.75752468 0.13121390
v -0.14804478 0.75140213 0.13663065
v -0.17696629 0.74149564 0.16503670
v -0.17857570 0.73158914 0.16224913
v -0.18278918 0.72546659 0.15495116
v -0.18799733 0.72546659 0.14593038
v -0.19221082 0.73158914 0.13863241
v -0.19382022 0.74149564 0.13584484
v -0.19221082 0.75140213 0.13863241
v -0.18799733 0.75752468 0.14593038
v -0.18278918 0.75752468 0.15495116
v -0.17857570 0.75140213 0.16224913
v -0.21546847 0.74149564 0.17905035
v -0.21602741 0.73158914 0.17588044
v -0.21749074 0.72546659 0.16758150
v -0.21929951 0.72546659 0.15732344
v -0.22076284 0.73158914 0.14902450
v -0.22132178 0.74149564 0.14585459
v -0.22076284 0.75140213 0.14902450
v -0.21929951 0.75752468 0.15732344
v -0.21749074 0.75752468 0.16758150
v -0.21602741 0.75140213 0.17588044
v -0.25644164 0.74149564 0.17905035
v -0.25588270 0.73158914 0.17588044
v -0.25441937 0.72546659 0.16758150
v -0.25261060 0.72546659 0.15732344
v -0.25114727 0.73158914 0.14902450
v -0.25058833 0.74149564 0.14585459
v -0.25114727 0.75140213 0.14902450
v -0.25261060 0.75752468 0.15732344
v -0.25441937 0.75752468 0.16758150
v -0.25588270 0.75140213 0.17588044
v -0.29494382 0.74149564 0.16503670
v -0.29333441 0.73158914 0.16224913
v -0.28912093 0.72546659 0.15495116
v -0.28391278 0.72546659 0.14593038
v -0.27969929 0.73158914 0.13863241
v -0.27808989 0.74149564 0.13584484
v -0.27969929 0.75140213 0.13863241
v -0.28391278 0.75752468 0.14593038
v -0.28912093 0.75752468 0.15495116
v -0.29333441 0.75140213 0.16224913
v -0.32633109 0.74149564 0.13869966
v -0.32386533 0.73158914 0.13663065
v -0.31740990 0.72546659 0.13121390
v -0.30943055 0.72546659 0.12451843
v -0.30297512 0.73158914 0.11910168
v -0.30050936 0.74149564 0.11703266
v -0.30297512 0.75140213 0.11910168
v -0.30943055 0.75752468 0.12451843
v -0.31740990 0.75752468 0.13121390
v -0.32386533 0.75140213 0.13663065
v -0.34681767 0.74149564 0.10321586
v -0.34379297 0.73158914 0.10211496
v -0.33587421 0.72546659 0.09923277
v -0.32608609 0.72546659 0.09567018
v -0.31816733 0.73158914 0.09278799
v -0.31514264 0.74149564 0.09168709
v -0.31816733 0.75140213 0.09278799
v -0.32608609 0.75752468 0.09567018
v -0.33587421 0.75752468 0.09923277
v -0.34379297 0.75140213 0.10211496
v -0.35393258 0.74149564 0.06286517
v -0.35071377 0.73158914 0.06286517
v -0.34228680 0.72546659 0.06286517
v -0.33187050 0.72546659 0.06286517
v -0.32344353 0.73158914 0.06286517
v -0.32022472 0.74149564 0.06286517
v -0.32344353 0.75140213 0.06286517
v -0.33187050 0.75752468 0.06286517
v -0.34228680 0.75752468 0.06286517
v -0.35071377 0.75140213 0.06286517
v -0.34681767 0.74149564 0.02251448
v -0.34379297 0.73158914 0.02361538
v -0.33587421 0.72546659 0.02649757
v -0.32608609 0.72546659 0.03006015
v -0.31816733 0.73158914 0.03294235
v -0.31514264 0.74149564 0.03404325
v -0.31816733 0.75140213 0.03294235
v -0.32608609 0.75752468 0.03006015
v -0.33587421 0.75752468 0.02649757
v -0.34379297 0.75140213 0.02361538
v -0.32633109 0.74149564 -0.01296932
v -0.32386533 0.73158914 -0.01090031
v -0.31740990 0.72546659 -0.00548356
v -0.30943055 0.72546659 0.00121191
v -0.30297512 0.73158914 0.00662866
v -0.30050936 0.74149564 0.00869767
v -0.30297512 0.75140213 0.00662866
v -0.30943055 0.75752468 0.00121191
v -0.31740990 0.75752468 -0.00548356
v -0.32386533 0.75140213 -0.01090031
v -0.29494382 0.74149564 -0.03930637
v -0.29333441 0.73158914 -0.03651879
v -0.28912093 0.72546659 -0.02922083
v -0.28391278 0.72546659 -0.02020004
v -0.27969929 0.73158914 -0.01290208
v -0.27808989 0.74149564 -0.01011450
v -0.27969929 0.75140213 -0.01290208
v -0.28391278 0.75752468 -0.02020004
v -0.28912093 0.75752468 -0.02922083
v -0.29333441 0.75140213 -0.03651879
v -0.25644164 0.74149564 -0.05332002
v -0.25588270 0.73158914 -0.05015010
v -0.25441937 0.72546659 -0.04185116
v -0.25261060 0.72546659 -0.03159310
v -0.25114727 0.73158914 -0.02329416
v -0.25058833 0.74149564 -0.02012425
v -0.25114727 0.75140213 -0.02329416
v -0.25261060 0.75752468 -0.03159310
v -0.25441937 0.75752468 -0.04185116
v -0.25588270 0.75140213 -0.05015010
v -0.21546847 0.74149564 -0.05332002
v -0.21602741 0.73158914 -0.05015010
v -0.21749074 0.72546659 -0.04185116
v -0.21929951 0.72546659 -0.03159310
v -0.22076284 0.73158914 -0.02329416
v -0.22132178 0.74149564 -0.02012425
v -0.22076284 0.75140213 -0.02329416
v -0.21929951 0.75752468 -0.03159310
v -0.21749074 0.75752468 -0.04185116
v -0.21602741 0.75140213 -0.05015010
v -0.17696629 0.74149564 -0.03930637
v -0.17857570 0.73158914 -0.03651879
v -0.18278918 0.72546659 -0.02922083
v -0.18799733 0.72546659 -0.02020004
v -0.19221082 0.73158914 -0.01290208
v -0.19382022 0.74149564 -0.01011450
v -0.19221082 0.75140213 -0.01290208
v -0.18799733 0.75752468 -0.02020004
v -0.18278918 0.75752468 -0.02922083
v -0.17857570 0.75140213 -0.03651879
v -0.14557903 0.74149564 -0.01296932
v -0.14804478 0.73158914 -0.01090031
v -0.15450021 0.72546659 -0.00548356
v -0.16247956 0.72546659 0.00121191
v -0.16893499 0.73158914 0.00662866
v -0.17140075 0.74149564 0.00869767
v -0.16893499 0.75140213 0.00662866
v -0.16247956 0.75752468 0.00121191
v -0.15450021 0.75752468 -0.00548356
v -0.14804478 0.75140213 -0.01090031
v -0.12509244 0.74149564 0.02251448
v -0.12811714 0.73158914 0.02361538
v -0.13603590 0.72546659 0.02649757
v -0.14582402 0.72546659 0.03006015
v -0.15374278 0.73158914 0.03294235
v -0.15676748 0.74149564 0.03404325
v -0.15374278 0.75140213 0.03294235
v -0.14582402 0.75752468 0.03006015
v -0.13603590 0.75752468 0.02649757
v -0.12811714 0.75140213 0.02361538
v 0.18783099 0.80672268 -0.10567416
v 0.31778699 0.80672268 -0.10567416
v 0.18783099 0.65379669 -0.10567416
v 0.31778699 0.65379669 -0.10567416
v 0.25280899 0.68300295 -0.06744266
v 0.25280899 0.77751641 -0.06744266
v 0.25280899 0.68300295 -0.14390565
v 0.25280899 0.77751641 -0.14390565
v 0.35794561 0.73025968 -0.12930252
v 0.35794561 0.73025968 -0.08204579
v 0.14767237 0.73025968 -0.12930252
v 0.14767237 0.73025968 -0.08204579
v 0.25280899 0.82014732 -0.10567416
v 0.25280899 0.64037204 -0.10567416
v 0.21461588 0.65753905 -0.08320225
v 0.29100210 0.65753905 -0.08320225
v 0.21461588 0.80298031 -0.08320225
v 0.29100210 0.80298031 -0.08320225
v 0.25280899 0.73025968 -0.06073034
v 0.21461588 0.65753905 -0.12814607
v 0.29100210 0.65753905 -0.12814607
v 0.21461588 0.80298031 -0.12814607
v 0.29100210 0.80298031 -0.12814607
v 0.25280899 0.73025968 -0.15061798
v 0.35279985 0.77520350 -0.11956256
v 0.35279985 0.68531586 -0.11956256
v 0.31460674 0.70248287 -0.14203447
v 0.31460674 0.75803649 -0.14203447
v 0.35279985 0.77520350 -0.09178575
v 0.35279985 0.68531586 -0.09178575
v 0.31460674 0.70248287 -0.06931384
v 0.31460674 0.75803649 -0.06931384
v 0.37640449 0.73025968 -0.10567416
v 0.15281812 0.77520350 -0.11956256
v 0.15281812 0.68531586 -0.11956256
v 0.19101124 0.70248287 -0.14203447
v 0.19101124 0.75803649 -0.14203447
v 0.15281812 0.77520350 -0.09178575
v 0.15281812 0.68531586 -0.09178575
v 0.19101124 0.70248287 -0.06931384
v 0.19101124 0.75803649 -0.06931384
v 0.12921348 0.73025968 -0.10567416
v 0.04494382 0.78643946 0.00106742
v 0.05894711 0.75137976 0.01792135
v 0.03094053 0.75137976 0.01792135
v 0.04494382 0.78643946 0.03477528
v 0.04494382 0.66958552 0.00106742
v 0.04494382 0.66958552 0.03477528
v 0.04494382 0.78643946 0.00106742
v 0.08261483 0.78892333 0.01792135
v 0.07396032 0.76228749 0.01792135
v 0.04494382 0.78643946 0.03477528
v 0.15607851 0.75032961 0.00106742
v 0.15607851 0.75032961 0.03477528
v 0.04494382 0.78643946 0.00106742
v 0.05422249 0.82303428 0.01792135
v 0.07688029 0.80657242 0.01792135
v 0.04494382 0.78643946 0.03477528
v 0.11362884 0.88097627 0.00106742
v 0.11362884 0.88097627 0.03477528
v 0.04494382 0.78643946 0.00106742
v 0.01300735 0.80657242 0.01792135
v 0.03566515 0.82303428 0.01792135
v 0.04494382 0.78643946 0.03477528
v -0.02374120 0.88097627 0.00106742
v -0.02374120 0.88097627 0.03477528
v 0.04494382 0.78643946 0.00106742
v 0.01592732 0.76228749 0.01792135
v 0.00727281 0.78892333 0.01792135
v 0.04494382 0.78643946 0.03477528
v -0.06619087 0.75032961 0.00106742
v -0.06619087 0.75032961 0.03477528
v -0.03370787 0.78643946 -0.15061798
v -0.03370787 0.78643946 -0.19556180
v 0.06741573 0.78643946 -0.15061798
v -0.03370787 0.81285677 -0.18697829
v -0.03370787 0.82918357 -0.16450638
v -0.03370787 0.82918357 -0.13672957
v -0.03370787 0.81285677 -0.11425766
v -0.03370787 0.78643946 -0.10567416
v -0.03370787 0.76002214 -0.11425766
v -0.03370787 0.74369534 -0.13672957
v -0.03370787 0.74369534 -0.16450638
v -0.03370787 0.76002214 -0.18697829
f 2 4 1
f 5 2 1
f 1 4 3
f 3 5 1
f 2 8 4
f 6 2 5
f 6 8 2
f 4 8 3
f 7 5 3
f 3 8 7
f 7 6 5
f 8 6 7
f 10 12 9
f 13 10 9
f 9 12 11
f 11 13 9
f 10 16 12
f 14 10 13
f 14 16 10
f 12 16 11
f 15 13 11
f 11 16 15
f 15 14 13
f 16 14 15
f 18 20 17
f 21 18 17
f 17 20 19
f 19 21 17
f 18 24 20
f 22 18 21
f 22 24 18
f 20 24 19
f 23 21 19
f 19 24 23
f 23 22 21
f 24 22 23
f 26 28 25
f 29 26 25
f 25 28 27
f 27 29 25
f 26 32 28
f 30 26 29
f 30 32 26
f 28 32 27
f 31 29 27
f 27 32 31
f 31 30 29
f 32 30 31
f 34 36 33
f 37 34 33
f 33 36 35
f 35 37 33
f 34 40 36
f 38 34 37
f 38 40 34
f 36 40 35
f 39 37 35
f 35 40 39
f 39 38 37
f 40 38 39
f 42 44 41
f 45 42 41
f 41 44 43
f 43 45 41
f 42 48 44
f 46 42 45
f 46 48 42
f 44 48 43
f 47 45 43
f 43 48 47
f 47 46 45
f 48 46 47
f 50 52 49
f 53 50 49
f 49 52 51
f 51 53 49
f 50 56 52
f 54 50 53
f 54 56 50
f 52 56 51
f 55 53 51
f 51 56 55
f 55 54 53
f 56 54 55
f 58 60 57
f 61 58 57
f 57 60 59
f 59 61 57
f 58 64 60
f 62 58 61
f 62 64 58
f 60 64 59
f 63 61 59
f 59 64 63
f 63 62 61
f 64 62 63
f 66 68 65
f 69 66 65
f 65 68 67
f 67 69 65
f 66 72 68
f 70 66 69
f 70 72 66
f 68 72 67
f 71 69 67
f 67 72 71
f 71 70 69
f 72 70 71
f 74 76 73
f 77 74 73
f 73 76 75
f 75 77 73
f 74 80 76
f 78 74 77
f 78 80 74
f 76 80 75
f 79 77 75
f 75 80 79
f 79 78 77
f 80 78 79
f 82 84 81
f 85 82 81
f 81 84 83
f 83 85 81
f 82 88 84
f 86 82 85
f 86 88 82
f 84 88 83
f 87 85 83
f 83 88 87
f 87 86 85
f 88 86 87
f 90 92 89
f 93 90 89
f 89 92 91
f 91 93 89
f 90 96 92
f 94 90 93
f 94 96 90
f 92 96 91
f 95 93 91
f 91 96 95
f 95 94 93
f 96 94 95
f 98 100 97
f 101 98 97
f 97 100 99
f 99 101 97
f 98 104 100
f 102 98 101
f 102 104 98
f 100 104 99
f 103 101 99
f 99 104 103
f 103 102 101
f 104 102 103
f 106 108 105
f 109 106 105
f 105 108 107
f 107 109 105
f 106 112 108
f 110 106 109
f 110 112 106
f 108 112 107
f 111 109 107
f 107 112 111
f 111 110 109
f 112 110 111
f 114 116 113
f 117 114 113
f 113 116 115
f 115 117 113
f 114 120 116
f 118 114 117
f 118 120 114
f 116 120 115
f 119 117 115
f 115 120 119
f 119 118 117
f 120 118 119
f 122 124 121
f 125 122 121
f 121 124 123
f 123 125 121
f 122 128 124
f 126 122 125
f 126 128 122
f 124 128 123
f 127 125 123
f 123 128 127
f 127 126 125
f 128 126 127
f 130 132 129
f 133 130 129
f 129 132 131
f 131 133 129
f 130 136 132
f 134 130 133
f 134 136 130
f 132 136 131
f 135 133 131
f 131 136 135
f 135 134 133
f 136 134 135
f 138 140 137
f 141 138 137
f 137 140 139
f 139 141 137
f 138 144 140
f 142 138 141
f 142 144 138
f 140 144 139
f 143 141 139
f 139 144 143
f 143 142 141
f 144 142 143
f 145 155 146
f 146 155 156
f 146 156 147
f 147 156 157
f 147 157 148
f 148 157 158
f 148 158 149
f 149 158 159
f 149 159 150
f 150 159 160
f 150 160 151
f 151 160 161
f 151 161 152
f 152 161 162
f 152 162 153
f 153 162 163
f 153 163 154
f 154 163 164
f 154 164 145
f 145 164 155
f 155 165 156
f 156 165 166
f 156 166 157
f 157 166 167
f 157 167 158
f 158 167 168
f 158 168 159
f 159 168 169
f 159 169 160
f 160 169 170
f 160 170 161
f 161 170 171
f 161 171 162
f 162 171 172
f 162 172 163
f 163 172 173
f 163 173 164
f 164 173 174
f 164 174 155
f 155 174 165
f 165 175 166
f 166 175 176
f 166 176 167
f 167 176 177
f 167 177 168
f 168 177 178
f 168 178 169
f 169 178 179
f 169 179 170
f 170 179 180
f 170 180 171
f 171 180 181
f 171 181 172
f 172 181 182
f 172 182 173
f 173 182 183
f 173 183 174
f 174 183 184
f 174 184 165
f 165 184 175
f 175 185 176
f 176 185 186
f 176 186 177
f 177 186 187
f 177 187 178
f 178 187 188
f 178 188 179
f 179 188 189
f 179 189 180
f 180 189 190
f 180 190 181
f 181 190 191
f 181 191 182
f 182 191 192
f 182 192 183
f 183 192 193
f 183 193 184
f 184 193 194
f 184 194 175
f 175 194 185
f 185 195 186
f 186 195 196
f 186 196 187
f 187 196 197
f 187 197 188
f 188 197 198
f 188 198 189
f 189 198 199
f 189 199 190
f 190 199 200
f 190 200 191
f 191 200 201
f 191 201 192
f 192 201 202
f 192 202 193
f 193 202 203
f 193 203 194
f 194 203 204
f 194 204 185
f 185 204 195
f 195 205 196
f 196 205 206
f 196 206 197
f 197 206 207
f 197 207 198
f 198 207 208
f 198 208 199
f 199 208 209
f 199 209 200
f 200 209 210
f 200 210 201
f 201 210 211
f 201 211 202
f 202 211 212
f 202 212 203
f 203 212 213
f 203 213 204
f 204 213 214
f 204 214 195
f 195 214 205
f 205 215 206
f 206 215 216
f 206 216 207
f 207 216 217
f 207 217 208
f 208 217 218
f 208 218 209
f 209 218 219
f 209 219 210
f 210 219 220
f 210 220 211
f 211 220 221
f 211 221 212
f 212 221 222
f 212 222 213
f 213 222 223
f 213 223 214
f 214 223 224
f 214 224 205
f 205 224 215
f 215 225 216
f 216 225 226
f 216 226 217
f 217 226 227
f 217 227 218
f 218 227 228
f 218 228 219
f 219 228 229
f 219 229 220
f 220 229 230
f 220 230 221
f 221 230 231
f 221 231 222
f 222 231 232
f 222 232 223
f 223 232 233
f 223 233 224
f 224 233 234
f 224 234 215
f 215 234 225
f 225 235 226
f 226 235 236
f 226 236 227
f 227 236 237
f 227 237 228
f 228 237 238
f 228 238 229
f 229 238 239
f 229 239 230
f 230 239 240
f 230 240 231
f 231 240 241
f 231 241 232
f 232 241 242
f 232 242 233
f 233 242 243
f 233 243 234
f 234 243 244
f 234 244 225
f 225 244 235
f 235 245 236
f 236 245 246
f 236 246 237
f 237 246 247
f 237 247 238
f 238 247 248
f 238 248 239
f 239 248 249
f 239 249 240
f 240 249 250
f 240 250 241
f 241 250 251
f 241 251 242
f 242 251 252
f 242 252 243
f 243 252 253
f 243 253 244
f 244 253 254
f 244 254 235
f 235 254 245
f 245 255 246
f 246 255 256
f 246 256 247
f 247 256 257
f 247 257 248
f 248 257 258
f 248 258 249
f 249 258 259
f 249 259 250
f 250 259 260
f 250 260 251
f 251 260 261
f 251 261 252
f 252 261 262
f 252 262 253
f 253 262 263
f 253 263 254
f 254 263 264
f 254 264 245
f 245 264 255
f 255 265 256
f 256 265 266
f 256 266 257
f 257 266 267
f 257 267 258
f 258 267 268
f 258 268 259
f 259 268 269
f 259 269 260
f 260 269 270
f 260 270 261
f 261 270 271
f 261 271 262
f 262 271 272
f 262 272 263
f 263 272 273
f 263 273 264
f 264 273 274
f 264 274 255
f 255 274 265
f 265 275 266
f 266 275 276
f 266 276 267
f 267 276 277
f 267 277 268
f 268 277 278
f 268 278 269
f 269 278 279
f 269 279 270
f 270 279 280
f 270 280 271
f 271 280 281
f 271 281 272
f 272 281 282
f 272 282 273
f 273 282 283
f 273 283 274
f 274 283 284
f 274 284 265
f 265 284 275
f 275 285 276
f 276 285 286
f 276 286 277
f 277 286 287
f 277 287 278
f 278 287 288
f 278 288 279
f 279 288 289
f 279 289 280
f 280 289 290
f 280 290 281
f 281 290 291
f 281 291 282
f 282 291 292
f 282 292 283
f 283 292 293
f 283 293 284
f 284 293 294
f 284 294 275
f 275 294 285
f 285 295 286
f 286 295 296
f 286 296 287
f 287 296 297
f 287 297 288
f 288 297 298
f 288 298 289
f 289 298 299
f 289 299 290
f 290 299 300
f 290 300 291
f 291 300 301
f 291 301 292
f 292 301 302
f 292 302 293
f 293 302 303
f 293 303 294
f 294 303 304
f 294 304 285
f 285 304 295
f 295 305 296
f 296 305 306
f 296 306 297
f 297 306 307
f 297 307 298
f 298 307 308
f 298 308 299
f 299 308 309
f 299 309 300
f 300 309 310
f 300 310 301
f 301 310 311
f 301 311 302
f 302 311 312
f 302 312 303
f 303 312 313
f 303 313 304
f 304 313 314
f 304 314 295
f 295 314 305
f 305 315 306
f 306 315 316
f 306 316 307
f 307 316 317
f 307 317 308
f 308 317 318
f 308 318 309
f 309 318 319
f 309 319 310
f 310 319 320
f 310 320 311
f 311 320 321
f 311 321 312
f 312 321 322
f 312 322 313
f 313 322 323
f 313 323 314
f 314 323 324
f 314 324 305
f 305 324 315
f 315 145 316
f 316 145 146
f 316 146 317
f 317 146 147
f 317 147 318
f 318 147 148
f 318 148 319
f 319 148 149
f 319 149 320
f 320 149 150
f 320 150 321
f 321 150 151
f 321 151 322
f 322 151 152
f 322 152 323
f 323 152 153
f 323 153 324
f 324 153 154
f 324 154 315
f 315 154 145
f 326 325 329
f 326 329 327
f 327 329 330
f 327 330 328
f 329 325 331
f 329 331 330
f 330 331 332
f 330 332 328
f 331 325 333
f 331 333 332
f 332 333 334
f 332 334 328
f 333 325 335
f 333 335 334
f 334 335 336
f 334 336 328
f 335 325 337
f 335 337 336
f 336 337 338
f 336 338 328
f 337 325 339
f 337 339 338
f 338 339 340
f 338 340 328
f 339 325 341
f 339 341 340
f 340 341 342
f 340 342 328
f 341 325 326
f 341 326 342
f 342 326 327
f 342 327 328
f 344 343 347
f 344 347 345
f 345 347 348
f 345 348 346
f 347 343 349
f 347 349 348
f 348 349 350
f 348 350 346
f 349 343 351
f 349 351 350
f 350 351 352
f 350 352 346
f 351 343 353
f 351 353 352
f 352 353 354
f 352 354 346
f 353 343 355
f 353 355 354
f 354 355 356
f 354 356 346
f 355 343 357
f 355 357 356
f 356 357 358
f 356 358 346
f 357 343 359
f 357 359 358
f 358 359 360
f 358 360 346
f 359 343 344
f 359 344 360
f 360 344 345
f 360 345 346
f 362 361 365
f 362 365 363
f 363 365 366
f 363 366 364
f 365 361 367
f 365 367 366
f 366 367 368
f 366 368 364
f 367 361 369
f 367 369 368
f 368 369 370
f 368 370 364
f 369 361 371
f 369 371 370
f 370 371 372
f 370 372 364
f 371 361 373
f 371 373 372
f 372 373 374
f 372 374 364
f 373 361 375
f 373 375 374
f 374 375 376
f 374 376 364
f 375 361 377
f 375 377 376
f 376 377 378
f 376 378 364
f 377 361 379
f 377 379 378
f 378 379 380
f 378 380 364
f 379 361 381
f 379 381 380
f 380 381 382
f 380 382 364
f 381 361 362
f 381 362 382
f 382 362 363
f 382 363 364
f 384 383 387
f 384 387 385
f 385 387 388
f 385 388 386
f 387 383 389
f 387 389 388
f 388 389 390
f 388 390 386
f 389 383 391
f 389 391 390
f 390 391 392
f 390 392 386
f 391 383 393
f 391 393 392
f 392 393 394
f 392 394 386
f 393 383 395
f 393 395 394
f 394 395 396
f 394 396 386
f 395 383 397
f 395 397 396
f 396 397 398
f 396 398 386
f 397 383 399
f 397 399 398
f 398 399 400
f 398 400 386
f 399 383 401
f 399 401 400
f 400 401 402
f 400 402 386
f 401 383 403
f 401 403 402
f 402 403 404
f 402 404 386
f 403 383 384
f 403 384 404
f 404 384 385
f 404 385 386
f 406 408 405
f 409 406 405
f 405 408 407
f 407 409 405
f 406 412 408
f 410 406 409
f 410 412 406
f 408 412 407
f 411 409 407
f 407 412 411
f 411 410 409
f 412 410 411
f 414 416 413
f 417 414 413
f 413 416 415
f 415 417 413
f 414 420 416
f 418 414 417
f 418 420 414
f 416 420 415
f 419 417 415
f 415 420 419
f 419 418 417
f 420 418 419
f 422 424 421
f 425 422 421
f 421 424 423
f 423 425 421
f 422 428 424
f 426 422 425
f 426 428 422
f 424 428 423
f 427 425 423
f 423 428 427
f 427 426 425
f 428 426 427
f 430 432 429
f 433 430 429
f 429 432 431
f 431 433 429
f 430 436 432
f 434 430 433
f 434 436 430
f 432 436 431
f 435 433 431
f 431 436 435
f 435 434 433
f 436 434 435
f 438 440 437
f 441 438 437
f 437 440 439
f 439 441 437
f 438 444 440
f 442 438 441
f 442 444 438
f 440 444 439
f 443 441 439
f 439 444 443
f 443 442 441
f 444 442 443
f 446 445 449
f 446 449 447
f 447 449 450
f 447 450 448
f 449 445 451
f 449 451 450
f 450 451 452
f 450 452 448
f 451 445 453
f 451 453 452
f 452 453 454
f 452 454 448
f 453 445 455
f 453 455 454
f 454 455 456
f 454 456 448
f 455 445 457
f 455 457 456
f 456 457 458
f 456 458 448
f 457 445 459
f 457 459 458
f 458 459 460
f 458 460 448
f 459 445 461
f 459 461 460
f 460 461 462
f 460 462 448
f 461 445 463
f 461 463 462
f 462 463 464
f 462 464 448
f 463 445 465
f 463 465 464
f 464 465 466
f 464 466 448
f 465 445 467
f 465 467 466
f 466 467 468
f 466 468 448
f 467 445 469
f 467 469 468
f 468 469 470
f 468 470 448
f 469 445 471
f 469 471 470
f 470 471 472
f 470 472 448
f 471 445 473
f 471 473 472
f 472 473 474
f 472 474 448
f 473 445 475
f 473 475 474
f 474 475 476
f 474 476 448
f 475 445 477
f 475 477 476
f 476 477 478
f 476 478 448
f 477 445 479
f 477 479 478
f 478 479 480
f 478 480 448
f 479 445 481
f 479 481 480
f 480 481 482
f 480 482 448
f 481 445 483
f 481 483 482
f 482 483 484
f 482 484 448
f 483 445 485
f 483 485 484
f 484 485 486
f 484 486 448
f 485 445 446
f 485 446 486
f 486 446 447
f 486 447 448
f 488 487 491
f 488 491 489
f 489 491 492
f 489 492 490
f 491 487 493
f 491 493 492
f 492 493 494
f 492 494 490
f 493 487 495
f 493 495 494
f 494 495 496
f 494 496 490
f 495 487 497
f 495 497 496
f 496 497 498
f 496 498 490
f 497 487 499
f 497 499 498
f 498 499 500
f 498 500 490
f 499 487 501
f 499 501 500
f 500 501 502
f 500 502 490
f 501 487 503
f 501 503 502
f 502 503 504
f 502 504 490
f 503 487 505
f 503 505 504
f 504 505 506
f 504 506 490
f 505 487 507
f 505 507 506
f 506 507 508
f 506 508 490
f 507 487 509
f 507 509 508
f 508 509 510
f 508 510 490
f 509 487 511
f 509 511 510
f 510 511 512
f 510 512 490
f 511 487 513
f 511 513 512
f 512 513 514
f 512 514 490
f 513 487 515
f 513 515 514
f 514 515 516
f 514 516 490
f 515 487 517
f 515 517 516
f 516 517 518
f 516 518 490
f 517 487 519
f 517 519 518
f 518 519 520
f 518 520 490
f 519 487 521
f 519 521 520
f 520 521 522
f 520 522 490
f 521 487 523
f 521 523 522
f 522 523 524
f 522 524 490
f 523 487 525
f 523 525 524
f 524 525 526
f 524 526 490
f 525 487 527
f 525 527 526
f 526 527 528
f 526 528 490
f 527 487 488
f 527 488 528
f 528 488 489
f 528 489 490
f 530 532 529
f 533 530 529
f 529 532 531
f 531 533 529
f 530 536 532
f 534 530 533
f 534 536 530
f 532 536 531
f 535 533 531
f 531 536 535
f 535 534 533
f 536 534 535
f 538 540 537
f 541 538 537
f 537 540 539
f 539 541 537
f 538 544 540
f 542 538 541
f 542 544 538
f 540 544 539
f 543 541 539
f 539 544 543
f 543 542 541
f 544 542 543
f 546 548 545
f 549 546 545
f 545 548 547
f 547 549 545
f 546 552 548
f 550 546 549
f 550 552 546
f 548 552 547
f 551 549 547
f 547 552 551
f 551 550 549
f 552 550 551
f 554 556 553
f 557 554 553
f 553 556 555
f 555 557 553
f 554 560 556
f 558 554 557
f 558 560 554
f 556 560 555
f 559 557 555
f 555 560 559
f 559 558 557
f 560 558 559
f 562 564 561
f 565 562 561
f 561 564 563
f 563 565 561
f 562 568 564
f 566 562 565
f 566 568 562
f 564 568 563
f 567 565 563
f 563 568 567
f 567 566 565
f 568 566 567
f 569 579 570
f 570 579 580
f 570 580 571
f 571 580 581
f 571 581 572
f 572 581 582
f 572 582 573
f 573 582 583
f 573 583 574
f 574 583 584
f 574 584 575
f 575 584 585
f 575 585 576
f 576 585 586
f 576 586 577
f 577 586 587
f 577 587 578
f 578 587 588
f 578 588 569
f 569 588 579
f 579 589 580
f 580 589 590
f 580 590 581
f 581 590 591
f 581 591 582
f 582 591 592
f 582 592 583
f 583 592 593
f 583 593 584
f 584 593 594
f 584 594 585
f 585 594 595
f 585 595 586
f 586 595 596
f 586 596 587
f 587 596 597
f 587 597 588
f 588 597 598
f 588 598 579
f 579 598 589
f 589 599 590
f 590 599 600
f 590 600 591
f 591 600 601
f 591 601 592
f 592 601 602
f 592 602 593
f 593 602 603
f 593 603 594
f 594 603 604
f 594 604 595
f 595 604 605
f 595 605 596
f 596 605 606
f 596 606 597
f 597 606 607
f 597 607 598
f 598 607 608
f 598 608 589
f 589 608 599
f 599 609 600
f 600 609 610
f 600 610 601
f 601 610 611
f 601 611 602
f 602 611 612
f 602 612 603
f 603 612 613
f 603 613 604
f 604 613 614
f 604 614 605
f 605 614 615
f 605 615 606
f 606 615 616
f 606 616 607
f 607 616 617
f 607 617 608
f 608 617 618
f 608 618 599
f 599 618 609
f 609 619 610
f 610 619 620
f 610 620 611
f 611 620 621
f 611 621 612
f 612 621 622
f 612 622 613
f 613 622 623
f 613 623 614
f 614 623 624
f 614 624 615
f 615 624 625
f 615 625 616
f 616 625 626
f 616 626 617
f 617 626 627
f 617 627 618
f 618 627 628
f 618 628 609
f 609 628 619
f 619 629 620
f 620 629 630
f 620 630 621
f 621 630 631
f 621 631 622
f 622 631 632
f 622 632 623
f 623 632 633
f 623 633 624
f 624 633 634
f 624 634 625
f 625 634 635
f 625 635 626
f 626 635 636
f 626 636 627
f 627 636 637
f 627 637 628
f 628 637 638
f 628 638 619
f 619 638 629
f 629 639 630
f 630 639 640
f 630 640 631
f 631 640 641
f 631 641 632
f 632 641 642
f 632 642 633
f 633 642 643
f 633 643 634
f 634 643 644
f 634 644 635
f 635 644 645
f 635 645 636
f 636 645 646
f 636 646 637
f 637 646 647
f 637 647 638
f 638 647 648
f 638 648 629
f 629 648 639
f 639 649 640
f 640 649 650
f 640 650 641
f 641 650 651
f 641 651 642
f 642 651 652
f 642 652 643
f 643 652 653
f 643 653 644
f 644 653 654
f 644 654 645
f 645 654 655
f 645 655 646
f 646 655 656
f 646 656 647
f 647 656 657
f 647 657 648
f 648 657 658
f 648 658 639
f 639 658 649
f 649 659 650
f 650 659 660
f 650 660 651
f 651 660 661
f 651 661 652
f 652 661 662
f 652 662 653
f 653 662 663
f 653 663 654
f 654 663 664
f 654 664 655
f 655 664 665
f 655 665 656
f 656 665 666
f 656 666 657
f 657 666 667
f 657 667 658
f 658 667 668
f 658 668 649
f 649 668 659
f 659 669 660
f 660 669 670
f 660 670 661
f 661 670 671
f 661 671 662
f 662 671 672
f 662 672 663
f 663 672 673
f 663 673 664
f 664 673 674
f 664 674 665
f 665 674 675
f 665 675 666
f 666 675 676
f 666 676 667
f 667 676 677
f 667 677 668
f 668 677 678
f 668 678 659
f 659 678 669
f 669 679 670
f 670 679 680
f 670 680 671
f 671 680 681
f 671 681 672
f 672 681 682
f 672 682 673
f 673 682 683
f 673 683 674
f 674 683 684
f 674 684 675
f 675 684 685
f 675 685 676
f 676 685 686
f 676 686 677
f 677 686 687
f 677 687 678
f 678 687 688
f 678 688 669
f 669 688 679
f 679 689 680
f 680 689 690
f 680 690 681
f 681 690 691
f 681 691 682
f 682 691 692
f 682 692 683
f 683 692 693
f 683 693 684
f 684 693 694
f 684 694 685
f 685 694 695
f 685 695 686
f 686 695 696
f 686 696 687
f 687 696 697
f 687 697 688
f 688 697 698
f 688 698 679
f 679 698 689
f 689 699 690
f 690 699 700
f 690 700 691
f 691 700 701
f 691 701 692
f 692 701 702
f 692 702 693
f 693 702 703
f 693 703 694
f 694 703 704
f 694 704 695
f 695 704 705
f 695 705 696
f 696 705 706
f 696 706 697
f 697 706 707
f 697 707 698
f 698 707 708
f 698 708 689
f 689 708 699
f 699 709 700
f 700 709 710
f 700 710 701
f 701 710 711
f 701 711 702
f 702 711 712
f 702 712 703
f 703 712 713
f 703 713 704
f 704 713 714
f 704 714 705
f 705 714 715
f 705 715 706
f 706 715 716
f 706 716 707
f 707 716 717
f 707 717 708
f 708 717 718
f 708 718 699
f 699 718 709
f 709 719 710
f 710 719 720
f 710 720 711
f 711 720 721
f 711 721 712
f 712 721 722
f 712 722 713
f 713 722 723
f 713 723 714
f 714 723 724
f 714 724 715
f 715 724 725
f 715 725 716
f 716 725 726
f 716 726 717
f 717 726 727
f 717 727 718
f 718 727 728
f 718 728 709
f 709 728 719
f 719 729 720
f 720 729 730
f 720 730 721
f 721 730 731
f 721 731 722
f 722 731 732
f 722 732 723
f 723 732 733
f 723 733 724
f 724 733 734
f 724 734 725
f 725 734 735
f 725 735 726
f 726 735 736
f 726 736 727
f 727 736 737
f 727 737 728
f 728 737 738
f 728 738 719
f 719 738 729
f 729 739 730
f 730 739 740
f 730 740 731
f 731 740 741
f 731 741 732
f 732 741 742
f 732 742 733
f 733 742 743
f 733 743 734
f 734 743 744
f 734 744 735
f 735 744 745
f 735 745 736
f 736 745 746
f 736 746 737
f 737 746 747
f 737 747 738
f 738 747 748
f 738 748 729
f 729 748 739
f 739 569 740
f 740 569 570
f 740 570 741
f 741 570 571
f 741 571 742
f 742 571 572
f 742 572 743
f 743 572 573
f 743 573 744
f 744 573 574
f 744 574 745
f 745 574 575
f 745 575 746
f 746 575 576
f 746 576 747
f 747 576 577
f 747 577 748
f 748 577 578
f 748 578 739
f 739 578 569
f 749 786 765
f 786 760 789
f 765 789 754
f 786 789 765
f 749 765 761
f 765 754 766
f 761 766 750
f 765 766 761
f 749 761 770
f 761 750 771
f 770 771 756
f 761 771 770
f 749 770 782
f 770 756 785
f 782 785 759
f 770 785 782
f 749 782 786
f 782 759 790
f 786 790 760
f 782 790 786
f 750 766 777
f 766 754 780
f 777 780 758
f 766 780 777
f 754 789 767
f 789 760 788
f 767 788 753
f 789 788 767
f 760 790 787
f 790 759 783
f 787 783 751
f 790 783 787
f 759 785 784
f 785 756 772
f 784 772 755
f 785 772 784
f 756 771 776
f 771 750 773
f 776 773 757
f 771 773 776
f 752 778 764
f 778 758 779
f 764 779 753
f 778 779 764
f 752 764 762
f 764 753 763
f 762 763 751
f 764 763 762
f 752 762 769
f 762 751 768
f 769 768 755
f 762 768 769
f 752 769 774
f 769 755 775
f 774 775 757
f 769 775 774
f 752 774 778
f 774 757 781
f 778 781 758
f 774 781 778
f 753 779 767
f 779 758 780
f 767 780 754
f 779 780 767
f 751 763 787
f 763 753 788
f 787 788 760
f 763 788 787
f 755 768 784
f 768 751 783
f 784 783 759
f 768 783 784
f 757 775 776
f 775 755 772
f 776 772 756
f 775 772 776
f 758 781 777
f 781 757 773
f 777 773 750
f 781 773 777
f 791 792 793
f 794 796 795
f 791 794 792
f 792 794 796
f 792 796 793
f 793 796 795
f 793 795 791
f 791 795 794
f 797 798 799
f 800 802 801
f 797 800 798
f 798 800 802
f 798 802 799
f 799 802 801
f 799 801 797
f 797 801 800
f 803 804 805
f 806 808 807
f 803 806 804
f 804 806 808
f 804 808 805
f 805 808 807
f 805 807 803
f 803 807 806
f 809 810 811
f 812 814 813
f 809 812 810
f 810 812 814
f 810 814 811
f 811 814 813
f 811 813 809
f 809 813 812
f 815 816 817
f 818 820 819
f 815 818 816
f 816 818 820
f 816 820 817
f 817 820 819
f 817 819 815
f 815 819 818
f 822 821 824
f 822 824 823
f 824 821 825
f 824 825 823
f 825 821 826
f 825 826 823
f 826 821 827
f 826 827 823
f 827 821 828
f 827 828 823
f 828 821 829
f 828 829 823
f 829 821 830
f 829 830 823
f 830 821 831
f 830 831 823
f 831 821 832
f 831 832 823
f 832 821 822
f 832 822 823

