# https://github.com/mikedh/trimesh
v -1.00000000 0.00000000 0.00000000
v -0.99221064 0.00713526 -0.17968977
v -0.79221064 2.30713526 -0.07968977
v -0.80000000 2.30000000 0.10000000
v -1.12117403 0.01628058 -0.13210525
v -0.92117403 2.31628058 -0.03210525
v -1.17915532 0.01588895 -0.00713526
v -0.97915532 2.31588895 0.09286474
v -1.13218985 0.00618979 0.12201446
v -0.93218985 2.30618979 0.22201446
v -1.00778936 -0.00713526 0.17968977
v -0.80778936 2.29286474 0.27968977
v -0.87882597 -0.01628058 0.13210525
v -0.67882597 2.28371942 0.23210525
v -0.82084468 -0.01588895 0.00713526
v -0.62084468 2.28411105 0.10713526
v -0.86781015 -0.00618979 -0.12201446
v -0.66781015 2.29381021 -0.02201446
v -0.94720471 2.53818223 0.10000000
v -0.65279529 2.53818223 0.10000000
v -0.94720471 2.06181777 0.10000000
v -0.65279529 2.06181777 0.10000000
v -0.80000000 2.15279529 0.33818223
v -0.80000000 2.44720471 0.33818223
v -0.80000000 2.15279529 -0.13818223
v -0.80000000 2.44720471 -0.13818223
v -0.56181777 2.30000000 -0.04720471
v -0.56181777 2.30000000 0.24720471
v -1.03818223 2.30000000 -0.04720471
v -1.03818223 2.30000000 0.24720471
v -0.80000000 2.58000000 0.10000000
v -0.80000000 2.02000000 0.10000000
v -0.88652476 2.07347524 0.24000000
v -0.71347524 2.07347524 0.24000000
v -0.88652476 2.52652476 0.24000000
v -0.71347524 2.52652476 0.24000000
v -0.80000000 2.30000000 0.38000000
v -0.88652476 2.07347524 -0.04000000
v -0.71347524 2.07347524 -0.04000000
v -0.88652476 2.52652476 -0.04000000
v -0.71347524 2.52652476 -0.04000000
v -0.80000000 2.30000000 -0.18000000
v -0.57347524 2.44000000 0.01347524
v -0.57347524 2.16000000 0.01347524
v -0.66000000 2.21347524 -0.12652476
v -0.66000000 2.38652476 -0.12652476
v -0.57347524 2.44000000 0.18652476
v -0.57347524 2.16000000 0.18652476
v -0.66000000 2.21347524 0.32652476
v -0.66000000 2.38652476 0.32652476
v -0.52000000 2.30000000 0.10000000
v -1.02652476 2.44000000 0.01347524
v -1.02652476 2.16000000 0.01347524
v -0.94000000 2.21347524 -0.12652476
v -0.94000000 2.38652476 -0.12652476
v -1.02652476 2.44000000 0.18652476
v -1.02652476 2.16000000 0.18652476
v -0.94000000 2.21347524 0.32652476
v -0.94000000 2.38652476 0.32652476
v -1.08000000 2.30000000 0.10000000
v 0.00000000 0.00000000 0.00000000
v 0.00000000 0.00000000 -0.18000000
v 0.00000000 3.20000000 -0.18000000
v 0.00000000 3.20000000 0.00000000
v -0.12727922 0.00000000 -0.12727922
v -0.12727922 3.20000000 -0.12727922
v -0.18000000 0.00000000 -0.00000000
v -0.18000000 3.20000000 -0.00000000
v -0.12727922 0.00000000 0.12727922
v -0.12727922 3.20000000 0.12727922
v -0.00000000 0.00000000 0.18000000
v -0.00000000 3.20000000 0.18000000
v 0.12727922 0.00000000 0.12727922
v 0.12727922 3.20000000 0.12727922
v 0.18000000 0.00000000 0.00000000
v 0.18000000 3.20000000 0.00000000
v 0.12727922 0.00000000 -0.12727922
v 0.12727922 3.20000000 -0.12727922
v -0.14720471 3.43818223 0.00000000
v 0.14720471 3.43818223 0.00000000
v -0.14720471 2.96181777 0.00000000
v 0.14720471 2.96181777 0.00000000
v 0.00000000 3.05279529 0.23818223
v 0.00000000 3.34720471 0.23818223
v 0.00000000 3.05279529 -0.23818223
v 0.00000000 3.34720471 -0.23818223
v 0.23818223 3.20000000 -0.14720471
v 0.23818223 3.20000000 0.14720471
v -0.23818223 3.20000000 -0.14720471
v -0.23818223 3.20000000 0.14720471
v 0.00000000 3.48000000 0.00000000
v 0.00000000 2.92000000 0.00000000
v -0.08652476 2.97347524 0.14000000
v 0.08652476 2.97347524 0.14000000
v -0.08652476 3.42652476 0.14000000
v 0.08652476 3.42652476 0.14000000
v 0.00000000 3.20000000 0.28000000
v -0.08652476 2.97347524 -0.14000000
v 0.08652476 2.97347524 -0.14000000
v -0.08652476 3.42652476 -0.14000000
v 0.08652476 3.42652476 -0.14000000
v 0.00000000 3.20000000 -0.28000000
v 0.22652476 3.34000000 -0.08652476
v 0.22652476 3.06000000 -0.08652476
v 0.14000000 3.11347524 -0.22652476
v 0.14000000 3.28652476 -0.22652476
v 0.22652476 3.34000000 0.08652476
v 0.22652476 3.06000000 0.08652476
v 0.14000000 3.11347524 0.22652476
v 0.14000000 3.28652476 0.22652476
v 0.28000000 3.20000000 0.00000000
v -0.22652476 3.34000000 -0.08652476
v -0.22652476 3.06000000 -0.08652476
v -0.14000000 3.11347524 -0.22652476
v -0.14000000 3.28652476 -0.22652476
v -0.22652476 3.34000000 0.08652476
v -0.22652476 3.06000000 0.08652476
v -0.14000000 3.11347524 0.22652476
v -0.14000000 3.28652476 0.22652476
v -0.28000000 3.20000000 0.00000000
v 0.90000000 -0.00000000 0.20000000
v 0.91434274 0.01373836 0.02109907
v 1.01434274 2.51373836 0.22109907
v 1.00000000 2.50000000 0.40000000
v 0.78336871 0.01556258 0.06378345
v 0.88336871 2.51556258 0.26378345
v 0.72071571 0.00827044 0.18626164
v 0.82071571 2.50827044 0.38626164
v 0.76308501 -0.00386641 0.31678757
v 0.86308501 2.49613359 0.51678757
v 0.88565726 -0.01373836 0.37890093
v 0.98565726 2.48626164 0.57890093
v 1.01663129 -0.01556258 0.33621655
v 1.11663129 2.48443742 0.53621655
v 1.07928429 -0.00827044 0.21373836
v 1.17928429 2.49172956 0.41373836
v 1.03691499 0.00386641 0.08321243
v 1.13691499 2.50386641 0.28321243
v 0.85279529 2.73818223 0.40000000
v 1.14720471 2.73818223 0.40000000
v 0.85279529 2.26181777 0.40000000
v 1.14720471 2.26181777 0.40000000
v 1.00000000 2.35279529 0.63818223
v 1.00000000 2.64720471 0.63818223
v 1.00000000 2.35279529 0.16181777
v 1.00000000 2.64720471 0.16181777
v 1.23818223 2.50000000 0.25279529
v 1.23818223 2.50000000 0.54720471
v 0.76181777 2.50000000 0.25279529
v 0.76181777 2.50000000 0.54720471
v 1.00000000 2.78000000 0.40000000
v 1.00000000 2.22000000 0.40000000
v 0.91347524 2.27347524 0.54000000
v 1.08652476 2.27347524 0.54000000
v 0.91347524 2.72652476 0.54000000
v 1.08652476 2.72652476 0.54000000
v 1.00000000 2.50000000 0.68000000
v 0.91347524 2.27347524 0.26000000
v 1.08652476 2.27347524 0.26000000
v 0.91347524 2.72652476 0.26000000
v 1.08652476 2.72652476 0.26000000
v 1.00000000 2.50000000 0.12000000
v 1.22652476 2.64000000 0.31347524
v 1.22652476 2.36000000 0.31347524
v 1.14000000 2.41347524 0.17347524
v 1.14000000 2.58652476 0.17347524
v 1.22652476 2.64000000 0.48652476
v 1.22652476 2.36000000 0.48652476
v 1.14000000 2.41347524 0.62652476
v 1.14000000 2.58652476 0.62652476
v 1.28000000 2.50000000 0.40000000
v 0.77347524 2.64000000 0.31347524
v 0.77347524 2.36000000 0.31347524
v 0.86000000 2.41347524 0.17347524
v 0.86000000 2.58652476 0.17347524
v 0.77347524 2.64000000 0.48652476
v 0.77347524 2.36000000 0.48652476
v 0.86000000 2.41347524 0.62652476
v 0.86000000 2.58652476 0.62652476
v 0.72000000 2.50000000 0.40000000
v 0.00000000 1.30000000 0.00000000
v 0.02508239 1.29109596 0.17802132
v -1.07491761 2.19109596 0.37802132
v -1.10000000 2.20000000 0.20000000
v 0.09754760 1.39265063 0.11958398
v -1.00245240 2.29265063 0.31958398
v 0.11287075 1.43993181 -0.00890404
v -0.98712925 2.33993181 0.19109596
v 0.06207574 1.40524284 -0.13217619
v -1.03792426 2.30524284 0.06782381
v -0.02508239 1.30890404 -0.17802132
v -1.12508239 2.20890404 0.02197868
v -0.09754760 1.20734937 -0.11958398
v -1.19754760 2.10734937 0.08041602
v -0.11287075 1.16006819 0.00890404
v -1.21287075 2.06006819 0.20890404
v -0.06207574 1.19475716 0.13217619
v -1.16207574 2.09475716 0.33217619
v -1.24720471 2.43818223 0.20000000
v -0.95279529 2.43818223 0.20000000
v -1.24720471 1.96181777 0.20000000
v -0.95279529 1.96181777 0.20000000
v -1.10000000 2.05279529 0.43818223
v -1.10000000 2.34720471 0.43818223
v -1.10000000 2.05279529 -0.03818223
v -1.10000000 2.34720471 -0.03818223
v -0.86181777 2.20000000 0.05279529
v -0.86181777 2.20000000 0.34720471
v -1.33818223 2.20000000 0.05279529
v -1.33818223 2.20000000 0.34720471
v -1.10000000 2.48000000 0.20000000
v -1.10000000 1.92000000 0.20000000
v -1.18652476 1.97347524 0.34000000
v -1.01347524 1.97347524 0.34000000
v -1.18652476 2.42652476 0.34000000
v -1.01347524 2.42652476 0.34000000
v -1.10000000 2.20000000 0.48000000
v -1.18652476 1.97347524 0.06000000
v -1.01347524 1.97347524 0.06000000
v -1.18652476 2.42652476 0.06000000
v -1.01347524 2.42652476 0.06000000
v -1.10000000 2.20000000 -0.08000000
v -0.87347524 2.34000000 0.11347524
v -0.87347524 2.06000000 0.11347524
v -0.96000000 2.11347524 -0.02652476
v -0.96000000 2.28652476 -0.02652476
v -0.87347524 2.34000000 0.28652476
v -0.87347524 2.06000000 0.28652476
v -0.96000000 2.11347524 0.42652476
v -0.96000000 2.28652476 0.42652476
v -0.82000000 2.20000000 0.20000000
v -1.32652476 2.34000000 0.11347524
v -1.32652476 2.06000000 0.11347524
v -1.24000000 2.11347524 -0.02652476
v -1.24000000 2.28652476 -0.02652476
v -1.32652476 2.34000000 0.28652476
v -1.32652476 2.06000000 0.28652476
v -1.24000000 2.11347524 0.42652476
v -1.24000000 2.28652476 0.42652476
v -1.38000000 2.20000000 0.20000000
v 0.20000000 1.70000000 0.00000000
v 0.17600000 1.69076923 -0.17815385
v 1.27600000 2.69076923 -0.37815385
v 1.30000000 2.70000000 -0.20000000
v 0.09817662 1.78811638 -0.11944665
v 1.19817662 2.78811638 -0.31944665
v 0.08000000 1.83384615 0.00923077
v 1.18000000 2.83384615 -0.19076923
v 0.13211775 1.80117066 0.13250093
v 1.23211775 2.80117066 -0.06749907
v 0.22400000 1.70923077 0.17815385
v 1.32400000 2.70923077 -0.02184615
v 0.30182338 1.61188362 0.11944665
v 1.40182338 2.61188362 -0.08055335
v 0.32000000 1.56615385 -0.00923077
v 1.42000000 2.56615385 -0.20923077
v 0.26788225 1.59882934 -0.13250093
v 1.36788225 2.59882934 -0.33250093
v 1.15279529 2.93818223 -0.20000000
v 1.44720471 2.93818223 -0.20000000
v 1.15279529 2.46181777 -0.20000000
v 1.44720471 2.46181777 -0.20000000
v 1.30000000 2.55279529 0.03818223
v 1.30000000 2.84720471 0.03818223
v 1.30000000 2.55279529 -0.43818223
v 1.30000000 2.84720471 -0.43818223
v 1.53818223 2.70000000 -0.34720471
v 1.53818223 2.70000000 -0.05279529
v 1.06181777 2.70000000 -0.34720471
v 1.06181777 2.70000000 -0.05279529
v 1.30000000 2.98000000 -0.20000000
v 1.30000000 2.42000000 -0.20000000
v 1.21347524 2.47347524 -0.06000000
v 1.38652476 2.47347524 -0.06000000
v 1.21347524 2.92652476 -0.06000000
v 1.38652476 2.92652476 -0.06000000
v 1.30000000 2.70000000 0.08000000
v 1.21347524 2.47347524 -0.34000000
v 1.38652476 2.47347524 -0.34000000
v 1.21347524 2.92652476 -0.34000000
v 1.38652476 2.92652476 -0.34000000
v 1.30000000 2.70000000 -0.48000000
v 1.52652476 2.84000000 -0.28652476
v 1.52652476 2.56000000 -0.28652476
v 1.44000000 2.61347524 -0.42652476
v 1.44000000 2.78652476 -0.42652476
v 1.52652476 2.84000000 -0.11347524
v 1.52652476 2.56000000 -0.11347524
v 1.44000000 2.61347524 0.02652476
v 1.44000000 2.78652476 0.02652476
v 1.58000000 2.70000000 -0.20000000
v 1.07347524 2.84000000 -0.28652476
v 1.07347524 2.56000000 -0.28652476
v 1.16000000 2.61347524 -0.42652476
v 1.16000000 2.78652476 -0.42652476
v 1.07347524 2.84000000 -0.11347524
v 1.07347524 2.56000000 -0.11347524
v 1.16000000 2.61347524 0.02652476
v 1.16000000 2.78652476 0.02652476
v 1.02000000 2.70000000 -0.20000000
f 2 1 5
f 2 5 3
f 3 5 6
f 3 6 4
f 5 1 7
f 5 7 6
f 6 7 8
f 6 8 4
f 7 1 9
f 7 9 8
f 8 9 10
f 8 10 4
f 9 1 11
f 9 11 10
f 10 11 12
f 10 12 4
f 11 1 13
f 11 13 12
f 12 13 14
f 12 14 4
f 13 1 15
f 13 15 14
f 14 15 16
f 14 16 4
f 15 1 17
f 15 17 16
f 16 17 18
f 16 18 4
f 17 1 2
f 17 2 18
f 18 2 3
f 18 3 4
f 19 56 35
f 56 30 59
f 35 59 24
f 56 59 35
f 19 35 31
f 35 24 36
f 31 36 20
f 35 36 31
f 19 31 40
f 31 20 41
f 40 41 26
f 31 41 40
f 19 40 52
f 40 26 55
f 52 55 29
f 40 55 52
f 19 52 56
f 52 29 60
f 56 60 30
f 52 60 56
f 20 36 47
f 36 24 50
f 47 50 28
f 36 50 47
f 24 59 37
f 59 30 58
f 37 58 23
f 59 58 37
f 30 60 57
f 60 29 53
f 57 53 21
f 60 53 57
f 29 55 54
f 55 26 42
f 54 42 25
f 55 42 54
f 26 41 46
f 41 20 43
f 46 43 27
f 41 43 46
f 22 48 34
f 48 28 49
f 34 49 23
f 48 49 34
f 22 34 32
f 34 23 33
f 32 33 21
f 34 33 32
f 22 32 39
f 32 21 38
f 39 38 25
f 32 38 39
f 22 39 44
f 39 25 45
f 44 45 27
f 39 45 44
f 22 44 48
f 44 27 51
f 48 51 28
f 44 51 48
f 23 49 37
f 49 28 50
f 37 50 24
f 49 50 37
f 21 33 57
f 33 23 58
f 57 58 30
f 33 58 57
f 25 38 54
f 38 21 53
f 54 53 29
f 38 53 54
f 27 45 46
f 45 25 42
f 46 42 26
f 45 42 46
f 28 51 47
f 51 27 43
f 47 43 20
f 51 43 47
f 62 61 65
f 62 65 63
f 63 65 66
f 63 66 64
f 65 61 67
f 65 67 66
f 66 67 68
f 66 68 64
f 67 61 69
f 67 69 68
f 68 69 70
f 68 70 64
f 69 61 71
f 69 71 70
f 70 71 72
f 70 72 64
f 71 61 73
f 71 73 72
f 72 73 74
f 72 74 64
f 73 61 75
f 73 75 74
f 74 75 76
f 74 76 64
f 75 61 77
f 75 77 76
f 76 77 78
f 76 78 64
f 77 61 62
f 77 62 78
f 78 62 63
f 78 63 64
f 79 116 95
f 116 90 119
f 95 119 84
f 116 119 95
f 79 95 91
f 95 84 96
f 91 96 80
f 95 96 91
f 79 91 100
f 91 80 101
f 100 101 86
f 91 101 100
f 79 100 112
f 100 86 115
f 112 115 89
f 100 115 112
f 79 112 116
f 112 89 120
f 116 120 90
f 112 120 116
f 80 96 107
f 96 84 110
f 107 110 88
f 96 110 107
f 84 119 97
f 119 90 118
f 97 118 83
f 119 118 97
f 90 120 117
f 120 89 113
f 117 113 81
f 120 113 117
f 89 115 114
f 115 86 102
f 114 102 85
f 115 102 114
f 86 101 106
f 101 80 103
f 106 103 87
f 101 103 106
f 82 108 94
f 108 88 109
f 94 109 83
f 108 109 94
f 82 94 92
f 94 83 93
f 92 93 81
f 94 93 92
f 82 92 99
f 92 81 98
f 99 98 85
f 92 98 99
f 82 99 104
f 99 85 105
f 104 105 87
f 99 105 104
f 82 104 108
f 104 87 111
f 108 111 88
f 104 111 108
f 83 109 97
f 109 88 110
f 97 110 84
f 109 110 97
f 81 93 117
f 93 83 118
f 117 118 90
f 93 118 117
f 85 98 114
f 98 81 113
f 114 113 89
f 98 113 114
f 87 105 106
f 105 85 102
f 106 102 86
f 105 102 106
f 88 111 107
f 111 87 103
f 107 103 80
f 111 103 107
f 122 121 125
f 122 125 123
f 123 125 126
f 123 126 124
f 125 121 127
f 125 127 126
f 126 127 128
f 126 128 124
f 127 121 129
f 127 129 128
f 128 129 130
f 128 130 124
f 129 121 131
f 129 131 130
f 130 131 132
f 130 132 124
f 131 121 133
f 131 133 132
f 132 133 134
f 132 134 124
f 133 121 135
f 133 135 134
f 134 135 136
f 134 136 124
f 135 121 137
f 135 137 136
f 136 137 138
f 136 138 124
f 137 121 122
f 137 122 138
f 138 122 123
f 138 123 124
f 139 176 155
f 176 150 179
f 155 179 144
f 176 179 155
f 139 155 151
f 155 144 156
f 151 156 140
f 155 156 151
f 139 151 160
f 151 140 161
f 160 161 146
f 151 161 160
f 139 160 172
f 160 146 175
f 172 175 149
f 160 175 172
f 139 172 176
f 172 149 180
f 176 180 150
f 172 180 176
f 140 156 167
f 156 144 170
f 167 170 148
f 156 170 167
f 144 179 157
f 179 150 178
f 157 178 143
f 179 178 157
f 150 180 177
f 180 149 173
f 177 173 141
f 180 173 177
f 149 175 174
f 175 146 162
f 174 162 145
f 175 162 174
f 146 161 166
f 161 140 163
f 166 163 147
f 161 163 166
f 142 168 154
f 168 148 169
f 154 169 143
f 168 169 154
f 142 154 152
f 154 143 153
f 152 153 141
f 154 153 152
f 142 152 159
f 152 141 158
f 159 158 145
f 152 158 159
f 142 159 164
f 159 145 165
f 164 165 147
f 159 165 164
f 142 164 168
f 164 147 171
f 168 171 148
f 164 171 168
f 143 169 157
f 169 148 170
f 157 170 144
f 169 170 157
f 141 153 177
f 153 143 178
f 177 178 150
f 153 178 177
f 145 158 174
f 158 141 173
f 174 173 149
f 158 173 174
f 147 165 166
f 165 145 162
f 166 162 146
f 165 162 166
f 148 171 167
f 171 147 163
f 167 163 140
f 171 163 167
f 182 181 185
f 182 185 183
f 183 185 186
f 183 186 184
f 185 181 187
f 185 187 186
f 186 187 188
f 186 188 184
f 187 181 189
f 187 189 188
f 188 189 190
f 188 190 184
f 189 181 191
f 189 191 190
f 190 191 192
f 190 192 184
f 191 181 193
f 191 193 192
f 192 193 194
f 192 194 184
f 193 181 195
f 193 195 194
f 194 195 196
f 194 196 184
f 195 181 197
f 195 197 196
f 196 197 198
f 196 198 184
f 197 181 182
f 197 182 198
f 198 182 183
f 198 183 184
f 199 236 215
f 236 210 239
f 215 239 204
f 236 239 215
f 199 215 211
f 215 204 216
f 211 216 200
f 215 216 211
f 199 211 220
f 211 200 221
f 220 221 206
f 211 221 220
f 199 220 232
f 220 206 235
f 232 235 209
f 220 235 232
f 199 232 236
f 232 209 240
f 236 240 210
f 232 240 236
f 200 216 227
f 216 204 230
f 227 230 208
f 216 230 227
f 204 239 217
f 239 210 238
f 217 238 203
f 239 238 217
f 210 240 237
f 240 209 233
f 237 233 201
f 240 233 237
f 209 235 234
f 235 206 222
f 234 222 205
f 235 222 234
f 206 221 226
f 221 200 223
f 226 223 207
f 221 223 226
f 202 228 214
f 228 208 229
f 214 229 203
f 228 229 214
f 202 214 212
f 214 203 213
f 212 213 201
f 214 213 212
f 202 212 219
f 212 201 218
f 219 218 205
f 212 218 219
f 202 219 224
f 219 205 225
f 224 225 207
f 219 225 224
f 202 224 228
f 224 207 231
f 228 231 208
f 224 231 228
f 203 229 217
f 229 208 230
f 217 230 204
f 229 230 217
f 201 213 237
f 213 203 238
f 237 238 210
f 213 238 237
f 205 218 234
f 218 201 233
f 234 233 209
f 218 233 234
f 207 225 226
f 225 205 222
f 226 222 206
f 225 222 226
f 208 231 227
f 231 207 223
f 227 223 200
f 231 223 227
f 242 241 245
f 242 245 243
f 243 245 246
f 243 246 244
f 245 241 247
f 245 247 246
f 246 247 248
f 246 248 244
f 247 241 249
f 247 249 248
f 248 249 250
f 248 250 244
f 249 241 251
f 249 251 250
f 250 251 252
f 250 252 244
f 251 241 253
f 251 253 252
f 252 253 254
f 252 254 244
f 253 241 255
f 253 255 254
f 254 255 256
f 254 256 244
f 255 241 257
f 255 257 256
f 256 257 258
f 256 258 244
f 257 241 242
f 257 242 258
f 258 242 243
f 258 243 244
f 259 296 275
f 296 270 299
f 275 299 264
f 296 299 275
f 259 275 271
f 275 264 276
f 271 276 260
f 275 276 271
f 259 271 280
f 271 260 281
f 280 281 266
f 271 281 280
f 259 280 292
f 280 266 295
f 292 295 269
f 280 295 292
f 259 292 296
f 292 269 300
f 296 300 270
f 292 300 296
f 260 276 287
f 276 264 290
f 287 290 268
f 276 290 287
f 264 299 277
f 299 270 298
f 277 298 263
f 299 298 277
f 270 300 297
f 300 269 293
f 297 293 261
f 300 293 297
f 269 295 294
f 295 266 282
f 294 282 265
f 295 282 294
f 266 281 286
f 281 260 283
f 286 283 267
f 281 283 286
f 262 288 274
f 288 268 289
f 274 289 263
f 288 289 274
f 262 274 272
f 274 263 273
f 272 273 261
f 274 273 272
f 262 272 279
f 272 261 278
f 279 278 265
f 272 278 279
f 262 279 284
f 279 265 285
f 284 285 267
f 279 285 284
f 262 284 288
f 284 267 291
f 288 291 268
f 284 291 288
f 263 289 277
f 289 268 290
f 277 290 264
f 289 290 277
f 261 273 297
f 273 263 298
f 297 298 270
f 273 298 297
f 265 278 294
f 278 261 293
f 294 293 269
f 278 293 294
f 267 285 286
f 285 265 282
f 286 282 266
f 285 282 286
f 268 291 287
f 291 267 283
f 287 283 260
f 291 283 287

