# https://github.com/mikedh/trimesh
v 0.00000000 0.00000000 0.00000000
v 0.00000000 0.00000000 -0.12000000
v 0.00000000 4.00000000 -0.12000000
v 0.00000000 4.00000000 0.00000000
v -0.08485281 0.00000000 -0.08485281
v -0.08485281 4.00000000 -0.08485281
v -0.12000000 0.00000000 -0.00000000
v -0.12000000 4.00000000 -0.00000000
v -0.08485281 0.00000000 0.08485281
v -0.08485281 4.00000000 0.08485281
v -0.00000000 0.00000000 0.12000000
v -0.00000000 4.00000000 0.12000000
v 0.08485281 0.00000000 0.08485281
v 0.08485281 4.00000000 0.08485281
v 0.12000000 0.00000000 0.00000000
v 0.12000000 4.00000000 0.00000000
v 0.08485281 0.00000000 -0.08485281
v 0.08485281 4.00000000 -0.08485281
v 0.00000000 0.70000000 0.00000000
v 0.00000000 0.70000000 0.08000000
v -1.57474842 1.05000000 0.08000000
v -1.57474842 1.05000000 0.00000000
v 0.01227331 0.75522106 0.05656854
v -1.56247511 1.10522106 0.05656854
v 0.01735708 0.77809438 0.00000000
v -1.55739134 1.12809438 0.00000000
v 0.01227331 0.75522106 -0.05656854
v -1.56247511 1.10522106 -0.05656854
v 0.00000000 0.70000000 -0.08000000
v -1.57474842 1.05000000 -0.08000000
v -0.01227331 0.64477894 -0.05656854
v -1.58702173 0.99477894 -0.05656854
v -0.01735708 0.62190562 -0.00000000
v -1.59210550 0.97190562 -0.00000000
v -0.01227331 0.64477894 0.05656854
v -1.58702173 0.99477894 0.05656854
v 0.00000000 0.70000000 0.00000000
v 0.00000000 0.70000000 -0.08000000
v 1.57474842 1.05000000 -0.08000000
v 1.57474842 1.05000000 0.00000000
v -0.01227331 0.75522106 -0.05656854
v 1.56247511 1.10522106 -0.05656854
v -0.01735708 0.77809438 -0.00000000
v 1.55739134 1.12809438 -0.00000000
v -0.01227331 0.75522106 0.05656854
v 1.56247511 1.10522106 0.05656854
v 0.00000000 0.70000000 0.08000000
v 1.57474842 1.05000000 0.08000000
v 0.01227331 0.64477894 0.05656854
v 1.58702173 0.99477894 0.05656854
v 0.01735708 0.62190562 0.00000000
v 1.59210550 0.97190562 0.00000000
v 0.01227331 0.64477894 -0.05656854
v 1.58702173 0.99477894 -0.05656854
v -0.00000000 1.26000000 0.00000000
v -0.00000000 1.26000000 0.08000000
v -1.91938810 1.61000000 0.08000000
v -1.91938810 1.61000000 0.00000000
v 0.01014792 1.31565087 0.05656854
v -1.90924017 1.66565087 0.05656854
v 0.01435133 1.33870222 0.00000000
v -1.90503677 1.68870222 0.00000000
v 0.01014792 1.31565087 -0.05656854
v -1.90924017 1.66565087 -0.05656854
v -0.00000000 1.26000000 -0.08000000
v -1.91938810 1.61000000 -0.08000000
v -0.01014792 1.20434913 -0.05656854
v -1.92953602 1.55434913 -0.05656854
v -0.01435133 1.18129778 -0.00000000
v -1.93373943 1.53129778 -0.00000000
v -0.01014792 1.20434913 0.05656854
v -1.92953602 1.55434913 0.05656854
v 0.00000000 1.26000000 0.00000000
v 0.00000000 1.26000000 -0.08000000
v 1.91938810 1.61000000 -0.08000000
v 1.91938810 1.61000000 0.00000000
v -0.01014792 1.31565087 -0.05656854
v 1.90924017 1.66565087 -0.05656854
v -0.01435133 1.33870222 -0.00000000
v 1.90503677 1.68870222 -0.00000000
v -0.01014792 1.31565087 0.05656854
v 1.90924017 1.66565087 0.05656854
v 0.00000000 1.26000000 0.08000000
v 1.91938810 1.61000000 0.08000000
v 0.01014792 1.20434913 0.05656854
v 1.92953602 1.55434913 0.05656854
v 0.01435133 1.18129778 0.00000000
v 1.93373943 1.53129778 0.00000000
v 0.01014792 1.20434913 -0.05656854
v 1.92953602 1.55434913 -0.05656854
v 0.00000000 1.82000000 0.00000000
v 0.00000000 1.82000000 0.08000000
v -2.08902602 2.17000000 0.08000000
v -2.08902602 2.17000000 0.00000000
v 0.00934733 1.87579093 0.05656854
v -2.07967869 2.22579093 0.05656854
v 0.01321913 1.89890028 0.00000000
v -2.07580690 2.24890028 0.00000000
v 0.00934733 1.87579093 -0.05656854
v -2.07967869 2.22579093 -0.05656854
v 0.00000000 1.82000000 -0.08000000
v -2.08902602 2.17000000 -0.08000000
v -0.00934733 1.76420907 -0.05656854
v -2.09837336 2.11420907 -0.05656854
v -0.01321913 1.74109972 -0.00000000
v -2.10224515 2.09109972 -0.00000000
v -0.00934733 1.76420907 0.05656854
v -2.09837336 2.11420907 0.05656854
v -0.00000000 1.82000000 0.00000000
v -0.00000000 1.82000000 -0.08000000
v 2.08902602 2.17000000 -0.08000000
v 2.08902602 2.17000000 0.00000000
v -0.00934733 1.87579093 -0.05656854
v 2.07967869 2.22579093 -0.05656854
v -0.01321913 1.89890028 -0.00000000
v 2.07580690 2.24890028 -0.00000000
v -0.00934733 1.87579093 0.05656854
v 2.07967869 2.22579093 0.05656854
v -0.00000000 1.82000000 0.08000000
v 2.08902602 2.17000000 0.08000000
v 0.00934733 1.76420907 0.05656854
v 2.09837336 2.11420907 0.05656854
v 0.01321913 1.74109972 0.00000000
v 2.10224515 2.09109972 0.00000000
v 0.00934733 1.76420907 -0.05656854
v 2.09837336 2.11420907 -0.05656854
v 0.00000000 2.38000000 0.00000000
v 0.00000000 2.38000000 0.08000000
v -2.05137232 2.73000000 0.08000000
v -2.05137232 2.73000000 0.00000000
v 0.00951410 2.43576273 0.05656854
v -2.04185822 2.78576273 0.05656854
v 0.01345497 2.45886041 0.00000000
v -2.03791735 2.80886041 0.00000000
v 0.00951410 2.43576273 -0.05656854
v -2.04185822 2.78576273 -0.05656854
v 0.00000000 2.38000000 -0.08000000
v -2.05137232 2.73000000 -0.08000000
v -0.00951410 2.32423727 -0.05656854
v -2.06088641 2.67423727 -0.05656854
v -0.01345497 2.30113959 -0.00000000
v -2.06482728 2.65113959 -0.00000000
v -0.00951410 2.32423727 0.05656854
v -2.06088641 2.67423727 0.05656854
v -0.00000000 2.38000000 0.00000000
v -0.00000000 2.38000000 -0.08000000
v 2.05137232 2.73000000 -0.08000000
v 2.05137232 2.73000000 0.00000000
v -0.00951410 2.43576273 -0.05656854
v 2.04185822 2.78576273 -0.05656854
v -0.01345497 2.45886041 -0.00000000
v 2.03791735 2.80886041 -0.00000000
v -0.00951410 2.43576273 0.05656854
v 2.04185822 2.78576273 0.05656854
v -0.00000000 2.38000000 0.08000000
v 2.05137232 2.73000000 0.08000000
v 0.00951410 2.32423727 0.05656854
v 2.06088641 2.67423727 0.05656854
v 0.01345497 2.30113959 0.00000000
v 2.06482728 2.65113959 0.00000000
v 0.00951410 2.32423727 -0.05656854
v 2.06088641 2.67423727 -0.05656854
v -0.00000000 2.94000000 0.00000000
v -0.00000000 2.94000000 0.08000000
v -1.81359420 3.29000000 0.08000000
v -1.81359420 3.29000000 0.00000000
v 0.01071920 2.99554366 0.05656854
v -1.80287500 3.34554366 0.05656854
v 0.01515924 3.01855060 0.00000000
v -1.79843496 3.36855060 0.00000000
v 0.01071920 2.99554366 -0.05656854
v -1.80287500 3.34554366 -0.05656854
v -0.00000000 2.94000000 -0.08000000
v -1.81359420 3.29000000 -0.08000000
v -0.01071920 2.88445634 -0.05656854
v -1.82431341 3.23445634 -0.05656854
v -0.01515924 2.86144940 -0.00000000
v -1.82875345 3.21144940 -0.00000000
v -0.01071920 2.88445634 0.05656854
v -1.82431341 3.23445634 0.05656854
v 0.00000000 2.94000000 0.00000000
v 0.00000000 2.94000000 -0.08000000
v 1.81359420 3.29000000 -0.08000000
v 1.81359420 3.29000000 0.00000000
v -0.01071920 2.99554366 -0.05656854
v 1.80287500 3.34554366 -0.05656854
v -0.01515924 3.01855060 -0.00000000
v 1.79843496 3.36855060 -0.00000000
v -0.01071920 2.99554366 0.05656854
v 1.80287500 3.34554366 0.05656854
v 0.00000000 2.94000000 0.08000000
v 1.81359420 3.29000000 0.08000000
v 0.01071920 2.88445634 0.05656854
v 1.82431341 3.23445634 0.05656854
v 0.01515924 2.86144940 0.00000000
v 1.82875345 3.21144940 0.00000000
v 0.01071920 2.88445634 -0.05656854
v 1.82431341 3.23445634 -0.05656854
v 0.00000000 3.50000000 0.00000000
v 0.00000000 3.50000000 0.08000000
v -1.42095178 3.85000000 0.08000000
v -1.42095178 3.85000000 0.00000000
v 0.01352924 3.55492686 0.05656854
v -1.40742253 3.90492686 0.05656854
v 0.01913324 3.57767831 0.00000000
v -1.40181854 3.92767831 0.00000000
v 0.01352924 3.55492686 -0.05656854
v -1.40742253 3.90492686 -0.05656854
v 0.00000000 3.50000000 -0.08000000
v -1.42095178 3.85000000 -0.08000000
v -0.01352924 3.44507314 -0.05656854
v -1.43448102 3.79507314 -0.05656854
v -0.01913324 3.42232169 -0.00000000
v -1.44008501 3.77232169 -0.00000000
v -0.01352924 3.44507314 0.05656854
v -1.43448102 3.79507314 0.05656854
v -0.00000000 3.50000000 0.00000000
v -0.00000000 3.50000000 -0.08000000
v 1.42095178 3.85000000 -0.08000000
v 1.42095178 3.85000000 0.00000000
v -0.01352924 3.55492686 -0.05656854
v 1.40742253 3.90492686 -0.05656854
v -0.01913324 3.57767831 -0.00000000
v 1.40181854 3.92767831 -0.00000000
v -0.01352924 3.55492686 0.05656854
v 1.40742253 3.90492686 0.05656854
v -0.00000000 3.50000000 0.08000000
v 1.42095178 3.85000000 0.08000000
v 0.01352924 3.44507314 0.05656854
v 1.43448102 3.79507314 0.05656854
v 0.01913324 3.42232169 0.00000000
v 1.44008501 3.77232169 0.00000000
v 0.01352924 3.44507314 -0.05656854
v 1.43448102 3.79507314 -0.05656854
f 2 1 5
f 2 5 3
f 3 5 6
f 3 6 4
f 5 1 7
f 5 7 6
f 6 7 8
f 6 8 4
f 7 1 9
f 7 9 8
f 8 9 10
f 8 10 4
f 9 1 11
f 9 11 10
f 10 11 12
f 10 12 4
f 11 1 13
f 11 13 12
f 12 13 14
f 12 14 4
f 13 1 15
f 13 15 14
f 14 15 16
f 14 16 4
f 15 1 17
f 15 17 16
f 16 17 18
f 16 18 4
f 17 1 2
f 17 2 18
f 18 2 3
f 18 3 4
f 20 19 23
f 20 23 21
f 21 23 24
f 21 24 22
f 23 19 25
f 23 25 24
f 24 25 26
f 24 26 22
f 25 19 27
f 25 27 26
f 26 27 28
f 26 28 22
f 27 19 29
f 27 29 28
f 28 29 30
f 28 30 22
f 29 19 31
f 29 31 30
f 30 31 32
f 30 32 22
f 31 19 33
f 31 33 32
f 32 33 34
f 32 34 22
f 33 19 35
f 33 35 34
f 34 35 36
f 34 36 22
f 35 19 20
f 35 20 36
f 36 20 21
f 36 21 22
f 38 37 41
f 38 41 39
f 39 41 42
f 39 42 40
f 41 37 43
f 41 43 42
f 42 43 44
f 42 44 40
f 43 37 45
f 43 45 44
f 44 45 46
f 44 46 40
f 45 37 47
f 45 47 46
f 46 47 48
f 46 48 40
f 47 37 49
f 47 49 48
f 48 49 50
f 48 50 40
f 49 37 51
f 49 51 50
f 50 51 52
f 50 52 40
f 51 37 53
f 51 53 52
f 52 53 54
f 52 54 40
f 53 37 38
f 53 38 54
f 54 38 39
f 54 39 40
f 56 55 59
f 56 59 57
f 57 59 60
f 57 60 58
f 59 55 61
f 59 61 60
f 60 61 62
f 60 62 58
f 61 55 63
f 61 63 62
f 62 63 64
f 62 64 58
f 63 55 65
f 63 65 64
f 64 65 66
f 64 66 58
f 65 55 67
f 65 67 66
f 66 67 68
f 66 68 58
f 67 55 69
f 67 69 68
f 68 69 70
f 68 70 58
f 69 55 71
f 69 71 70
f 70 71 72
f 70 72 58
f 71 55 56
f 71 56 72
f 72 56 57
f 72 57 58
f 74 73 77
f 74 77 75
f 75 77 78
f 75 78 76
f 77 73 79
f 77 79 78
f 78 79 80
f 78 80 76
f 79 73 81
f 79 81 80
f 80 81 82
f 80 82 76
f 81 73 83
f 81 83 82
f 82 83 84
f 82 84 76
f 83 73 85
f 83 85 84
f 84 85 86
f 84 86 76
f 85 73 87
f 85 87 86
f 86 87 88
f 86 88 76
f 87 73 89
f 87 89 88
f 88 89 90
f 88 90 76
f 89 73 74
f 89 74 90
f 90 74 75
f 90 75 76
f 92 91 95
f 92 95 93
f 93 95 96
f 93 96 94
f 95 91 97
f 95 97 96
f 96 97 98
f 96 98 94
f 97 91 99
f 97 99 98
f 98 99 100
f 98 100 94
f 99 91 101
f 99 101 100
f 100 101 102
f 100 102 94
f 101 91 103
f 101 103 102
f 102 103 104
f 102 104 94
f 103 91 105
f 103 105 104
f 104 105 106
f 104 106 94
f 105 91 107
f 105 107 106
f 106 107 108
f 106 108 94
f 107 91 92
f 107 92 108
f 108 92 93
f 108 93 94
f 110 109 113
f 110 113 111
f 111 113 114
f 111 114 112
f 113 109 115
f 113 115 114
f 114 115 116
f 114 116 112
f 115 109 117
f 115 117 116
f 116 117 118
f 116 118 112
f 117 109 119
f 117 119 118
f 118 119 120
f 118 120 112
f 119 109 121
f 119 121 120
f 120 121 122
f 120 122 112
f 121 109 123
f 121 123 122
f 122 123 124
f 122 124 112
f 123 109 125
f 123 125 124
f 124 125 126
f 124 126 112
f 125 109 110
f 125 110 126
f 126 110 111
f 126 111 112
f 128 127 131
f 128 131 129
f 129 131 132
f 129 132 130
f 131 127 133
f 131 133 132
f 132 133 134
f 132 134 130
f 133 127 135
f 133 135 134
f 134 135 136
f 134 136 130
f 135 127 137
f 135 137 136
f 136 137 138
f 136 138 130
f 137 127 139
f 137 139 138
f 138 139 140
f 138 140 130
f 139 127 141
f 139 141 140
f 140 141 142
f 140 142 130
f 141 127 143
f 141 143 142
f 142 143 144
f 142 144 130
f 143 127 128
f 143 128 144
f 144 128 129
f 144 129 130
f 146 145 149
f 146 149 147
f 147 149 150
f 147 150 148
f 149 145 151
f 149 151 150
f 150 151 152
f 150 152 148
f 151 145 153
f 151 153 152
f 152 153 154
f 152 154 148
f 153 145 155
f 153 155 154
f 154 155 156
f 154 156 148
f 155 145 157
f 155 157 156
f 156 157 158
f 156 158 148
f 157 145 159
f 157 159 158
f 158 159 160
f 158 160 148
f 159 145 161
f 159 161 160
f 160 161 162
f 160 162 148
f 161 145 146
f 161 146 162
f 162 146 147
f 162 147 148
f 164 163 167
f 164 167 165
f 165 167 168
f 165 168 166
f 167 163 169
f 167 169 168
f 168 169 170
f 168 170 166
f 169 163 171
f 169 171 170
f 170 171 172
f 170 172 166
f 171 163 173
f 171 173 172
f 172 173 174
f 172 174 166
f 173 163 175
f 173 175 174
f 174 175 176
f 174 176 166
f 175 163 177
f 175 177 176
f 176 177 178
f 176 178 166
f 177 163 179
f 177 179 178
f 178 179 180
f 178 180 166
f 179 163 164
f 179 164 180
f 180 164 165
f 180 165 166
f 182 181 185
f 182 185 183
f 183 185 186
f 183 186 184
f 185 181 187
f 185 187 186
f 186 187 188
f 186 188 184
f 187 181 189
f 187 189 188
f 188 189 190
f 188 190 184
f 189 181 191
f 189 191 190
f 190 191 192
f 190 192 184
f 191 181 193
f 191 193 192
f 192 193 194
f 192 194 184
f 193 181 195
f 193 195 194
f 194 195 196
f 194 196 184
f 195 181 197
f 195 197 196
f 196 197 198
f 196 198 184
f 197 181 182
f 197 182 198
f 198 182 183
f 198 183 184
f 200 199 203
f 200 203 201
f 201 203 204
f 201 204 202
f 203 199 205
f 203 205 204
f 204 205 206
f 204 206 202
f 205 199 207
f 205 207 206
f 206 207 208
f 206 208 202
f 207 199 209
f 207 209 208
f 208 209 210
f 208 210 202
f 209 199 211
f 209 211 210
f 210 211 212
f 210 212 202
f 211 199 213
f 211 213 212
f 212 213 214
f 212 214 202
f 213 199 215
f 213 215 214
f 214 215 216
f 214 216 202
f 215 199 200
f 215 200 216
f 216 200 201
f 216 201 202
f 218 217 221
f 218 221 219
f 219 221 222
f 219 222 220
f 221 217 223
f 221 223 222
f 222 223 224
f 222 224 220
f 223 217 225
f 223 225 224
f 224 225 226
f 224 226 220
f 225 217 227
f 225 227 226
f 226 227 228
f 226 228 220
f 227 217 229
f 227 229 228
f 228 229 230
f 228 230 220
f 229 217 231
f 229 231 230
f 230 231 232
f 230 232 220
f 231 217 233
f 231 233 232
f 232 233 234
f 232 234 220
f 233 217 218
f 233 218 234
f 234 218 219
f 234 219 220

