# https://github.com/mikedh/trimesh
v -1.22690966 1.12617390 0.03742875
v 0.98914343 1.35542959 0.08518629
v -1.00880687 -1.21959911 0.34126797
v 1.11629027 -1.25671778 0.11302508
v -0.28489103 -0.83338445 1.63012303
v -0.16993879 0.48668626 1.51757877
v 0.16505127 -0.75056236 -1.37878039
v -0.10635798 0.55085512 -1.62424304
v 1.90973587 -0.03872763 -0.98599322
v 1.93679609 0.09040282 0.81207166
v -1.92507514 -0.05349474 -0.94537023
v -1.88137586 0.06799409 0.82680213
v -0.16851303 1.34050665 0.01676770
v -0.06563505 -1.45653339 0.24645691
v -0.94318173 -0.98477016 0.89537613
v 0.64704945 -1.12490588 1.21757344
v -0.94223775 1.10948170 0.85404177
v 0.76035881 0.86687982 1.04750420
v -0.18709570 0.20524374 1.74381690
v -0.74578056 -1.24591216 -0.93147570
v 0.93274831 -1.07000564 -0.89176465
v -0.88937181 0.93765355 -0.76698126
v 1.17041901 1.18004149 -0.68823105
v -0.03226576 0.06648193 -1.94976311
v 1.98691224 0.49490524 -0.61074983
v 1.94479298 -0.65464957 -0.57076292
v 1.44057584 -0.52155721 -1.35235616
v 1.29260231 0.59721195 -1.08641613
v 1.99683094 0.71841519 0.50682616
v 1.76022140 -0.60187190 0.50799395
v 1.15976145 -0.40797450 1.63697453
v 1.13287234 0.32406045 1.54388061
v 1.98251236 -0.00862953 0.01685284
v -1.55769853 0.77578083 -0.69694832
v -1.69319397 -0.79961812 -0.43479988
v -1.11494726 -0.42677900 -1.23358173
v -1.18198516 0.49876542 -1.58176535
v -2.06873024 0.81461985 0.58437783
v -1.67943651 -0.82823371 0.31591007
v -0.71940437 -0.42395321 1.43630904
v -0.98189127 0.44360918 1.20950172
v -2.37675236 -0.03241997 0.08146472
f 1 38 17
f 38 12 41
f 17 41 6
f 38 41 17
f 1 17 13
f 17 6 18
f 13 18 2
f 17 18 13
f 1 13 22
f 13 2 23
f 22 23 8
f 13 23 22
f 1 22 34
f 22 8 37
f 34 37 11
f 22 37 34
f 1 34 38
f 34 11 42
f 38 42 12
f 34 42 38
f 2 18 29
f 18 6 32
f 29 32 10
f 18 32 29
f 6 41 19
f 41 12 40
f 19 40 5
f 41 40 19
f 12 42 39
f 42 11 35
f 39 35 3
f 42 35 39
f 11 37 36
f 37 8 24
f 36 24 7
f 37 24 36
f 8 23 28
f 23 2 25
f 28 25 9
f 23 25 28
f 4 30 16
f 30 10 31
f 16 31 5
f 30 31 16
f 4 16 14
f 16 5 15
f 14 15 3
f 16 15 14
f 4 14 21
f 14 3 20
f 21 20 7
f 14 20 21
f 4 21 26
f 21 7 27
f 26 27 9
f 21 27 26
f 4 26 30
f 26 9 33
f 30 33 10
f 26 33 30
f 5 31 19
f 31 10 32
f 19 32 6
f 31 32 19
f 3 15 39
f 15 5 40
f 39 40 12
f 15 40 39
f 7 20 36
f 20 3 35
f 36 35 11
f 20 35 36
f 9 27 28
f 27 7 24
f 28 24 8
f 27 24 28
f 10 33 29
f 33 9 25
f 29 25 2
f 33 25 29

