# https://github.com/mikedh/trimesh
v -0.36801178 1.29545557 0.00000000
v 0.36801178 1.29545557 0.00000000
v -0.36801178 0.10454443 0.00000000
v 0.36801178 0.10454443 0.00000000
v 0.00000000 0.33198822 0.59545557
v 0.00000000 1.06801178 0.59545557
v 0.00000000 0.33198822 -0.59545557
v 0.00000000 1.06801178 -0.59545557
v 0.59545557 0.70000000 -0.36801178
v 0.59545557 0.70000000 0.36801178
v -0.59545557 0.70000000 -0.36801178
v -0.59545557 0.70000000 0.36801178
v 0.00000000 1.40000000 0.00000000
v 0.00000000 0.00000000 0.00000000
v -0.21631190 0.13368810 0.35000000
v 0.21631190 0.13368810 0.35000000
v -0.21631190 1.26631190 0.35000000
v 0.21631190 1.26631190 0.35000000
v 0.00000000 0.70000000 0.70000000
v -0.21631190 0.13368810 -0.35000000
v 0.21631190 0.13368810 -0.35000000
v -0.21631190 1.26631190 -0.35000000
v 0.21631190 1.26631190 -0.35000000
v 0.00000000 0.70000000 -0.70000000
v 0.56631190 1.05000000 -0.21631190
v 0.56631190 0.35000000 -0.21631190
v 0.35000000 0.48368810 -0.56631190
v 0.35000000 0.91631190 -0.56631190
v 0.56631190 1.05000000 0.21631190
v 0.56631190 0.35000000 0.21631190
v 0.35000000 0.48368810 0.56631190
v 0.35000000 0.91631190 0.56631190
v 0.70000000 0.70000000 0.00000000
v -0.56631190 1.05000000 -0.21631190
v -0.56631190 0.35000000 -0.21631190
v -0.35000000 0.48368810 -0.56631190
v -0.35000000 0.91631190 -0.56631190
v -0.56631190 1.05000000 0.21631190
v -0.56631190 0.35000000 0.21631190
v -0.35000000 0.48368810 0.56631190
v -0.35000000 0.91631190 0.56631190
v -0.70000000 0.70000000 0.00000000
v 0.00000000 0.70000000 0.00000000
v 0.00000000 0.70000000 -0.03500000
v 1.32140170 1.16249059 -0.03500000
v 1.32140170 1.16249059 0.00000000
v -0.01001322 0.72860919 -0.01750000
v 1.31138848 1.19109978 -0.01750000
v -0.01001322 0.72860919 0.01750000
v 1.31138848 1.19109978 0.01750000
v 0.00000000 0.70000000 0.03500000
v 1.32140170 1.16249059 0.03500000
v 0.01001322 0.67139081 0.01750000
v 1.33141491 1.13388141 0.01750000
v 0.01001322 0.67139081 -0.01750000
v 1.33141491 1.13388141 -0.01750000
v 0.00000000 0.70000000 0.00000000
v 0.01651752 0.70300240 -0.03071086
v 1.16088496 1.16549299 0.62998999
v 1.14436744 1.16249059 0.66070085
v -0.00175445 0.72999198 -0.01795558
v 1.14261299 1.19248258 0.64274527
v -0.01827198 0.72698959 0.01275528
v 1.12609546 1.18948018 0.67345613
v -0.01651752 0.69699760 0.03071086
v 1.12784992 1.15948820 0.69141171
v 0.00175445 0.67000802 0.01795558
v 1.14612189 1.13249861 0.67865643
v 0.01827198 0.67301041 -0.01275528
v 1.16263942 1.13550101 0.64794557
v 0.00000000 0.70000000 0.00000000
v 0.02860919 0.70642086 -0.01911248
v 0.68931004 1.16891146 1.12525496
v 0.66070085 1.16249059 1.14436744
v 0.00429138 0.73127402 -0.01511687
v 0.66499223 1.19376461 1.12925057
v -0.02431781 0.72485315 0.00399561
v 0.63638304 1.18734375 1.14836305
v -0.02860919 0.69357914 0.01911248
v 0.63209166 1.15606973 1.16347992
v -0.00429138 0.66872598 0.01511687
v 0.65640947 1.13121658 1.15948431
v 0.02431781 0.67514685 -0.00399561
v 0.68501866 1.13763744 1.14037183
v -0.00000000 0.70000000 -0.00000000
v 0.03303504 0.71091314 -0.00381960
v 0.03303504 1.17340373 1.31758210
v 0.00000000 1.16249059 1.32140170
v 0.00650431 0.73245959 -0.01136086
v 0.00650431 1.19495018 1.31004084
v -0.02653074 0.72154645 -0.00754126
v -0.02653074 1.18403704 1.31386044
v -0.03303504 0.68908686 0.00381960
v -0.03303504 1.15157745 1.32522130
v -0.00650431 0.66754041 0.01136086
v -0.00650431 1.13003101 1.33276256
v 0.02653074 0.67845355 0.00754126
v 0.02653074 1.14094415 1.32894296
v 0.00000000 0.70000000 0.00000000
v 0.02860919 0.69357914 0.01911248
v -0.63209166 1.15606973 1.16347992
v -0.66070085 1.16249059 1.14436744
v 0.02431781 0.72485315 0.00399561
v -0.63638304 1.18734375 1.14836305
v -0.00429138 0.73127402 -0.01511687
v -0.66499223 1.19376461 1.12925057
v -0.02860919 0.70642086 -0.01911248
v -0.68931004 1.16891146 1.12525496
v -0.02431781 0.67514685 -0.00399561
v -0.68501866 1.13763744 1.14037183
v 0.00429138 0.66872598 0.01511687
v -0.65640947 1.13121658 1.15948431
v 0.00000000 0.70000000 0.00000000
v 0.01651752 0.69699760 0.03071086
v -1.12784992 1.15948820 0.69141171
v -1.14436744 1.16249059 0.66070085
v 0.01827198 0.72698959 0.01275528
v -1.12609546 1.18948018 0.67345613
v 0.00175445 0.72999198 -0.01795558
v -1.14261299 1.19248258 0.64274527
v -0.01651752 0.70300240 -0.03071086
v -1.16088496 1.16549299 0.62998999
v -0.01827198 0.67301041 -0.01275528
v -1.16263942 1.13550101 0.64794557
v -0.00175445 0.67000802 0.01795558
v -1.14612189 1.13249861 0.67865643
v -0.00000000 0.70000000 0.00000000
v -0.00000000 0.70000000 0.03500000
v -1.32140170 1.16249059 0.03500000
v -1.32140170 1.16249059 0.00000000
v 0.01001322 0.72860919 0.01750000
v -1.31138848 1.19109978 0.01750000
v 0.01001322 0.72860919 -0.01750000
v -1.31138848 1.19109978 -0.01750000
v -0.00000000 0.70000000 -0.03500000
v -1.32140170 1.16249059 -0.03500000
v -0.01001322 0.67139081 -0.01750000
v -1.33141491 1.13388141 -0.01750000
v -0.01001322 0.67139081 0.01750000
v -1.33141491 1.13388141 0.01750000
v 0.00000000 0.70000000 0.00000000
v -0.01651752 0.70300240 0.03071086
v -1.16088496 1.16549299 -0.62998999
v -1.14436744 1.16249059 -0.66070085
v 0.00175445 0.72999198 0.01795558
v -1.14261299 1.19248258 -0.64274527
v 0.01827198 0.72698959 -0.01275528
v -1.12609546 1.18948018 -0.67345613
v 0.01651752 0.69699760 -0.03071086
v -1.12784992 1.15948820 -0.69141171
v -0.00175445 0.67000802 -0.01795558
v -1.14612189 1.13249861 -0.67865643
v -0.01827198 0.67301041 0.01275528
v -1.16263942 1.13550101 -0.64794557
v -0.00000000 0.70000000 0.00000000
v -0.02860919 0.70642086 0.01911248
v -0.68931004 1.16891146 -1.12525496
v -0.66070085 1.16249059 -1.14436744
v -0.00429138 0.73127402 0.01511687
v -0.66499223 1.19376461 -1.12925057
v 0.02431781 0.72485315 -0.00399561
v -0.63638304 1.18734375 -1.14836305
v 0.02860919 0.69357914 -0.01911248
v -0.63209166 1.15606973 -1.16347992
v 0.00429138 0.66872598 -0.01511687
v -0.65640947 1.13121658 -1.15948431
v -0.02431781 0.67514685 0.00399561
v -0.68501866 1.13763744 -1.14037183
v 0.00000000 0.70000000 0.00000000
v -0.03303504 0.71091314 0.00381960
v -0.03303504 1.17340373 -1.31758210
v -0.00000000 1.16249059 -1.32140170
v -0.00650431 0.73245959 0.01136086
v -0.00650431 1.19495018 -1.31004084
v 0.02653074 0.72154645 0.00754126
v 0.02653074 1.18403704 -1.31386044
v 0.03303504 0.68908686 -0.00381960
v 0.03303504 1.15157745 -1.32522130
v 0.00650431 0.66754041 -0.01136086
v 0.00650431 1.13003101 -1.33276256
v -0.02653074 0.67845355 -0.00754126
v -0.02653074 1.14094415 -1.32894296
v -0.00000000 0.70000000 0.00000000
v -0.02860919 0.69357914 -0.01911248
v 0.63209166 1.15606973 -1.16347992
v 0.66070085 1.16249059 -1.14436744
v -0.02431781 0.72485315 -0.00399561
v 0.63638304 1.18734375 -1.14836305
v 0.00429138 0.73127402 0.01511687
v 0.66499223 1.19376461 -1.12925057
v 0.02860919 0.70642086 0.01911248
v 0.68931004 1.16891146 -1.12525496
v 0.02431781 0.67514685 0.00399561
v 0.68501866 1.13763744 -1.14037183
v -0.00429138 0.66872598 -0.01511687
v 0.65640947 1.13121658 -1.15948431
v 0.00000000 0.70000000 0.00000000
v -0.01651752 0.69699760 -0.03071086
v 1.12784992 1.15948820 -0.69141171
v 1.14436744 1.16249059 -0.66070085
v -0.01827198 0.72698959 -0.01275528
v 1.12609546 1.18948018 -0.67345613
v -0.00175445 0.72999198 0.01795558
v 1.14261299 1.19248258 -0.64274527
v 0.01651752 0.70300240 0.03071086
v 1.16088496 1.16549299 -0.62998999
v 0.01827198 0.67301041 0.01275528
v 1.16263942 1.13550101 -0.64794557
v 0.00175445 0.67000802 -0.01795558
v 1.14612189 1.13249861 -0.67865643
v -0.00000000 0.70000000 -0.00000000
v 0.00658505 0.70483124 -0.03403375
v 0.40168781 2.02184045 0.22936809
v 0.39510276 2.01700922 0.26340184
v -0.02522156 0.71180664 -0.02120085
v 0.36988120 2.02881585 0.24220099
v -0.03180661 0.70697540 0.01283290
v 0.36329616 2.02398462 0.27623475
v -0.00658505 0.69516876 0.03403375
v 0.38851772 2.01217798 0.29743560
v 0.02522156 0.68819336 0.02120085
v 0.42032433 2.00520258 0.28460269
v 0.03180661 0.69302460 -0.01283290
v 0.42690937 2.01003381 0.25056894
v 0.00000000 0.70000000 0.00000000
v -0.00323575 0.70218386 0.03478161
v -0.52095593 1.99648432 -0.09464843
v -0.51772018 1.99430046 -0.12943005
v 0.02640455 0.71249003 0.01928209
v -0.49131563 2.00679049 -0.11014796
v 0.02964030 0.71030617 -0.01549953
v -0.48807988 2.00460663 -0.14492957
v 0.00323575 0.69781614 -0.03478161
v -0.51448443 1.99211660 -0.16421166
v -0.02640455 0.68750997 -0.01928209
v -0.54412473 1.98181043 -0.14871213
v -0.02964030 0.68969383 0.01549953
v -0.54736049 1.98399429 -0.11393052
v -0.00000000 0.70000000 0.00000000
v -0.01559024 0.68724722 -0.02862361
v 0.10913167 1.93446635 -0.65223317
v 0.12472191 1.94721913 -0.62360956
v -0.03479821 0.70184603 -0.00326757
v 0.08992371 1.94906516 -0.62687714
v -0.01920797 0.71459882 0.02535604
v 0.10551395 1.96181794 -0.59825353
v 0.01559024 0.71275278 0.02862361
v 0.14031215 1.95997191 -0.59498595
v 0.03479821 0.69815397 0.00326757
v 0.15952012 1.94537309 -0.62034199
v 0.01920797 0.68540118 -0.02535604
v 0.14392988 1.93262031 -0.64896560
f 1 38 17
f 38 12 41
f 17 41 6
f 38 41 17
f 1 17 13
f 17 6 18
f 13 18 2
f 17 18 13
f 1 13 22
f 13 2 23
f 22 23 8
f 13 23 22
f 1 22 34
f 22 8 37
f 34 37 11
f 22 37 34
f 1 34 38
f 34 11 42
f 38 42 12
f 34 42 38
f 2 18 29
f 18 6 32
f 29 32 10
f 18 32 29
f 6 41 19
f 41 12 40
f 19 40 5
f 41 40 19
f 12 42 39
f 42 11 35
f 39 35 3
f 42 35 39
f 11 37 36
f 37 8 24
f 36 24 7
f 37 24 36
f 8 23 28
f 23 2 25
f 28 25 9
f 23 25 28
f 4 30 16
f 30 10 31
f 16 31 5
f 30 31 16
f 4 16 14
f 16 5 15
f 14 15 3
f 16 15 14
f 4 14 21
f 14 3 20
f 21 20 7
f 14 20 21
f 4 21 26
f 21 7 27
f 26 27 9
f 21 27 26
f 4 26 30
f 26 9 33
f 30 33 10
f 26 33 30
f 5 31 19
f 31 10 32
f 19 32 6
f 31 32 19
f 3 15 39
f 15 5 40
f 39 40 12
f 15 40 39
f 7 20 36
f 20 3 35
f 36 35 11
f 20 35 36
f 9 27 28
f 27 7 24
f 28 24 8
f 27 24 28
f 10 33 29
f 33 9 25
f 29 25 2
f 33 25 29
f 44 43 47
f 44 47 45
f 45 47 48
f 45 48 46
f 47 43 49
f 47 49 48
f 48 49 50
f 48 50 46
f 49 43 51
f 49 51 50
f 50 51 52
f 50 52 46
f 51 43 53
f 51 53 52
f 52 53 54
f 52 54 46
f 53 43 55
f 53 55 54
f 54 55 56
f 54 56 46
f 55 43 44
f 55 44 56
f 56 44 45
f 56 45 46
f 58 57 61
f 58 61 59
f 59 61 62
f 59 62 60
f 61 57 63
f 61 63 62
f 62 63 64
f 62 64 60
f 63 57 65
f 63 65 64
f 64 65 66
f 64 66 60
f 65 57 67
f 65 67 66
f 66 67 68
f 66 68 60
f 67 57 69
f 67 69 68
f 68 69 70
f 68 70 60
f 69 57 58
f 69 58 70
f 70 58 59
f 70 59 60
f 72 71 75
f 72 75 73
f 73 75 76
f 73 76 74
f 75 71 77
f 75 77 76
f 76 77 78
f 76 78 74
f 77 71 79
f 77 79 78
f 78 79 80
f 78 80 74
f 79 71 81
f 79 81 80
f 80 81 82
f 80 82 74
f 81 71 83
f 81 83 82
f 82 83 84
f 82 84 74
f 83 71 72
f 83 72 84
f 84 72 73
f 84 73 74
f 86 85 89
f 86 89 87
f 87 89 90
f 87 90 88
f 89 85 91
f 89 91 90
f 90 91 92
f 90 92 88
f 91 85 93
f 91 93 92
f 92 93 94
f 92 94 88
f 93 85 95
f 93 95 94
f 94 95 96
f 94 96 88
f 95 85 97
f 95 97 96
f 96 97 98
f 96 98 88
f 97 85 86
f 97 86 98
f 98 86 87
f 98 87 88
f 100 99 103
f 100 103 101
f 101 103 104
f 101 104 102
f 103 99 105
f 103 105 104
f 104 105 106
f 104 106 102
f 105 99 107
f 105 107 106
f 106 107 108
f 106 108 102
f 107 99 109
f 107 109 108
f 108 109 110
f 108 110 102
f 109 99 111
f 109 111 110
f 110 111 112
f 110 112 102
f 111 99 100
f 111 100 112
f 112 100 101
f 112 101 102
f 114 113 117
f 114 117 115
f 115 117 118
f 115 118 116
f 117 113 119
f 117 119 118
f 118 119 120
f 118 120 116
f 119 113 121
f 119 121 120
f 120 121 122
f 120 122 116
f 121 113 123
f 121 123 122
f 122 123 124
f 122 124 116
f 123 113 125
f 123 125 124
f 124 125 126
f 124 126 116
f 125 113 114
f 125 114 126
f 126 114 115
f 126 115 116
f 128 127 131
f 128 131 129
f 129 131 132
f 129 132 130
f 131 127 133
f 131 133 132
f 132 133 134
f 132 134 130
f 133 127 135
f 133 135 134
f 134 135 136
f 134 136 130
f 135 127 137
f 135 137 136
f 136 137 138
f 136 138 130
f 137 127 139
f 137 139 138
f 138 139 140
f 138 140 130
f 139 127 128
f 139 128 140
f 140 128 129
f 140 129 130
f 142 141 145
f 142 145 143
f 143 145 146
f 143 146 144
f 145 141 147
f 145 147 146
f 146 147 148
f 146 148 144
f 147 141 149
f 147 149 148
f 148 149 150
f 148 150 144
f 149 141 151
f 149 151 150
f 150 151 152
f 150 152 144
f 151 141 153
f 151 153 152
f 152 153 154
f 152 154 144
f 153 141 142
f 153 142 154
f 154 142 143
f 154 143 144
f 156 155 159
f 156 159 157
f 157 159 160
f 157 160 158
f 159 155 161
f 159 161 160
f 160 161 162
f 160 162 158
f 161 155 163
f 161 163 162
f 162 163 164
f 162 164 158
f 163 155 165
f 163 165 164
f 164 165 166
f 164 166 158
f 165 155 167
f 165 167 166
f 166 167 168
f 166 168 158
f 167 155 156
f 167 156 168
f 168 156 157
f 168 157 158
f 170 169 173
f 170 173 171
f 171 173 174
f 171 174 172
f 173 169 175
f 173 175 174
f 174 175 176
f 174 176 172
f 175 169 177
f 175 177 176
f 176 177 178
f 176 178 172
f 177 169 179
f 177 179 178
f 178 179 180
f 178 180 172
f 179 169 181
f 179 181 180
f 180 181 182
f 180 182 172
f 181 169 170
f 181 170 182
f 182 170 171
f 182 171 172
f 184 183 187
f 184 187 185
f 185 187 188
f 185 188 186
f 187 183 189
f 187 189 188
f 188 189 190
f 188 190 186
f 189 183 191
f 189 191 190
f 190 191 192
f 190 192 186
f 191 183 193
f 191 193 192
f 192 193 194
f 192 194 186
f 193 183 195
f 193 195 194
f 194 195 196
f 194 196 186
f 195 183 184
f 195 184 196
f 196 184 185
f 196 185 186
f 198 197 201
f 198 201 199
f 199 201 202
f 199 202 200
f 201 197 203
f 201 203 202
f 202 203 204
f 202 204 200
f 203 197 205
f 203 205 204
f 204 205 206
f 204 206 200
f 205 197 207
f 205 207 206
f 206 207 208
f 206 208 200
f 207 197 209
f 207 209 208
f 208 209 210
f 208 210 200
f 209 197 198
f 209 198 210
f 210 198 199
f 210 199 200
f 212 211 215
f 212 215 213
f 213 215 216
f 213 216 214
f 215 211 217
f 215 217 216
f 216 217 218
f 216 218 214
f 217 211 219
f 217 219 218
f 218 219 220
f 218 220 214
f 219 211 221
f 219 221 220
f 220 221 222
f 220 222 214
f 221 211 223
f 221 223 222
f 222 223 224
f 222 224 214
f 223 211 212
f 223 212 224
f 224 212 213
f 224 213 214
f 226 225 229
f 226 229 227
f 227 229 230
f 227 230 228
f 229 225 231
f 229 231 230
f 230 231 232
f 230 232 228
f 231 225 233
f 231 233 232
f 232 233 234
f 232 234 228
f 233 225 235
f 233 235 234
f 234 235 236
f 234 236 228
f 235 225 237
f 235 237 236
f 236 237 238
f 236 238 228
f 237 225 226
f 237 226 238
f 238 226 227
f 238 227 228
f 240 239 243
f 240 243 241
f 241 243 244
f 241 244 242
f 243 239 245
f 243 245 244
f 244 245 246
f 244 246 242
f 245 239 247
f 245 247 246
f 246 247 248
f 246 248 242
f 247 239 249
f 247 249 248
f 248 249 250
f 248 250 242
f 249 239 251
f 249 251 250
f 250 251 252
f 250 252 242
f 251 239 240
f 251 240 252
f 252 240 241
f 252 241 242

