# https://github.com/mikedh/trimesh
v 0.00000000 2.20000000 -0.00000000
v 0.60000000 2.20000000 -0.00000000
v 0.60000000 0.00000000 0.00000000
v 0.00000000 0.00000000 0.00000000
v 0.42426407 2.20000000 0.42426407
v 0.42426407 0.00000000 0.42426407
v 0.00000000 2.20000000 0.60000000
v 0.00000000 0.00000000 0.60000000
v -0.42426407 2.20000000 0.42426407
v -0.42426407 0.00000000 0.42426407
v -0.60000000 2.20000000 0.00000000
v -0.60000000 0.00000000 0.00000000
v -0.42426407 2.20000000 -0.42426407
v -0.42426407 0.00000000 -0.42426407
v -0.00000000 2.20000000 -0.60000000
v -0.00000000 0.00000000 -0.60000000
v 0.42426407 2.20000000 -0.42426407
v 0.42426407 0.00000000 -0.42426407
v -0.34500000 1.36000000 0.52000000
v -0.34500000 1.36000000 0.64000000
v -0.34500000 1.54000000 0.52000000
v -0.34500000 1.54000000 0.64000000
v -0.09500000 1.36000000 0.52000000
v -0.09500000 1.36000000 0.64000000
v -0.09500000 1.54000000 0.52000000
v -0.09500000 1.54000000 0.64000000
v 0.09500000 1.36000000 0.52000000
v 0.09500000 1.36000000 0.64000000
v 0.09500000 1.54000000 0.52000000
v 0.09500000 1.54000000 0.64000000
v 0.34500000 1.36000000 0.52000000
v 0.34500000 1.36000000 0.64000000
v 0.34500000 1.54000000 0.52000000
v 0.34500000 1.54000000 0.64000000
v -0.22500000 0.86000000 0.52000000
v -0.22500000 0.86000000 0.64000000
v -0.22500000 0.98000000 0.52000000
v -0.22500000 0.98000000 0.64000000
v 0.22500000 0.86000000 0.52000000
v 0.22500000 0.86000000 0.64000000
v 0.22500000 0.98000000 0.52000000
v 0.22500000 0.98000000 0.64000000
v 0.00000000 2.55000000 0.00000000
v 0.80000000 2.55000000 0.00000000
v 0.00000000 1.85000000 0.00000000
v 0.56568542 2.55000000 0.56568542
v 0.00000000 2.55000000 0.80000000
v -0.56568542 2.55000000 0.56568542
v -0.80000000 2.55000000 0.00000000
v -0.56568542 2.55000000 -0.56568542
v -0.00000000 2.55000000 -0.80000000
v 0.56568542 2.55000000 -0.56568542
f 2 1 5
f 2 5 3
f 3 5 6
f 3 6 4
f 5 1 7
f 5 7 6
f 6 7 8
f 6 8 4
f 7 1 9
f 7 9 8
f 8 9 10
f 8 10 4
f 9 1 11
f 9 11 10
f 10 11 12
f 10 12 4
f 11 1 13
f 11 13 12
f 12 13 14
f 12 14 4
f 13 1 15
f 13 15 14
f 14 15 16
f 14 16 4
f 15 1 17
f 15 17 16
f 16 17 18
f 16 18 4
f 17 1 2
f 17 2 18
f 18 2 3
f 18 3 4
f 20 22 19
f 23 20 19
f 19 22 21
f 21 23 19
f 20 26 22
f 24 20 23
f 24 26 20
f 22 26 21
f 25 23 21
f 21 26 25
f 25 24 23
f 26 24 25
f 28 30 27
f 31 28 27
f 27 30 29
f 29 31 27
f 28 34 30
f 32 28 31
f 32 34 28
f 30 34 29
f 33 31 29
f 29 34 33
f 33 32 31
f 34 32 33
f 36 38 35
f 39 36 35
f 35 38 37
f 37 39 35
f 36 42 38
f 40 36 39
f 40 42 36
f 38 42 37
f 41 39 37
f 37 42 41
f 41 40 39
f 42 40 41
f 44 43 46
f 44 46 45
f 46 43 47
f 46 47 45
f 47 43 48
f 47 48 45
f 48 43 49
f 48 49 45
f 49 43 50
f 49 50 45
f 50 43 51
f 50 51 45
f 51 43 52
f 51 52 45
f 52 43 44
f 52 44 45

