# https://github.com/mikedh/trimesh
v -4.44660139 -0.07903920 -1.50000000
v -4.44660139 -0.07903920 1.50000000
v -4.43125497 0.14042489 -1.50000000
v -4.43125497 0.14042489 1.50000000
v -3.56874503 -0.14042489 -1.50000000
v -3.56874503 -0.14042489 1.50000000
v -3.55339861 0.07903920 -1.50000000
v -3.55339861 0.07903920 1.50000000
v -3.44000000 -0.01600077 -1.50000000
v -3.44000000 -0.01600077 1.50000000
v -3.44000000 0.20399923 -1.50000000
v -3.44000000 0.20399923 1.50000000
v -2.56000000 -0.01600077 -1.50000000
v -2.56000000 -0.01600077 1.50000000
v -2.56000000 0.20399923 -1.50000000
v -2.56000000 0.20399923 1.50000000
v -2.43125497 -0.02356318 -1.50000000
v -2.43125497 -0.02356318 1.50000000
v -2.44660139 0.19590091 -1.50000000
v -2.44660139 0.19590091 1.50000000
v -1.55339861 0.03782252 -1.50000000
v -1.55339861 0.03782252 1.50000000
v -1.56874503 0.25728661 -1.50000000
v -1.56874503 0.25728661 1.50000000
v -1.44660139 -0.02775361 -1.50000000
v -1.44660139 -0.02775361 1.50000000
v -1.43125497 0.19171048 -1.50000000
v -1.43125497 0.19171048 1.50000000
v -0.56874503 -0.08913931 -1.50000000
v -0.56874503 -0.08913931 1.50000000
v -0.55339861 0.13032478 -1.50000000
v -0.55339861 0.13032478 1.50000000
v -0.44000000 -0.16310245 -1.50000000
v -0.44000000 -0.16310245 1.50000000
v -0.44000000 0.05689755 -1.50000000
v -0.44000000 0.05689755 1.50000000
v 0.44000000 -0.16310245 -1.50000000
v 0.44000000 -0.16310245 1.50000000
v 0.44000000 0.05689755 -1.50000000
v 0.44000000 0.05689755 1.50000000
v 0.56874503 -0.25772851 -1.50000000
v 0.56874503 -0.25772851 1.50000000
v 0.55339861 -0.03826442 -1.50000000
v 0.55339861 -0.03826442 1.50000000
v 1.44660139 -0.19634281 -1.50000000
v 1.44660139 -0.19634281 1.50000000
v 1.43125497 0.02312128 -1.50000000
v 1.43125497 0.02312128 1.50000000
v 1.55339861 -0.17177094 -1.50000000
v 1.55339861 -0.17177094 1.50000000
v 1.56874503 0.04769316 -1.50000000
v 1.56874503 0.04769316 1.50000000
v 2.43125497 -0.23315663 -1.50000000
v 2.43125497 -0.23315663 1.50000000
v 2.44660139 -0.01369254 -1.50000000
v 2.44660139 -0.01369254 1.50000000
v 2.56000000 -0.10798233 -1.50000000
v 2.56000000 -0.10798233 1.50000000
v 2.56000000 0.11201767 -1.50000000
v 2.56000000 0.11201767 1.50000000
v 3.44000000 -0.10798233 -1.50000000
v 3.44000000 -0.10798233 1.50000000
v 3.44000000 0.11201767 -1.50000000
v 3.44000000 0.11201767 1.50000000
v 3.56874503 -0.04518475 -1.50000000
v 3.56874503 -0.04518475 1.50000000
v 3.55339861 0.17427934 -1.50000000
v 3.55339861 0.17427934 1.50000000
v 4.44660139 0.01620095 -1.50000000
v 4.44660139 0.01620095 1.50000000
v 4.43125497 0.23566504 -1.50000000
v 4.43125497 0.23566504 1.50000000
v -4.50000000 -0.15000000 -1.50000000
v -4.50000000 -0.15000000 -1.58000000
v 4.50000000 -0.15000000 -1.58000000
v 4.50000000 -0.15000000 -1.50000000
v -4.50000000 -0.09343146 -1.55656854
v 4.50000000 -0.09343146 -1.55656854
v -4.50000000 -0.07000000 -1.50000000
v 4.50000000 -0.07000000 -1.50000000
v -4.50000000 -0.09343146 -1.44343146
v 4.50000000 -0.09343146 -1.44343146
v -4.50000000 -0.15000000 -1.42000000
v 4.50000000 -0.15000000 -1.42000000
v -4.50000000 -0.20656854 -1.44343146
v 4.50000000 -0.20656854 -1.44343146
v -4.50000000 -0.23000000 -1.50000000
v 4.50000000 -0.23000000 -1.50000000
v -4.50000000 -0.20656854 -1.55656854
v 4.50000000 -0.20656854 -1.55656854
v -4.50000000 -0.15000000 1.50000000
v -4.50000000 -0.15000000 1.42000000
v 4.50000000 -0.15000000 1.42000000
v 4.50000000 -0.15000000 1.50000000
v -4.50000000 -0.09343146 1.44343146
v 4.50000000 -0.09343146 1.44343146
v -4.50000000 -0.07000000 1.50000000
v 4.50000000 -0.07000000 1.50000000
v -4.50000000 -0.09343146 1.55656854
v 4.50000000 -0.09343146 1.55656854
v -4.50000000 -0.15000000 1.58000000
v 4.50000000 -0.15000000 1.58000000
v -4.50000000 -0.20656854 1.55656854
v 4.50000000 -0.20656854 1.55656854
v -4.50000000 -0.23000000 1.50000000
v 4.50000000 -0.23000000 1.50000000
v -4.50000000 -0.20656854 1.44343146
v 4.50000000 -0.20656854 1.44343146
f 2 4 1
f 5 2 1
f 1 4 3
f 3 5 1
f 2 8 4
f 6 2 5
f 6 8 2
f 4 8 3
f 7 5 3
f 3 8 7
f 7 6 5
f 8 6 7
f 10 12 9
f 13 10 9
f 9 12 11
f 11 13 9
f 10 16 12
f 14 10 13
f 14 16 10
f 12 16 11
f 15 13 11
f 11 16 15
f 15 14 13
f 16 14 15
f 18 20 17
f 21 18 17
f 17 20 19
f 19 21 17
f 18 24 20
f 22 18 21
f 22 24 18
f 20 24 19
f 23 21 19
f 19 24 23
f 23 22 21
f 24 22 23
f 26 28 25
f 29 26 25
f 25 28 27
f 27 29 25
f 26 32 28
f 30 26 29
f 30 32 26
f 28 32 27
f 31 29 27
f 27 32 31
f 31 30 29
f 32 30 31
f 34 36 33
f 37 34 33
f 33 36 35
f 35 37 33
f 34 40 36
f 38 34 37
f 38 40 34
f 36 40 35
f 39 37 35
f 35 40 39
f 39 38 37
f 40 38 39
f 42 44 41
f 45 42 41
f 41 44 43
f 43 45 41
f 42 48 44
f 46 42 45
f 46 48 42
f 44 48 43
f 47 45 43
f 43 48 47
f 47 46 45
f 48 46 47
f 50 52 49
f 53 50 49
f 49 52 51
f 51 53 49
f 50 56 52
f 54 50 53
f 54 56 50
f 52 56 51
f 55 53 51
f 51 56 55
f 55 54 53
f 56 54 55
f 58 60 57
f 61 58 57
f 57 60 59
f 59 61 57
f 58 64 60
f 62 58 61
f 62 64 58
f 60 64 59
f 63 61 59
f 59 64 63
f 63 62 61
f 64 62 63
f 66 68 65
f 69 66 65
f 65 68 67
f 67 69 65
f 66 72 68
f 70 66 69
f 70 72 66
f 68 72 67
f 71 69 67
f 67 72 71
f 71 70 69
f 72 70 71
f 74 73 77
f 74 77 75
f 75 77 78
f 75 78 76
f 77 73 79
f 77 79 78
f 78 79 80
f 78 80 76
f 79 73 81
f 79 81 80
f 80 81 82
f 80 82 76
f 81 73 83
f 81 83 82
f 82 83 84
f 82 84 76
f 83 73 85
f 83 85 84
f 84 85 86
f 84 86 76
f 85 73 87
f 85 87 86
f 86 87 88
f 86 88 76
f 87 73 89
f 87 89 88
f 88 89 90
f 88 90 76
f 89 73 74
f 89 74 90
f 90 74 75
f 90 75 76
f 92 91 95
f 92 95 93
f 93 95 96
f 93 96 94
f 95 91 97
f 95 97 96
f 96 97 98
f 96 98 94
f 97 91 99
f 97 99 98
f 98 99 100
f 98 100 94
f 99 91 101
f 99 101 100
f 100 101 102
f 100 102 94
f 101 91 103
f 101 103 102
f 102 103 104
f 102 104 94
f 103 91 105
f 103 105 104
f 104 105 106
f 104 106 94
f 105 91 107
f 105 107 106
f 106 107 108
f 106 108 94
f 107 91 92
f 107 92 108
f 108 92 93
f 108 93 94

