# https://github.com/mikedh/trimesh
v 0.00000000 1.80000000 -0.00000000
v 0.68000000 1.80000000 -0.00000000
v 0.68000000 0.00000000 0.00000000
v 0.00000000 0.00000000 0.00000000
v 0.58889727 1.80000000 0.34000000
v 0.58889727 0.00000000 0.34000000
v 0.34000000 1.80000000 0.58889727
v 0.34000000 0.00000000 0.58889727
v 0.00000000 1.80000000 0.68000000
v 0.00000000 0.00000000 0.68000000
v -0.34000000 1.80000000 0.58889727
v -0.34000000 0.00000000 0.58889727
v -0.58889727 1.80000000 0.34000000
v -0.58889727 0.00000000 0.34000000
v -0.68000000 1.80000000 0.00000000
v -0.68000000 0.00000000 0.00000000
v -0.58889727 1.80000000 -0.34000000
v -0.58889727 0.00000000 -0.34000000
v -0.34000000 1.80000000 -0.58889727
v -0.34000000 0.00000000 -0.58889727
v -0.00000000 1.80000000 -0.68000000
v -0.00000000 0.00000000 -0.68000000
v 0.34000000 1.80000000 -0.58889727
v 0.34000000 0.00000000 -0.58889727
v 0.58889727 1.80000000 -0.34000000
v 0.58889727 0.00000000 -0.34000000
v 0.00000000 2.10000000 0.00000000
v 0.50000000 2.10000000 0.00000000
v 0.00000000 1.30000000 0.00000000
v 0.40450850 2.10000000 0.29389263
v 0.15450850 2.10000000 0.47552826
v -0.15450850 2.10000000 0.47552826
v -0.40450850 2.10000000 0.29389263
v -0.50000000 2.10000000 0.00000000
v -0.40450850 2.10000000 -0.29389263
v -0.15450850 2.10000000 -0.47552826
v 0.15450850 2.10000000 -0.47552826
v 0.40450850 2.10000000 -0.29389263
v 0.00000000 3.70000000 -0.00000000
v 0.08000000 3.70000000 -0.00000000
v 0.08000000 2.30000000 0.00000000
v 0.00000000 2.30000000 0.00000000
v 0.05656854 3.70000000 0.05656854
v 0.05656854 2.30000000 0.05656854
v 0.00000000 3.70000000 0.08000000
v 0.00000000 2.30000000 0.08000000
v -0.05656854 3.70000000 0.05656854
v -0.05656854 2.30000000 0.05656854
v -0.08000000 3.70000000 -0.00000000
v -0.08000000 2.30000000 0.00000000
v -0.05656854 3.70000000 -0.05656854
v -0.05656854 2.30000000 -0.05656854
v -0.00000000 3.70000000 -0.08000000
v -0.00000000 2.30000000 -0.08000000
v 0.05656854 3.70000000 -0.05656854
v 0.05656854 2.30000000 -0.05656854
v -0.09463160 3.95311715 0.00000000
v 0.09463160 3.95311715 0.00000000
v -0.09463160 3.64688285 0.00000000
v 0.09463160 3.64688285 0.00000000
v 0.00000000 3.70536840 0.15311715
v 0.00000000 3.89463160 0.15311715
v 0.00000000 3.70536840 -0.15311715
v 0.00000000 3.89463160 -0.15311715
v 0.15311715 3.80000000 -0.09463160
v 0.15311715 3.80000000 0.09463160
v -0.15311715 3.80000000 -0.09463160
v -0.15311715 3.80000000 0.09463160
v 0.00000000 3.98000000 0.00000000
v 0.00000000 3.62000000 0.00000000
v -0.05562306 3.65437694 0.09000000
v 0.05562306 3.65437694 0.09000000
v -0.05562306 3.94562306 0.09000000
v 0.05562306 3.94562306 0.09000000
v 0.00000000 3.80000000 0.18000000
v -0.05562306 3.65437694 -0.09000000
v 0.05562306 3.65437694 -0.09000000
v -0.05562306 3.94562306 -0.09000000
v 0.05562306 3.94562306 -0.09000000
v 0.00000000 3.80000000 -0.18000000
v 0.14562306 3.89000000 -0.05562306
v 0.14562306 3.71000000 -0.05562306
v 0.09000000 3.74437694 -0.14562306
v 0.09000000 3.85562306 -0.14562306
v 0.14562306 3.89000000 0.05562306
v 0.14562306 3.71000000 0.05562306
v 0.09000000 3.74437694 0.14562306
v 0.09000000 3.85562306 0.14562306
v 0.18000000 3.80000000 0.00000000
v -0.14562306 3.89000000 -0.05562306
v -0.14562306 3.71000000 -0.05562306
v -0.09000000 3.74437694 -0.14562306
v -0.09000000 3.85562306 -0.14562306
v -0.14562306 3.89000000 0.05562306
v -0.14562306 3.71000000 0.05562306
v -0.09000000 3.74437694 0.14562306
v -0.09000000 3.85562306 0.14562306
v -0.18000000 3.80000000 0.00000000
f 2 1 5
f 2 5 3
f 3 5 6
f 3 6 4
f 5 1 7
f 5 7 6
f 6 7 8
f 6 8 4
f 7 1 9
f 7 9 8
f 8 9 10
f 8 10 4
f 9 1 11
f 9 11 10
f 10 11 12
f 10 12 4
f 11 1 13
f 11 13 12
f 12 13 14
f 12 14 4
f 13 1 15
f 13 15 14
f 14 15 16
f 14 16 4
f 15 1 17
f 15 17 16
f 16 17 18
f 16 18 4
f 17 1 19
f 17 19 18
f 18 19 20
f 18 20 4
f 19 1 21
f 19 21 20
f 20 21 22
f 20 22 4
f 21 1 23
f 21 23 22
f 22 23 24
f 22 24 4
f 23 1 25
f 23 25 24
f 24 25 26
f 24 26 4
f 25 1 2
f 25 2 26
f 26 2 3
f 26 3 4
f 28 27 30
f 28 30 29
f 30 27 31
f 30 31 29
f 31 27 32
f 31 32 29
f 32 27 33
f 32 33 29
f 33 27 34
f 33 34 29
f 34 27 35
f 34 35 29
f 35 27 36
f 35 36 29
f 36 27 37
f 36 37 29
f 37 27 38
f 37 38 29
f 38 27 28
f 38 28 29
f 40 39 43
f 40 43 41
f 41 43 44
f 41 44 42
f 43 39 45
f 43 45 44
f 44 45 46
f 44 46 42
f 45 39 47
f 45 47 46
f 46 47 48
f 46 48 42
f 47 39 49
f 47 49 48
f 48 49 50
f 48 50 42
f 49 39 51
f 49 51 50
f 50 51 52
f 50 52 42
f 51 39 53
f 51 53 52
f 52 53 54
f 52 54 42
f 53 39 55
f 53 55 54
f 54 55 56
f 54 56 42
f 55 39 40
f 55 40 56
f 56 40 41
f 56 41 42
f 57 94 73
f 94 68 97
f 73 97 62
f 94 97 73
f 57 73 69
f 73 62 74
f 69 74 58
f 73 74 69
f 57 69 78
f 69 58 79
f 78 79 64
f 69 79 78
f 57 78 90
f 78 64 93
f 90 93 67
f 78 93 90
f 57 90 94
f 90 67 98
f 94 98 68
f 90 98 94
f 58 74 85
f 74 62 88
f 85 88 66
f 74 88 85
f 62 97 75
f 97 68 96
f 75 96 61
f 97 96 75
f 68 98 95
f 98 67 91
f 95 91 59
f 98 91 95
f 67 93 92
f 93 64 80
f 92 80 63
f 93 80 92
f 64 79 84
f 79 58 81
f 84 81 65
f 79 81 84
f 60 86 72
f 86 66 87
f 72 87 61
f 86 87 72
f 60 72 70
f 72 61 71
f 70 71 59
f 72 71 70
f 60 70 77
f 70 59 76
f 77 76 63
f 70 76 77
f 60 77 82
f 77 63 83
f 82 83 65
f 77 83 82
f 60 82 86
f 82 65 89
f 86 89 66
f 82 89 86
f 61 87 75
f 87 66 88
f 75 88 62
f 87 88 75
f 59 71 95
f 71 61 96
f 95 96 68
f 71 96 95
f 63 76 92
f 76 59 91
f 92 91 67
f 76 91 92
f 65 83 84
f 83 63 80
f 84 80 64
f 83 80 84
f 66 89 85
f 89 65 81
f 85 81 58
f 89 81 85

