# https://github.com/mikedh/trimesh
v -1.32835254 1.90096189 -0.09734235
v 1.22968925 2.01828416 0.15083240
v -1.37471344 -1.57288646 -0.01368891
v 1.32964088 -1.63667705 -0.20512746
v -0.27589869 -1.05954976 2.12327615
v 0.26080530 0.97161267 1.29941527
v 0.40939458 -1.11516135 -1.66681018
v -0.03891293 1.09923586 -1.79309732
v 2.39479786 -0.16920624 -1.11230932
v 2.26428842 0.16094146 1.34258315
v -1.79469819 0.06948305 -1.25467027
v -2.15325641 -0.03052061 1.08497386
v 0.00639644 2.00673805 0.00179404
v 0.26143935 -1.99826593 0.25204546
v -0.67981275 -1.57943449 1.06138258
v 0.85542463 -1.77977376 1.07791567
v -0.90103592 1.58334155 1.02371602
v 0.99633283 1.54846148 0.92560452
v -0.26303089 0.11830345 2.00613460
v -0.74177121 -1.76606077 -0.85265580
v 0.91396354 -1.59515836 -1.19264492
v -0.78426501 1.52439947 -1.24937885
v 0.50743609 1.71891209 -1.12451094
v -0.31321209 -0.01803978 -1.89629957
v 2.23366816 0.78957354 -0.68454641
v 2.15319161 -1.03278158 -0.57741271
v 0.97178963 -0.82869313 -1.28523136
v 1.34254091 0.62242209 -1.61683772
v 1.89917168 0.90127436 0.33258644
v 1.95591737 -1.01394682 0.66525068
v 1.21353015 -0.59950526 1.71044019
v 1.41113466 0.89237278 1.72714890
v 2.38457258 -0.04093124 -0.18803420
v -2.14103719 0.93837993 -0.40860477
v -2.04719776 -0.92567879 -0.76222277
v -1.28330079 -0.85951742 -1.54755161
v -0.93671881 0.72912200 -1.66493093
v -2.15811140 1.02913128 0.66428030
v -1.54155319 -1.26528765 0.46662618
v -1.24251899 -0.69892856 1.80490796
v -1.39978192 0.56084933 1.42881949
v -2.27943094 0.17799852 0.03994218
f 1 38 17
f 38 12 41
f 17 41 6
f 38 41 17
f 1 17 13
f 17 6 18
f 13 18 2
f 17 18 13
f 1 13 22
f 13 2 23
f 22 23 8
f 13 23 22
f 1 22 34
f 22 8 37
f 34 37 11
f 22 37 34
f 1 34 38
f 34 11 42
f 38 42 12
f 34 42 38
f 2 18 29
f 18 6 32
f 29 32 10
f 18 32 29
f 6 41 19
f 41 12 40
f 19 40 5
f 41 40 19
f 12 42 39
f 42 11 35
f 39 35 3
f 42 35 39
f 11 37 36
f 37 8 24
f 36 24 7
f 37 24 36
f 8 23 28
f 23 2 25
f 28 25 9
f 23 25 28
f 4 30 16
f 30 10 31
f 16 31 5
f 30 31 16
f 4 16 14
f 16 5 15
f 14 15 3
f 16 15 14
f 4 14 21
f 14 3 20
f 21 20 7
f 14 20 21
f 4 21 26
f 21 7 27
f 26 27 9
f 21 27 26
f 4 26 30
f 26 9 33
f 30 33 10
f 26 33 30
f 5 31 19
f 31 10 32
f 19 32 6
f 31 32 19
f 3 15 39
f 15 5 40
f 39 40 12
f 15 40 39
f 7 20 36
f 20 3 35
f 36 35 11
f 20 35 36
f 9 27 28
f 27 7 24
f 28 24 8
f 27 24 28
f 10 33 29
f 33 9 25
f 29 25 2
f 33 25 29

