# https://github.com/mikedh/trimesh
v -1.53499547 1.18897326 -0.12508884
v 1.36772295 1.24614652 0.02023729
v -1.14571927 -1.17302383 0.07602938
v 1.22417406 -1.36656809 -0.13037026
v -0.06877097 -0.79476228 1.54573783
v -0.22689751 0.82528129 1.40503201
v -0.03541070 -0.73749759 -1.85895851
v -0.22259083 0.69732154 -1.59761768
v 2.10066075 -0.22435167 -1.11919808
v 2.32940638 0.11804584 1.15226894
v -2.17423878 -0.22139279 -1.02432979
v -2.16182257 0.00921598 1.29823088
v 0.03673671 1.53316006 0.09681560
v -0.05131378 -1.57972276 -0.11797969
v -0.61914919 -1.15297917 0.92167256
v 1.00308155 -1.19140571 0.78556506
v -0.65136669 1.19678721 0.78739171
v 0.87563946 1.17214751 0.93722518
v 0.11797918 -0.26309961 1.79563196
v -0.85744652 -1.18362586 -1.10641717
v 0.57319904 -1.33981626 -1.01876690
v -0.63753850 1.03952524 -1.33286064
v 0.71306725 1.16768332 -1.14543687
v 0.12234855 0.09655579 -2.09026681
v 1.95365220 0.81840350 -0.68670801
v 1.74191361 -0.75810819 -0.76271119
v 1.31505601 -0.52414636 -1.64829835
v 1.35388267 0.44854720 -1.71947658
v 1.82125111 0.95652840 0.79509137
v 1.72181193 -0.87629225 0.71147592
v 1.13232703 -0.46170588 1.74827584
v 1.27575782 0.44801953 1.54225812
v 2.48271548 0.04640211 0.27756266
v -1.80954186 0.72606636 -0.47138364
v -1.99911401 -0.92776597 -0.63509823
v -1.05106257 -0.53508902 -1.46827552
v -1.31133659 0.46670429 -1.80861792
v -1.60850677 0.80441247 0.77938276
v -2.11308435 -0.92560856 0.81189136
v -1.39237293 -0.26527919 1.59065764
v -0.92509385 0.37604228 1.33579578
v -2.36038190 -0.00816586 -0.00043531
f 1 38 17
f 38 12 41
f 17 41 6
f 38 41 17
f 1 17 13
f 17 6 18
f 13 18 2
f 17 18 13
f 1 13 22
f 13 2 23
f 22 23 8
f 13 23 22
f 1 22 34
f 22 8 37
f 34 37 11
f 22 37 34
f 1 34 38
f 34 11 42
f 38 42 12
f 34 42 38
f 2 18 29
f 18 6 32
f 29 32 10
f 18 32 29
f 6 41 19
f 41 12 40
f 19 40 5
f 41 40 19
f 12 42 39
f 42 11 35
f 39 35 3
f 42 35 39
f 11 37 36
f 37 8 24
f 36 24 7
f 37 24 36
f 8 23 28
f 23 2 25
f 28 25 9
f 23 25 28
f 4 30 16
f 30 10 31
f 16 31 5
f 30 31 16
f 4 16 14
f 16 5 15
f 14 15 3
f 16 15 14
f 4 14 21
f 14 3 20
f 21 20 7
f 14 20 21
f 4 21 26
f 21 7 27
f 26 27 9
f 21 27 26
f 4 26 30
f 26 9 33
f 30 33 10
f 26 33 30
f 5 31 19
f 31 10 32
f 19 32 6
f 31 32 19
f 3 15 39
f 15 5 40
f 39 40 12
f 15 40 39
f 7 20 36
f 20 3 35
f 36 35 11
f 20 35 36
f 9 27 28
f 27 7 24
f 28 24 8
f 27 24 28
f 10 33 29
f 33 9 25
f 29 25 2
f 33 25 29

