# https://github.com/mikedh/trimesh
v -3.50000000 0.00000000 -0.75000000
v -3.50000000 0.00000000 0.75000000
v -3.50000000 7.00000000 -0.75000000
v -3.50000000 7.00000000 0.75000000
v -2.65000000 0.00000000 -0.75000000
v -2.65000000 0.00000000 0.75000000
v -2.65000000 7.00000000 -0.75000000
v -2.65000000 7.00000000 0.75000000
v 2.65000000 0.00000000 -0.75000000
v 2.65000000 0.00000000 0.75000000
v 2.65000000 7.00000000 -0.75000000
v 2.65000000 7.00000000 0.75000000
v 3.50000000 0.00000000 -0.75000000
v 3.50000000 0.00000000 0.75000000
v 3.50000000 7.00000000 -0.75000000
v 3.50000000 7.00000000 0.75000000
v -3.50000000 6.15000000 -0.75000000
v -3.50000000 6.15000000 0.75000000
v -3.50000000 7.00000000 -0.75000000
v -3.50000000 7.00000000 0.75000000
v 3.50000000 6.15000000 -0.75000000
v 3.50000000 6.15000000 0.75000000
v 3.50000000 7.00000000 -0.75000000
v 3.50000000 7.00000000 0.75000000
v -2.19928406 6.97118850 0.20000000
v -1.85460134 6.91041163 0.20000000
v -2.09076287 5.57107309 0.20000000
v -2.43544558 5.63184995 0.20000000
v -2.02694270 6.94080007 0.50310889
v -2.26310422 5.60146152 0.50310889
v -2.37162541 7.00157693 0.50310889
v -2.60778694 5.66223838 0.50310889
v -2.54396677 7.03196536 0.20000000
v -2.78012829 5.69262681 0.20000000
v -2.37162541 7.00157693 -0.10310889
v -2.60778694 5.66223838 -0.10310889
v -2.02694270 6.94080007 -0.10310889
v -2.26310422 5.60146152 -0.10310889
v -2.14371664 7.28632698 0.20000000
v -1.79903393 7.22555012 0.20000000
v -2.25485147 6.65605002 0.20000000
v -1.97137528 7.25593855 0.50310889
v -2.31605800 7.31671541 0.50310889
v -2.48839935 7.34710384 0.20000000
v -2.31605800 7.31671541 -0.10310889
v -1.97137528 7.25593855 -0.10310889
v 1.96403348 7.17110447 -0.10000000
v 2.40719697 7.24924615 -0.10000000
v 2.72601502 5.44113912 -0.10000000
v 2.28285153 5.36299744 -0.10000000
v 2.18561522 7.21017531 0.28971143
v 2.50443328 5.40206828 0.28971143
v 1.74245173 7.13203363 0.28971143
v 2.06126979 5.32392660 0.28971143
v 1.52086999 7.09296279 -0.10000000
v 1.83968804 5.28485576 -0.10000000
v 1.74245173 7.13203363 -0.48971143
v 2.06126979 5.32392660 -0.48971143
v 2.18561522 7.21017531 -0.48971143
v 2.50443328 5.40206828 -0.48971143
v 1.88901746 7.59654142 -0.10000000
v 2.33218095 7.67468310 -0.10000000
v 2.03904949 6.74566752 -0.10000000
v 2.11059921 7.63561226 0.28971143
v 1.66743572 7.55747058 0.28971143
v 1.44585398 7.51839974 -0.10000000
v 1.66743572 7.55747058 -0.48971143
v 2.11059921 7.63561226 -0.48971143
f 2 4 1
f 5 2 1
f 1 4 3
f 3 5 1
f 2 8 4
f 6 2 5
f 6 8 2
f 4 8 3
f 7 5 3
f 3 8 7
f 7 6 5
f 8 6 7
f 10 12 9
f 13 10 9
f 9 12 11
f 11 13 9
f 10 16 12
f 14 10 13
f 14 16 10
f 12 16 11
f 15 13 11
f 11 16 15
f 15 14 13
f 16 14 15
f 18 20 17
f 21 18 17
f 17 20 19
f 19 21 17
f 18 24 20
f 22 18 21
f 22 24 18
f 20 24 19
f 23 21 19
f 19 24 23
f 23 22 21
f 24 22 23
f 26 25 29
f 26 29 27
f 27 29 30
f 27 30 28
f 29 25 31
f 29 31 30
f 30 31 32
f 30 32 28
f 31 25 33
f 31 33 32
f 32 33 34
f 32 34 28
f 33 25 35
f 33 35 34
f 34 35 36
f 34 36 28
f 35 25 37
f 35 37 36
f 36 37 38
f 36 38 28
f 37 25 26
f 37 26 38
f 38 26 27
f 38 27 28
f 40 39 42
f 40 42 41
f 42 39 43
f 42 43 41
f 43 39 44
f 43 44 41
f 44 39 45
f 44 45 41
f 45 39 46
f 45 46 41
f 46 39 40
f 46 40 41
f 48 47 51
f 48 51 49
f 49 51 52
f 49 52 50
f 51 47 53
f 51 53 52
f 52 53 54
f 52 54 50
f 53 47 55
f 53 55 54
f 54 55 56
f 54 56 50
f 55 47 57
f 55 57 56
f 56 57 58
f 56 58 50
f 57 47 59
f 57 59 58
f 58 59 60
f 58 60 50
f 59 47 48
f 59 48 60
f 60 48 49
f 60 49 50
f 62 61 64
f 62 64 63
f 64 61 65
f 64 65 63
f 65 61 66
f 65 66 63
f 66 61 67
f 66 67 63
f 67 61 68
f 67 68 63
f 68 61 62
f 68 62 63

