# https://github.com/mikedh/trimesh
v 2.35747445 3.59082593 -0.98803548
v 2.68821967 3.59348696 -0.98803548
v 2.72042456 -0.40933300 -0.98803548
v 2.38967934 -0.41199403 -0.98803548
v 2.52284706 3.59215645 -0.70159245
v 2.55505195 -0.41066352 -0.70159245
v 2.19210184 3.58949542 -0.70159245
v 2.22430674 -0.41332455 -0.70159245
v 2.02672923 3.58816491 -0.98803548
v 2.05893413 -0.41465506 -0.98803548
v 2.19210184 3.58949542 -1.27447851
v 2.22430674 -0.41332455 -1.27447851
v 2.52284706 3.59215645 -1.27447851
v 2.55505195 -0.41066352 -1.27447851
v 2.34989683 4.53266593 -0.98803548
v 2.68064205 4.53532695 -0.98803548
v 2.36505207 2.64898594 -0.98803548
v 2.51526944 4.53399644 -0.70159245
v 2.18452422 4.53133541 -0.70159245
v 2.01915161 4.53000490 -0.98803548
v 2.18452422 4.53133541 -1.27447851
v 2.51526944 4.53399644 -1.27447851
v -2.38052988 3.54945447 0.63894330
v -1.97323848 3.66970803 0.63894330
v -0.83057628 -0.20041834 0.63894330
v -1.23786768 -0.32067191 0.63894330
v -2.17688418 3.60958125 1.00672096
v -1.03422198 -0.26054512 1.00672096
v -2.58417558 3.48932768 1.00672096
v -1.44151338 -0.38079869 1.00672096
v -2.78782128 3.42920090 0.63894330
v -1.64515908 -0.44092547 0.63894330
v -2.58417558 3.48932768 0.27116564
v -1.44151338 -0.38079869 0.27116564
v -2.17688418 3.60958125 0.27116564
v -1.03422198 -0.26054512 0.27116564
v -2.64939157 4.46007244 0.63894330
v -2.24210017 4.58032600 0.63894330
v -2.11166819 2.63883650 0.63894330
v -2.44574587 4.52019922 1.00672096
v -2.85303727 4.39994565 1.00672096
v -3.05668298 4.33981887 0.63894330
v -2.85303727 4.39994565 0.27116564
v -2.44574587 4.52019922 0.27116564
v 1.39679857 3.00942460 -0.54683224
v 1.92163790 3.11883736 -0.54683224
v 2.61320387 -0.19851810 -0.54683224
v 2.08836454 -0.30793086 -0.54683224
v 1.65921823 3.06413098 -0.08253642
v 2.35078420 -0.25322448 -0.08253642
v 1.13437890 2.95471822 -0.08253642
v 1.82594487 -0.36263724 -0.08253642
v 0.87195923 2.90001184 -0.54683224
v 1.56352520 -0.41734362 -0.54683224
v 1.13437890 2.95471822 -1.01112806
v 1.82594487 -0.36263724 -1.01112806
v 1.65921823 3.06413098 -1.01112806
v 2.35078420 -0.25322448 -1.01112806
v 1.23407716 3.78997883 -0.54683224
v 1.75891650 3.89939159 -0.54683224
v 1.55951997 2.22887038 -0.54683224
v 1.49649683 3.84468521 -0.08253642
v 0.97165750 3.73527245 -0.08253642
v 0.70923783 3.68056607 -0.54683224
v 0.97165750 3.73527245 -1.01112806
v 1.49649683 3.84468521 -1.01112806
v 1.84425831 3.35757299 -1.19991793
v 2.16101591 3.44028903 -1.19991793
v 3.12150826 -0.23787606 -1.19991793
v 2.80475066 -0.32059210 -1.19991793
v 2.00263711 3.39893101 -0.91639899
v 2.96312946 -0.27923408 -0.91639899
v 1.68587951 3.31621497 -0.91639899
v 2.64637186 -0.36195012 -0.91639899
v 1.52750071 3.27485695 -1.19991793
v 2.48799306 -0.40330814 -1.19991793
v 1.68587951 3.31621497 -1.48343687
v 2.64637186 -0.36195012 -1.48343687
v 2.00263711 3.39893101 -1.48343687
v 2.96312946 -0.27923408 -1.48343687
v 1.61826011 4.22302360 -1.19991793
v 1.93501771 4.30573964 -1.19991793
v 2.07025651 2.49212238 -1.19991793
v 1.77663891 4.26438162 -0.91639899
v 1.45988131 4.18166558 -0.91639899
v 1.30150251 4.14030756 -1.19991793
v 1.45988131 4.18166558 -1.48343687
v 1.77663891 4.26438162 -1.48343687
v -1.43726840 2.45217949 1.19395035
v -0.82756436 2.45901186 1.19395035
v -0.79693280 -0.27447525 1.19395035
v -1.40663685 -0.28130761 1.19395035
v -1.13241638 2.45559568 1.72200270
v -1.10178483 -0.27789143 1.72200270
v -1.74212042 2.44876331 1.72200270
v -1.71148887 -0.28472380 1.72200270
v -2.04697245 2.44534713 1.19395035
v -2.01634089 -0.28813998 1.19395035
v -1.74212042 2.44876331 0.66589801
v -1.71148887 -0.28472380 0.66589801
v -1.13241638 2.45559568 0.66589801
v -1.10178483 -0.27789143 0.66589801
v -1.44447583 3.09535293 1.19395035
v -0.83477178 3.10218530 1.19395035
v -1.43006098 1.80900606 1.19395035
v -1.13962380 3.09876911 1.72200270
v -1.74932785 3.09193675 1.72200270
v -2.05417987 3.08852056 1.19395035
v -1.74932785 3.09193675 0.66589801
v -1.13962380 3.09876911 0.66589801
v -1.08850576 3.09619888 -0.73537471
v -0.69750211 3.14027366 -0.73537471
v -0.30972984 -0.29979787 -0.73537471
v -0.70073349 -0.34387265 -0.73537471
v -0.89300394 3.11823627 -0.39461111
v -0.50523166 -0.32183526 -0.39461111
v -1.28400759 3.07416150 -0.39461111
v -0.89623532 -0.36591003 -0.39461111
v -1.47950942 3.05212411 -0.73537471
v -1.09173714 -0.38794742 -0.73537471
v -1.28400759 3.07416150 -1.07613831
v -0.89623532 -0.36591003 -1.07613831
v -0.89300394 3.11823627 -1.07613831
v -0.50523166 -0.32183526 -1.07613831
v -1.17974630 3.90562748 -0.73537471
v -0.78874264 3.94970225 -0.73537471
v -0.99726523 2.28677029 -0.73537471
v -0.98424447 3.92766487 -0.39461111
v -1.37524813 3.88359009 -0.39461111
v -1.57074995 3.86155270 -0.73537471
v -1.37524813 3.88359009 -1.07613831
v -0.98424447 3.92766487 -1.07613831
v -1.53623398 3.66173739 -0.84575874
v -1.05751265 3.58960585 -0.84575874
v -1.66893970 -0.46830207 -0.84575874
v -2.14766103 -0.39617052 -0.84575874
v -1.29687331 3.62567162 -0.42649414
v -1.90830036 -0.43223629 -0.42649414
v -1.77559465 3.69780317 -0.42649414
v -2.38702170 -0.36010475 -0.42649414
v -2.01495531 3.73386894 -0.84575874
v -2.62638236 -0.32403897 -0.84575874
v -1.77559465 3.69780317 -1.26502334
v -2.38702170 -0.36010475 -1.26502334
v -1.29687331 3.62567162 -1.26502334
v -1.90830036 -0.43223629 -1.26502334
v -1.39236879 4.61653925 -0.84575874
v -0.91364746 4.54440771 -0.84575874
v -1.68009917 2.70693553 -0.84575874
v -1.15300813 4.58047348 -0.42649414
v -1.63172946 4.65260503 -0.42649414
v -1.87109012 4.68867080 -0.84575874
v -1.63172946 4.65260503 -1.26502334
v -1.15300813 4.58047348 -1.26502334
v -1.92651897 2.32223451 -1.22765267
v -1.51815662 2.36059772 -1.22765267
v -1.27552218 -0.22215708 -1.22765267
v -1.68388453 -0.26052029 -1.22765267
v -1.72233779 2.34141612 -0.87244336
v -1.47970336 -0.24133869 -0.87244336
v -2.13070014 2.30305291 -0.87244336
v -1.88806570 -0.27970190 -0.87244336
v -2.33488132 2.28387130 -1.22765267
v -2.09224688 -0.29888350 -1.22765267
v -2.13070014 2.30305291 -1.58286199
v -1.88806570 -0.27970190 -1.58286199
v -1.72233779 2.34141612 -1.58286199
v -1.47970336 -0.24133869 -1.58286199
v -1.98360942 2.92994153 -1.22765267
v -1.57524708 2.96830474 -1.22765267
v -1.86942851 1.71452750 -1.22765267
v -1.77942825 2.94912313 -0.87244336
v -2.18779060 2.91075992 -0.87244336
v -2.39197177 2.89157831 -1.22765267
v -2.18779060 2.91075992 -1.58286199
v -1.77942825 2.94912313 -1.58286199
v 1.78774079 2.52421095 0.93298798
v 2.11813364 2.51528635 0.93298798
v 2.04213958 -0.29804982 0.93298798
v 1.71174672 -0.28912522 0.93298798
v 1.95293722 2.51974865 1.21922096
v 1.87694315 -0.29358752 1.21922096
v 1.62254436 2.52867325 1.21922096
v 1.54655029 -0.28466292 1.21922096
v 1.45734793 2.53313555 0.93298798
v 1.38135386 -0.28020062 0.93298798
v 1.62254436 2.52867325 0.64675501
v 1.54655029 -0.28466292 0.64675501
v 1.95293722 2.51974865 0.64675501
v 1.87694315 -0.29358752 0.64675501
v 1.80562175 3.18617240 0.93298798
v 2.13601460 3.17724780 0.93298798
v 1.76985983 1.86224950 0.93298798
v 1.97081817 3.18171010 1.21922096
v 1.64042532 3.19063470 1.21922096
v 1.47522889 3.19509700 0.93298798
v 1.64042532 3.19063470 0.64675501
v 1.97081817 3.18171010 0.64675501
v -1.45791355 -0.01378703 -0.10260138
v 1.39676926 -0.03524146 0.45137828
v -1.67403113 -0.59458798 0.15326028
v 1.78422958 -0.62367859 -0.17434192
v 0.11037754 -0.50284222 2.04409138
v -0.13267924 -0.14170144 1.83470647
v -0.21450339 -0.48547505 -2.24850714
v -0.13333489 -0.07849102 -1.95578709
v 3.20885996 -0.24271050 -1.24284744
v 2.99818989 -0.31294652 1.13959437
v -2.98578415 -0.28971542 -1.01178926
v -2.60581287 -0.29162470 1.01924080
v -0.06160650 0.05835854 0.04496141
v -0.21893654 -0.62871865 0.24736369
v -1.00829935 -0.55515745 1.12682370
v 0.69682401 -0.58938653 1.36108776
v -1.05318958 -0.02440373 0.96134619
v 0.75963468 0.06736652 1.27307705
v 0.00902422 -0.25810869 2.10164096
v -1.05801490 -0.57155697 -1.31560684
v 1.45985945 -0.53867913 -0.99669907
v -1.04491799 0.00451109 -1.32789005
v 0.70947371 -0.04472595 -1.13172932
v 0.11698259 -0.30660405 -2.12791301
v 2.68158312 -0.14873774 -0.84445881
v 3.12921471 -0.46954907 -0.74582347
v 1.64508768 -0.41728486 -1.70404521
v 1.10209811 -0.20205805 -1.46403467
v 2.87498830 -0.13560208 0.70929917
v 2.69000065 -0.47619644 0.72090499
v 1.46799600 -0.40299824 1.82898809
v 1.21572466 -0.18378129 1.47543344
v 3.14792093 -0.28359270 -0.14460851
v -2.53777772 -0.10613140 -0.66961521
v -2.64820402 -0.47703492 -0.75956405
v -1.73897821 -0.48183272 -1.55406109
v -1.64947165 -0.26088001 -1.46163689
v -2.20464200 -0.13608905 0.92450025
v -2.23233575 -0.49476966 0.39757840
v -1.82464174 -0.38561036 1.75374535
v -1.25343135 -0.18532013 1.54876731
v -3.21774175 -0.27791262 0.30766959
f 2 1 5
f 2 5 3
f 3 5 6
f 3 6 4
f 5 1 7
f 5 7 6
f 6 7 8
f 6 8 4
f 7 1 9
f 7 9 8
f 8 9 10
f 8 10 4
f 9 1 11
f 9 11 10
f 10 11 12
f 10 12 4
f 11 1 13
f 11 13 12
f 12 13 14
f 12 14 4
f 13 1 2
f 13 2 14
f 14 2 3
f 14 3 4
f 16 15 18
f 16 18 17
f 18 15 19
f 18 19 17
f 19 15 20
f 19 20 17
f 20 15 21
f 20 21 17
f 21 15 22
f 21 22 17
f 22 15 16
f 22 16 17
f 24 23 27
f 24 27 25
f 25 27 28
f 25 28 26
f 27 23 29
f 27 29 28
f 28 29 30
f 28 30 26
f 29 23 31
f 29 31 30
f 30 31 32
f 30 32 26
f 31 23 33
f 31 33 32
f 32 33 34
f 32 34 26
f 33 23 35
f 33 35 34
f 34 35 36
f 34 36 26
f 35 23 24
f 35 24 36
f 36 24 25
f 36 25 26
f 38 37 40
f 38 40 39
f 40 37 41
f 40 41 39
f 41 37 42
f 41 42 39
f 42 37 43
f 42 43 39
f 43 37 44
f 43 44 39
f 44 37 38
f 44 38 39
f 46 45 49
f 46 49 47
f 47 49 50
f 47 50 48
f 49 45 51
f 49 51 50
f 50 51 52
f 50 52 48
f 51 45 53
f 51 53 52
f 52 53 54
f 52 54 48
f 53 45 55
f 53 55 54
f 54 55 56
f 54 56 48
f 55 45 57
f 55 57 56
f 56 57 58
f 56 58 48
f 57 45 46
f 57 46 58
f 58 46 47
f 58 47 48
f 60 59 62
f 60 62 61
f 62 59 63
f 62 63 61
f 63 59 64
f 63 64 61
f 64 59 65
f 64 65 61
f 65 59 66
f 65 66 61
f 66 59 60
f 66 60 61
f 68 67 71
f 68 71 69
f 69 71 72
f 69 72 70
f 71 67 73
f 71 73 72
f 72 73 74
f 72 74 70
f 73 67 75
f 73 75 74
f 74 75 76
f 74 76 70
f 75 67 77
f 75 77 76
f 76 77 78
f 76 78 70
f 77 67 79
f 77 79 78
f 78 79 80
f 78 80 70
f 79 67 68
f 79 68 80
f 80 68 69
f 80 69 70
f 82 81 84
f 82 84 83
f 84 81 85
f 84 85 83
f 85 81 86
f 85 86 83
f 86 81 87
f 86 87 83
f 87 81 88
f 87 88 83
f 88 81 82
f 88 82 83
f 90 89 93
f 90 93 91
f 91 93 94
f 91 94 92
f 93 89 95
f 93 95 94
f 94 95 96
f 94 96 92
f 95 89 97
f 95 97 96
f 96 97 98
f 96 98 92
f 97 89 99
f 97 99 98
f 98 99 100
f 98 100 92
f 99 89 101
f 99 101 100
f 100 101 102
f 100 102 92
f 101 89 90
f 101 90 102
f 102 90 91
f 102 91 92
f 104 103 106
f 104 106 105
f 106 103 107
f 106 107 105
f 107 103 108
f 107 108 105
f 108 103 109
f 108 109 105
f 109 103 110
f 109 110 105
f 110 103 104
f 110 104 105
f 112 111 115
f 112 115 113
f 113 115 116
f 113 116 114
f 115 111 117
f 115 117 116
f 116 117 118
f 116 118 114
f 117 111 119
f 117 119 118
f 118 119 120
f 118 120 114
f 119 111 121
f 119 121 120
f 120 121 122
f 120 122 114
f 121 111 123
f 121 123 122
f 122 123 124
f 122 124 114
f 123 111 112
f 123 112 124
f 124 112 113
f 124 113 114
f 126 125 128
f 126 128 127
f 128 125 129
f 128 129 127
f 129 125 130
f 129 130 127
f 130 125 131
f 130 131 127
f 131 125 132
f 131 132 127
f 132 125 126
f 132 126 127
f 134 133 137
f 134 137 135
f 135 137 138
f 135 138 136
f 137 133 139
f 137 139 138
f 138 139 140
f 138 140 136
f 139 133 141
f 139 141 140
f 140 141 142
f 140 142 136
f 141 133 143
f 141 143 142
f 142 143 144
f 142 144 136
f 143 133 145
f 143 145 144
f 144 145 146
f 144 146 136
f 145 133 134
f 145 134 146
f 146 134 135
f 146 135 136
f 148 147 150
f 148 150 149
f 150 147 151
f 150 151 149
f 151 147 152
f 151 152 149
f 152 147 153
f 152 153 149
f 153 147 154
f 153 154 149
f 154 147 148
f 154 148 149
f 156 155 159
f 156 159 157
f 157 159 160
f 157 160 158
f 159 155 161
f 159 161 160
f 160 161 162
f 160 162 158
f 161 155 163
f 161 163 162
f 162 163 164
f 162 164 158
f 163 155 165
f 163 165 164
f 164 165 166
f 164 166 158
f 165 155 167
f 165 167 166
f 166 167 168
f 166 168 158
f 167 155 156
f 167 156 168
f 168 156 157
f 168 157 158
f 170 169 172
f 170 172 171
f 172 169 173
f 172 173 171
f 173 169 174
f 173 174 171
f 174 169 175
f 174 175 171
f 175 169 176
f 175 176 171
f 176 169 170
f 176 170 171
f 178 177 181
f 178 181 179
f 179 181 182
f 179 182 180
f 181 177 183
f 181 183 182
f 182 183 184
f 182 184 180
f 183 177 185
f 183 185 184
f 184 185 186
f 184 186 180
f 185 177 187
f 185 187 186
f 186 187 188
f 186 188 180
f 187 177 189
f 187 189 188
f 188 189 190
f 188 190 180
f 189 177 178
f 189 178 190
f 190 178 179
f 190 179 180
f 192 191 194
f 192 194 193
f 194 191 195
f 194 195 193
f 195 191 196
f 195 196 193
f 196 191 197
f 196 197 193
f 197 191 198
f 197 198 193
f 198 191 192
f 198 192 193
f 199 236 215
f 236 210 239
f 215 239 204
f 236 239 215
f 199 215 211
f 215 204 216
f 211 216 200
f 215 216 211
f 199 211 220
f 211 200 221
f 220 221 206
f 211 221 220
f 199 220 232
f 220 206 235
f 232 235 209
f 220 235 232
f 199 232 236
f 232 209 240
f 236 240 210
f 232 240 236
f 200 216 227
f 216 204 230
f 227 230 208
f 216 230 227
f 204 239 217
f 239 210 238
f 217 238 203
f 239 238 217
f 210 240 237
f 240 209 233
f 237 233 201
f 240 233 237
f 209 235 234
f 235 206 222
f 234 222 205
f 235 222 234
f 206 221 226
f 221 200 223
f 226 223 207
f 221 223 226
f 202 228 214
f 228 208 229
f 214 229 203
f 228 229 214
f 202 214 212
f 214 203 213
f 212 213 201
f 214 213 212
f 202 212 219
f 212 201 218
f 219 218 205
f 212 218 219
f 202 219 224
f 219 205 225
f 224 225 207
f 219 225 224
f 202 224 228
f 224 207 231
f 228 231 208
f 224 231 228
f 203 229 217
f 229 208 230
f 217 230 204
f 229 230 217
f 201 213 237
f 213 203 238
f 237 238 210
f 213 238 237
f 205 218 234
f 218 201 233
f 234 233 209
f 218 233 234
f 207 225 226
f 225 205 222
f 226 222 206
f 225 222 226
f 208 231 227
f 231 207 223
f 227 223 200
f 231 223 227

