# https://github.com/mikedh/trimesh
v -1.00000000 2.50000000 0.00000000
v -0.20000000 2.50000000 0.00000000
v -1.00000000 -2.50000000 0.00000000
v -0.43431458 2.50000000 0.56568542
v -1.00000000 2.50000000 0.80000000
v -1.56568542 2.50000000 0.56568542
v -1.80000000 2.50000000 0.00000000
v -1.56568542 2.50000000 -0.56568542
v -1.00000000 2.50000000 -0.80000000
v -0.43431458 2.50000000 -0.56568542
v 0.40000000 1.90000000 0.40000000
v 1.00000000 1.90000000 0.40000000
v 0.40000000 -1.90000000 0.40000000
v 0.82426407 1.90000000 0.82426407
v 0.40000000 1.90000000 1.00000000
v -0.02426407 1.90000000 0.82426407
v -0.20000000 1.90000000 0.40000000
v -0.02426407 1.90000000 -0.02426407
v 0.40000000 1.90000000 -0.20000000
v 0.82426407 1.90000000 -0.02426407
v 1.30000000 1.50000000 -0.30000000
v 1.80000000 1.50000000 -0.30000000
v 1.30000000 -1.50000000 -0.30000000
v 1.65355339 1.50000000 0.05355339
v 1.30000000 1.50000000 0.20000000
v 0.94644661 1.50000000 0.05355339
v 0.80000000 1.50000000 -0.30000000
v 0.94644661 1.50000000 -0.65355339
v 1.30000000 1.50000000 -0.80000000
v 1.65355339 1.50000000 -0.65355339
f 2 1 4
f 2 4 3
f 4 1 5
f 4 5 3
f 5 1 6
f 5 6 3
f 6 1 7
f 6 7 3
f 7 1 8
f 7 8 3
f 8 1 9
f 8 9 3
f 9 1 10
f 9 10 3
f 10 1 2
f 10 2 3
f 12 11 14
f 12 14 13
f 14 11 15
f 14 15 13
f 15 11 16
f 15 16 13
f 16 11 17
f 16 17 13
f 17 11 18
f 17 18 13
f 18 11 19
f 18 19 13
f 19 11 20
f 19 20 13
f 20 11 12
f 20 12 13
f 22 21 24
f 22 24 23
f 24 21 25
f 24 25 23
f 25 21 26
f 25 26 23
f 26 21 27
f 26 27 23
f 27 21 28
f 27 28 23
f 28 21 29
f 28 29 23
f 29 21 30
f 29 30 23
f 30 21 22
f 30 22 23

