# https://github.com/mikedh/trimesh
v -1.37581535 1.17533738 0.02010206
v 1.18219232 1.29497403 0.39020189
v -1.22640127 -1.18353387 -0.12710932
v 1.13303677 -1.18120666 -0.15362175
v -0.18643488 -0.73874034 1.62708557
v 0.12444561 0.68081384 1.84346319
v -0.45128545 -0.89580946 -1.91687876
v 0.03632492 0.60803851 -1.54087693
v 1.92801262 0.11534531 -1.05814832
v 2.33417131 0.13698352 0.95685853
v -2.09816828 0.08982135 -1.02555327
v -1.86749338 0.15692371 1.00682551
v -0.36292874 1.49574074 0.21869258
v -0.06154961 -1.55299970 -0.05857806
v -0.65671044 -1.04506086 0.69517867
v 0.91885021 -1.27965400 0.76294326
v -0.57651607 1.18088426 0.90721292
v 0.75976811 1.09769872 1.10107458
v -0.13031718 0.23539127 2.09363688
v -0.85095841 -1.23138209 -1.16505311
v 0.88925366 -1.13562815 -1.29795024
v -0.74154823 1.29861756 -0.85155364
v 0.69795526 1.14225660 -0.99823129
v 0.15483582 0.05817716 -1.95595963
v 1.97936230 0.65391772 -0.85262861
v 2.11029868 -0.80248855 -0.57225900
v 1.76870838 -0.62836085 -1.40778880
v 1.07753923 0.43142863 -1.71187290
v 2.04386771 0.82068325 0.68540471
v 2.39858471 -0.79178442 0.79987451
v 1.19901401 -0.54605088 1.64235009
v 0.98828695 0.63103620 1.87212318
v 2.46091524 -0.14460174 0.12519178
v -1.96191615 0.85705587 -0.71692501
v -1.92504708 -0.64895145 -0.24309190
v -1.36589459 -0.33271741 -1.65854567
v -1.17145920 0.68837730 -1.81384495
v -2.27222308 0.75744940 0.59530727
v -1.58844859 -0.84019840 0.96164147
v -1.23503746 -0.33544547 1.54938534
v -1.53330916 0.44864573 1.78197057
v -2.58941324 -0.10180219 0.16605376
f 1 38 17
f 38 12 41
f 17 41 6
f 38 41 17
f 1 17 13
f 17 6 18
f 13 18 2
f 17 18 13
f 1 13 22
f 13 2 23
f 22 23 8
f 13 23 22
f 1 22 34
f 22 8 37
f 34 37 11
f 22 37 34
f 1 34 38
f 34 11 42
f 38 42 12
f 34 42 38
f 2 18 29
f 18 6 32
f 29 32 10
f 18 32 29
f 6 41 19
f 41 12 40
f 19 40 5
f 41 40 19
f 12 42 39
f 42 11 35
f 39 35 3
f 42 35 39
f 11 37 36
f 37 8 24
f 36 24 7
f 37 24 36
f 8 23 28
f 23 2 25
f 28 25 9
f 23 25 28
f 4 30 16
f 30 10 31
f 16 31 5
f 30 31 16
f 4 16 14
f 16 5 15
f 14 15 3
f 16 15 14
f 4 14 21
f 14 3 20
f 21 20 7
f 14 20 21
f 4 21 26
f 21 7 27
f 26 27 9
f 21 27 26
f 4 26 30
f 26 9 33
f 30 33 10
f 26 33 30
f 5 31 19
f 31 10 32
f 19 32 6
f 31 32 19
f 3 15 39
f 15 5 40
f 39 40 12
f 15 40 39
f 7 20 36
f 20 3 35
f 36 35 11
f 20 35 36
f 9 27 28
f 27 7 24
f 28 24 8
f 27 24 28
f 10 33 29
f 33 9 25
f 29 25 2
f 33 25 29

