# https://github.com/mikedh/trimesh
v -3.00000000 0.00000000 0.00000000
v -2.98905158 0.00045511 -0.21972693
v 3.01094842 0.50045511 0.08027307
v 3.00000000 0.50000000 0.30000000
v -3.00516113 0.15534895 -0.15569222
v 2.99483887 0.65534895 0.14430778
v -3.01824737 0.21924148 -0.00045511
v 2.98175263 0.71924148 0.29954489
v -3.02064454 0.15470532 0.15504859
v 2.97935546 0.65470532 0.45504859
v -3.01094842 -0.00045511 0.21972693
v 2.98905158 0.49954489 0.51972693
v -2.99483887 -0.15534895 0.15569222
v 3.00516113 0.34465105 0.45569222
v -2.98175263 -0.21924148 0.00045511
v 3.01824737 0.28075852 0.30045511
v -2.97935546 -0.15470532 -0.15504859
v 3.02064454 0.34529468 0.14495141
v -0.80000000 0.10000000 0.10000000
v -0.74532066 0.07844069 0.22706442
v -1.74532066 1.07844069 0.82706442
v -1.80000000 1.10000000 0.70000000
v -0.69465794 0.16792149 0.16236762
v -1.69465794 1.16792149 0.76236762
v -0.72331994 0.20625602 0.05070674
v -1.72331994 1.20625602 0.65070674
v -0.80972359 0.16457760 -0.02383532
v -1.80972359 1.16457760 0.57616468
v -0.88880518 0.07427093 -0.00512685
v -1.88880518 1.07427093 0.59487315
v -0.90101466 0.00333877 0.09274428
v -1.90101466 1.00333877 0.69274428
v -0.83715804 0.00519449 0.19607911
v -1.83715804 1.00519449 0.79607911
v 1.10000000 0.35000000 0.20000000
v 1.03253402 0.32419034 0.08007418
v 1.93253402 1.22419034 -0.61992582
v 2.00000000 1.25000000 -0.50000000
v 0.99011804 0.41742017 0.14540628
v 1.89011804 1.31742017 -0.55459372
v 1.03044542 0.45988124 0.25184856
v 1.93044542 1.35988124 -0.44815144
v 1.12314882 0.41959949 0.31924782
v 2.02314882 1.31959949 -0.38075218
v 1.19842068 0.32690790 0.29685104
v 2.09842068 1.22690790 -0.40314896
v 1.19957977 0.25160514 0.20152345
v 2.09957977 1.15160514 -0.49847655
v 1.12575326 0.25039571 0.10504867
v 2.02575326 1.15039571 -0.59495133
f 2 1 5
f 2 5 3
f 3 5 6
f 3 6 4
f 5 1 7
f 5 7 6
f 6 7 8
f 6 8 4
f 7 1 9
f 7 9 8
f 8 9 10
f 8 10 4
f 9 1 11
f 9 11 10
f 10 11 12
f 10 12 4
f 11 1 13
f 11 13 12
f 12 13 14
f 12 14 4
f 13 1 15
f 13 15 14
f 14 15 16
f 14 16 4
f 15 1 17
f 15 17 16
f 16 17 18
f 16 18 4
f 17 1 2
f 17 2 18
f 18 2 3
f 18 3 4
f 20 19 23
f 20 23 21
f 21 23 24
f 21 24 22
f 23 19 25
f 23 25 24
f 24 25 26
f 24 26 22
f 25 19 27
f 25 27 26
f 26 27 28
f 26 28 22
f 27 19 29
f 27 29 28
f 28 29 30
f 28 30 22
f 29 19 31
f 29 31 30
f 30 31 32
f 30 32 22
f 31 19 33
f 31 33 32
f 32 33 34
f 32 34 22
f 33 19 20
f 33 20 34
f 34 20 21
f 34 21 22
f 36 35 39
f 36 39 37
f 37 39 40
f 37 40 38
f 39 35 41
f 39 41 40
f 40 41 42
f 40 42 38
f 41 35 43
f 41 43 42
f 42 43 44
f 42 44 38
f 43 35 45
f 43 45 44
f 44 45 46
f 44 46 38
f 45 35 47
f 45 47 46
f 46 47 48
f 46 48 38
f 47 35 49
f 47 49 48
f 48 49 50
f 48 50 38
f 49 35 36
f 49 36 50
f 50 36 37
f 50 37 38

