# https://github.com/mikedh/trimesh
v -1.26430506 0.92571983 -0.06922034
v 1.08580182 0.77504148 0.26640341
v -1.20633982 -0.83665281 -0.03904576
v 1.39943608 -0.82659447 -0.12170389
v -0.06431478 -0.59293130 1.16473495
v -0.01772996 0.41268126 1.36456450
v -0.28813074 -0.51896640 -1.18389749
v 0.08144548 0.67219948 -1.24737098
v 1.87052509 -0.04499803 -0.56308065
v 1.31123985 0.02393093 0.69174066
v -1.55842240 -0.07742904 -0.79610328
v -1.62650569 -0.07072835 0.79913135
v 0.10022145 0.97422593 -0.06837775
v 0.00055092 -0.84767201 -0.09213168
v -0.46420224 -0.97246249 0.63429285
v 0.63614917 -0.74055605 0.72264591
v -0.57147199 0.69543244 0.63981455
v 0.74374215 0.82259131 0.74071125
v -0.23560513 0.13744514 1.67643561
v -0.64412142 -0.76583701 -0.88785710
v 0.74483788 -0.79603873 -0.78655353
v -0.93888305 0.74298173 -0.93262712
v 0.77255516 0.75946025 -0.55110351
v 0.07873676 -0.05760577 -1.33647428
v 1.82198580 0.52181455 -0.68923550
v 1.73366385 -0.43137065 -0.39241547
v 0.86951458 -0.41237306 -1.39886654
v 0.71731181 0.24209523 -1.08305109
v 1.84110611 0.47823908 0.39625610
v 1.76105858 -0.46811995 0.57394696
v 0.98664685 -0.34544914 1.37273351
v 0.86005176 0.37150184 1.11586890
v 2.03362438 -0.02466609 -0.00438622
v -1.70390693 0.61990855 -0.46902811
v -1.67498211 -0.52248656 -0.26393711
v -1.06659282 -0.38179438 -1.36511314
v -0.96799440 0.27023105 -1.25985945
v -1.56421442 0.65471250 0.52359323
v -1.45570644 -0.54937103 0.56151305
v -0.86844213 -0.27165428 1.29218765
v -1.18149201 0.41095573 1.18667561
v -2.14002482 0.00743913 0.03727655
v -1.80000000 0.00000000 0.00000000
v -1.78810072 0.01016889 -0.09876741
v -1.53810072 1.66016889 0.10123259
v -1.55000000 1.65000000 0.20000000
v -1.86933260 0.01893292 -0.06953083
v -1.61933260 1.66893292 0.13046917
v -1.89835561 0.01344008 0.01206389
v -1.64835561 1.66344008 0.21206389
v -1.85331485 -0.00217342 0.08457425
v -1.60331485 1.64782658 0.28457425
v -1.76812692 -0.01615028 0.09339847
v -1.51812692 1.63384972 0.29339847
v -1.70694006 -0.01796566 0.03189175
v -1.45694006 1.63203434 0.23189175
v -1.71582924 -0.00625252 -0.05363012
v -1.46582924 1.64374748 0.14636988
v -1.55000000 1.65000000 0.20000000
v -1.57019044 1.66561487 0.29668775
v -1.97019044 3.31561487 -0.05331225
v -1.95000000 3.30000000 -0.15000000
v -1.48817107 1.68036593 0.27249203
v -1.88817107 3.33036593 -0.07750797
v -1.45271015 1.67225082 0.19370832
v -1.85271015 3.32225082 -0.15629168
v -1.49051046 1.64738039 0.11966238
v -1.89051046 3.29738039 -0.23033762
v -1.57310762 1.62448258 0.10611230
v -1.97310762 3.27448258 -0.24388770
v -1.63830426 1.62079991 0.16326158
v -2.03830426 3.27079991 -0.18673842
v -1.63700600 1.63910550 0.24807563
v -2.03700600 3.28910550 -0.10192437
v -1.95000000 3.30000000 -0.15000000
v -1.94137047 3.30709316 -0.24937413
v -1.61137047 5.00709316 -0.09937413
v -1.62000000 5.00000000 -0.00000000
v -2.02108374 3.31975488 -0.21750442
v -1.69108374 5.01975488 -0.06750442
v -2.04726951 3.31754077 -0.13480250
v -1.71726951 5.01754077 0.01519750
v -2.00020935 3.30211810 -0.06354461
v -1.67020935 5.00211810 0.08645539
v -1.91534053 3.28510046 -0.05738939
v -1.58534053 4.98510046 0.09261061
v -1.85657099 3.27930247 -0.12097185
v -1.52657099 4.97930247 0.02902815
v -1.86815541 3.28909015 -0.20641310
v -1.53815541 4.98909015 -0.05641310
v -1.77058489 1.56805206 0.00000000
v -0.92941511 1.56805206 0.00000000
v -1.77058489 1.43194794 0.00000000
v -0.92941511 1.43194794 0.00000000
v -1.35000000 1.45794151 0.23818223
v -1.35000000 1.54205849 0.23818223
v -1.35000000 1.45794151 -0.23818223
v -1.35000000 1.54205849 -0.23818223
v -0.66947935 1.50000000 -0.14720471
v -0.66947935 1.50000000 0.14720471
v -2.03052065 1.50000000 -0.14720471
v -2.03052065 1.50000000 0.14720471
v -1.35000000 1.58000000 0.00000000
v -1.35000000 1.42000000 0.00000000
v -1.59721360 1.43527864 0.14000000
v -1.10278640 1.43527864 0.14000000
v -1.59721360 1.56472136 0.14000000
v -1.10278640 1.56472136 0.14000000
v -1.35000000 1.50000000 0.28000000
v -1.59721360 1.43527864 -0.14000000
v -1.10278640 1.43527864 -0.14000000
v -1.59721360 1.56472136 -0.14000000
v -1.10278640 1.56472136 -0.14000000
v -1.35000000 1.50000000 -0.28000000
v -0.70278640 1.54000000 -0.08652476
v -0.70278640 1.46000000 -0.08652476
v -0.95000000 1.47527864 -0.22652476
v -0.95000000 1.52472136 -0.22652476
v -0.70278640 1.54000000 0.08652476
v -0.70278640 1.46000000 0.08652476
v -0.95000000 1.47527864 0.22652476
v -0.95000000 1.52472136 0.22652476
v -0.55000000 1.50000000 0.00000000
v -1.99721360 1.54000000 -0.08652476
v -1.99721360 1.46000000 -0.08652476
v -1.75000000 1.47527864 -0.22652476
v -1.75000000 1.52472136 -0.22652476
v -1.99721360 1.54000000 0.08652476
v -1.99721360 1.46000000 0.08652476
v -1.75000000 1.47527864 0.22652476
v -1.75000000 1.52472136 0.22652476
v -2.15000000 1.50000000 0.00000000
v -2.67058489 2.66805206 0.00000000
v -1.82941511 2.66805206 0.00000000
v -2.67058489 2.53194794 0.00000000
v -1.82941511 2.53194794 0.00000000
v -2.25000000 2.55794151 0.23818223
v -2.25000000 2.64205849 0.23818223
v -2.25000000 2.55794151 -0.23818223
v -2.25000000 2.64205849 -0.23818223
v -1.56947935 2.60000000 -0.14720471
v -1.56947935 2.60000000 0.14720471
v -2.93052065 2.60000000 -0.14720471
v -2.93052065 2.60000000 0.14720471
v -2.25000000 2.68000000 0.00000000
v -2.25000000 2.52000000 0.00000000
v -2.49721360 2.53527864 0.14000000
v -2.00278640 2.53527864 0.14000000
v -2.49721360 2.66472136 0.14000000
v -2.00278640 2.66472136 0.14000000
v -2.25000000 2.60000000 0.28000000
v -2.49721360 2.53527864 -0.14000000
v -2.00278640 2.53527864 -0.14000000
v -2.49721360 2.66472136 -0.14000000
v -2.00278640 2.66472136 -0.14000000
v -2.25000000 2.60000000 -0.28000000
v -1.60278640 2.64000000 -0.08652476
v -1.60278640 2.56000000 -0.08652476
v -1.85000000 2.57527864 -0.22652476
v -1.85000000 2.62472136 -0.22652476
v -1.60278640 2.64000000 0.08652476
v -1.60278640 2.56000000 0.08652476
v -1.85000000 2.57527864 0.22652476
v -1.85000000 2.62472136 0.22652476
v -1.45000000 2.60000000 0.00000000
v -2.89721360 2.64000000 -0.08652476
v -2.89721360 2.56000000 -0.08652476
v -2.65000000 2.57527864 -0.22652476
v -2.65000000 2.62472136 -0.22652476
v -2.89721360 2.64000000 0.08652476
v -2.89721360 2.56000000 0.08652476
v -2.65000000 2.57527864 0.22652476
v -2.65000000 2.62472136 0.22652476
v -3.05000000 2.60000000 0.00000000
v -1.77058489 3.76805206 0.00000000
v -0.92941511 3.76805206 0.00000000
v -1.77058489 3.63194794 0.00000000
v -0.92941511 3.63194794 0.00000000
v -1.35000000 3.65794151 0.23818223
v -1.35000000 3.74205849 0.23818223
v -1.35000000 3.65794151 -0.23818223
v -1.35000000 3.74205849 -0.23818223
v -0.66947935 3.70000000 -0.14720471
v -0.66947935 3.70000000 0.14720471
v -2.03052065 3.70000000 -0.14720471
v -2.03052065 3.70000000 0.14720471
v -1.35000000 3.78000000 0.00000000
v -1.35000000 3.62000000 0.00000000
v -1.59721360 3.63527864 0.14000000
v -1.10278640 3.63527864 0.14000000
v -1.59721360 3.76472136 0.14000000
v -1.10278640 3.76472136 0.14000000
v -1.35000000 3.70000000 0.28000000
v -1.59721360 3.63527864 -0.14000000
v -1.10278640 3.63527864 -0.14000000
v -1.59721360 3.76472136 -0.14000000
v -1.10278640 3.76472136 -0.14000000
v -1.35000000 3.70000000 -0.28000000
v -0.70278640 3.74000000 -0.08652476
v -0.70278640 3.66000000 -0.08652476
v -0.95000000 3.67527864 -0.22652476
v -0.95000000 3.72472136 -0.22652476
v -0.70278640 3.74000000 0.08652476
v -0.70278640 3.66000000 0.08652476
v -0.95000000 3.67527864 0.22652476
v -0.95000000 3.72472136 0.22652476
v -0.55000000 3.70000000 0.00000000
v -1.99721360 3.74000000 -0.08652476
v -1.99721360 3.66000000 -0.08652476
v -1.75000000 3.67527864 -0.22652476
v -1.75000000 3.72472136 -0.22652476
v -1.99721360 3.74000000 0.08652476
v -1.99721360 3.66000000 0.08652476
v -1.75000000 3.67527864 0.22652476
v -1.75000000 3.72472136 0.22652476
v -2.15000000 3.70000000 0.00000000
v -1.20000000 -0.00000000 -0.00000000
v -1.19002850 0.00875268 -0.09911589
v -0.94002850 1.98875268 0.10088411
v -0.95000000 1.98000000 0.20000000
v -1.27096358 0.01589347 -0.06864087
v -1.02096358 1.99589347 0.13135913
v -1.29846163 0.01106615 0.01352213
v -1.04846163 1.99106615 0.21352213
v -1.25181607 -0.00209420 0.08550269
v -1.00181607 1.97790580 0.28550269
v -1.16615195 -0.01367758 0.09309798
v -0.91615195 1.96632242 0.29309798
v -1.10597611 -0.01496146 0.03058859
v -0.85597611 1.96503854 0.23058859
v -1.11660217 -0.00497906 -0.05495463
v -0.86660217 1.97502094 0.14504537
v -0.95000000 1.98000000 0.20000000
v -0.96707236 1.99379670 0.29756119
v -1.36707236 3.97379670 -0.05243881
v -1.35000000 3.96000000 -0.15000000
v -0.88513455 2.00576337 0.27161510
v -1.28513455 3.98576337 -0.07838490
v -0.85204175 1.99832969 0.19174138
v -1.25204175 3.97832969 -0.15825862
v -0.89271351 1.97709338 0.11808657
v -1.29271351 3.95709338 -0.23191343
v -0.97652316 1.95804582 0.10611424
v -1.37652316 3.93804582 -0.24388576
v -1.04036033 1.95553020 0.16483980
v -1.44036033 3.93553020 -0.18516020
v -1.03615433 1.97144084 0.25004171
v -1.43615433 3.95144084 -0.09995829
v -1.35000000 3.96000000 -0.15000000
v -1.34276046 3.96614860 -0.24954790
v -1.01276046 6.00614860 -0.09954790
v -1.02000000 6.00000000 0.00000000
v -1.42246356 3.97663927 -0.21687427
v -1.09246356 6.01663927 -0.06687427
v -1.44760012 3.97460024 -0.13384295
v -1.11760012 6.01460024 0.01615705
v -1.39924180 3.96156692 -0.06297822
v -1.06924180 6.00156692 0.08702178
v -1.31380340 3.94735369 -0.05764267
v -0.98380340 5.98735369 0.09235733
v -1.25562178 3.94266338 -0.12185407
v -0.92562178 5.98266338 0.02814593
v -1.26850889 3.95102790 -0.20725993
v -0.93850889 5.99102790 -0.05725993
v -1.17058489 1.86805206 0.00000000
v -0.32941511 1.86805206 0.00000000
v -1.17058489 1.73194794 0.00000000
v -0.32941511 1.73194794 0.00000000
v -0.75000000 1.75794151 0.23818223
v -0.75000000 1.84205849 0.23818223
v -0.75000000 1.75794151 -0.23818223
v -0.75000000 1.84205849 -0.23818223
v -0.06947935 1.80000000 -0.14720471
v -0.06947935 1.80000000 0.14720471
v -1.43052065 1.80000000 -0.14720471
v -1.43052065 1.80000000 0.14720471
v -0.75000000 1.88000000 0.00000000
v -0.75000000 1.72000000 0.00000000
v -0.99721360 1.73527864 0.14000000
v -0.50278640 1.73527864 0.14000000
v -0.99721360 1.86472136 0.14000000
v -0.50278640 1.86472136 0.14000000
v -0.75000000 1.80000000 0.28000000
v -0.99721360 1.73527864 -0.14000000
v -0.50278640 1.73527864 -0.14000000
v -0.99721360 1.86472136 -0.14000000
v -0.50278640 1.86472136 -0.14000000
v -0.75000000 1.80000000 -0.28000000
v -0.10278640 1.84000000 -0.08652476
v -0.10278640 1.76000000 -0.08652476
v -0.35000000 1.77527864 -0.22652476
v -0.35000000 1.82472136 -0.22652476
v -0.10278640 1.84000000 0.08652476
v -0.10278640 1.76000000 0.08652476
v -0.35000000 1.77527864 0.22652476
v -0.35000000 1.82472136 0.22652476
v 0.05000000 1.80000000 0.00000000
v -1.39721360 1.84000000 -0.08652476
v -1.39721360 1.76000000 -0.08652476
v -1.15000000 1.77527864 -0.22652476
v -1.15000000 1.82472136 -0.22652476
v -1.39721360 1.84000000 0.08652476
v -1.39721360 1.76000000 0.08652476
v -1.15000000 1.77527864 0.22652476
v -1.15000000 1.82472136 0.22652476
v -1.55000000 1.80000000 0.00000000
v -2.07058489 3.18805206 0.00000000
v -1.22941511 3.18805206 0.00000000
v -2.07058489 3.05194794 0.00000000
v -1.22941511 3.05194794 0.00000000
v -1.65000000 3.07794151 0.23818223
v -1.65000000 3.16205849 0.23818223
v -1.65000000 3.07794151 -0.23818223
v -1.65000000 3.16205849 -0.23818223
v -0.96947935 3.12000000 -0.14720471
v -0.96947935 3.12000000 0.14720471
v -2.33052065 3.12000000 -0.14720471
v -2.33052065 3.12000000 0.14720471
v -1.65000000 3.20000000 0.00000000
v -1.65000000 3.04000000 0.00000000
v -1.89721360 3.05527864 0.14000000
v -1.40278640 3.05527864 0.14000000
v -1.89721360 3.18472136 0.14000000
v -1.40278640 3.18472136 0.14000000
v -1.65000000 3.12000000 0.28000000
v -1.89721360 3.05527864 -0.14000000
v -1.40278640 3.05527864 -0.14000000
v -1.89721360 3.18472136 -0.14000000
v -1.40278640 3.18472136 -0.14000000
v -1.65000000 3.12000000 -0.28000000
v -1.00278640 3.16000000 -0.08652476
v -1.00278640 3.08000000 -0.08652476
v -1.25000000 3.09527864 -0.22652476
v -1.25000000 3.14472136 -0.22652476
v -1.00278640 3.16000000 0.08652476
v -1.00278640 3.08000000 0.08652476
v -1.25000000 3.09527864 0.22652476
v -1.25000000 3.14472136 0.22652476
v -0.85000000 3.12000000 0.00000000
v -2.29721360 3.16000000 -0.08652476
v -2.29721360 3.08000000 -0.08652476
v -2.05000000 3.09527864 -0.22652476
v -2.05000000 3.14472136 -0.22652476
v -2.29721360 3.16000000 0.08652476
v -2.29721360 3.08000000 0.08652476
v -2.05000000 3.09527864 0.22652476
v -2.05000000 3.14472136 0.22652476
v -2.45000000 3.12000000 0.00000000
v -1.17058489 4.50805206 0.00000000
v -0.32941511 4.50805206 0.00000000
v -1.17058489 4.37194794 0.00000000
v -0.32941511 4.37194794 0.00000000
v -0.75000000 4.39794151 0.23818223
v -0.75000000 4.48205849 0.23818223
v -0.75000000 4.39794151 -0.23818223
v -0.75000000 4.48205849 -0.23818223
v -0.06947935 4.44000000 -0.14720471
v -0.06947935 4.44000000 0.14720471
v -1.43052065 4.44000000 -0.14720471
v -1.43052065 4.44000000 0.14720471
v -0.75000000 4.52000000 0.00000000
v -0.75000000 4.36000000 0.00000000
v -0.99721360 4.37527864 0.14000000
v -0.50278640 4.37527864 0.14000000
v -0.99721360 4.50472136 0.14000000
v -0.50278640 4.50472136 0.14000000
v -0.75000000 4.44000000 0.28000000
v -0.99721360 4.37527864 -0.14000000
v -0.50278640 4.37527864 -0.14000000
v -0.99721360 4.50472136 -0.14000000
v -0.50278640 4.50472136 -0.14000000
v -0.75000000 4.44000000 -0.28000000
v -0.10278640 4.48000000 -0.08652476
v -0.10278640 4.40000000 -0.08652476
v -0.35000000 4.41527864 -0.22652476
v -0.35000000 4.46472136 -0.22652476
v -0.10278640 4.48000000 0.08652476
v -0.10278640 4.40000000 0.08652476
v -0.35000000 4.41527864 0.22652476
v -0.35000000 4.46472136 0.22652476
v 0.05000000 4.44000000 0.00000000
v -1.39721360 4.48000000 -0.08652476
v -1.39721360 4.40000000 -0.08652476
v -1.15000000 4.41527864 -0.22652476
v -1.15000000 4.46472136 -0.22652476
v -1.39721360 4.48000000 0.08652476
v -1.39721360 4.40000000 0.08652476
v -1.15000000 4.41527864 0.22652476
v -1.15000000 4.46472136 0.22652476
v -1.55000000 4.44000000 0.00000000
v -0.60000000 0.00000000 0.00000000
v -0.59142397 0.00767235 -0.09933573
v -0.34142397 2.31767235 0.10066427
v -0.35000000 2.31000000 0.20000000
v -0.67209583 0.01368425 -0.06793330
v -0.42209583 2.32368425 0.13206670
v -0.69847806 0.00939163 0.01462429
v -0.44847806 2.31939163 0.21462429
v -0.65070430 -0.00197308 0.08616949
v -0.40070430 2.30802692 0.28616949
v -0.56474917 -0.01185202 0.09282731
v -0.31474917 2.29814798 0.29282731
v -0.50533864 -0.01280614 0.02958427
v -0.25533864 2.29719386 0.22958427
v -0.51721004 -0.00411698 -0.05593633
v -0.26721004 2.30588302 0.14406367
v -0.35000000 2.31000000 0.20000000
v -0.36476570 2.32231204 0.29813454
v -0.76476570 4.63231204 -0.05186546
v -0.75000000 4.62000000 -0.15000000
v -0.28301396 2.33232838 0.27081182
v -0.68301396 4.64232838 -0.07918818
v -0.25170408 2.32553099 0.19016636
v -0.65170408 4.63553099 -0.15983364
v -0.29441303 2.30703845 0.11692583
v -0.69441303 4.61703845 -0.23307417
v -0.37898010 2.29077602 0.10624184
v -0.77898010 4.60077602 -0.24375816
v -0.44172457 2.28898963 0.16615966
v -0.84172457 4.59898963 -0.18384034
v -0.43539856 2.30302448 0.25155995
v -0.83539856 4.61302448 -0.09844005
v -0.75000000 4.62000000 -0.15000000
v -0.74376933 4.62541709 -0.24965859
v -0.41376933 7.00541709 -0.09965859
v -0.42000000 7.00000000 0.00000000
v -0.82340704 4.63436136 -0.21637136
v -0.49340704 7.01436136 -0.06637136
v -0.84776775 4.63249123 -0.13310515
v -0.51776775 7.01249123 0.01689485
v -0.79850735 4.62121495 -0.06256110
v -0.46850735 7.00121495 0.08743890
v -0.71271992 4.60902379 -0.05786033
v -0.38271992 6.98902379 0.09213967
v -0.65500516 4.60509794 -0.12254261
v -0.32500516 6.98509794 0.02745739
v -0.66882344 4.61239364 -0.20790086
v -0.33882344 6.99239364 -0.05790086
v -0.57058489 2.16805206 0.00000000
v 0.27058489 2.16805206 0.00000000
v -0.57058489 2.03194794 0.00000000
v 0.27058489 2.03194794 0.00000000
v -0.15000000 2.05794151 0.23818223
v -0.15000000 2.14205849 0.23818223
v -0.15000000 2.05794151 -0.23818223
v -0.15000000 2.14205849 -0.23818223
v 0.53052065 2.10000000 -0.14720471
v 0.53052065 2.10000000 0.14720471
v -0.83052065 2.10000000 -0.14720471
v -0.83052065 2.10000000 0.14720471
v -0.15000000 2.18000000 0.00000000
v -0.15000000 2.02000000 0.00000000
v -0.39721360 2.03527864 0.14000000
v 0.09721360 2.03527864 0.14000000
v -0.39721360 2.16472136 0.14000000
v 0.09721360 2.16472136 0.14000000
v -0.15000000 2.10000000 0.28000000
v -0.39721360 2.03527864 -0.14000000
v 0.09721360 2.03527864 -0.14000000
v -0.39721360 2.16472136 -0.14000000
v 0.09721360 2.16472136 -0.14000000
v -0.15000000 2.10000000 -0.28000000
v 0.49721360 2.14000000 -0.08652476
v 0.49721360 2.06000000 -0.08652476
v 0.25000000 2.07527864 -0.22652476
v 0.25000000 2.12472136 -0.22652476
v 0.49721360 2.14000000 0.08652476
v 0.49721360 2.06000000 0.08652476
v 0.25000000 2.07527864 0.22652476
v 0.25000000 2.12472136 0.22652476
v 0.65000000 2.10000000 0.00000000
v -0.79721360 2.14000000 -0.08652476
v -0.79721360 2.06000000 -0.08652476
v -0.55000000 2.07527864 -0.22652476
v -0.55000000 2.12472136 -0.22652476
v -0.79721360 2.14000000 0.08652476
v -0.79721360 2.06000000 0.08652476
v -0.55000000 2.07527864 0.22652476
v -0.55000000 2.12472136 0.22652476
v -0.95000000 2.10000000 0.00000000
v -1.47058489 3.70805206 0.00000000
v -0.62941511 3.70805206 0.00000000
v -1.47058489 3.57194794 0.00000000
v -0.62941511 3.57194794 0.00000000
v -1.05000000 3.59794151 0.23818223
v -1.05000000 3.68205849 0.23818223
v -1.05000000 3.59794151 -0.23818223
v -1.05000000 3.68205849 -0.23818223
v -0.36947935 3.64000000 -0.14720471
v -0.36947935 3.64000000 0.14720471
v -1.73052065 3.64000000 -0.14720471
v -1.73052065 3.64000000 0.14720471
v -1.05000000 3.72000000 0.00000000
v -1.05000000 3.56000000 0.00000000
v -1.29721360 3.57527864 0.14000000
v -0.80278640 3.57527864 0.14000000
v -1.29721360 3.70472136 0.14000000
v -0.80278640 3.70472136 0.14000000
v -1.05000000 3.64000000 0.28000000
v -1.29721360 3.57527864 -0.14000000
v -0.80278640 3.57527864 -0.14000000
v -1.29721360 3.70472136 -0.14000000
v -0.80278640 3.70472136 -0.14000000
v -1.05000000 3.64000000 -0.28000000
v -0.40278640 3.68000000 -0.08652476
v -0.40278640 3.60000000 -0.08652476
v -0.65000000 3.61527864 -0.22652476
v -0.65000000 3.66472136 -0.22652476
v -0.40278640 3.68000000 0.08652476
v -0.40278640 3.60000000 0.08652476
v -0.65000000 3.61527864 0.22652476
v -0.65000000 3.66472136 0.22652476
v -0.25000000 3.64000000 0.00000000
v -1.69721360 3.68000000 -0.08652476
v -1.69721360 3.60000000 -0.08652476
v -1.45000000 3.61527864 -0.22652476
v -1.45000000 3.66472136 -0.22652476
v -1.69721360 3.68000000 0.08652476
v -1.69721360 3.60000000 0.08652476
v -1.45000000 3.61527864 0.22652476
v -1.45000000 3.66472136 0.22652476
v -1.85000000 3.64000000 0.00000000
v -0.57058489 5.24805206 0.00000000
v 0.27058489 5.24805206 0.00000000
v -0.57058489 5.11194794 0.00000000
v 0.27058489 5.11194794 0.00000000
v -0.15000000 5.13794151 0.23818223
v -0.15000000 5.22205849 0.23818223
v -0.15000000 5.13794151 -0.23818223
v -0.15000000 5.22205849 -0.23818223
v 0.53052065 5.18000000 -0.14720471
v 0.53052065 5.18000000 0.14720471
v -0.83052065 5.18000000 -0.14720471
v -0.83052065 5.18000000 0.14720471
v -0.15000000 5.26000000 0.00000000
v -0.15000000 5.10000000 0.00000000
v -0.39721360 5.11527864 0.14000000
v 0.09721360 5.11527864 0.14000000
v -0.39721360 5.24472136 0.14000000
v 0.09721360 5.24472136 0.14000000
v -0.15000000 5.18000000 0.28000000
v -0.39721360 5.11527864 -0.14000000
v 0.09721360 5.11527864 -0.14000000
v -0.39721360 5.24472136 -0.14000000
v 0.09721360 5.24472136 -0.14000000
v -0.15000000 5.18000000 -0.28000000
v 0.49721360 5.22000000 -0.08652476
v 0.49721360 5.14000000 -0.08652476
v 0.25000000 5.15527864 -0.22652476
v 0.25000000 5.20472136 -0.22652476
v 0.49721360 5.22000000 0.08652476
v 0.49721360 5.14000000 0.08652476
v 0.25000000 5.15527864 0.22652476
v 0.25000000 5.20472136 0.22652476
v 0.65000000 5.18000000 0.00000000
v -0.79721360 5.22000000 -0.08652476
v -0.79721360 5.14000000 -0.08652476
v -0.55000000 5.15527864 -0.22652476
v -0.55000000 5.20472136 -0.22652476
v -0.79721360 5.22000000 0.08652476
v -0.79721360 5.14000000 0.08652476
v -0.55000000 5.15527864 0.22652476
v -0.55000000 5.20472136 0.22652476
v -0.95000000 5.18000000 0.00000000
v -0.00000000 0.00000000 0.00000000
v 0.01189928 0.01016889 -0.09876741
v 0.26189928 1.66016889 0.10123259
v 0.25000000 1.65000000 0.20000000
v -0.06933260 0.01893292 -0.06953083
v 0.18066740 1.66893292 0.13046917
v -0.09835561 0.01344008 0.01206389
v 0.15164439 1.66344008 0.21206389
v -0.05331485 -0.00217342 0.08457425
v 0.19668515 1.64782658 0.28457425
v 0.03187308 -0.01615028 0.09339847
v 0.28187308 1.63384972 0.29339847
v 0.09305994 -0.01796566 0.03189175
v 0.34305994 1.63203434 0.23189175
v 0.08417076 -0.00625252 -0.05363012
v 0.33417076 1.64374748 0.14636988
v 0.25000000 1.65000000 0.20000000
v 0.22980956 1.66561487 0.29668775
v -0.17019044 3.31561487 -0.05331225
v -0.15000000 3.30000000 -0.15000000
v 0.31182893 1.68036593 0.27249203
v -0.08817107 3.33036593 -0.07750797
v 0.34728985 1.67225082 0.19370832
v -0.05271015 3.32225082 -0.15629168
v 0.30948954 1.64738039 0.11966238
v -0.09051046 3.29738039 -0.23033762
v 0.22689238 1.62448258 0.10611230
v -0.17310762 3.27448258 -0.24388770
v 0.16169574 1.62079991 0.16326158
v -0.23830426 3.27079991 -0.18673842
v 0.16299400 1.63910550 0.24807563
v -0.23700600 3.28910550 -0.10192437
v -0.15000000 3.30000000 -0.15000000
v -0.14137047 3.30709316 -0.24937413
v 0.18862953 5.00709316 -0.09937413
v 0.18000000 5.00000000 0.00000000
v -0.22108374 3.31975488 -0.21750442
v 0.10891626 5.01975488 -0.06750442
v -0.24726951 3.31754077 -0.13480250
v 0.08273049 5.01754077 0.01519750
v -0.20020935 3.30211810 -0.06354461
v 0.12979065 5.00211810 0.08645539
v -0.11534053 3.28510046 -0.05738939
v 0.21465947 4.98510046 0.09261061
v -0.05657099 3.27930247 -0.12097185
v 0.27342901 4.97930247 0.02902815
v -0.06815541 3.28909015 -0.20641310
v 0.26184459 4.98909015 -0.05641310
v 0.02941511 1.56805206 0.00000000
v 0.87058489 1.56805206 0.00000000
v 0.02941511 1.43194794 0.00000000
v 0.87058489 1.43194794 0.00000000
v 0.45000000 1.45794151 0.23818223
v 0.45000000 1.54205849 0.23818223
v 0.45000000 1.45794151 -0.23818223
v 0.45000000 1.54205849 -0.23818223
v 1.13052065 1.50000000 -0.14720471
v 1.13052065 1.50000000 0.14720471
v -0.23052065 1.50000000 -0.14720471
v -0.23052065 1.50000000 0.14720471
v 0.45000000 1.58000000 0.00000000
v 0.45000000 1.42000000 0.00000000
v 0.20278640 1.43527864 0.14000000
v 0.69721360 1.43527864 0.14000000
v 0.20278640 1.56472136 0.14000000
v 0.69721360 1.56472136 0.14000000
v 0.45000000 1.50000000 0.28000000
v 0.20278640 1.43527864 -0.14000000
v 0.69721360 1.43527864 -0.14000000
v 0.20278640 1.56472136 -0.14000000
v 0.69721360 1.56472136 -0.14000000
v 0.45000000 1.50000000 -0.28000000
v 1.09721360 1.54000000 -0.08652476
v 1.09721360 1.46000000 -0.08652476
v 0.85000000 1.47527864 -0.22652476
v 0.85000000 1.52472136 -0.22652476
v 1.09721360 1.54000000 0.08652476
v 1.09721360 1.46000000 0.08652476
v 0.85000000 1.47527864 0.22652476
v 0.85000000 1.52472136 0.22652476
v 1.25000000 1.50000000 0.00000000
v -0.19721360 1.54000000 -0.08652476
v -0.19721360 1.46000000 -0.08652476
v 0.05000000 1.47527864 -0.22652476
v 0.05000000 1.52472136 -0.22652476
v -0.19721360 1.54000000 0.08652476
v -0.19721360 1.46000000 0.08652476
v 0.05000000 1.47527864 0.22652476
v 0.05000000 1.52472136 0.22652476
v -0.35000000 1.50000000 0.00000000
v -0.87058489 2.66805206 0.00000000
v -0.02941511 2.66805206 0.00000000
v -0.87058489 2.53194794 0.00000000
v -0.02941511 2.53194794 0.00000000
v -0.45000000 2.55794151 0.23818223
v -0.45000000 2.64205849 0.23818223
v -0.45000000 2.55794151 -0.23818223
v -0.45000000 2.64205849 -0.23818223
v 0.23052065 2.60000000 -0.14720471
v 0.23052065 2.60000000 0.14720471
v -1.13052065 2.60000000 -0.14720471
v -1.13052065 2.60000000 0.14720471
v -0.45000000 2.68000000 0.00000000
v -0.45000000 2.52000000 0.00000000
v -0.69721360 2.53527864 0.14000000
v -0.20278640 2.53527864 0.14000000
v -0.69721360 2.66472136 0.14000000
v -0.20278640 2.66472136 0.14000000
v -0.45000000 2.60000000 0.28000000
v -0.69721360 2.53527864 -0.14000000
v -0.20278640 2.53527864 -0.14000000
v -0.69721360 2.66472136 -0.14000000
v -0.20278640 2.66472136 -0.14000000
v -0.45000000 2.60000000 -0.28000000
v 0.19721360 2.64000000 -0.08652476
v 0.19721360 2.56000000 -0.08652476
v -0.05000000 2.57527864 -0.22652476
v -0.05000000 2.62472136 -0.22652476
v 0.19721360 2.64000000 0.08652476
v 0.19721360 2.56000000 0.08652476
v -0.05000000 2.57527864 0.22652476
v -0.05000000 2.62472136 0.22652476
v 0.35000000 2.60000000 0.00000000
v -1.09721360 2.64000000 -0.08652476
v -1.09721360 2.56000000 -0.08652476
v -0.85000000 2.57527864 -0.22652476
v -0.85000000 2.62472136 -0.22652476
v -1.09721360 2.64000000 0.08652476
v -1.09721360 2.56000000 0.08652476
v -0.85000000 2.57527864 0.22652476
v -0.85000000 2.62472136 0.22652476
v -1.25000000 2.60000000 0.00000000
v 0.02941511 3.76805206 0.00000000
v 0.87058489 3.76805206 0.00000000
v 0.02941511 3.63194794 0.00000000
v 0.87058489 3.63194794 0.00000000
v 0.45000000 3.65794151 0.23818223
v 0.45000000 3.74205849 0.23818223
v 0.45000000 3.65794151 -0.23818223
v 0.45000000 3.74205849 -0.23818223
v 1.13052065 3.70000000 -0.14720471
v 1.13052065 3.70000000 0.14720471
v -0.23052065 3.70000000 -0.14720471
v -0.23052065 3.70000000 0.14720471
v 0.45000000 3.78000000 0.00000000
v 0.45000000 3.62000000 0.00000000
v 0.20278640 3.63527864 0.14000000
v 0.69721360 3.63527864 0.14000000
v 0.20278640 3.76472136 0.14000000
v 0.69721360 3.76472136 0.14000000
v 0.45000000 3.70000000 0.28000000
v 0.20278640 3.63527864 -0.14000000
v 0.69721360 3.63527864 -0.14000000
v 0.20278640 3.76472136 -0.14000000
v 0.69721360 3.76472136 -0.14000000
v 0.45000000 3.70000000 -0.28000000
v 1.09721360 3.74000000 -0.08652476
v 1.09721360 3.66000000 -0.08652476
v 0.85000000 3.67527864 -0.22652476
v 0.85000000 3.72472136 -0.22652476
v 1.09721360 3.74000000 0.08652476
v 1.09721360 3.66000000 0.08652476
v 0.85000000 3.67527864 0.22652476
v 0.85000000 3.72472136 0.22652476
v 1.25000000 3.70000000 0.00000000
v -0.19721360 3.74000000 -0.08652476
v -0.19721360 3.66000000 -0.08652476
v 0.05000000 3.67527864 -0.22652476
v 0.05000000 3.72472136 -0.22652476
v -0.19721360 3.74000000 0.08652476
v -0.19721360 3.66000000 0.08652476
v 0.05000000 3.67527864 0.22652476
v 0.05000000 3.72472136 0.22652476
v -0.35000000 3.70000000 0.00000000
v 0.60000000 -0.00000000 -0.00000000
v 0.60997150 0.00875268 -0.09911589
v 0.85997150 1.98875268 0.10088411
v 0.85000000 1.98000000 0.20000000
v 0.52903642 0.01589347 -0.06864087
v 0.77903642 1.99589347 0.13135913
v 0.50153837 0.01106615 0.01352213
v 0.75153837 1.99106615 0.21352213
v 0.54818393 -0.00209420 0.08550269
v 0.79818393 1.97790580 0.28550269
v 0.63384805 -0.01367758 0.09309798
v 0.88384805 1.96632242 0.29309798
v 0.69402389 -0.01496146 0.03058859
v 0.94402389 1.96503854 0.23058859
v 0.68339783 -0.00497906 -0.05495463
v 0.93339783 1.97502094 0.14504537
v 0.85000000 1.98000000 0.20000000
v 0.83292764 1.99379670 0.29756119
v 0.43292764 3.97379670 -0.05243881
v 0.45000000 3.96000000 -0.15000000
v 0.91486545 2.00576337 0.27161510
v 0.51486545 3.98576337 -0.07838490
v 0.94795825 1.99832969 0.19174138
v 0.54795825 3.97832969 -0.15825862
v 0.90728649 1.97709338 0.11808657
v 0.50728649 3.95709338 -0.23191343
v 0.82347684 1.95804582 0.10611424
v 0.42347684 3.93804582 -0.24388576
v 0.75963967 1.95553020 0.16483980
v 0.35963967 3.93553020 -0.18516020
v 0.76384567 1.97144084 0.25004171
v 0.36384567 3.95144084 -0.09995829
v 0.45000000 3.96000000 -0.15000000
v 0.45723954 3.96614860 -0.24954790
v 0.78723954 6.00614860 -0.09954790
v 0.78000000 6.00000000 -0.00000000
v 0.37753644 3.97663927 -0.21687427
v 0.70753644 6.01663927 -0.06687427
v 0.35239988 3.97460024 -0.13384295
v 0.68239988 6.01460024 0.01615705
v 0.40075820 3.96156692 -0.06297822
v 0.73075820 6.00156692 0.08702178
v 0.48619660 3.94735369 -0.05764267
v 0.81619660 5.98735369 0.09235733
v 0.54437822 3.94266338 -0.12185407
v 0.87437822 5.98266338 0.02814593
v 0.53149111 3.95102790 -0.20725993
v 0.86149111 5.99102790 -0.05725993
v 0.62941511 1.86805206 0.00000000
v 1.47058489 1.86805206 0.00000000
v 0.62941511 1.73194794 0.00000000
v 1.47058489 1.73194794 0.00000000
v 1.05000000 1.75794151 0.23818223
v 1.05000000 1.84205849 0.23818223
v 1.05000000 1.75794151 -0.23818223
v 1.05000000 1.84205849 -0.23818223
v 1.73052065 1.80000000 -0.14720471
v 1.73052065 1.80000000 0.14720471
v 0.36947935 1.80000000 -0.14720471
v 0.36947935 1.80000000 0.14720471
v 1.05000000 1.88000000 0.00000000
v 1.05000000 1.72000000 0.00000000
v 0.80278640 1.73527864 0.14000000
v 1.29721360 1.73527864 0.14000000
v 0.80278640 1.86472136 0.14000000
v 1.29721360 1.86472136 0.14000000
v 1.05000000 1.80000000 0.28000000
v 0.80278640 1.73527864 -0.14000000
v 1.29721360 1.73527864 -0.14000000
v 0.80278640 1.86472136 -0.14000000
v 1.29721360 1.86472136 -0.14000000
v 1.05000000 1.80000000 -0.28000000
v 1.69721360 1.84000000 -0.08652476
v 1.69721360 1.76000000 -0.08652476
v 1.45000000 1.77527864 -0.22652476
v 1.45000000 1.82472136 -0.22652476
v 1.69721360 1.84000000 0.08652476
v 1.69721360 1.76000000 0.08652476
v 1.45000000 1.77527864 0.22652476
v 1.45000000 1.82472136 0.22652476
v 1.85000000 1.80000000 0.00000000
v 0.40278640 1.84000000 -0.08652476
v 0.40278640 1.76000000 -0.08652476
v 0.65000000 1.77527864 -0.22652476
v 0.65000000 1.82472136 -0.22652476
v 0.40278640 1.84000000 0.08652476
v 0.40278640 1.76000000 0.08652476
v 0.65000000 1.77527864 0.22652476
v 0.65000000 1.82472136 0.22652476
v 0.25000000 1.80000000 0.00000000
v -0.27058489 3.18805206 0.00000000
v 0.57058489 3.18805206 0.00000000
v -0.27058489 3.05194794 0.00000000
v 0.57058489 3.05194794 0.00000000
v 0.15000000 3.07794151 0.23818223
v 0.15000000 3.16205849 0.23818223
v 0.15000000 3.07794151 -0.23818223
v 0.15000000 3.16205849 -0.23818223
v 0.83052065 3.12000000 -0.14720471
v 0.83052065 3.12000000 0.14720471
v -0.53052065 3.12000000 -0.14720471
v -0.53052065 3.12000000 0.14720471
v 0.15000000 3.20000000 0.00000000
v 0.15000000 3.04000000 0.00000000
v -0.09721360 3.05527864 0.14000000
v 0.39721360 3.05527864 0.14000000
v -0.09721360 3.18472136 0.14000000
v 0.39721360 3.18472136 0.14000000
v 0.15000000 3.12000000 0.28000000
v -0.09721360 3.05527864 -0.14000000
v 0.39721360 3.05527864 -0.14000000
v -0.09721360 3.18472136 -0.14000000
v 0.39721360 3.18472136 -0.14000000
v 0.15000000 3.12000000 -0.28000000
v 0.79721360 3.16000000 -0.08652476
v 0.79721360 3.08000000 -0.08652476
v 0.55000000 3.09527864 -0.22652476
v 0.55000000 3.14472136 -0.22652476
v 0.79721360 3.16000000 0.08652476
v 0.79721360 3.08000000 0.08652476
v 0.55000000 3.09527864 0.22652476
v 0.55000000 3.14472136 0.22652476
v 0.95000000 3.12000000 0.00000000
v -0.49721360 3.16000000 -0.08652476
v -0.49721360 3.08000000 -0.08652476
v -0.25000000 3.09527864 -0.22652476
v -0.25000000 3.14472136 -0.22652476
v -0.49721360 3.16000000 0.08652476
v -0.49721360 3.08000000 0.08652476
v -0.25000000 3.09527864 0.22652476
v -0.25000000 3.14472136 0.22652476
v -0.65000000 3.12000000 0.00000000
v 0.62941511 4.50805206 0.00000000
v 1.47058489 4.50805206 0.00000000
v 0.62941511 4.37194794 0.00000000
v 1.47058489 4.37194794 0.00000000
v 1.05000000 4.39794151 0.23818223
v 1.05000000 4.48205849 0.23818223
v 1.05000000 4.39794151 -0.23818223
v 1.05000000 4.48205849 -0.23818223
v 1.73052065 4.44000000 -0.14720471
v 1.73052065 4.44000000 0.14720471
v 0.36947935 4.44000000 -0.14720471
v 0.36947935 4.44000000 0.14720471
v 1.05000000 4.52000000 0.00000000
v 1.05000000 4.36000000 0.00000000
v 0.80278640 4.37527864 0.14000000
v 1.29721360 4.37527864 0.14000000
v 0.80278640 4.50472136 0.14000000
v 1.29721360 4.50472136 0.14000000
v 1.05000000 4.44000000 0.28000000
v 0.80278640 4.37527864 -0.14000000
v 1.29721360 4.37527864 -0.14000000
v 0.80278640 4.50472136 -0.14000000
v 1.29721360 4.50472136 -0.14000000
v 1.05000000 4.44000000 -0.28000000
v 1.69721360 4.48000000 -0.08652476
v 1.69721360 4.40000000 -0.08652476
v 1.45000000 4.41527864 -0.22652476
v 1.45000000 4.46472136 -0.22652476
v 1.69721360 4.48000000 0.08652476
v 1.69721360 4.40000000 0.08652476
v 1.45000000 4.41527864 0.22652476
v 1.45000000 4.46472136 0.22652476
v 1.85000000 4.44000000 0.00000000
v 0.40278640 4.48000000 -0.08652476
v 0.40278640 4.40000000 -0.08652476
v 0.65000000 4.41527864 -0.22652476
v 0.65000000 4.46472136 -0.22652476
v 0.40278640 4.48000000 0.08652476
v 0.40278640 4.40000000 0.08652476
v 0.65000000 4.41527864 0.22652476
v 0.65000000 4.46472136 0.22652476
v 0.25000000 4.44000000 0.00000000
v 1.20000000 0.00000000 0.00000000
v 1.20857603 0.00767235 -0.09933573
v 1.45857603 2.31767235 0.10066427
v 1.45000000 2.31000000 0.20000000
v 1.12790417 0.01368425 -0.06793330
v 1.37790417 2.32368425 0.13206670
v 1.10152194 0.00939163 0.01462429
v 1.35152194 2.31939163 0.21462429
v 1.14929570 -0.00197308 0.08616949
v 1.39929570 2.30802692 0.28616949
v 1.23525083 -0.01185202 0.09282731
v 1.48525083 2.29814798 0.29282731
v 1.29466136 -0.01280614 0.02958427
v 1.54466136 2.29719386 0.22958427
v 1.28278996 -0.00411698 -0.05593633
v 1.53278996 2.30588302 0.14406367
v 1.45000000 2.31000000 0.20000000
v 1.43523430 2.32231204 0.29813454
v 1.03523430 4.63231204 -0.05186546
v 1.05000000 4.62000000 -0.15000000
v 1.51698604 2.33232838 0.27081182
v 1.11698604 4.64232838 -0.07918818
v 1.54829592 2.32553099 0.19016636
v 1.14829592 4.63553099 -0.15983364
v 1.50558697 2.30703845 0.11692583
v 1.10558697 4.61703845 -0.23307417
v 1.42101990 2.29077602 0.10624184
v 1.02101990 4.60077602 -0.24375816
v 1.35827543 2.28898963 0.16615966
v 0.95827543 4.59898963 -0.18384034
v 1.36460144 2.30302448 0.25155995
v 0.96460144 4.61302448 -0.09844005
v 1.05000000 4.62000000 -0.15000000
v 1.05623067 4.62541709 -0.24965859
v 1.38623067 7.00541709 -0.09965859
v 1.38000000 7.00000000 0.00000000
v 0.97659296 4.63436136 -0.21637136
v 1.30659296 7.01436136 -0.06637136
v 0.95223225 4.63249123 -0.13310515
v 1.28223225 7.01249123 0.01689485
v 1.00149265 4.62121495 -0.06256110
v 1.33149265 7.00121495 0.08743890
v 1.08728008 4.60902379 -0.05786033
v 1.41728008 6.98902379 0.09213967
v 1.14499484 4.60509794 -0.12254261
v 1.47499484 6.98509794 0.02745739
v 1.13117656 4.61239364 -0.20790086
v 1.46117656 6.99239364 -0.05790086
v 1.22941511 2.16805206 0.00000000
v 2.07058489 2.16805206 0.00000000
v 1.22941511 2.03194794 0.00000000
v 2.07058489 2.03194794 0.00000000
v 1.65000000 2.05794151 0.23818223
v 1.65000000 2.14205849 0.23818223
v 1.65000000 2.05794151 -0.23818223
v 1.65000000 2.14205849 -0.23818223
v 2.33052065 2.10000000 -0.14720471
v 2.33052065 2.10000000 0.14720471
v 0.96947935 2.10000000 -0.14720471
v 0.96947935 2.10000000 0.14720471
v 1.65000000 2.18000000 0.00000000
v 1.65000000 2.02000000 0.00000000
v 1.40278640 2.03527864 0.14000000
v 1.89721360 2.03527864 0.14000000
v 1.40278640 2.16472136 0.14000000
v 1.89721360 2.16472136 0.14000000
v 1.65000000 2.10000000 0.28000000
v 1.40278640 2.03527864 -0.14000000
v 1.89721360 2.03527864 -0.14000000
v 1.40278640 2.16472136 -0.14000000
v 1.89721360 2.16472136 -0.14000000
v 1.65000000 2.10000000 -0.28000000
v 2.29721360 2.14000000 -0.08652476
v 2.29721360 2.06000000 -0.08652476
v 2.05000000 2.07527864 -0.22652476
v 2.05000000 2.12472136 -0.22652476
v 2.29721360 2.14000000 0.08652476
v 2.29721360 2.06000000 0.08652476
v 2.05000000 2.07527864 0.22652476
v 2.05000000 2.12472136 0.22652476
v 2.45000000 2.10000000 0.00000000
v 1.00278640 2.14000000 -0.08652476
v 1.00278640 2.06000000 -0.08652476
v 1.25000000 2.07527864 -0.22652476
v 1.25000000 2.12472136 -0.22652476
v 1.00278640 2.14000000 0.08652476
v 1.00278640 2.06000000 0.08652476
v 1.25000000 2.07527864 0.22652476
v 1.25000000 2.12472136 0.22652476
v 0.85000000 2.10000000 0.00000000
v 0.32941511 3.70805206 0.00000000
v 1.17058489 3.70805206 0.00000000
v 0.32941511 3.57194794 0.00000000
v 1.17058489 3.57194794 0.00000000
v 0.75000000 3.59794151 0.23818223
v 0.75000000 3.68205849 0.23818223
v 0.75000000 3.59794151 -0.23818223
v 0.75000000 3.68205849 -0.23818223
v 1.43052065 3.64000000 -0.14720471
v 1.43052065 3.64000000 0.14720471
v 0.06947935 3.64000000 -0.14720471
v 0.06947935 3.64000000 0.14720471
v 0.75000000 3.72000000 0.00000000
v 0.75000000 3.56000000 0.00000000
v 0.50278640 3.57527864 0.14000000
v 0.99721360 3.57527864 0.14000000
v 0.50278640 3.70472136 0.14000000
v 0.99721360 3.70472136 0.14000000
v 0.75000000 3.64000000 0.28000000
v 0.50278640 3.57527864 -0.14000000
v 0.99721360 3.57527864 -0.14000000
v 0.50278640 3.70472136 -0.14000000
v 0.99721360 3.70472136 -0.14000000
v 0.75000000 3.64000000 -0.28000000
v 1.39721360 3.68000000 -0.08652476
v 1.39721360 3.60000000 -0.08652476
v 1.15000000 3.61527864 -0.22652476
v 1.15000000 3.66472136 -0.22652476
v 1.39721360 3.68000000 0.08652476
v 1.39721360 3.60000000 0.08652476
v 1.15000000 3.61527864 0.22652476
v 1.15000000 3.66472136 0.22652476
v 1.55000000 3.64000000 0.00000000
v 0.10278640 3.68000000 -0.08652476
v 0.10278640 3.60000000 -0.08652476
v 0.35000000 3.61527864 -0.22652476
v 0.35000000 3.66472136 -0.22652476
v 0.10278640 3.68000000 0.08652476
v 0.10278640 3.60000000 0.08652476
v 0.35000000 3.61527864 0.22652476
v 0.35000000 3.66472136 0.22652476
v -0.05000000 3.64000000 0.00000000
v 1.22941511 5.24805206 0.00000000
v 2.07058489 5.24805206 0.00000000
v 1.22941511 5.11194794 0.00000000
v 2.07058489 5.11194794 0.00000000
v 1.65000000 5.13794151 0.23818223
v 1.65000000 5.22205849 0.23818223
v 1.65000000 5.13794151 -0.23818223
v 1.65000000 5.22205849 -0.23818223
v 2.33052065 5.18000000 -0.14720471
v 2.33052065 5.18000000 0.14720471
v 0.96947935 5.18000000 -0.14720471
v 0.96947935 5.18000000 0.14720471
v 1.65000000 5.26000000 0.00000000
v 1.65000000 5.10000000 0.00000000
v 1.40278640 5.11527864 0.14000000
v 1.89721360 5.11527864 0.14000000
v 1.40278640 5.24472136 0.14000000
v 1.89721360 5.24472136 0.14000000
v 1.65000000 5.18000000 0.28000000
v 1.40278640 5.11527864 -0.14000000
v 1.89721360 5.11527864 -0.14000000
v 1.40278640 5.24472136 -0.14000000
v 1.89721360 5.24472136 -0.14000000
v 1.65000000 5.18000000 -0.28000000
v 2.29721360 5.22000000 -0.08652476
v 2.29721360 5.14000000 -0.08652476
v 2.05000000 5.15527864 -0.22652476
v 2.05000000 5.20472136 -0.22652476
v 2.29721360 5.22000000 0.08652476
v 2.29721360 5.14000000 0.08652476
v 2.05000000 5.15527864 0.22652476
v 2.05000000 5.20472136 0.22652476
v 2.45000000 5.18000000 0.00000000
v 1.00278640 5.22000000 -0.08652476
v 1.00278640 5.14000000 -0.08652476
v 1.25000000 5.15527864 -0.22652476
v 1.25000000 5.20472136 -0.22652476
v 1.00278640 5.22000000 0.08652476
v 1.00278640 5.14000000 0.08652476
v 1.25000000 5.15527864 0.22652476
v 1.25000000 5.20472136 0.22652476
v 0.85000000 5.18000000 0.00000000
v 1.80000000 0.00000000 0.00000000
v 1.81189928 0.01016889 -0.09876741
v 2.06189928 1.66016889 0.10123259
v 2.05000000 1.65000000 0.20000000
v 1.73066740 0.01893292 -0.06953083
v 1.98066740 1.66893292 0.13046917
v 1.70164439 0.01344008 0.01206389
v 1.95164439 1.66344008 0.21206389
v 1.74668515 -0.00217342 0.08457425
v 1.99668515 1.64782658 0.28457425
v 1.83187308 -0.01615028 0.09339847
v 2.08187308 1.63384972 0.29339847
v 1.89305994 -0.01796566 0.03189175
v 2.14305994 1.63203434 0.23189175
v 1.88417076 -0.00625252 -0.05363012
v 2.13417076 1.64374748 0.14636988
v 2.05000000 1.65000000 0.20000000
v 2.02980956 1.66561487 0.29668775
v 1.62980956 3.31561487 -0.05331225
v 1.65000000 3.30000000 -0.15000000
v 2.11182893 1.68036593 0.27249203
v 1.71182893 3.33036593 -0.07750797
v 2.14728985 1.67225082 0.19370832
v 1.74728985 3.32225082 -0.15629168
v 2.10948954 1.64738039 0.11966238
v 1.70948954 3.29738039 -0.23033762
v 2.02689238 1.62448258 0.10611230
v 1.62689238 3.27448258 -0.24388770
v 1.96169574 1.62079991 0.16326158
v 1.56169574 3.27079991 -0.18673842
v 1.96299400 1.63910550 0.24807563
v 1.56299400 3.28910550 -0.10192437
v 1.65000000 3.30000000 -0.15000000
v 1.65862953 3.30709316 -0.24937413
v 1.98862953 5.00709316 -0.09937413
v 1.98000000 5.00000000 -0.00000000
v 1.57891626 3.31975488 -0.21750442
v 1.90891626 5.01975488 -0.06750442
v 1.55273049 3.31754077 -0.13480250
v 1.88273049 5.01754077 0.01519750
v 1.59979065 3.30211810 -0.06354461
v 1.92979065 5.00211810 0.08645539
v 1.68465947 3.28510046 -0.05738939
v 2.01465947 4.98510046 0.09261061
v 1.74342901 3.27930247 -0.12097185
v 2.07342901 4.97930247 0.02902815
v 1.73184459 3.28909015 -0.20641310
v 2.06184459 4.98909015 -0.05641310
v 1.82941511 1.56805206 0.00000000
v 2.67058489 1.56805206 0.00000000
v 1.82941511 1.43194794 0.00000000
v 2.67058489 1.43194794 0.00000000
v 2.25000000 1.45794151 0.23818223
v 2.25000000 1.54205849 0.23818223
v 2.25000000 1.45794151 -0.23818223
v 2.25000000 1.54205849 -0.23818223
v 2.93052065 1.50000000 -0.14720471
v 2.93052065 1.50000000 0.14720471
v 1.56947935 1.50000000 -0.14720471
v 1.56947935 1.50000000 0.14720471
v 2.25000000 1.58000000 0.00000000
v 2.25000000 1.42000000 0.00000000
v 2.00278640 1.43527864 0.14000000
v 2.49721360 1.43527864 0.14000000
v 2.00278640 1.56472136 0.14000000
v 2.49721360 1.56472136 0.14000000
v 2.25000000 1.50000000 0.28000000
v 2.00278640 1.43527864 -0.14000000
v 2.49721360 1.43527864 -0.14000000
v 2.00278640 1.56472136 -0.14000000
v 2.49721360 1.56472136 -0.14000000
v 2.25000000 1.50000000 -0.28000000
v 2.89721360 1.54000000 -0.08652476
v 2.89721360 1.46000000 -0.08652476
v 2.65000000 1.47527864 -0.22652476
v 2.65000000 1.52472136 -0.22652476
v 2.89721360 1.54000000 0.08652476
v 2.89721360 1.46000000 0.08652476
v 2.65000000 1.47527864 0.22652476
v 2.65000000 1.52472136 0.22652476
v 3.05000000 1.50000000 0.00000000
v 1.60278640 1.54000000 -0.08652476
v 1.60278640 1.46000000 -0.08652476
v 1.85000000 1.47527864 -0.22652476
v 1.85000000 1.52472136 -0.22652476
v 1.60278640 1.54000000 0.08652476
v 1.60278640 1.46000000 0.08652476
v 1.85000000 1.47527864 0.22652476
v 1.85000000 1.52472136 0.22652476
v 1.45000000 1.50000000 0.00000000
v 0.92941511 2.66805206 0.00000000
v 1.77058489 2.66805206 0.00000000
v 0.92941511 2.53194794 0.00000000
v 1.77058489 2.53194794 0.00000000
v 1.35000000 2.55794151 0.23818223
v 1.35000000 2.64205849 0.23818223
v 1.35000000 2.55794151 -0.23818223
v 1.35000000 2.64205849 -0.23818223
v 2.03052065 2.60000000 -0.14720471
v 2.03052065 2.60000000 0.14720471
v 0.66947935 2.60000000 -0.14720471
v 0.66947935 2.60000000 0.14720471
v 1.35000000 2.68000000 0.00000000
v 1.35000000 2.52000000 0.00000000
v 1.10278640 2.53527864 0.14000000
v 1.59721360 2.53527864 0.14000000
v 1.10278640 2.66472136 0.14000000
v 1.59721360 2.66472136 0.14000000
v 1.35000000 2.60000000 0.28000000
v 1.10278640 2.53527864 -0.14000000
v 1.59721360 2.53527864 -0.14000000
v 1.10278640 2.66472136 -0.14000000
v 1.59721360 2.66472136 -0.14000000
v 1.35000000 2.60000000 -0.28000000
v 1.99721360 2.64000000 -0.08652476
v 1.99721360 2.56000000 -0.08652476
v 1.75000000 2.57527864 -0.22652476
v 1.75000000 2.62472136 -0.22652476
v 1.99721360 2.64000000 0.08652476
v 1.99721360 2.56000000 0.08652476
v 1.75000000 2.57527864 0.22652476
v 1.75000000 2.62472136 0.22652476
v 2.15000000 2.60000000 0.00000000
v 0.70278640 2.64000000 -0.08652476
v 0.70278640 2.56000000 -0.08652476
v 0.95000000 2.57527864 -0.22652476
v 0.95000000 2.62472136 -0.22652476
v 0.70278640 2.64000000 0.08652476
v 0.70278640 2.56000000 0.08652476
v 0.95000000 2.57527864 0.22652476
v 0.95000000 2.62472136 0.22652476
v 0.55000000 2.60000000 0.00000000
v 1.82941511 3.76805206 0.00000000
v 2.67058489 3.76805206 0.00000000
v 1.82941511 3.63194794 0.00000000
v 2.67058489 3.63194794 0.00000000
v 2.25000000 3.65794151 0.23818223
v 2.25000000 3.74205849 0.23818223
v 2.25000000 3.65794151 -0.23818223
v 2.25000000 3.74205849 -0.23818223
v 2.93052065 3.70000000 -0.14720471
v 2.93052065 3.70000000 0.14720471
v 1.56947935 3.70000000 -0.14720471
v 1.56947935 3.70000000 0.14720471
v 2.25000000 3.78000000 0.00000000
v 2.25000000 3.62000000 0.00000000
v 2.00278640 3.63527864 0.14000000
v 2.49721360 3.63527864 0.14000000
v 2.00278640 3.76472136 0.14000000
v 2.49721360 3.76472136 0.14000000
v 2.25000000 3.70000000 0.28000000
v 2.00278640 3.63527864 -0.14000000
v 2.49721360 3.63527864 -0.14000000
v 2.00278640 3.76472136 -0.14000000
v 2.49721360 3.76472136 -0.14000000
v 2.25000000 3.70000000 -0.28000000
v 2.89721360 3.74000000 -0.08652476
v 2.89721360 3.66000000 -0.08652476
v 2.65000000 3.67527864 -0.22652476
v 2.65000000 3.72472136 -0.22652476
v 2.89721360 3.74000000 0.08652476
v 2.89721360 3.66000000 0.08652476
v 2.65000000 3.67527864 0.22652476
v 2.65000000 3.72472136 0.22652476
v 3.05000000 3.70000000 0.00000000
v 1.60278640 3.74000000 -0.08652476
v 1.60278640 3.66000000 -0.08652476
v 1.85000000 3.67527864 -0.22652476
v 1.85000000 3.72472136 -0.22652476
v 1.60278640 3.74000000 0.08652476
v 1.60278640 3.66000000 0.08652476
v 1.85000000 3.67527864 0.22652476
v 1.85000000 3.72472136 0.22652476
v 1.45000000 3.70000000 0.00000000
f 1 38 17
f 38 12 41
f 17 41 6
f 38 41 17
f 1 17 13
f 17 6 18
f 13 18 2
f 17 18 13
f 1 13 22
f 13 2 23
f 22 23 8
f 13 23 22
f 1 22 34
f 22 8 37
f 34 37 11
f 22 37 34
f 1 34 38
f 34 11 42
f 38 42 12
f 34 42 38
f 2 18 29
f 18 6 32
f 29 32 10
f 18 32 29
f 6 41 19
f 41 12 40
f 19 40 5
f 41 40 19
f 12 42 39
f 42 11 35
f 39 35 3
f 42 35 39
f 11 37 36
f 37 8 24
f 36 24 7
f 37 24 36
f 8 23 28
f 23 2 25
f 28 25 9
f 23 25 28
f 4 30 16
f 30 10 31
f 16 31 5
f 30 31 16
f 4 16 14
f 16 5 15
f 14 15 3
f 16 15 14
f 4 14 21
f 14 3 20
f 21 20 7
f 14 20 21
f 4 21 26
f 21 7 27
f 26 27 9
f 21 27 26
f 4 26 30
f 26 9 33
f 30 33 10
f 26 33 30
f 5 31 19
f 31 10 32
f 19 32 6
f 31 32 19
f 3 15 39
f 15 5 40
f 39 40 12
f 15 40 39
f 7 20 36
f 20 3 35
f 36 35 11
f 20 35 36
f 9 27 28
f 27 7 24
f 28 24 8
f 27 24 28
f 10 33 29
f 33 9 25
f 29 25 2
f 33 25 29
f 44 43 47
f 44 47 45
f 45 47 48
f 45 48 46
f 47 43 49
f 47 49 48
f 48 49 50
f 48 50 46
f 49 43 51
f 49 51 50
f 50 51 52
f 50 52 46
f 51 43 53
f 51 53 52
f 52 53 54
f 52 54 46
f 53 43 55
f 53 55 54
f 54 55 56
f 54 56 46
f 55 43 57
f 55 57 56
f 56 57 58
f 56 58 46
f 57 43 44
f 57 44 58
f 58 44 45
f 58 45 46
f 60 59 63
f 60 63 61
f 61 63 64
f 61 64 62
f 63 59 65
f 63 65 64
f 64 65 66
f 64 66 62
f 65 59 67
f 65 67 66
f 66 67 68
f 66 68 62
f 67 59 69
f 67 69 68
f 68 69 70
f 68 70 62
f 69 59 71
f 69 71 70
f 70 71 72
f 70 72 62
f 71 59 73
f 71 73 72
f 72 73 74
f 72 74 62
f 73 59 60
f 73 60 74
f 74 60 61
f 74 61 62
f 76 75 79
f 76 79 77
f 77 79 80
f 77 80 78
f 79 75 81
f 79 81 80
f 80 81 82
f 80 82 78
f 81 75 83
f 81 83 82
f 82 83 84
f 82 84 78
f 83 75 85
f 83 85 84
f 84 85 86
f 84 86 78
f 85 75 87
f 85 87 86
f 86 87 88
f 86 88 78
f 87 75 89
f 87 89 88
f 88 89 90
f 88 90 78
f 89 75 76
f 89 76 90
f 90 76 77
f 90 77 78
f 91 128 107
f 128 102 131
f 107 131 96
f 128 131 107
f 91 107 103
f 107 96 108
f 103 108 92
f 107 108 103
f 91 103 112
f 103 92 113
f 112 113 98
f 103 113 112
f 91 112 124
f 112 98 127
f 124 127 101
f 112 127 124
f 91 124 128
f 124 101 132
f 128 132 102
f 124 132 128
f 92 108 119
f 108 96 122
f 119 122 100
f 108 122 119
f 96 131 109
f 131 102 130
f 109 130 95
f 131 130 109
f 102 132 129
f 132 101 125
f 129 125 93
f 132 125 129
f 101 127 126
f 127 98 114
f 126 114 97
f 127 114 126
f 98 113 118
f 113 92 115
f 118 115 99
f 113 115 118
f 94 120 106
f 120 100 121
f 106 121 95
f 120 121 106
f 94 106 104
f 106 95 105
f 104 105 93
f 106 105 104
f 94 104 111
f 104 93 110
f 111 110 97
f 104 110 111
f 94 111 116
f 111 97 117
f 116 117 99
f 111 117 116
f 94 116 120
f 116 99 123
f 120 123 100
f 116 123 120
f 95 121 109
f 121 100 122
f 109 122 96
f 121 122 109
f 93 105 129
f 105 95 130
f 129 130 102
f 105 130 129
f 97 110 126
f 110 93 125
f 126 125 101
f 110 125 126
f 99 117 118
f 117 97 114
f 118 114 98
f 117 114 118
f 100 123 119
f 123 99 115
f 119 115 92
f 123 115 119
f 133 170 149
f 170 144 173
f 149 173 138
f 170 173 149
f 133 149 145
f 149 138 150
f 145 150 134
f 149 150 145
f 133 145 154
f 145 134 155
f 154 155 140
f 145 155 154
f 133 154 166
f 154 140 169
f 166 169 143
f 154 169 166
f 133 166 170
f 166 143 174
f 170 174 144
f 166 174 170
f 134 150 161
f 150 138 164
f 161 164 142
f 150 164 161
f 138 173 151
f 173 144 172
f 151 172 137
f 173 172 151
f 144 174 171
f 174 143 167
f 171 167 135
f 174 167 171
f 143 169 168
f 169 140 156
f 168 156 139
f 169 156 168
f 140 155 160
f 155 134 157
f 160 157 141
f 155 157 160
f 136 162 148
f 162 142 163
f 148 163 137
f 162 163 148
f 136 148 146
f 148 137 147
f 146 147 135
f 148 147 146
f 136 146 153
f 146 135 152
f 153 152 139
f 146 152 153
f 136 153 158
f 153 139 159
f 158 159 141
f 153 159 158
f 136 158 162
f 158 141 165
f 162 165 142
f 158 165 162
f 137 163 151
f 163 142 164
f 151 164 138
f 163 164 151
f 135 147 171
f 147 137 172
f 171 172 144
f 147 172 171
f 139 152 168
f 152 135 167
f 168 167 143
f 152 167 168
f 141 159 160
f 159 139 156
f 160 156 140
f 159 156 160
f 142 165 161
f 165 141 157
f 161 157 134
f 165 157 161
f 175 212 191
f 212 186 215
f 191 215 180
f 212 215 191
f 175 191 187
f 191 180 192
f 187 192 176
f 191 192 187
f 175 187 196
f 187 176 197
f 196 197 182
f 187 197 196
f 175 196 208
f 196 182 211
f 208 211 185
f 196 211 208
f 175 208 212
f 208 185 216
f 212 216 186
f 208 216 212
f 176 192 203
f 192 180 206
f 203 206 184
f 192 206 203
f 180 215 193
f 215 186 214
f 193 214 179
f 215 214 193
f 186 216 213
f 216 185 209
f 213 209 177
f 216 209 213
f 185 211 210
f 211 182 198
f 210 198 181
f 211 198 210
f 182 197 202
f 197 176 199
f 202 199 183
f 197 199 202
f 178 204 190
f 204 184 205
f 190 205 179
f 204 205 190
f 178 190 188
f 190 179 189
f 188 189 177
f 190 189 188
f 178 188 195
f 188 177 194
f 195 194 181
f 188 194 195
f 178 195 200
f 195 181 201
f 200 201 183
f 195 201 200
f 178 200 204
f 200 183 207
f 204 207 184
f 200 207 204
f 179 205 193
f 205 184 206
f 193 206 180
f 205 206 193
f 177 189 213
f 189 179 214
f 213 214 186
f 189 214 213
f 181 194 210
f 194 177 209
f 210 209 185
f 194 209 210
f 183 201 202
f 201 181 198
f 202 198 182
f 201 198 202
f 184 207 203
f 207 183 199
f 203 199 176
f 207 199 203
f 218 217 221
f 218 221 219
f 219 221 222
f 219 222 220
f 221 217 223
f 221 223 222
f 222 223 224
f 222 224 220
f 223 217 225
f 223 225 224
f 224 225 226
f 224 226 220
f 225 217 227
f 225 227 226
f 226 227 228
f 226 228 220
f 227 217 229
f 227 229 228
f 228 229 230
f 228 230 220
f 229 217 231
f 229 231 230
f 230 231 232
f 230 232 220
f 231 217 218
f 231 218 232
f 232 218 219
f 232 219 220
f 234 233 237
f 234 237 235
f 235 237 238
f 235 238 236
f 237 233 239
f 237 239 238
f 238 239 240
f 238 240 236
f 239 233 241
f 239 241 240
f 240 241 242
f 240 242 236
f 241 233 243
f 241 243 242
f 242 243 244
f 242 244 236
f 243 233 245
f 243 245 244
f 244 245 246
f 244 246 236
f 245 233 247
f 245 247 246
f 246 247 248
f 246 248 236
f 247 233 234
f 247 234 248
f 248 234 235
f 248 235 236
f 250 249 253
f 250 253 251
f 251 253 254
f 251 254 252
f 253 249 255
f 253 255 254
f 254 255 256
f 254 256 252
f 255 249 257
f 255 257 256
f 256 257 258
f 256 258 252
f 257 249 259
f 257 259 258
f 258 259 260
f 258 260 252
f 259 249 261
f 259 261 260
f 260 261 262
f 260 262 252
f 261 249 263
f 261 263 262
f 262 263 264
f 262 264 252
f 263 249 250
f 263 250 264
f 264 250 251
f 264 251 252
f 265 302 281
f 302 276 305
f 281 305 270
f 302 305 281
f 265 281 277
f 281 270 282
f 277 282 266
f 281 282 277
f 265 277 286
f 277 266 287
f 286 287 272
f 277 287 286
f 265 286 298
f 286 272 301
f 298 301 275
f 286 301 298
f 265 298 302
f 298 275 306
f 302 306 276
f 298 306 302
f 266 282 293
f 282 270 296
f 293 296 274
f 282 296 293
f 270 305 283
f 305 276 304
f 283 304 269
f 305 304 283
f 276 306 303
f 306 275 299
f 303 299 267
f 306 299 303
f 275 301 300
f 301 272 288
f 300 288 271
f 301 288 300
f 272 287 292
f 287 266 289
f 292 289 273
f 287 289 292
f 268 294 280
f 294 274 295
f 280 295 269
f 294 295 280
f 268 280 278
f 280 269 279
f 278 279 267
f 280 279 278
f 268 278 285
f 278 267 284
f 285 284 271
f 278 284 285
f 268 285 290
f 285 271 291
f 290 291 273
f 285 291 290
f 268 290 294
f 290 273 297
f 294 297 274
f 290 297 294
f 269 295 283
f 295 274 296
f 283 296 270
f 295 296 283
f 267 279 303
f 279 269 304
f 303 304 276
f 279 304 303
f 271 284 300
f 284 267 299
f 300 299 275
f 284 299 300
f 273 291 292
f 291 271 288
f 292 288 272
f 291 288 292
f 274 297 293
f 297 273 289
f 293 289 266
f 297 289 293
f 307 344 323
f 344 318 347
f 323 347 312
f 344 347 323
f 307 323 319
f 323 312 324
f 319 324 308
f 323 324 319
f 307 319 328
f 319 308 329
f 328 329 314
f 319 329 328
f 307 328 340
f 328 314 343
f 340 343 317
f 328 343 340
f 307 340 344
f 340 317 348
f 344 348 318
f 340 348 344
f 308 324 335
f 324 312 338
f 335 338 316
f 324 338 335
f 312 347 325
f 347 318 346
f 325 346 311
f 347 346 325
f 318 348 345
f 348 317 341
f 345 341 309
f 348 341 345
f 317 343 342
f 343 314 330
f 342 330 313
f 343 330 342
f 314 329 334
f 329 308 331
f 334 331 315
f 329 331 334
f 310 336 322
f 336 316 337
f 322 337 311
f 336 337 322
f 310 322 320
f 322 311 321
f 320 321 309
f 322 321 320
f 310 320 327
f 320 309 326
f 327 326 313
f 320 326 327
f 310 327 332
f 327 313 333
f 332 333 315
f 327 333 332
f 310 332 336
f 332 315 339
f 336 339 316
f 332 339 336
f 311 337 325
f 337 316 338
f 325 338 312
f 337 338 325
f 309 321 345
f 321 311 346
f 345 346 318
f 321 346 345
f 313 326 342
f 326 309 341
f 342 341 317
f 326 341 342
f 315 333 334
f 333 313 330
f 334 330 314
f 333 330 334
f 316 339 335
f 339 315 331
f 335 331 308
f 339 331 335
f 349 386 365
f 386 360 389
f 365 389 354
f 386 389 365
f 349 365 361
f 365 354 366
f 361 366 350
f 365 366 361
f 349 361 370
f 361 350 371
f 370 371 356
f 361 371 370
f 349 370 382
f 370 356 385
f 382 385 359
f 370 385 382
f 349 382 386
f 382 359 390
f 386 390 360
f 382 390 386
f 350 366 377
f 366 354 380
f 377 380 358
f 366 380 377
f 354 389 367
f 389 360 388
f 367 388 353
f 389 388 367
f 360 390 387
f 390 359 383
f 387 383 351
f 390 383 387
f 359 385 384
f 385 356 372
f 384 372 355
f 385 372 384
f 356 371 376
f 371 350 373
f 376 373 357
f 371 373 376
f 352 378 364
f 378 358 379
f 364 379 353
f 378 379 364
f 352 364 362
f 364 353 363
f 362 363 351
f 364 363 362
f 352 362 369
f 362 351 368
f 369 368 355
f 362 368 369
f 352 369 374
f 369 355 375
f 374 375 357
f 369 375 374
f 352 374 378
f 374 357 381
f 378 381 358
f 374 381 378
f 353 379 367
f 379 358 380
f 367 380 354
f 379 380 367
f 351 363 387
f 363 353 388
f 387 388 360
f 363 388 387
f 355 368 384
f 368 351 383
f 384 383 359
f 368 383 384
f 357 375 376
f 375 355 372
f 376 372 356
f 375 372 376
f 358 381 377
f 381 357 373
f 377 373 350
f 381 373 377
f 392 391 395
f 392 395 393
f 393 395 396
f 393 396 394
f 395 391 397
f 395 397 396
f 396 397 398
f 396 398 394
f 397 391 399
f 397 399 398
f 398 399 400
f 398 400 394
f 399 391 401
f 399 401 400
f 400 401 402
f 400 402 394
f 401 391 403
f 401 403 402
f 402 403 404
f 402 404 394
f 403 391 405
f 403 405 404
f 404 405 406
f 404 406 394
f 405 391 392
f 405 392 406
f 406 392 393
f 406 393 394
f 408 407 411
f 408 411 409
f 409 411 412
f 409 412 410
f 411 407 413
f 411 413 412
f 412 413 414
f 412 414 410
f 413 407 415
f 413 415 414
f 414 415 416
f 414 416 410
f 415 407 417
f 415 417 416
f 416 417 418
f 416 418 410
f 417 407 419
f 417 419 418
f 418 419 420
f 418 420 410
f 419 407 421
f 419 421 420
f 420 421 422
f 420 422 410
f 421 407 408
f 421 408 422
f 422 408 409
f 422 409 410
f 424 423 427
f 424 427 425
f 425 427 428
f 425 428 426
f 427 423 429
f 427 429 428
f 428 429 430
f 428 430 426
f 429 423 431
f 429 431 430
f 430 431 432
f 430 432 426
f 431 423 433
f 431 433 432
f 432 433 434
f 432 434 426
f 433 423 435
f 433 435 434
f 434 435 436
f 434 436 426
f 435 423 437
f 435 437 436
f 436 437 438
f 436 438 426
f 437 423 424
f 437 424 438
f 438 424 425
f 438 425 426
f 439 476 455
f 476 450 479
f 455 479 444
f 476 479 455
f 439 455 451
f 455 444 456
f 451 456 440
f 455 456 451
f 439 451 460
f 451 440 461
f 460 461 446
f 451 461 460
f 439 460 472
f 460 446 475
f 472 475 449
f 460 475 472
f 439 472 476
f 472 449 480
f 476 480 450
f 472 480 476
f 440 456 467
f 456 444 470
f 467 470 448
f 456 470 467
f 444 479 457
f 479 450 478
f 457 478 443
f 479 478 457
f 450 480 477
f 480 449 473
f 477 473 441
f 480 473 477
f 449 475 474
f 475 446 462
f 474 462 445
f 475 462 474
f 446 461 466
f 461 440 463
f 466 463 447
f 461 463 466
f 442 468 454
f 468 448 469
f 454 469 443
f 468 469 454
f 442 454 452
f 454 443 453
f 452 453 441
f 454 453 452
f 442 452 459
f 452 441 458
f 459 458 445
f 452 458 459
f 442 459 464
f 459 445 465
f 464 465 447
f 459 465 464
f 442 464 468
f 464 447 471
f 468 471 448
f 464 471 468
f 443 469 457
f 469 448 470
f 457 470 444
f 469 470 457
f 441 453 477
f 453 443 478
f 477 478 450
f 453 478 477
f 445 458 474
f 458 441 473
f 474 473 449
f 458 473 474
f 447 465 466
f 465 445 462
f 466 462 446
f 465 462 466
f 448 471 467
f 471 447 463
f 467 463 440
f 471 463 467
f 481 518 497
f 518 492 521
f 497 521 486
f 518 521 497
f 481 497 493
f 497 486 498
f 493 498 482
f 497 498 493
f 481 493 502
f 493 482 503
f 502 503 488
f 493 503 502
f 481 502 514
f 502 488 517
f 514 517 491
f 502 517 514
f 481 514 518
f 514 491 522
f 518 522 492
f 514 522 518
f 482 498 509
f 498 486 512
f 509 512 490
f 498 512 509
f 486 521 499
f 521 492 520
f 499 520 485
f 521 520 499
f 492 522 519
f 522 491 515
f 519 515 483
f 522 515 519
f 491 517 516
f 517 488 504
f 516 504 487
f 517 504 516
f 488 503 508
f 503 482 505
f 508 505 489
f 503 505 508
f 484 510 496
f 510 490 511
f 496 511 485
f 510 511 496
f 484 496 494
f 496 485 495
f 494 495 483
f 496 495 494
f 484 494 501
f 494 483 500
f 501 500 487
f 494 500 501
f 484 501 506
f 501 487 507
f 506 507 489
f 501 507 506
f 484 506 510
f 506 489 513
f 510 513 490
f 506 513 510
f 485 511 499
f 511 490 512
f 499 512 486
f 511 512 499
f 483 495 519
f 495 485 520
f 519 520 492
f 495 520 519
f 487 500 516
f 500 483 515
f 516 515 491
f 500 515 516
f 489 507 508
f 507 487 504
f 508 504 488
f 507 504 508
f 490 513 509
f 513 489 505
f 509 505 482
f 513 505 509
f 523 560 539
f 560 534 563
f 539 563 528
f 560 563 539
f 523 539 535
f 539 528 540
f 535 540 524
f 539 540 535
f 523 535 544
f 535 524 545
f 544 545 530
f 535 545 544
f 523 544 556
f 544 530 559
f 556 559 533
f 544 559 556
f 523 556 560
f 556 533 564
f 560 564 534
f 556 564 560
f 524 540 551
f 540 528 554
f 551 554 532
f 540 554 551
f 528 563 541
f 563 534 562
f 541 562 527
f 563 562 541
f 534 564 561
f 564 533 557
f 561 557 525
f 564 557 561
f 533 559 558
f 559 530 546
f 558 546 529
f 559 546 558
f 530 545 550
f 545 524 547
f 550 547 531
f 545 547 550
f 526 552 538
f 552 532 553
f 538 553 527
f 552 553 538
f 526 538 536
f 538 527 537
f 536 537 525
f 538 537 536
f 526 536 543
f 536 525 542
f 543 542 529
f 536 542 543
f 526 543 548
f 543 529 549
f 548 549 531
f 543 549 548
f 526 548 552
f 548 531 555
f 552 555 532
f 548 555 552
f 527 553 541
f 553 532 554
f 541 554 528
f 553 554 541
f 525 537 561
f 537 527 562
f 561 562 534
f 537 562 561
f 529 542 558
f 542 525 557
f 558 557 533
f 542 557 558
f 531 549 550
f 549 529 546
f 550 546 530
f 549 546 550
f 532 555 551
f 555 531 547
f 551 547 524
f 555 547 551
f 566 565 569
f 566 569 567
f 567 569 570
f 567 570 568
f 569 565 571
f 569 571 570
f 570 571 572
f 570 572 568
f 571 565 573
f 571 573 572
f 572 573 574
f 572 574 568
f 573 565 575
f 573 575 574
f 574 575 576
f 574 576 568
f 575 565 577
f 575 577 576
f 576 577 578
f 576 578 568
f 577 565 579
f 577 579 578
f 578 579 580
f 578 580 568
f 579 565 566
f 579 566 580
f 580 566 567
f 580 567 568
f 582 581 585
f 582 585 583
f 583 585 586
f 583 586 584
f 585 581 587
f 585 587 586
f 586 587 588
f 586 588 584
f 587 581 589
f 587 589 588
f 588 589 590
f 588 590 584
f 589 581 591
f 589 591 590
f 590 591 592
f 590 592 584
f 591 581 593
f 591 593 592
f 592 593 594
f 592 594 584
f 593 581 595
f 593 595 594
f 594 595 596
f 594 596 584
f 595 581 582
f 595 582 596
f 596 582 583
f 596 583 584
f 598 597 601
f 598 601 599
f 599 601 602
f 599 602 600
f 601 597 603
f 601 603 602
f 602 603 604
f 602 604 600
f 603 597 605
f 603 605 604
f 604 605 606
f 604 606 600
f 605 597 607
f 605 607 606
f 606 607 608
f 606 608 600
f 607 597 609
f 607 609 608
f 608 609 610
f 608 610 600
f 609 597 611
f 609 611 610
f 610 611 612
f 610 612 600
f 611 597 598
f 611 598 612
f 612 598 599
f 612 599 600
f 613 650 629
f 650 624 653
f 629 653 618
f 650 653 629
f 613 629 625
f 629 618 630
f 625 630 614
f 629 630 625
f 613 625 634
f 625 614 635
f 634 635 620
f 625 635 634
f 613 634 646
f 634 620 649
f 646 649 623
f 634 649 646
f 613 646 650
f 646 623 654
f 650 654 624
f 646 654 650
f 614 630 641
f 630 618 644
f 641 644 622
f 630 644 641
f 618 653 631
f 653 624 652
f 631 652 617
f 653 652 631
f 624 654 651
f 654 623 647
f 651 647 615
f 654 647 651
f 623 649 648
f 649 620 636
f 648 636 619
f 649 636 648
f 620 635 640
f 635 614 637
f 640 637 621
f 635 637 640
f 616 642 628
f 642 622 643
f 628 643 617
f 642 643 628
f 616 628 626
f 628 617 627
f 626 627 615
f 628 627 626
f 616 626 633
f 626 615 632
f 633 632 619
f 626 632 633
f 616 633 638
f 633 619 639
f 638 639 621
f 633 639 638
f 616 638 642
f 638 621 645
f 642 645 622
f 638 645 642
f 617 643 631
f 643 622 644
f 631 644 618
f 643 644 631
f 615 627 651
f 627 617 652
f 651 652 624
f 627 652 651
f 619 632 648
f 632 615 647
f 648 647 623
f 632 647 648
f 621 639 640
f 639 619 636
f 640 636 620
f 639 636 640
f 622 645 641
f 645 621 637
f 641 637 614
f 645 637 641
f 655 692 671
f 692 666 695
f 671 695 660
f 692 695 671
f 655 671 667
f 671 660 672
f 667 672 656
f 671 672 667
f 655 667 676
f 667 656 677
f 676 677 662
f 667 677 676
f 655 676 688
f 676 662 691
f 688 691 665
f 676 691 688
f 655 688 692
f 688 665 696
f 692 696 666
f 688 696 692
f 656 672 683
f 672 660 686
f 683 686 664
f 672 686 683
f 660 695 673
f 695 666 694
f 673 694 659
f 695 694 673
f 666 696 693
f 696 665 689
f 693 689 657
f 696 689 693
f 665 691 690
f 691 662 678
f 690 678 661
f 691 678 690
f 662 677 682
f 677 656 679
f 682 679 663
f 677 679 682
f 658 684 670
f 684 664 685
f 670 685 659
f 684 685 670
f 658 670 668
f 670 659 669
f 668 669 657
f 670 669 668
f 658 668 675
f 668 657 674
f 675 674 661
f 668 674 675
f 658 675 680
f 675 661 681
f 680 681 663
f 675 681 680
f 658 680 684
f 680 663 687
f 684 687 664
f 680 687 684
f 659 685 673
f 685 664 686
f 673 686 660
f 685 686 673
f 657 669 693
f 669 659 694
f 693 694 666
f 669 694 693
f 661 674 690
f 674 657 689
f 690 689 665
f 674 689 690
f 663 681 682
f 681 661 678
f 682 678 662
f 681 678 682
f 664 687 683
f 687 663 679
f 683 679 656
f 687 679 683
f 697 734 713
f 734 708 737
f 713 737 702
f 734 737 713
f 697 713 709
f 713 702 714
f 709 714 698
f 713 714 709
f 697 709 718
f 709 698 719
f 718 719 704
f 709 719 718
f 697 718 730
f 718 704 733
f 730 733 707
f 718 733 730
f 697 730 734
f 730 707 738
f 734 738 708
f 730 738 734
f 698 714 725
f 714 702 728
f 725 728 706
f 714 728 725
f 702 737 715
f 737 708 736
f 715 736 701
f 737 736 715
f 708 738 735
f 738 707 731
f 735 731 699
f 738 731 735
f 707 733 732
f 733 704 720
f 732 720 703
f 733 720 732
f 704 719 724
f 719 698 721
f 724 721 705
f 719 721 724
f 700 726 712
f 726 706 727
f 712 727 701
f 726 727 712
f 700 712 710
f 712 701 711
f 710 711 699
f 712 711 710
f 700 710 717
f 710 699 716
f 717 716 703
f 710 716 717
f 700 717 722
f 717 703 723
f 722 723 705
f 717 723 722
f 700 722 726
f 722 705 729
f 726 729 706
f 722 729 726
f 701 727 715
f 727 706 728
f 715 728 702
f 727 728 715
f 699 711 735
f 711 701 736
f 735 736 708
f 711 736 735
f 703 716 732
f 716 699 731
f 732 731 707
f 716 731 732
f 705 723 724
f 723 703 720
f 724 720 704
f 723 720 724
f 706 729 725
f 729 705 721
f 725 721 698
f 729 721 725
f 740 739 743
f 740 743 741
f 741 743 744
f 741 744 742
f 743 739 745
f 743 745 744
f 744 745 746
f 744 746 742
f 745 739 747
f 745 747 746
f 746 747 748
f 746 748 742
f 747 739 749
f 747 749 748
f 748 749 750
f 748 750 742
f 749 739 751
f 749 751 750
f 750 751 752
f 750 752 742
f 751 739 753
f 751 753 752
f 752 753 754
f 752 754 742
f 753 739 740
f 753 740 754
f 754 740 741
f 754 741 742
f 756 755 759
f 756 759 757
f 757 759 760
f 757 760 758
f 759 755 761
f 759 761 760
f 760 761 762
f 760 762 758
f 761 755 763
f 761 763 762
f 762 763 764
f 762 764 758
f 763 755 765
f 763 765 764
f 764 765 766
f 764 766 758
f 765 755 767
f 765 767 766
f 766 767 768
f 766 768 758
f 767 755 769
f 767 769 768
f 768 769 770
f 768 770 758
f 769 755 756
f 769 756 770
f 770 756 757
f 770 757 758
f 772 771 775
f 772 775 773
f 773 775 776
f 773 776 774
f 775 771 777
f 775 777 776
f 776 777 778
f 776 778 774
f 777 771 779
f 777 779 778
f 778 779 780
f 778 780 774
f 779 771 781
f 779 781 780
f 780 781 782
f 780 782 774
f 781 771 783
f 781 783 782
f 782 783 784
f 782 784 774
f 783 771 785
f 783 785 784
f 784 785 786
f 784 786 774
f 785 771 772
f 785 772 786
f 786 772 773
f 786 773 774
f 787 824 803
f 824 798 827
f 803 827 792
f 824 827 803
f 787 803 799
f 803 792 804
f 799 804 788
f 803 804 799
f 787 799 808
f 799 788 809
f 808 809 794
f 799 809 808
f 787 808 820
f 808 794 823
f 820 823 797
f 808 823 820
f 787 820 824
f 820 797 828
f 824 828 798
f 820 828 824
f 788 804 815
f 804 792 818
f 815 818 796
f 804 818 815
f 792 827 805
f 827 798 826
f 805 826 791
f 827 826 805
f 798 828 825
f 828 797 821
f 825 821 789
f 828 821 825
f 797 823 822
f 823 794 810
f 822 810 793
f 823 810 822
f 794 809 814
f 809 788 811
f 814 811 795
f 809 811 814
f 790 816 802
f 816 796 817
f 802 817 791
f 816 817 802
f 790 802 800
f 802 791 801
f 800 801 789
f 802 801 800
f 790 800 807
f 800 789 806
f 807 806 793
f 800 806 807
f 790 807 812
f 807 793 813
f 812 813 795
f 807 813 812
f 790 812 816
f 812 795 819
f 816 819 796
f 812 819 816
f 791 817 805
f 817 796 818
f 805 818 792
f 817 818 805
f 789 801 825
f 801 791 826
f 825 826 798
f 801 826 825
f 793 806 822
f 806 789 821
f 822 821 797
f 806 821 822
f 795 813 814
f 813 793 810
f 814 810 794
f 813 810 814
f 796 819 815
f 819 795 811
f 815 811 788
f 819 811 815
f 829 866 845
f 866 840 869
f 845 869 834
f 866 869 845
f 829 845 841
f 845 834 846
f 841 846 830
f 845 846 841
f 829 841 850
f 841 830 851
f 850 851 836
f 841 851 850
f 829 850 862
f 850 836 865
f 862 865 839
f 850 865 862
f 829 862 866
f 862 839 870
f 866 870 840
f 862 870 866
f 830 846 857
f 846 834 860
f 857 860 838
f 846 860 857
f 834 869 847
f 869 840 868
f 847 868 833
f 869 868 847
f 840 870 867
f 870 839 863
f 867 863 831
f 870 863 867
f 839 865 864
f 865 836 852
f 864 852 835
f 865 852 864
f 836 851 856
f 851 830 853
f 856 853 837
f 851 853 856
f 832 858 844
f 858 838 859
f 844 859 833
f 858 859 844
f 832 844 842
f 844 833 843
f 842 843 831
f 844 843 842
f 832 842 849
f 842 831 848
f 849 848 835
f 842 848 849
f 832 849 854
f 849 835 855
f 854 855 837
f 849 855 854
f 832 854 858
f 854 837 861
f 858 861 838
f 854 861 858
f 833 859 847
f 859 838 860
f 847 860 834
f 859 860 847
f 831 843 867
f 843 833 868
f 867 868 840
f 843 868 867
f 835 848 864
f 848 831 863
f 864 863 839
f 848 863 864
f 837 855 856
f 855 835 852
f 856 852 836
f 855 852 856
f 838 861 857
f 861 837 853
f 857 853 830
f 861 853 857
f 871 908 887
f 908 882 911
f 887 911 876
f 908 911 887
f 871 887 883
f 887 876 888
f 883 888 872
f 887 888 883
f 871 883 892
f 883 872 893
f 892 893 878
f 883 893 892
f 871 892 904
f 892 878 907
f 904 907 881
f 892 907 904
f 871 904 908
f 904 881 912
f 908 912 882
f 904 912 908
f 872 888 899
f 888 876 902
f 899 902 880
f 888 902 899
f 876 911 889
f 911 882 910
f 889 910 875
f 911 910 889
f 882 912 909
f 912 881 905
f 909 905 873
f 912 905 909
f 881 907 906
f 907 878 894
f 906 894 877
f 907 894 906
f 878 893 898
f 893 872 895
f 898 895 879
f 893 895 898
f 874 900 886
f 900 880 901
f 886 901 875
f 900 901 886
f 874 886 884
f 886 875 885
f 884 885 873
f 886 885 884
f 874 884 891
f 884 873 890
f 891 890 877
f 884 890 891
f 874 891 896
f 891 877 897
f 896 897 879
f 891 897 896
f 874 896 900
f 896 879 903
f 900 903 880
f 896 903 900
f 875 901 889
f 901 880 902
f 889 902 876
f 901 902 889
f 873 885 909
f 885 875 910
f 909 910 882
f 885 910 909
f 877 890 906
f 890 873 905
f 906 905 881
f 890 905 906
f 879 897 898
f 897 877 894
f 898 894 878
f 897 894 898
f 880 903 899
f 903 879 895
f 899 895 872
f 903 895 899
f 914 913 917
f 914 917 915
f 915 917 918
f 915 918 916
f 917 913 919
f 917 919 918
f 918 919 920
f 918 920 916
f 919 913 921
f 919 921 920
f 920 921 922
f 920 922 916
f 921 913 923
f 921 923 922
f 922 923 924
f 922 924 916
f 923 913 925
f 923 925 924
f 924 925 926
f 924 926 916
f 925 913 927
f 925 927 926
f 926 927 928
f 926 928 916
f 927 913 914
f 927 914 928
f 928 914 915
f 928 915 916
f 930 929 933
f 930 933 931
f 931 933 934
f 931 934 932
f 933 929 935
f 933 935 934
f 934 935 936
f 934 936 932
f 935 929 937
f 935 937 936
f 936 937 938
f 936 938 932
f 937 929 939
f 937 939 938
f 938 939 940
f 938 940 932
f 939 929 941
f 939 941 940
f 940 941 942
f 940 942 932
f 941 929 943
f 941 943 942
f 942 943 944
f 942 944 932
f 943 929 930
f 943 930 944
f 944 930 931
f 944 931 932
f 946 945 949
f 946 949 947
f 947 949 950
f 947 950 948
f 949 945 951
f 949 951 950
f 950 951 952
f 950 952 948
f 951 945 953
f 951 953 952
f 952 953 954
f 952 954 948
f 953 945 955
f 953 955 954
f 954 955 956
f 954 956 948
f 955 945 957
f 955 957 956
f 956 957 958
f 956 958 948
f 957 945 959
f 957 959 958
f 958 959 960
f 958 960 948
f 959 945 946
f 959 946 960
f 960 946 947
f 960 947 948
f 961 998 977
f 998 972 1001
f 977 1001 966
f 998 1001 977
f 961 977 973
f 977 966 978
f 973 978 962
f 977 978 973
f 961 973 982
f 973 962 983
f 982 983 968
f 973 983 982
f 961 982 994
f 982 968 997
f 994 997 971
f 982 997 994
f 961 994 998
f 994 971 1002
f 998 1002 972
f 994 1002 998
f 962 978 989
f 978 966 992
f 989 992 970
f 978 992 989
f 966 1001 979
f 1001 972 1000
f 979 1000 965
f 1001 1000 979
f 972 1002 999
f 1002 971 995
f 999 995 963
f 1002 995 999
f 971 997 996
f 997 968 984
f 996 984 967
f 997 984 996
f 968 983 988
f 983 962 985
f 988 985 969
f 983 985 988
f 964 990 976
f 990 970 991
f 976 991 965
f 990 991 976
f 964 976 974
f 976 965 975
f 974 975 963
f 976 975 974
f 964 974 981
f 974 963 980
f 981 980 967
f 974 980 981
f 964 981 986
f 981 967 987
f 986 987 969
f 981 987 986
f 964 986 990
f 986 969 993
f 990 993 970
f 986 993 990
f 965 991 979
f 991 970 992
f 979 992 966
f 991 992 979
f 963 975 999
f 975 965 1000
f 999 1000 972
f 975 1000 999
f 967 980 996
f 980 963 995
f 996 995 971
f 980 995 996
f 969 987 988
f 987 967 984
f 988 984 968
f 987 984 988
f 970 993 989
f 993 969 985
f 989 985 962
f 993 985 989
f 1003 1040 1019
f 1040 1014 1043
f 1019 1043 1008
f 1040 1043 1019
f 1003 1019 1015
f 1019 1008 1020
f 1015 1020 1004
f 1019 1020 1015
f 1003 1015 1024
f 1015 1004 1025
f 1024 1025 1010
f 1015 1025 1024
f 1003 1024 1036
f 1024 1010 1039
f 1036 1039 1013
f 1024 1039 1036
f 1003 1036 1040
f 1036 1013 1044
f 1040 1044 1014
f 1036 1044 1040
f 1004 1020 1031
f 1020 1008 1034
f 1031 1034 1012
f 1020 1034 1031
f 1008 1043 1021
f 1043 1014 1042
f 1021 1042 1007
f 1043 1042 1021
f 1014 1044 1041
f 1044 1013 1037
f 1041 1037 1005
f 1044 1037 1041
f 1013 1039 1038
f 1039 1010 1026
f 1038 1026 1009
f 1039 1026 1038
f 1010 1025 1030
f 1025 1004 1027
f 1030 1027 1011
f 1025 1027 1030
f 1006 1032 1018
f 1032 1012 1033
f 1018 1033 1007
f 1032 1033 1018
f 1006 1018 1016
f 1018 1007 1017
f 1016 1017 1005
f 1018 1017 1016
f 1006 1016 1023
f 1016 1005 1022
f 1023 1022 1009
f 1016 1022 1023
f 1006 1023 1028
f 1023 1009 1029
f 1028 1029 1011
f 1023 1029 1028
f 1006 1028 1032
f 1028 1011 1035
f 1032 1035 1012
f 1028 1035 1032
f 1007 1033 1021
f 1033 1012 1034
f 1021 1034 1008
f 1033 1034 1021
f 1005 1017 1041
f 1017 1007 1042
f 1041 1042 1014
f 1017 1042 1041
f 1009 1022 1038
f 1022 1005 1037
f 1038 1037 1013
f 1022 1037 1038
f 1011 1029 1030
f 1029 1009 1026
f 1030 1026 1010
f 1029 1026 1030
f 1012 1035 1031
f 1035 1011 1027
f 1031 1027 1004
f 1035 1027 1031
f 1045 1082 1061
f 1082 1056 1085
f 1061 1085 1050
f 1082 1085 1061
f 1045 1061 1057
f 1061 1050 1062
f 1057 1062 1046
f 1061 1062 1057
f 1045 1057 1066
f 1057 1046 1067
f 1066 1067 1052
f 1057 1067 1066
f 1045 1066 1078
f 1066 1052 1081
f 1078 1081 1055
f 1066 1081 1078
f 1045 1078 1082
f 1078 1055 1086
f 1082 1086 1056
f 1078 1086 1082
f 1046 1062 1073
f 1062 1050 1076
f 1073 1076 1054
f 1062 1076 1073
f 1050 1085 1063
f 1085 1056 1084
f 1063 1084 1049
f 1085 1084 1063
f 1056 1086 1083
f 1086 1055 1079
f 1083 1079 1047
f 1086 1079 1083
f 1055 1081 1080
f 1081 1052 1068
f 1080 1068 1051
f 1081 1068 1080
f 1052 1067 1072
f 1067 1046 1069
f 1072 1069 1053
f 1067 1069 1072
f 1048 1074 1060
f 1074 1054 1075
f 1060 1075 1049
f 1074 1075 1060
f 1048 1060 1058
f 1060 1049 1059
f 1058 1059 1047
f 1060 1059 1058
f 1048 1058 1065
f 1058 1047 1064
f 1065 1064 1051
f 1058 1064 1065
f 1048 1065 1070
f 1065 1051 1071
f 1070 1071 1053
f 1065 1071 1070
f 1048 1070 1074
f 1070 1053 1077
f 1074 1077 1054
f 1070 1077 1074
f 1049 1075 1063
f 1075 1054 1076
f 1063 1076 1050
f 1075 1076 1063
f 1047 1059 1083
f 1059 1049 1084
f 1083 1084 1056
f 1059 1084 1083
f 1051 1064 1080
f 1064 1047 1079
f 1080 1079 1055
f 1064 1079 1080
f 1053 1071 1072
f 1071 1051 1068
f 1072 1068 1052
f 1071 1068 1072
f 1054 1077 1073
f 1077 1053 1069
f 1073 1069 1046
f 1077 1069 1073
f 1088 1087 1091
f 1088 1091 1089
f 1089 1091 1092
f 1089 1092 1090
f 1091 1087 1093
f 1091 1093 1092
f 1092 1093 1094
f 1092 1094 1090
f 1093 1087 1095
f 1093 1095 1094
f 1094 1095 1096
f 1094 1096 1090
f 1095 1087 1097
f 1095 1097 1096
f 1096 1097 1098
f 1096 1098 1090
f 1097 1087 1099
f 1097 1099 1098
f 1098 1099 1100
f 1098 1100 1090
f 1099 1087 1101
f 1099 1101 1100
f 1100 1101 1102
f 1100 1102 1090
f 1101 1087 1088
f 1101 1088 1102
f 1102 1088 1089
f 1102 1089 1090
f 1104 1103 1107
f 1104 1107 1105
f 1105 1107 1108
f 1105 1108 1106
f 1107 1103 1109
f 1107 1109 1108
f 1108 1109 1110
f 1108 1110 1106
f 1109 1103 1111
f 1109 1111 1110
f 1110 1111 1112
f 1110 1112 1106
f 1111 1103 1113
f 1111 1113 1112
f 1112 1113 1114
f 1112 1114 1106
f 1113 1103 1115
f 1113 1115 1114
f 1114 1115 1116
f 1114 1116 1106
f 1115 1103 1117
f 1115 1117 1116
f 1116 1117 1118
f 1116 1118 1106
f 1117 1103 1104
f 1117 1104 1118
f 1118 1104 1105
f 1118 1105 1106
f 1120 1119 1123
f 1120 1123 1121
f 1121 1123 1124
f 1121 1124 1122
f 1123 1119 1125
f 1123 1125 1124
f 1124 1125 1126
f 1124 1126 1122
f 1125 1119 1127
f 1125 1127 1126
f 1126 1127 1128
f 1126 1128 1122
f 1127 1119 1129
f 1127 1129 1128
f 1128 1129 1130
f 1128 1130 1122
f 1129 1119 1131
f 1129 1131 1130
f 1130 1131 1132
f 1130 1132 1122
f 1131 1119 1133
f 1131 1133 1132
f 1132 1133 1134
f 1132 1134 1122
f 1133 1119 1120
f 1133 1120 1134
f 1134 1120 1121
f 1134 1121 1122
f 1135 1172 1151
f 1172 1146 1175
f 1151 1175 1140
f 1172 1175 1151
f 1135 1151 1147
f 1151 1140 1152
f 1147 1152 1136
f 1151 1152 1147
f 1135 1147 1156
f 1147 1136 1157
f 1156 1157 1142
f 1147 1157 1156
f 1135 1156 1168
f 1156 1142 1171
f 1168 1171 1145
f 1156 1171 1168
f 1135 1168 1172
f 1168 1145 1176
f 1172 1176 1146
f 1168 1176 1172
f 1136 1152 1163
f 1152 1140 1166
f 1163 1166 1144
f 1152 1166 1163
f 1140 1175 1153
f 1175 1146 1174
f 1153 1174 1139
f 1175 1174 1153
f 1146 1176 1173
f 1176 1145 1169
f 1173 1169 1137
f 1176 1169 1173
f 1145 1171 1170
f 1171 1142 1158
f 1170 1158 1141
f 1171 1158 1170
f 1142 1157 1162
f 1157 1136 1159
f 1162 1159 1143
f 1157 1159 1162
f 1138 1164 1150
f 1164 1144 1165
f 1150 1165 1139
f 1164 1165 1150
f 1138 1150 1148
f 1150 1139 1149
f 1148 1149 1137
f 1150 1149 1148
f 1138 1148 1155
f 1148 1137 1154
f 1155 1154 1141
f 1148 1154 1155
f 1138 1155 1160
f 1155 1141 1161
f 1160 1161 1143
f 1155 1161 1160
f 1138 1160 1164
f 1160 1143 1167
f 1164 1167 1144
f 1160 1167 1164
f 1139 1165 1153
f 1165 1144 1166
f 1153 1166 1140
f 1165 1166 1153
f 1137 1149 1173
f 1149 1139 1174
f 1173 1174 1146
f 1149 1174 1173
f 1141 1154 1170
f 1154 1137 1169
f 1170 1169 1145
f 1154 1169 1170
f 1143 1161 1162
f 1161 1141 1158
f 1162 1158 1142
f 1161 1158 1162
f 1144 1167 1163
f 1167 1143 1159
f 1163 1159 1136
f 1167 1159 1163
f 1177 1214 1193
f 1214 1188 1217
f 1193 1217 1182
f 1214 1217 1193
f 1177 1193 1189
f 1193 1182 1194
f 1189 1194 1178
f 1193 1194 1189
f 1177 1189 1198
f 1189 1178 1199
f 1198 1199 1184
f 1189 1199 1198
f 1177 1198 1210
f 1198 1184 1213
f 1210 1213 1187
f 1198 1213 1210
f 1177 1210 1214
f 1210 1187 1218
f 1214 1218 1188
f 1210 1218 1214
f 1178 1194 1205
f 1194 1182 1208
f 1205 1208 1186
f 1194 1208 1205
f 1182 1217 1195
f 1217 1188 1216
f 1195 1216 1181
f 1217 1216 1195
f 1188 1218 1215
f 1218 1187 1211
f 1215 1211 1179
f 1218 1211 1215
f 1187 1213 1212
f 1213 1184 1200
f 1212 1200 1183
f 1213 1200 1212
f 1184 1199 1204
f 1199 1178 1201
f 1204 1201 1185
f 1199 1201 1204
f 1180 1206 1192
f 1206 1186 1207
f 1192 1207 1181
f 1206 1207 1192
f 1180 1192 1190
f 1192 1181 1191
f 1190 1191 1179
f 1192 1191 1190
f 1180 1190 1197
f 1190 1179 1196
f 1197 1196 1183
f 1190 1196 1197
f 1180 1197 1202
f 1197 1183 1203
f 1202 1203 1185
f 1197 1203 1202
f 1180 1202 1206
f 1202 1185 1209
f 1206 1209 1186
f 1202 1209 1206
f 1181 1207 1195
f 1207 1186 1208
f 1195 1208 1182
f 1207 1208 1195
f 1179 1191 1215
f 1191 1181 1216
f 1215 1216 1188
f 1191 1216 1215
f 1183 1196 1212
f 1196 1179 1211
f 1212 1211 1187
f 1196 1211 1212
f 1185 1203 1204
f 1203 1183 1200
f 1204 1200 1184
f 1203 1200 1204
f 1186 1209 1205
f 1209 1185 1201
f 1205 1201 1178
f 1209 1201 1205
f 1219 1256 1235
f 1256 1230 1259
f 1235 1259 1224
f 1256 1259 1235
f 1219 1235 1231
f 1235 1224 1236
f 1231 1236 1220
f 1235 1236 1231
f 1219 1231 1240
f 1231 1220 1241
f 1240 1241 1226
f 1231 1241 1240
f 1219 1240 1252
f 1240 1226 1255
f 1252 1255 1229
f 1240 1255 1252
f 1219 1252 1256
f 1252 1229 1260
f 1256 1260 1230
f 1252 1260 1256
f 1220 1236 1247
f 1236 1224 1250
f 1247 1250 1228
f 1236 1250 1247
f 1224 1259 1237
f 1259 1230 1258
f 1237 1258 1223
f 1259 1258 1237
f 1230 1260 1257
f 1260 1229 1253
f 1257 1253 1221
f 1260 1253 1257
f 1229 1255 1254
f 1255 1226 1242
f 1254 1242 1225
f 1255 1242 1254
f 1226 1241 1246
f 1241 1220 1243
f 1246 1243 1227
f 1241 1243 1246
f 1222 1248 1234
f 1248 1228 1249
f 1234 1249 1223
f 1248 1249 1234
f 1222 1234 1232
f 1234 1223 1233
f 1232 1233 1221
f 1234 1233 1232
f 1222 1232 1239
f 1232 1221 1238
f 1239 1238 1225
f 1232 1238 1239
f 1222 1239 1244
f 1239 1225 1245
f 1244 1245 1227
f 1239 1245 1244
f 1222 1244 1248
f 1244 1227 1251
f 1248 1251 1228
f 1244 1251 1248
f 1223 1249 1237
f 1249 1228 1250
f 1237 1250 1224
f 1249 1250 1237
f 1221 1233 1257
f 1233 1223 1258
f 1257 1258 1230
f 1233 1258 1257
f 1225 1238 1254
f 1238 1221 1253
f 1254 1253 1229
f 1238 1253 1254
f 1227 1245 1246
f 1245 1225 1242
f 1246 1242 1226
f 1245 1242 1246
f 1228 1251 1247
f 1251 1227 1243
f 1247 1243 1220
f 1251 1243 1247

