# https://github.com/mikedh/trimesh
v -3.00000000 -0.07500000 -2.00000000
v -3.00000000 -0.07500000 2.00000000
v -3.00000000 0.27500000 -2.00000000
v -3.00000000 0.27500000 2.00000000
v 3.00000000 -0.07500000 -2.00000000
v 3.00000000 -0.07500000 2.00000000
v 3.00000000 0.27500000 -2.00000000
v 3.00000000 0.27500000 2.00000000
v -2.50000000 0.25000000 -1.50000000
v -2.28000000 0.25000000 -1.50000000
v -2.28000000 -2.75000000 -1.50000000
v -2.50000000 -2.75000000 -1.50000000
v -2.34443651 0.25000000 -1.34443651
v -2.34443651 -2.75000000 -1.34443651
v -2.50000000 0.25000000 -1.28000000
v -2.50000000 -2.75000000 -1.28000000
v -2.65556349 0.25000000 -1.34443651
v -2.65556349 -2.75000000 -1.34443651
v -2.72000000 0.25000000 -1.50000000
v -2.72000000 -2.75000000 -1.50000000
v -2.65556349 0.25000000 -1.65556349
v -2.65556349 -2.75000000 -1.65556349
v -2.50000000 0.25000000 -1.72000000
v -2.50000000 -2.75000000 -1.72000000
v -2.34443651 0.25000000 -1.65556349
v -2.34443651 -2.75000000 -1.65556349
v -2.50000000 0.25000000 1.50000000
v -2.28000000 0.25000000 1.50000000
v -2.28000000 -2.75000000 1.50000000
v -2.50000000 -2.75000000 1.50000000
v -2.34443651 0.25000000 1.65556349
v -2.34443651 -2.75000000 1.65556349
v -2.50000000 0.25000000 1.72000000
v -2.50000000 -2.75000000 1.72000000
v -2.65556349 0.25000000 1.65556349
v -2.65556349 -2.75000000 1.65556349
v -2.72000000 0.25000000 1.50000000
v -2.72000000 -2.75000000 1.50000000
v -2.65556349 0.25000000 1.34443651
v -2.65556349 -2.75000000 1.34443651
v -2.50000000 0.25000000 1.28000000
v -2.50000000 -2.75000000 1.28000000
v -2.34443651 0.25000000 1.34443651
v -2.34443651 -2.75000000 1.34443651
v 2.50000000 0.25000000 -1.50000000
v 2.72000000 0.25000000 -1.50000000
v 2.72000000 -2.75000000 -1.50000000
v 2.50000000 -2.75000000 -1.50000000
v 2.65556349 0.25000000 -1.34443651
v 2.65556349 -2.75000000 -1.34443651
v 2.50000000 0.25000000 -1.28000000
v 2.50000000 -2.75000000 -1.28000000
v 2.34443651 0.25000000 -1.34443651
v 2.34443651 -2.75000000 -1.34443651
v 2.28000000 0.25000000 -1.50000000
v 2.28000000 -2.75000000 -1.50000000
v 2.34443651 0.25000000 -1.65556349
v 2.34443651 -2.75000000 -1.65556349
v 2.50000000 0.25000000 -1.72000000
v 2.50000000 -2.75000000 -1.72000000
v 2.65556349 0.25000000 -1.65556349
v 2.65556349 -2.75000000 -1.65556349
v 2.50000000 0.25000000 1.50000000
v 2.72000000 0.25000000 1.50000000
v 2.72000000 -2.75000000 1.50000000
v 2.50000000 -2.75000000 1.50000000
v 2.65556349 0.25000000 1.65556349
v 2.65556349 -2.75000000 1.65556349
v 2.50000000 0.25000000 1.72000000
v 2.50000000 -2.75000000 1.72000000
v 2.34443651 0.25000000 1.65556349
v 2.34443651 -2.75000000 1.65556349
v 2.28000000 0.25000000 1.50000000
v 2.28000000 -2.75000000 1.50000000
v 2.34443651 0.25000000 1.34443651
v 2.34443651 -2.75000000 1.34443651
v 2.50000000 0.25000000 1.28000000
v 2.50000000 -2.75000000 1.28000000
v 2.65556349 0.25000000 1.34443651
v 2.65556349 -2.75000000 1.34443651
f 2 4 1
f 5 2 1
f 1 4 3
f 3 5 1
f 2 8 4
f 6 2 5
f 6 8 2
f 4 8 3
f 7 5 3
f 3 8 7
f 7 6 5
f 8 6 7
f 10 9 13
f 10 13 11
f 11 13 14
f 11 14 12
f 13 9 15
f 13 15 14
f 14 15 16
f 14 16 12
f 15 9 17
f 15 17 16
f 16 17 18
f 16 18 12
f 17 9 19
f 17 19 18
f 18 19 20
f 18 20 12
f 19 9 21
f 19 21 20
f 20 21 22
f 20 22 12
f 21 9 23
f 21 23 22
f 22 23 24
f 22 24 12
f 23 9 25
f 23 25 24
f 24 25 26
f 24 26 12
f 25 9 10
f 25 10 26
f 26 10 11
f 26 11 12
f 28 27 31
f 28 31 29
f 29 31 32
f 29 32 30
f 31 27 33
f 31 33 32
f 32 33 34
f 32 34 30
f 33 27 35
f 33 35 34
f 34 35 36
f 34 36 30
f 35 27 37
f 35 37 36
f 36 37 38
f 36 38 30
f 37 27 39
f 37 39 38
f 38 39 40
f 38 40 30
f 39 27 41
f 39 41 40
f 40 41 42
f 40 42 30
f 41 27 43
f 41 43 42
f 42 43 44
f 42 44 30
f 43 27 28
f 43 28 44
f 44 28 29
f 44 29 30
f 46 45 49
f 46 49 47
f 47 49 50
f 47 50 48
f 49 45 51
f 49 51 50
f 50 51 52
f 50 52 48
f 51 45 53
f 51 53 52
f 52 53 54
f 52 54 48
f 53 45 55
f 53 55 54
f 54 55 56
f 54 56 48
f 55 45 57
f 55 57 56
f 56 57 58
f 56 58 48
f 57 45 59
f 57 59 58
f 58 59 60
f 58 60 48
f 59 45 61
f 59 61 60
f 60 61 62
f 60 62 48
f 61 45 46
f 61 46 62
f 62 46 47
f 62 47 48
f 64 63 67
f 64 67 65
f 65 67 68
f 65 68 66
f 67 63 69
f 67 69 68
f 68 69 70
f 68 70 66
f 69 63 71
f 69 71 70
f 70 71 72
f 70 72 66
f 71 63 73
f 71 73 72
f 72 73 74
f 72 74 66
f 73 63 75
f 73 75 74
f 74 75 76
f 74 76 66
f 75 63 77
f 75 77 76
f 76 77 78
f 76 78 66
f 77 63 79
f 77 79 78
f 78 79 80
f 78 80 66
f 79 63 64
f 79 64 80
f 80 64 65
f 80 65 66

