# https://github.com/mikedh/trimesh
v 0.00000000 6.00000000 -0.00000000
v 0.28000000 6.00000000 -0.00000000
v 0.28000000 0.00000000 0.00000000
v 0.00000000 0.00000000 0.00000000
v 0.19798990 6.00000000 0.19798990
v 0.19798990 0.00000000 0.19798990
v 0.00000000 6.00000000 0.28000000
v 0.00000000 0.00000000 0.28000000
v -0.19798990 6.00000000 0.19798990
v -0.19798990 0.00000000 0.19798990
v -0.28000000 6.00000000 -0.00000000
v -0.28000000 0.00000000 0.00000000
v -0.19798990 6.00000000 -0.19798990
v -0.19798990 0.00000000 -0.19798990
v -0.00000000 6.00000000 -0.28000000
v -0.00000000 0.00000000 -0.28000000
v 0.19798990 6.00000000 -0.19798990
v 0.19798990 0.00000000 -0.19798990
v 0.00000000 2.20000000 0.00000000
v 2.00000000 2.20000000 0.00000000
v 0.00000000 0.00000000 0.00000000
v 1.53208889 2.20000000 1.28557522
v 0.34729636 2.20000000 1.96961551
v -1.00000000 2.20000000 1.73205081
v -1.87938524 2.20000000 0.68404029
v -1.87938524 2.20000000 -0.68404029
v -1.00000000 2.20000000 -1.73205081
v 0.34729636 2.20000000 -1.96961551
v 1.53208889 2.20000000 -1.28557522
v 0.00000000 3.50000000 0.00000000
v 1.60000000 3.50000000 0.00000000
v 0.00000000 1.30000000 0.00000000
v 1.22567111 3.50000000 1.02846018
v 0.27783708 3.50000000 1.57569240
v -0.80000000 3.50000000 1.38564065
v -1.50350819 3.50000000 0.54723223
v -1.50350819 3.50000000 -0.54723223
v -0.80000000 3.50000000 -1.38564065
v 0.27783708 3.50000000 -1.57569240
v 1.22567111 3.50000000 -1.02846018
v 0.00000000 4.70000000 0.00000000
v 1.25000000 4.70000000 0.00000000
v 0.00000000 2.50000000 0.00000000
v 0.95755555 4.70000000 0.80348451
v 0.21706022 4.70000000 1.23100969
v -0.62500000 4.70000000 1.08253175
v -1.17461578 4.70000000 0.42752518
v -1.17461578 4.70000000 -0.42752518
v -0.62500000 4.70000000 -1.08253175
v 0.21706022 4.70000000 -1.23100969
v 0.95755555 4.70000000 -0.80348451
v 0.00000000 5.70000000 0.00000000
v 0.90000000 5.70000000 0.00000000
v 0.00000000 3.50000000 0.00000000
v 0.68944000 5.70000000 0.57850885
v 0.15628336 5.70000000 0.88632698
v -0.45000000 5.70000000 0.77942286
v -0.84572336 5.70000000 0.30781813
v -0.84572336 5.70000000 -0.30781813
v -0.45000000 5.70000000 -0.77942286
v 0.15628336 5.70000000 -0.88632698
v 0.68944000 5.70000000 -0.57850885
f 2 1 5
f 2 5 3
f 3 5 6
f 3 6 4
f 5 1 7
f 5 7 6
f 6 7 8
f 6 8 4
f 7 1 9
f 7 9 8
f 8 9 10
f 8 10 4
f 9 1 11
f 9 11 10
f 10 11 12
f 10 12 4
f 11 1 13
f 11 13 12
f 12 13 14
f 12 14 4
f 13 1 15
f 13 15 14
f 14 15 16
f 14 16 4
f 15 1 17
f 15 17 16
f 16 17 18
f 16 18 4
f 17 1 2
f 17 2 18
f 18 2 3
f 18 3 4
f 20 19 22
f 20 22 21
f 22 19 23
f 22 23 21
f 23 19 24
f 23 24 21
f 24 19 25
f 24 25 21
f 25 19 26
f 25 26 21
f 26 19 27
f 26 27 21
f 27 19 28
f 27 28 21
f 28 19 29
f 28 29 21
f 29 19 20
f 29 20 21
f 31 30 33
f 31 33 32
f 33 30 34
f 33 34 32
f 34 30 35
f 34 35 32
f 35 30 36
f 35 36 32
f 36 30 37
f 36 37 32
f 37 30 38
f 37 38 32
f 38 30 39
f 38 39 32
f 39 30 40
f 39 40 32
f 40 30 31
f 40 31 32
f 42 41 44
f 42 44 43
f 44 41 45
f 44 45 43
f 45 41 46
f 45 46 43
f 46 41 47
f 46 47 43
f 47 41 48
f 47 48 43
f 48 41 49
f 48 49 43
f 49 41 50
f 49 50 43
f 50 41 51
f 50 51 43
f 51 41 42
f 51 42 43
f 53 52 55
f 53 55 54
f 55 52 56
f 55 56 54
f 56 52 57
f 56 57 54
f 57 52 58
f 57 58 54
f 58 52 59
f 58 59 54
f 59 52 60
f 59 60 54
f 60 52 61
f 60 61 54
f 61 52 62
f 61 62 54
f 62 52 53
f 62 53 54

