# https://github.com/mikedh/trimesh
v -1.80000000 0.00000000 0.00000000
v -1.78810072 0.01016889 -0.09876741
v -1.53810072 1.66016889 0.10123259
v -1.55000000 1.65000000 0.20000000
v -1.86933260 0.01893292 -0.06953083
v -1.61933260 1.66893292 0.13046917
v -1.89835561 0.01344008 0.01206389
v -1.64835561 1.66344008 0.21206389
v -1.85331485 -0.00217342 0.08457425
v -1.60331485 1.64782658 0.28457425
v -1.76812692 -0.01615028 0.09339847
v -1.51812692 1.63384972 0.29339847
v -1.70694006 -0.01796566 0.03189175
v -1.45694006 1.63203434 0.23189175
v -1.71582924 -0.00625252 -0.05363012
v -1.46582924 1.64374748 0.14636988
v -1.55000000 1.65000000 0.20000000
v -1.57019044 1.66561487 0.29668775
v -1.97019044 3.31561487 -0.05331225
v -1.95000000 3.30000000 -0.15000000
v -1.48817107 1.68036593 0.27249203
v -1.88817107 3.33036593 -0.07750797
v -1.45271015 1.67225082 0.19370832
v -1.85271015 3.32225082 -0.15629168
v -1.49051046 1.64738039 0.11966238
v -1.89051046 3.29738039 -0.23033762
v -1.57310762 1.62448258 0.10611230
v -1.97310762 3.27448258 -0.24388770
v -1.63830426 1.62079991 0.16326158
v -2.03830426 3.27079991 -0.18673842
v -1.63700600 1.63910550 0.24807563
v -2.03700600 3.28910550 -0.10192437
v -1.95000000 3.30000000 -0.15000000
v -1.94137047 3.30709316 -0.24937413
v -1.61137047 5.00709316 -0.09937413
v -1.62000000 5.00000000 -0.00000000
v -2.02108374 3.31975488 -0.21750442
v -1.69108374 5.01975488 -0.06750442
v -2.04726951 3.31754077 -0.13480250
v -1.71726951 5.01754077 0.01519750
v -2.00020935 3.30211810 -0.06354461
v -1.67020935 5.00211810 0.08645539
v -1.91534053 3.28510046 -0.05738939
v -1.58534053 4.98510046 0.09261061
v -1.85657099 3.27930247 -0.12097185
v -1.52657099 4.97930247 0.02902815
v -1.86815541 3.28909015 -0.20641310
v -1.53815541 4.98909015 -0.05641310
v -1.77058489 1.56805206 0.00000000
v -0.92941511 1.56805206 0.00000000
v -1.77058489 1.43194794 0.00000000
v -0.92941511 1.43194794 0.00000000
v -1.35000000 1.45794151 0.23818223
v -1.35000000 1.54205849 0.23818223
v -1.35000000 1.45794151 -0.23818223
v -1.35000000 1.54205849 -0.23818223
v -0.66947935 1.50000000 -0.14720471
v -0.66947935 1.50000000 0.14720471
v -2.03052065 1.50000000 -0.14720471
v -2.03052065 1.50000000 0.14720471
v -1.35000000 1.58000000 0.00000000
v -1.35000000 1.42000000 0.00000000
v -1.59721360 1.43527864 0.14000000
v -1.10278640 1.43527864 0.14000000
v -1.59721360 1.56472136 0.14000000
v -1.10278640 1.56472136 0.14000000
v -1.35000000 1.50000000 0.28000000
v -1.59721360 1.43527864 -0.14000000
v -1.10278640 1.43527864 -0.14000000
v -1.59721360 1.56472136 -0.14000000
v -1.10278640 1.56472136 -0.14000000
v -1.35000000 1.50000000 -0.28000000
v -0.70278640 1.54000000 -0.08652476
v -0.70278640 1.46000000 -0.08652476
v -0.95000000 1.47527864 -0.22652476
v -0.95000000 1.52472136 -0.22652476
v -0.70278640 1.54000000 0.08652476
v -0.70278640 1.46000000 0.08652476
v -0.95000000 1.47527864 0.22652476
v -0.95000000 1.52472136 0.22652476
v -0.55000000 1.50000000 0.00000000
v -1.99721360 1.54000000 -0.08652476
v -1.99721360 1.46000000 -0.08652476
v -1.75000000 1.47527864 -0.22652476
v -1.75000000 1.52472136 -0.22652476
v -1.99721360 1.54000000 0.08652476
v -1.99721360 1.46000000 0.08652476
v -1.75000000 1.47527864 0.22652476
v -1.75000000 1.52472136 0.22652476
v -2.15000000 1.50000000 0.00000000
v -2.67058489 2.66805206 0.00000000
v -1.82941511 2.66805206 0.00000000
v -2.67058489 2.53194794 0.00000000
v -1.82941511 2.53194794 0.00000000
v -2.25000000 2.55794151 0.23818223
v -2.25000000 2.64205849 0.23818223
v -2.25000000 2.55794151 -0.23818223
v -2.25000000 2.64205849 -0.23818223
v -1.56947935 2.60000000 -0.14720471
v -1.56947935 2.60000000 0.14720471
v -2.93052065 2.60000000 -0.14720471
v -2.93052065 2.60000000 0.14720471
v -2.25000000 2.68000000 0.00000000
v -2.25000000 2.52000000 0.00000000
v -2.49721360 2.53527864 0.14000000
v -2.00278640 2.53527864 0.14000000
v -2.49721360 2.66472136 0.14000000
v -2.00278640 2.66472136 0.14000000
v -2.25000000 2.60000000 0.28000000
v -2.49721360 2.53527864 -0.14000000
v -2.00278640 2.53527864 -0.14000000
v -2.49721360 2.66472136 -0.14000000
v -2.00278640 2.66472136 -0.14000000
v -2.25000000 2.60000000 -0.28000000
v -1.60278640 2.64000000 -0.08652476
v -1.60278640 2.56000000 -0.08652476
v -1.85000000 2.57527864 -0.22652476
v -1.85000000 2.62472136 -0.22652476
v -1.60278640 2.64000000 0.08652476
v -1.60278640 2.56000000 0.08652476
v -1.85000000 2.57527864 0.22652476
v -1.85000000 2.62472136 0.22652476
v -1.45000000 2.60000000 0.00000000
v -2.89721360 2.64000000 -0.08652476
v -2.89721360 2.56000000 -0.08652476
v -2.65000000 2.57527864 -0.22652476
v -2.65000000 2.62472136 -0.22652476
v -2.89721360 2.64000000 0.08652476
v -2.89721360 2.56000000 0.08652476
v -2.65000000 2.57527864 0.22652476
v -2.65000000 2.62472136 0.22652476
v -3.05000000 2.60000000 0.00000000
v -1.77058489 3.76805206 0.00000000
v -0.92941511 3.76805206 0.00000000
v -1.77058489 3.63194794 0.00000000
v -0.92941511 3.63194794 0.00000000
v -1.35000000 3.65794151 0.23818223
v -1.35000000 3.74205849 0.23818223
v -1.35000000 3.65794151 -0.23818223
v -1.35000000 3.74205849 -0.23818223
v -0.66947935 3.70000000 -0.14720471
v -0.66947935 3.70000000 0.14720471
v -2.03052065 3.70000000 -0.14720471
v -2.03052065 3.70000000 0.14720471
v -1.35000000 3.78000000 0.00000000
v -1.35000000 3.62000000 0.00000000
v -1.59721360 3.63527864 0.14000000
v -1.10278640 3.63527864 0.14000000
v -1.59721360 3.76472136 0.14000000
v -1.10278640 3.76472136 0.14000000
v -1.35000000 3.70000000 0.28000000
v -1.59721360 3.63527864 -0.14000000
v -1.10278640 3.63527864 -0.14000000
v -1.59721360 3.76472136 -0.14000000
v -1.10278640 3.76472136 -0.14000000
v -1.35000000 3.70000000 -0.28000000
v -0.70278640 3.74000000 -0.08652476
v -0.70278640 3.66000000 -0.08652476
v -0.95000000 3.67527864 -0.22652476
v -0.95000000 3.72472136 -0.22652476
v -0.70278640 3.74000000 0.08652476
v -0.70278640 3.66000000 0.08652476
v -0.95000000 3.67527864 0.22652476
v -0.95000000 3.72472136 0.22652476
v -0.55000000 3.70000000 0.00000000
v -1.99721360 3.74000000 -0.08652476
v -1.99721360 3.66000000 -0.08652476
v -1.75000000 3.67527864 -0.22652476
v -1.75000000 3.72472136 -0.22652476
v -1.99721360 3.74000000 0.08652476
v -1.99721360 3.66000000 0.08652476
v -1.75000000 3.67527864 0.22652476
v -1.75000000 3.72472136 0.22652476
v -2.15000000 3.70000000 0.00000000
v -1.20000000 -0.00000000 -0.00000000
v -1.19002850 0.00875268 -0.09911589
v -0.94002850 1.98875268 0.10088411
v -0.95000000 1.98000000 0.20000000
v -1.27096358 0.01589347 -0.06864087
v -1.02096358 1.99589347 0.13135913
v -1.29846163 0.01106615 0.01352213
v -1.04846163 1.99106615 0.21352213
v -1.25181607 -0.00209420 0.08550269
v -1.00181607 1.97790580 0.28550269
v -1.16615195 -0.01367758 0.09309798
v -0.91615195 1.96632242 0.29309798
v -1.10597611 -0.01496146 0.03058859
v -0.85597611 1.96503854 0.23058859
v -1.11660217 -0.00497906 -0.05495463
v -0.86660217 1.97502094 0.14504537
v -0.95000000 1.98000000 0.20000000
v -0.96707236 1.99379670 0.29756119
v -1.36707236 3.97379670 -0.05243881
v -1.35000000 3.96000000 -0.15000000
v -0.88513455 2.00576337 0.27161510
v -1.28513455 3.98576337 -0.07838490
v -0.85204175 1.99832969 0.19174138
v -1.25204175 3.97832969 -0.15825862
v -0.89271351 1.97709338 0.11808657
v -1.29271351 3.95709338 -0.23191343
v -0.97652316 1.95804582 0.10611424
v -1.37652316 3.93804582 -0.24388576
v -1.04036033 1.95553020 0.16483980
v -1.44036033 3.93553020 -0.18516020
v -1.03615433 1.97144084 0.25004171
v -1.43615433 3.95144084 -0.09995829
v -1.35000000 3.96000000 -0.15000000
v -1.34276046 3.96614860 -0.24954790
v -1.01276046 6.00614860 -0.09954790
v -1.02000000 6.00000000 0.00000000
v -1.42246356 3.97663927 -0.21687427
v -1.09246356 6.01663927 -0.06687427
v -1.44760012 3.97460024 -0.13384295
v -1.11760012 6.01460024 0.01615705
v -1.39924180 3.96156692 -0.06297822
v -1.06924180 6.00156692 0.08702178
v -1.31380340 3.94735369 -0.05764267
v -0.98380340 5.98735369 0.09235733
v -1.25562178 3.94266338 -0.12185407
v -0.92562178 5.98266338 0.02814593
v -1.26850889 3.95102790 -0.20725993
v -0.93850889 5.99102790 -0.05725993
v -1.17058489 1.86805206 0.00000000
v -0.32941511 1.86805206 0.00000000
v -1.17058489 1.73194794 0.00000000
v -0.32941511 1.73194794 0.00000000
v -0.75000000 1.75794151 0.23818223
v -0.75000000 1.84205849 0.23818223
v -0.75000000 1.75794151 -0.23818223
v -0.75000000 1.84205849 -0.23818223
v -0.06947935 1.80000000 -0.14720471
v -0.06947935 1.80000000 0.14720471
v -1.43052065 1.80000000 -0.14720471
v -1.43052065 1.80000000 0.14720471
v -0.75000000 1.88000000 0.00000000
v -0.75000000 1.72000000 0.00000000
v -0.99721360 1.73527864 0.14000000
v -0.50278640 1.73527864 0.14000000
v -0.99721360 1.86472136 0.14000000
v -0.50278640 1.86472136 0.14000000
v -0.75000000 1.80000000 0.28000000
v -0.99721360 1.73527864 -0.14000000
v -0.50278640 1.73527864 -0.14000000
v -0.99721360 1.86472136 -0.14000000
v -0.50278640 1.86472136 -0.14000000
v -0.75000000 1.80000000 -0.28000000
v -0.10278640 1.84000000 -0.08652476
v -0.10278640 1.76000000 -0.08652476
v -0.35000000 1.77527864 -0.22652476
v -0.35000000 1.82472136 -0.22652476
v -0.10278640 1.84000000 0.08652476
v -0.10278640 1.76000000 0.08652476
v -0.35000000 1.77527864 0.22652476
v -0.35000000 1.82472136 0.22652476
v 0.05000000 1.80000000 0.00000000
v -1.39721360 1.84000000 -0.08652476
v -1.39721360 1.76000000 -0.08652476
v -1.15000000 1.77527864 -0.22652476
v -1.15000000 1.82472136 -0.22652476
v -1.39721360 1.84000000 0.08652476
v -1.39721360 1.76000000 0.08652476
v -1.15000000 1.77527864 0.22652476
v -1.15000000 1.82472136 0.22652476
v -1.55000000 1.80000000 0.00000000
v -2.07058489 3.18805206 0.00000000
v -1.22941511 3.18805206 0.00000000
v -2.07058489 3.05194794 0.00000000
v -1.22941511 3.05194794 0.00000000
v -1.65000000 3.07794151 0.23818223
v -1.65000000 3.16205849 0.23818223
v -1.65000000 3.07794151 -0.23818223
v -1.65000000 3.16205849 -0.23818223
v -0.96947935 3.12000000 -0.14720471
v -0.96947935 3.12000000 0.14720471
v -2.33052065 3.12000000 -0.14720471
v -2.33052065 3.12000000 0.14720471
v -1.65000000 3.20000000 0.00000000
v -1.65000000 3.04000000 0.00000000
v -1.89721360 3.05527864 0.14000000
v -1.40278640 3.05527864 0.14000000
v -1.89721360 3.18472136 0.14000000
v -1.40278640 3.18472136 0.14000000
v -1.65000000 3.12000000 0.28000000
v -1.89721360 3.05527864 -0.14000000
v -1.40278640 3.05527864 -0.14000000
v -1.89721360 3.18472136 -0.14000000
v -1.40278640 3.18472136 -0.14000000
v -1.65000000 3.12000000 -0.28000000
v -1.00278640 3.16000000 -0.08652476
v -1.00278640 3.08000000 -0.08652476
v -1.25000000 3.09527864 -0.22652476
v -1.25000000 3.14472136 -0.22652476
v -1.00278640 3.16000000 0.08652476
v -1.00278640 3.08000000 0.08652476
v -1.25000000 3.09527864 0.22652476
v -1.25000000 3.14472136 0.22652476
v -0.85000000 3.12000000 0.00000000
v -2.29721360 3.16000000 -0.08652476
v -2.29721360 3.08000000 -0.08652476
v -2.05000000 3.09527864 -0.22652476
v -2.05000000 3.14472136 -0.22652476
v -2.29721360 3.16000000 0.08652476
v -2.29721360 3.08000000 0.08652476
v -2.05000000 3.09527864 0.22652476
v -2.05000000 3.14472136 0.22652476
v -2.45000000 3.12000000 0.00000000
v -1.17058489 4.50805206 0.00000000
v -0.32941511 4.50805206 0.00000000
v -1.17058489 4.37194794 0.00000000
v -0.32941511 4.37194794 0.00000000
v -0.75000000 4.39794151 0.23818223
v -0.75000000 4.48205849 0.23818223
v -0.75000000 4.39794151 -0.23818223
v -0.75000000 4.48205849 -0.23818223
v -0.06947935 4.44000000 -0.14720471
v -0.06947935 4.44000000 0.14720471
v -1.43052065 4.44000000 -0.14720471
v -1.43052065 4.44000000 0.14720471
v -0.75000000 4.52000000 0.00000000
v -0.75000000 4.36000000 0.00000000
v -0.99721360 4.37527864 0.14000000
v -0.50278640 4.37527864 0.14000000
v -0.99721360 4.50472136 0.14000000
v -0.50278640 4.50472136 0.14000000
v -0.75000000 4.44000000 0.28000000
v -0.99721360 4.37527864 -0.14000000
v -0.50278640 4.37527864 -0.14000000
v -0.99721360 4.50472136 -0.14000000
v -0.50278640 4.50472136 -0.14000000
v -0.75000000 4.44000000 -0.28000000
v -0.10278640 4.48000000 -0.08652476
v -0.10278640 4.40000000 -0.08652476
v -0.35000000 4.41527864 -0.22652476
v -0.35000000 4.46472136 -0.22652476
v -0.10278640 4.48000000 0.08652476
v -0.10278640 4.40000000 0.08652476
v -0.35000000 4.41527864 0.22652476
v -0.35000000 4.46472136 0.22652476
v 0.05000000 4.44000000 0.00000000
v -1.39721360 4.48000000 -0.08652476
v -1.39721360 4.40000000 -0.08652476
v -1.15000000 4.41527864 -0.22652476
v -1.15000000 4.46472136 -0.22652476
v -1.39721360 4.48000000 0.08652476
v -1.39721360 4.40000000 0.08652476
v -1.15000000 4.41527864 0.22652476
v -1.15000000 4.46472136 0.22652476
v -1.55000000 4.44000000 0.00000000
v -0.60000000 0.00000000 0.00000000
v -0.59142397 0.00767235 -0.09933573
v -0.34142397 2.31767235 0.10066427
v -0.35000000 2.31000000 0.20000000
v -0.67209583 0.01368425 -0.06793330
v -0.42209583 2.32368425 0.13206670
v -0.69847806 0.00939163 0.01462429
v -0.44847806 2.31939163 0.21462429
v -0.65070430 -0.00197308 0.08616949
v -0.40070430 2.30802692 0.28616949
v -0.56474917 -0.01185202 0.09282731
v -0.31474917 2.29814798 0.29282731
v -0.50533864 -0.01280614 0.02958427
v -0.25533864 2.29719386 0.22958427
v -0.51721004 -0.00411698 -0.05593633
v -0.26721004 2.30588302 0.14406367
v -0.35000000 2.31000000 0.20000000
v -0.36476570 2.32231204 0.29813454
v -0.76476570 4.63231204 -0.05186546
v -0.75000000 4.62000000 -0.15000000
v -0.28301396 2.33232838 0.27081182
v -0.68301396 4.64232838 -0.07918818
v -0.25170408 2.32553099 0.19016636
v -0.65170408 4.63553099 -0.15983364
v -0.29441303 2.30703845 0.11692583
v -0.69441303 4.61703845 -0.23307417
v -0.37898010 2.29077602 0.10624184
v -0.77898010 4.60077602 -0.24375816
v -0.44172457 2.28898963 0.16615966
v -0.84172457 4.59898963 -0.18384034
v -0.43539856 2.30302448 0.25155995
v -0.83539856 4.61302448 -0.09844005
v -0.75000000 4.62000000 -0.15000000
v -0.74376933 4.62541709 -0.24965859
v -0.41376933 7.00541709 -0.09965859
v -0.42000000 7.00000000 0.00000000
v -0.82340704 4.63436136 -0.21637136
v -0.49340704 7.01436136 -0.06637136
v -0.84776775 4.63249123 -0.13310515
v -0.51776775 7.01249123 0.01689485
v -0.79850735 4.62121495 -0.06256110
v -0.46850735 7.00121495 0.08743890
v -0.71271992 4.60902379 -0.05786033
v -0.38271992 6.98902379 0.09213967
v -0.65500516 4.60509794 -0.12254261
v -0.32500516 6.98509794 0.02745739
v -0.66882344 4.61239364 -0.20790086
v -0.33882344 6.99239364 -0.05790086
v -0.57058489 2.16805206 0.00000000
v 0.27058489 2.16805206 0.00000000
v -0.57058489 2.03194794 0.00000000
v 0.27058489 2.03194794 0.00000000
v -0.15000000 2.05794151 0.23818223
v -0.15000000 2.14205849 0.23818223
v -0.15000000 2.05794151 -0.23818223
v -0.15000000 2.14205849 -0.23818223
v 0.53052065 2.10000000 -0.14720471
v 0.53052065 2.10000000 0.14720471
v -0.83052065 2.10000000 -0.14720471
v -0.83052065 2.10000000 0.14720471
v -0.15000000 2.18000000 0.00000000
v -0.15000000 2.02000000 0.00000000
v -0.39721360 2.03527864 0.14000000
v 0.09721360 2.03527864 0.14000000
v -0.39721360 2.16472136 0.14000000
v 0.09721360 2.16472136 0.14000000
v -0.15000000 2.10000000 0.28000000
v -0.39721360 2.03527864 -0.14000000
v 0.09721360 2.03527864 -0.14000000
v -0.39721360 2.16472136 -0.14000000
v 0.09721360 2.16472136 -0.14000000
v -0.15000000 2.10000000 -0.28000000
v 0.49721360 2.14000000 -0.08652476
v 0.49721360 2.06000000 -0.08652476
v 0.25000000 2.07527864 -0.22652476
v 0.25000000 2.12472136 -0.22652476
v 0.49721360 2.14000000 0.08652476
v 0.49721360 2.06000000 0.08652476
v 0.25000000 2.07527864 0.22652476
v 0.25000000 2.12472136 0.22652476
v 0.65000000 2.10000000 0.00000000
v -0.79721360 2.14000000 -0.08652476
v -0.79721360 2.06000000 -0.08652476
v -0.55000000 2.07527864 -0.22652476
v -0.55000000 2.12472136 -0.22652476
v -0.79721360 2.14000000 0.08652476
v -0.79721360 2.06000000 0.08652476
v -0.55000000 2.07527864 0.22652476
v -0.55000000 2.12472136 0.22652476
v -0.95000000 2.10000000 0.00000000
v -1.47058489 3.70805206 0.00000000
v -0.62941511 3.70805206 0.00000000
v -1.47058489 3.57194794 0.00000000
v -0.62941511 3.57194794 0.00000000
v -1.05000000 3.59794151 0.23818223
v -1.05000000 3.68205849 0.23818223
v -1.05000000 3.59794151 -0.23818223
v -1.05000000 3.68205849 -0.23818223
v -0.36947935 3.64000000 -0.14720471
v -0.36947935 3.64000000 0.14720471
v -1.73052065 3.64000000 -0.14720471
v -1.73052065 3.64000000 0.14720471
v -1.05000000 3.72000000 0.00000000
v -1.05000000 3.56000000 0.00000000
v -1.29721360 3.57527864 0.14000000
v -0.80278640 3.57527864 0.14000000
v -1.29721360 3.70472136 0.14000000
v -0.80278640 3.70472136 0.14000000
v -1.05000000 3.64000000 0.28000000
v -1.29721360 3.57527864 -0.14000000
v -0.80278640 3.57527864 -0.14000000
v -1.29721360 3.70472136 -0.14000000
v -0.80278640 3.70472136 -0.14000000
v -1.05000000 3.64000000 -0.28000000
v -0.40278640 3.68000000 -0.08652476
v -0.40278640 3.60000000 -0.08652476
v -0.65000000 3.61527864 -0.22652476
v -0.65000000 3.66472136 -0.22652476
v -0.40278640 3.68000000 0.08652476
v -0.40278640 3.60000000 0.08652476
v -0.65000000 3.61527864 0.22652476
v -0.65000000 3.66472136 0.22652476
v -0.25000000 3.64000000 0.00000000
v -1.69721360 3.68000000 -0.08652476
v -1.69721360 3.60000000 -0.08652476
v -1.45000000 3.61527864 -0.22652476
v -1.45000000 3.66472136 -0.22652476
v -1.69721360 3.68000000 0.08652476
v -1.69721360 3.60000000 0.08652476
v -1.45000000 3.61527864 0.22652476
v -1.45000000 3.66472136 0.22652476
v -1.85000000 3.64000000 0.00000000
v -0.57058489 5.24805206 0.00000000
v 0.27058489 5.24805206 0.00000000
v -0.57058489 5.11194794 0.00000000
v 0.27058489 5.11194794 0.00000000
v -0.15000000 5.13794151 0.23818223
v -0.15000000 5.22205849 0.23818223
v -0.15000000 5.13794151 -0.23818223
v -0.15000000 5.22205849 -0.23818223
v 0.53052065 5.18000000 -0.14720471
v 0.53052065 5.18000000 0.14720471
v -0.83052065 5.18000000 -0.14720471
v -0.83052065 5.18000000 0.14720471
v -0.15000000 5.26000000 0.00000000
v -0.15000000 5.10000000 0.00000000
v -0.39721360 5.11527864 0.14000000
v 0.09721360 5.11527864 0.14000000
v -0.39721360 5.24472136 0.14000000
v 0.09721360 5.24472136 0.14000000
v -0.15000000 5.18000000 0.28000000
v -0.39721360 5.11527864 -0.14000000
v 0.09721360 5.11527864 -0.14000000
v -0.39721360 5.24472136 -0.14000000
v 0.09721360 5.24472136 -0.14000000
v -0.15000000 5.18000000 -0.28000000
v 0.49721360 5.22000000 -0.08652476
v 0.49721360 5.14000000 -0.08652476
v 0.25000000 5.15527864 -0.22652476
v 0.25000000 5.20472136 -0.22652476
v 0.49721360 5.22000000 0.08652476
v 0.49721360 5.14000000 0.08652476
v 0.25000000 5.15527864 0.22652476
v 0.25000000 5.20472136 0.22652476
v 0.65000000 5.18000000 0.00000000
v -0.79721360 5.22000000 -0.08652476
v -0.79721360 5.14000000 -0.08652476
v -0.55000000 5.15527864 -0.22652476
v -0.55000000 5.20472136 -0.22652476
v -0.79721360 5.22000000 0.08652476
v -0.79721360 5.14000000 0.08652476
v -0.55000000 5.15527864 0.22652476
v -0.55000000 5.20472136 0.22652476
v -0.95000000 5.18000000 0.00000000
v -0.00000000 0.00000000 0.00000000
v 0.01189928 0.01016889 -0.09876741
v 0.26189928 1.66016889 0.10123259
v 0.25000000 1.65000000 0.20000000
v -0.06933260 0.01893292 -0.06953083
v 0.18066740 1.66893292 0.13046917
v -0.09835561 0.01344008 0.01206389
v 0.15164439 1.66344008 0.21206389
v -0.05331485 -0.00217342 0.08457425
v 0.19668515 1.64782658 0.28457425
v 0.03187308 -0.01615028 0.09339847
v 0.28187308 1.63384972 0.29339847
v 0.09305994 -0.01796566 0.03189175
v 0.34305994 1.63203434 0.23189175
v 0.08417076 -0.00625252 -0.05363012
v 0.33417076 1.64374748 0.14636988
v 0.25000000 1.65000000 0.20000000
v 0.22980956 1.66561487 0.29668775
v -0.17019044 3.31561487 -0.05331225
v -0.15000000 3.30000000 -0.15000000
v 0.31182893 1.68036593 0.27249203
v -0.08817107 3.33036593 -0.07750797
v 0.34728985 1.67225082 0.19370832
v -0.05271015 3.32225082 -0.15629168
v 0.30948954 1.64738039 0.11966238
v -0.09051046 3.29738039 -0.23033762
v 0.22689238 1.62448258 0.10611230
v -0.17310762 3.27448258 -0.24388770
v 0.16169574 1.62079991 0.16326158
v -0.23830426 3.27079991 -0.18673842
v 0.16299400 1.63910550 0.24807563
v -0.23700600 3.28910550 -0.10192437
v -0.15000000 3.30000000 -0.15000000
v -0.14137047 3.30709316 -0.24937413
v 0.18862953 5.00709316 -0.09937413
v 0.18000000 5.00000000 0.00000000
v -0.22108374 3.31975488 -0.21750442
v 0.10891626 5.01975488 -0.06750442
v -0.24726951 3.31754077 -0.13480250
v 0.08273049 5.01754077 0.01519750
v -0.20020935 3.30211810 -0.06354461
v 0.12979065 5.00211810 0.08645539
v -0.11534053 3.28510046 -0.05738939
v 0.21465947 4.98510046 0.09261061
v -0.05657099 3.27930247 -0.12097185
v 0.27342901 4.97930247 0.02902815
v -0.06815541 3.28909015 -0.20641310
v 0.26184459 4.98909015 -0.05641310
v 0.02941511 1.56805206 0.00000000
v 0.87058489 1.56805206 0.00000000
v 0.02941511 1.43194794 0.00000000
v 0.87058489 1.43194794 0.00000000
v 0.45000000 1.45794151 0.23818223
v 0.45000000 1.54205849 0.23818223
v 0.45000000 1.45794151 -0.23818223
v 0.45000000 1.54205849 -0.23818223
v 1.13052065 1.50000000 -0.14720471
v 1.13052065 1.50000000 0.14720471
v -0.23052065 1.50000000 -0.14720471
v -0.23052065 1.50000000 0.14720471
v 0.45000000 1.58000000 0.00000000
v 0.45000000 1.42000000 0.00000000
v 0.20278640 1.43527864 0.14000000
v 0.69721360 1.43527864 0.14000000
v 0.20278640 1.56472136 0.14000000
v 0.69721360 1.56472136 0.14000000
v 0.45000000 1.50000000 0.28000000
v 0.20278640 1.43527864 -0.14000000
v 0.69721360 1.43527864 -0.14000000
v 0.20278640 1.56472136 -0.14000000
v 0.69721360 1.56472136 -0.14000000
v 0.45000000 1.50000000 -0.28000000
v 1.09721360 1.54000000 -0.08652476
v 1.09721360 1.46000000 -0.08652476
v 0.85000000 1.47527864 -0.22652476
v 0.85000000 1.52472136 -0.22652476
v 1.09721360 1.54000000 0.08652476
v 1.09721360 1.46000000 0.08652476
v 0.85000000 1.47527864 0.22652476
v 0.85000000 1.52472136 0.22652476
v 1.25000000 1.50000000 0.00000000
v -0.19721360 1.54000000 -0.08652476
v -0.19721360 1.46000000 -0.08652476
v 0.05000000 1.47527864 -0.22652476
v 0.05000000 1.52472136 -0.22652476
v -0.19721360 1.54000000 0.08652476
v -0.19721360 1.46000000 0.08652476
v 0.05000000 1.47527864 0.22652476
v 0.05000000 1.52472136 0.22652476
v -0.35000000 1.50000000 0.00000000
v -0.87058489 2.66805206 0.00000000
v -0.02941511 2.66805206 0.00000000
v -0.87058489 2.53194794 0.00000000
v -0.02941511 2.53194794 0.00000000
v -0.45000000 2.55794151 0.23818223
v -0.45000000 2.64205849 0.23818223
v -0.45000000 2.55794151 -0.23818223
v -0.45000000 2.64205849 -0.23818223
v 0.23052065 2.60000000 -0.14720471
v 0.23052065 2.60000000 0.14720471
v -1.13052065 2.60000000 -0.14720471
v -1.13052065 2.60000000 0.14720471
v -0.45000000 2.68000000 0.00000000
v -0.45000000 2.52000000 0.00000000
v -0.69721360 2.53527864 0.14000000
v -0.20278640 2.53527864 0.14000000
v -0.69721360 2.66472136 0.14000000
v -0.20278640 2.66472136 0.14000000
v -0.45000000 2.60000000 0.28000000
v -0.69721360 2.53527864 -0.14000000
v -0.20278640 2.53527864 -0.14000000
v -0.69721360 2.66472136 -0.14000000
v -0.20278640 2.66472136 -0.14000000
v -0.45000000 2.60000000 -0.28000000
v 0.19721360 2.64000000 -0.08652476
v 0.19721360 2.56000000 -0.08652476
v -0.05000000 2.57527864 -0.22652476
v -0.05000000 2.62472136 -0.22652476
v 0.19721360 2.64000000 0.08652476
v 0.19721360 2.56000000 0.08652476
v -0.05000000 2.57527864 0.22652476
v -0.05000000 2.62472136 0.22652476
v 0.35000000 2.60000000 0.00000000
v -1.09721360 2.64000000 -0.08652476
v -1.09721360 2.56000000 -0.08652476
v -0.85000000 2.57527864 -0.22652476
v -0.85000000 2.62472136 -0.22652476
v -1.09721360 2.64000000 0.08652476
v -1.09721360 2.56000000 0.08652476
v -0.85000000 2.57527864 0.22652476
v -0.85000000 2.62472136 0.22652476
v -1.25000000 2.60000000 0.00000000
v 0.02941511 3.76805206 0.00000000
v 0.87058489 3.76805206 0.00000000
v 0.02941511 3.63194794 0.00000000
v 0.87058489 3.63194794 0.00000000
v 0.45000000 3.65794151 0.23818223
v 0.45000000 3.74205849 0.23818223
v 0.45000000 3.65794151 -0.23818223
v 0.45000000 3.74205849 -0.23818223
v 1.13052065 3.70000000 -0.14720471
v 1.13052065 3.70000000 0.14720471
v -0.23052065 3.70000000 -0.14720471
v -0.23052065 3.70000000 0.14720471
v 0.45000000 3.78000000 0.00000000
v 0.45000000 3.62000000 0.00000000
v 0.20278640 3.63527864 0.14000000
v 0.69721360 3.63527864 0.14000000
v 0.20278640 3.76472136 0.14000000
v 0.69721360 3.76472136 0.14000000
v 0.45000000 3.70000000 0.28000000
v 0.20278640 3.63527864 -0.14000000
v 0.69721360 3.63527864 -0.14000000
v 0.20278640 3.76472136 -0.14000000
v 0.69721360 3.76472136 -0.14000000
v 0.45000000 3.70000000 -0.28000000
v 1.09721360 3.74000000 -0.08652476
v 1.09721360 3.66000000 -0.08652476
v 0.85000000 3.67527864 -0.22652476
v 0.85000000 3.72472136 -0.22652476
v 1.09721360 3.74000000 0.08652476
v 1.09721360 3.66000000 0.08652476
v 0.85000000 3.67527864 0.22652476
v 0.85000000 3.72472136 0.22652476
v 1.25000000 3.70000000 0.00000000
v -0.19721360 3.74000000 -0.08652476
v -0.19721360 3.66000000 -0.08652476
v 0.05000000 3.67527864 -0.22652476
v 0.05000000 3.72472136 -0.22652476
v -0.19721360 3.74000000 0.08652476
v -0.19721360 3.66000000 0.08652476
v 0.05000000 3.67527864 0.22652476
v 0.05000000 3.72472136 0.22652476
v -0.35000000 3.70000000 0.00000000
v 0.60000000 -0.00000000 -0.00000000
v 0.60997150 0.00875268 -0.09911589
v 0.85997150 1.98875268 0.10088411
v 0.85000000 1.98000000 0.20000000
v 0.52903642 0.01589347 -0.06864087
v 0.77903642 1.99589347 0.13135913
v 0.50153837 0.01106615 0.01352213
v 0.75153837 1.99106615 0.21352213
v 0.54818393 -0.00209420 0.08550269
v 0.79818393 1.97790580 0.28550269
v 0.63384805 -0.01367758 0.09309798
v 0.88384805 1.96632242 0.29309798
v 0.69402389 -0.01496146 0.03058859
v 0.94402389 1.96503854 0.23058859
v 0.68339783 -0.00497906 -0.05495463
v 0.93339783 1.97502094 0.14504537
v 0.85000000 1.98000000 0.20000000
v 0.83292764 1.99379670 0.29756119
v 0.43292764 3.97379670 -0.05243881
v 0.45000000 3.96000000 -0.15000000
v 0.91486545 2.00576337 0.27161510
v 0.51486545 3.98576337 -0.07838490
v 0.94795825 1.99832969 0.19174138
v 0.54795825 3.97832969 -0.15825862
v 0.90728649 1.97709338 0.11808657
v 0.50728649 3.95709338 -0.23191343
v 0.82347684 1.95804582 0.10611424
v 0.42347684 3.93804582 -0.24388576
v 0.75963967 1.95553020 0.16483980
v 0.35963967 3.93553020 -0.18516020
v 0.76384567 1.97144084 0.25004171
v 0.36384567 3.95144084 -0.09995829
v 0.45000000 3.96000000 -0.15000000
v 0.45723954 3.96614860 -0.24954790
v 0.78723954 6.00614860 -0.09954790
v 0.78000000 6.00000000 -0.00000000
v 0.37753644 3.97663927 -0.21687427
v 0.70753644 6.01663927 -0.06687427
v 0.35239988 3.97460024 -0.13384295
v 0.68239988 6.01460024 0.01615705
v 0.40075820 3.96156692 -0.06297822
v 0.73075820 6.00156692 0.08702178
v 0.48619660 3.94735369 -0.05764267
v 0.81619660 5.98735369 0.09235733
v 0.54437822 3.94266338 -0.12185407
v 0.87437822 5.98266338 0.02814593
v 0.53149111 3.95102790 -0.20725993
v 0.86149111 5.99102790 -0.05725993
v 0.62941511 1.86805206 0.00000000
v 1.47058489 1.86805206 0.00000000
v 0.62941511 1.73194794 0.00000000
v 1.47058489 1.73194794 0.00000000
v 1.05000000 1.75794151 0.23818223
v 1.05000000 1.84205849 0.23818223
v 1.05000000 1.75794151 -0.23818223
v 1.05000000 1.84205849 -0.23818223
v 1.73052065 1.80000000 -0.14720471
v 1.73052065 1.80000000 0.14720471
v 0.36947935 1.80000000 -0.14720471
v 0.36947935 1.80000000 0.14720471
v 1.05000000 1.88000000 0.00000000
v 1.05000000 1.72000000 0.00000000
v 0.80278640 1.73527864 0.14000000
v 1.29721360 1.73527864 0.14000000
v 0.80278640 1.86472136 0.14000000
v 1.29721360 1.86472136 0.14000000
v 1.05000000 1.80000000 0.28000000
v 0.80278640 1.73527864 -0.14000000
v 1.29721360 1.73527864 -0.14000000
v 0.80278640 1.86472136 -0.14000000
v 1.29721360 1.86472136 -0.14000000
v 1.05000000 1.80000000 -0.28000000
v 1.69721360 1.84000000 -0.08652476
v 1.69721360 1.76000000 -0.08652476
v 1.45000000 1.77527864 -0.22652476
v 1.45000000 1.82472136 -0.22652476
v 1.69721360 1.84000000 0.08652476
v 1.69721360 1.76000000 0.08652476
v 1.45000000 1.77527864 0.22652476
v 1.45000000 1.82472136 0.22652476
v 1.85000000 1.80000000 0.00000000
v 0.40278640 1.84000000 -0.08652476
v 0.40278640 1.76000000 -0.08652476
v 0.65000000 1.77527864 -0.22652476
v 0.65000000 1.82472136 -0.22652476
v 0.40278640 1.84000000 0.08652476
v 0.40278640 1.76000000 0.08652476
v 0.65000000 1.77527864 0.22652476
v 0.65000000 1.82472136 0.22652476
v 0.25000000 1.80000000 0.00000000
v -0.27058489 3.18805206 0.00000000
v 0.57058489 3.18805206 0.00000000
v -0.27058489 3.05194794 0.00000000
v 0.57058489 3.05194794 0.00000000
v 0.15000000 3.07794151 0.23818223
v 0.15000000 3.16205849 0.23818223
v 0.15000000 3.07794151 -0.23818223
v 0.15000000 3.16205849 -0.23818223
v 0.83052065 3.12000000 -0.14720471
v 0.83052065 3.12000000 0.14720471
v -0.53052065 3.12000000 -0.14720471
v -0.53052065 3.12000000 0.14720471
v 0.15000000 3.20000000 0.00000000
v 0.15000000 3.04000000 0.00000000
v -0.09721360 3.05527864 0.14000000
v 0.39721360 3.05527864 0.14000000
v -0.09721360 3.18472136 0.14000000
v 0.39721360 3.18472136 0.14000000
v 0.15000000 3.12000000 0.28000000
v -0.09721360 3.05527864 -0.14000000
v 0.39721360 3.05527864 -0.14000000
v -0.09721360 3.18472136 -0.14000000
v 0.39721360 3.18472136 -0.14000000
v 0.15000000 3.12000000 -0.28000000
v 0.79721360 3.16000000 -0.08652476
v 0.79721360 3.08000000 -0.08652476
v 0.55000000 3.09527864 -0.22652476
v 0.55000000 3.14472136 -0.22652476
v 0.79721360 3.16000000 0.08652476
v 0.79721360 3.08000000 0.08652476
v 0.55000000 3.09527864 0.22652476
v 0.55000000 3.14472136 0.22652476
v 0.95000000 3.12000000 0.00000000
v -0.49721360 3.16000000 -0.08652476
v -0.49721360 3.08000000 -0.08652476
v -0.25000000 3.09527864 -0.22652476
v -0.25000000 3.14472136 -0.22652476
v -0.49721360 3.16000000 0.08652476
v -0.49721360 3.08000000 0.08652476
v -0.25000000 3.09527864 0.22652476
v -0.25000000 3.14472136 0.22652476
v -0.65000000 3.12000000 0.00000000
v 0.62941511 4.50805206 0.00000000
v 1.47058489 4.50805206 0.00000000
v 0.62941511 4.37194794 0.00000000
v 1.47058489 4.37194794 0.00000000
v 1.05000000 4.39794151 0.23818223
v 1.05000000 4.48205849 0.23818223
v 1.05000000 4.39794151 -0.23818223
v 1.05000000 4.48205849 -0.23818223
v 1.73052065 4.44000000 -0.14720471
v 1.73052065 4.44000000 0.14720471
v 0.36947935 4.44000000 -0.14720471
v 0.36947935 4.44000000 0.14720471
v 1.05000000 4.52000000 0.00000000
v 1.05000000 4.36000000 0.00000000
v 0.80278640 4.37527864 0.14000000
v 1.29721360 4.37527864 0.14000000
v 0.80278640 4.50472136 0.14000000
v 1.29721360 4.50472136 0.14000000
v 1.05000000 4.44000000 0.28000000
v 0.80278640 4.37527864 -0.14000000
v 1.29721360 4.37527864 -0.14000000
v 0.80278640 4.50472136 -0.14000000
v 1.29721360 4.50472136 -0.14000000
v 1.05000000 4.44000000 -0.28000000
v 1.69721360 4.48000000 -0.08652476
v 1.69721360 4.40000000 -0.08652476
v 1.45000000 4.41527864 -0.22652476
v 1.45000000 4.46472136 -0.22652476
v 1.69721360 4.48000000 0.08652476
v 1.69721360 4.40000000 0.08652476
v 1.45000000 4.41527864 0.22652476
v 1.45000000 4.46472136 0.22652476
v 1.85000000 4.44000000 0.00000000
v 0.40278640 4.48000000 -0.08652476
v 0.40278640 4.40000000 -0.08652476
v 0.65000000 4.41527864 -0.22652476
v 0.65000000 4.46472136 -0.22652476
v 0.40278640 4.48000000 0.08652476
v 0.40278640 4.40000000 0.08652476
v 0.65000000 4.41527864 0.22652476
v 0.65000000 4.46472136 0.22652476
v 0.25000000 4.44000000 0.00000000
v 1.20000000 0.00000000 0.00000000
v 1.20857603 0.00767235 -0.09933573
v 1.45857603 2.31767235 0.10066427
v 1.45000000 2.31000000 0.20000000
v 1.12790417 0.01368425 -0.06793330
v 1.37790417 2.32368425 0.13206670
v 1.10152194 0.00939163 0.01462429
v 1.35152194 2.31939163 0.21462429
v 1.14929570 -0.00197308 0.08616949
v 1.39929570 2.30802692 0.28616949
v 1.23525083 -0.01185202 0.09282731
v 1.48525083 2.29814798 0.29282731
v 1.29466136 -0.01280614 0.02958427
v 1.54466136 2.29719386 0.22958427
v 1.28278996 -0.00411698 -0.05593633
v 1.53278996 2.30588302 0.14406367
v 1.45000000 2.31000000 0.20000000
v 1.43523430 2.32231204 0.29813454
v 1.03523430 4.63231204 -0.05186546
v 1.05000000 4.62000000 -0.15000000
v 1.51698604 2.33232838 0.27081182
v 1.11698604 4.64232838 -0.07918818
v 1.54829592 2.32553099 0.19016636
v 1.14829592 4.63553099 -0.15983364
v 1.50558697 2.30703845 0.11692583
v 1.10558697 4.61703845 -0.23307417
v 1.42101990 2.29077602 0.10624184
v 1.02101990 4.60077602 -0.24375816
v 1.35827543 2.28898963 0.16615966
v 0.95827543 4.59898963 -0.18384034
v 1.36460144 2.30302448 0.25155995
v 0.96460144 4.61302448 -0.09844005
v 1.05000000 4.62000000 -0.15000000
v 1.05623067 4.62541709 -0.24965859
v 1.38623067 7.00541709 -0.09965859
v 1.38000000 7.00000000 0.00000000
v 0.97659296 4.63436136 -0.21637136
v 1.30659296 7.01436136 -0.06637136
v 0.95223225 4.63249123 -0.13310515
v 1.28223225 7.01249123 0.01689485
v 1.00149265 4.62121495 -0.06256110
v 1.33149265 7.00121495 0.08743890
v 1.08728008 4.60902379 -0.05786033
v 1.41728008 6.98902379 0.09213967
v 1.14499484 4.60509794 -0.12254261
v 1.47499484 6.98509794 0.02745739
v 1.13117656 4.61239364 -0.20790086
v 1.46117656 6.99239364 -0.05790086
v 1.22941511 2.16805206 0.00000000
v 2.07058489 2.16805206 0.00000000
v 1.22941511 2.03194794 0.00000000
v 2.07058489 2.03194794 0.00000000
v 1.65000000 2.05794151 0.23818223
v 1.65000000 2.14205849 0.23818223
v 1.65000000 2.05794151 -0.23818223
v 1.65000000 2.14205849 -0.23818223
v 2.33052065 2.10000000 -0.14720471
v 2.33052065 2.10000000 0.14720471
v 0.96947935 2.10000000 -0.14720471
v 0.96947935 2.10000000 0.14720471
v 1.65000000 2.18000000 0.00000000
v 1.65000000 2.02000000 0.00000000
v 1.40278640 2.03527864 0.14000000
v 1.89721360 2.03527864 0.14000000
v 1.40278640 2.16472136 0.14000000
v 1.89721360 2.16472136 0.14000000
v 1.65000000 2.10000000 0.28000000
v 1.40278640 2.03527864 -0.14000000
v 1.89721360 2.03527864 -0.14000000
v 1.40278640 2.16472136 -0.14000000
v 1.89721360 2.16472136 -0.14000000
v 1.65000000 2.10000000 -0.28000000
v 2.29721360 2.14000000 -0.08652476
v 2.29721360 2.06000000 -0.08652476
v 2.05000000 2.07527864 -0.22652476
v 2.05000000 2.12472136 -0.22652476
v 2.29721360 2.14000000 0.08652476
v 2.29721360 2.06000000 0.08652476
v 2.05000000 2.07527864 0.22652476
v 2.05000000 2.12472136 0.22652476
v 2.45000000 2.10000000 0.00000000
v 1.00278640 2.14000000 -0.08652476
v 1.00278640 2.06000000 -0.08652476
v 1.25000000 2.07527864 -0.22652476
v 1.25000000 2.12472136 -0.22652476
v 1.00278640 2.14000000 0.08652476
v 1.00278640 2.06000000 0.08652476
v 1.25000000 2.07527864 0.22652476
v 1.25000000 2.12472136 0.22652476
v 0.85000000 2.10000000 0.00000000
v 0.32941511 3.70805206 0.00000000
v 1.17058489 3.70805206 0.00000000
v 0.32941511 3.57194794 0.00000000
v 1.17058489 3.57194794 0.00000000
v 0.75000000 3.59794151 0.23818223
v 0.75000000 3.68205849 0.23818223
v 0.75000000 3.59794151 -0.23818223
v 0.75000000 3.68205849 -0.23818223
v 1.43052065 3.64000000 -0.14720471
v 1.43052065 3.64000000 0.14720471
v 0.06947935 3.64000000 -0.14720471
v 0.06947935 3.64000000 0.14720471
v 0.75000000 3.72000000 0.00000000
v 0.75000000 3.56000000 0.00000000
v 0.50278640 3.57527864 0.14000000
v 0.99721360 3.57527864 0.14000000
v 0.50278640 3.70472136 0.14000000
v 0.99721360 3.70472136 0.14000000
v 0.75000000 3.64000000 0.28000000
v 0.50278640 3.57527864 -0.14000000
v 0.99721360 3.57527864 -0.14000000
v 0.50278640 3.70472136 -0.14000000
v 0.99721360 3.70472136 -0.14000000
v 0.75000000 3.64000000 -0.28000000
v 1.39721360 3.68000000 -0.08652476
v 1.39721360 3.60000000 -0.08652476
v 1.15000000 3.61527864 -0.22652476
v 1.15000000 3.66472136 -0.22652476
v 1.39721360 3.68000000 0.08652476
v 1.39721360 3.60000000 0.08652476
v 1.15000000 3.61527864 0.22652476
v 1.15000000 3.66472136 0.22652476
v 1.55000000 3.64000000 0.00000000
v 0.10278640 3.68000000 -0.08652476
v 0.10278640 3.60000000 -0.08652476
v 0.35000000 3.61527864 -0.22652476
v 0.35000000 3.66472136 -0.22652476
v 0.10278640 3.68000000 0.08652476
v 0.10278640 3.60000000 0.08652476
v 0.35000000 3.61527864 0.22652476
v 0.35000000 3.66472136 0.22652476
v -0.05000000 3.64000000 0.00000000
v 1.22941511 5.24805206 0.00000000
v 2.07058489 5.24805206 0.00000000
v 1.22941511 5.11194794 0.00000000
v 2.07058489 5.11194794 0.00000000
v 1.65000000 5.13794151 0.23818223
v 1.65000000 5.22205849 0.23818223
v 1.65000000 5.13794151 -0.23818223
v 1.65000000 5.22205849 -0.23818223
v 2.33052065 5.18000000 -0.14720471
v 2.33052065 5.18000000 0.14720471
v 0.96947935 5.18000000 -0.14720471
v 0.96947935 5.18000000 0.14720471
v 1.65000000 5.26000000 0.00000000
v 1.65000000 5.10000000 0.00000000
v 1.40278640 5.11527864 0.14000000
v 1.89721360 5.11527864 0.14000000
v 1.40278640 5.24472136 0.14000000
v 1.89721360 5.24472136 0.14000000
v 1.65000000 5.18000000 0.28000000
v 1.40278640 5.11527864 -0.14000000
v 1.89721360 5.11527864 -0.14000000
v 1.40278640 5.24472136 -0.14000000
v 1.89721360 5.24472136 -0.14000000
v 1.65000000 5.18000000 -0.28000000
v 2.29721360 5.22000000 -0.08652476
v 2.29721360 5.14000000 -0.08652476
v 2.05000000 5.15527864 -0.22652476
v 2.05000000 5.20472136 -0.22652476
v 2.29721360 5.22000000 0.08652476
v 2.29721360 5.14000000 0.08652476
v 2.05000000 5.15527864 0.22652476
v 2.05000000 5.20472136 0.22652476
v 2.45000000 5.18000000 0.00000000
v 1.00278640 5.22000000 -0.08652476
v 1.00278640 5.14000000 -0.08652476
v 1.25000000 5.15527864 -0.22652476
v 1.25000000 5.20472136 -0.22652476
v 1.00278640 5.22000000 0.08652476
v 1.00278640 5.14000000 0.08652476
v 1.25000000 5.15527864 0.22652476
v 1.25000000 5.20472136 0.22652476
v 0.85000000 5.18000000 0.00000000
v 1.80000000 0.00000000 0.00000000
v 1.81189928 0.01016889 -0.09876741
v 2.06189928 1.66016889 0.10123259
v 2.05000000 1.65000000 0.20000000
v 1.73066740 0.01893292 -0.06953083
v 1.98066740 1.66893292 0.13046917
v 1.70164439 0.01344008 0.01206389
v 1.95164439 1.66344008 0.21206389
v 1.74668515 -0.00217342 0.08457425
v 1.99668515 1.64782658 0.28457425
v 1.83187308 -0.01615028 0.09339847
v 2.08187308 1.63384972 0.29339847
v 1.89305994 -0.01796566 0.03189175
v 2.14305994 1.63203434 0.23189175
v 1.88417076 -0.00625252 -0.05363012
v 2.13417076 1.64374748 0.14636988
v 2.05000000 1.65000000 0.20000000
v 2.02980956 1.66561487 0.29668775
v 1.62980956 3.31561487 -0.05331225
v 1.65000000 3.30000000 -0.15000000
v 2.11182893 1.68036593 0.27249203
v 1.71182893 3.33036593 -0.07750797
v 2.14728985 1.67225082 0.19370832
v 1.74728985 3.32225082 -0.15629168
v 2.10948954 1.64738039 0.11966238
v 1.70948954 3.29738039 -0.23033762
v 2.02689238 1.62448258 0.10611230
v 1.62689238 3.27448258 -0.24388770
v 1.96169574 1.62079991 0.16326158
v 1.56169574 3.27079991 -0.18673842
v 1.96299400 1.63910550 0.24807563
v 1.56299400 3.28910550 -0.10192437
v 1.65000000 3.30000000 -0.15000000
v 1.65862953 3.30709316 -0.24937413
v 1.98862953 5.00709316 -0.09937413
v 1.98000000 5.00000000 -0.00000000
v 1.57891626 3.31975488 -0.21750442
v 1.90891626 5.01975488 -0.06750442
v 1.55273049 3.31754077 -0.13480250
v 1.88273049 5.01754077 0.01519750
v 1.59979065 3.30211810 -0.06354461
v 1.92979065 5.00211810 0.08645539
v 1.68465947 3.28510046 -0.05738939
v 2.01465947 4.98510046 0.09261061
v 1.74342901 3.27930247 -0.12097185
v 2.07342901 4.97930247 0.02902815
v 1.73184459 3.28909015 -0.20641310
v 2.06184459 4.98909015 -0.05641310
v 1.82941511 1.56805206 0.00000000
v 2.67058489 1.56805206 0.00000000
v 1.82941511 1.43194794 0.00000000
v 2.67058489 1.43194794 0.00000000
v 2.25000000 1.45794151 0.23818223
v 2.25000000 1.54205849 0.23818223
v 2.25000000 1.45794151 -0.23818223
v 2.25000000 1.54205849 -0.23818223
v 2.93052065 1.50000000 -0.14720471
v 2.93052065 1.50000000 0.14720471
v 1.56947935 1.50000000 -0.14720471
v 1.56947935 1.50000000 0.14720471
v 2.25000000 1.58000000 0.00000000
v 2.25000000 1.42000000 0.00000000
v 2.00278640 1.43527864 0.14000000
v 2.49721360 1.43527864 0.14000000
v 2.00278640 1.56472136 0.14000000
v 2.49721360 1.56472136 0.14000000
v 2.25000000 1.50000000 0.28000000
v 2.00278640 1.43527864 -0.14000000
v 2.49721360 1.43527864 -0.14000000
v 2.00278640 1.56472136 -0.14000000
v 2.49721360 1.56472136 -0.14000000
v 2.25000000 1.50000000 -0.28000000
v 2.89721360 1.54000000 -0.08652476
v 2.89721360 1.46000000 -0.08652476
v 2.65000000 1.47527864 -0.22652476
v 2.65000000 1.52472136 -0.22652476
v 2.89721360 1.54000000 0.08652476
v 2.89721360 1.46000000 0.08652476
v 2.65000000 1.47527864 0.22652476
v 2.65000000 1.52472136 0.22652476
v 3.05000000 1.50000000 0.00000000
v 1.60278640 1.54000000 -0.08652476
v 1.60278640 1.46000000 -0.08652476
v 1.85000000 1.47527864 -0.22652476
v 1.85000000 1.52472136 -0.22652476
v 1.60278640 1.54000000 0.08652476
v 1.60278640 1.46000000 0.08652476
v 1.85000000 1.47527864 0.22652476
v 1.85000000 1.52472136 0.22652476
v 1.45000000 1.50000000 0.00000000
v 0.92941511 2.66805206 0.00000000
v 1.77058489 2.66805206 0.00000000
v 0.92941511 2.53194794 0.00000000
v 1.77058489 2.53194794 0.00000000
v 1.35000000 2.55794151 0.23818223
v 1.35000000 2.64205849 0.23818223
v 1.35000000 2.55794151 -0.23818223
v 1.35000000 2.64205849 -0.23818223
v 2.03052065 2.60000000 -0.14720471
v 2.03052065 2.60000000 0.14720471
v 0.66947935 2.60000000 -0.14720471
v 0.66947935 2.60000000 0.14720471
v 1.35000000 2.68000000 0.00000000
v 1.35000000 2.52000000 0.00000000
v 1.10278640 2.53527864 0.14000000
v 1.59721360 2.53527864 0.14000000
v 1.10278640 2.66472136 0.14000000
v 1.59721360 2.66472136 0.14000000
v 1.35000000 2.60000000 0.28000000
v 1.10278640 2.53527864 -0.14000000
v 1.59721360 2.53527864 -0.14000000
v 1.10278640 2.66472136 -0.14000000
v 1.59721360 2.66472136 -0.14000000
v 1.35000000 2.60000000 -0.28000000
v 1.99721360 2.64000000 -0.08652476
v 1.99721360 2.56000000 -0.08652476
v 1.75000000 2.57527864 -0.22652476
v 1.75000000 2.62472136 -0.22652476
v 1.99721360 2.64000000 0.08652476
v 1.99721360 2.56000000 0.08652476
v 1.75000000 2.57527864 0.22652476
v 1.75000000 2.62472136 0.22652476
v 2.15000000 2.60000000 0.00000000
v 0.70278640 2.64000000 -0.08652476
v 0.70278640 2.56000000 -0.08652476
v 0.95000000 2.57527864 -0.22652476
v 0.95000000 2.62472136 -0.22652476
v 0.70278640 2.64000000 0.08652476
v 0.70278640 2.56000000 0.08652476
v 0.95000000 2.57527864 0.22652476
v 0.95000000 2.62472136 0.22652476
v 0.55000000 2.60000000 0.00000000
v 1.82941511 3.76805206 0.00000000
v 2.67058489 3.76805206 0.00000000
v 1.82941511 3.63194794 0.00000000
v 2.67058489 3.63194794 0.00000000
v 2.25000000 3.65794151 0.23818223
v 2.25000000 3.74205849 0.23818223
v 2.25000000 3.65794151 -0.23818223
v 2.25000000 3.74205849 -0.23818223
v 2.93052065 3.70000000 -0.14720471
v 2.93052065 3.70000000 0.14720471
v 1.56947935 3.70000000 -0.14720471
v 1.56947935 3.70000000 0.14720471
v 2.25000000 3.78000000 0.00000000
v 2.25000000 3.62000000 0.00000000
v 2.00278640 3.63527864 0.14000000
v 2.49721360 3.63527864 0.14000000
v 2.00278640 3.76472136 0.14000000
v 2.49721360 3.76472136 0.14000000
v 2.25000000 3.70000000 0.28000000
v 2.00278640 3.63527864 -0.14000000
v 2.49721360 3.63527864 -0.14000000
v 2.00278640 3.76472136 -0.14000000
v 2.49721360 3.76472136 -0.14000000
v 2.25000000 3.70000000 -0.28000000
v 2.89721360 3.74000000 -0.08652476
v 2.89721360 3.66000000 -0.08652476
v 2.65000000 3.67527864 -0.22652476
v 2.65000000 3.72472136 -0.22652476
v 2.89721360 3.74000000 0.08652476
v 2.89721360 3.66000000 0.08652476
v 2.65000000 3.67527864 0.22652476
v 2.65000000 3.72472136 0.22652476
v 3.05000000 3.70000000 0.00000000
v 1.60278640 3.74000000 -0.08652476
v 1.60278640 3.66000000 -0.08652476
v 1.85000000 3.67527864 -0.22652476
v 1.85000000 3.72472136 -0.22652476
v 1.60278640 3.74000000 0.08652476
v 1.60278640 3.66000000 0.08652476
v 1.85000000 3.67527864 0.22652476
v 1.85000000 3.72472136 0.22652476
v 1.45000000 3.70000000 0.00000000
f 2 1 5
f 2 5 3
f 3 5 6
f 3 6 4
f 5 1 7
f 5 7 6
f 6 7 8
f 6 8 4
f 7 1 9
f 7 9 8
f 8 9 10
f 8 10 4
f 9 1 11
f 9 11 10
f 10 11 12
f 10 12 4
f 11 1 13
f 11 13 12
f 12 13 14
f 12 14 4
f 13 1 15
f 13 15 14
f 14 15 16
f 14 16 4
f 15 1 2
f 15 2 16
f 16 2 3
f 16 3 4
f 18 17 21
f 18 21 19
f 19 21 22
f 19 22 20
f 21 17 23
f 21 23 22
f 22 23 24
f 22 24 20
f 23 17 25
f 23 25 24
f 24 25 26
f 24 26 20
f 25 17 27
f 25 27 26
f 26 27 28
f 26 28 20
f 27 17 29
f 27 29 28
f 28 29 30
f 28 30 20
f 29 17 31
f 29 31 30
f 30 31 32
f 30 32 20
f 31 17 18
f 31 18 32
f 32 18 19
f 32 19 20
f 34 33 37
f 34 37 35
f 35 37 38
f 35 38 36
f 37 33 39
f 37 39 38
f 38 39 40
f 38 40 36
f 39 33 41
f 39 41 40
f 40 41 42
f 40 42 36
f 41 33 43
f 41 43 42
f 42 43 44
f 42 44 36
f 43 33 45
f 43 45 44
f 44 45 46
f 44 46 36
f 45 33 47
f 45 47 46
f 46 47 48
f 46 48 36
f 47 33 34
f 47 34 48
f 48 34 35
f 48 35 36
f 49 86 65
f 86 60 89
f 65 89 54
f 86 89 65
f 49 65 61
f 65 54 66
f 61 66 50
f 65 66 61
f 49 61 70
f 61 50 71
f 70 71 56
f 61 71 70
f 49 70 82
f 70 56 85
f 82 85 59
f 70 85 82
f 49 82 86
f 82 59 90
f 86 90 60
f 82 90 86
f 50 66 77
f 66 54 80
f 77 80 58
f 66 80 77
f 54 89 67
f 89 60 88
f 67 88 53
f 89 88 67
f 60 90 87
f 90 59 83
f 87 83 51
f 90 83 87
f 59 85 84
f 85 56 72
f 84 72 55
f 85 72 84
f 56 71 76
f 71 50 73
f 76 73 57
f 71 73 76
f 52 78 64
f 78 58 79
f 64 79 53
f 78 79 64
f 52 64 62
f 64 53 63
f 62 63 51
f 64 63 62
f 52 62 69
f 62 51 68
f 69 68 55
f 62 68 69
f 52 69 74
f 69 55 75
f 74 75 57
f 69 75 74
f 52 74 78
f 74 57 81
f 78 81 58
f 74 81 78
f 53 79 67
f 79 58 80
f 67 80 54
f 79 80 67
f 51 63 87
f 63 53 88
f 87 88 60
f 63 88 87
f 55 68 84
f 68 51 83
f 84 83 59
f 68 83 84
f 57 75 76
f 75 55 72
f 76 72 56
f 75 72 76
f 58 81 77
f 81 57 73
f 77 73 50
f 81 73 77
f 91 128 107
f 128 102 131
f 107 131 96
f 128 131 107
f 91 107 103
f 107 96 108
f 103 108 92
f 107 108 103
f 91 103 112
f 103 92 113
f 112 113 98
f 103 113 112
f 91 112 124
f 112 98 127
f 124 127 101
f 112 127 124
f 91 124 128
f 124 101 132
f 128 132 102
f 124 132 128
f 92 108 119
f 108 96 122
f 119 122 100
f 108 122 119
f 96 131 109
f 131 102 130
f 109 130 95
f 131 130 109
f 102 132 129
f 132 101 125
f 129 125 93
f 132 125 129
f 101 127 126
f 127 98 114
f 126 114 97
f 127 114 126
f 98 113 118
f 113 92 115
f 118 115 99
f 113 115 118
f 94 120 106
f 120 100 121
f 106 121 95
f 120 121 106
f 94 106 104
f 106 95 105
f 104 105 93
f 106 105 104
f 94 104 111
f 104 93 110
f 111 110 97
f 104 110 111
f 94 111 116
f 111 97 117
f 116 117 99
f 111 117 116
f 94 116 120
f 116 99 123
f 120 123 100
f 116 123 120
f 95 121 109
f 121 100 122
f 109 122 96
f 121 122 109
f 93 105 129
f 105 95 130
f 129 130 102
f 105 130 129
f 97 110 126
f 110 93 125
f 126 125 101
f 110 125 126
f 99 117 118
f 117 97 114
f 118 114 98
f 117 114 118
f 100 123 119
f 123 99 115
f 119 115 92
f 123 115 119
f 133 170 149
f 170 144 173
f 149 173 138
f 170 173 149
f 133 149 145
f 149 138 150
f 145 150 134
f 149 150 145
f 133 145 154
f 145 134 155
f 154 155 140
f 145 155 154
f 133 154 166
f 154 140 169
f 166 169 143
f 154 169 166
f 133 166 170
f 166 143 174
f 170 174 144
f 166 174 170
f 134 150 161
f 150 138 164
f 161 164 142
f 150 164 161
f 138 173 151
f 173 144 172
f 151 172 137
f 173 172 151
f 144 174 171
f 174 143 167
f 171 167 135
f 174 167 171
f 143 169 168
f 169 140 156
f 168 156 139
f 169 156 168
f 140 155 160
f 155 134 157
f 160 157 141
f 155 157 160
f 136 162 148
f 162 142 163
f 148 163 137
f 162 163 148
f 136 148 146
f 148 137 147
f 146 147 135
f 148 147 146
f 136 146 153
f 146 135 152
f 153 152 139
f 146 152 153
f 136 153 158
f 153 139 159
f 158 159 141
f 153 159 158
f 136 158 162
f 158 141 165
f 162 165 142
f 158 165 162
f 137 163 151
f 163 142 164
f 151 164 138
f 163 164 151
f 135 147 171
f 147 137 172
f 171 172 144
f 147 172 171
f 139 152 168
f 152 135 167
f 168 167 143
f 152 167 168
f 141 159 160
f 159 139 156
f 160 156 140
f 159 156 160
f 142 165 161
f 165 141 157
f 161 157 134
f 165 157 161
f 176 175 179
f 176 179 177
f 177 179 180
f 177 180 178
f 179 175 181
f 179 181 180
f 180 181 182
f 180 182 178
f 181 175 183
f 181 183 182
f 182 183 184
f 182 184 178
f 183 175 185
f 183 185 184
f 184 185 186
f 184 186 178
f 185 175 187
f 185 187 186
f 186 187 188
f 186 188 178
f 187 175 189
f 187 189 188
f 188 189 190
f 188 190 178
f 189 175 176
f 189 176 190
f 190 176 177
f 190 177 178
f 192 191 195
f 192 195 193
f 193 195 196
f 193 196 194
f 195 191 197
f 195 197 196
f 196 197 198
f 196 198 194
f 197 191 199
f 197 199 198
f 198 199 200
f 198 200 194
f 199 191 201
f 199 201 200
f 200 201 202
f 200 202 194
f 201 191 203
f 201 203 202
f 202 203 204
f 202 204 194
f 203 191 205
f 203 205 204
f 204 205 206
f 204 206 194
f 205 191 192
f 205 192 206
f 206 192 193
f 206 193 194
f 208 207 211
f 208 211 209
f 209 211 212
f 209 212 210
f 211 207 213
f 211 213 212
f 212 213 214
f 212 214 210
f 213 207 215
f 213 215 214
f 214 215 216
f 214 216 210
f 215 207 217
f 215 217 216
f 216 217 218
f 216 218 210
f 217 207 219
f 217 219 218
f 218 219 220
f 218 220 210
f 219 207 221
f 219 221 220
f 220 221 222
f 220 222 210
f 221 207 208
f 221 208 222
f 222 208 209
f 222 209 210
f 223 260 239
f 260 234 263
f 239 263 228
f 260 263 239
f 223 239 235
f 239 228 240
f 235 240 224
f 239 240 235
f 223 235 244
f 235 224 245
f 244 245 230
f 235 245 244
f 223 244 256
f 244 230 259
f 256 259 233
f 244 259 256
f 223 256 260
f 256 233 264
f 260 264 234
f 256 264 260
f 224 240 251
f 240 228 254
f 251 254 232
f 240 254 251
f 228 263 241
f 263 234 262
f 241 262 227
f 263 262 241
f 234 264 261
f 264 233 257
f 261 257 225
f 264 257 261
f 233 259 258
f 259 230 246
f 258 246 229
f 259 246 258
f 230 245 250
f 245 224 247
f 250 247 231
f 245 247 250
f 226 252 238
f 252 232 253
f 238 253 227
f 252 253 238
f 226 238 236
f 238 227 237
f 236 237 225
f 238 237 236
f 226 236 243
f 236 225 242
f 243 242 229
f 236 242 243
f 226 243 248
f 243 229 249
f 248 249 231
f 243 249 248
f 226 248 252
f 248 231 255
f 252 255 232
f 248 255 252
f 227 253 241
f 253 232 254
f 241 254 228
f 253 254 241
f 225 237 261
f 237 227 262
f 261 262 234
f 237 262 261
f 229 242 258
f 242 225 257
f 258 257 233
f 242 257 258
f 231 249 250
f 249 229 246
f 250 246 230
f 249 246 250
f 232 255 251
f 255 231 247
f 251 247 224
f 255 247 251
f 265 302 281
f 302 276 305
f 281 305 270
f 302 305 281
f 265 281 277
f 281 270 282
f 277 282 266
f 281 282 277
f 265 277 286
f 277 266 287
f 286 287 272
f 277 287 286
f 265 286 298
f 286 272 301
f 298 301 275
f 286 301 298
f 265 298 302
f 298 275 306
f 302 306 276
f 298 306 302
f 266 282 293
f 282 270 296
f 293 296 274
f 282 296 293
f 270 305 283
f 305 276 304
f 283 304 269
f 305 304 283
f 276 306 303
f 306 275 299
f 303 299 267
f 306 299 303
f 275 301 300
f 301 272 288
f 300 288 271
f 301 288 300
f 272 287 292
f 287 266 289
f 292 289 273
f 287 289 292
f 268 294 280
f 294 274 295
f 280 295 269
f 294 295 280
f 268 280 278
f 280 269 279
f 278 279 267
f 280 279 278
f 268 278 285
f 278 267 284
f 285 284 271
f 278 284 285
f 268 285 290
f 285 271 291
f 290 291 273
f 285 291 290
f 268 290 294
f 290 273 297
f 294 297 274
f 290 297 294
f 269 295 283
f 295 274 296
f 283 296 270
f 295 296 283
f 267 279 303
f 279 269 304
f 303 304 276
f 279 304 303
f 271 284 300
f 284 267 299
f 300 299 275
f 284 299 300
f 273 291 292
f 291 271 288
f 292 288 272
f 291 288 292
f 274 297 293
f 297 273 289
f 293 289 266
f 297 289 293
f 307 344 323
f 344 318 347
f 323 347 312
f 344 347 323
f 307 323 319
f 323 312 324
f 319 324 308
f 323 324 319
f 307 319 328
f 319 308 329
f 328 329 314
f 319 329 328
f 307 328 340
f 328 314 343
f 340 343 317
f 328 343 340
f 307 340 344
f 340 317 348
f 344 348 318
f 340 348 344
f 308 324 335
f 324 312 338
f 335 338 316
f 324 338 335
f 312 347 325
f 347 318 346
f 325 346 311
f 347 346 325
f 318 348 345
f 348 317 341
f 345 341 309
f 348 341 345
f 317 343 342
f 343 314 330
f 342 330 313
f 343 330 342
f 314 329 334
f 329 308 331
f 334 331 315
f 329 331 334
f 310 336 322
f 336 316 337
f 322 337 311
f 336 337 322
f 310 322 320
f 322 311 321
f 320 321 309
f 322 321 320
f 310 320 327
f 320 309 326
f 327 326 313
f 320 326 327
f 310 327 332
f 327 313 333
f 332 333 315
f 327 333 332
f 310 332 336
f 332 315 339
f 336 339 316
f 332 339 336
f 311 337 325
f 337 316 338
f 325 338 312
f 337 338 325
f 309 321 345
f 321 311 346
f 345 346 318
f 321 346 345
f 313 326 342
f 326 309 341
f 342 341 317
f 326 341 342
f 315 333 334
f 333 313 330
f 334 330 314
f 333 330 334
f 316 339 335
f 339 315 331
f 335 331 308
f 339 331 335
f 350 349 353
f 350 353 351
f 351 353 354
f 351 354 352
f 353 349 355
f 353 355 354
f 354 355 356
f 354 356 352
f 355 349 357
f 355 357 356
f 356 357 358
f 356 358 352
f 357 349 359
f 357 359 358
f 358 359 360
f 358 360 352
f 359 349 361
f 359 361 360
f 360 361 362
f 360 362 352
f 361 349 363
f 361 363 362
f 362 363 364
f 362 364 352
f 363 349 350
f 363 350 364
f 364 350 351
f 364 351 352
f 366 365 369
f 366 369 367
f 367 369 370
f 367 370 368
f 369 365 371
f 369 371 370
f 370 371 372
f 370 372 368
f 371 365 373
f 371 373 372
f 372 373 374
f 372 374 368
f 373 365 375
f 373 375 374
f 374 375 376
f 374 376 368
f 375 365 377
f 375 377 376
f 376 377 378
f 376 378 368
f 377 365 379
f 377 379 378
f 378 379 380
f 378 380 368
f 379 365 366
f 379 366 380
f 380 366 367
f 380 367 368
f 382 381 385
f 382 385 383
f 383 385 386
f 383 386 384
f 385 381 387
f 385 387 386
f 386 387 388
f 386 388 384
f 387 381 389
f 387 389 388
f 388 389 390
f 388 390 384
f 389 381 391
f 389 391 390
f 390 391 392
f 390 392 384
f 391 381 393
f 391 393 392
f 392 393 394
f 392 394 384
f 393 381 395
f 393 395 394
f 394 395 396
f 394 396 384
f 395 381 382
f 395 382 396
f 396 382 383
f 396 383 384
f 397 434 413
f 434 408 437
f 413 437 402
f 434 437 413
f 397 413 409
f 413 402 414
f 409 414 398
f 413 414 409
f 397 409 418
f 409 398 419
f 418 419 404
f 409 419 418
f 397 418 430
f 418 404 433
f 430 433 407
f 418 433 430
f 397 430 434
f 430 407 438
f 434 438 408
f 430 438 434
f 398 414 425
f 414 402 428
f 425 428 406
f 414 428 425
f 402 437 415
f 437 408 436
f 415 436 401
f 437 436 415
f 408 438 435
f 438 407 431
f 435 431 399
f 438 431 435
f 407 433 432
f 433 404 420
f 432 420 403
f 433 420 432
f 404 419 424
f 419 398 421
f 424 421 405
f 419 421 424
f 400 426 412
f 426 406 427
f 412 427 401
f 426 427 412
f 400 412 410
f 412 401 411
f 410 411 399
f 412 411 410
f 400 410 417
f 410 399 416
f 417 416 403
f 410 416 417
f 400 417 422
f 417 403 423
f 422 423 405
f 417 423 422
f 400 422 426
f 422 405 429
f 426 429 406
f 422 429 426
f 401 427 415
f 427 406 428
f 415 428 402
f 427 428 415
f 399 411 435
f 411 401 436
f 435 436 408
f 411 436 435
f 403 416 432
f 416 399 431
f 432 431 407
f 416 431 432
f 405 423 424
f 423 403 420
f 424 420 404
f 423 420 424
f 406 429 425
f 429 405 421
f 425 421 398
f 429 421 425
f 439 476 455
f 476 450 479
f 455 479 444
f 476 479 455
f 439 455 451
f 455 444 456
f 451 456 440
f 455 456 451
f 439 451 460
f 451 440 461
f 460 461 446
f 451 461 460
f 439 460 472
f 460 446 475
f 472 475 449
f 460 475 472
f 439 472 476
f 472 449 480
f 476 480 450
f 472 480 476
f 440 456 467
f 456 444 470
f 467 470 448
f 456 470 467
f 444 479 457
f 479 450 478
f 457 478 443
f 479 478 457
f 450 480 477
f 480 449 473
f 477 473 441
f 480 473 477
f 449 475 474
f 475 446 462
f 474 462 445
f 475 462 474
f 446 461 466
f 461 440 463
f 466 463 447
f 461 463 466
f 442 468 454
f 468 448 469
f 454 469 443
f 468 469 454
f 442 454 452
f 454 443 453
f 452 453 441
f 454 453 452
f 442 452 459
f 452 441 458
f 459 458 445
f 452 458 459
f 442 459 464
f 459 445 465
f 464 465 447
f 459 465 464
f 442 464 468
f 464 447 471
f 468 471 448
f 464 471 468
f 443 469 457
f 469 448 470
f 457 470 444
f 469 470 457
f 441 453 477
f 453 443 478
f 477 478 450
f 453 478 477
f 445 458 474
f 458 441 473
f 474 473 449
f 458 473 474
f 447 465 466
f 465 445 462
f 466 462 446
f 465 462 466
f 448 471 467
f 471 447 463
f 467 463 440
f 471 463 467
f 481 518 497
f 518 492 521
f 497 521 486
f 518 521 497
f 481 497 493
f 497 486 498
f 493 498 482
f 497 498 493
f 481 493 502
f 493 482 503
f 502 503 488
f 493 503 502
f 481 502 514
f 502 488 517
f 514 517 491
f 502 517 514
f 481 514 518
f 514 491 522
f 518 522 492
f 514 522 518
f 482 498 509
f 498 486 512
f 509 512 490
f 498 512 509
f 486 521 499
f 521 492 520
f 499 520 485
f 521 520 499
f 492 522 519
f 522 491 515
f 519 515 483
f 522 515 519
f 491 517 516
f 517 488 504
f 516 504 487
f 517 504 516
f 488 503 508
f 503 482 505
f 508 505 489
f 503 505 508
f 484 510 496
f 510 490 511
f 496 511 485
f 510 511 496
f 484 496 494
f 496 485 495
f 494 495 483
f 496 495 494
f 484 494 501
f 494 483 500
f 501 500 487
f 494 500 501
f 484 501 506
f 501 487 507
f 506 507 489
f 501 507 506
f 484 506 510
f 506 489 513
f 510 513 490
f 506 513 510
f 485 511 499
f 511 490 512
f 499 512 486
f 511 512 499
f 483 495 519
f 495 485 520
f 519 520 492
f 495 520 519
f 487 500 516
f 500 483 515
f 516 515 491
f 500 515 516
f 489 507 508
f 507 487 504
f 508 504 488
f 507 504 508
f 490 513 509
f 513 489 505
f 509 505 482
f 513 505 509
f 524 523 527
f 524 527 525
f 525 527 528
f 525 528 526
f 527 523 529
f 527 529 528
f 528 529 530
f 528 530 526
f 529 523 531
f 529 531 530
f 530 531 532
f 530 532 526
f 531 523 533
f 531 533 532
f 532 533 534
f 532 534 526
f 533 523 535
f 533 535 534
f 534 535 536
f 534 536 526
f 535 523 537
f 535 537 536
f 536 537 538
f 536 538 526
f 537 523 524
f 537 524 538
f 538 524 525
f 538 525 526
f 540 539 543
f 540 543 541
f 541 543 544
f 541 544 542
f 543 539 545
f 543 545 544
f 544 545 546
f 544 546 542
f 545 539 547
f 545 547 546
f 546 547 548
f 546 548 542
f 547 539 549
f 547 549 548
f 548 549 550
f 548 550 542
f 549 539 551
f 549 551 550
f 550 551 552
f 550 552 542
f 551 539 553
f 551 553 552
f 552 553 554
f 552 554 542
f 553 539 540
f 553 540 554
f 554 540 541
f 554 541 542
f 556 555 559
f 556 559 557
f 557 559 560
f 557 560 558
f 559 555 561
f 559 561 560
f 560 561 562
f 560 562 558
f 561 555 563
f 561 563 562
f 562 563 564
f 562 564 558
f 563 555 565
f 563 565 564
f 564 565 566
f 564 566 558
f 565 555 567
f 565 567 566
f 566 567 568
f 566 568 558
f 567 555 569
f 567 569 568
f 568 569 570
f 568 570 558
f 569 555 556
f 569 556 570
f 570 556 557
f 570 557 558
f 571 608 587
f 608 582 611
f 587 611 576
f 608 611 587
f 571 587 583
f 587 576 588
f 583 588 572
f 587 588 583
f 571 583 592
f 583 572 593
f 592 593 578
f 583 593 592
f 571 592 604
f 592 578 607
f 604 607 581
f 592 607 604
f 571 604 608
f 604 581 612
f 608 612 582
f 604 612 608
f 572 588 599
f 588 576 602
f 599 602 580
f 588 602 599
f 576 611 589
f 611 582 610
f 589 610 575
f 611 610 589
f 582 612 609
f 612 581 605
f 609 605 573
f 612 605 609
f 581 607 606
f 607 578 594
f 606 594 577
f 607 594 606
f 578 593 598
f 593 572 595
f 598 595 579
f 593 595 598
f 574 600 586
f 600 580 601
f 586 601 575
f 600 601 586
f 574 586 584
f 586 575 585
f 584 585 573
f 586 585 584
f 574 584 591
f 584 573 590
f 591 590 577
f 584 590 591
f 574 591 596
f 591 577 597
f 596 597 579
f 591 597 596
f 574 596 600
f 596 579 603
f 600 603 580
f 596 603 600
f 575 601 589
f 601 580 602
f 589 602 576
f 601 602 589
f 573 585 609
f 585 575 610
f 609 610 582
f 585 610 609
f 577 590 606
f 590 573 605
f 606 605 581
f 590 605 606
f 579 597 598
f 597 577 594
f 598 594 578
f 597 594 598
f 580 603 599
f 603 579 595
f 599 595 572
f 603 595 599
f 613 650 629
f 650 624 653
f 629 653 618
f 650 653 629
f 613 629 625
f 629 618 630
f 625 630 614
f 629 630 625
f 613 625 634
f 625 614 635
f 634 635 620
f 625 635 634
f 613 634 646
f 634 620 649
f 646 649 623
f 634 649 646
f 613 646 650
f 646 623 654
f 650 654 624
f 646 654 650
f 614 630 641
f 630 618 644
f 641 644 622
f 630 644 641
f 618 653 631
f 653 624 652
f 631 652 617
f 653 652 631
f 624 654 651
f 654 623 647
f 651 647 615
f 654 647 651
f 623 649 648
f 649 620 636
f 648 636 619
f 649 636 648
f 620 635 640
f 635 614 637
f 640 637 621
f 635 637 640
f 616 642 628
f 642 622 643
f 628 643 617
f 642 643 628
f 616 628 626
f 628 617 627
f 626 627 615
f 628 627 626
f 616 626 633
f 626 615 632
f 633 632 619
f 626 632 633
f 616 633 638
f 633 619 639
f 638 639 621
f 633 639 638
f 616 638 642
f 638 621 645
f 642 645 622
f 638 645 642
f 617 643 631
f 643 622 644
f 631 644 618
f 643 644 631
f 615 627 651
f 627 617 652
f 651 652 624
f 627 652 651
f 619 632 648
f 632 615 647
f 648 647 623
f 632 647 648
f 621 639 640
f 639 619 636
f 640 636 620
f 639 636 640
f 622 645 641
f 645 621 637
f 641 637 614
f 645 637 641
f 655 692 671
f 692 666 695
f 671 695 660
f 692 695 671
f 655 671 667
f 671 660 672
f 667 672 656
f 671 672 667
f 655 667 676
f 667 656 677
f 676 677 662
f 667 677 676
f 655 676 688
f 676 662 691
f 688 691 665
f 676 691 688
f 655 688 692
f 688 665 696
f 692 696 666
f 688 696 692
f 656 672 683
f 672 660 686
f 683 686 664
f 672 686 683
f 660 695 673
f 695 666 694
f 673 694 659
f 695 694 673
f 666 696 693
f 696 665 689
f 693 689 657
f 696 689 693
f 665 691 690
f 691 662 678
f 690 678 661
f 691 678 690
f 662 677 682
f 677 656 679
f 682 679 663
f 677 679 682
f 658 684 670
f 684 664 685
f 670 685 659
f 684 685 670
f 658 670 668
f 670 659 669
f 668 669 657
f 670 669 668
f 658 668 675
f 668 657 674
f 675 674 661
f 668 674 675
f 658 675 680
f 675 661 681
f 680 681 663
f 675 681 680
f 658 680 684
f 680 663 687
f 684 687 664
f 680 687 684
f 659 685 673
f 685 664 686
f 673 686 660
f 685 686 673
f 657 669 693
f 669 659 694
f 693 694 666
f 669 694 693
f 661 674 690
f 674 657 689
f 690 689 665
f 674 689 690
f 663 681 682
f 681 661 678
f 682 678 662
f 681 678 682
f 664 687 683
f 687 663 679
f 683 679 656
f 687 679 683
f 698 697 701
f 698 701 699
f 699 701 702
f 699 702 700
f 701 697 703
f 701 703 702
f 702 703 704
f 702 704 700
f 703 697 705
f 703 705 704
f 704 705 706
f 704 706 700
f 705 697 707
f 705 707 706
f 706 707 708
f 706 708 700
f 707 697 709
f 707 709 708
f 708 709 710
f 708 710 700
f 709 697 711
f 709 711 710
f 710 711 712
f 710 712 700
f 711 697 698
f 711 698 712
f 712 698 699
f 712 699 700
f 714 713 717
f 714 717 715
f 715 717 718
f 715 718 716
f 717 713 719
f 717 719 718
f 718 719 720
f 718 720 716
f 719 713 721
f 719 721 720
f 720 721 722
f 720 722 716
f 721 713 723
f 721 723 722
f 722 723 724
f 722 724 716
f 723 713 725
f 723 725 724
f 724 725 726
f 724 726 716
f 725 713 727
f 725 727 726
f 726 727 728
f 726 728 716
f 727 713 714
f 727 714 728
f 728 714 715
f 728 715 716
f 730 729 733
f 730 733 731
f 731 733 734
f 731 734 732
f 733 729 735
f 733 735 734
f 734 735 736
f 734 736 732
f 735 729 737
f 735 737 736
f 736 737 738
f 736 738 732
f 737 729 739
f 737 739 738
f 738 739 740
f 738 740 732
f 739 729 741
f 739 741 740
f 740 741 742
f 740 742 732
f 741 729 743
f 741 743 742
f 742 743 744
f 742 744 732
f 743 729 730
f 743 730 744
f 744 730 731
f 744 731 732
f 745 782 761
f 782 756 785
f 761 785 750
f 782 785 761
f 745 761 757
f 761 750 762
f 757 762 746
f 761 762 757
f 745 757 766
f 757 746 767
f 766 767 752
f 757 767 766
f 745 766 778
f 766 752 781
f 778 781 755
f 766 781 778
f 745 778 782
f 778 755 786
f 782 786 756
f 778 786 782
f 746 762 773
f 762 750 776
f 773 776 754
f 762 776 773
f 750 785 763
f 785 756 784
f 763 784 749
f 785 784 763
f 756 786 783
f 786 755 779
f 783 779 747
f 786 779 783
f 755 781 780
f 781 752 768
f 780 768 751
f 781 768 780
f 752 767 772
f 767 746 769
f 772 769 753
f 767 769 772
f 748 774 760
f 774 754 775
f 760 775 749
f 774 775 760
f 748 760 758
f 760 749 759
f 758 759 747
f 760 759 758
f 748 758 765
f 758 747 764
f 765 764 751
f 758 764 765
f 748 765 770
f 765 751 771
f 770 771 753
f 765 771 770
f 748 770 774
f 770 753 777
f 774 777 754
f 770 777 774
f 749 775 763
f 775 754 776
f 763 776 750
f 775 776 763
f 747 759 783
f 759 749 784
f 783 784 756
f 759 784 783
f 751 764 780
f 764 747 779
f 780 779 755
f 764 779 780
f 753 771 772
f 771 751 768
f 772 768 752
f 771 768 772
f 754 777 773
f 777 753 769
f 773 769 746
f 777 769 773
f 787 824 803
f 824 798 827
f 803 827 792
f 824 827 803
f 787 803 799
f 803 792 804
f 799 804 788
f 803 804 799
f 787 799 808
f 799 788 809
f 808 809 794
f 799 809 808
f 787 808 820
f 808 794 823
f 820 823 797
f 808 823 820
f 787 820 824
f 820 797 828
f 824 828 798
f 820 828 824
f 788 804 815
f 804 792 818
f 815 818 796
f 804 818 815
f 792 827 805
f 827 798 826
f 805 826 791
f 827 826 805
f 798 828 825
f 828 797 821
f 825 821 789
f 828 821 825
f 797 823 822
f 823 794 810
f 822 810 793
f 823 810 822
f 794 809 814
f 809 788 811
f 814 811 795
f 809 811 814
f 790 816 802
f 816 796 817
f 802 817 791
f 816 817 802
f 790 802 800
f 802 791 801
f 800 801 789
f 802 801 800
f 790 800 807
f 800 789 806
f 807 806 793
f 800 806 807
f 790 807 812
f 807 793 813
f 812 813 795
f 807 813 812
f 790 812 816
f 812 795 819
f 816 819 796
f 812 819 816
f 791 817 805
f 817 796 818
f 805 818 792
f 817 818 805
f 789 801 825
f 801 791 826
f 825 826 798
f 801 826 825
f 793 806 822
f 806 789 821
f 822 821 797
f 806 821 822
f 795 813 814
f 813 793 810
f 814 810 794
f 813 810 814
f 796 819 815
f 819 795 811
f 815 811 788
f 819 811 815
f 829 866 845
f 866 840 869
f 845 869 834
f 866 869 845
f 829 845 841
f 845 834 846
f 841 846 830
f 845 846 841
f 829 841 850
f 841 830 851
f 850 851 836
f 841 851 850
f 829 850 862
f 850 836 865
f 862 865 839
f 850 865 862
f 829 862 866
f 862 839 870
f 866 870 840
f 862 870 866
f 830 846 857
f 846 834 860
f 857 860 838
f 846 860 857
f 834 869 847
f 869 840 868
f 847 868 833
f 869 868 847
f 840 870 867
f 870 839 863
f 867 863 831
f 870 863 867
f 839 865 864
f 865 836 852
f 864 852 835
f 865 852 864
f 836 851 856
f 851 830 853
f 856 853 837
f 851 853 856
f 832 858 844
f 858 838 859
f 844 859 833
f 858 859 844
f 832 844 842
f 844 833 843
f 842 843 831
f 844 843 842
f 832 842 849
f 842 831 848
f 849 848 835
f 842 848 849
f 832 849 854
f 849 835 855
f 854 855 837
f 849 855 854
f 832 854 858
f 854 837 861
f 858 861 838
f 854 861 858
f 833 859 847
f 859 838 860
f 847 860 834
f 859 860 847
f 831 843 867
f 843 833 868
f 867 868 840
f 843 868 867
f 835 848 864
f 848 831 863
f 864 863 839
f 848 863 864
f 837 855 856
f 855 835 852
f 856 852 836
f 855 852 856
f 838 861 857
f 861 837 853
f 857 853 830
f 861 853 857
f 872 871 875
f 872 875 873
f 873 875 876
f 873 876 874
f 875 871 877
f 875 877 876
f 876 877 878
f 876 878 874
f 877 871 879
f 877 879 878
f 878 879 880
f 878 880 874
f 879 871 881
f 879 881 880
f 880 881 882
f 880 882 874
f 881 871 883
f 881 883 882
f 882 883 884
f 882 884 874
f 883 871 885
f 883 885 884
f 884 885 886
f 884 886 874
f 885 871 872
f 885 872 886
f 886 872 873
f 886 873 874
f 888 887 891
f 888 891 889
f 889 891 892
f 889 892 890
f 891 887 893
f 891 893 892
f 892 893 894
f 892 894 890
f 893 887 895
f 893 895 894
f 894 895 896
f 894 896 890
f 895 887 897
f 895 897 896
f 896 897 898
f 896 898 890
f 897 887 899
f 897 899 898
f 898 899 900
f 898 900 890
f 899 887 901
f 899 901 900
f 900 901 902
f 900 902 890
f 901 887 888
f 901 888 902
f 902 888 889
f 902 889 890
f 904 903 907
f 904 907 905
f 905 907 908
f 905 908 906
f 907 903 909
f 907 909 908
f 908 909 910
f 908 910 906
f 909 903 911
f 909 911 910
f 910 911 912
f 910 912 906
f 911 903 913
f 911 913 912
f 912 913 914
f 912 914 906
f 913 903 915
f 913 915 914
f 914 915 916
f 914 916 906
f 915 903 917
f 915 917 916
f 916 917 918
f 916 918 906
f 917 903 904
f 917 904 918
f 918 904 905
f 918 905 906
f 919 956 935
f 956 930 959
f 935 959 924
f 956 959 935
f 919 935 931
f 935 924 936
f 931 936 920
f 935 936 931
f 919 931 940
f 931 920 941
f 940 941 926
f 931 941 940
f 919 940 952
f 940 926 955
f 952 955 929
f 940 955 952
f 919 952 956
f 952 929 960
f 956 960 930
f 952 960 956
f 920 936 947
f 936 924 950
f 947 950 928
f 936 950 947
f 924 959 937
f 959 930 958
f 937 958 923
f 959 958 937
f 930 960 957
f 960 929 953
f 957 953 921
f 960 953 957
f 929 955 954
f 955 926 942
f 954 942 925
f 955 942 954
f 926 941 946
f 941 920 943
f 946 943 927
f 941 943 946
f 922 948 934
f 948 928 949
f 934 949 923
f 948 949 934
f 922 934 932
f 934 923 933
f 932 933 921
f 934 933 932
f 922 932 939
f 932 921 938
f 939 938 925
f 932 938 939
f 922 939 944
f 939 925 945
f 944 945 927
f 939 945 944
f 922 944 948
f 944 927 951
f 948 951 928
f 944 951 948
f 923 949 937
f 949 928 950
f 937 950 924
f 949 950 937
f 921 933 957
f 933 923 958
f 957 958 930
f 933 958 957
f 925 938 954
f 938 921 953
f 954 953 929
f 938 953 954
f 927 945 946
f 945 925 942
f 946 942 926
f 945 942 946
f 928 951 947
f 951 927 943
f 947 943 920
f 951 943 947
f 961 998 977
f 998 972 1001
f 977 1001 966
f 998 1001 977
f 961 977 973
f 977 966 978
f 973 978 962
f 977 978 973
f 961 973 982
f 973 962 983
f 982 983 968
f 973 983 982
f 961 982 994
f 982 968 997
f 994 997 971
f 982 997 994
f 961 994 998
f 994 971 1002
f 998 1002 972
f 994 1002 998
f 962 978 989
f 978 966 992
f 989 992 970
f 978 992 989
f 966 1001 979
f 1001 972 1000
f 979 1000 965
f 1001 1000 979
f 972 1002 999
f 1002 971 995
f 999 995 963
f 1002 995 999
f 971 997 996
f 997 968 984
f 996 984 967
f 997 984 996
f 968 983 988
f 983 962 985
f 988 985 969
f 983 985 988
f 964 990 976
f 990 970 991
f 976 991 965
f 990 991 976
f 964 976 974
f 976 965 975
f 974 975 963
f 976 975 974
f 964 974 981
f 974 963 980
f 981 980 967
f 974 980 981
f 964 981 986
f 981 967 987
f 986 987 969
f 981 987 986
f 964 986 990
f 986 969 993
f 990 993 970
f 986 993 990
f 965 991 979
f 991 970 992
f 979 992 966
f 991 992 979
f 963 975 999
f 975 965 1000
f 999 1000 972
f 975 1000 999
f 967 980 996
f 980 963 995
f 996 995 971
f 980 995 996
f 969 987 988
f 987 967 984
f 988 984 968
f 987 984 988
f 970 993 989
f 993 969 985
f 989 985 962
f 993 985 989
f 1003 1040 1019
f 1040 1014 1043
f 1019 1043 1008
f 1040 1043 1019
f 1003 1019 1015
f 1019 1008 1020
f 1015 1020 1004
f 1019 1020 1015
f 1003 1015 1024
f 1015 1004 1025
f 1024 1025 1010
f 1015 1025 1024
f 1003 1024 1036
f 1024 1010 1039
f 1036 1039 1013
f 1024 1039 1036
f 1003 1036 1040
f 1036 1013 1044
f 1040 1044 1014
f 1036 1044 1040
f 1004 1020 1031
f 1020 1008 1034
f 1031 1034 1012
f 1020 1034 1031
f 1008 1043 1021
f 1043 1014 1042
f 1021 1042 1007
f 1043 1042 1021
f 1014 1044 1041
f 1044 1013 1037
f 1041 1037 1005
f 1044 1037 1041
f 1013 1039 1038
f 1039 1010 1026
f 1038 1026 1009
f 1039 1026 1038
f 1010 1025 1030
f 1025 1004 1027
f 1030 1027 1011
f 1025 1027 1030
f 1006 1032 1018
f 1032 1012 1033
f 1018 1033 1007
f 1032 1033 1018
f 1006 1018 1016
f 1018 1007 1017
f 1016 1017 1005
f 1018 1017 1016
f 1006 1016 1023
f 1016 1005 1022
f 1023 1022 1009
f 1016 1022 1023
f 1006 1023 1028
f 1023 1009 1029
f 1028 1029 1011
f 1023 1029 1028
f 1006 1028 1032
f 1028 1011 1035
f 1032 1035 1012
f 1028 1035 1032
f 1007 1033 1021
f 1033 1012 1034
f 1021 1034 1008
f 1033 1034 1021
f 1005 1017 1041
f 1017 1007 1042
f 1041 1042 1014
f 1017 1042 1041
f 1009 1022 1038
f 1022 1005 1037
f 1038 1037 1013
f 1022 1037 1038
f 1011 1029 1030
f 1029 1009 1026
f 1030 1026 1010
f 1029 1026 1030
f 1012 1035 1031
f 1035 1011 1027
f 1031 1027 1004
f 1035 1027 1031
f 1046 1045 1049
f 1046 1049 1047
f 1047 1049 1050
f 1047 1050 1048
f 1049 1045 1051
f 1049 1051 1050
f 1050 1051 1052
f 1050 1052 1048
f 1051 1045 1053
f 1051 1053 1052
f 1052 1053 1054
f 1052 1054 1048
f 1053 1045 1055
f 1053 1055 1054
f 1054 1055 1056
f 1054 1056 1048
f 1055 1045 1057
f 1055 1057 1056
f 1056 1057 1058
f 1056 1058 1048
f 1057 1045 1059
f 1057 1059 1058
f 1058 1059 1060
f 1058 1060 1048
f 1059 1045 1046
f 1059 1046 1060
f 1060 1046 1047
f 1060 1047 1048
f 1062 1061 1065
f 1062 1065 1063
f 1063 1065 1066
f 1063 1066 1064
f 1065 1061 1067
f 1065 1067 1066
f 1066 1067 1068
f 1066 1068 1064
f 1067 1061 1069
f 1067 1069 1068
f 1068 1069 1070
f 1068 1070 1064
f 1069 1061 1071
f 1069 1071 1070
f 1070 1071 1072
f 1070 1072 1064
f 1071 1061 1073
f 1071 1073 1072
f 1072 1073 1074
f 1072 1074 1064
f 1073 1061 1075
f 1073 1075 1074
f 1074 1075 1076
f 1074 1076 1064
f 1075 1061 1062
f 1075 1062 1076
f 1076 1062 1063
f 1076 1063 1064
f 1078 1077 1081
f 1078 1081 1079
f 1079 1081 1082
f 1079 1082 1080
f 1081 1077 1083
f 1081 1083 1082
f 1082 1083 1084
f 1082 1084 1080
f 1083 1077 1085
f 1083 1085 1084
f 1084 1085 1086
f 1084 1086 1080
f 1085 1077 1087
f 1085 1087 1086
f 1086 1087 1088
f 1086 1088 1080
f 1087 1077 1089
f 1087 1089 1088
f 1088 1089 1090
f 1088 1090 1080
f 1089 1077 1091
f 1089 1091 1090
f 1090 1091 1092
f 1090 1092 1080
f 1091 1077 1078
f 1091 1078 1092
f 1092 1078 1079
f 1092 1079 1080
f 1093 1130 1109
f 1130 1104 1133
f 1109 1133 1098
f 1130 1133 1109
f 1093 1109 1105
f 1109 1098 1110
f 1105 1110 1094
f 1109 1110 1105
f 1093 1105 1114
f 1105 1094 1115
f 1114 1115 1100
f 1105 1115 1114
f 1093 1114 1126
f 1114 1100 1129
f 1126 1129 1103
f 1114 1129 1126
f 1093 1126 1130
f 1126 1103 1134
f 1130 1134 1104
f 1126 1134 1130
f 1094 1110 1121
f 1110 1098 1124
f 1121 1124 1102
f 1110 1124 1121
f 1098 1133 1111
f 1133 1104 1132
f 1111 1132 1097
f 1133 1132 1111
f 1104 1134 1131
f 1134 1103 1127
f 1131 1127 1095
f 1134 1127 1131
f 1103 1129 1128
f 1129 1100 1116
f 1128 1116 1099
f 1129 1116 1128
f 1100 1115 1120
f 1115 1094 1117
f 1120 1117 1101
f 1115 1117 1120
f 1096 1122 1108
f 1122 1102 1123
f 1108 1123 1097
f 1122 1123 1108
f 1096 1108 1106
f 1108 1097 1107
f 1106 1107 1095
f 1108 1107 1106
f 1096 1106 1113
f 1106 1095 1112
f 1113 1112 1099
f 1106 1112 1113
f 1096 1113 1118
f 1113 1099 1119
f 1118 1119 1101
f 1113 1119 1118
f 1096 1118 1122
f 1118 1101 1125
f 1122 1125 1102
f 1118 1125 1122
f 1097 1123 1111
f 1123 1102 1124
f 1111 1124 1098
f 1123 1124 1111
f 1095 1107 1131
f 1107 1097 1132
f 1131 1132 1104
f 1107 1132 1131
f 1099 1112 1128
f 1112 1095 1127
f 1128 1127 1103
f 1112 1127 1128
f 1101 1119 1120
f 1119 1099 1116
f 1120 1116 1100
f 1119 1116 1120
f 1102 1125 1121
f 1125 1101 1117
f 1121 1117 1094
f 1125 1117 1121
f 1135 1172 1151
f 1172 1146 1175
f 1151 1175 1140
f 1172 1175 1151
f 1135 1151 1147
f 1151 1140 1152
f 1147 1152 1136
f 1151 1152 1147
f 1135 1147 1156
f 1147 1136 1157
f 1156 1157 1142
f 1147 1157 1156
f 1135 1156 1168
f 1156 1142 1171
f 1168 1171 1145
f 1156 1171 1168
f 1135 1168 1172
f 1168 1145 1176
f 1172 1176 1146
f 1168 1176 1172
f 1136 1152 1163
f 1152 1140 1166
f 1163 1166 1144
f 1152 1166 1163
f 1140 1175 1153
f 1175 1146 1174
f 1153 1174 1139
f 1175 1174 1153
f 1146 1176 1173
f 1176 1145 1169
f 1173 1169 1137
f 1176 1169 1173
f 1145 1171 1170
f 1171 1142 1158
f 1170 1158 1141
f 1171 1158 1170
f 1142 1157 1162
f 1157 1136 1159
f 1162 1159 1143
f 1157 1159 1162
f 1138 1164 1150
f 1164 1144 1165
f 1150 1165 1139
f 1164 1165 1150
f 1138 1150 1148
f 1150 1139 1149
f 1148 1149 1137
f 1150 1149 1148
f 1138 1148 1155
f 1148 1137 1154
f 1155 1154 1141
f 1148 1154 1155
f 1138 1155 1160
f 1155 1141 1161
f 1160 1161 1143
f 1155 1161 1160
f 1138 1160 1164
f 1160 1143 1167
f 1164 1167 1144
f 1160 1167 1164
f 1139 1165 1153
f 1165 1144 1166
f 1153 1166 1140
f 1165 1166 1153
f 1137 1149 1173
f 1149 1139 1174
f 1173 1174 1146
f 1149 1174 1173
f 1141 1154 1170
f 1154 1137 1169
f 1170 1169 1145
f 1154 1169 1170
f 1143 1161 1162
f 1161 1141 1158
f 1162 1158 1142
f 1161 1158 1162
f 1144 1167 1163
f 1167 1143 1159
f 1163 1159 1136
f 1167 1159 1163
f 1177 1214 1193
f 1214 1188 1217
f 1193 1217 1182
f 1214 1217 1193
f 1177 1193 1189
f 1193 1182 1194
f 1189 1194 1178
f 1193 1194 1189
f 1177 1189 1198
f 1189 1178 1199
f 1198 1199 1184
f 1189 1199 1198
f 1177 1198 1210
f 1198 1184 1213
f 1210 1213 1187
f 1198 1213 1210
f 1177 1210 1214
f 1210 1187 1218
f 1214 1218 1188
f 1210 1218 1214
f 1178 1194 1205
f 1194 1182 1208
f 1205 1208 1186
f 1194 1208 1205
f 1182 1217 1195
f 1217 1188 1216
f 1195 1216 1181
f 1217 1216 1195
f 1188 1218 1215
f 1218 1187 1211
f 1215 1211 1179
f 1218 1211 1215
f 1187 1213 1212
f 1213 1184 1200
f 1212 1200 1183
f 1213 1200 1212
f 1184 1199 1204
f 1199 1178 1201
f 1204 1201 1185
f 1199 1201 1204
f 1180 1206 1192
f 1206 1186 1207
f 1192 1207 1181
f 1206 1207 1192
f 1180 1192 1190
f 1192 1181 1191
f 1190 1191 1179
f 1192 1191 1190
f 1180 1190 1197
f 1190 1179 1196
f 1197 1196 1183
f 1190 1196 1197
f 1180 1197 1202
f 1197 1183 1203
f 1202 1203 1185
f 1197 1203 1202
f 1180 1202 1206
f 1202 1185 1209
f 1206 1209 1186
f 1202 1209 1206
f 1181 1207 1195
f 1207 1186 1208
f 1195 1208 1182
f 1207 1208 1195
f 1179 1191 1215
f 1191 1181 1216
f 1215 1216 1188
f 1191 1216 1215
f 1183 1196 1212
f 1196 1179 1211
f 1212 1211 1187
f 1196 1211 1212
f 1185 1203 1204
f 1203 1183 1200
f 1204 1200 1184
f 1203 1200 1204
f 1186 1209 1205
f 1209 1185 1201
f 1205 1201 1178
f 1209 1201 1205

