# https://github.com/mikedh/trimesh
v 0.00000000 6.00000000 -0.00000000
v 0.80000000 6.00000000 -0.00000000
v 0.80000000 0.00000000 0.00000000
v 0.00000000 0.00000000 0.00000000
v 0.49879184 6.00000000 0.62546519
v 0.49879184 0.00000000 0.62546519
v -0.17801675 6.00000000 0.77994233
v -0.17801675 0.00000000 0.77994233
v -0.72077509 6.00000000 0.34710699
v -0.72077509 0.00000000 0.34710699
v -0.72077509 6.00000000 -0.34710699
v -0.72077509 0.00000000 -0.34710699
v -0.17801675 6.00000000 -0.77994233
v -0.17801675 0.00000000 -0.77994233
v 0.49879184 6.00000000 -0.62546519
v 0.49879184 0.00000000 -0.62546519
v 0.00000000 7.87000000 -0.00000000
v 0.65000000 7.87000000 -0.00000000
v 0.65000000 5.83000000 0.00000000
v 0.00000000 5.83000000 0.00000000
v 0.32500000 7.87000000 0.56291651
v 0.32500000 5.83000000 0.56291651
v -0.32500000 7.87000000 0.56291651
v -0.32500000 5.83000000 0.56291651
v -0.65000000 7.87000000 0.00000000
v -0.65000000 5.83000000 0.00000000
v -0.32500000 7.87000000 -0.56291651
v -0.32500000 5.83000000 -0.56291651
v 0.32500000 7.87000000 -0.56291651
v 0.32500000 5.83000000 -0.56291651
v 0.00000000 8.35000000 0.00000000
v 0.65000000 8.35000000 0.00000000
v 0.00000000 7.39000000 0.00000000
v 0.32500000 8.35000000 0.56291651
v -0.32500000 8.35000000 0.56291651
v -0.65000000 8.35000000 0.00000000
v -0.32500000 8.35000000 -0.56291651
v 0.32500000 8.35000000 -0.56291651
f 2 1 5
f 2 5 3
f 3 5 6
f 3 6 4
f 5 1 7
f 5 7 6
f 6 7 8
f 6 8 4
f 7 1 9
f 7 9 8
f 8 9 10
f 8 10 4
f 9 1 11
f 9 11 10
f 10 11 12
f 10 12 4
f 11 1 13
f 11 13 12
f 12 13 14
f 12 14 4
f 13 1 15
f 13 15 14
f 14 15 16
f 14 16 4
f 15 1 2
f 15 2 16
f 16 2 3
f 16 3 4
f 18 17 21
f 18 21 19
f 19 21 22
f 19 22 20
f 21 17 23
f 21 23 22
f 22 23 24
f 22 24 20
f 23 17 25
f 23 25 24
f 24 25 26
f 24 26 20
f 25 17 27
f 25 27 26
f 26 27 28
f 26 28 20
f 27 17 29
f 27 29 28
f 28 29 30
f 28 30 20
f 29 17 18
f 29 18 30
f 30 18 19
f 30 19 20
f 32 31 34
f 32 34 33
f 34 31 35
f 34 35 33
f 35 31 36
f 35 36 33
f 36 31 37
f 36 37 33
f 37 31 38
f 37 38 33
f 38 31 32
f 38 32 33

