# https://github.com/mikedh/trimesh
v -0.54670155 1.09179420 -0.05439461
v -0.04057102 1.06609619 -0.05439461
v -0.09942840 -0.09311854 -0.05439461
v -0.60555894 -0.06742052 -0.05439461
v -0.29363629 1.07894520 0.38449192
v -0.35249367 -0.08026953 0.38449192
v -0.79976682 1.10464321 0.38449192
v -0.85862420 -0.05457152 0.38449192
v -1.05283209 1.11749222 -0.05439461
v -1.11168947 -0.04172251 -0.05439461
v -0.79976682 1.10464321 -0.49328113
v -0.85862420 -0.05457152 -0.49328113
v -0.29363629 1.07894520 -0.49328113
v -0.35249367 -0.08026953 -0.49328113
v -0.53285276 1.36455061 -0.05439461
v -0.02672222 1.33885260 -0.05439461
v -0.56055035 0.81903780 -0.05439461
v -0.27978749 1.35170160 0.38449192
v -0.78591803 1.37739962 0.38449192
v -1.03898330 1.39024863 -0.05439461
v -0.78591803 1.37739962 -0.49328113
v -0.27978749 1.35170160 -0.49328113
v -1.08734010 2.03270347 -0.56144665
v -0.52934895 2.01670831 -0.56144665
v -0.59124554 -0.14255407 -0.56144665
v -1.14923669 -0.12655891 -0.56144665
v -0.80834452 2.02470589 -0.07801364
v -0.87024111 -0.13455649 -0.07801364
v -1.36633568 2.04070105 -0.07801364
v -1.42823227 -0.11856132 -0.07801364
v -1.64533126 2.04869863 -0.56144665
v -1.70722785 -0.11056374 -0.56144665
v -1.36633568 2.04070105 -1.04487967
v -1.42823227 -0.11856132 -1.04487967
v -0.80834452 2.02470589 -1.04487967
v -0.87024111 -0.13455649 -1.04487967
v -1.07277620 2.54076521 -0.56144665
v -0.51478504 2.52477005 -0.56144665
v -1.10190401 1.52464174 -0.56144665
v -0.79378062 2.53276763 -0.07801364
v -1.35177178 2.54876279 -0.07801364
v -1.63076735 2.55676037 -0.56144665
v -1.35177178 2.54876279 -1.04487967
v -0.79378062 2.53276763 -1.04487967
v 0.50883406 1.27030605 -0.32131560
v 0.86928275 1.17831317 -0.32131560
v 0.53074978 -0.14813478 -0.32131560
v 0.17030109 -0.05614191 -0.32131560
v 0.68905840 1.22430961 0.00084812
v 0.35052544 -0.10213834 0.00084812
v 0.32860971 1.31630249 0.00084812
v -0.00992326 -0.01014547 0.00084812
v 0.14838536 1.36229893 -0.32131560
v -0.19014760 0.03585097 -0.32131560
v 0.32860971 1.31630249 -0.64347932
v -0.00992326 -0.01014547 -0.64347932
v 0.68905840 1.22430961 -0.64347932
v 0.35052544 -0.10213834 -0.64347932
v 0.58848887 1.58241145 -0.32131560
v 0.94893756 1.49041857 -0.32131560
v 0.42917924 0.95820065 -0.32131560
v 0.76871322 1.53641501 0.00084812
v 0.40826452 1.62840789 0.00084812
v 0.22804018 1.67440433 -0.32131560
v 0.40826452 1.62840789 -0.64347932
v 0.76871322 1.53641501 -0.64347932
v 0.89895016 0.95393954 0.43862747
v 1.33619395 0.85179369 0.43862747
v 1.10284885 -0.14705933 0.43862747
v 0.66560505 -0.04491347 0.43862747
v 1.11757205 0.90286661 0.82748726
v 0.88422695 -0.09598640 0.82748726
v 0.68032826 1.00501247 0.82748726
v 0.44698316 0.00615945 0.82748726
v 0.46170636 1.05608540 0.43862747
v 0.22836126 0.05723238 0.43862747
v 0.68032826 1.00501247 0.04976768
v 0.44698316 0.00615945 0.04976768
v 1.11757205 0.90286661 0.04976768
v 0.88422695 -0.09598640 0.04976768
v 0.95385489 1.18896378 0.43862747
v 1.39109868 1.08681793 0.43862747
v 0.84404543 0.71891530 0.43862747
v 1.17247678 1.13789085 0.82748726
v 0.73523299 1.24003671 0.82748726
v 0.51661109 1.29110964 0.43862747
v 0.73523299 1.24003671 0.04976768
v 1.17247678 1.13789085 0.04976768
f 2 1 5
f 2 5 3
f 3 5 6
f 3 6 4
f 5 1 7
f 5 7 6
f 6 7 8
f 6 8 4
f 7 1 9
f 7 9 8
f 8 9 10
f 8 10 4
f 9 1 11
f 9 11 10
f 10 11 12
f 10 12 4
f 11 1 13
f 11 13 12
f 12 13 14
f 12 14 4
f 13 1 2
f 13 2 14
f 14 2 3
f 14 3 4
f 16 15 18
f 16 18 17
f 18 15 19
f 18 19 17
f 19 15 20
f 19 20 17
f 20 15 21
f 20 21 17
f 21 15 22
f 21 22 17
f 22 15 16
f 22 16 17
f 24 23 27
f 24 27 25
f 25 27 28
f 25 28 26
f 27 23 29
f 27 29 28
f 28 29 30
f 28 30 26
f 29 23 31
f 29 31 30
f 30 31 32
f 30 32 26
f 31 23 33
f 31 33 32
f 32 33 34
f 32 34 26
f 33 23 35
f 33 35 34
f 34 35 36
f 34 36 26
f 35 23 24
f 35 24 36
f 36 24 25
f 36 25 26
f 38 37 40
f 38 40 39
f 40 37 41
f 40 41 39
f 41 37 42
f 41 42 39
f 42 37 43
f 42 43 39
f 43 37 44
f 43 44 39
f 44 37 38
f 44 38 39
f 46 45 49
f 46 49 47
f 47 49 50
f 47 50 48
f 49 45 51
f 49 51 50
f 50 51 52
f 50 52 48
f 51 45 53
f 51 53 52
f 52 53 54
f 52 54 48
f 53 45 55
f 53 55 54
f 54 55 56
f 54 56 48
f 55 45 57
f 55 57 56
f 56 57 58
f 56 58 48
f 57 45 46
f 57 46 58
f 58 46 47
f 58 47 48
f 60 59 62
f 60 62 61
f 62 59 63
f 62 63 61
f 63 59 64
f 63 64 61
f 64 59 65
f 64 65 61
f 65 59 66
f 65 66 61
f 66 59 60
f 66 60 61
f 68 67 71
f 68 71 69
f 69 71 72
f 69 72 70
f 71 67 73
f 71 73 72
f 72 73 74
f 72 74 70
f 73 67 75
f 73 75 74
f 74 75 76
f 74 76 70
f 75 67 77
f 75 77 76
f 76 77 78
f 76 78 70
f 77 67 79
f 77 79 78
f 78 79 80
f 78 80 70
f 79 67 68
f 79 68 80
f 80 68 69
f 80 69 70
f 82 81 84
f 82 84 83
f 84 81 85
f 84 85 83
f 85 81 86
f 85 86 83
f 86 81 87
f 86 87 83
f 87 81 88
f 87 88 83
f 88 81 82
f 88 82 83

