# https://github.com/mikedh/trimesh
v -4.45270858 -0.08210848 -1.60000000
v -4.45270858 -0.08210848 1.60000000
v -4.43736215 0.13735561 -1.60000000
v -4.43736215 0.13735561 1.60000000
v -3.66263785 -0.13735561 -1.60000000
v -3.66263785 -0.13735561 1.60000000
v -3.64729142 0.08210848 -1.60000000
v -3.64729142 0.08210848 1.60000000
v -3.54600000 -0.01600077 -1.60000000
v -3.54600000 -0.01600077 1.60000000
v -3.54600000 0.20399923 -1.60000000
v -3.54600000 0.20399923 1.60000000
v -2.75400000 -0.01600077 -1.60000000
v -2.75400000 -0.01600077 1.60000000
v -2.75400000 0.20399923 -1.60000000
v -2.75400000 0.20399923 1.60000000
v -2.63736215 -0.02049389 -1.60000000
v -2.63736215 -0.02049389 1.60000000
v -2.65270858 0.19897020 -1.60000000
v -2.65270858 0.19897020 1.60000000
v -1.84729142 0.03475323 -1.60000000
v -1.84729142 0.03475323 1.60000000
v -1.86263785 0.25421732 -1.60000000
v -1.86263785 0.25421732 1.60000000
v -1.75270858 -0.03082290 -1.60000000
v -1.75270858 -0.03082290 1.60000000
v -1.73736215 0.18864119 -1.60000000
v -1.73736215 0.18864119 1.60000000
v -0.96263785 -0.08607002 -1.60000000
v -0.96263785 -0.08607002 1.60000000
v -0.94729142 0.13339407 -1.60000000
v -0.94729142 0.13339407 1.60000000
v -0.84600000 -0.16310245 -1.60000000
v -0.84600000 -0.16310245 1.60000000
v -0.84600000 0.05689755 -1.60000000
v -0.84600000 0.05689755 1.60000000
v -0.05400000 -0.16310245 -1.60000000
v -0.05400000 -0.16310245 1.60000000
v -0.05400000 0.05689755 -1.60000000
v -0.05400000 0.05689755 1.60000000
v 0.06263785 -0.25465922 -1.60000000
v 0.06263785 -0.25465922 1.60000000
v 0.04729142 -0.03519513 -1.60000000
v 0.04729142 -0.03519513 1.60000000
v 0.85270858 -0.19941210 -1.60000000
v 0.85270858 -0.19941210 1.60000000
v 0.83736215 0.02005200 -1.60000000
v 0.83736215 0.02005200 1.60000000
v 0.94729142 -0.17484022 -1.60000000
v 0.94729142 -0.17484022 1.60000000
v 0.96263785 0.04462387 -1.60000000
v 0.96263785 0.04462387 1.60000000
v 1.73736215 -0.23008735 -1.60000000
v 1.73736215 -0.23008735 1.60000000
v 1.75270858 -0.01062326 -1.60000000
v 1.75270858 -0.01062326 1.60000000
v 1.85400000 -0.10798233 -1.60000000
v 1.85400000 -0.10798233 1.60000000
v 1.85400000 0.11201767 -1.60000000
v 1.85400000 0.11201767 1.60000000
v 2.64600000 -0.10798233 -1.60000000
v 2.64600000 -0.10798233 1.60000000
v 2.64600000 0.11201767 -1.60000000
v 2.64600000 0.11201767 1.60000000
v 2.76263785 -0.04211547 -1.60000000
v 2.76263785 -0.04211547 1.60000000
v 2.74729142 0.17734863 -1.60000000
v 2.74729142 0.17734863 1.60000000
v 3.55270858 0.01313166 -1.60000000
v 3.55270858 0.01313166 1.60000000
v 3.53736215 0.23259575 -1.60000000
v 3.53736215 0.23259575 1.60000000
v 3.64729142 0.03427830 -1.60000000
v 3.64729142 0.03427830 1.60000000
v 3.66263785 0.25374239 -1.60000000
v 3.66263785 0.25374239 1.60000000
v 4.43736215 -0.02096883 -1.60000000
v 4.43736215 -0.02096883 1.60000000
v 4.45270858 0.19849526 -1.60000000
v 4.45270858 0.19849526 1.60000000
v -4.50000000 -0.15000000 -1.60000000
v -4.50000000 -0.15000000 -1.68000000
v 4.50000000 -0.15000000 -1.68000000
v 4.50000000 -0.15000000 -1.60000000
v -4.50000000 -0.09343146 -1.65656854
v 4.50000000 -0.09343146 -1.65656854
v -4.50000000 -0.07000000 -1.60000000
v 4.50000000 -0.07000000 -1.60000000
v -4.50000000 -0.09343146 -1.54343146
v 4.50000000 -0.09343146 -1.54343146
v -4.50000000 -0.15000000 -1.52000000
v 4.50000000 -0.15000000 -1.52000000
v -4.50000000 -0.20656854 -1.54343146
v 4.50000000 -0.20656854 -1.54343146
v -4.50000000 -0.23000000 -1.60000000
v 4.50000000 -0.23000000 -1.60000000
v -4.50000000 -0.20656854 -1.65656854
v 4.50000000 -0.20656854 -1.65656854
v -4.50000000 -0.15000000 1.60000000
v -4.50000000 -0.15000000 1.52000000
v 4.50000000 -0.15000000 1.52000000
v 4.50000000 -0.15000000 1.60000000
v -4.50000000 -0.09343146 1.54343146
v 4.50000000 -0.09343146 1.54343146
v -4.50000000 -0.07000000 1.60000000
v 4.50000000 -0.07000000 1.60000000
v -4.50000000 -0.09343146 1.65656854
v 4.50000000 -0.09343146 1.65656854
v -4.50000000 -0.15000000 1.68000000
v 4.50000000 -0.15000000 1.68000000
v -4.50000000 -0.20656854 1.65656854
v 4.50000000 -0.20656854 1.65656854
v -4.50000000 -0.23000000 1.60000000
v 4.50000000 -0.23000000 1.60000000
v -4.50000000 -0.20656854 1.54343146
v 4.50000000 -0.20656854 1.54343146
f 2 4 1
f 5 2 1
f 1 4 3
f 3 5 1
f 2 8 4
f 6 2 5
f 6 8 2
f 4 8 3
f 7 5 3
f 3 8 7
f 7 6 5
f 8 6 7
f 10 12 9
f 13 10 9
f 9 12 11
f 11 13 9
f 10 16 12
f 14 10 13
f 14 16 10
f 12 16 11
f 15 13 11
f 11 16 15
f 15 14 13
f 16 14 15
f 18 20 17
f 21 18 17
f 17 20 19
f 19 21 17
f 18 24 20
f 22 18 21
f 22 24 18
f 20 24 19
f 23 21 19
f 19 24 23
f 23 22 21
f 24 22 23
f 26 28 25
f 29 26 25
f 25 28 27
f 27 29 25
f 26 32 28
f 30 26 29
f 30 32 26
f 28 32 27
f 31 29 27
f 27 32 31
f 31 30 29
f 32 30 31
f 34 36 33
f 37 34 33
f 33 36 35
f 35 37 33
f 34 40 36
f 38 34 37
f 38 40 34
f 36 40 35
f 39 37 35
f 35 40 39
f 39 38 37
f 40 38 39
f 42 44 41
f 45 42 41
f 41 44 43
f 43 45 41
f 42 48 44
f 46 42 45
f 46 48 42
f 44 48 43
f 47 45 43
f 43 48 47
f 47 46 45
f 48 46 47
f 50 52 49
f 53 50 49
f 49 52 51
f 51 53 49
f 50 56 52
f 54 50 53
f 54 56 50
f 52 56 51
f 55 53 51
f 51 56 55
f 55 54 53
f 56 54 55
f 58 60 57
f 61 58 57
f 57 60 59
f 59 61 57
f 58 64 60
f 62 58 61
f 62 64 58
f 60 64 59
f 63 61 59
f 59 64 63
f 63 62 61
f 64 62 63
f 66 68 65
f 69 66 65
f 65 68 67
f 67 69 65
f 66 72 68
f 70 66 69
f 70 72 66
f 68 72 67
f 71 69 67
f 67 72 71
f 71 70 69
f 72 70 71
f 74 76 73
f 77 74 73
f 73 76 75
f 75 77 73
f 74 80 76
f 78 74 77
f 78 80 74
f 76 80 75
f 79 77 75
f 75 80 79
f 79 78 77
f 80 78 79
f 82 81 85
f 82 85 83
f 83 85 86
f 83 86 84
f 85 81 87
f 85 87 86
f 86 87 88
f 86 88 84
f 87 81 89
f 87 89 88
f 88 89 90
f 88 90 84
f 89 81 91
f 89 91 90
f 90 91 92
f 90 92 84
f 91 81 93
f 91 93 92
f 92 93 94
f 92 94 84
f 93 81 95
f 93 95 94
f 94 95 96
f 94 96 84
f 95 81 97
f 95 97 96
f 96 97 98
f 96 98 84
f 97 81 82
f 97 82 98
f 98 82 83
f 98 83 84
f 100 99 103
f 100 103 101
f 101 103 104
f 101 104 102
f 103 99 105
f 103 105 104
f 104 105 106
f 104 106 102
f 105 99 107
f 105 107 106
f 106 107 108
f 106 108 102
f 107 99 109
f 107 109 108
f 108 109 110
f 108 110 102
f 109 99 111
f 109 111 110
f 110 111 112
f 110 112 102
f 111 99 113
f 111 113 112
f 112 113 114
f 112 114 102
f 113 99 115
f 113 115 114
f 114 115 116
f 114 116 102
f 115 99 100
f 115 100 116
f 116 100 101
f 116 101 102

