# https://github.com/mikedh/trimesh
v -1.24257310 1.60298324 -0.28581300
v 1.65165048 1.39732796 -0.12799657
v -1.47491912 -1.54650561 -0.03578326
v 1.48110462 -1.32647742 0.10212576
v -0.33896168 -1.07482333 1.94991012
v 0.19377707 1.15564058 1.89487215
v -0.20487827 -0.69780037 -1.60075853
v 0.04296499 0.75923306 -1.70085678
v 2.09722728 0.11781463 -1.03154271
v 2.44357620 -0.10223212 1.12683863
v -2.02685855 -0.11409269 -1.24046479
v -1.92391112 0.06830214 1.02546139
v 0.07887348 1.56085459 0.03813571
v -0.12102534 -1.62507992 0.15777431
v -0.84046853 -1.22270790 0.83452811
v 0.71484433 -1.51502406 0.98390623
v -0.75681167 1.30883937 0.95717189
v 1.04058142 1.52281870 0.80549904
v 0.23482290 -0.22744519 1.88248332
v -0.80723161 -1.32021804 -1.16758667
v 0.62804873 -1.32475974 -1.11094764
v -0.90078264 1.42282482 -0.85092463
v 0.76053148 1.33728017 -1.00313570
v -0.09089766 -0.06750390 -2.16603913
v 2.15222023 0.81389092 -0.64002429
v 2.06265101 -0.75495092 -0.39066847
v 1.19529084 -0.56283278 -1.58594223
v 1.08089947 0.67783882 -1.46983495
v 2.16132744 0.80921083 0.73636714
v 2.23258343 -0.75901241 0.57323675
v 0.91298540 -0.38487901 1.56151383
v 1.08135312 0.62743703 1.67214142
v 2.21623271 -0.01307346 -0.04307745
v -1.82402012 0.57484392 -0.67972371
v -2.05019231 -0.63770515 -0.79137637
v -1.83808639 -0.69256978 -1.57594283
v -1.08808158 0.73870566 -1.55388437
v -2.18300455 0.94173943 0.61626475
v -2.06273407 -0.82268306 0.82196616
v -1.43028827 -0.64503644 1.60739045
v -1.26331399 0.40236950 1.47732095
v -2.42446817 0.17659424 0.11407870
f 1 38 17
f 38 12 41
f 17 41 6
f 38 41 17
f 1 17 13
f 17 6 18
f 13 18 2
f 17 18 13
f 1 13 22
f 13 2 23
f 22 23 8
f 13 23 22
f 1 22 34
f 22 8 37
f 34 37 11
f 22 37 34
f 1 34 38
f 34 11 42
f 38 42 12
f 34 42 38
f 2 18 29
f 18 6 32
f 29 32 10
f 18 32 29
f 6 41 19
f 41 12 40
f 19 40 5
f 41 40 19
f 12 42 39
f 42 11 35
f 39 35 3
f 42 35 39
f 11 37 36
f 37 8 24
f 36 24 7
f 37 24 36
f 8 23 28
f 23 2 25
f 28 25 9
f 23 25 28
f 4 30 16
f 30 10 31
f 16 31 5
f 30 31 16
f 4 16 14
f 16 5 15
f 14 15 3
f 16 15 14
f 4 14 21
f 14 3 20
f 21 20 7
f 14 20 21
f 4 21 26
f 21 7 27
f 26 27 9
f 21 27 26
f 4 26 30
f 26 9 33
f 30 33 10
f 26 33 30
f 5 31 19
f 31 10 32
f 19 32 6
f 31 32 19
f 3 15 39
f 15 5 40
f 39 40 12
f 15 40 39
f 7 20 36
f 20 3 35
f 36 35 11
f 20 35 36
f 9 27 28
f 27 7 24
f 28 24 8
f 27 24 28
f 10 33 29
f 33 9 25
f 29 25 2
f 33 25 29

