# https://github.com/mikedh/trimesh
v 2.62000000 3.00000000 0.00000000
v 2.53716776 2.82799707 0.00000000
v 2.35104539 2.78551586 0.00000000
v 2.20178685 2.90454558 0.00000000
v 2.20178685 3.09545442 -0.00000000
v 2.35104539 3.21448414 -0.00000000
v 2.53716776 3.17200293 -0.00000000
v 2.46199467 3.00000000 0.89609278
v 2.38415782 2.82799707 0.86776248
v 2.20926001 2.78551586 0.80410488
v 2.06900285 2.90454558 0.75305545
v 2.06900285 3.09545442 0.75305545
v 2.20926001 3.21448414 0.80410488
v 2.38415782 3.17200293 0.86776248
v 2.00703644 3.00000000 1.68410354
v 1.94358326 2.82799707 1.63086000
v 1.80100526 2.78551586 1.51122285
v 1.68666658 2.90454558 1.41528131
v 1.68666658 3.09545442 1.41528131
v 1.80100526 3.21448414 1.51122285
v 1.94358326 3.17200293 1.63086000
v 1.31000000 3.00000000 2.26898656
v 1.26858388 2.82799707 2.19725173
v 1.17552270 2.78551586 2.03606504
v 1.10089342 2.90454558 1.90680335
v 1.10089342 3.09545442 1.90680335
v 1.17552270 3.21448414 2.03606504
v 1.26858388 3.17200293 2.19725173
v 0.45495823 3.00000000 2.58019631
v 0.44057456 2.82799707 2.49862248
v 0.40825475 2.78551586 2.31532773
v 0.38233627 2.90454558 2.16833676
v 0.38233627 3.09545442 2.16833676
v 0.40825475 3.21448414 2.31532773
v 0.44057456 3.17200293 2.49862248
v -0.45495823 3.00000000 2.58019631
v -0.44057456 2.82799707 2.49862248
v -0.40825475 2.78551586 2.31532773
v -0.38233627 2.90454558 2.16833676
v -0.38233627 3.09545442 2.16833676
v -0.40825475 3.21448414 2.31532773
v -0.44057456 3.17200293 2.49862248
v -1.31000000 3.00000000 2.26898656
v -1.26858388 2.82799707 2.19725173
v -1.17552270 2.78551586 2.03606504
v -1.10089342 2.90454558 1.90680335
v -1.10089342 3.09545442 1.90680335
v -1.17552270 3.21448414 2.03606504
v -1.26858388 3.17200293 2.19725173
v -2.00703644 3.00000000 1.68410354
v -1.94358326 2.82799707 1.63086000
v -1.80100526 2.78551586 1.51122285
v -1.68666658 2.90454558 1.41528131
v -1.68666658 3.09545442 1.41528131
v -1.80100526 3.21448414 1.51122285
v -1.94358326 3.17200293 1.63086000
v -2.46199467 3.00000000 0.89609278
v -2.38415782 2.82799707 0.86776248
v -2.20926001 2.78551586 0.80410488
v -2.06900285 2.90454558 0.75305545
v -2.06900285 3.09545442 0.75305545
v -2.20926001 3.21448414 0.80410488
v -2.38415782 3.17200293 0.86776248
v -2.62000000 3.00000000 0.00000000
v -2.53716776 2.82799707 0.00000000
v -2.35104539 2.78551586 0.00000000
v -2.20178685 2.90454558 0.00000000
v -2.20178685 3.09545442 0.00000000
v -2.35104539 3.21448414 0.00000000
v -2.53716776 3.17200293 0.00000000
v -2.46199467 3.00000000 -0.89609278
v -2.38415782 2.82799707 -0.86776248
v -2.20926001 2.78551586 -0.80410488
v -2.06900285 2.90454558 -0.75305545
v -2.06900285 3.09545442 -0.75305545
v -2.20926001 3.21448414 -0.80410488
v -2.38415782 3.17200293 -0.86776248
v -2.00703644 3.00000000 -1.68410354
v -1.94358326 2.82799707 -1.63086000
v -1.80100526 2.78551586 -1.51122285
v -1.68666658 2.90454558 -1.41528131
v -1.68666658 3.09545442 -1.41528131
v -1.80100526 3.21448414 -1.51122285
v -1.94358326 3.17200293 -1.63086000
v -1.31000000 3.00000000 -2.26898656
v -1.26858388 2.82799707 -2.19725173
v -1.17552270 2.78551586 -2.03606504
v -1.10089342 2.90454558 -1.90680335
v -1.10089342 3.09545442 -1.90680335
v -1.17552270 3.21448414 -2.03606504
v -1.26858388 3.17200293 -2.19725173
v -0.45495823 3.00000000 -2.58019631
v -0.44057456 2.82799707 -2.49862248
v -0.40825475 2.78551586 -2.31532773
v -0.38233627 2.90454558 -2.16833676
v -0.38233627 3.09545442 -2.16833676
v -0.40825475 3.21448414 -2.31532773
v -0.44057456 3.17200293 -2.49862248
v 0.45495823 3.00000000 -2.58019631
v 0.44057456 2.82799707 -2.49862248
v 0.40825475 2.78551586 -2.31532773
v 0.38233627 2.90454558 -2.16833676
v 0.38233627 3.09545442 -2.16833676
v 0.40825475 3.21448414 -2.31532773
v 0.44057456 3.17200293 -2.49862248
v 1.31000000 3.00000000 -2.26898656
v 1.26858388 2.82799707 -2.19725173
v 1.17552270 2.78551586 -2.03606504
v 1.10089342 2.90454558 -1.90680335
v 1.10089342 3.09545442 -1.90680335
v 1.17552270 3.21448414 -2.03606504
v 1.26858388 3.17200293 -2.19725173
v 2.00703644 3.00000000 -1.68410354
v 1.94358326 2.82799707 -1.63086000
v 1.80100526 2.78551586 -1.51122285
v 1.68666658 2.90454558 -1.41528131
v 1.68666658 3.09545442 -1.41528131
v 1.80100526 3.21448414 -1.51122285
v 1.94358326 3.17200293 -1.63086000
v 2.46199467 3.00000000 -0.89609278
v 2.38415782 2.82799707 -0.86776248
v 2.20926001 2.78551586 -0.80410488
v 2.06900285 2.90454558 -0.75305545
v 2.06900285 3.09545442 -0.75305545
v 2.20926001 3.21448414 -0.80410488
v 2.38415782 3.17200293 -0.86776248
v 0.00000000 3.00000000 -1.65000000
v 0.11727472 3.00000000 -1.59352347
v 0.14623919 3.00000000 -1.46662186
v 0.06508256 3.00000000 -1.36485467
v -0.06508256 3.00000000 -1.36485467
v -0.14623919 3.00000000 -1.46662186
v -0.11727472 3.00000000 -1.59352347
v 0.00000000 3.56433324 -1.55049282
v 0.11727472 3.54501713 -1.49742225
v 0.14623919 3.50161422 -1.37817374
v 0.06508256 3.46680779 -1.28254386
v -0.06508256 3.46680779 -1.28254386
v -0.14623919 3.50161422 -1.37817374
v -0.11727472 3.54501713 -1.49742225
v 0.00000000 4.06059956 -1.26397333
v 0.11727472 4.02429714 -1.22070980
v 0.14623919 3.94272636 -1.12349753
v 0.06508256 3.87731167 -1.04553934
v -0.06508256 3.87731167 -1.04553934
v -0.14623919 3.94272636 -1.12349753
v -0.11727472 4.02429714 -1.22070980
v 0.00000000 4.42894192 -0.82500000
v 0.11727472 4.38003181 -0.79676174
v 0.14623919 4.27013179 -0.73331093
v 0.06508256 4.18199882 -0.68242733
v -0.06508256 4.18199882 -0.68242733
v -0.14623919 4.27013179 -0.73331093
v -0.11727472 4.38003181 -0.79676174
v 0.00000000 4.62493279 -0.28651949
v 0.11727472 4.56931427 -0.27671245
v 0.14623919 4.44434058 -0.25467621
v 0.06508256 4.34411946 -0.23700453
v -0.06508256 4.34411946 -0.23700453
v -0.14623919 4.44434058 -0.25467621
v -0.11727472 4.56931427 -0.27671245
v -0.00000000 4.62493279 0.28651949
v 0.11727472 4.56931427 0.27671245
v 0.14623919 4.44434058 0.25467621
v 0.06508256 4.34411946 0.23700453
v -0.06508256 4.34411946 0.23700453
v -0.14623919 4.44434058 0.25467621
v -0.11727472 4.56931427 0.27671245
v -0.00000000 4.42894192 0.82500000
v 0.11727472 4.38003181 0.79676174
v 0.14623919 4.27013179 0.73331093
v 0.06508256 4.18199882 0.68242733
v -0.06508256 4.18199882 0.68242733
v -0.14623919 4.27013179 0.73331093
v -0.11727472 4.38003181 0.79676174
v -0.00000000 4.06059956 1.26397333
v 0.11727472 4.02429714 1.22070980
v 0.14623919 3.94272636 1.12349753
v 0.06508256 3.87731167 1.04553934
v -0.06508256 3.87731167 1.04553934
v -0.14623919 3.94272636 1.12349753
v -0.11727472 4.02429714 1.22070980
v -0.00000000 3.56433324 1.55049282
v 0.11727472 3.54501713 1.49742225
v 0.14623919 3.50161422 1.37817374
v 0.06508256 3.46680779 1.28254386
v -0.06508256 3.46680779 1.28254386
v -0.14623919 3.50161422 1.37817374
v -0.11727472 3.54501713 1.49742225
v -0.00000000 3.00000000 1.65000000
v 0.11727472 3.00000000 1.59352347
v 0.14623919 3.00000000 1.46662186
v 0.06508256 3.00000000 1.36485467
v -0.06508256 3.00000000 1.36485467
v -0.14623919 3.00000000 1.46662186
v -0.11727472 3.00000000 1.59352347
v -0.00000000 2.43566676 1.55049282
v 0.11727472 2.45498287 1.49742225
v 0.14623919 2.49838578 1.37817374
v 0.06508256 2.53319221 1.28254386
v -0.06508256 2.53319221 1.28254386
v -0.14623919 2.49838578 1.37817374
v -0.11727472 2.45498287 1.49742225
v -0.00000000 1.93940044 1.26397333
v 0.11727472 1.97570286 1.22070980
v 0.14623919 2.05727364 1.12349753
v 0.06508256 2.12268833 1.04553934
v -0.06508256 2.12268833 1.04553934
v -0.14623919 2.05727364 1.12349753
v -0.11727472 1.97570286 1.22070980
v -0.00000000 1.57105808 0.82500000
v 0.11727472 1.61996819 0.79676174
v 0.14623919 1.72986821 0.73331093
v 0.06508256 1.81800118 0.68242733
v -0.06508256 1.81800118 0.68242733
v -0.14623919 1.72986821 0.73331093
v -0.11727472 1.61996819 0.79676174
v -0.00000000 1.37506721 0.28651949
v 0.11727472 1.43068573 0.27671245
v 0.14623919 1.55565942 0.25467621
v 0.06508256 1.65588054 0.23700453
v -0.06508256 1.65588054 0.23700453
v -0.14623919 1.55565942 0.25467621
v -0.11727472 1.43068573 0.27671245
v 0.00000000 1.37506721 -0.28651949
v 0.11727472 1.43068573 -0.27671245
v 0.14623919 1.55565942 -0.25467621
v 0.06508256 1.65588054 -0.23700453
v -0.06508256 1.65588054 -0.23700453
v -0.14623919 1.55565942 -0.25467621
v -0.11727472 1.43068573 -0.27671245
v 0.00000000 1.57105808 -0.82500000
v 0.11727472 1.61996819 -0.79676174
v 0.14623919 1.72986821 -0.73331093
v 0.06508256 1.81800118 -0.68242733
v -0.06508256 1.81800118 -0.68242733
v -0.14623919 1.72986821 -0.73331093
v -0.11727472 1.61996819 -0.79676174
v 0.00000000 1.93940044 -1.26397333
v 0.11727472 1.97570286 -1.22070980
v 0.14623919 2.05727364 -1.12349753
v 0.06508256 2.12268833 -1.04553934
v -0.06508256 2.12268833 -1.04553934
v -0.14623919 2.05727364 -1.12349753
v -0.11727472 1.97570286 -1.22070980
v 0.00000000 2.43566676 -1.55049282
v 0.11727472 2.45498287 -1.49742225
v 0.14623919 2.49838578 -1.37817374
v 0.06508256 2.53319221 -1.28254386
v -0.06508256 2.53319221 -1.28254386
v -0.14623919 2.49838578 -1.37817374
v -0.11727472 2.45498287 -1.49742225
v -0.23657900 3.38279286 0.00000000
v 0.23657900 3.38279286 0.00000000
v -0.23657900 2.61720714 0.00000000
v 0.23657900 2.61720714 0.00000000
v 0.00000000 2.76342100 0.38279286
v 0.00000000 3.23657900 0.38279286
v 0.00000000 2.76342100 -0.38279286
v 0.00000000 3.23657900 -0.38279286
v 0.38279286 3.00000000 -0.23657900
v 0.38279286 3.00000000 0.23657900
v -0.38279286 3.00000000 -0.23657900
v -0.38279286 3.00000000 0.23657900
v 0.00000000 3.45000000 0.00000000
v 0.00000000 2.55000000 0.00000000
v -0.13905765 2.63594235 0.22500000
v 0.13905765 2.63594235 0.22500000
v -0.13905765 3.36405765 0.22500000
v 0.13905765 3.36405765 0.22500000
v 0.00000000 3.00000000 0.45000000
v -0.13905765 2.63594235 -0.22500000
v 0.13905765 2.63594235 -0.22500000
v -0.13905765 3.36405765 -0.22500000
v 0.13905765 3.36405765 -0.22500000
v 0.00000000 3.00000000 -0.45000000
v 0.36405765 3.22500000 -0.13905765
v 0.36405765 2.77500000 -0.13905765
v 0.22500000 2.86094235 -0.36405765
v 0.22500000 3.13905765 -0.36405765
v 0.36405765 3.22500000 0.13905765
v 0.36405765 2.77500000 0.13905765
v 0.22500000 2.86094235 0.36405765
v 0.22500000 3.13905765 0.36405765
v 0.45000000 3.00000000 0.00000000
v -0.36405765 3.22500000 -0.13905765
v -0.36405765 2.77500000 -0.13905765
v -0.22500000 2.86094235 -0.36405765
v -0.22500000 3.13905765 -0.36405765
v -0.36405765 3.22500000 0.13905765
v -0.36405765 2.77500000 0.13905765
v -0.22500000 2.86094235 0.36405765
v -0.22500000 3.13905765 0.36405765
v -0.45000000 3.00000000 0.00000000
f 1 8 2
f 2 8 9
f 2 9 3
f 3 9 10
f 3 10 4
f 4 10 11
f 4 11 5
f 5 11 12
f 5 12 6
f 6 12 13
f 6 13 7
f 7 13 14
f 7 14 1
f 1 14 8
f 8 15 9
f 9 15 16
f 9 16 10
f 10 16 17
f 10 17 11
f 11 17 18
f 11 18 12
f 12 18 19
f 12 19 13
f 13 19 20
f 13 20 14
f 14 20 21
f 14 21 8
f 8 21 15
f 15 22 16
f 16 22 23
f 16 23 17
f 17 23 24
f 17 24 18
f 18 24 25
f 18 25 19
f 19 25 26
f 19 26 20
f 20 26 27
f 20 27 21
f 21 27 28
f 21 28 15
f 15 28 22
f 22 29 23
f 23 29 30
f 23 30 24
f 24 30 31
f 24 31 25
f 25 31 32
f 25 32 26
f 26 32 33
f 26 33 27
f 27 33 34
f 27 34 28
f 28 34 35
f 28 35 22
f 22 35 29
f 29 36 30
f 30 36 37
f 30 37 31
f 31 37 38
f 31 38 32
f 32 38 39
f 32 39 33
f 33 39 40
f 33 40 34
f 34 40 41
f 34 41 35
f 35 41 42
f 35 42 29
f 29 42 36
f 36 43 37
f 37 43 44
f 37 44 38
f 38 44 45
f 38 45 39
f 39 45 46
f 39 46 40
f 40 46 47
f 40 47 41
f 41 47 48
f 41 48 42
f 42 48 49
f 42 49 36
f 36 49 43
f 43 50 44
f 44 50 51
f 44 51 45
f 45 51 52
f 45 52 46
f 46 52 53
f 46 53 47
f 47 53 54
f 47 54 48
f 48 54 55
f 48 55 49
f 49 55 56
f 49 56 43
f 43 56 50
f 50 57 51
f 51 57 58
f 51 58 52
f 52 58 59
f 52 59 53
f 53 59 60
f 53 60 54
f 54 60 61
f 54 61 55
f 55 61 62
f 55 62 56
f 56 62 63
f 56 63 50
f 50 63 57
f 57 64 58
f 58 64 65
f 58 65 59
f 59 65 66
f 59 66 60
f 60 66 67
f 60 67 61
f 61 67 68
f 61 68 62
f 62 68 69
f 62 69 63
f 63 69 70
f 63 70 57
f 57 70 64
f 64 71 65
f 65 71 72
f 65 72 66
f 66 72 73
f 66 73 67
f 67 73 74
f 67 74 68
f 68 74 75
f 68 75 69
f 69 75 76
f 69 76 70
f 70 76 77
f 70 77 64
f 64 77 71
f 71 78 72
f 72 78 79
f 72 79 73
f 73 79 80
f 73 80 74
f 74 80 81
f 74 81 75
f 75 81 82
f 75 82 76
f 76 82 83
f 76 83 77
f 77 83 84
f 77 84 71
f 71 84 78
f 78 85 79
f 79 85 86
f 79 86 80
f 80 86 87
f 80 87 81
f 81 87 88
f 81 88 82
f 82 88 89
f 82 89 83
f 83 89 90
f 83 90 84
f 84 90 91
f 84 91 78
f 78 91 85
f 85 92 86
f 86 92 93
f 86 93 87
f 87 93 94
f 87 94 88
f 88 94 95
f 88 95 89
f 89 95 96
f 89 96 90
f 90 96 97
f 90 97 91
f 91 97 98
f 91 98 85
f 85 98 92
f 92 99 93
f 93 99 100
f 93 100 94
f 94 100 101
f 94 101 95
f 95 101 102
f 95 102 96
f 96 102 103
f 96 103 97
f 97 103 104
f 97 104 98
f 98 104 105
f 98 105 92
f 92 105 99
f 99 106 100
f 100 106 107
f 100 107 101
f 101 107 108
f 101 108 102
f 102 108 109
f 102 109 103
f 103 109 110
f 103 110 104
f 104 110 111
f 104 111 105
f 105 111 112
f 105 112 99
f 99 112 106
f 106 113 107
f 107 113 114
f 107 114 108
f 108 114 115
f 108 115 109
f 109 115 116
f 109 116 110
f 110 116 117
f 110 117 111
f 111 117 118
f 111 118 112
f 112 118 119
f 112 119 106
f 106 119 113
f 113 120 114
f 114 120 121
f 114 121 115
f 115 121 122
f 115 122 116
f 116 122 123
f 116 123 117
f 117 123 124
f 117 124 118
f 118 124 125
f 118 125 119
f 119 125 126
f 119 126 113
f 113 126 120
f 120 1 121
f 121 1 2
f 121 2 122
f 122 2 3
f 122 3 123
f 123 3 4
f 123 4 124
f 124 4 5
f 124 5 125
f 125 5 6
f 125 6 126
f 126 6 7
f 126 7 120
f 120 7 1
f 127 134 128
f 128 134 135
f 128 135 129
f 129 135 136
f 129 136 130
f 130 136 137
f 130 137 131
f 131 137 138
f 131 138 132
f 132 138 139
f 132 139 133
f 133 139 140
f 133 140 127
f 127 140 134
f 134 141 135
f 135 141 142
f 135 142 136
f 136 142 143
f 136 143 137
f 137 143 144
f 137 144 138
f 138 144 145
f 138 145 139
f 139 145 146
f 139 146 140
f 140 146 147
f 140 147 134
f 134 147 141
f 141 148 142
f 142 148 149
f 142 149 143
f 143 149 150
f 143 150 144
f 144 150 151
f 144 151 145
f 145 151 152
f 145 152 146
f 146 152 153
f 146 153 147
f 147 153 154
f 147 154 141
f 141 154 148
f 148 155 149
f 149 155 156
f 149 156 150
f 150 156 157
f 150 157 151
f 151 157 158
f 151 158 152
f 152 158 159
f 152 159 153
f 153 159 160
f 153 160 154
f 154 160 161
f 154 161 148
f 148 161 155
f 155 162 156
f 156 162 163
f 156 163 157
f 157 163 164
f 157 164 158
f 158 164 165
f 158 165 159
f 159 165 166
f 159 166 160
f 160 166 167
f 160 167 161
f 161 167 168
f 161 168 155
f 155 168 162
f 162 169 163
f 163 169 170
f 163 170 164
f 164 170 171
f 164 171 165
f 165 171 172
f 165 172 166
f 166 172 173
f 166 173 167
f 167 173 174
f 167 174 168
f 168 174 175
f 168 175 162
f 162 175 169
f 169 176 170
f 170 176 177
f 170 177 171
f 171 177 178
f 171 178 172
f 172 178 179
f 172 179 173
f 173 179 180
f 173 180 174
f 174 180 181
f 174 181 175
f 175 181 182
f 175 182 169
f 169 182 176
f 176 183 177
f 177 183 184
f 177 184 178
f 178 184 185
f 178 185 179
f 179 185 186
f 179 186 180
f 180 186 187
f 180 187 181
f 181 187 188
f 181 188 182
f 182 188 189
f 182 189 176
f 176 189 183
f 183 190 184
f 184 190 191
f 184 191 185
f 185 191 192
f 185 192 186
f 186 192 193
f 186 193 187
f 187 193 194
f 187 194 188
f 188 194 195
f 188 195 189
f 189 195 196
f 189 196 183
f 183 196 190
f 190 197 191
f 191 197 198
f 191 198 192
f 192 198 199
f 192 199 193
f 193 199 200
f 193 200 194
f 194 200 201
f 194 201 195
f 195 201 202
f 195 202 196
f 196 202 203
f 196 203 190
f 190 203 197
f 197 204 198
f 198 204 205
f 198 205 199
f 199 205 206
f 199 206 200
f 200 206 207
f 200 207 201
f 201 207 208
f 201 208 202
f 202 208 209
f 202 209 203
f 203 209 210
f 203 210 197
f 197 210 204
f 204 211 205
f 205 211 212
f 205 212 206
f 206 212 213
f 206 213 207
f 207 213 214
f 207 214 208
f 208 214 215
f 208 215 209
f 209 215 216
f 209 216 210
f 210 216 217
f 210 217 204
f 204 217 211
f 211 218 212
f 212 218 219
f 212 219 213
f 213 219 220
f 213 220 214
f 214 220 221
f 214 221 215
f 215 221 222
f 215 222 216
f 216 222 223
f 216 223 217
f 217 223 224
f 217 224 211
f 211 224 218
f 218 225 219
f 219 225 226
f 219 226 220
f 220 226 227
f 220 227 221
f 221 227 228
f 221 228 222
f 222 228 229
f 222 229 223
f 223 229 230
f 223 230 224
f 224 230 231
f 224 231 218
f 218 231 225
f 225 232 226
f 226 232 233
f 226 233 227
f 227 233 234
f 227 234 228
f 228 234 235
f 228 235 229
f 229 235 236
f 229 236 230
f 230 236 237
f 230 237 231
f 231 237 238
f 231 238 225
f 225 238 232
f 232 239 233
f 233 239 240
f 233 240 234
f 234 240 241
f 234 241 235
f 235 241 242
f 235 242 236
f 236 242 243
f 236 243 237
f 237 243 244
f 237 244 238
f 238 244 245
f 238 245 232
f 232 245 239
f 239 246 240
f 240 246 247
f 240 247 241
f 241 247 248
f 241 248 242
f 242 248 249
f 242 249 243
f 243 249 250
f 243 250 244
f 244 250 251
f 244 251 245
f 245 251 252
f 245 252 239
f 239 252 246
f 246 127 247
f 247 127 128
f 247 128 248
f 248 128 129
f 248 129 249
f 249 129 130
f 249 130 250
f 250 130 131
f 250 131 251
f 251 131 132
f 251 132 252
f 252 132 133
f 252 133 246
f 246 133 127
f 253 290 269
f 290 264 293
f 269 293 258
f 290 293 269
f 253 269 265
f 269 258 270
f 265 270 254
f 269 270 265
f 253 265 274
f 265 254 275
f 274 275 260
f 265 275 274
f 253 274 286
f 274 260 289
f 286 289 263
f 274 289 286
f 253 286 290
f 286 263 294
f 290 294 264
f 286 294 290
f 254 270 281
f 270 258 284
f 281 284 262
f 270 284 281
f 258 293 271
f 293 264 292
f 271 292 257
f 293 292 271
f 264 294 291
f 294 263 287
f 291 287 255
f 294 287 291
f 263 289 288
f 289 260 276
f 288 276 259
f 289 276 288
f 260 275 280
f 275 254 277
f 280 277 261
f 275 277 280
f 256 282 268
f 282 262 283
f 268 283 257
f 282 283 268
f 256 268 266
f 268 257 267
f 266 267 255
f 268 267 266
f 256 266 273
f 266 255 272
f 273 272 259
f 266 272 273
f 256 273 278
f 273 259 279
f 278 279 261
f 273 279 278
f 256 278 282
f 278 261 285
f 282 285 262
f 278 285 282
f 257 283 271
f 283 262 284
f 271 284 258
f 283 284 271
f 255 267 291
f 267 257 292
f 291 292 264
f 267 292 291
f 259 272 288
f 272 255 287
f 288 287 263
f 272 287 288
f 261 279 280
f 279 259 276
f 280 276 260
f 279 276 280
f 262 285 281
f 285 261 277
f 281 277 254
f 285 277 281

