# https://github.com/mikedh/trimesh
v -1.37217595 1.24136844 0.01219873
v 1.50222936 1.27834557 -0.16744985
v -1.41511181 -1.09810482 -0.05326230
v 1.03449866 -1.35599262 0.04533752
v 0.05512360 -0.58386744 1.58714415
v -0.29676398 1.00198187 1.65986198
v 0.05760037 -0.89908301 -1.77365288
v 0.30350776 0.62668641 -1.71049564
v 1.82136346 0.17901814 -0.94990245
v 1.90557320 0.08843556 1.29445380
v -2.22640716 -0.11079751 -0.93809492
v -1.99497597 -0.14084997 0.90185724
v -0.00369781 1.65715012 -0.22605140
v 0.12903615 -1.48703615 0.31295266
v -1.20190701 -1.29631455 0.89005637
v 1.03687813 -1.40038250 0.86584581
v -0.69074288 1.33223353 1.02720195
v 0.49239144 1.50140043 0.84423232
v 0.08861642 0.12323957 1.84595232
v -0.63360569 -1.44482918 -0.96850628
v 0.63663442 -1.45007796 -1.05793788
v -0.94676017 1.37537852 -1.08078555
v 0.43034941 1.22569168 -1.00668648
v 0.51576274 0.23127797 -1.87369285
v 1.78159862 1.07225070 -0.54283044
v 1.59371791 -0.72402840 -0.86434674
v 1.45017922 -0.42693858 -1.72596317
v 1.07030905 0.18587371 -1.26234547
v 1.95345185 0.85938764 0.79461928
v 1.85094063 -0.85558648 0.50281242
v 1.25526645 -0.59606564 1.47293784
v 1.24993159 0.49293917 1.43738655
v 2.16553616 -0.08114549 0.09982784
v -1.67199852 0.92463407 -0.63814293
v -1.81293989 -0.72630508 -0.34410840
v -1.36731361 -0.32129156 -1.47465961
v -1.23203268 0.81163987 -1.23423620
v -2.26541248 0.79235676 0.70980099
v -1.70790894 -0.93747641 0.66072566
v -1.15207446 -0.58321697 1.66894336
v -1.30977924 0.47322792 1.37537350
v -2.30362359 0.06710617 -0.05285282
f 1 38 17
f 38 12 41
f 17 41 6
f 38 41 17
f 1 17 13
f 17 6 18
f 13 18 2
f 17 18 13
f 1 13 22
f 13 2 23
f 22 23 8
f 13 23 22
f 1 22 34
f 22 8 37
f 34 37 11
f 22 37 34
f 1 34 38
f 34 11 42
f 38 42 12
f 34 42 38
f 2 18 29
f 18 6 32
f 29 32 10
f 18 32 29
f 6 41 19
f 41 12 40
f 19 40 5
f 41 40 19
f 12 42 39
f 42 11 35
f 39 35 3
f 42 35 39
f 11 37 36
f 37 8 24
f 36 24 7
f 37 24 36
f 8 23 28
f 23 2 25
f 28 25 9
f 23 25 28
f 4 30 16
f 30 10 31
f 16 31 5
f 30 31 16
f 4 16 14
f 16 5 15
f 14 15 3
f 16 15 14
f 4 14 21
f 14 3 20
f 21 20 7
f 14 20 21
f 4 21 26
f 21 7 27
f 26 27 9
f 21 27 26
f 4 26 30
f 26 9 33
f 30 33 10
f 26 33 30
f 5 31 19
f 31 10 32
f 19 32 6
f 31 32 19
f 3 15 39
f 15 5 40
f 39 40 12
f 15 40 39
f 7 20 36
f 20 3 35
f 36 35 11
f 20 35 36
f 9 27 28
f 27 7 24
f 28 24 8
f 27 24 28
f 10 33 29
f 33 9 25
f 29 25 2
f 33 25 29

