# https://github.com/mikedh/trimesh
v -1.42033711 1.34857946 -0.00970536
v 1.24363684 1.35861682 0.10122513
v -1.22537220 -1.29639156 -0.17287309
v 1.37274164 -1.35887230 0.15047563
v 0.25213131 -1.01732918 1.81836273
v -0.13074819 0.68622168 1.58091394
v 0.05744294 -0.68977832 -1.18723073
v -0.28097457 0.76944218 -1.55905270
v 1.93936806 -0.21320335 -1.03350496
v 2.03637868 0.04870264 0.93932418
v -1.78234730 0.02711498 -0.87813948
v -2.23927110 -0.31637758 1.11753602
v 0.06948749 1.63675349 0.02337703
v -0.05794168 -1.57924591 0.15630926
v -0.88342124 -1.28745172 0.94749782
v 0.80779867 -0.97906504 0.87229043
v -0.25422068 1.27574677 0.95553630
v 0.66084508 1.36990903 1.20838182
v -0.16709890 -0.01011670 1.86515456
v -0.84233978 -1.37420710 -0.88008038
v 0.89132464 -1.21313411 -1.02261663
v -0.69096965 1.37956373 -0.87495933
v 0.93974547 1.23623774 -0.81895848
v 0.13656510 -0.06560380 -1.91288085
v 1.82065730 0.79887315 -0.60345383
v 1.96307036 -0.77207080 -0.66784822
v 1.30457589 -0.61218953 -1.53125148
v 0.76626542 0.35726908 -1.42663042
v 1.89963527 0.81226585 0.44632040
v 1.65430369 -0.90664676 0.58718102
v 1.12289277 -0.26162954 1.82379365
v 1.36615791 0.37816742 1.55779022
v 2.31359512 -0.06554394 -0.04845783
v -1.93675676 0.74171446 -0.59480493
v -2.29289097 -0.84222228 -0.48567782
v -1.09632019 -0.64006269 -1.49965008
v -1.19236416 0.32305010 -1.51949059
v -1.85675158 0.76836489 0.84744076
v -2.05711137 -0.74829364 0.65544567
v -1.11295070 -0.53921696 1.61153924
v -1.14360072 0.76437434 1.73515179
v -2.40594484 0.16706016 -0.14395111
f 1 38 17
f 38 12 41
f 17 41 6
f 38 41 17
f 1 17 13
f 17 6 18
f 13 18 2
f 17 18 13
f 1 13 22
f 13 2 23
f 22 23 8
f 13 23 22
f 1 22 34
f 22 8 37
f 34 37 11
f 22 37 34
f 1 34 38
f 34 11 42
f 38 42 12
f 34 42 38
f 2 18 29
f 18 6 32
f 29 32 10
f 18 32 29
f 6 41 19
f 41 12 40
f 19 40 5
f 41 40 19
f 12 42 39
f 42 11 35
f 39 35 3
f 42 35 39
f 11 37 36
f 37 8 24
f 36 24 7
f 37 24 36
f 8 23 28
f 23 2 25
f 28 25 9
f 23 25 28
f 4 30 16
f 30 10 31
f 16 31 5
f 30 31 16
f 4 16 14
f 16 5 15
f 14 15 3
f 16 15 14
f 4 14 21
f 14 3 20
f 21 20 7
f 14 20 21
f 4 21 26
f 21 7 27
f 26 27 9
f 21 27 26
f 4 26 30
f 26 9 33
f 30 33 10
f 26 33 30
f 5 31 19
f 31 10 32
f 19 32 6
f 31 32 19
f 3 15 39
f 15 5 40
f 39 40 12
f 15 40 39
f 7 20 36
f 20 3 35
f 36 35 11
f 20 35 36
f 9 27 28
f 27 7 24
f 28 24 8
f 27 24 28
f 10 33 29
f 33 9 25
f 29 25 2
f 33 25 29

