# https://github.com/mikedh/trimesh
v 1.59971043 2.26043154 1.15641431
v 1.95793973 2.25879813 1.15641431
v 1.94645021 -0.26101345 1.15641431
v 1.58822090 -0.25938004 1.15641431
v 1.77882508 2.25961483 1.46665321
v 1.76733555 -0.26019675 1.46665321
v 1.42059577 2.26124824 1.46665321
v 1.40910625 -0.25856334 1.46665321
v 1.24148112 2.26206495 1.15641431
v 1.22999159 -0.25774663 1.15641431
v 1.42059577 2.26124824 0.84617540
v 1.40910625 -0.25856334 0.84617540
v 1.77882508 2.25961483 0.84617540
v 1.76733555 -0.26019675 0.84617540
v 1.60241384 2.85332838 1.15641431
v 1.96064315 2.85169497 1.15641431
v 1.59700701 1.66753470 1.15641431
v 1.78152850 2.85251168 1.46665321
v 1.42329919 2.85414509 1.46665321
v 1.24418454 2.85496179 1.15641431
v 1.42329919 2.85414509 0.84617540
v 1.78152850 2.85251168 0.84617540
v 1.22570960 3.84957913 0.63720517
v 1.52875185 3.84788357 0.63720517
v 1.50474161 -0.44341530 0.63720517
v 1.20169936 -0.44171975 0.63720517
v 1.37723073 3.84873135 0.89965156
v 1.35322048 -0.44256752 0.89965156
v 1.07418848 3.85042690 0.89965156
v 1.05017823 -0.44087197 0.89965156
v 0.92266735 3.85127468 0.63720517
v 0.89865711 -0.44002419 0.63720517
v 1.07418848 3.85042690 0.37475877
v 1.05017823 -0.44087197 0.37475877
v 1.37723073 3.84873135 0.37475877
v 1.35322048 -0.44256752 0.37475877
v 1.23135907 4.85929651 0.63720517
v 1.53440132 4.85760096 0.63720517
v 1.22006013 2.83986174 0.63720517
v 1.38288020 4.85844873 0.89965156
v 1.07983794 4.86014428 0.89965156
v 0.92831682 4.86099206 0.63720517
v 1.07983794 4.86014428 0.37475877
v 1.38288020 4.85844873 0.37475877
v -0.54394129 1.84582988 0.31798071
v -0.16192700 1.74304911 0.31798071
v -0.70539723 -0.27691444 0.31798071
v -1.08741152 -0.17413368 0.31798071
v -0.35293414 1.79443949 0.66057975
v -0.89640437 -0.22552406 0.66057975
v -0.73494844 1.89722026 0.66057975
v -1.27841867 -0.12274330 0.66057975
v -0.92595559 1.94861064 0.31798071
v -1.46942582 -0.07135292 0.31798071
v -0.73494844 1.89722026 -0.02461834
v -1.27841867 -0.12274330 -0.02461834
v -0.35293414 1.79443949 -0.02461834
v -0.89640437 -0.22552406 -0.02461834
v -0.41606594 2.32111542 0.31798071
v -0.03405165 2.21833465 0.31798071
v -0.67181664 1.37054433 0.31798071
v -0.22505880 2.26972504 0.66057975
v -0.60707309 2.37250580 0.66057975
v -0.79808024 2.42389618 0.31798071
v -0.60707309 2.37250580 -0.02461834
v -0.22505880 2.26972504 -0.02461834
v 2.37381475 2.88680717 0.27699249
v 2.98523469 2.83688228 0.27699249
v 2.72292350 -0.37558914 0.27699249
v 2.11150356 -0.32566425 0.27699249
v 2.67952472 2.86184472 0.80825996
v 2.41721353 -0.35062670 0.80825996
v 2.06810478 2.91176962 0.80825996
v 1.80579359 -0.30070180 0.80825996
v 1.76239481 2.93673206 0.27699249
v 1.50008362 -0.27573936 0.27699249
v 2.06810478 2.91176962 -0.25427499
v 1.80579359 -0.30070180 -0.25427499
v 2.67952472 2.86184472 -0.25427499
v 2.41721353 -0.35062670 -0.25427499
v 2.43553503 3.64268280 0.27699249
v 3.04695497 3.59275791 0.27699249
v 2.31209447 2.13093154 0.27699249
v 2.74124500 3.61772035 0.80825996
v 2.12982506 3.66764525 0.80825996
v 1.82411509 3.69260769 0.27699249
v 2.12982506 3.66764525 -0.25427499
v 2.74124500 3.61772035 -0.25427499
v -0.21850989 1.90271951 0.07214045
v 0.06758280 1.86788661 0.07214045
v -0.18966847 -0.24499255 0.07214045
v -0.47576116 -0.21015965 0.07214045
v -0.07546355 1.88530306 0.32173365
v -0.33271482 -0.22757610 0.32173365
v -0.36155623 1.92013596 0.32173365
v -0.61880750 -0.19274320 0.32173365
v -0.50460257 1.93755241 0.07214045
v -0.76185384 -0.17532675 0.07214045
v -0.36155623 1.92013596 -0.17745275
v -0.61880750 -0.19274320 -0.17745275
v -0.07546355 1.88530306 -0.17745275
v -0.33271482 -0.22757610 -0.17745275
v -0.15798018 2.39986755 0.07214045
v 0.12811251 2.36503465 0.07214045
v -0.27903960 1.40557147 0.07214045
v -0.01493384 2.38245110 0.32173365
v -0.30102652 2.41728400 0.32173365
v -0.44407286 2.43470045 0.07214045
v -0.30102652 2.41728400 -0.17745275
v -0.01493384 2.38245110 -0.17745275
v 0.24885667 2.15516348 0.25746411
v 0.62894814 2.22033868 0.25746411
v 1.03777660 -0.16388423 0.25746411
v 0.65768513 -0.22905943 0.25746411
v 0.43890241 2.18775108 0.59143715
v 0.84773086 -0.19647183 0.59143715
v 0.05881094 2.12257588 0.59143715
v 0.46763940 -0.26164703 0.59143715
v -0.13123479 2.08998828 0.25746411
v 0.27759367 -0.29423463 0.25746411
v 0.05881094 2.12257588 -0.07650894
v 0.46763940 -0.26164703 -0.07650894
v 0.43890241 2.18775108 -0.07650894
v 0.84773086 -0.19647183 -0.07650894
v 0.15266174 2.71615710 0.25746411
v 0.53275321 2.78133230 0.25746411
v 0.34505161 1.59416985 0.25746411
v 0.34270748 2.74874470 0.59143715
v -0.03738399 2.68356950 0.59143715
v -0.22742972 2.65098190 0.25746411
v -0.03738399 2.68356950 -0.07650894
v 0.34270748 2.74874470 -0.07650894
v -0.65744330 2.48363773 -0.11465387
v -0.09568402 2.41758096 -0.11465387
v -0.42007409 -0.34109355 -0.11465387
v -0.98183338 -0.27503678 -0.11465387
v -0.37656366 2.45060934 0.37519585
v -0.70095373 -0.30806517 0.37519585
v -0.93832295 2.51666612 0.37519585
v -1.26271302 -0.24200839 0.37519585
v -1.21920259 2.54969450 -0.11465387
v -1.54359266 -0.20898001 -0.11465387
v -0.93832295 2.51666612 -0.60450359
v -1.26271302 -0.24200839 -0.60450359
v -0.37656366 2.45060934 -0.60450359
v -0.70095373 -0.30806517 -0.60450359
v -0.58111623 3.13273761 -0.11465387
v -0.01935694 3.06668084 -0.11465387
v -0.73377038 1.83453784 -0.11465387
v -0.30023658 3.09970923 0.37519585
v -0.86199587 3.16576600 0.37519585
v -1.14287552 3.19879439 -0.11465387
v -0.86199587 3.16576600 -0.60450359
v -0.30023658 3.09970923 -0.60450359
v 0.90211915 3.41161566 -0.71292235
v 1.36687181 3.28037851 -0.71292235
v 0.31453417 -0.44628524 -0.71292235
v -0.15021849 -0.31504809 -0.71292235
v 1.13449548 3.34599709 -0.29469553
v 0.08215784 -0.38066667 -0.29469553
v 0.66974282 3.47723423 -0.29469553
v -0.38259482 -0.24942952 -0.29469553
v 0.43736649 3.54285281 -0.71292235
v -0.61497115 -0.18381095 -0.71292235
v 0.66974282 3.47723423 -1.13114916
v -0.38259482 -0.24942952 -1.13114916
v 1.13449548 3.34599709 -1.13114916
v 0.08215784 -0.38066667 -1.13114916
v 1.14972801 4.28847772 -0.71292235
v 1.61448067 4.15724057 -0.71292235
v 0.65451030 2.53475360 -0.71292235
v 1.38210434 4.22285915 -0.29469553
v 0.91735168 4.35409629 -0.29469553
v 0.68497535 4.41971486 -0.71292235
v 0.91735168 4.35409629 -1.13114916
v 1.38210434 4.22285915 -1.13114916
v 1.12767130 3.39887785 1.12159573
v 1.46546008 3.39729882 1.12159573
v 1.44774850 -0.39159248 1.12159573
v 1.10995972 -0.39001345 1.12159573
v 1.29656569 3.39808833 1.41413260
v 1.27885411 -0.39080296 1.41413260
v 0.95877691 3.39966736 1.41413260
v 0.94106533 -0.38922393 1.41413260
v 0.78988252 3.40045688 1.12159573
v 0.77217094 -0.38843442 1.12159573
v 0.95877691 3.39966736 0.82905887
v 0.94106533 -0.38922393 0.82905887
v 1.29656569 3.39808833 0.82905887
v 1.27885411 -0.39080296 0.82905887
v 1.13183873 4.29038168 1.12159573
v 1.46962751 4.28880265 1.12159573
v 1.12350387 2.50737402 1.12159573
v 1.30073312 4.28959217 1.41413260
v 0.96294434 4.29117120 1.41413260
v 0.79404995 4.29196071 1.12159573
v 0.96294434 4.29117120 0.82905887
v 1.30073312 4.28959217 0.82905887
v 2.67861701 3.52907185 1.04648518
v 2.96715637 3.46216107 1.04648518
v 2.06739619 -0.41787505 1.04648518
v 1.77885682 -0.35096427 1.04648518
v 2.82288669 3.49561646 1.30299837
v 1.92312650 -0.38441966 1.30299837
v 2.53434732 3.56252724 1.30299837
v 1.63458713 -0.31750889 1.30299837
v 2.39007764 3.59598263 1.04648518
v 1.49031745 -0.28405350 1.04648518
v 2.53434732 3.56252724 0.78997200
v 1.63458713 -0.31750889 0.78997200
v 2.82288669 3.49561646 0.78997200
v 1.92312650 -0.38441966 0.78997200
v 2.89032528 4.44202153 1.04648518
v 3.17886465 4.37511075 1.04648518
v 2.46690873 2.61612217 1.04648518
v 3.03459497 4.40856614 1.30299837
v 2.74605560 4.47547692 1.30299837
v 2.60178592 4.50893230 1.04648518
v 2.74605560 4.47547692 0.78997200
v 3.03459497 4.40856614 0.78997200
v -2.17958794 -0.07820809 -0.03215971
v 1.47721142 -0.02598119 -0.09020699
v -1.69753993 -0.63627656 -0.15970273
v 1.32034898 -0.65300976 -0.24679541
v -0.31949857 -0.47499808 1.68928395
v 0.09966845 -0.12087148 1.74202118
v 0.07281823 -0.48806055 -1.74232447
v 0.34153458 -0.12802154 -1.93550680
v 2.72737803 -0.31307219 -1.00946659
v 2.10384201 -0.33437186 1.21289289
v -2.58836358 -0.33453977 -1.00291070
v -2.57038321 -0.30780925 1.35375790
v -0.35335049 0.05352715 0.13974830
v 0.11433705 -0.67490310 0.11230980
v -1.33404787 -0.58937828 1.17460155
v 1.05730877 -0.56891771 0.92626985
v -1.26671310 0.02677202 0.99055665
v 0.82080423 0.02572379 1.23805334
v 0.12211593 -0.30233568 2.00956974
v -0.72896485 -0.58151244 -1.07013891
v 1.26568590 -0.58961753 -1.39529867
v -0.78362433 -0.05000417 -0.96927880
v 0.50350858 -0.03205289 -1.05837185
v -0.17741826 -0.30891092 -2.17510325
v 2.32335125 -0.09017211 -0.59205901
v 2.70603184 -0.49904028 -0.65346713
v 2.04524871 -0.41614006 -1.62941114
v 2.00729632 -0.19922426 -1.73635187
v 2.57674055 -0.11440611 0.55304388
v 2.48596573 -0.48507422 0.59916191
v 1.34154356 -0.41204434 1.63842898
v 1.23417631 -0.20507964 1.39495528
v 3.02621810 -0.30966479 0.29055048
v -2.64156368 -0.11425349 -0.61910813
v -2.42228508 -0.53428265 -0.45994880
v -1.50127931 -0.43674902 -1.76229064
v -1.73033747 -0.20920947 -1.58032751
v -2.56733701 -0.13152440 0.76706830
v -2.35968585 -0.48046959 0.59870804
v -1.59974365 -0.40620687 1.74546796
v -1.35711375 -0.24097445 1.50214030
v -3.20463082 -0.29627120 -0.02651785
f 2 1 5
f 2 5 3
f 3 5 6
f 3 6 4
f 5 1 7
f 5 7 6
f 6 7 8
f 6 8 4
f 7 1 9
f 7 9 8
f 8 9 10
f 8 10 4
f 9 1 11
f 9 11 10
f 10 11 12
f 10 12 4
f 11 1 13
f 11 13 12
f 12 13 14
f 12 14 4
f 13 1 2
f 13 2 14
f 14 2 3
f 14 3 4
f 16 15 18
f 16 18 17
f 18 15 19
f 18 19 17
f 19 15 20
f 19 20 17
f 20 15 21
f 20 21 17
f 21 15 22
f 21 22 17
f 22 15 16
f 22 16 17
f 24 23 27
f 24 27 25
f 25 27 28
f 25 28 26
f 27 23 29
f 27 29 28
f 28 29 30
f 28 30 26
f 29 23 31
f 29 31 30
f 30 31 32
f 30 32 26
f 31 23 33
f 31 33 32
f 32 33 34
f 32 34 26
f 33 23 35
f 33 35 34
f 34 35 36
f 34 36 26
f 35 23 24
f 35 24 36
f 36 24 25
f 36 25 26
f 38 37 40
f 38 40 39
f 40 37 41
f 40 41 39
f 41 37 42
f 41 42 39
f 42 37 43
f 42 43 39
f 43 37 44
f 43 44 39
f 44 37 38
f 44 38 39
f 46 45 49
f 46 49 47
f 47 49 50
f 47 50 48
f 49 45 51
f 49 51 50
f 50 51 52
f 50 52 48
f 51 45 53
f 51 53 52
f 52 53 54
f 52 54 48
f 53 45 55
f 53 55 54
f 54 55 56
f 54 56 48
f 55 45 57
f 55 57 56
f 56 57 58
f 56 58 48
f 57 45 46
f 57 46 58
f 58 46 47
f 58 47 48
f 60 59 62
f 60 62 61
f 62 59 63
f 62 63 61
f 63 59 64
f 63 64 61
f 64 59 65
f 64 65 61
f 65 59 66
f 65 66 61
f 66 59 60
f 66 60 61
f 68 67 71
f 68 71 69
f 69 71 72
f 69 72 70
f 71 67 73
f 71 73 72
f 72 73 74
f 72 74 70
f 73 67 75
f 73 75 74
f 74 75 76
f 74 76 70
f 75 67 77
f 75 77 76
f 76 77 78
f 76 78 70
f 77 67 79
f 77 79 78
f 78 79 80
f 78 80 70
f 79 67 68
f 79 68 80
f 80 68 69
f 80 69 70
f 82 81 84
f 82 84 83
f 84 81 85
f 84 85 83
f 85 81 86
f 85 86 83
f 86 81 87
f 86 87 83
f 87 81 88
f 87 88 83
f 88 81 82
f 88 82 83
f 90 89 93
f 90 93 91
f 91 93 94
f 91 94 92
f 93 89 95
f 93 95 94
f 94 95 96
f 94 96 92
f 95 89 97
f 95 97 96
f 96 97 98
f 96 98 92
f 97 89 99
f 97 99 98
f 98 99 100
f 98 100 92
f 99 89 101
f 99 101 100
f 100 101 102
f 100 102 92
f 101 89 90
f 101 90 102
f 102 90 91
f 102 91 92
f 104 103 106
f 104 106 105
f 106 103 107
f 106 107 105
f 107 103 108
f 107 108 105
f 108 103 109
f 108 109 105
f 109 103 110
f 109 110 105
f 110 103 104
f 110 104 105
f 112 111 115
f 112 115 113
f 113 115 116
f 113 116 114
f 115 111 117
f 115 117 116
f 116 117 118
f 116 118 114
f 117 111 119
f 117 119 118
f 118 119 120
f 118 120 114
f 119 111 121
f 119 121 120
f 120 121 122
f 120 122 114
f 121 111 123
f 121 123 122
f 122 123 124
f 122 124 114
f 123 111 112
f 123 112 124
f 124 112 113
f 124 113 114
f 126 125 128
f 126 128 127
f 128 125 129
f 128 129 127
f 129 125 130
f 129 130 127
f 130 125 131
f 130 131 127
f 131 125 132
f 131 132 127
f 132 125 126
f 132 126 127
f 134 133 137
f 134 137 135
f 135 137 138
f 135 138 136
f 137 133 139
f 137 139 138
f 138 139 140
f 138 140 136
f 139 133 141
f 139 141 140
f 140 141 142
f 140 142 136
f 141 133 143
f 141 143 142
f 142 143 144
f 142 144 136
f 143 133 145
f 143 145 144
f 144 145 146
f 144 146 136
f 145 133 134
f 145 134 146
f 146 134 135
f 146 135 136
f 148 147 150
f 148 150 149
f 150 147 151
f 150 151 149
f 151 147 152
f 151 152 149
f 152 147 153
f 152 153 149
f 153 147 154
f 153 154 149
f 154 147 148
f 154 148 149
f 156 155 159
f 156 159 157
f 157 159 160
f 157 160 158
f 159 155 161
f 159 161 160
f 160 161 162
f 160 162 158
f 161 155 163
f 161 163 162
f 162 163 164
f 162 164 158
f 163 155 165
f 163 165 164
f 164 165 166
f 164 166 158
f 165 155 167
f 165 167 166
f 166 167 168
f 166 168 158
f 167 155 156
f 167 156 168
f 168 156 157
f 168 157 158
f 170 169 172
f 170 172 171
f 172 169 173
f 172 173 171
f 173 169 174
f 173 174 171
f 174 169 175
f 174 175 171
f 175 169 176
f 175 176 171
f 176 169 170
f 176 170 171
f 178 177 181
f 178 181 179
f 179 181 182
f 179 182 180
f 181 177 183
f 181 183 182
f 182 183 184
f 182 184 180
f 183 177 185
f 183 185 184
f 184 185 186
f 184 186 180
f 185 177 187
f 185 187 186
f 186 187 188
f 186 188 180
f 187 177 189
f 187 189 188
f 188 189 190
f 188 190 180
f 189 177 178
f 189 178 190
f 190 178 179
f 190 179 180
f 192 191 194
f 192 194 193
f 194 191 195
f 194 195 193
f 195 191 196
f 195 196 193
f 196 191 197
f 196 197 193
f 197 191 198
f 197 198 193
f 198 191 192
f 198 192 193
f 200 199 203
f 200 203 201
f 201 203 204
f 201 204 202
f 203 199 205
f 203 205 204
f 204 205 206
f 204 206 202
f 205 199 207
f 205 207 206
f 206 207 208
f 206 208 202
f 207 199 209
f 207 209 208
f 208 209 210
f 208 210 202
f 209 199 211
f 209 211 210
f 210 211 212
f 210 212 202
f 211 199 200
f 211 200 212
f 212 200 201
f 212 201 202
f 214 213 216
f 214 216 215
f 216 213 217
f 216 217 215
f 217 213 218
f 217 218 215
f 218 213 219
f 218 219 215
f 219 213 220
f 219 220 215
f 220 213 214
f 220 214 215
f 221 258 237
f 258 232 261
f 237 261 226
f 258 261 237
f 221 237 233
f 237 226 238
f 233 238 222
f 237 238 233
f 221 233 242
f 233 222 243
f 242 243 228
f 233 243 242
f 221 242 254
f 242 228 257
f 254 257 231
f 242 257 254
f 221 254 258
f 254 231 262
f 258 262 232
f 254 262 258
f 222 238 249
f 238 226 252
f 249 252 230
f 238 252 249
f 226 261 239
f 261 232 260
f 239 260 225
f 261 260 239
f 232 262 259
f 262 231 255
f 259 255 223
f 262 255 259
f 231 257 256
f 257 228 244
f 256 244 227
f 257 244 256
f 228 243 248
f 243 222 245
f 248 245 229
f 243 245 248
f 224 250 236
f 250 230 251
f 236 251 225
f 250 251 236
f 224 236 234
f 236 225 235
f 234 235 223
f 236 235 234
f 224 234 241
f 234 223 240
f 241 240 227
f 234 240 241
f 224 241 246
f 241 227 247
f 246 247 229
f 241 247 246
f 224 246 250
f 246 229 253
f 250 253 230
f 246 253 250
f 225 251 239
f 251 230 252
f 239 252 226
f 251 252 239
f 223 235 259
f 235 225 260
f 259 260 232
f 235 260 259
f 227 240 256
f 240 223 255
f 256 255 231
f 240 255 256
f 229 247 248
f 247 227 244
f 248 244 228
f 247 244 248
f 230 253 249
f 253 229 245
f 249 245 222
f 253 245 249

