# https://github.com/mikedh/trimesh
v 0.00000000 6.00000000 -0.00000000
v 0.62000000 6.00000000 -0.00000000
v 0.62000000 0.00000000 0.00000000
v 0.00000000 0.00000000 0.00000000
v 0.31000000 6.00000000 0.53693575
v 0.31000000 0.00000000 0.53693575
v -0.31000000 6.00000000 0.53693575
v -0.31000000 0.00000000 0.53693575
v -0.62000000 6.00000000 -0.00000000
v -0.62000000 0.00000000 0.00000000
v -0.31000000 6.00000000 -0.53693575
v -0.31000000 0.00000000 -0.53693575
v 0.31000000 6.00000000 -0.53693575
v 0.31000000 0.00000000 -0.53693575
v 0.00000000 7.66700000 -0.00000000
v 0.65000000 7.66700000 -0.00000000
v 0.65000000 6.10300000 0.00000000
v 0.00000000 6.10300000 0.00000000
v 0.32500000 7.66700000 0.56291651
v 0.32500000 6.10300000 0.56291651
v -0.32500000 7.66700000 0.56291651
v -0.32500000 6.10300000 0.56291651
v -0.65000000 7.66700000 0.00000000
v -0.65000000 6.10300000 0.00000000
v -0.32500000 7.66700000 -0.56291651
v -0.32500000 6.10300000 -0.56291651
v 0.32500000 7.66700000 -0.56291651
v 0.32500000 6.10300000 -0.56291651
v 0.00000000 8.03500000 0.00000000
v 0.65000000 8.03500000 0.00000000
v 0.00000000 7.29900000 0.00000000
v 0.32500000 8.03500000 0.56291651
v -0.32500000 8.03500000 0.56291651
v -0.65000000 8.03500000 0.00000000
v -0.32500000 8.03500000 -0.56291651
v 0.32500000 8.03500000 -0.56291651
v 1.20000000 5.10000000 0.00000000
v 1.16234898 5.02181685 0.00000000
v 1.07774791 5.00250721 0.00000000
v 1.00990311 5.05661163 0.00000000
v 1.00990311 5.14338837 -0.00000000
v 1.07774791 5.19749279 -0.00000000
v 1.16234898 5.17818315 -0.00000000
v 1.12763114 5.10000000 0.41042417
v 1.09225076 5.02181685 0.39754676
v 1.01275175 5.00250721 0.36861149
v 0.94899850 5.05661163 0.34540721
v 0.94899850 5.14338837 0.34540721
v 1.01275175 5.19749279 0.36861149
v 1.09225076 5.17818315 0.39754676
v 0.91925333 5.10000000 0.77134513
v 0.89041098 5.02181685 0.74714352
v 0.82560279 5.00250721 0.69276300
v 0.77363067 5.05661163 0.64915321
v 0.77363067 5.14338837 0.64915321
v 0.82560279 5.19749279 0.69276300
v 0.89041098 5.17818315 0.74714352
v 0.60000000 5.10000000 1.03923048
v 0.58117449 5.02181685 1.00662374
v 0.53887395 5.00250721 0.93335707
v 0.50495156 5.05661163 0.87460175
v 0.50495156 5.14338837 0.87460175
v 0.53887395 5.19749279 0.93335707
v 0.58117449 5.17818315 1.00662374
v 0.20837781 5.10000000 1.18176930
v 0.20183978 5.02181685 1.14469029
v 0.18714896 5.00250721 1.06137449
v 0.17536784 5.05661163 0.99456042
v 0.17536784 5.14338837 0.99456042
v 0.18714896 5.19749279 1.06137449
v 0.20183978 5.17818315 1.14469029
v -0.20837781 5.10000000 1.18176930
v -0.20183978 5.02181685 1.14469029
v -0.18714896 5.00250721 1.06137449
v -0.17536784 5.05661163 0.99456042
v -0.17536784 5.14338837 0.99456042
v -0.18714896 5.19749279 1.06137449
v -0.20183978 5.17818315 1.14469029
v -0.60000000 5.10000000 1.03923048
v -0.58117449 5.02181685 1.00662374
v -0.53887395 5.00250721 0.93335707
v -0.50495156 5.05661163 0.87460175
v -0.50495156 5.14338837 0.87460175
v -0.53887395 5.19749279 0.93335707
v -0.58117449 5.17818315 1.00662374
v -0.91925333 5.10000000 0.77134513
v -0.89041098 5.02181685 0.74714352
v -0.82560279 5.00250721 0.69276300
v -0.77363067 5.05661163 0.64915321
v -0.77363067 5.14338837 0.64915321
v -0.82560279 5.19749279 0.69276300
v -0.89041098 5.17818315 0.74714352
v -1.12763114 5.10000000 0.41042417
v -1.09225076 5.02181685 0.39754676
v -1.01275175 5.00250721 0.36861149
v -0.94899850 5.05661163 0.34540721
v -0.94899850 5.14338837 0.34540721
v -1.01275175 5.19749279 0.36861149
v -1.09225076 5.17818315 0.39754676
v -1.20000000 5.10000000 0.00000000
v -1.16234898 5.02181685 0.00000000
v -1.07774791 5.00250721 0.00000000
v -1.00990311 5.05661163 0.00000000
v -1.00990311 5.14338837 0.00000000
v -1.07774791 5.19749279 0.00000000
v -1.16234898 5.17818315 0.00000000
v -1.12763114 5.10000000 -0.41042417
v -1.09225076 5.02181685 -0.39754676
v -1.01275175 5.00250721 -0.36861149
v -0.94899850 5.05661163 -0.34540721
v -0.94899850 5.14338837 -0.34540721
v -1.01275175 5.19749279 -0.36861149
v -1.09225076 5.17818315 -0.39754676
v -0.91925333 5.10000000 -0.77134513
v -0.89041098 5.02181685 -0.74714352
v -0.82560279 5.00250721 -0.69276300
v -0.77363067 5.05661163 -0.64915321
v -0.77363067 5.14338837 -0.64915321
v -0.82560279 5.19749279 -0.69276300
v -0.89041098 5.17818315 -0.74714352
v -0.60000000 5.10000000 -1.03923048
v -0.58117449 5.02181685 -1.00662374
v -0.53887395 5.00250721 -0.93335707
v -0.50495156 5.05661163 -0.87460175
v -0.50495156 5.14338837 -0.87460175
v -0.53887395 5.19749279 -0.93335707
v -0.58117449 5.17818315 -1.00662374
v -0.20837781 5.10000000 -1.18176930
v -0.20183978 5.02181685 -1.14469029
v -0.18714896 5.00250721 -1.06137449
v -0.17536784 5.05661163 -0.99456042
v -0.17536784 5.14338837 -0.99456042
v -0.18714896 5.19749279 -1.06137449
v -0.20183978 5.17818315 -1.14469029
v 0.20837781 5.10000000 -1.18176930
v 0.20183978 5.02181685 -1.14469029
v 0.18714896 5.00250721 -1.06137449
v 0.17536784 5.05661163 -0.99456042
v 0.17536784 5.14338837 -0.99456042
v 0.18714896 5.19749279 -1.06137449
v 0.20183978 5.17818315 -1.14469029
v 0.60000000 5.10000000 -1.03923048
v 0.58117449 5.02181685 -1.00662374
v 0.53887395 5.00250721 -0.93335707
v 0.50495156 5.05661163 -0.87460175
v 0.50495156 5.14338837 -0.87460175
v 0.53887395 5.19749279 -0.93335707
v 0.58117449 5.17818315 -1.00662374
v 0.91925333 5.10000000 -0.77134513
v 0.89041098 5.02181685 -0.74714352
v 0.82560279 5.00250721 -0.69276300
v 0.77363067 5.05661163 -0.64915321
v 0.77363067 5.14338837 -0.64915321
v 0.82560279 5.19749279 -0.69276300
v 0.89041098 5.17818315 -0.74714352
v 1.12763114 5.10000000 -0.41042417
v 1.09225076 5.02181685 -0.39754676
v 1.01275175 5.00250721 -0.36861149
v 0.94899850 5.05661163 -0.34540721
v 0.94899850 5.14338837 -0.34540721
v 1.01275175 5.19749279 -0.36861149
v 1.09225076 5.17818315 -0.39754676
f 2 1 5
f 2 5 3
f 3 5 6
f 3 6 4
f 5 1 7
f 5 7 6
f 6 7 8
f 6 8 4
f 7 1 9
f 7 9 8
f 8 9 10
f 8 10 4
f 9 1 11
f 9 11 10
f 10 11 12
f 10 12 4
f 11 1 13
f 11 13 12
f 12 13 14
f 12 14 4
f 13 1 2
f 13 2 14
f 14 2 3
f 14 3 4
f 16 15 19
f 16 19 17
f 17 19 20
f 17 20 18
f 19 15 21
f 19 21 20
f 20 21 22
f 20 22 18
f 21 15 23
f 21 23 22
f 22 23 24
f 22 24 18
f 23 15 25
f 23 25 24
f 24 25 26
f 24 26 18
f 25 15 27
f 25 27 26
f 26 27 28
f 26 28 18
f 27 15 16
f 27 16 28
f 28 16 17
f 28 17 18
f 30 29 32
f 30 32 31
f 32 29 33
f 32 33 31
f 33 29 34
f 33 34 31
f 34 29 35
f 34 35 31
f 35 29 36
f 35 36 31
f 36 29 30
f 36 30 31
f 37 44 38
f 38 44 45
f 38 45 39
f 39 45 46
f 39 46 40
f 40 46 47
f 40 47 41
f 41 47 48
f 41 48 42
f 42 48 49
f 42 49 43
f 43 49 50
f 43 50 37
f 37 50 44
f 44 51 45
f 45 51 52
f 45 52 46
f 46 52 53
f 46 53 47
f 47 53 54
f 47 54 48
f 48 54 55
f 48 55 49
f 49 55 56
f 49 56 50
f 50 56 57
f 50 57 44
f 44 57 51
f 51 58 52
f 52 58 59
f 52 59 53
f 53 59 60
f 53 60 54
f 54 60 61
f 54 61 55
f 55 61 62
f 55 62 56
f 56 62 63
f 56 63 57
f 57 63 64
f 57 64 51
f 51 64 58
f 58 65 59
f 59 65 66
f 59 66 60
f 60 66 67
f 60 67 61
f 61 67 68
f 61 68 62
f 62 68 69
f 62 69 63
f 63 69 70
f 63 70 64
f 64 70 71
f 64 71 58
f 58 71 65
f 65 72 66
f 66 72 73
f 66 73 67
f 67 73 74
f 67 74 68
f 68 74 75
f 68 75 69
f 69 75 76
f 69 76 70
f 70 76 77
f 70 77 71
f 71 77 78
f 71 78 65
f 65 78 72
f 72 79 73
f 73 79 80
f 73 80 74
f 74 80 81
f 74 81 75
f 75 81 82
f 75 82 76
f 76 82 83
f 76 83 77
f 77 83 84
f 77 84 78
f 78 84 85
f 78 85 72
f 72 85 79
f 79 86 80
f 80 86 87
f 80 87 81
f 81 87 88
f 81 88 82
f 82 88 89
f 82 89 83
f 83 89 90
f 83 90 84
f 84 90 91
f 84 91 85
f 85 91 92
f 85 92 79
f 79 92 86
f 86 93 87
f 87 93 94
f 87 94 88
f 88 94 95
f 88 95 89
f 89 95 96
f 89 96 90
f 90 96 97
f 90 97 91
f 91 97 98
f 91 98 92
f 92 98 99
f 92 99 86
f 86 99 93
f 93 100 94
f 94 100 101
f 94 101 95
f 95 101 102
f 95 102 96
f 96 102 103
f 96 103 97
f 97 103 104
f 97 104 98
f 98 104 105
f 98 105 99
f 99 105 106
f 99 106 93
f 93 106 100
f 100 107 101
f 101 107 108
f 101 108 102
f 102 108 109
f 102 109 103
f 103 109 110
f 103 110 104
f 104 110 111
f 104 111 105
f 105 111 112
f 105 112 106
f 106 112 113
f 106 113 100
f 100 113 107
f 107 114 108
f 108 114 115
f 108 115 109
f 109 115 116
f 109 116 110
f 110 116 117
f 110 117 111
f 111 117 118
f 111 118 112
f 112 118 119
f 112 119 113
f 113 119 120
f 113 120 107
f 107 120 114
f 114 121 115
f 115 121 122
f 115 122 116
f 116 122 123
f 116 123 117
f 117 123 124
f 117 124 118
f 118 124 125
f 118 125 119
f 119 125 126
f 119 126 120
f 120 126 127
f 120 127 114
f 114 127 121
f 121 128 122
f 122 128 129
f 122 129 123
f 123 129 130
f 123 130 124
f 124 130 131
f 124 131 125
f 125 131 132
f 125 132 126
f 126 132 133
f 126 133 127
f 127 133 134
f 127 134 121
f 121 134 128
f 128 135 129
f 129 135 136
f 129 136 130
f 130 136 137
f 130 137 131
f 131 137 138
f 131 138 132
f 132 138 139
f 132 139 133
f 133 139 140
f 133 140 134
f 134 140 141
f 134 141 128
f 128 141 135
f 135 142 136
f 136 142 143
f 136 143 137
f 137 143 144
f 137 144 138
f 138 144 145
f 138 145 139
f 139 145 146
f 139 146 140
f 140 146 147
f 140 147 141
f 141 147 148
f 141 148 135
f 135 148 142
f 142 149 143
f 143 149 150
f 143 150 144
f 144 150 151
f 144 151 145
f 145 151 152
f 145 152 146
f 146 152 153
f 146 153 147
f 147 153 154
f 147 154 148
f 148 154 155
f 148 155 142
f 142 155 149
f 149 156 150
f 150 156 157
f 150 157 151
f 151 157 158
f 151 158 152
f 152 158 159
f 152 159 153
f 153 159 160
f 153 160 154
f 154 160 161
f 154 161 155
f 155 161 162
f 155 162 149
f 149 162 156
f 156 37 157
f 157 37 38
f 157 38 158
f 158 38 39
f 158 39 159
f 159 39 40
f 159 40 160
f 160 40 41
f 160 41 161
f 161 41 42
f 161 42 162
f 162 42 43
f 162 43 156
f 156 43 37

