# https://github.com/mikedh/trimesh
v -1.17788662 0.79106289 0.07722262
v 1.17054935 0.94975724 0.04701714
v -0.77779914 -0.88065503 0.09057779
v 1.16150213 -1.05769664 0.12339414
v -0.26375405 -0.63514323 1.30506768
v -0.27656299 0.59443960 1.57140354
v -0.05442037 -0.71569029 -1.37269617
v 0.13662789 0.62236685 -1.36138251
v 1.47582606 0.04609345 -0.77899620
v 1.91590421 0.13699290 0.92930840
v -1.96408832 -0.13205620 -0.98171102
v -1.65411362 -0.07242664 1.00879060
v 0.03901684 1.18355860 0.09606504
v 0.05443966 -1.27977216 0.31384694
v -0.38395576 -0.79024171 0.70432222
v 0.32243434 -1.06897994 0.66515671
v -0.47689167 1.01319893 0.98667429
v 0.96082598 0.97829304 0.84538391
v -0.05808037 -0.03095457 1.45180369
v -0.53630597 -0.90109781 -0.85186538
v 0.48834031 -0.88833001 -0.63281151
v -0.60499429 0.95647630 -0.87016530
v 0.57826985 0.90125134 -0.83649007
v -0.09555916 0.03646727 -1.43363465
v 1.46648591 0.70372702 -0.54601150
v 1.55929978 -0.77339486 -0.80437608
v 1.11768049 -0.45574922 -1.19134773
v 1.00810014 0.37841307 -1.12376418
v 1.60645718 0.27451791 0.27188314
v 1.77365512 -0.39130541 0.48214545
v 0.88764816 -0.48345335 1.36432209
v 0.71233808 0.24075492 1.31182662
v 2.01630950 -0.02381092 0.13611356
v -1.81697972 0.46544373 -0.54797705
v -1.60761138 -0.60607447 -0.23936243
v -1.09661999 -0.29691786 -1.36948620
v -0.94868788 0.31462368 -1.34473457
v -1.35824829 0.54399336 0.71422080
v -1.73635840 -0.61812922 0.63643600
v -1.39674604 -0.50936419 1.29672742
v -0.92369559 0.40807399 1.25269513
v -2.23124609 0.07676850 0.05713196
f 1 38 17
f 38 12 41
f 17 41 6
f 38 41 17
f 1 17 13
f 17 6 18
f 13 18 2
f 17 18 13
f 1 13 22
f 13 2 23
f 22 23 8
f 13 23 22
f 1 22 34
f 22 8 37
f 34 37 11
f 22 37 34
f 1 34 38
f 34 11 42
f 38 42 12
f 34 42 38
f 2 18 29
f 18 6 32
f 29 32 10
f 18 32 29
f 6 41 19
f 41 12 40
f 19 40 5
f 41 40 19
f 12 42 39
f 42 11 35
f 39 35 3
f 42 35 39
f 11 37 36
f 37 8 24
f 36 24 7
f 37 24 36
f 8 23 28
f 23 2 25
f 28 25 9
f 23 25 28
f 4 30 16
f 30 10 31
f 16 31 5
f 30 31 16
f 4 16 14
f 16 5 15
f 14 15 3
f 16 15 14
f 4 14 21
f 14 3 20
f 21 20 7
f 14 20 21
f 4 21 26
f 21 7 27
f 26 27 9
f 21 27 26
f 4 26 30
f 26 9 33
f 30 33 10
f 26 33 30
f 5 31 19
f 31 10 32
f 19 32 6
f 31 32 19
f 3 15 39
f 15 5 40
f 39 40 12
f 15 40 39
f 7 20 36
f 20 3 35
f 36 35 11
f 20 35 36
f 9 27 28
f 27 7 24
f 28 24 8
f 27 24 28
f 10 33 29
f 33 9 25
f 29 25 2
f 33 25 29

