# https://github.com/mikedh/trimesh
v 0.00000000 6.00000000 -0.00000000
v 0.32000000 6.00000000 -0.00000000
v 0.32000000 0.00000000 0.00000000
v 0.00000000 0.00000000 0.00000000
v 0.22627417 6.00000000 0.22627417
v 0.22627417 0.00000000 0.22627417
v 0.00000000 6.00000000 0.32000000
v 0.00000000 0.00000000 0.32000000
v -0.22627417 6.00000000 0.22627417
v -0.22627417 0.00000000 0.22627417
v -0.32000000 6.00000000 -0.00000000
v -0.32000000 0.00000000 0.00000000
v -0.22627417 6.00000000 -0.22627417
v -0.22627417 0.00000000 -0.22627417
v -0.00000000 6.00000000 -0.32000000
v -0.00000000 0.00000000 -0.32000000
v 0.22627417 6.00000000 -0.22627417
v 0.22627417 0.00000000 -0.22627417
v 0.00000000 6.15000000 0.00000000
v 0.00000000 6.15000000 -0.13000000
v 3.10000000 5.20000000 -0.13000000
v 3.10000000 5.20000000 0.00000000
v 0.02978017 6.24717738 -0.08105367
v 3.12978017 5.29717738 -0.08105367
v 0.03713526 6.27117821 0.02892772
v 3.13713526 5.32117821 0.02892772
v 0.01652675 6.20392938 0.11712595
v 3.11652675 5.25392938 0.11712595
v -0.01652675 6.09607062 0.11712595
v 3.08347325 5.14607062 0.11712595
v -0.03713526 6.02882179 0.02892772
v 3.06286474 5.07882179 0.02892772
v -0.02978017 6.05282262 -0.08105367
v 3.07021983 5.10282262 -0.08105367
v 0.65625711 5.76857159 0.00000000
v 2.44374289 5.76857159 0.00000000
v 0.65625711 5.58142841 0.00000000
v 2.44374289 5.58142841 0.00000000
v 1.55000000 5.61716958 0.46785794
v 1.55000000 5.73283042 0.46785794
v 1.55000000 5.61716958 -0.46785794
v 1.55000000 5.73283042 -0.46785794
v 2.99610637 5.67500000 -0.28915211
v 2.99610637 5.67500000 0.28915211
v 0.10389363 5.67500000 -0.28915211
v 0.10389363 5.67500000 0.28915211
v 1.55000000 5.78500000 0.00000000
v 1.55000000 5.56500000 0.00000000
v 1.02467111 5.58600813 0.27500000
v 2.07532889 5.58600813 0.27500000
v 1.02467111 5.76399187 0.27500000
v 2.07532889 5.76399187 0.27500000
v 1.55000000 5.67500000 0.55000000
v 1.02467111 5.58600813 -0.27500000
v 2.07532889 5.58600813 -0.27500000
v 1.02467111 5.76399187 -0.27500000
v 2.07532889 5.76399187 -0.27500000
v 1.55000000 5.67500000 -0.55000000
v 2.92532889 5.73000000 -0.16995935
v 2.92532889 5.62000000 -0.16995935
v 2.40000000 5.64100813 -0.44495935
v 2.40000000 5.70899187 -0.44495935
v 2.92532889 5.73000000 0.16995935
v 2.92532889 5.62000000 0.16995935
v 2.40000000 5.64100813 0.44495935
v 2.40000000 5.70899187 0.44495935
v 3.25000000 5.67500000 0.00000000
v 0.17467111 5.73000000 -0.16995935
v 0.17467111 5.62000000 -0.16995935
v 0.70000000 5.64100813 -0.44495935
v 0.70000000 5.70899187 -0.44495935
v 0.17467111 5.73000000 0.16995935
v 0.17467111 5.62000000 0.16995935
v 0.70000000 5.64100813 0.44495935
v 0.70000000 5.70899187 0.44495935
v -0.15000000 5.67500000 0.00000000
v 0.00000000 6.15000000 0.00000000
v 0.10764223 6.12866157 -0.06969808
v 1.65764223 5.17866157 2.61498067
v 1.55000000 5.20000000 2.68467875
v 0.09689400 6.23243034 -0.02677299
v 1.64689400 5.28243034 2.65790576
v 0.01318261 6.27412738 0.03631271
v 1.56318261 5.32412738 2.72099146
v -0.08045555 6.22235397 0.07205420
v 1.46954445 5.27235397 2.75673295
v -0.11350904 6.11609655 0.05353740
v 1.43649096 5.16609655 2.73821616
v -0.06108791 6.03536912 -0.00529415
v 1.48891209 5.08536912 2.67938461
v 0.03733367 6.04096108 -0.06013910
v 1.58733367 5.09096108 2.62453965
v -0.11874289 5.76857159 1.34233938
v 1.66874289 5.76857159 1.34233938
v -0.11874289 5.58142841 1.34233938
v 1.66874289 5.58142841 1.34233938
v 0.77500000 5.61716958 1.81019732
v 0.77500000 5.73283042 1.81019732
v 0.77500000 5.61716958 0.87448143
v 0.77500000 5.73283042 0.87448143
v 2.22110637 5.67500000 1.05318726
v 2.22110637 5.67500000 1.63149149
v -0.67110637 5.67500000 1.05318726
v -0.67110637 5.67500000 1.63149149
v 0.77500000 5.78500000 1.34233938
v 0.77500000 5.56500000 1.34233938
v 0.24967111 5.58600813 1.61733938
v 1.30032889 5.58600813 1.61733938
v 0.24967111 5.76399187 1.61733938
v 1.30032889 5.76399187 1.61733938
v 0.77500000 5.67500000 1.89233938
v 0.24967111 5.58600813 1.06733938
v 1.30032889 5.58600813 1.06733938
v 0.24967111 5.76399187 1.06733938
v 1.30032889 5.76399187 1.06733938
v 0.77500000 5.67500000 0.79233938
v 2.15032889 5.73000000 1.17238003
v 2.15032889 5.62000000 1.17238003
v 1.62500000 5.64100813 0.89738003
v 1.62500000 5.70899187 0.89738003
v 2.15032889 5.73000000 1.51229872
v 2.15032889 5.62000000 1.51229872
v 1.62500000 5.64100813 1.78729872
v 1.62500000 5.70899187 1.78729872
v 2.47500000 5.67500000 1.34233938
v -0.60032889 5.73000000 1.17238003
v -0.60032889 5.62000000 1.17238003
v -0.07500000 5.64100813 0.89738003
v -0.07500000 5.70899187 0.89738003
v -0.60032889 5.73000000 1.51229872
v -0.60032889 5.62000000 1.51229872
v -0.07500000 5.64100813 1.78729872
v -0.07500000 5.70899187 1.78729872
v -0.92500000 5.67500000 1.34233938
v 0.00000000 6.15000000 0.00000000
v 0.10764223 6.17133843 0.06969808
v -1.44235777 5.22133843 2.75437683
v -1.55000000 5.20000000 2.68467875
v 0.03733367 6.25903892 0.06013910
v -1.51266633 5.30903892 2.74481785
v -0.06108791 6.26463088 0.00529415
v -1.61108791 5.31463088 2.68997290
v -0.11350904 6.18390345 -0.05353740
v -1.66350904 5.23390345 2.63114135
v -0.08045555 6.07764603 -0.07205420
v -1.63045555 5.12764603 2.61262455
v 0.01318261 6.02587262 -0.03631271
v -1.53681739 5.07587262 2.64836604
v 0.09689400 6.06756966 0.02677299
v -1.45310600 5.11756966 2.71145174
v -1.66874289 5.76857159 1.34233938
v 0.11874289 5.76857159 1.34233938
v -1.66874289 5.58142841 1.34233938
v 0.11874289 5.58142841 1.34233938
v -0.77500000 5.61716958 1.81019732
v -0.77500000 5.73283042 1.81019732
v -0.77500000 5.61716958 0.87448143
v -0.77500000 5.73283042 0.87448143
v 0.67110637 5.67500000 1.05318726
v 0.67110637 5.67500000 1.63149149
v -2.22110637 5.67500000 1.05318726
v -2.22110637 5.67500000 1.63149149
v -0.77500000 5.78500000 1.34233938
v -0.77500000 5.56500000 1.34233938
v -1.30032889 5.58600813 1.61733938
v -0.24967111 5.58600813 1.61733938
v -1.30032889 5.76399187 1.61733938
v -0.24967111 5.76399187 1.61733938
v -0.77500000 5.67500000 1.89233938
v -1.30032889 5.58600813 1.06733938
v -0.24967111 5.58600813 1.06733938
v -1.30032889 5.76399187 1.06733938
v -0.24967111 5.76399187 1.06733938
v -0.77500000 5.67500000 0.79233938
v 0.60032889 5.73000000 1.17238003
v 0.60032889 5.62000000 1.17238003
v 0.07500000 5.64100813 0.89738003
v 0.07500000 5.70899187 0.89738003
v 0.60032889 5.73000000 1.51229872
v 0.60032889 5.62000000 1.51229872
v 0.07500000 5.64100813 1.78729872
v 0.07500000 5.70899187 1.78729872
v 0.92500000 5.67500000 1.34233938
v -2.15032889 5.73000000 1.17238003
v -2.15032889 5.62000000 1.17238003
v -1.62500000 5.64100813 0.89738003
v -1.62500000 5.70899187 0.89738003
v -2.15032889 5.73000000 1.51229872
v -2.15032889 5.62000000 1.51229872
v -1.62500000 5.64100813 1.78729872
v -1.62500000 5.70899187 1.78729872
v -2.47500000 5.67500000 1.34233938
v 0.00000000 6.15000000 0.00000000
v 0.00000000 6.15000000 0.13000000
v -3.10000000 5.20000000 0.13000000
v -3.10000000 5.20000000 0.00000000
v -0.02978017 6.24717738 0.08105367
v -3.12978017 5.29717738 0.08105367
v -0.03713526 6.27117821 -0.02892772
v -3.13713526 5.32117821 -0.02892772
v -0.01652675 6.20392938 -0.11712595
v -3.11652675 5.25392938 -0.11712595
v 0.01652675 6.09607062 -0.11712595
v -3.08347325 5.14607062 -0.11712595
v 0.03713526 6.02882179 -0.02892772
v -3.06286474 5.07882179 -0.02892772
v 0.02978017 6.05282262 0.08105367
v -3.07021983 5.10282262 0.08105367
v -2.44374289 5.76857159 0.00000000
v -0.65625711 5.76857159 0.00000000
v -2.44374289 5.58142841 0.00000000
v -0.65625711 5.58142841 0.00000000
v -1.55000000 5.61716958 0.46785794
v -1.55000000 5.73283042 0.46785794
v -1.55000000 5.61716958 -0.46785794
v -1.55000000 5.73283042 -0.46785794
v -0.10389363 5.67500000 -0.28915211
v -0.10389363 5.67500000 0.28915211
v -2.99610637 5.67500000 -0.28915211
v -2.99610637 5.67500000 0.28915211
v -1.55000000 5.78500000 0.00000000
v -1.55000000 5.56500000 0.00000000
v -2.07532889 5.58600813 0.27500000
v -1.02467111 5.58600813 0.27500000
v -2.07532889 5.76399187 0.27500000
v -1.02467111 5.76399187 0.27500000
v -1.55000000 5.67500000 0.55000000
v -2.07532889 5.58600813 -0.27500000
v -1.02467111 5.58600813 -0.27500000
v -2.07532889 5.76399187 -0.27500000
v -1.02467111 5.76399187 -0.27500000
v -1.55000000 5.67500000 -0.55000000
v -0.17467111 5.73000000 -0.16995935
v -0.17467111 5.62000000 -0.16995935
v -0.70000000 5.64100813 -0.44495935
v -0.70000000 5.70899187 -0.44495935
v -0.17467111 5.73000000 0.16995935
v -0.17467111 5.62000000 0.16995935
v -0.70000000 5.64100813 0.44495935
v -0.70000000 5.70899187 0.44495935
v 0.15000000 5.67500000 0.00000000
v -2.92532889 5.73000000 -0.16995935
v -2.92532889 5.62000000 -0.16995935
v -2.40000000 5.64100813 -0.44495935
v -2.40000000 5.70899187 -0.44495935
v -2.92532889 5.73000000 0.16995935
v -2.92532889 5.62000000 0.16995935
v -2.40000000 5.64100813 0.44495935
v -2.40000000 5.70899187 0.44495935
v -3.25000000 5.67500000 0.00000000
v 0.00000000 6.15000000 0.00000000
v -0.10764223 6.12866157 0.06969808
v -1.65764223 5.17866157 -2.61498067
v -1.55000000 5.20000000 -2.68467875
v -0.09689400 6.23243034 0.02677299
v -1.64689400 5.28243034 -2.65790576
v -0.01318261 6.27412738 -0.03631271
v -1.56318261 5.32412738 -2.72099146
v 0.08045555 6.22235397 -0.07205420
v -1.46954445 5.27235397 -2.75673295
v 0.11350904 6.11609655 -0.05353740
v -1.43649096 5.16609655 -2.73821616
v 0.06108791 6.03536912 0.00529415
v -1.48891209 5.08536912 -2.67938461
v -0.03733367 6.04096108 0.06013910
v -1.58733367 5.09096108 -2.62453965
v -1.66874289 5.76857159 -1.34233938
v 0.11874289 5.76857159 -1.34233938
v -1.66874289 5.58142841 -1.34233938
v 0.11874289 5.58142841 -1.34233938
v -0.77500000 5.61716958 -0.87448143
v -0.77500000 5.73283042 -0.87448143
v -0.77500000 5.61716958 -1.81019732
v -0.77500000 5.73283042 -1.81019732
v 0.67110637 5.67500000 -1.63149149
v 0.67110637 5.67500000 -1.05318726
v -2.22110637 5.67500000 -1.63149149
v -2.22110637 5.67500000 -1.05318726
v -0.77500000 5.78500000 -1.34233938
v -0.77500000 5.56500000 -1.34233938
v -1.30032889 5.58600813 -1.06733938
v -0.24967111 5.58600813 -1.06733938
v -1.30032889 5.76399187 -1.06733938
v -0.24967111 5.76399187 -1.06733938
v -0.77500000 5.67500000 -0.79233938
v -1.30032889 5.58600813 -1.61733938
v -0.24967111 5.58600813 -1.61733938
v -1.30032889 5.76399187 -1.61733938
v -0.24967111 5.76399187 -1.61733938
v -0.77500000 5.67500000 -1.89233938
v 0.60032889 5.73000000 -1.51229872
v 0.60032889 5.62000000 -1.51229872
v 0.07500000 5.64100813 -1.78729872
v 0.07500000 5.70899187 -1.78729872
v 0.60032889 5.73000000 -1.17238003
v 0.60032889 5.62000000 -1.17238003
v 0.07500000 5.64100813 -0.89738003
v 0.07500000 5.70899187 -0.89738003
v 0.92500000 5.67500000 -1.34233938
v -2.15032889 5.73000000 -1.51229872
v -2.15032889 5.62000000 -1.51229872
v -1.62500000 5.64100813 -1.78729872
v -1.62500000 5.70899187 -1.78729872
v -2.15032889 5.73000000 -1.17238003
v -2.15032889 5.62000000 -1.17238003
v -1.62500000 5.64100813 -0.89738003
v -1.62500000 5.70899187 -0.89738003
v -2.47500000 5.67500000 -1.34233938
v 0.00000000 6.15000000 -0.00000000
v -0.10764223 6.17133843 -0.06969808
v 1.44235777 5.22133843 -2.75437683
v 1.55000000 5.20000000 -2.68467875
v -0.03733367 6.25903892 -0.06013910
v 1.51266633 5.30903892 -2.74481785
v 0.06108791 6.26463088 -0.00529415
v 1.61108791 5.31463088 -2.68997290
v 0.11350904 6.18390345 0.05353740
v 1.66350904 5.23390345 -2.63114135
v 0.08045555 6.07764603 0.07205420
v 1.63045555 5.12764603 -2.61262455
v -0.01318261 6.02587262 0.03631271
v 1.53681739 5.07587262 -2.64836604
v -0.09689400 6.06756966 -0.02677299
v 1.45310600 5.11756966 -2.71145174
v -0.11874289 5.76857159 -1.34233938
v 1.66874289 5.76857159 -1.34233938
v -0.11874289 5.58142841 -1.34233938
v 1.66874289 5.58142841 -1.34233938
v 0.77500000 5.61716958 -0.87448143
v 0.77500000 5.73283042 -0.87448143
v 0.77500000 5.61716958 -1.81019732
v 0.77500000 5.73283042 -1.81019732
v 2.22110637 5.67500000 -1.63149149
v 2.22110637 5.67500000 -1.05318726
v -0.67110637 5.67500000 -1.63149149
v -0.67110637 5.67500000 -1.05318726
v 0.77500000 5.78500000 -1.34233938
v 0.77500000 5.56500000 -1.34233938
v 0.24967111 5.58600813 -1.06733938
v 1.30032889 5.58600813 -1.06733938
v 0.24967111 5.76399187 -1.06733938
v 1.30032889 5.76399187 -1.06733938
v 0.77500000 5.67500000 -0.79233938
v 0.24967111 5.58600813 -1.61733938
v 1.30032889 5.58600813 -1.61733938
v 0.24967111 5.76399187 -1.61733938
v 1.30032889 5.76399187 -1.61733938
v 0.77500000 5.67500000 -1.89233938
v 2.15032889 5.73000000 -1.51229872
v 2.15032889 5.62000000 -1.51229872
v 1.62500000 5.64100813 -1.78729872
v 1.62500000 5.70899187 -1.78729872
v 2.15032889 5.73000000 -1.17238003
v 2.15032889 5.62000000 -1.17238003
v 1.62500000 5.64100813 -0.89738003
v 1.62500000 5.70899187 -0.89738003
v 2.47500000 5.67500000 -1.34233938
v -0.60032889 5.73000000 -1.51229872
v -0.60032889 5.62000000 -1.51229872
v -0.07500000 5.64100813 -1.78729872
v -0.07500000 5.70899187 -1.78729872
v -0.60032889 5.73000000 -1.17238003
v -0.60032889 5.62000000 -1.17238003
v -0.07500000 5.64100813 -0.89738003
v -0.07500000 5.70899187 -0.89738003
v -0.92500000 5.67500000 -1.34233938
f 2 1 5
f 2 5 3
f 3 5 6
f 3 6 4
f 5 1 7
f 5 7 6
f 6 7 8
f 6 8 4
f 7 1 9
f 7 9 8
f 8 9 10
f 8 10 4
f 9 1 11
f 9 11 10
f 10 11 12
f 10 12 4
f 11 1 13
f 11 13 12
f 12 13 14
f 12 14 4
f 13 1 15
f 13 15 14
f 14 15 16
f 14 16 4
f 15 1 17
f 15 17 16
f 16 17 18
f 16 18 4
f 17 1 2
f 17 2 18
f 18 2 3
f 18 3 4
f 20 19 23
f 20 23 21
f 21 23 24
f 21 24 22
f 23 19 25
f 23 25 24
f 24 25 26
f 24 26 22
f 25 19 27
f 25 27 26
f 26 27 28
f 26 28 22
f 27 19 29
f 27 29 28
f 28 29 30
f 28 30 22
f 29 19 31
f 29 31 30
f 30 31 32
f 30 32 22
f 31 19 33
f 31 33 32
f 32 33 34
f 32 34 22
f 33 19 20
f 33 20 34
f 34 20 21
f 34 21 22
f 35 72 51
f 72 46 75
f 51 75 40
f 72 75 51
f 35 51 47
f 51 40 52
f 47 52 36
f 51 52 47
f 35 47 56
f 47 36 57
f 56 57 42
f 47 57 56
f 35 56 68
f 56 42 71
f 68 71 45
f 56 71 68
f 35 68 72
f 68 45 76
f 72 76 46
f 68 76 72
f 36 52 63
f 52 40 66
f 63 66 44
f 52 66 63
f 40 75 53
f 75 46 74
f 53 74 39
f 75 74 53
f 46 76 73
f 76 45 69
f 73 69 37
f 76 69 73
f 45 71 70
f 71 42 58
f 70 58 41
f 71 58 70
f 42 57 62
f 57 36 59
f 62 59 43
f 57 59 62
f 38 64 50
f 64 44 65
f 50 65 39
f 64 65 50
f 38 50 48
f 50 39 49
f 48 49 37
f 50 49 48
f 38 48 55
f 48 37 54
f 55 54 41
f 48 54 55
f 38 55 60
f 55 41 61
f 60 61 43
f 55 61 60
f 38 60 64
f 60 43 67
f 64 67 44
f 60 67 64
f 39 65 53
f 65 44 66
f 53 66 40
f 65 66 53
f 37 49 73
f 49 39 74
f 73 74 46
f 49 74 73
f 41 54 70
f 54 37 69
f 70 69 45
f 54 69 70
f 43 61 62
f 61 41 58
f 62 58 42
f 61 58 62
f 44 67 63
f 67 43 59
f 63 59 36
f 67 59 63
f 78 77 81
f 78 81 79
f 79 81 82
f 79 82 80
f 81 77 83
f 81 83 82
f 82 83 84
f 82 84 80
f 83 77 85
f 83 85 84
f 84 85 86
f 84 86 80
f 85 77 87
f 85 87 86
f 86 87 88
f 86 88 80
f 87 77 89
f 87 89 88
f 88 89 90
f 88 90 80
f 89 77 91
f 89 91 90
f 90 91 92
f 90 92 80
f 91 77 78
f 91 78 92
f 92 78 79
f 92 79 80
f 93 130 109
f 130 104 133
f 109 133 98
f 130 133 109
f 93 109 105
f 109 98 110
f 105 110 94
f 109 110 105
f 93 105 114
f 105 94 115
f 114 115 100
f 105 115 114
f 93 114 126
f 114 100 129
f 126 129 103
f 114 129 126
f 93 126 130
f 126 103 134
f 130 134 104
f 126 134 130
f 94 110 121
f 110 98 124
f 121 124 102
f 110 124 121
f 98 133 111
f 133 104 132
f 111 132 97
f 133 132 111
f 104 134 131
f 134 103 127
f 131 127 95
f 134 127 131
f 103 129 128
f 129 100 116
f 128 116 99
f 129 116 128
f 100 115 120
f 115 94 117
f 120 117 101
f 115 117 120
f 96 122 108
f 122 102 123
f 108 123 97
f 122 123 108
f 96 108 106
f 108 97 107
f 106 107 95
f 108 107 106
f 96 106 113
f 106 95 112
f 113 112 99
f 106 112 113
f 96 113 118
f 113 99 119
f 118 119 101
f 113 119 118
f 96 118 122
f 118 101 125
f 122 125 102
f 118 125 122
f 97 123 111
f 123 102 124
f 111 124 98
f 123 124 111
f 95 107 131
f 107 97 132
f 131 132 104
f 107 132 131
f 99 112 128
f 112 95 127
f 128 127 103
f 112 127 128
f 101 119 120
f 119 99 116
f 120 116 100
f 119 116 120
f 102 125 121
f 125 101 117
f 121 117 94
f 125 117 121
f 136 135 139
f 136 139 137
f 137 139 140
f 137 140 138
f 139 135 141
f 139 141 140
f 140 141 142
f 140 142 138
f 141 135 143
f 141 143 142
f 142 143 144
f 142 144 138
f 143 135 145
f 143 145 144
f 144 145 146
f 144 146 138
f 145 135 147
f 145 147 146
f 146 147 148
f 146 148 138
f 147 135 149
f 147 149 148
f 148 149 150
f 148 150 138
f 149 135 136
f 149 136 150
f 150 136 137
f 150 137 138
f 151 188 167
f 188 162 191
f 167 191 156
f 188 191 167
f 151 167 163
f 167 156 168
f 163 168 152
f 167 168 163
f 151 163 172
f 163 152 173
f 172 173 158
f 163 173 172
f 151 172 184
f 172 158 187
f 184 187 161
f 172 187 184
f 151 184 188
f 184 161 192
f 188 192 162
f 184 192 188
f 152 168 179
f 168 156 182
f 179 182 160
f 168 182 179
f 156 191 169
f 191 162 190
f 169 190 155
f 191 190 169
f 162 192 189
f 192 161 185
f 189 185 153
f 192 185 189
f 161 187 186
f 187 158 174
f 186 174 157
f 187 174 186
f 158 173 178
f 173 152 175
f 178 175 159
f 173 175 178
f 154 180 166
f 180 160 181
f 166 181 155
f 180 181 166
f 154 166 164
f 166 155 165
f 164 165 153
f 166 165 164
f 154 164 171
f 164 153 170
f 171 170 157
f 164 170 171
f 154 171 176
f 171 157 177
f 176 177 159
f 171 177 176
f 154 176 180
f 176 159 183
f 180 183 160
f 176 183 180
f 155 181 169
f 181 160 182
f 169 182 156
f 181 182 169
f 153 165 189
f 165 155 190
f 189 190 162
f 165 190 189
f 157 170 186
f 170 153 185
f 186 185 161
f 170 185 186
f 159 177 178
f 177 157 174
f 178 174 158
f 177 174 178
f 160 183 179
f 183 159 175
f 179 175 152
f 183 175 179
f 194 193 197
f 194 197 195
f 195 197 198
f 195 198 196
f 197 193 199
f 197 199 198
f 198 199 200
f 198 200 196
f 199 193 201
f 199 201 200
f 200 201 202
f 200 202 196
f 201 193 203
f 201 203 202
f 202 203 204
f 202 204 196
f 203 193 205
f 203 205 204
f 204 205 206
f 204 206 196
f 205 193 207
f 205 207 206
f 206 207 208
f 206 208 196
f 207 193 194
f 207 194 208
f 208 194 195
f 208 195 196
f 209 246 225
f 246 220 249
f 225 249 214
f 246 249 225
f 209 225 221
f 225 214 226
f 221 226 210
f 225 226 221
f 209 221 230
f 221 210 231
f 230 231 216
f 221 231 230
f 209 230 242
f 230 216 245
f 242 245 219
f 230 245 242
f 209 242 246
f 242 219 250
f 246 250 220
f 242 250 246
f 210 226 237
f 226 214 240
f 237 240 218
f 226 240 237
f 214 249 227
f 249 220 248
f 227 248 213
f 249 248 227
f 220 250 247
f 250 219 243
f 247 243 211
f 250 243 247
f 219 245 244
f 245 216 232
f 244 232 215
f 245 232 244
f 216 231 236
f 231 210 233
f 236 233 217
f 231 233 236
f 212 238 224
f 238 218 239
f 224 239 213
f 238 239 224
f 212 224 222
f 224 213 223
f 222 223 211
f 224 223 222
f 212 222 229
f 222 211 228
f 229 228 215
f 222 228 229
f 212 229 234
f 229 215 235
f 234 235 217
f 229 235 234
f 212 234 238
f 234 217 241
f 238 241 218
f 234 241 238
f 213 239 227
f 239 218 240
f 227 240 214
f 239 240 227
f 211 223 247
f 223 213 248
f 247 248 220
f 223 248 247
f 215 228 244
f 228 211 243
f 244 243 219
f 228 243 244
f 217 235 236
f 235 215 232
f 236 232 216
f 235 232 236
f 218 241 237
f 241 217 233
f 237 233 210
f 241 233 237
f 252 251 255
f 252 255 253
f 253 255 256
f 253 256 254
f 255 251 257
f 255 257 256
f 256 257 258
f 256 258 254
f 257 251 259
f 257 259 258
f 258 259 260
f 258 260 254
f 259 251 261
f 259 261 260
f 260 261 262
f 260 262 254
f 261 251 263
f 261 263 262
f 262 263 264
f 262 264 254
f 263 251 265
f 263 265 264
f 264 265 266
f 264 266 254
f 265 251 252
f 265 252 266
f 266 252 253
f 266 253 254
f 267 304 283
f 304 278 307
f 283 307 272
f 304 307 283
f 267 283 279
f 283 272 284
f 279 284 268
f 283 284 279
f 267 279 288
f 279 268 289
f 288 289 274
f 279 289 288
f 267 288 300
f 288 274 303
f 300 303 277
f 288 303 300
f 267 300 304
f 300 277 308
f 304 308 278
f 300 308 304
f 268 284 295
f 284 272 298
f 295 298 276
f 284 298 295
f 272 307 285
f 307 278 306
f 285 306 271
f 307 306 285
f 278 308 305
f 308 277 301
f 305 301 269
f 308 301 305
f 277 303 302
f 303 274 290
f 302 290 273
f 303 290 302
f 274 289 294
f 289 268 291
f 294 291 275
f 289 291 294
f 270 296 282
f 296 276 297
f 282 297 271
f 296 297 282
f 270 282 280
f 282 271 281
f 280 281 269
f 282 281 280
f 270 280 287
f 280 269 286
f 287 286 273
f 280 286 287
f 270 287 292
f 287 273 293
f 292 293 275
f 287 293 292
f 270 292 296
f 292 275 299
f 296 299 276
f 292 299 296
f 271 297 285
f 297 276 298
f 285 298 272
f 297 298 285
f 269 281 305
f 281 271 306
f 305 306 278
f 281 306 305
f 273 286 302
f 286 269 301
f 302 301 277
f 286 301 302
f 275 293 294
f 293 273 290
f 294 290 274
f 293 290 294
f 276 299 295
f 299 275 291
f 295 291 268
f 299 291 295
f 310 309 313
f 310 313 311
f 311 313 314
f 311 314 312
f 313 309 315
f 313 315 314
f 314 315 316
f 314 316 312
f 315 309 317
f 315 317 316
f 316 317 318
f 316 318 312
f 317 309 319
f 317 319 318
f 318 319 320
f 318 320 312
f 319 309 321
f 319 321 320
f 320 321 322
f 320 322 312
f 321 309 323
f 321 323 322
f 322 323 324
f 322 324 312
f 323 309 310
f 323 310 324
f 324 310 311
f 324 311 312
f 325 362 341
f 362 336 365
f 341 365 330
f 362 365 341
f 325 341 337
f 341 330 342
f 337 342 326
f 341 342 337
f 325 337 346
f 337 326 347
f 346 347 332
f 337 347 346
f 325 346 358
f 346 332 361
f 358 361 335
f 346 361 358
f 325 358 362
f 358 335 366
f 362 366 336
f 358 366 362
f 326 342 353
f 342 330 356
f 353 356 334
f 342 356 353
f 330 365 343
f 365 336 364
f 343 364 329
f 365 364 343
f 336 366 363
f 366 335 359
f 363 359 327
f 366 359 363
f 335 361 360
f 361 332 348
f 360 348 331
f 361 348 360
f 332 347 352
f 347 326 349
f 352 349 333
f 347 349 352
f 328 354 340
f 354 334 355
f 340 355 329
f 354 355 340
f 328 340 338
f 340 329 339
f 338 339 327
f 340 339 338
f 328 338 345
f 338 327 344
f 345 344 331
f 338 344 345
f 328 345 350
f 345 331 351
f 350 351 333
f 345 351 350
f 328 350 354
f 350 333 357
f 354 357 334
f 350 357 354
f 329 355 343
f 355 334 356
f 343 356 330
f 355 356 343
f 327 339 363
f 339 329 364
f 363 364 336
f 339 364 363
f 331 344 360
f 344 327 359
f 360 359 335
f 344 359 360
f 333 351 352
f 351 331 348
f 352 348 332
f 351 348 352
f 334 357 353
f 357 333 349
f 353 349 326
f 357 349 353

