# https://github.com/mikedh/trimesh
v -1.70000000 2.20000000 -0.00000000
v -1.64500000 2.20000000 -0.00000000
v -1.64500000 0.00000000 0.00000000
v -1.70000000 0.00000000 0.00000000
v -1.67250000 2.20000000 0.04763140
v -1.67250000 0.00000000 0.04763140
v -1.72750000 2.20000000 0.04763140
v -1.72750000 0.00000000 0.04763140
v -1.75500000 2.20000000 -0.00000000
v -1.75500000 0.00000000 0.00000000
v -1.72750000 2.20000000 -0.04763140
v -1.72750000 0.00000000 -0.04763140
v -1.67250000 2.20000000 -0.04763140
v -1.67250000 0.00000000 -0.04763140
v -1.66720471 1.64354556 0.00000000
v -1.37279529 1.64354556 0.00000000
v -1.66720471 1.52445444 0.00000000
v -1.37279529 1.52445444 0.00000000
v -1.52000000 1.54719882 0.06805206
v -1.52000000 1.62080118 0.06805206
v -1.52000000 1.54719882 -0.06805206
v -1.52000000 1.62080118 -0.06805206
v -1.28181777 1.58400000 -0.04205849
v -1.28181777 1.58400000 0.04205849
v -1.75818223 1.58400000 -0.04205849
v -1.75818223 1.58400000 0.04205849
v -1.52000000 1.65400000 0.00000000
v -1.52000000 1.51400000 0.00000000
v -1.60652476 1.52736881 0.04000000
v -1.43347524 1.52736881 0.04000000
v -1.60652476 1.64063119 0.04000000
v -1.43347524 1.64063119 0.04000000
v -1.52000000 1.58400000 0.08000000
v -1.60652476 1.52736881 -0.04000000
v -1.43347524 1.52736881 -0.04000000
v -1.60652476 1.64063119 -0.04000000
v -1.43347524 1.64063119 -0.04000000
v -1.52000000 1.58400000 -0.08000000
v -1.29347524 1.61900000 -0.02472136
v -1.29347524 1.54900000 -0.02472136
v -1.38000000 1.56236881 -0.06472136
v -1.38000000 1.60563119 -0.06472136
v -1.29347524 1.61900000 0.02472136
v -1.29347524 1.54900000 0.02472136
v -1.38000000 1.56236881 0.06472136
v -1.38000000 1.60563119 0.06472136
v -1.24000000 1.58400000 0.00000000
v -1.74652476 1.61900000 -0.02472136
v -1.74652476 1.54900000 -0.02472136
v -1.66000000 1.56236881 -0.06472136
v -1.66000000 1.60563119 -0.06472136
v -1.74652476 1.61900000 0.02472136
v -1.74652476 1.54900000 0.02472136
v -1.66000000 1.56236881 0.06472136
v -1.66000000 1.60563119 0.06472136
v -1.80000000 1.58400000 0.00000000
v -1.27500000 2.55000000 0.34985076
v -1.22000000 2.55000000 0.34985076
v -1.22000000 0.00000000 0.34985076
v -1.27500000 0.00000000 0.34985076
v -1.24750000 2.55000000 0.39748216
v -1.24750000 0.00000000 0.39748216
v -1.30250000 2.55000000 0.39748216
v -1.30250000 0.00000000 0.39748216
v -1.33000000 2.55000000 0.34985076
v -1.33000000 0.00000000 0.34985076
v -1.30250000 2.55000000 0.30221936
v -1.30250000 0.00000000 0.30221936
v -1.24750000 2.55000000 0.30221936
v -1.24750000 0.00000000 0.30221936
v -1.24220471 1.89554556 0.34985076
v -0.94779529 1.89554556 0.34985076
v -1.24220471 1.77645444 0.34985076
v -0.94779529 1.77645444 0.34985076
v -1.09500000 1.79919882 0.41790283
v -1.09500000 1.87280118 0.41790283
v -1.09500000 1.79919882 0.28179870
v -1.09500000 1.87280118 0.28179870
v -0.85681777 1.83600000 0.30779227
v -0.85681777 1.83600000 0.39190925
v -1.33318223 1.83600000 0.30779227
v -1.33318223 1.83600000 0.39190925
v -1.09500000 1.90600000 0.34985076
v -1.09500000 1.76600000 0.34985076
v -1.18152476 1.77936881 0.38985076
v -1.00847524 1.77936881 0.38985076
v -1.18152476 1.89263119 0.38985076
v -1.00847524 1.89263119 0.38985076
v -1.09500000 1.83600000 0.42985076
v -1.18152476 1.77936881 0.30985076
v -1.00847524 1.77936881 0.30985076
v -1.18152476 1.89263119 0.30985076
v -1.00847524 1.89263119 0.30985076
v -1.09500000 1.83600000 0.26985076
v -0.86847524 1.87100000 0.32512940
v -0.86847524 1.80100000 0.32512940
v -0.95500000 1.81436881 0.28512940
v -0.95500000 1.85763119 0.28512940
v -0.86847524 1.87100000 0.37457212
v -0.86847524 1.80100000 0.37457212
v -0.95500000 1.81436881 0.41457212
v -0.95500000 1.85763119 0.41457212
v -0.81500000 1.83600000 0.34985076
v -1.32152476 1.87100000 0.32512940
v -1.32152476 1.80100000 0.32512940
v -1.23500000 1.81436881 0.28512940
v -1.23500000 1.85763119 0.28512940
v -1.32152476 1.87100000 0.37457212
v -1.32152476 1.80100000 0.37457212
v -1.23500000 1.81436881 0.41457212
v -1.23500000 1.85763119 0.41457212
v -1.37500000 1.83600000 0.34985076
v -0.85000000 2.90000000 -0.02043095
v -0.79500000 2.90000000 -0.02043095
v -0.79500000 0.00000000 -0.02043095
v -0.85000000 0.00000000 -0.02043095
v -0.82250000 2.90000000 0.02720045
v -0.82250000 0.00000000 0.02720045
v -0.87750000 2.90000000 0.02720045
v -0.87750000 0.00000000 0.02720045
v -0.90500000 2.90000000 -0.02043095
v -0.90500000 0.00000000 -0.02043095
v -0.87750000 2.90000000 -0.06806235
v -0.87750000 0.00000000 -0.06806235
v -0.82250000 2.90000000 -0.06806235
v -0.82250000 0.00000000 -0.06806235
v -0.81720471 2.14754556 -0.02043095
v -0.52279529 2.14754556 -0.02043095
v -0.81720471 2.02845444 -0.02043095
v -0.52279529 2.02845444 -0.02043095
v -0.67000000 2.05119882 0.04762111
v -0.67000000 2.12480118 0.04762111
v -0.67000000 2.05119882 -0.08848301
v -0.67000000 2.12480118 -0.08848301
v -0.43181777 2.08800000 -0.06248944
v -0.43181777 2.08800000 0.02162754
v -0.90818223 2.08800000 -0.06248944
v -0.90818223 2.08800000 0.02162754
v -0.67000000 2.15800000 -0.02043095
v -0.67000000 2.01800000 -0.02043095
v -0.75652476 2.03136881 0.01956905
v -0.58347524 2.03136881 0.01956905
v -0.75652476 2.14463119 0.01956905
v -0.58347524 2.14463119 0.01956905
v -0.67000000 2.08800000 0.05956905
v -0.75652476 2.03136881 -0.06043095
v -0.58347524 2.03136881 -0.06043095
v -0.75652476 2.14463119 -0.06043095
v -0.58347524 2.14463119 -0.06043095
v -0.67000000 2.08800000 -0.10043095
v -0.44347524 2.12300000 -0.04515231
v -0.44347524 2.05300000 -0.04515231
v -0.53000000 2.06636881 -0.08515231
v -0.53000000 2.10963119 -0.08515231
v -0.44347524 2.12300000 0.00429041
v -0.44347524 2.05300000 0.00429041
v -0.53000000 2.06636881 0.04429041
v -0.53000000 2.10963119 0.04429041
v -0.39000000 2.08800000 -0.02043095
v -0.89652476 2.12300000 -0.04515231
v -0.89652476 2.05300000 -0.04515231
v -0.81000000 2.06636881 -0.08515231
v -0.81000000 2.10963119 -0.08515231
v -0.89652476 2.12300000 0.00429041
v -0.89652476 2.05300000 0.00429041
v -0.81000000 2.06636881 0.04429041
v -0.81000000 2.10963119 0.04429041
v -0.95000000 2.08800000 -0.02043095
v -0.42500000 2.20000000 -0.34865761
v -0.37000000 2.20000000 -0.34865761
v -0.37000000 0.00000000 -0.34865761
v -0.42500000 0.00000000 -0.34865761
v -0.39750000 2.20000000 -0.30102622
v -0.39750000 0.00000000 -0.30102622
v -0.45250000 2.20000000 -0.30102622
v -0.45250000 0.00000000 -0.30102622
v -0.48000000 2.20000000 -0.34865761
v -0.48000000 0.00000000 -0.34865761
v -0.45250000 2.20000000 -0.39628901
v -0.45250000 0.00000000 -0.39628901
v -0.39750000 2.20000000 -0.39628901
v -0.39750000 0.00000000 -0.39628901
v -0.39220471 1.64354556 -0.34865761
v -0.09779529 1.64354556 -0.34865761
v -0.39220471 1.52445444 -0.34865761
v -0.09779529 1.52445444 -0.34865761
v -0.24500000 1.54719882 -0.28060555
v -0.24500000 1.62080118 -0.28060555
v -0.24500000 1.54719882 -0.41670968
v -0.24500000 1.62080118 -0.41670968
v -0.00681777 1.58400000 -0.39071610
v -0.00681777 1.58400000 -0.30659912
v -0.48318223 1.58400000 -0.39071610
v -0.48318223 1.58400000 -0.30659912
v -0.24500000 1.65400000 -0.34865761
v -0.24500000 1.51400000 -0.34865761
v -0.33152476 1.52736881 -0.30865761
v -0.15847524 1.52736881 -0.30865761
v -0.33152476 1.64063119 -0.30865761
v -0.15847524 1.64063119 -0.30865761
v -0.24500000 1.58400000 -0.26865761
v -0.33152476 1.52736881 -0.38865761
v -0.15847524 1.52736881 -0.38865761
v -0.33152476 1.64063119 -0.38865761
v -0.15847524 1.64063119 -0.38865761
v -0.24500000 1.58400000 -0.42865761
v -0.01847524 1.61900000 -0.37337897
v -0.01847524 1.54900000 -0.37337897
v -0.10500000 1.56236881 -0.41337897
v -0.10500000 1.60563119 -0.41337897
v -0.01847524 1.61900000 -0.32393625
v -0.01847524 1.54900000 -0.32393625
v -0.10500000 1.56236881 -0.28393625
v -0.10500000 1.60563119 -0.28393625
v 0.03500000 1.58400000 -0.34865761
v -0.47152476 1.61900000 -0.37337897
v -0.47152476 1.54900000 -0.37337897
v -0.38500000 1.56236881 -0.41337897
v -0.38500000 1.60563119 -0.41337897
v -0.47152476 1.61900000 -0.32393625
v -0.47152476 1.54900000 -0.32393625
v -0.38500000 1.56236881 -0.28393625
v -0.38500000 1.60563119 -0.28393625
v -0.52500000 1.58400000 -0.34865761
v 0.00000000 2.55000000 0.04079222
v 0.05500000 2.55000000 0.04079222
v 0.05500000 0.00000000 0.04079222
v 0.00000000 0.00000000 0.04079222
v 0.02750000 2.55000000 0.08842362
v 0.02750000 0.00000000 0.08842362
v -0.02750000 2.55000000 0.08842362
v -0.02750000 0.00000000 0.08842362
v -0.05500000 2.55000000 0.04079222
v -0.05500000 0.00000000 0.04079222
v -0.02750000 2.55000000 -0.00683918
v -0.02750000 0.00000000 -0.00683918
v 0.02750000 2.55000000 -0.00683918
v 0.02750000 0.00000000 -0.00683918
v 0.03279529 1.89554556 0.04079222
v 0.32720471 1.89554556 0.04079222
v 0.03279529 1.77645444 0.04079222
v 0.32720471 1.77645444 0.04079222
v 0.18000000 1.79919882 0.10884429
v 0.18000000 1.87280118 0.10884429
v 0.18000000 1.79919882 -0.02725984
v 0.18000000 1.87280118 -0.02725984
v 0.41818223 1.83600000 -0.00126627
v 0.41818223 1.83600000 0.08285071
v -0.05818223 1.83600000 -0.00126627
v -0.05818223 1.83600000 0.08285071
v 0.18000000 1.90600000 0.04079222
v 0.18000000 1.76600000 0.04079222
v 0.09347524 1.77936881 0.08079222
v 0.26652476 1.77936881 0.08079222
v 0.09347524 1.89263119 0.08079222
v 0.26652476 1.89263119 0.08079222
v 0.18000000 1.83600000 0.12079222
v 0.09347524 1.77936881 0.00079222
v 0.26652476 1.77936881 0.00079222
v 0.09347524 1.89263119 0.00079222
v 0.26652476 1.89263119 0.00079222
v 0.18000000 1.83600000 -0.03920778
v 0.40652476 1.87100000 0.01607086
v 0.40652476 1.80100000 0.01607086
v 0.32000000 1.81436881 -0.02392914
v 0.32000000 1.85763119 -0.02392914
v 0.40652476 1.87100000 0.06551358
v 0.40652476 1.80100000 0.06551358
v 0.32000000 1.81436881 0.10551358
v 0.32000000 1.85763119 0.10551358
v 0.46000000 1.83600000 0.04079222
v -0.04652476 1.87100000 0.01607086
v -0.04652476 1.80100000 0.01607086
v 0.04000000 1.81436881 -0.02392914
v 0.04000000 1.85763119 -0.02392914
v -0.04652476 1.87100000 0.06551358
v -0.04652476 1.80100000 0.06551358
v 0.04000000 1.81436881 0.10551358
v 0.04000000 1.85763119 0.10551358
v -0.10000000 1.83600000 0.04079222
v 0.42500000 2.90000000 0.34627539
v 0.48000000 2.90000000 0.34627539
v 0.48000000 0.00000000 0.34627539
v 0.42500000 0.00000000 0.34627539
v 0.45250000 2.90000000 0.39390678
v 0.45250000 0.00000000 0.39390678
v 0.39750000 2.90000000 0.39390678
v 0.39750000 0.00000000 0.39390678
v 0.37000000 2.90000000 0.34627539
v 0.37000000 0.00000000 0.34627539
v 0.39750000 2.90000000 0.29864399
v 0.39750000 0.00000000 0.29864399
v 0.45250000 2.90000000 0.29864399
v 0.45250000 0.00000000 0.29864399
v 0.45779529 2.14754556 0.34627539
v 0.75220471 2.14754556 0.34627539
v 0.45779529 2.02845444 0.34627539
v 0.75220471 2.02845444 0.34627539
v 0.60500000 2.05119882 0.41432745
v 0.60500000 2.12480118 0.41432745
v 0.60500000 2.05119882 0.27822332
v 0.60500000 2.12480118 0.27822332
v 0.84318223 2.08800000 0.30421690
v 0.84318223 2.08800000 0.38833388
v 0.36681777 2.08800000 0.30421690
v 0.36681777 2.08800000 0.38833388
v 0.60500000 2.15800000 0.34627539
v 0.60500000 2.01800000 0.34627539
v 0.51847524 2.03136881 0.38627539
v 0.69152476 2.03136881 0.38627539
v 0.51847524 2.14463119 0.38627539
v 0.69152476 2.14463119 0.38627539
v 0.60500000 2.08800000 0.42627539
v 0.51847524 2.03136881 0.30627539
v 0.69152476 2.03136881 0.30627539
v 0.51847524 2.14463119 0.30627539
v 0.69152476 2.14463119 0.30627539
v 0.60500000 2.08800000 0.26627539
v 0.83152476 2.12300000 0.32155403
v 0.83152476 2.05300000 0.32155403
v 0.74500000 2.06636881 0.28155403
v 0.74500000 2.10963119 0.28155403
v 0.83152476 2.12300000 0.37099675
v 0.83152476 2.05300000 0.37099675
v 0.74500000 2.06636881 0.41099675
v 0.74500000 2.10963119 0.41099675
v 0.88500000 2.08800000 0.34627539
v 0.37847524 2.12300000 0.32155403
v 0.37847524 2.05300000 0.32155403
v 0.46500000 2.06636881 0.28155403
v 0.46500000 2.10963119 0.28155403
v 0.37847524 2.12300000 0.37099675
v 0.37847524 2.05300000 0.37099675
v 0.46500000 2.06636881 0.41099675
v 0.46500000 2.10963119 0.41099675
v 0.32500000 2.08800000 0.34627539
v 0.85000000 2.20000000 -0.06101437
v 0.90500000 2.20000000 -0.06101437
v 0.90500000 0.00000000 -0.06101437
v 0.85000000 0.00000000 -0.06101437
v 0.87750000 2.20000000 -0.01338298
v 0.87750000 0.00000000 -0.01338298
v 0.82250000 2.20000000 -0.01338298
v 0.82250000 0.00000000 -0.01338298
v 0.79500000 2.20000000 -0.06101437
v 0.79500000 0.00000000 -0.06101437
v 0.82250000 2.20000000 -0.10864577
v 0.82250000 0.00000000 -0.10864577
v 0.87750000 2.20000000 -0.10864577
v 0.87750000 0.00000000 -0.10864577
v 0.88279529 1.64354556 -0.06101437
v 1.17720471 1.64354556 -0.06101437
v 0.88279529 1.52445444 -0.06101437
v 1.17720471 1.52445444 -0.06101437
v 1.03000000 1.54719882 0.00703769
v 1.03000000 1.62080118 0.00703769
v 1.03000000 1.54719882 -0.12906644
v 1.03000000 1.62080118 -0.12906644
v 1.26818223 1.58400000 -0.10307286
v 1.26818223 1.58400000 -0.01895588
v 0.79181777 1.58400000 -0.10307286
v 0.79181777 1.58400000 -0.01895588
v 1.03000000 1.65400000 -0.06101437
v 1.03000000 1.51400000 -0.06101437
v 0.94347524 1.52736881 -0.02101437
v 1.11652476 1.52736881 -0.02101437
v 0.94347524 1.64063119 -0.02101437
v 1.11652476 1.64063119 -0.02101437
v 1.03000000 1.58400000 0.01898563
v 0.94347524 1.52736881 -0.10101437
v 1.11652476 1.52736881 -0.10101437
v 0.94347524 1.64063119 -0.10101437
v 1.11652476 1.64063119 -0.10101437
v 1.03000000 1.58400000 -0.14101437
v 1.25652476 1.61900000 -0.08573573
v 1.25652476 1.54900000 -0.08573573
v 1.17000000 1.56236881 -0.12573573
v 1.17000000 1.60563119 -0.12573573
v 1.25652476 1.61900000 -0.03629301
v 1.25652476 1.54900000 -0.03629301
v 1.17000000 1.56236881 0.00370699
v 1.17000000 1.60563119 0.00370699
v 1.31000000 1.58400000 -0.06101437
v 0.80347524 1.61900000 -0.08573573
v 0.80347524 1.54900000 -0.08573573
v 0.89000000 1.56236881 -0.12573573
v 0.89000000 1.60563119 -0.12573573
v 0.80347524 1.61900000 -0.03629301
v 0.80347524 1.54900000 -0.03629301
v 0.89000000 1.56236881 0.00370699
v 0.89000000 1.60563119 0.00370699
v 0.75000000 1.58400000 -0.06101437
v 1.27500000 2.55000000 -0.34271221
v 1.33000000 2.55000000 -0.34271221
v 1.33000000 0.00000000 -0.34271221
v 1.27500000 0.00000000 -0.34271221
v 1.30250000 2.55000000 -0.29508081
v 1.30250000 0.00000000 -0.29508081
v 1.24750000 2.55000000 -0.29508081
v 1.24750000 0.00000000 -0.29508081
v 1.22000000 2.55000000 -0.34271221
v 1.22000000 0.00000000 -0.34271221
v 1.24750000 2.55000000 -0.39034360
v 1.24750000 0.00000000 -0.39034360
v 1.30250000 2.55000000 -0.39034360
v 1.30250000 0.00000000 -0.39034360
v 1.30779529 1.89554556 -0.34271221
v 1.60220471 1.89554556 -0.34271221
v 1.30779529 1.77645444 -0.34271221
v 1.60220471 1.77645444 -0.34271221
v 1.45500000 1.79919882 -0.27466014
v 1.45500000 1.87280118 -0.27466014
v 1.45500000 1.79919882 -0.41076427
v 1.45500000 1.87280118 -0.41076427
v 1.69318223 1.83600000 -0.38477069
v 1.69318223 1.83600000 -0.30065372
v 1.21681777 1.83600000 -0.38477069
v 1.21681777 1.83600000 -0.30065372
v 1.45500000 1.90600000 -0.34271221
v 1.45500000 1.76600000 -0.34271221
v 1.36847524 1.77936881 -0.30271221
v 1.54152476 1.77936881 -0.30271221
v 1.36847524 1.89263119 -0.30271221
v 1.54152476 1.89263119 -0.30271221
v 1.45500000 1.83600000 -0.26271221
v 1.36847524 1.77936881 -0.38271221
v 1.54152476 1.77936881 -0.38271221
v 1.36847524 1.89263119 -0.38271221
v 1.54152476 1.89263119 -0.38271221
v 1.45500000 1.83600000 -0.42271221
v 1.68152476 1.87100000 -0.36743356
v 1.68152476 1.80100000 -0.36743356
v 1.59500000 1.81436881 -0.40743356
v 1.59500000 1.85763119 -0.40743356
v 1.68152476 1.87100000 -0.31799085
v 1.68152476 1.80100000 -0.31799085
v 1.59500000 1.81436881 -0.27799085
v 1.59500000 1.85763119 -0.27799085
v 1.73500000 1.83600000 -0.34271221
v 1.22847524 1.87100000 -0.36743356
v 1.22847524 1.80100000 -0.36743356
v 1.31500000 1.81436881 -0.40743356
v 1.31500000 1.85763119 -0.40743356
v 1.22847524 1.87100000 -0.31799085
v 1.22847524 1.80100000 -0.31799085
v 1.31500000 1.81436881 -0.27799085
v 1.31500000 1.85763119 -0.27799085
v 1.17500000 1.83600000 -0.34271221
v 1.70000000 2.90000000 0.08102844
v 1.75500000 2.90000000 0.08102844
v 1.75500000 0.00000000 0.08102844
v 1.70000000 0.00000000 0.08102844
v 1.72750000 2.90000000 0.12865984
v 1.72750000 0.00000000 0.12865984
v 1.67250000 2.90000000 0.12865984
v 1.67250000 0.00000000 0.12865984
v 1.64500000 2.90000000 0.08102844
v 1.64500000 0.00000000 0.08102844
v 1.67250000 2.90000000 0.03339704
v 1.67250000 0.00000000 0.03339704
v 1.72750000 2.90000000 0.03339704
v 1.72750000 0.00000000 0.03339704
v 1.73279529 2.14754556 0.08102844
v 2.02720471 2.14754556 0.08102844
v 1.73279529 2.02845444 0.08102844
v 2.02720471 2.02845444 0.08102844
v 1.88000000 2.05119882 0.14908050
v 1.88000000 2.12480118 0.14908050
v 1.88000000 2.05119882 0.01297637
v 1.88000000 2.12480118 0.01297637
v 2.11818223 2.08800000 0.03896995
v 2.11818223 2.08800000 0.12308693
v 1.64181777 2.08800000 0.03896995
v 1.64181777 2.08800000 0.12308693
v 1.88000000 2.15800000 0.08102844
v 1.88000000 2.01800000 0.08102844
v 1.79347524 2.03136881 0.12102844
v 1.96652476 2.03136881 0.12102844
v 1.79347524 2.14463119 0.12102844
v 1.96652476 2.14463119 0.12102844
v 1.88000000 2.08800000 0.16102844
v 1.79347524 2.03136881 0.04102844
v 1.96652476 2.03136881 0.04102844
v 1.79347524 2.14463119 0.04102844
v 1.96652476 2.14463119 0.04102844
v 1.88000000 2.08800000 0.00102844
v 2.10652476 2.12300000 0.05630708
v 2.10652476 2.05300000 0.05630708
v 2.02000000 2.06636881 0.01630708
v 2.02000000 2.10963119 0.01630708
v 2.10652476 2.12300000 0.10574980
v 2.10652476 2.05300000 0.10574980
v 2.02000000 2.06636881 0.14574980
v 2.02000000 2.10963119 0.14574980
v 2.16000000 2.08800000 0.08102844
v 1.65347524 2.12300000 0.05630708
v 1.65347524 2.05300000 0.05630708
v 1.74000000 2.06636881 0.01630708
v 1.74000000 2.10963119 0.01630708
v 1.65347524 2.12300000 0.10574980
v 1.65347524 2.05300000 0.10574980
v 1.74000000 2.06636881 0.14574980
v 1.74000000 2.10963119 0.14574980
v 1.60000000 2.08800000 0.08102844
f 2 1 5
f 2 5 3
f 3 5 6
f 3 6 4
f 5 1 7
f 5 7 6
f 6 7 8
f 6 8 4
f 7 1 9
f 7 9 8
f 8 9 10
f 8 10 4
f 9 1 11
f 9 11 10
f 10 11 12
f 10 12 4
f 11 1 13
f 11 13 12
f 12 13 14
f 12 14 4
f 13 1 2
f 13 2 14
f 14 2 3
f 14 3 4
f 15 52 31
f 52 26 55
f 31 55 20
f 52 55 31
f 15 31 27
f 31 20 32
f 27 32 16
f 31 32 27
f 15 27 36
f 27 16 37
f 36 37 22
f 27 37 36
f 15 36 48
f 36 22 51
f 48 51 25
f 36 51 48
f 15 48 52
f 48 25 56
f 52 56 26
f 48 56 52
f 16 32 43
f 32 20 46
f 43 46 24
f 32 46 43
f 20 55 33
f 55 26 54
f 33 54 19
f 55 54 33
f 26 56 53
f 56 25 49
f 53 49 17
f 56 49 53
f 25 51 50
f 51 22 38
f 50 38 21
f 51 38 50
f 22 37 42
f 37 16 39
f 42 39 23
f 37 39 42
f 18 44 30
f 44 24 45
f 30 45 19
f 44 45 30
f 18 30 28
f 30 19 29
f 28 29 17
f 30 29 28
f 18 28 35
f 28 17 34
f 35 34 21
f 28 34 35
f 18 35 40
f 35 21 41
f 40 41 23
f 35 41 40
f 18 40 44
f 40 23 47
f 44 47 24
f 40 47 44
f 19 45 33
f 45 24 46
f 33 46 20
f 45 46 33
f 17 29 53
f 29 19 54
f 53 54 26
f 29 54 53
f 21 34 50
f 34 17 49
f 50 49 25
f 34 49 50
f 23 41 42
f 41 21 38
f 42 38 22
f 41 38 42
f 24 47 43
f 47 23 39
f 43 39 16
f 47 39 43
f 58 57 61
f 58 61 59
f 59 61 62
f 59 62 60
f 61 57 63
f 61 63 62
f 62 63 64
f 62 64 60
f 63 57 65
f 63 65 64
f 64 65 66
f 64 66 60
f 65 57 67
f 65 67 66
f 66 67 68
f 66 68 60
f 67 57 69
f 67 69 68
f 68 69 70
f 68 70 60
f 69 57 58
f 69 58 70
f 70 58 59
f 70 59 60
f 71 108 87
f 108 82 111
f 87 111 76
f 108 111 87
f 71 87 83
f 87 76 88
f 83 88 72
f 87 88 83
f 71 83 92
f 83 72 93
f 92 93 78
f 83 93 92
f 71 92 104
f 92 78 107
f 104 107 81
f 92 107 104
f 71 104 108
f 104 81 112
f 108 112 82
f 104 112 108
f 72 88 99
f 88 76 102
f 99 102 80
f 88 102 99
f 76 111 89
f 111 82 110
f 89 110 75
f 111 110 89
f 82 112 109
f 112 81 105
f 109 105 73
f 112 105 109
f 81 107 106
f 107 78 94
f 106 94 77
f 107 94 106
f 78 93 98
f 93 72 95
f 98 95 79
f 93 95 98
f 74 100 86
f 100 80 101
f 86 101 75
f 100 101 86
f 74 86 84
f 86 75 85
f 84 85 73
f 86 85 84
f 74 84 91
f 84 73 90
f 91 90 77
f 84 90 91
f 74 91 96
f 91 77 97
f 96 97 79
f 91 97 96
f 74 96 100
f 96 79 103
f 100 103 80
f 96 103 100
f 75 101 89
f 101 80 102
f 89 102 76
f 101 102 89
f 73 85 109
f 85 75 110
f 109 110 82
f 85 110 109
f 77 90 106
f 90 73 105
f 106 105 81
f 90 105 106
f 79 97 98
f 97 77 94
f 98 94 78
f 97 94 98
f 80 103 99
f 103 79 95
f 99 95 72
f 103 95 99
f 114 113 117
f 114 117 115
f 115 117 118
f 115 118 116
f 117 113 119
f 117 119 118
f 118 119 120
f 118 120 116
f 119 113 121
f 119 121 120
f 120 121 122
f 120 122 116
f 121 113 123
f 121 123 122
f 122 123 124
f 122 124 116
f 123 113 125
f 123 125 124
f 124 125 126
f 124 126 116
f 125 113 114
f 125 114 126
f 126 114 115
f 126 115 116
f 127 164 143
f 164 138 167
f 143 167 132
f 164 167 143
f 127 143 139
f 143 132 144
f 139 144 128
f 143 144 139
f 127 139 148
f 139 128 149
f 148 149 134
f 139 149 148
f 127 148 160
f 148 134 163
f 160 163 137
f 148 163 160
f 127 160 164
f 160 137 168
f 164 168 138
f 160 168 164
f 128 144 155
f 144 132 158
f 155 158 136
f 144 158 155
f 132 167 145
f 167 138 166
f 145 166 131
f 167 166 145
f 138 168 165
f 168 137 161
f 165 161 129
f 168 161 165
f 137 163 162
f 163 134 150
f 162 150 133
f 163 150 162
f 134 149 154
f 149 128 151
f 154 151 135
f 149 151 154
f 130 156 142
f 156 136 157
f 142 157 131
f 156 157 142
f 130 142 140
f 142 131 141
f 140 141 129
f 142 141 140
f 130 140 147
f 140 129 146
f 147 146 133
f 140 146 147
f 130 147 152
f 147 133 153
f 152 153 135
f 147 153 152
f 130 152 156
f 152 135 159
f 156 159 136
f 152 159 156
f 131 157 145
f 157 136 158
f 145 158 132
f 157 158 145
f 129 141 165
f 141 131 166
f 165 166 138
f 141 166 165
f 133 146 162
f 146 129 161
f 162 161 137
f 146 161 162
f 135 153 154
f 153 133 150
f 154 150 134
f 153 150 154
f 136 159 155
f 159 135 151
f 155 151 128
f 159 151 155
f 170 169 173
f 170 173 171
f 171 173 174
f 171 174 172
f 173 169 175
f 173 175 174
f 174 175 176
f 174 176 172
f 175 169 177
f 175 177 176
f 176 177 178
f 176 178 172
f 177 169 179
f 177 179 178
f 178 179 180
f 178 180 172
f 179 169 181
f 179 181 180
f 180 181 182
f 180 182 172
f 181 169 170
f 181 170 182
f 182 170 171
f 182 171 172
f 183 220 199
f 220 194 223
f 199 223 188
f 220 223 199
f 183 199 195
f 199 188 200
f 195 200 184
f 199 200 195
f 183 195 204
f 195 184 205
f 204 205 190
f 195 205 204
f 183 204 216
f 204 190 219
f 216 219 193
f 204 219 216
f 183 216 220
f 216 193 224
f 220 224 194
f 216 224 220
f 184 200 211
f 200 188 214
f 211 214 192
f 200 214 211
f 188 223 201
f 223 194 222
f 201 222 187
f 223 222 201
f 194 224 221
f 224 193 217
f 221 217 185
f 224 217 221
f 193 219 218
f 219 190 206
f 218 206 189
f 219 206 218
f 190 205 210
f 205 184 207
f 210 207 191
f 205 207 210
f 186 212 198
f 212 192 213
f 198 213 187
f 212 213 198
f 186 198 196
f 198 187 197
f 196 197 185
f 198 197 196
f 186 196 203
f 196 185 202
f 203 202 189
f 196 202 203
f 186 203 208
f 203 189 209
f 208 209 191
f 203 209 208
f 186 208 212
f 208 191 215
f 212 215 192
f 208 215 212
f 187 213 201
f 213 192 214
f 201 214 188
f 213 214 201
f 185 197 221
f 197 187 222
f 221 222 194
f 197 222 221
f 189 202 218
f 202 185 217
f 218 217 193
f 202 217 218
f 191 209 210
f 209 189 206
f 210 206 190
f 209 206 210
f 192 215 211
f 215 191 207
f 211 207 184
f 215 207 211
f 226 225 229
f 226 229 227
f 227 229 230
f 227 230 228
f 229 225 231
f 229 231 230
f 230 231 232
f 230 232 228
f 231 225 233
f 231 233 232
f 232 233 234
f 232 234 228
f 233 225 235
f 233 235 234
f 234 235 236
f 234 236 228
f 235 225 237
f 235 237 236
f 236 237 238
f 236 238 228
f 237 225 226
f 237 226 238
f 238 226 227
f 238 227 228
f 239 276 255
f 276 250 279
f 255 279 244
f 276 279 255
f 239 255 251
f 255 244 256
f 251 256 240
f 255 256 251
f 239 251 260
f 251 240 261
f 260 261 246
f 251 261 260
f 239 260 272
f 260 246 275
f 272 275 249
f 260 275 272
f 239 272 276
f 272 249 280
f 276 280 250
f 272 280 276
f 240 256 267
f 256 244 270
f 267 270 248
f 256 270 267
f 244 279 257
f 279 250 278
f 257 278 243
f 279 278 257
f 250 280 277
f 280 249 273
f 277 273 241
f 280 273 277
f 249 275 274
f 275 246 262
f 274 262 245
f 275 262 274
f 246 261 266
f 261 240 263
f 266 263 247
f 261 263 266
f 242 268 254
f 268 248 269
f 254 269 243
f 268 269 254
f 242 254 252
f 254 243 253
f 252 253 241
f 254 253 252
f 242 252 259
f 252 241 258
f 259 258 245
f 252 258 259
f 242 259 264
f 259 245 265
f 264 265 247
f 259 265 264
f 242 264 268
f 264 247 271
f 268 271 248
f 264 271 268
f 243 269 257
f 269 248 270
f 257 270 244
f 269 270 257
f 241 253 277
f 253 243 278
f 277 278 250
f 253 278 277
f 245 258 274
f 258 241 273
f 274 273 249
f 258 273 274
f 247 265 266
f 265 245 262
f 266 262 246
f 265 262 266
f 248 271 267
f 271 247 263
f 267 263 240
f 271 263 267
f 282 281 285
f 282 285 283
f 283 285 286
f 283 286 284
f 285 281 287
f 285 287 286
f 286 287 288
f 286 288 284
f 287 281 289
f 287 289 288
f 288 289 290
f 288 290 284
f 289 281 291
f 289 291 290
f 290 291 292
f 290 292 284
f 291 281 293
f 291 293 292
f 292 293 294
f 292 294 284
f 293 281 282
f 293 282 294
f 294 282 283
f 294 283 284
f 295 332 311
f 332 306 335
f 311 335 300
f 332 335 311
f 295 311 307
f 311 300 312
f 307 312 296
f 311 312 307
f 295 307 316
f 307 296 317
f 316 317 302
f 307 317 316
f 295 316 328
f 316 302 331
f 328 331 305
f 316 331 328
f 295 328 332
f 328 305 336
f 332 336 306
f 328 336 332
f 296 312 323
f 312 300 326
f 323 326 304
f 312 326 323
f 300 335 313
f 335 306 334
f 313 334 299
f 335 334 313
f 306 336 333
f 336 305 329
f 333 329 297
f 336 329 333
f 305 331 330
f 331 302 318
f 330 318 301
f 331 318 330
f 302 317 322
f 317 296 319
f 322 319 303
f 317 319 322
f 298 324 310
f 324 304 325
f 310 325 299
f 324 325 310
f 298 310 308
f 310 299 309
f 308 309 297
f 310 309 308
f 298 308 315
f 308 297 314
f 315 314 301
f 308 314 315
f 298 315 320
f 315 301 321
f 320 321 303
f 315 321 320
f 298 320 324
f 320 303 327
f 324 327 304
f 320 327 324
f 299 325 313
f 325 304 326
f 313 326 300
f 325 326 313
f 297 309 333
f 309 299 334
f 333 334 306
f 309 334 333
f 301 314 330
f 314 297 329
f 330 329 305
f 314 329 330
f 303 321 322
f 321 301 318
f 322 318 302
f 321 318 322
f 304 327 323
f 327 303 319
f 323 319 296
f 327 319 323
f 338 337 341
f 338 341 339
f 339 341 342
f 339 342 340
f 341 337 343
f 341 343 342
f 342 343 344
f 342 344 340
f 343 337 345
f 343 345 344
f 344 345 346
f 344 346 340
f 345 337 347
f 345 347 346
f 346 347 348
f 346 348 340
f 347 337 349
f 347 349 348
f 348 349 350
f 348 350 340
f 349 337 338
f 349 338 350
f 350 338 339
f 350 339 340
f 351 388 367
f 388 362 391
f 367 391 356
f 388 391 367
f 351 367 363
f 367 356 368
f 363 368 352
f 367 368 363
f 351 363 372
f 363 352 373
f 372 373 358
f 363 373 372
f 351 372 384
f 372 358 387
f 384 387 361
f 372 387 384
f 351 384 388
f 384 361 392
f 388 392 362
f 384 392 388
f 352 368 379
f 368 356 382
f 379 382 360
f 368 382 379
f 356 391 369
f 391 362 390
f 369 390 355
f 391 390 369
f 362 392 389
f 392 361 385
f 389 385 353
f 392 385 389
f 361 387 386
f 387 358 374
f 386 374 357
f 387 374 386
f 358 373 378
f 373 352 375
f 378 375 359
f 373 375 378
f 354 380 366
f 380 360 381
f 366 381 355
f 380 381 366
f 354 366 364
f 366 355 365
f 364 365 353
f 366 365 364
f 354 364 371
f 364 353 370
f 371 370 357
f 364 370 371
f 354 371 376
f 371 357 377
f 376 377 359
f 371 377 376
f 354 376 380
f 376 359 383
f 380 383 360
f 376 383 380
f 355 381 369
f 381 360 382
f 369 382 356
f 381 382 369
f 353 365 389
f 365 355 390
f 389 390 362
f 365 390 389
f 357 370 386
f 370 353 385
f 386 385 361
f 370 385 386
f 359 377 378
f 377 357 374
f 378 374 358
f 377 374 378
f 360 383 379
f 383 359 375
f 379 375 352
f 383 375 379
f 394 393 397
f 394 397 395
f 395 397 398
f 395 398 396
f 397 393 399
f 397 399 398
f 398 399 400
f 398 400 396
f 399 393 401
f 399 401 400
f 400 401 402
f 400 402 396
f 401 393 403
f 401 403 402
f 402 403 404
f 402 404 396
f 403 393 405
f 403 405 404
f 404 405 406
f 404 406 396
f 405 393 394
f 405 394 406
f 406 394 395
f 406 395 396
f 407 444 423
f 444 418 447
f 423 447 412
f 444 447 423
f 407 423 419
f 423 412 424
f 419 424 408
f 423 424 419
f 407 419 428
f 419 408 429
f 428 429 414
f 419 429 428
f 407 428 440
f 428 414 443
f 440 443 417
f 428 443 440
f 407 440 444
f 440 417 448
f 444 448 418
f 440 448 444
f 408 424 435
f 424 412 438
f 435 438 416
f 424 438 435
f 412 447 425
f 447 418 446
f 425 446 411
f 447 446 425
f 418 448 445
f 448 417 441
f 445 441 409
f 448 441 445
f 417 443 442
f 443 414 430
f 442 430 413
f 443 430 442
f 414 429 434
f 429 408 431
f 434 431 415
f 429 431 434
f 410 436 422
f 436 416 437
f 422 437 411
f 436 437 422
f 410 422 420
f 422 411 421
f 420 421 409
f 422 421 420
f 410 420 427
f 420 409 426
f 427 426 413
f 420 426 427
f 410 427 432
f 427 413 433
f 432 433 415
f 427 433 432
f 410 432 436
f 432 415 439
f 436 439 416
f 432 439 436
f 411 437 425
f 437 416 438
f 425 438 412
f 437 438 425
f 409 421 445
f 421 411 446
f 445 446 418
f 421 446 445
f 413 426 442
f 426 409 441
f 442 441 417
f 426 441 442
f 415 433 434
f 433 413 430
f 434 430 414
f 433 430 434
f 416 439 435
f 439 415 431
f 435 431 408
f 439 431 435
f 450 449 453
f 450 453 451
f 451 453 454
f 451 454 452
f 453 449 455
f 453 455 454
f 454 455 456
f 454 456 452
f 455 449 457
f 455 457 456
f 456 457 458
f 456 458 452
f 457 449 459
f 457 459 458
f 458 459 460
f 458 460 452
f 459 449 461
f 459 461 460
f 460 461 462
f 460 462 452
f 461 449 450
f 461 450 462
f 462 450 451
f 462 451 452
f 463 500 479
f 500 474 503
f 479 503 468
f 500 503 479
f 463 479 475
f 479 468 480
f 475 480 464
f 479 480 475
f 463 475 484
f 475 464 485
f 484 485 470
f 475 485 484
f 463 484 496
f 484 470 499
f 496 499 473
f 484 499 496
f 463 496 500
f 496 473 504
f 500 504 474
f 496 504 500
f 464 480 491
f 480 468 494
f 491 494 472
f 480 494 491
f 468 503 481
f 503 474 502
f 481 502 467
f 503 502 481
f 474 504 501
f 504 473 497
f 501 497 465
f 504 497 501
f 473 499 498
f 499 470 486
f 498 486 469
f 499 486 498
f 470 485 490
f 485 464 487
f 490 487 471
f 485 487 490
f 466 492 478
f 492 472 493
f 478 493 467
f 492 493 478
f 466 478 476
f 478 467 477
f 476 477 465
f 478 477 476
f 466 476 483
f 476 465 482
f 483 482 469
f 476 482 483
f 466 483 488
f 483 469 489
f 488 489 471
f 483 489 488
f 466 488 492
f 488 471 495
f 492 495 472
f 488 495 492
f 467 493 481
f 493 472 494
f 481 494 468
f 493 494 481
f 465 477 501
f 477 467 502
f 501 502 474
f 477 502 501
f 469 482 498
f 482 465 497
f 498 497 473
f 482 497 498
f 471 489 490
f 489 469 486
f 490 486 470
f 489 486 490
f 472 495 491
f 495 471 487
f 491 487 464
f 495 487 491

