# https://github.com/mikedh/trimesh
v 1.24000000 1.20000000 0.00000000
v 1.14963755 1.01236044 0.00000000
v 0.94659498 0.96601730 0.00000000
v 0.78376747 1.09586790 0.00000000
v 0.78376747 1.30413210 -0.00000000
v 0.94659498 1.43398270 -0.00000000
v 1.14963755 1.38763956 -0.00000000
v 1.16521885 1.20000000 0.42410498
v 1.08030592 1.01236044 0.39319920
v 0.88950831 0.96601730 0.32375455
v 0.73650051 1.09586790 0.26806426
v 0.73650051 1.30413210 0.26806426
v 0.88950831 1.43398270 0.32375455
v 1.08030592 1.38763956 0.39319920
v 0.94989511 1.20000000 0.79705664
v 0.88067346 1.01236044 0.73897277
v 0.72513382 0.96601730 0.60845952
v 0.60040072 1.09586790 0.50379602
v 0.60040072 1.30413210 0.50379602
v 0.72513382 1.43398270 0.60845952
v 0.88067346 1.38763956 0.73897277
v 0.62000000 1.20000000 1.07387150
v 0.57481878 1.01236044 0.99561533
v 0.47329749 0.96601730 0.81977530
v 0.39188374 1.09586790 0.67876254
v 0.39188374 1.30413210 0.67876254
v 0.47329749 1.43398270 0.81977530
v 0.57481878 1.38763956 0.99561533
v 0.21532374 1.20000000 1.22116161
v 0.19963247 1.01236044 1.13217197
v 0.16437449 0.96601730 0.93221407
v 0.13609979 1.09586790 0.77186028
v 0.13609979 1.30413210 0.77186028
v 0.16437449 1.43398270 0.93221407
v 0.19963247 1.38763956 1.13217197
v -0.21532374 1.20000000 1.22116161
v -0.19963247 1.01236044 1.13217197
v -0.16437449 0.96601730 0.93221407
v -0.13609979 1.09586790 0.77186028
v -0.13609979 1.30413210 0.77186028
v -0.16437449 1.43398270 0.93221407
v -0.19963247 1.38763956 1.13217197
v -0.62000000 1.20000000 1.07387150
v -0.57481878 1.01236044 0.99561533
v -0.47329749 0.96601730 0.81977530
v -0.39188374 1.09586790 0.67876254
v -0.39188374 1.30413210 0.67876254
v -0.47329749 1.43398270 0.81977530
v -0.57481878 1.38763956 0.99561533
v -0.94989511 1.20000000 0.79705664
v -0.88067346 1.01236044 0.73897277
v -0.72513382 0.96601730 0.60845952
v -0.60040072 1.09586790 0.50379602
v -0.60040072 1.30413210 0.50379602
v -0.72513382 1.43398270 0.60845952
v -0.88067346 1.38763956 0.73897277
v -1.16521885 1.20000000 0.42410498
v -1.08030592 1.01236044 0.39319920
v -0.88950831 0.96601730 0.32375455
v -0.73650051 1.09586790 0.26806426
v -0.73650051 1.30413210 0.26806426
v -0.88950831 1.43398270 0.32375455
v -1.08030592 1.38763956 0.39319920
v -1.24000000 1.20000000 0.00000000
v -1.14963755 1.01236044 0.00000000
v -0.94659498 0.96601730 0.00000000
v -0.78376747 1.09586790 0.00000000
v -0.78376747 1.30413210 0.00000000
v -0.94659498 1.43398270 0.00000000
v -1.14963755 1.38763956 0.00000000
v -1.16521885 1.20000000 -0.42410498
v -1.08030592 1.01236044 -0.39319920
v -0.88950831 0.96601730 -0.32375455
v -0.73650051 1.09586790 -0.26806426
v -0.73650051 1.30413210 -0.26806426
v -0.88950831 1.43398270 -0.32375455
v -1.08030592 1.38763956 -0.39319920
v -0.94989511 1.20000000 -0.79705664
v -0.88067346 1.01236044 -0.73897277
v -0.72513382 0.96601730 -0.60845952
v -0.60040072 1.09586790 -0.50379602
v -0.60040072 1.30413210 -0.50379602
v -0.72513382 1.43398270 -0.60845952
v -0.88067346 1.38763956 -0.73897277
v -0.62000000 1.20000000 -1.07387150
v -0.57481878 1.01236044 -0.99561533
v -0.47329749 0.96601730 -0.81977530
v -0.39188374 1.09586790 -0.67876254
v -0.39188374 1.30413210 -0.67876254
v -0.47329749 1.43398270 -0.81977530
v -0.57481878 1.38763956 -0.99561533
v -0.21532374 1.20000000 -1.22116161
v -0.19963247 1.01236044 -1.13217197
v -0.16437449 0.96601730 -0.93221407
v -0.13609979 1.09586790 -0.77186028
v -0.13609979 1.30413210 -0.77186028
v -0.16437449 1.43398270 -0.93221407
v -0.19963247 1.38763956 -1.13217197
v 0.21532374 1.20000000 -1.22116161
v 0.19963247 1.01236044 -1.13217197
v 0.16437449 0.96601730 -0.93221407
v 0.13609979 1.09586790 -0.77186028
v 0.13609979 1.30413210 -0.77186028
v 0.16437449 1.43398270 -0.93221407
v 0.19963247 1.38763956 -1.13217197
v 0.62000000 1.20000000 -1.07387150
v 0.57481878 1.01236044 -0.99561533
v 0.47329749 0.96601730 -0.81977530
v 0.39188374 1.09586790 -0.67876254
v 0.39188374 1.30413210 -0.67876254
v 0.47329749 1.43398270 -0.81977530
v 0.57481878 1.38763956 -0.99561533
v 0.94989511 1.20000000 -0.79705664
v 0.88067346 1.01236044 -0.73897277
v 0.72513382 0.96601730 -0.60845952
v 0.60040072 1.09586790 -0.50379602
v 0.60040072 1.30413210 -0.50379602
v 0.72513382 1.43398270 -0.60845952
v 0.88067346 1.38763956 -0.73897277
v 1.16521885 1.20000000 -0.42410498
v 1.08030592 1.01236044 -0.39319920
v 0.88950831 0.96601730 -0.32375455
v 0.73650051 1.09586790 -0.26806426
v 0.73650051 1.30413210 -0.26806426
v 0.88950831 1.43398270 -0.32375455
v 1.08030592 1.38763956 -0.39319920
v 0.00000000 3.55000000 -0.00000000
v 0.09000000 3.55000000 -0.00000000
v 0.09000000 1.45000000 0.00000000
v 0.00000000 1.45000000 0.00000000
v 0.06363961 3.55000000 0.06363961
v 0.06363961 1.45000000 0.06363961
v 0.00000000 3.55000000 0.09000000
v 0.00000000 1.45000000 0.09000000
v -0.06363961 3.55000000 0.06363961
v -0.06363961 1.45000000 0.06363961
v -0.09000000 3.55000000 -0.00000000
v -0.09000000 1.45000000 0.00000000
v -0.06363961 3.55000000 -0.06363961
v -0.06363961 1.45000000 -0.06363961
v -0.00000000 3.55000000 -0.09000000
v -0.00000000 1.45000000 -0.09000000
v 0.06363961 3.55000000 -0.06363961
v 0.06363961 1.45000000 -0.06363961
v -0.10514622 3.82013016 0.00000000
v 0.10514622 3.82013016 0.00000000
v -0.10514622 3.47986984 0.00000000
v 0.10514622 3.47986984 0.00000000
v 0.00000000 3.54485378 0.17013016
v 0.00000000 3.75514622 0.17013016
v 0.00000000 3.54485378 -0.17013016
v 0.00000000 3.75514622 -0.17013016
v 0.17013016 3.65000000 -0.10514622
v 0.17013016 3.65000000 0.10514622
v -0.17013016 3.65000000 -0.10514622
v -0.17013016 3.65000000 0.10514622
v 0.00000000 3.85000000 0.00000000
v 0.00000000 3.45000000 0.00000000
v -0.06180340 3.48819660 0.10000000
v 0.06180340 3.48819660 0.10000000
v -0.06180340 3.81180340 0.10000000
v 0.06180340 3.81180340 0.10000000
v 0.00000000 3.65000000 0.20000000
v -0.06180340 3.48819660 -0.10000000
v 0.06180340 3.48819660 -0.10000000
v -0.06180340 3.81180340 -0.10000000
v 0.06180340 3.81180340 -0.10000000
v 0.00000000 3.65000000 -0.20000000
v 0.16180340 3.75000000 -0.06180340
v 0.16180340 3.55000000 -0.06180340
v 0.10000000 3.58819660 -0.16180340
v 0.10000000 3.71180340 -0.16180340
v 0.16180340 3.75000000 0.06180340
v 0.16180340 3.55000000 0.06180340
v 0.10000000 3.58819660 0.16180340
v 0.10000000 3.71180340 0.16180340
v 0.20000000 3.65000000 0.00000000
v -0.16180340 3.75000000 -0.06180340
v -0.16180340 3.55000000 -0.06180340
v -0.10000000 3.58819660 -0.16180340
v -0.10000000 3.71180340 -0.16180340
v -0.16180340 3.75000000 0.06180340
v -0.16180340 3.55000000 0.06180340
v -0.10000000 3.58819660 0.16180340
v -0.10000000 3.71180340 0.16180340
v -0.20000000 3.65000000 0.00000000
f 1 8 2
f 2 8 9
f 2 9 3
f 3 9 10
f 3 10 4
f 4 10 11
f 4 11 5
f 5 11 12
f 5 12 6
f 6 12 13
f 6 13 7
f 7 13 14
f 7 14 1
f 1 14 8
f 8 15 9
f 9 15 16
f 9 16 10
f 10 16 17
f 10 17 11
f 11 17 18
f 11 18 12
f 12 18 19
f 12 19 13
f 13 19 20
f 13 20 14
f 14 20 21
f 14 21 8
f 8 21 15
f 15 22 16
f 16 22 23
f 16 23 17
f 17 23 24
f 17 24 18
f 18 24 25
f 18 25 19
f 19 25 26
f 19 26 20
f 20 26 27
f 20 27 21
f 21 27 28
f 21 28 15
f 15 28 22
f 22 29 23
f 23 29 30
f 23 30 24
f 24 30 31
f 24 31 25
f 25 31 32
f 25 32 26
f 26 32 33
f 26 33 27
f 27 33 34
f 27 34 28
f 28 34 35
f 28 35 22
f 22 35 29
f 29 36 30
f 30 36 37
f 30 37 31
f 31 37 38
f 31 38 32
f 32 38 39
f 32 39 33
f 33 39 40
f 33 40 34
f 34 40 41
f 34 41 35
f 35 41 42
f 35 42 29
f 29 42 36
f 36 43 37
f 37 43 44
f 37 44 38
f 38 44 45
f 38 45 39
f 39 45 46
f 39 46 40
f 40 46 47
f 40 47 41
f 41 47 48
f 41 48 42
f 42 48 49
f 42 49 36
f 36 49 43
f 43 50 44
f 44 50 51
f 44 51 45
f 45 51 52
f 45 52 46
f 46 52 53
f 46 53 47
f 47 53 54
f 47 54 48
f 48 54 55
f 48 55 49
f 49 55 56
f 49 56 43
f 43 56 50
f 50 57 51
f 51 57 58
f 51 58 52
f 52 58 59
f 52 59 53
f 53 59 60
f 53 60 54
f 54 60 61
f 54 61 55
f 55 61 62
f 55 62 56
f 56 62 63
f 56 63 50
f 50 63 57
f 57 64 58
f 58 64 65
f 58 65 59
f 59 65 66
f 59 66 60
f 60 66 67
f 60 67 61
f 61 67 68
f 61 68 62
f 62 68 69
f 62 69 63
f 63 69 70
f 63 70 57
f 57 70 64
f 64 71 65
f 65 71 72
f 65 72 66
f 66 72 73
f 66 73 67
f 67 73 74
f 67 74 68
f 68 74 75
f 68 75 69
f 69 75 76
f 69 76 70
f 70 76 77
f 70 77 64
f 64 77 71
f 71 78 72
f 72 78 79
f 72 79 73
f 73 79 80
f 73 80 74
f 74 80 81
f 74 81 75
f 75 81 82
f 75 82 76
f 76 82 83
f 76 83 77
f 77 83 84
f 77 84 71
f 71 84 78
f 78 85 79
f 79 85 86
f 79 86 80
f 80 86 87
f 80 87 81
f 81 87 88
f 81 88 82
f 82 88 89
f 82 89 83
f 83 89 90
f 83 90 84
f 84 90 91
f 84 91 78
f 78 91 85
f 85 92 86
f 86 92 93
f 86 93 87
f 87 93 94
f 87 94 88
f 88 94 95
f 88 95 89
f 89 95 96
f 89 96 90
f 90 96 97
f 90 97 91
f 91 97 98
f 91 98 85
f 85 98 92
f 92 99 93
f 93 99 100
f 93 100 94
f 94 100 101
f 94 101 95
f 95 101 102
f 95 102 96
f 96 102 103
f 96 103 97
f 97 103 104
f 97 104 98
f 98 104 105
f 98 105 92
f 92 105 99
f 99 106 100
f 100 106 107
f 100 107 101
f 101 107 108
f 101 108 102
f 102 108 109
f 102 109 103
f 103 109 110
f 103 110 104
f 104 110 111
f 104 111 105
f 105 111 112
f 105 112 99
f 99 112 106
f 106 113 107
f 107 113 114
f 107 114 108
f 108 114 115
f 108 115 109
f 109 115 116
f 109 116 110
f 110 116 117
f 110 117 111
f 111 117 118
f 111 118 112
f 112 118 119
f 112 119 106
f 106 119 113
f 113 120 114
f 114 120 121
f 114 121 115
f 115 121 122
f 115 122 116
f 116 122 123
f 116 123 117
f 117 123 124
f 117 124 118
f 118 124 125
f 118 125 119
f 119 125 126
f 119 126 113
f 113 126 120
f 120 1 121
f 121 1 2
f 121 2 122
f 122 2 3
f 122 3 123
f 123 3 4
f 123 4 124
f 124 4 5
f 124 5 125
f 125 5 6
f 125 6 126
f 126 6 7
f 126 7 120
f 120 7 1
f 128 127 131
f 128 131 129
f 129 131 132
f 129 132 130
f 131 127 133
f 131 133 132
f 132 133 134
f 132 134 130
f 133 127 135
f 133 135 134
f 134 135 136
f 134 136 130
f 135 127 137
f 135 137 136
f 136 137 138
f 136 138 130
f 137 127 139
f 137 139 138
f 138 139 140
f 138 140 130
f 139 127 141
f 139 141 140
f 140 141 142
f 140 142 130
f 141 127 143
f 141 143 142
f 142 143 144
f 142 144 130
f 143 127 128
f 143 128 144
f 144 128 129
f 144 129 130
f 145 182 161
f 182 156 185
f 161 185 150
f 182 185 161
f 145 161 157
f 161 150 162
f 157 162 146
f 161 162 157
f 145 157 166
f 157 146 167
f 166 167 152
f 157 167 166
f 145 166 178
f 166 152 181
f 178 181 155
f 166 181 178
f 145 178 182
f 178 155 186
f 182 186 156
f 178 186 182
f 146 162 173
f 162 150 176
f 173 176 154
f 162 176 173
f 150 185 163
f 185 156 184
f 163 184 149
f 185 184 163
f 156 186 183
f 186 155 179
f 183 179 147
f 186 179 183
f 155 181 180
f 181 152 168
f 180 168 151
f 181 168 180
f 152 167 172
f 167 146 169
f 172 169 153
f 167 169 172
f 148 174 160
f 174 154 175
f 160 175 149
f 174 175 160
f 148 160 158
f 160 149 159
f 158 159 147
f 160 159 158
f 148 158 165
f 158 147 164
f 165 164 151
f 158 164 165
f 148 165 170
f 165 151 171
f 170 171 153
f 165 171 170
f 148 170 174
f 170 153 177
f 174 177 154
f 170 177 174
f 149 175 163
f 175 154 176
f 163 176 150
f 175 176 163
f 147 159 183
f 159 149 184
f 183 184 156
f 159 184 183
f 151 164 180
f 164 147 179
f 180 179 155
f 164 179 180
f 153 171 172
f 171 151 168
f 172 168 152
f 171 168 172
f 154 177 173
f 177 153 169
f 173 169 146
f 177 169 173

