# https://github.com/mikedh/trimesh
v 0.08348412 2.79420362 -0.60163759
v 0.42467819 2.87740747 -0.60163759
v 1.17276755 -0.19028307 -0.60163759
v 0.83157348 -0.27348691 -0.60163759
v 0.25408115 2.83580555 -0.29749584
v 1.00217051 -0.23188499 -0.29749584
v -0.08711292 2.75260170 -0.29749584
v 0.66097644 -0.31508884 -0.29749584
v -0.25770995 2.71099978 -0.60163759
v 0.49037941 -0.35669076 -0.60163759
v -0.08711292 2.75260170 -0.90577934
v 0.66097644 -0.31508884 -0.90577934
v 0.25408115 2.83580555 -0.90577934
v 1.00217051 -0.23188499 -0.90577934
v -0.09253691 3.51601316 -0.60163759
v 0.24865716 3.59921701 -0.60163759
v 0.25950514 2.07239409 -0.60163759
v 0.07806013 3.55761508 -0.29749584
v -0.26313394 3.47441124 -0.29749584
v -0.43373098 3.43280931 -0.60163759
v -0.26313394 3.47441124 -0.90577934
v 0.07806013 3.55761508 -0.90577934
v 0.40223749 2.62328293 -0.59398551
v 0.75967471 2.71758969 -0.59398551
v 1.51762377 -0.15515476 -0.59398551
v 1.16018655 -0.24946152 -0.59398551
v 0.58095610 2.67043631 -0.27384281
v 1.33890516 -0.20230814 -0.27384281
v 0.22351887 2.57612955 -0.27384281
v 0.98146793 -0.29661489 -0.27384281
v 0.04480026 2.52897617 -0.59398551
v 0.80274932 -0.34376827 -0.59398551
v 0.22351887 2.57612955 -0.91412822
v 0.98146793 -0.29661489 -0.91412822
v 0.58095610 2.67043631 -0.91412822
v 1.33890516 -0.20230814 -0.91412822
v 0.22389653 3.29922280 -0.59398551
v 0.58133375 3.39352955 -0.59398551
v 0.58057844 1.94734306 -0.59398551
v 0.40261514 3.34637618 -0.27384281
v 0.04517792 3.25206942 -0.27384281
v -0.13354069 3.20491604 -0.59398551
v 0.04517792 3.25206942 -0.91412822
v 0.40261514 3.34637618 -0.91412822
v -0.60232350 1.80521971 -0.19389884
v -0.12918363 1.65159548 -0.19389884
v -0.76543098 -0.30795215 -0.19389884
v -1.23857085 -0.15432793 -0.19389884
v -0.36575356 1.72840760 0.23691005
v -1.00200091 -0.23114004 0.23691005
v -0.83889344 1.88203182 0.23691005
v -1.47514078 -0.07751581 0.23691005
v -1.07546337 1.95884394 -0.19389884
v -1.71171072 -0.00070370 -0.19389884
v -0.83889344 1.88203182 -0.62470774
v -1.47514078 -0.07751581 -0.62470774
v -0.36575356 1.72840760 -0.62470774
v -1.00200091 -0.23114004 -0.62470774
v -0.45261824 2.26628974 -0.19389884
v 0.02052163 2.11266552 -0.19389884
v -0.75202876 1.34414968 -0.19389884
v -0.21604831 2.18947763 0.23691005
v -0.68918818 2.34310186 0.23691005
v -0.92575811 2.41991397 -0.19389884
v -0.68918818 2.34310186 -0.62470774
v -0.21604831 2.18947763 -0.62470774
v 0.22780658 1.67824225 0.34928752
v 0.72412347 1.56641262 0.34928752
v 0.30806231 -0.28012998 0.34928752
v -0.18825458 -0.16830034 0.34928752
v 0.47596503 1.62232744 0.78988625
v 0.05990386 -0.22421516 0.78988625
v -0.02035187 1.73415707 0.78988625
v -0.43641303 -0.11238553 0.78988625
v -0.26851031 1.79007189 0.34928752
v -0.68457147 -0.05647071 0.34928752
v -0.02035187 1.73415707 -0.09131121
v -0.43641303 -0.11238553 -0.09131121
v 0.47596503 1.62232744 -0.09131121
v 0.05990386 -0.22421516 -0.09131121
v 0.32570332 2.11272287 0.34928752
v 0.82202021 2.00089323 0.34928752
v 0.12990984 1.24376164 0.34928752
v 0.57386177 2.05680805 0.78988625
v 0.07754488 2.16863768 0.78988625
v -0.17061357 2.22455250 0.34928752
v 0.07754488 2.16863768 -0.09131121
v 0.57386177 2.05680805 -0.09131121
v 0.43149796 1.56138666 0.48068964
v 0.98178535 1.68378602 0.48068964
v 1.36403471 -0.03474426 0.48068964
v 0.81374732 -0.15714362 0.48068964
v 0.70664165 1.62258634 0.96889899
v 1.08889101 -0.09594394 0.96889899
v 0.15635426 1.50018698 0.96889899
v 0.53860362 -0.21834330 0.96889899
v -0.11878943 1.43898730 0.48068964
v 0.26345993 -0.27954298 0.48068964
v 0.15635426 1.50018698 -0.00751970
v 0.53860362 -0.21834330 -0.00751970
v 0.70664165 1.62258634 -0.00751970
v 1.08889101 -0.09594394 -0.00751970
v 0.34155693 1.96574672 0.48068964
v 0.89184432 2.08814608 0.48068964
v 0.52143898 1.15702659 0.48068964
v 0.61670063 2.02694640 0.96889899
v 0.06641323 1.90454704 0.96889899
v -0.20873046 1.84334736 0.48068964
v 0.06641323 1.90454704 -0.00751970
v 0.61670063 2.02694640 -0.00751970
v 0.97797486 2.94887649 0.92381795
v 1.38502448 3.06031354 0.92381795
v 2.26793033 -0.16470436 0.92381795
v 1.86088071 -0.27614142 0.92381795
v 1.18149967 3.00459501 1.28930489
v 2.06440552 -0.22042289 1.28930489
v 0.77445005 2.89315796 1.28930489
v 1.65735590 -0.33185994 1.28930489
v 0.57092524 2.83743943 0.92381795
v 1.45383109 -0.38757847 0.92381795
v 0.77445005 2.89315796 0.55833100
v 1.65735590 -0.33185994 0.55833100
v 1.18149967 3.00459501 0.55833100
v 2.06440552 -0.22042289 0.55833100
v 0.77023231 3.70770423 0.92381795
v 1.17728193 3.81914128 0.92381795
v 1.18571742 2.19004874 0.92381795
v 0.97375712 3.76342275 1.28930489
v 0.56670750 3.65198570 1.28930489
v 0.36318269 3.59626717 0.92381795
v 0.56670750 3.65198570 0.55833100
v 0.97375712 3.76342275 0.55833100
v -2.11163636 2.15495129 0.01421836
v -1.56947580 2.27473795 0.01421836
v -1.04534824 -0.09749035 0.01421836
v -1.58750880 -0.21727700 0.01421836
v -1.84055608 2.21484462 0.49506677
v -1.31642852 -0.15738367 0.49506677
v -2.38271665 2.09505796 0.49506677
v -1.85858909 -0.27717033 0.49506677
v -2.65379693 2.03516463 0.01421836
v -2.12966937 -0.33706366 0.01421836
v -2.38271665 2.09505796 -0.46663005
v -1.85858909 -0.27717033 -0.46663005
v -1.84055608 2.21484462 -0.46663005
v -1.31642852 -0.15738367 -0.46663005
v -2.23496050 2.71312265 0.01421836
v -1.69279993 2.83290931 0.01421836
v -1.98831223 1.59677993 0.01421836
v -1.96388021 2.77301598 0.49506677
v -2.50604078 2.65322932 0.49506677
v -2.77712106 2.59333600 0.01421836
v -2.50604078 2.65322932 -0.46663005
v -1.96388021 2.77301598 -0.46663005
v -1.24707760 -0.01217350 -0.02596566
v 1.38904578 -0.03256427 -0.26246272
v -1.31720682 -0.63097206 -0.06467029
v 1.56901974 -0.61893932 -0.00675154
v 0.11980571 -0.46999040 1.52132932
v 0.02782188 -0.07296568 1.47298504
v -0.30487620 -0.48239737 -1.60734437
v -0.24113337 -0.09521530 -1.48112421
v 1.76016158 -0.27726695 -1.07412687
v 2.20528288 -0.28699631 0.84978155
v -2.23539474 -0.28136969 -0.78280357
v -1.79608860 -0.28313564 0.94450766
v 0.04347338 0.02134714 0.01651398
v -0.07252428 -0.65575565 -0.10067715
v -0.44682326 -0.59348295 0.74242113
v 0.85708483 -0.64808098 1.03548283
v -0.85745035 -0.03773037 0.95377369
v 0.60802573 -0.02419624 1.03619138
v -0.01552368 -0.30866951 1.46251280
v -0.61239872 -0.55000285 -0.91645743
v 1.13921199 -0.55376784 -0.83534508
v -0.85122786 0.03770086 -1.01231779
v 1.02500073 -0.04964627 -0.89332099
v 0.09220503 -0.24492516 -1.55117921
v 1.92523498 -0.11704651 -0.71344136
v 1.82653533 -0.48148099 -0.63658750
v 1.21143566 -0.42732845 -1.35392243
v 0.91406747 -0.17858743 -1.23789920
v 2.16146598 -0.14638298 0.60575432
v 2.06921780 -0.52095813 0.56135626
v 1.01537982 -0.43823981 1.11394676
v 1.30439327 -0.19720609 1.31579288
v 2.30184778 -0.29348473 0.06013251
v -2.26005802 -0.15100227 -0.43362669
v -2.29589859 -0.48746842 -0.26575055
v -1.18351066 -0.40380718 -1.44405410
v -1.27415380 -0.23163089 -1.29085096
v -1.90619869 -0.10585425 0.49587197
v -2.04831385 -0.48274552 0.48067951
v -1.17676318 -0.40743487 1.22863143
v -1.09953709 -0.20074119 1.23844936
v -2.41351974 -0.33688925 0.04707011
f 2 1 5
f 2 5 3
f 3 5 6
f 3 6 4
f 5 1 7
f 5 7 6
f 6 7 8
f 6 8 4
f 7 1 9
f 7 9 8
f 8 9 10
f 8 10 4
f 9 1 11
f 9 11 10
f 10 11 12
f 10 12 4
f 11 1 13
f 11 13 12
f 12 13 14
f 12 14 4
f 13 1 2
f 13 2 14
f 14 2 3
f 14 3 4
f 16 15 18
f 16 18 17
f 18 15 19
f 18 19 17
f 19 15 20
f 19 20 17
f 20 15 21
f 20 21 17
f 21 15 22
f 21 22 17
f 22 15 16
f 22 16 17
f 24 23 27
f 24 27 25
f 25 27 28
f 25 28 26
f 27 23 29
f 27 29 28
f 28 29 30
f 28 30 26
f 29 23 31
f 29 31 30
f 30 31 32
f 30 32 26
f 31 23 33
f 31 33 32
f 32 33 34
f 32 34 26
f 33 23 35
f 33 35 34
f 34 35 36
f 34 36 26
f 35 23 24
f 35 24 36
f 36 24 25
f 36 25 26
f 38 37 40
f 38 40 39
f 40 37 41
f 40 41 39
f 41 37 42
f 41 42 39
f 42 37 43
f 42 43 39
f 43 37 44
f 43 44 39
f 44 37 38
f 44 38 39
f 46 45 49
f 46 49 47
f 47 49 50
f 47 50 48
f 49 45 51
f 49 51 50
f 50 51 52
f 50 52 48
f 51 45 53
f 51 53 52
f 52 53 54
f 52 54 48
f 53 45 55
f 53 55 54
f 54 55 56
f 54 56 48
f 55 45 57
f 55 57 56
f 56 57 58
f 56 58 48
f 57 45 46
f 57 46 58
f 58 46 47
f 58 47 48
f 60 59 62
f 60 62 61
f 62 59 63
f 62 63 61
f 63 59 64
f 63 64 61
f 64 59 65
f 64 65 61
f 65 59 66
f 65 66 61
f 66 59 60
f 66 60 61
f 68 67 71
f 68 71 69
f 69 71 72
f 69 72 70
f 71 67 73
f 71 73 72
f 72 73 74
f 72 74 70
f 73 67 75
f 73 75 74
f 74 75 76
f 74 76 70
f 75 67 77
f 75 77 76
f 76 77 78
f 76 78 70
f 77 67 79
f 77 79 78
f 78 79 80
f 78 80 70
f 79 67 68
f 79 68 80
f 80 68 69
f 80 69 70
f 82 81 84
f 82 84 83
f 84 81 85
f 84 85 83
f 85 81 86
f 85 86 83
f 86 81 87
f 86 87 83
f 87 81 88
f 87 88 83
f 88 81 82
f 88 82 83
f 90 89 93
f 90 93 91
f 91 93 94
f 91 94 92
f 93 89 95
f 93 95 94
f 94 95 96
f 94 96 92
f 95 89 97
f 95 97 96
f 96 97 98
f 96 98 92
f 97 89 99
f 97 99 98
f 98 99 100
f 98 100 92
f 99 89 101
f 99 101 100
f 100 101 102
f 100 102 92
f 101 89 90
f 101 90 102
f 102 90 91
f 102 91 92
f 104 103 106
f 104 106 105
f 106 103 107
f 106 107 105
f 107 103 108
f 107 108 105
f 108 103 109
f 108 109 105
f 109 103 110
f 109 110 105
f 110 103 104
f 110 104 105
f 112 111 115
f 112 115 113
f 113 115 116
f 113 116 114
f 115 111 117
f 115 117 116
f 116 117 118
f 116 118 114
f 117 111 119
f 117 119 118
f 118 119 120
f 118 120 114
f 119 111 121
f 119 121 120
f 120 121 122
f 120 122 114
f 121 111 123
f 121 123 122
f 122 123 124
f 122 124 114
f 123 111 112
f 123 112 124
f 124 112 113
f 124 113 114
f 126 125 128
f 126 128 127
f 128 125 129
f 128 129 127
f 129 125 130
f 129 130 127
f 130 125 131
f 130 131 127
f 131 125 132
f 131 132 127
f 132 125 126
f 132 126 127
f 134 133 137
f 134 137 135
f 135 137 138
f 135 138 136
f 137 133 139
f 137 139 138
f 138 139 140
f 138 140 136
f 139 133 141
f 139 141 140
f 140 141 142
f 140 142 136
f 141 133 143
f 141 143 142
f 142 143 144
f 142 144 136
f 143 133 145
f 143 145 144
f 144 145 146
f 144 146 136
f 145 133 134
f 145 134 146
f 146 134 135
f 146 135 136
f 148 147 150
f 148 150 149
f 150 147 151
f 150 151 149
f 151 147 152
f 151 152 149
f 152 147 153
f 152 153 149
f 153 147 154
f 153 154 149
f 154 147 148
f 154 148 149
f 155 192 171
f 192 166 195
f 171 195 160
f 192 195 171
f 155 171 167
f 171 160 172
f 167 172 156
f 171 172 167
f 155 167 176
f 167 156 177
f 176 177 162
f 167 177 176
f 155 176 188
f 176 162 191
f 188 191 165
f 176 191 188
f 155 188 192
f 188 165 196
f 192 196 166
f 188 196 192
f 156 172 183
f 172 160 186
f 183 186 164
f 172 186 183
f 160 195 173
f 195 166 194
f 173 194 159
f 195 194 173
f 166 196 193
f 196 165 189
f 193 189 157
f 196 189 193
f 165 191 190
f 191 162 178
f 190 178 161
f 191 178 190
f 162 177 182
f 177 156 179
f 182 179 163
f 177 179 182
f 158 184 170
f 184 164 185
f 170 185 159
f 184 185 170
f 158 170 168
f 170 159 169
f 168 169 157
f 170 169 168
f 158 168 175
f 168 157 174
f 175 174 161
f 168 174 175
f 158 175 180
f 175 161 181
f 180 181 163
f 175 181 180
f 158 180 184
f 180 163 187
f 184 187 164
f 180 187 184
f 159 185 173
f 185 164 186
f 173 186 160
f 185 186 173
f 157 169 193
f 169 159 194
f 193 194 166
f 169 194 193
f 161 174 190
f 174 157 189
f 190 189 165
f 174 189 190
f 163 181 182
f 181 161 178
f 182 178 162
f 181 178 182
f 164 187 183
f 187 163 179
f 183 179 156
f 187 179 183

