# https://github.com/mikedh/trimesh
v -1.00000000 1.40000000 0.20000000
v -0.84000000 1.40000000 0.20000000
v -0.84000000 0.00000000 0.20000000
v -1.00000000 0.00000000 0.20000000
v -0.90024163 1.40000000 0.32509304
v -0.90024163 0.00000000 0.32509304
v -1.03560335 1.40000000 0.35598847
v -1.03560335 0.00000000 0.35598847
v -1.14415502 1.40000000 0.26942140
v -1.14415502 0.00000000 0.26942140
v -1.14415502 1.40000000 0.13057860
v -1.14415502 0.00000000 0.13057860
v -1.03560335 1.40000000 0.04401153
v -1.03560335 0.00000000 0.04401153
v -0.90024163 1.40000000 0.07490696
v -0.90024163 0.00000000 0.07490696
v -1.39429833 1.63818223 0.20000000
v -0.60570167 1.63818223 0.20000000
v -1.39429833 1.16181777 0.20000000
v -0.60570167 1.16181777 0.20000000
v -1.00000000 1.25279529 0.83798811
v -1.00000000 1.54720471 0.83798811
v -1.00000000 1.25279529 -0.43798811
v -1.00000000 1.54720471 -0.43798811
v -0.36201189 1.40000000 -0.19429833
v -0.36201189 1.40000000 0.59429833
v -1.63798811 1.40000000 -0.19429833
v -1.63798811 1.40000000 0.59429833
v -1.00000000 1.68000000 0.20000000
v -1.00000000 1.12000000 0.20000000
v -1.23176275 1.17347524 0.57500000
v -0.76823725 1.17347524 0.57500000
v -1.23176275 1.62652476 0.57500000
v -0.76823725 1.62652476 0.57500000
v -1.00000000 1.40000000 0.95000000
v -1.23176275 1.17347524 -0.17500000
v -0.76823725 1.17347524 -0.17500000
v -1.23176275 1.62652476 -0.17500000
v -0.76823725 1.62652476 -0.17500000
v -1.00000000 1.40000000 -0.55000000
v -0.39323725 1.54000000 -0.03176275
v -0.39323725 1.26000000 -0.03176275
v -0.62500000 1.31347524 -0.40676275
v -0.62500000 1.48652476 -0.40676275
v -0.39323725 1.54000000 0.43176275
v -0.39323725 1.26000000 0.43176275
v -0.62500000 1.31347524 0.80676275
v -0.62500000 1.48652476 0.80676275
v -0.25000000 1.40000000 0.20000000
v -1.60676275 1.54000000 -0.03176275
v -1.60676275 1.26000000 -0.03176275
v -1.37500000 1.31347524 -0.40676275
v -1.37500000 1.48652476 -0.40676275
v -1.60676275 1.54000000 0.43176275
v -1.60676275 1.26000000 0.43176275
v -1.37500000 1.31347524 0.80676275
v -1.37500000 1.48652476 0.80676275
v -1.75000000 1.40000000 0.20000000
v 0.00000000 2.00000000 -0.00000000
v 0.16000000 2.00000000 -0.00000000
v 0.16000000 0.00000000 0.00000000
v 0.00000000 0.00000000 0.00000000
v 0.09975837 2.00000000 0.12509304
v 0.09975837 0.00000000 0.12509304
v -0.03560335 2.00000000 0.15598847
v -0.03560335 0.00000000 0.15598847
v -0.14415502 2.00000000 0.06942140
v -0.14415502 0.00000000 0.06942140
v -0.14415502 2.00000000 -0.06942140
v -0.14415502 0.00000000 -0.06942140
v -0.03560335 2.00000000 -0.15598847
v -0.03560335 0.00000000 -0.15598847
v 0.09975837 2.00000000 -0.12509304
v 0.09975837 0.00000000 -0.12509304
v -0.52573111 2.23818223 0.00000000
v 0.52573111 2.23818223 0.00000000
v -0.52573111 1.76181777 0.00000000
v 0.52573111 1.76181777 0.00000000
v 0.00000000 1.85279529 0.85065081
v 0.00000000 2.14720471 0.85065081
v 0.00000000 1.85279529 -0.85065081
v 0.00000000 2.14720471 -0.85065081
v 0.85065081 2.00000000 -0.52573111
v 0.85065081 2.00000000 0.52573111
v -0.85065081 2.00000000 -0.52573111
v -0.85065081 2.00000000 0.52573111
v 0.00000000 2.28000000 0.00000000
v 0.00000000 1.72000000 0.00000000
v -0.30901699 1.77347524 0.50000000
v 0.30901699 1.77347524 0.50000000
v -0.30901699 2.22652476 0.50000000
v 0.30901699 2.22652476 0.50000000
v 0.00000000 2.00000000 1.00000000
v -0.30901699 1.77347524 -0.50000000
v 0.30901699 1.77347524 -0.50000000
v -0.30901699 2.22652476 -0.50000000
v 0.30901699 2.22652476 -0.50000000
v 0.00000000 2.00000000 -1.00000000
v 0.80901699 2.14000000 -0.30901699
v 0.80901699 1.86000000 -0.30901699
v 0.50000000 1.91347524 -0.80901699
v 0.50000000 2.08652476 -0.80901699
v 0.80901699 2.14000000 0.30901699
v 0.80901699 1.86000000 0.30901699
v 0.50000000 1.91347524 0.80901699
v 0.50000000 2.08652476 0.80901699
v 1.00000000 2.00000000 0.00000000
v -0.80901699 2.14000000 -0.30901699
v -0.80901699 1.86000000 -0.30901699
v -0.50000000 1.91347524 -0.80901699
v -0.50000000 2.08652476 -0.80901699
v -0.80901699 2.14000000 0.30901699
v -0.80901699 1.86000000 0.30901699
v -0.50000000 1.91347524 0.80901699
v -0.50000000 2.08652476 0.80901699
v -1.00000000 2.00000000 0.00000000
v 1.00000000 1.20000000 0.40000000
v 1.16000000 1.20000000 0.40000000
v 1.16000000 0.00000000 0.40000000
v 1.00000000 0.00000000 0.40000000
v 1.09975837 1.20000000 0.52509304
v 1.09975837 0.00000000 0.52509304
v 0.96439665 1.20000000 0.55598847
v 0.96439665 0.00000000 0.55598847
v 0.85584498 1.20000000 0.46942140
v 0.85584498 0.00000000 0.46942140
v 0.85584498 1.20000000 0.33057860
v 0.85584498 0.00000000 0.33057860
v 0.96439665 1.20000000 0.24401153
v 0.96439665 0.00000000 0.24401153
v 1.09975837 1.20000000 0.27490696
v 1.09975837 0.00000000 0.27490696
v 0.65827478 1.43818223 0.40000000
v 1.34172522 1.43818223 0.40000000
v 0.65827478 0.96181777 0.40000000
v 1.34172522 0.96181777 0.40000000
v 1.00000000 1.05279529 0.95292303
v 1.00000000 1.34720471 0.95292303
v 1.00000000 1.05279529 -0.15292303
v 1.00000000 1.34720471 -0.15292303
v 1.55292303 1.20000000 0.05827478
v 1.55292303 1.20000000 0.74172522
v 0.44707697 1.20000000 0.05827478
v 0.44707697 1.20000000 0.74172522
v 1.00000000 1.48000000 0.40000000
v 1.00000000 0.92000000 0.40000000
v 0.79913895 0.97347524 0.72500000
v 1.20086105 0.97347524 0.72500000
v 0.79913895 1.42652476 0.72500000
v 1.20086105 1.42652476 0.72500000
v 1.00000000 1.20000000 1.05000000
v 0.79913895 0.97347524 0.07500000
v 1.20086105 0.97347524 0.07500000
v 0.79913895 1.42652476 0.07500000
v 1.20086105 1.42652476 0.07500000
v 1.00000000 1.20000000 -0.25000000
v 1.52586105 1.34000000 0.19913895
v 1.52586105 1.06000000 0.19913895
v 1.32500000 1.11347524 -0.12586105
v 1.32500000 1.28652476 -0.12586105
v 1.52586105 1.34000000 0.60086105
v 1.52586105 1.06000000 0.60086105
v 1.32500000 1.11347524 0.92586105
v 1.32500000 1.28652476 0.92586105
v 1.65000000 1.20000000 0.40000000
v 0.47413895 1.34000000 0.19913895
v 0.47413895 1.06000000 0.19913895
v 0.67500000 1.11347524 -0.12586105
v 0.67500000 1.28652476 -0.12586105
v 0.47413895 1.34000000 0.60086105
v 0.47413895 1.06000000 0.60086105
v 0.67500000 1.11347524 0.92586105
v 0.67500000 1.28652476 0.92586105
v 0.35000000 1.20000000 0.40000000
v 0.50000000 1.55000000 -0.80000000
v 0.66000000 1.55000000 -0.80000000
v 0.66000000 0.00000000 -0.80000000
v 0.50000000 0.00000000 -0.80000000
v 0.59975837 1.55000000 -0.67490696
v 0.59975837 0.00000000 -0.67490696
v 0.46439665 1.55000000 -0.64401153
v 0.46439665 0.00000000 -0.64401153
v 0.35584498 1.55000000 -0.73057860
v 0.35584498 0.00000000 -0.73057860
v 0.35584498 1.55000000 -0.86942140
v 0.35584498 0.00000000 -0.86942140
v 0.46439665 1.55000000 -0.95598847
v 0.46439665 0.00000000 -0.95598847
v 0.59975837 1.55000000 -0.92509304
v 0.59975837 0.00000000 -0.92509304
v 0.07941511 1.78818223 -0.80000000
v 0.92058489 1.78818223 -0.80000000
v 0.07941511 1.31181777 -0.80000000
v 0.92058489 1.31181777 -0.80000000
v 0.50000000 1.40279529 -0.11947935
v 0.50000000 1.69720471 -0.11947935
v 0.50000000 1.40279529 -1.48052065
v 0.50000000 1.69720471 -1.48052065
v 1.18052065 1.55000000 -1.22058489
v 1.18052065 1.55000000 -0.37941511
v -0.18052065 1.55000000 -1.22058489
v -0.18052065 1.55000000 -0.37941511
v 0.50000000 1.83000000 -0.80000000
v 0.50000000 1.27000000 -0.80000000
v 0.25278640 1.32347524 -0.40000000
v 0.74721360 1.32347524 -0.40000000
v 0.25278640 1.77652476 -0.40000000
v 0.74721360 1.77652476 -0.40000000
v 0.50000000 1.55000000 0.00000000
v 0.25278640 1.32347524 -1.20000000
v 0.74721360 1.32347524 -1.20000000
v 0.25278640 1.77652476 -1.20000000
v 0.74721360 1.77652476 -1.20000000
v 0.50000000 1.55000000 -1.60000000
v 1.14721360 1.69000000 -1.04721360
v 1.14721360 1.41000000 -1.04721360
v 0.90000000 1.46347524 -1.44721360
v 0.90000000 1.63652476 -1.44721360
v 1.14721360 1.69000000 -0.55278640
v 1.14721360 1.41000000 -0.55278640
v 0.90000000 1.46347524 -0.15278640
v 0.90000000 1.63652476 -0.15278640
v 1.30000000 1.55000000 -0.80000000
v -0.14721360 1.69000000 -1.04721360
v -0.14721360 1.41000000 -1.04721360
v 0.10000000 1.46347524 -1.44721360
v 0.10000000 1.63652476 -1.44721360
v -0.14721360 1.69000000 -0.55278640
v -0.14721360 1.41000000 -0.55278640
v 0.10000000 1.46347524 -0.15278640
v 0.10000000 1.63652476 -0.15278640
v -0.30000000 1.55000000 -0.80000000
f 2 1 5
f 2 5 3
f 3 5 6
f 3 6 4
f 5 1 7
f 5 7 6
f 6 7 8
f 6 8 4
f 7 1 9
f 7 9 8
f 8 9 10
f 8 10 4
f 9 1 11
f 9 11 10
f 10 11 12
f 10 12 4
f 11 1 13
f 11 13 12
f 12 13 14
f 12 14 4
f 13 1 15
f 13 15 14
f 14 15 16
f 14 16 4
f 15 1 2
f 15 2 16
f 16 2 3
f 16 3 4
f 17 54 33
f 54 28 57
f 33 57 22
f 54 57 33
f 17 33 29
f 33 22 34
f 29 34 18
f 33 34 29
f 17 29 38
f 29 18 39
f 38 39 24
f 29 39 38
f 17 38 50
f 38 24 53
f 50 53 27
f 38 53 50
f 17 50 54
f 50 27 58
f 54 58 28
f 50 58 54
f 18 34 45
f 34 22 48
f 45 48 26
f 34 48 45
f 22 57 35
f 57 28 56
f 35 56 21
f 57 56 35
f 28 58 55
f 58 27 51
f 55 51 19
f 58 51 55
f 27 53 52
f 53 24 40
f 52 40 23
f 53 40 52
f 24 39 44
f 39 18 41
f 44 41 25
f 39 41 44
f 20 46 32
f 46 26 47
f 32 47 21
f 46 47 32
f 20 32 30
f 32 21 31
f 30 31 19
f 32 31 30
f 20 30 37
f 30 19 36
f 37 36 23
f 30 36 37
f 20 37 42
f 37 23 43
f 42 43 25
f 37 43 42
f 20 42 46
f 42 25 49
f 46 49 26
f 42 49 46
f 21 47 35
f 47 26 48
f 35 48 22
f 47 48 35
f 19 31 55
f 31 21 56
f 55 56 28
f 31 56 55
f 23 36 52
f 36 19 51
f 52 51 27
f 36 51 52
f 25 43 44
f 43 23 40
f 44 40 24
f 43 40 44
f 26 49 45
f 49 25 41
f 45 41 18
f 49 41 45
f 60 59 63
f 60 63 61
f 61 63 64
f 61 64 62
f 63 59 65
f 63 65 64
f 64 65 66
f 64 66 62
f 65 59 67
f 65 67 66
f 66 67 68
f 66 68 62
f 67 59 69
f 67 69 68
f 68 69 70
f 68 70 62
f 69 59 71
f 69 71 70
f 70 71 72
f 70 72 62
f 71 59 73
f 71 73 72
f 72 73 74
f 72 74 62
f 73 59 60
f 73 60 74
f 74 60 61
f 74 61 62
f 75 112 91
f 112 86 115
f 91 115 80
f 112 115 91
f 75 91 87
f 91 80 92
f 87 92 76
f 91 92 87
f 75 87 96
f 87 76 97
f 96 97 82
f 87 97 96
f 75 96 108
f 96 82 111
f 108 111 85
f 96 111 108
f 75 108 112
f 108 85 116
f 112 116 86
f 108 116 112
f 76 92 103
f 92 80 106
f 103 106 84
f 92 106 103
f 80 115 93
f 115 86 114
f 93 114 79
f 115 114 93
f 86 116 113
f 116 85 109
f 113 109 77
f 116 109 113
f 85 111 110
f 111 82 98
f 110 98 81
f 111 98 110
f 82 97 102
f 97 76 99
f 102 99 83
f 97 99 102
f 78 104 90
f 104 84 105
f 90 105 79
f 104 105 90
f 78 90 88
f 90 79 89
f 88 89 77
f 90 89 88
f 78 88 95
f 88 77 94
f 95 94 81
f 88 94 95
f 78 95 100
f 95 81 101
f 100 101 83
f 95 101 100
f 78 100 104
f 100 83 107
f 104 107 84
f 100 107 104
f 79 105 93
f 105 84 106
f 93 106 80
f 105 106 93
f 77 89 113
f 89 79 114
f 113 114 86
f 89 114 113
f 81 94 110
f 94 77 109
f 110 109 85
f 94 109 110
f 83 101 102
f 101 81 98
f 102 98 82
f 101 98 102
f 84 107 103
f 107 83 99
f 103 99 76
f 107 99 103
f 118 117 121
f 118 121 119
f 119 121 122
f 119 122 120
f 121 117 123
f 121 123 122
f 122 123 124
f 122 124 120
f 123 117 125
f 123 125 124
f 124 125 126
f 124 126 120
f 125 117 127
f 125 127 126
f 126 127 128
f 126 128 120
f 127 117 129
f 127 129 128
f 128 129 130
f 128 130 120
f 129 117 131
f 129 131 130
f 130 131 132
f 130 132 120
f 131 117 118
f 131 118 132
f 132 118 119
f 132 119 120
f 133 170 149
f 170 144 173
f 149 173 138
f 170 173 149
f 133 149 145
f 149 138 150
f 145 150 134
f 149 150 145
f 133 145 154
f 145 134 155
f 154 155 140
f 145 155 154
f 133 154 166
f 154 140 169
f 166 169 143
f 154 169 166
f 133 166 170
f 166 143 174
f 170 174 144
f 166 174 170
f 134 150 161
f 150 138 164
f 161 164 142
f 150 164 161
f 138 173 151
f 173 144 172
f 151 172 137
f 173 172 151
f 144 174 171
f 174 143 167
f 171 167 135
f 174 167 171
f 143 169 168
f 169 140 156
f 168 156 139
f 169 156 168
f 140 155 160
f 155 134 157
f 160 157 141
f 155 157 160
f 136 162 148
f 162 142 163
f 148 163 137
f 162 163 148
f 136 148 146
f 148 137 147
f 146 147 135
f 148 147 146
f 136 146 153
f 146 135 152
f 153 152 139
f 146 152 153
f 136 153 158
f 153 139 159
f 158 159 141
f 153 159 158
f 136 158 162
f 158 141 165
f 162 165 142
f 158 165 162
f 137 163 151
f 163 142 164
f 151 164 138
f 163 164 151
f 135 147 171
f 147 137 172
f 171 172 144
f 147 172 171
f 139 152 168
f 152 135 167
f 168 167 143
f 152 167 168
f 141 159 160
f 159 139 156
f 160 156 140
f 159 156 160
f 142 165 161
f 165 141 157
f 161 157 134
f 165 157 161
f 176 175 179
f 176 179 177
f 177 179 180
f 177 180 178
f 179 175 181
f 179 181 180
f 180 181 182
f 180 182 178
f 181 175 183
f 181 183 182
f 182 183 184
f 182 184 178
f 183 175 185
f 183 185 184
f 184 185 186
f 184 186 178
f 185 175 187
f 185 187 186
f 186 187 188
f 186 188 178
f 187 175 189
f 187 189 188
f 188 189 190
f 188 190 178
f 189 175 176
f 189 176 190
f 190 176 177
f 190 177 178
f 191 228 207
f 228 202 231
f 207 231 196
f 228 231 207
f 191 207 203
f 207 196 208
f 203 208 192
f 207 208 203
f 191 203 212
f 203 192 213
f 212 213 198
f 203 213 212
f 191 212 224
f 212 198 227
f 224 227 201
f 212 227 224
f 191 224 228
f 224 201 232
f 228 232 202
f 224 232 228
f 192 208 219
f 208 196 222
f 219 222 200
f 208 222 219
f 196 231 209
f 231 202 230
f 209 230 195
f 231 230 209
f 202 232 229
f 232 201 225
f 229 225 193
f 232 225 229
f 201 227 226
f 227 198 214
f 226 214 197
f 227 214 226
f 198 213 218
f 213 192 215
f 218 215 199
f 213 215 218
f 194 220 206
f 220 200 221
f 206 221 195
f 220 221 206
f 194 206 204
f 206 195 205
f 204 205 193
f 206 205 204
f 194 204 211
f 204 193 210
f 211 210 197
f 204 210 211
f 194 211 216
f 211 197 217
f 216 217 199
f 211 217 216
f 194 216 220
f 216 199 223
f 220 223 200
f 216 223 220
f 195 221 209
f 221 200 222
f 209 222 196
f 221 222 209
f 193 205 229
f 205 195 230
f 229 230 202
f 205 230 229
f 197 210 226
f 210 193 225
f 226 225 201
f 210 225 226
f 199 217 218
f 217 197 214
f 218 214 198
f 217 214 218
f 200 223 219
f 223 199 215
f 219 215 192
f 223 215 219

