# https://github.com/mikedh/trimesh
v 0.00000000 1.40000000 -0.00000000
v 0.75000000 1.40000000 -0.00000000
v 0.75000000 0.00000000 0.00000000
v 0.00000000 0.00000000 0.00000000
v 0.60676275 1.40000000 0.44083894
v 0.60676275 0.00000000 0.44083894
v 0.23176275 1.40000000 0.71329239
v 0.23176275 0.00000000 0.71329239
v -0.23176275 1.40000000 0.71329239
v -0.23176275 0.00000000 0.71329239
v -0.60676275 1.40000000 0.44083894
v -0.60676275 0.00000000 0.44083894
v -0.75000000 1.40000000 0.00000000
v -0.75000000 0.00000000 0.00000000
v -0.60676275 1.40000000 -0.44083894
v -0.60676275 0.00000000 -0.44083894
v -0.23176275 1.40000000 -0.71329239
v -0.23176275 0.00000000 -0.71329239
v 0.23176275 1.40000000 -0.71329239
v 0.23176275 0.00000000 -0.71329239
v 0.60676275 1.40000000 -0.44083894
v 0.60676275 0.00000000 -0.44083894
v 0.00000000 1.80000000 0.00000000
v 0.55000000 1.80000000 0.00000000
v 0.00000000 1.00000000 0.00000000
v 0.44495935 1.80000000 0.32328189
v 0.16995935 1.80000000 0.52308108
v -0.16995935 1.80000000 0.52308108
v -0.44495935 1.80000000 0.32328189
v -0.55000000 1.80000000 0.00000000
v -0.44495935 1.80000000 -0.32328189
v -0.16995935 1.80000000 -0.52308108
v 0.16995935 1.80000000 -0.52308108
v 0.44495935 1.80000000 -0.32328189
v 0.00000000 3.50000000 -0.00000000
v 0.06000000 3.50000000 -0.00000000
v 0.06000000 2.10000000 0.00000000
v 0.00000000 2.10000000 0.00000000
v 0.03740939 3.50000000 0.04690989
v 0.03740939 2.10000000 0.04690989
v -0.01335126 3.50000000 0.05849567
v -0.01335126 2.10000000 0.05849567
v -0.05405813 3.50000000 0.02603302
v -0.05405813 2.10000000 0.02603302
v -0.05405813 3.50000000 -0.02603302
v -0.05405813 2.10000000 -0.02603302
v -0.01335126 3.50000000 -0.05849567
v -0.01335126 2.10000000 -0.05849567
v 0.03740939 3.50000000 -0.04690989
v 0.03740939 2.10000000 -0.04690989
v 0.40000000 3.20000000 0.00000000
v 0.38117449 3.16090843 0.00000000
v 0.33887395 3.15125360 0.00000000
v 0.30495156 3.17830581 0.00000000
v 0.30495156 3.22169419 -0.00000000
v 0.33887395 3.24874640 -0.00000000
v 0.38117449 3.23909157 -0.00000000
v 0.37587705 3.20000000 0.13680806
v 0.35818686 3.16090843 0.13036935
v 0.31843735 3.15125360 0.11590172
v 0.28656073 3.17830581 0.10429958
v 0.28656073 3.22169419 0.10429958
v 0.31843735 3.24874640 0.11590172
v 0.35818686 3.23909157 0.13036935
v 0.30641778 3.20000000 0.25711504
v 0.29199660 3.16090843 0.24501424
v 0.25959251 3.15125360 0.21782398
v 0.23360645 3.17830581 0.19601908
v 0.23360645 3.22169419 0.19601908
v 0.25959251 3.24874640 0.21782398
v 0.29199660 3.23909157 0.24501424
v 0.20000000 3.20000000 0.34641016
v 0.19058725 3.16090843 0.33010679
v 0.16943698 3.15125360 0.29347345
v 0.15247578 3.17830581 0.26409579
v 0.15247578 3.22169419 0.26409579
v 0.16943698 3.24874640 0.29347345
v 0.19058725 3.23909157 0.33010679
v 0.06945927 3.20000000 0.39392310
v 0.06619026 3.16090843 0.37538359
v 0.05884484 3.15125360 0.33372570
v 0.05295428 3.17830581 0.30031866
v 0.05295428 3.22169419 0.30031866
v 0.05884484 3.24874640 0.33372570
v 0.06619026 3.23909157 0.37538359
v -0.06945927 3.20000000 0.39392310
v -0.06619026 3.16090843 0.37538359
v -0.05884484 3.15125360 0.33372570
v -0.05295428 3.17830581 0.30031866
v -0.05295428 3.22169419 0.30031866
v -0.05884484 3.24874640 0.33372570
v -0.06619026 3.23909157 0.37538359
v -0.20000000 3.20000000 0.34641016
v -0.19058725 3.16090843 0.33010679
v -0.16943698 3.15125360 0.29347345
v -0.15247578 3.17830581 0.26409579
v -0.15247578 3.22169419 0.26409579
v -0.16943698 3.24874640 0.29347345
v -0.19058725 3.23909157 0.33010679
v -0.30641778 3.20000000 0.25711504
v -0.29199660 3.16090843 0.24501424
v -0.25959251 3.15125360 0.21782398
v -0.23360645 3.17830581 0.19601908
v -0.23360645 3.22169419 0.19601908
v -0.25959251 3.24874640 0.21782398
v -0.29199660 3.23909157 0.24501424
v -0.37587705 3.20000000 0.13680806
v -0.35818686 3.16090843 0.13036935
v -0.31843735 3.15125360 0.11590172
v -0.28656073 3.17830581 0.10429958
v -0.28656073 3.22169419 0.10429958
v -0.31843735 3.24874640 0.11590172
v -0.35818686 3.23909157 0.13036935
v -0.40000000 3.20000000 0.00000000
v -0.38117449 3.16090843 0.00000000
v -0.33887395 3.15125360 0.00000000
v -0.30495156 3.17830581 0.00000000
v -0.30495156 3.22169419 0.00000000
v -0.33887395 3.24874640 0.00000000
v -0.38117449 3.23909157 0.00000000
v -0.37587705 3.20000000 -0.13680806
v -0.35818686 3.16090843 -0.13036935
v -0.31843735 3.15125360 -0.11590172
v -0.28656073 3.17830581 -0.10429958
v -0.28656073 3.22169419 -0.10429958
v -0.31843735 3.24874640 -0.11590172
v -0.35818686 3.23909157 -0.13036935
v -0.30641778 3.20000000 -0.25711504
v -0.29199660 3.16090843 -0.24501424
v -0.25959251 3.15125360 -0.21782398
v -0.23360645 3.17830581 -0.19601908
v -0.23360645 3.22169419 -0.19601908
v -0.25959251 3.24874640 -0.21782398
v -0.29199660 3.23909157 -0.24501424
v -0.20000000 3.20000000 -0.34641016
v -0.19058725 3.16090843 -0.33010679
v -0.16943698 3.15125360 -0.29347345
v -0.15247578 3.17830581 -0.26409579
v -0.15247578 3.22169419 -0.26409579
v -0.16943698 3.24874640 -0.29347345
v -0.19058725 3.23909157 -0.33010679
v -0.06945927 3.20000000 -0.39392310
v -0.06619026 3.16090843 -0.37538359
v -0.05884484 3.15125360 -0.33372570
v -0.05295428 3.17830581 -0.30031866
v -0.05295428 3.22169419 -0.30031866
v -0.05884484 3.24874640 -0.33372570
v -0.06619026 3.23909157 -0.37538359
v 0.06945927 3.20000000 -0.39392310
v 0.06619026 3.16090843 -0.37538359
v 0.05884484 3.15125360 -0.33372570
v 0.05295428 3.17830581 -0.30031866
v 0.05295428 3.22169419 -0.30031866
v 0.05884484 3.24874640 -0.33372570
v 0.06619026 3.23909157 -0.37538359
v 0.20000000 3.20000000 -0.34641016
v 0.19058725 3.16090843 -0.33010679
v 0.16943698 3.15125360 -0.29347345
v 0.15247578 3.17830581 -0.26409579
v 0.15247578 3.22169419 -0.26409579
v 0.16943698 3.24874640 -0.29347345
v 0.19058725 3.23909157 -0.33010679
v 0.30641778 3.20000000 -0.25711504
v 0.29199660 3.16090843 -0.24501424
v 0.25959251 3.15125360 -0.21782398
v 0.23360645 3.17830581 -0.19601908
v 0.23360645 3.22169419 -0.19601908
v 0.25959251 3.24874640 -0.21782398
v 0.29199660 3.23909157 -0.24501424
v 0.37587705 3.20000000 -0.13680806
v 0.35818686 3.16090843 -0.13036935
v 0.31843735 3.15125360 -0.11590172
v 0.28656073 3.17830581 -0.10429958
v 0.28656073 3.22169419 -0.10429958
v 0.31843735 3.24874640 -0.11590172
v 0.35818686 3.23909157 -0.13036935
v -0.14720471 3.43818223 0.00000000
v 0.14720471 3.43818223 0.00000000
v -0.14720471 2.96181777 0.00000000
v 0.14720471 2.96181777 0.00000000
v 0.00000000 3.05279529 0.23818223
v 0.00000000 3.34720471 0.23818223
v 0.00000000 3.05279529 -0.23818223
v 0.00000000 3.34720471 -0.23818223
v 0.23818223 3.20000000 -0.14720471
v 0.23818223 3.20000000 0.14720471
v -0.23818223 3.20000000 -0.14720471
v -0.23818223 3.20000000 0.14720471
v 0.00000000 3.48000000 0.00000000
v 0.00000000 2.92000000 0.00000000
v -0.08652476 2.97347524 0.14000000
v 0.08652476 2.97347524 0.14000000
v -0.08652476 3.42652476 0.14000000
v 0.08652476 3.42652476 0.14000000
v 0.00000000 3.20000000 0.28000000
v -0.08652476 2.97347524 -0.14000000
v 0.08652476 2.97347524 -0.14000000
v -0.08652476 3.42652476 -0.14000000
v 0.08652476 3.42652476 -0.14000000
v 0.00000000 3.20000000 -0.28000000
v 0.22652476 3.34000000 -0.08652476
v 0.22652476 3.06000000 -0.08652476
v 0.14000000 3.11347524 -0.22652476
v 0.14000000 3.28652476 -0.22652476
v 0.22652476 3.34000000 0.08652476
v 0.22652476 3.06000000 0.08652476
v 0.14000000 3.11347524 0.22652476
v 0.14000000 3.28652476 0.22652476
v 0.28000000 3.20000000 0.00000000
v -0.22652476 3.34000000 -0.08652476
v -0.22652476 3.06000000 -0.08652476
v -0.14000000 3.11347524 -0.22652476
v -0.14000000 3.28652476 -0.22652476
v -0.22652476 3.34000000 0.08652476
v -0.22652476 3.06000000 0.08652476
v -0.14000000 3.11347524 0.22652476
v -0.14000000 3.28652476 0.22652476
v -0.28000000 3.20000000 0.00000000
f 2 1 5
f 2 5 3
f 3 5 6
f 3 6 4
f 5 1 7
f 5 7 6
f 6 7 8
f 6 8 4
f 7 1 9
f 7 9 8
f 8 9 10
f 8 10 4
f 9 1 11
f 9 11 10
f 10 11 12
f 10 12 4
f 11 1 13
f 11 13 12
f 12 13 14
f 12 14 4
f 13 1 15
f 13 15 14
f 14 15 16
f 14 16 4
f 15 1 17
f 15 17 16
f 16 17 18
f 16 18 4
f 17 1 19
f 17 19 18
f 18 19 20
f 18 20 4
f 19 1 21
f 19 21 20
f 20 21 22
f 20 22 4
f 21 1 2
f 21 2 22
f 22 2 3
f 22 3 4
f 24 23 26
f 24 26 25
f 26 23 27
f 26 27 25
f 27 23 28
f 27 28 25
f 28 23 29
f 28 29 25
f 29 23 30
f 29 30 25
f 30 23 31
f 30 31 25
f 31 23 32
f 31 32 25
f 32 23 33
f 32 33 25
f 33 23 34
f 33 34 25
f 34 23 24
f 34 24 25
f 36 35 39
f 36 39 37
f 37 39 40
f 37 40 38
f 39 35 41
f 39 41 40
f 40 41 42
f 40 42 38
f 41 35 43
f 41 43 42
f 42 43 44
f 42 44 38
f 43 35 45
f 43 45 44
f 44 45 46
f 44 46 38
f 45 35 47
f 45 47 46
f 46 47 48
f 46 48 38
f 47 35 49
f 47 49 48
f 48 49 50
f 48 50 38
f 49 35 36
f 49 36 50
f 50 36 37
f 50 37 38
f 51 58 52
f 52 58 59
f 52 59 53
f 53 59 60
f 53 60 54
f 54 60 61
f 54 61 55
f 55 61 62
f 55 62 56
f 56 62 63
f 56 63 57
f 57 63 64
f 57 64 51
f 51 64 58
f 58 65 59
f 59 65 66
f 59 66 60
f 60 66 67
f 60 67 61
f 61 67 68
f 61 68 62
f 62 68 69
f 62 69 63
f 63 69 70
f 63 70 64
f 64 70 71
f 64 71 58
f 58 71 65
f 65 72 66
f 66 72 73
f 66 73 67
f 67 73 74
f 67 74 68
f 68 74 75
f 68 75 69
f 69 75 76
f 69 76 70
f 70 76 77
f 70 77 71
f 71 77 78
f 71 78 65
f 65 78 72
f 72 79 73
f 73 79 80
f 73 80 74
f 74 80 81
f 74 81 75
f 75 81 82
f 75 82 76
f 76 82 83
f 76 83 77
f 77 83 84
f 77 84 78
f 78 84 85
f 78 85 72
f 72 85 79
f 79 86 80
f 80 86 87
f 80 87 81
f 81 87 88
f 81 88 82
f 82 88 89
f 82 89 83
f 83 89 90
f 83 90 84
f 84 90 91
f 84 91 85
f 85 91 92
f 85 92 79
f 79 92 86
f 86 93 87
f 87 93 94
f 87 94 88
f 88 94 95
f 88 95 89
f 89 95 96
f 89 96 90
f 90 96 97
f 90 97 91
f 91 97 98
f 91 98 92
f 92 98 99
f 92 99 86
f 86 99 93
f 93 100 94
f 94 100 101
f 94 101 95
f 95 101 102
f 95 102 96
f 96 102 103
f 96 103 97
f 97 103 104
f 97 104 98
f 98 104 105
f 98 105 99
f 99 105 106
f 99 106 93
f 93 106 100
f 100 107 101
f 101 107 108
f 101 108 102
f 102 108 109
f 102 109 103
f 103 109 110
f 103 110 104
f 104 110 111
f 104 111 105
f 105 111 112
f 105 112 106
f 106 112 113
f 106 113 100
f 100 113 107
f 107 114 108
f 108 114 115
f 108 115 109
f 109 115 116
f 109 116 110
f 110 116 117
f 110 117 111
f 111 117 118
f 111 118 112
f 112 118 119
f 112 119 113
f 113 119 120
f 113 120 107
f 107 120 114
f 114 121 115
f 115 121 122
f 115 122 116
f 116 122 123
f 116 123 117
f 117 123 124
f 117 124 118
f 118 124 125
f 118 125 119
f 119 125 126
f 119 126 120
f 120 126 127
f 120 127 114
f 114 127 121
f 121 128 122
f 122 128 129
f 122 129 123
f 123 129 130
f 123 130 124
f 124 130 131
f 124 131 125
f 125 131 132
f 125 132 126
f 126 132 133
f 126 133 127
f 127 133 134
f 127 134 121
f 121 134 128
f 128 135 129
f 129 135 136
f 129 136 130
f 130 136 137
f 130 137 131
f 131 137 138
f 131 138 132
f 132 138 139
f 132 139 133
f 133 139 140
f 133 140 134
f 134 140 141
f 134 141 128
f 128 141 135
f 135 142 136
f 136 142 143
f 136 143 137
f 137 143 144
f 137 144 138
f 138 144 145
f 138 145 139
f 139 145 146
f 139 146 140
f 140 146 147
f 140 147 141
f 141 147 148
f 141 148 135
f 135 148 142
f 142 149 143
f 143 149 150
f 143 150 144
f 144 150 151
f 144 151 145
f 145 151 152
f 145 152 146
f 146 152 153
f 146 153 147
f 147 153 154
f 147 154 148
f 148 154 155
f 148 155 142
f 142 155 149
f 149 156 150
f 150 156 157
f 150 157 151
f 151 157 158
f 151 158 152
f 152 158 159
f 152 159 153
f 153 159 160
f 153 160 154
f 154 160 161
f 154 161 155
f 155 161 162
f 155 162 149
f 149 162 156
f 156 163 157
f 157 163 164
f 157 164 158
f 158 164 165
f 158 165 159
f 159 165 166
f 159 166 160
f 160 166 167
f 160 167 161
f 161 167 168
f 161 168 162
f 162 168 169
f 162 169 156
f 156 169 163
f 163 170 164
f 164 170 171
f 164 171 165
f 165 171 172
f 165 172 166
f 166 172 173
f 166 173 167
f 167 173 174
f 167 174 168
f 168 174 175
f 168 175 169
f 169 175 176
f 169 176 163
f 163 176 170
f 170 51 171
f 171 51 52
f 171 52 172
f 172 52 53
f 172 53 173
f 173 53 54
f 173 54 174
f 174 54 55
f 174 55 175
f 175 55 56
f 175 56 176
f 176 56 57
f 176 57 170
f 170 57 51
f 177 214 193
f 214 188 217
f 193 217 182
f 214 217 193
f 177 193 189
f 193 182 194
f 189 194 178
f 193 194 189
f 177 189 198
f 189 178 199
f 198 199 184
f 189 199 198
f 177 198 210
f 198 184 213
f 210 213 187
f 198 213 210
f 177 210 214
f 210 187 218
f 214 218 188
f 210 218 214
f 178 194 205
f 194 182 208
f 205 208 186
f 194 208 205
f 182 217 195
f 217 188 216
f 195 216 181
f 217 216 195
f 188 218 215
f 218 187 211
f 215 211 179
f 218 211 215
f 187 213 212
f 213 184 200
f 212 200 183
f 213 200 212
f 184 199 204
f 199 178 201
f 204 201 185
f 199 201 204
f 180 206 192
f 206 186 207
f 192 207 181
f 206 207 192
f 180 192 190
f 192 181 191
f 190 191 179
f 192 191 190
f 180 190 197
f 190 179 196
f 197 196 183
f 190 196 197
f 180 197 202
f 197 183 203
f 202 203 185
f 197 203 202
f 180 202 206
f 202 185 209
f 206 209 186
f 202 209 206
f 181 207 195
f 207 186 208
f 195 208 182
f 207 208 195
f 179 191 215
f 191 181 216
f 215 216 188
f 191 216 215
f 183 196 212
f 196 179 211
f 212 211 187
f 196 211 212
f 185 203 204
f 203 183 200
f 204 200 184
f 203 200 204
f 186 209 205
f 209 185 201
f 205 201 178
f 209 201 205

