# https://github.com/mikedh/trimesh
v -0.63087733 2.10065081 0.00000000
v 0.63087733 2.10065081 0.00000000
v -0.63087733 0.39934919 0.00000000
v 0.63087733 0.39934919 0.00000000
v 0.00000000 0.72426889 0.80811827
v 0.00000000 1.77573111 0.80811827
v 0.00000000 0.72426889 -0.80811827
v 0.00000000 1.77573111 -0.80811827
v 1.02078097 1.25000000 -0.49944456
v 1.02078097 1.25000000 0.49944456
v -1.02078097 1.25000000 -0.49944456
v -1.02078097 1.25000000 0.49944456
v 0.00000000 2.25000000 0.00000000
v 0.00000000 0.25000000 0.00000000
v -0.37082039 0.44098301 0.47500000
v 0.37082039 0.44098301 0.47500000
v -0.37082039 2.05901699 0.47500000
v 0.37082039 2.05901699 0.47500000
v 0.00000000 1.25000000 0.95000000
v -0.37082039 0.44098301 -0.47500000
v 0.37082039 0.44098301 -0.47500000
v -0.37082039 2.05901699 -0.47500000
v 0.37082039 2.05901699 -0.47500000
v 0.00000000 1.25000000 -0.95000000
v 0.97082039 1.75000000 -0.29356614
v 0.97082039 0.75000000 -0.29356614
v 0.60000000 0.94098301 -0.76856614
v 0.60000000 1.55901699 -0.76856614
v 0.97082039 1.75000000 0.29356614
v 0.97082039 0.75000000 0.29356614
v 0.60000000 0.94098301 0.76856614
v 0.60000000 1.55901699 0.76856614
v 1.20000000 1.25000000 0.00000000
v -0.97082039 1.75000000 -0.29356614
v -0.97082039 0.75000000 -0.29356614
v -0.60000000 0.94098301 -0.76856614
v -0.60000000 1.55901699 -0.76856614
v -0.97082039 1.75000000 0.29356614
v -0.97082039 0.75000000 0.29356614
v -0.60000000 0.94098301 0.76856614
v -0.60000000 1.55901699 0.76856614
v -1.20000000 1.25000000 0.00000000
v -0.32791983 2.21193836 0.00000000
v 0.32791983 2.21193836 0.00000000
v -0.32791983 0.28806164 0.00000000
v 0.32791983 0.28806164 0.00000000
v -0.52066628 0.38733152 0.24689732
v -0.19274644 0.55621952 0.66694412
v -0.19495182 0.29894348 0.24972228
v 0.52066628 0.38733152 0.24689732
v 0.19274644 0.55621952 0.66694412
v 0.19495182 0.29894348 0.24972228
v 0.00000000 0.39934919 0.49944456
v -0.52066628 2.11266848 0.24689732
v -0.19274644 1.94378048 0.66694412
v -0.19495182 2.20105652 0.24972228
v 0.52066628 2.11266848 0.24689732
v 0.19274644 1.94378048 0.66694412
v 0.19495182 2.20105652 0.24972228
v 0.00000000 2.10065081 0.49944456
v 0.00000000 0.97673347 0.91384144
v 0.00000000 1.52326653 0.91384144
v -0.52066628 0.38733152 -0.24689732
v -0.19274644 0.55621952 -0.66694412
v -0.19495182 0.29894348 -0.24972228
v 0.52066628 0.38733152 -0.24689732
v 0.19274644 0.55621952 -0.66694412
v 0.19495182 0.29894348 -0.24972228
v 0.00000000 0.39934919 -0.49944456
v -0.52066628 2.11266848 -0.24689732
v -0.19274644 1.94378048 -0.66694412
v -0.19495182 2.20105652 -0.24972228
v 0.52066628 2.11266848 -0.24689732
v 0.19274644 1.94378048 -0.66694412
v 0.19495182 2.20105652 -0.24972228
v 0.00000000 2.10065081 -0.49944456
v 0.00000000 0.97673347 -0.91384144
v 0.00000000 1.52326653 -0.91384144
v 0.83253657 1.95204644 -0.15259093
v 1.03520218 1.50989191 -0.41219414
v 0.70534230 1.93819096 -0.40405913
v 0.83253657 0.54795356 -0.15259093
v 1.03520218 0.99010809 -0.41219414
v 0.70534230 0.56180904 -0.40405913
v 0.31187030 0.81611144 -0.81953506
v 0.84245573 1.08937796 -0.65909145
v 0.51039049 0.66221475 -0.65378141
v 0.31543867 1.08754015 -0.90350369
v 0.82582915 0.82467460 -0.55839599
v 0.31187030 1.68388856 -0.81953506
v 0.84245573 1.41062204 -0.65909145
v 0.51039049 1.83778525 -0.65378141
v 0.31543867 1.41245985 -0.90350369
v 0.82582915 1.67532540 -0.55839599
v 0.63087733 1.25000000 -0.80811827
v 0.83253657 1.95204644 0.15259093
v 1.03520218 1.50989191 0.41219414
v 0.70534230 1.93819096 0.40405913
v 1.02078097 1.77573111 0.00000000
v 0.83253657 0.54795356 0.15259093
v 1.03520218 0.99010809 0.41219414
v 0.70534230 0.56180904 0.40405913
v 1.02078097 0.72426889 0.00000000
v 0.31187030 0.81611144 0.81953506
v 0.84245573 1.08937796 0.65909145
v 0.51039049 0.66221475 0.65378141
v 0.31543867 1.08754015 0.90350369
v 0.82582915 0.82467460 0.55839599
v 0.31187030 1.68388856 0.81953506
v 0.84245573 1.41062204 0.65909145
v 0.51039049 1.83778525 0.65378141
v 0.31543867 1.41245985 0.90350369
v 0.82582915 1.67532540 0.55839599
v 0.63087733 1.25000000 0.80811827
v 1.15432603 1.25000000 -0.25960320
v 1.15432603 1.25000000 0.25960320
v 1.14126782 1.51286556 -0.15433686
v 1.14126782 0.98713444 -0.15433686
v 1.14126782 1.51286556 0.15433686
v 1.14126782 0.98713444 0.15433686
v -0.83253657 1.95204644 -0.15259093
v -1.03520218 1.50989191 -0.41219414
v -0.70534230 1.93819096 -0.40405913
v -0.83253657 0.54795356 -0.15259093
v -1.03520218 0.99010809 -0.41219414
v -0.70534230 0.56180904 -0.40405913
v -0.31187030 0.81611144 -0.81953506
v -0.84245573 1.08937796 -0.65909145
v -0.51039049 0.66221475 -0.65378141
v -0.31543867 1.08754015 -0.90350369
v -0.82582915 0.82467460 -0.55839599
v -0.31187030 1.68388856 -0.81953506
v -0.84245573 1.41062204 -0.65909145
v -0.51039049 1.83778525 -0.65378141
v -0.31543867 1.41245985 -0.90350369
v -0.82582915 1.67532540 -0.55839599
v -0.63087733 1.25000000 -0.80811827
v -0.83253657 1.95204644 0.15259093
v -1.03520218 1.50989191 0.41219414
v -0.70534230 1.93819096 0.40405913
v -1.02078097 1.77573111 0.00000000
v -0.83253657 0.54795356 0.15259093
v -1.03520218 0.99010809 0.41219414
v -0.70534230 0.56180904 0.40405913
v -1.02078097 0.72426889 0.00000000
v -0.31187030 0.81611144 0.81953506
v -0.84245573 1.08937796 0.65909145
v -0.51039049 0.66221475 0.65378141
v -0.31543867 1.08754015 0.90350369
v -0.82582915 0.82467460 0.55839599
v -0.31187030 1.68388856 0.81953506
v -0.84245573 1.41062204 0.65909145
v -0.51039049 1.83778525 0.65378141
v -0.31543867 1.41245985 0.90350369
v -0.82582915 1.67532540 0.55839599
v -0.63087733 1.25000000 0.80811827
v -1.15432603 1.25000000 -0.25960320
v -1.15432603 1.25000000 0.25960320
v -1.14126782 1.51286556 -0.15433686
v -1.14126782 0.98713444 -0.15433686
v -1.14126782 1.51286556 0.15433686
v -1.14126782 0.98713444 0.15433686
v -0.65000000 0.10000000 -0.45000000
v -0.65000000 0.10000000 0.45000000
v -0.65000000 0.80000000 -0.45000000
v -0.65000000 0.80000000 0.45000000
v 0.65000000 0.10000000 -0.45000000
v 0.65000000 0.10000000 0.45000000
v 0.65000000 0.80000000 -0.45000000
v 0.65000000 0.80000000 0.45000000
v -0.58771933 1.70519524 0.82000000
v -0.27228067 1.70519524 0.82000000
v -0.58771933 1.19480476 0.82000000
v -0.27228067 1.19480476 0.82000000
v -0.43000000 1.29228067 1.07519524
v -0.43000000 1.60771933 1.07519524
v -0.43000000 1.29228067 0.56480476
v -0.43000000 1.60771933 0.56480476
v -0.17480476 1.45000000 0.66228067
v -0.17480476 1.45000000 0.97771933
v -0.68519524 1.45000000 0.66228067
v -0.68519524 1.45000000 0.97771933
v -0.43000000 1.75000000 0.82000000
v -0.43000000 1.15000000 0.82000000
v -0.52270510 1.20729490 0.97000000
v -0.33729490 1.20729490 0.97000000
v -0.52270510 1.69270510 0.97000000
v -0.33729490 1.69270510 0.97000000
v -0.43000000 1.45000000 1.12000000
v -0.52270510 1.20729490 0.67000000
v -0.33729490 1.20729490 0.67000000
v -0.52270510 1.69270510 0.67000000
v -0.33729490 1.69270510 0.67000000
v -0.43000000 1.45000000 0.52000000
v -0.18729490 1.60000000 0.72729490
v -0.18729490 1.30000000 0.72729490
v -0.28000000 1.35729490 0.57729490
v -0.28000000 1.54270510 0.57729490
v -0.18729490 1.60000000 0.91270510
v -0.18729490 1.30000000 0.91270510
v -0.28000000 1.35729490 1.06270510
v -0.28000000 1.54270510 1.06270510
v -0.13000000 1.45000000 0.82000000
v -0.67270510 1.60000000 0.72729490
v -0.67270510 1.30000000 0.72729490
v -0.58000000 1.35729490 0.57729490
v -0.58000000 1.54270510 0.57729490
v -0.67270510 1.60000000 0.91270510
v -0.67270510 1.30000000 0.91270510
v -0.58000000 1.35729490 1.06270510
v -0.58000000 1.54270510 1.06270510
v -0.73000000 1.45000000 0.82000000
v 0.27228067 1.70519524 0.82000000
v 0.58771933 1.70519524 0.82000000
v 0.27228067 1.19480476 0.82000000
v 0.58771933 1.19480476 0.82000000
v 0.43000000 1.29228067 1.07519524
v 0.43000000 1.60771933 1.07519524
v 0.43000000 1.29228067 0.56480476
v 0.43000000 1.60771933 0.56480476
v 0.68519524 1.45000000 0.66228067
v 0.68519524 1.45000000 0.97771933
v 0.17480476 1.45000000 0.66228067
v 0.17480476 1.45000000 0.97771933
v 0.43000000 1.75000000 0.82000000
v 0.43000000 1.15000000 0.82000000
v 0.33729490 1.20729490 0.97000000
v 0.52270510 1.20729490 0.97000000
v 0.33729490 1.69270510 0.97000000
v 0.52270510 1.69270510 0.97000000
v 0.43000000 1.45000000 1.12000000
v 0.33729490 1.20729490 0.67000000
v 0.52270510 1.20729490 0.67000000
v 0.33729490 1.69270510 0.67000000
v 0.52270510 1.69270510 0.67000000
v 0.43000000 1.45000000 0.52000000
v 0.67270510 1.60000000 0.72729490
v 0.67270510 1.30000000 0.72729490
v 0.58000000 1.35729490 0.57729490
v 0.58000000 1.54270510 0.57729490
v 0.67270510 1.60000000 0.91270510
v 0.67270510 1.30000000 0.91270510
v 0.58000000 1.35729490 1.06270510
v 0.58000000 1.54270510 1.06270510
v 0.73000000 1.45000000 0.82000000
v 0.18729490 1.60000000 0.72729490
v 0.18729490 1.30000000 0.72729490
v 0.28000000 1.35729490 0.57729490
v 0.28000000 1.54270510 0.57729490
v 0.18729490 1.60000000 0.91270510
v 0.18729490 1.30000000 0.91270510
v 0.28000000 1.35729490 1.06270510
v 0.28000000 1.54270510 1.06270510
v 0.13000000 1.45000000 0.82000000
v -0.09000000 0.76000000 0.87000000
v -0.09000000 0.76000000 1.03000000
v -0.09000000 1.14000000 0.87000000
v -0.09000000 1.14000000 1.03000000
v 0.09000000 0.76000000 0.87000000
v 0.09000000 0.76000000 1.03000000
v 0.09000000 1.14000000 0.87000000
v 0.09000000 1.14000000 1.03000000
f 1 138 54
f 138 38 140
f 54 140 17
f 138 140 54
f 38 139 155
f 139 12 152
f 155 152 41
f 139 152 155
f 17 153 55
f 153 41 151
f 55 151 6
f 153 151 55
f 38 155 140
f 155 41 153
f 140 153 17
f 155 153 140
f 1 54 43
f 54 17 56
f 43 56 13
f 54 56 43
f 17 55 60
f 55 6 58
f 60 58 18
f 55 58 60
f 13 59 44
f 59 18 57
f 44 57 2
f 59 57 44
f 17 60 56
f 60 18 59
f 56 59 13
f 60 59 56
f 1 43 70
f 43 13 72
f 70 72 22
f 43 72 70
f 13 44 75
f 44 2 73
f 75 73 23
f 44 73 75
f 22 76 71
f 76 23 74
f 71 74 8
f 76 74 71
f 13 75 72
f 75 23 76
f 72 76 22
f 75 76 72
f 1 70 121
f 70 22 123
f 121 123 34
f 70 123 121
f 22 71 134
f 71 8 132
f 134 132 37
f 71 132 134
f 34 136 122
f 136 37 133
f 122 133 11
f 136 133 122
f 22 134 123
f 134 37 136
f 123 136 34
f 134 136 123
f 1 121 138
f 121 34 141
f 138 141 38
f 121 141 138
f 34 122 159
f 122 11 157
f 159 157 42
f 122 157 159
f 38 161 139
f 161 42 158
f 139 158 12
f 161 158 139
f 34 159 141
f 159 42 161
f 141 161 38
f 159 161 141
f 2 57 96
f 57 18 98
f 96 98 29
f 57 98 96
f 18 58 111
f 58 6 109
f 111 109 32
f 58 109 111
f 29 113 97
f 113 32 110
f 97 110 10
f 113 110 97
f 18 111 98
f 111 32 113
f 98 113 29
f 111 113 98
f 6 151 62
f 151 41 154
f 62 154 19
f 151 154 62
f 41 152 156
f 152 12 147
f 156 147 40
f 152 147 156
f 19 149 61
f 149 40 146
f 61 146 5
f 149 146 61
f 41 156 154
f 156 40 149
f 154 149 19
f 156 149 154
f 12 158 143
f 158 42 162
f 143 162 39
f 158 162 143
f 42 157 160
f 157 11 125
f 160 125 35
f 157 125 160
f 39 145 142
f 145 35 124
f 142 124 3
f 145 124 142
f 42 160 162
f 160 35 145
f 162 145 39
f 160 145 162
f 11 133 128
f 133 37 137
f 128 137 36
f 133 137 128
f 37 132 135
f 132 8 78
f 135 78 24
f 132 78 135
f 36 130 127
f 130 24 77
f 127 77 7
f 130 77 127
f 37 135 137
f 135 24 130
f 137 130 36
f 135 130 137
f 8 74 90
f 74 23 92
f 90 92 28
f 74 92 90
f 23 73 81
f 73 2 79
f 81 79 25
f 73 79 81
f 28 94 91
f 94 25 80
f 91 80 9
f 94 80 91
f 23 81 92
f 81 25 94
f 92 94 28
f 81 94 92
f 4 100 50
f 100 30 102
f 50 102 16
f 100 102 50
f 30 101 108
f 101 10 105
f 108 105 31
f 101 105 108
f 16 106 51
f 106 31 104
f 51 104 5
f 106 104 51
f 30 108 102
f 108 31 106
f 102 106 16
f 108 106 102
f 4 50 46
f 50 16 52
f 46 52 14
f 50 52 46
f 16 51 53
f 51 5 48
f 53 48 15
f 51 48 53
f 14 49 45
f 49 15 47
f 45 47 3
f 49 47 45
f 16 53 52
f 53 15 49
f 52 49 14
f 53 49 52
f 4 46 66
f 46 14 68
f 66 68 21
f 46 68 66
f 14 45 65
f 45 3 63
f 65 63 20
f 45 63 65
f 21 69 67
f 69 20 64
f 67 64 7
f 69 64 67
f 14 65 68
f 65 20 69
f 68 69 21
f 65 69 68
f 4 66 82
f 66 21 84
f 82 84 26
f 66 84 82
f 21 67 87
f 67 7 85
f 87 85 27
f 67 85 87
f 26 89 83
f 89 27 86
f 83 86 9
f 89 86 83
f 21 87 84
f 87 27 89
f 84 89 26
f 87 89 84
f 4 82 100
f 82 26 103
f 100 103 30
f 82 103 100
f 26 83 118
f 83 9 115
f 118 115 33
f 83 115 118
f 30 120 101
f 120 33 116
f 101 116 10
f 120 116 101
f 26 118 103
f 118 33 120
f 103 120 30
f 118 120 103
f 5 104 61
f 104 31 107
f 61 107 19
f 104 107 61
f 31 105 114
f 105 10 110
f 114 110 32
f 105 110 114
f 19 112 62
f 112 32 109
f 62 109 6
f 112 109 62
f 31 114 107
f 114 32 112
f 107 112 19
f 114 112 107
f 3 47 142
f 47 15 144
f 142 144 39
f 47 144 142
f 15 48 148
f 48 5 146
f 148 146 40
f 48 146 148
f 39 150 143
f 150 40 147
f 143 147 12
f 150 147 143
f 15 148 144
f 148 40 150
f 144 150 39
f 148 150 144
f 7 64 127
f 64 20 129
f 127 129 36
f 64 129 127
f 20 63 126
f 63 3 124
f 126 124 35
f 63 124 126
f 36 131 128
f 131 35 125
f 128 125 11
f 131 125 128
f 20 126 129
f 126 35 131
f 129 131 36
f 126 131 129
f 9 86 91
f 86 27 95
f 91 95 28
f 86 95 91
f 27 85 88
f 85 7 77
f 88 77 24
f 85 77 88
f 28 93 90
f 93 24 78
f 90 78 8
f 93 78 90
f 27 88 95
f 88 24 93
f 95 93 28
f 88 93 95
f 10 116 97
f 116 33 119
f 97 119 29
f 116 119 97
f 33 115 117
f 115 9 80
f 117 80 25
f 115 80 117
f 29 99 96
f 99 25 79
f 96 79 2
f 99 79 96
f 33 117 119
f 117 25 99
f 119 99 29
f 117 99 119
f 164 166 163
f 167 164 163
f 163 166 165
f 165 167 163
f 164 170 166
f 168 164 167
f 168 170 164
f 166 170 165
f 169 167 165
f 165 170 169
f 169 168 167
f 170 168 169
f 171 208 187
f 208 182 211
f 187 211 176
f 208 211 187
f 171 187 183
f 187 176 188
f 183 188 172
f 187 188 183
f 171 183 192
f 183 172 193
f 192 193 178
f 183 193 192
f 171 192 204
f 192 178 207
f 204 207 181
f 192 207 204
f 171 204 208
f 204 181 212
f 208 212 182
f 204 212 208
f 172 188 199
f 188 176 202
f 199 202 180
f 188 202 199
f 176 211 189
f 211 182 210
f 189 210 175
f 211 210 189
f 182 212 209
f 212 181 205
f 209 205 173
f 212 205 209
f 181 207 206
f 207 178 194
f 206 194 177
f 207 194 206
f 178 193 198
f 193 172 195
f 198 195 179
f 193 195 198
f 174 200 186
f 200 180 201
f 186 201 175
f 200 201 186
f 174 186 184
f 186 175 185
f 184 185 173
f 186 185 184
f 174 184 191
f 184 173 190
f 191 190 177
f 184 190 191
f 174 191 196
f 191 177 197
f 196 197 179
f 191 197 196
f 174 196 200
f 196 179 203
f 200 203 180
f 196 203 200
f 175 201 189
f 201 180 202
f 189 202 176
f 201 202 189
f 173 185 209
f 185 175 210
f 209 210 182
f 185 210 209
f 177 190 206
f 190 173 205
f 206 205 181
f 190 205 206
f 179 197 198
f 197 177 194
f 198 194 178
f 197 194 198
f 180 203 199
f 203 179 195
f 199 195 172
f 203 195 199
f 213 250 229
f 250 224 253
f 229 253 218
f 250 253 229
f 213 229 225
f 229 218 230
f 225 230 214
f 229 230 225
f 213 225 234
f 225 214 235
f 234 235 220
f 225 235 234
f 213 234 246
f 234 220 249
f 246 249 223
f 234 249 246
f 213 246 250
f 246 223 254
f 250 254 224
f 246 254 250
f 214 230 241
f 230 218 244
f 241 244 222
f 230 244 241
f 218 253 231
f 253 224 252
f 231 252 217
f 253 252 231
f 224 254 251
f 254 223 247
f 251 247 215
f 254 247 251
f 223 249 248
f 249 220 236
f 248 236 219
f 249 236 248
f 220 235 240
f 235 214 237
f 240 237 221
f 235 237 240
f 216 242 228
f 242 222 243
f 228 243 217
f 242 243 228
f 216 228 226
f 228 217 227
f 226 227 215
f 228 227 226
f 216 226 233
f 226 215 232
f 233 232 219
f 226 232 233
f 216 233 238
f 233 219 239
f 238 239 221
f 233 239 238
f 216 238 242
f 238 221 245
f 242 245 222
f 238 245 242
f 217 243 231
f 243 222 244
f 231 244 218
f 243 244 231
f 215 227 251
f 227 217 252
f 251 252 224
f 227 252 251
f 219 232 248
f 232 215 247
f 248 247 223
f 232 247 248
f 221 239 240
f 239 219 236
f 240 236 220
f 239 236 240
f 222 245 241
f 245 221 237
f 241 237 214
f 245 237 241
f 256 258 255
f 259 256 255
f 255 258 257
f 257 259 255
f 256 262 258
f 260 256 259
f 260 262 256
f 258 262 257
f 261 259 257
f 257 262 261
f 261 260 259
f 262 260 261

