# https://github.com/mikedh/trimesh
v -2.50000000 0.07500000 -0.22500000
v -2.50000000 0.07500000 0.22500000
v -2.50000000 0.42500000 -0.22500000
v -2.50000000 0.42500000 0.22500000
v 2.50000000 0.07500000 -0.22500000
v 2.50000000 0.07500000 0.22500000
v 2.50000000 0.42500000 -0.22500000
v 2.50000000 0.42500000 0.22500000
v -2.00000000 0.35000000 0.00000000
v -1.93904180 0.40250732 -0.08903415
v -1.93904180 2.35250732 1.06096585
v -2.00000000 2.30000000 1.15000000
v -2.02998536 0.40902445 -0.10008493
v -2.02998536 2.35902445 1.04991507
v -2.10336391 0.38096585 -0.05250732
v -2.10336391 2.33096585 1.09749268
v -2.11619328 0.33476789 0.02582837
v -2.11619328 2.28476789 1.17582837
v -2.06095820 0.29749268 0.08903415
v -2.06095820 2.24749268 1.23903415
v -1.97001464 0.29097555 0.10008493
v -1.97001464 2.24097555 1.25008493
v -1.89663609 0.31903415 0.05250732
v -1.89663609 2.26903415 1.20250732
v -1.88380672 0.36523211 -0.02582837
v -1.88380672 2.31523211 1.12417163
v -2.00000000 2.30000000 1.15000000
v -2.09957947 2.30912278 1.14916070
v -2.09957947 2.12512278 -0.85083930
v -2.00000000 2.11600000 -0.85000000
v -2.06393529 2.37656799 1.14295575
v -2.06393529 2.19256799 -0.85704425
v -1.99083869 2.39916070 1.14087722
v -1.99083869 2.21516070 -0.85912278
v -1.92310866 2.36366642 1.14414269
v -1.92310866 2.17966642 -0.85585731
v -1.90042053 2.29087722 1.15083930
v -1.90042053 2.10687722 -0.84916070
v -1.93606471 2.22343201 1.15704425
v -1.93606471 2.03943201 -0.84295575
v -2.00916131 2.20083930 1.15912278
v -2.00916131 2.01683930 -0.84087722
v -2.07689134 2.23633358 1.15585731
v -2.07689134 2.05233358 -0.84414269
v -1.20000000 0.35000000 0.00000000
v -1.14499940 0.39888331 -0.09479112
v -1.14499940 2.62888331 1.05520888
v -1.20000000 2.58000000 1.15000000
v -1.23652400 0.40239109 -0.10159316
v -1.23652400 2.63239109 1.04840684
v -1.30665334 0.37520888 -0.04888331
v -1.30665334 2.60520888 1.10111669
v -1.31430659 0.33325965 0.03246172
v -1.31430659 2.56325965 1.18246172
v -1.25500060 0.30111669 0.09479112
v -1.25500060 2.53111669 1.24479112
v -1.16347600 0.29760891 0.10159316
v -1.16347600 2.52760891 1.25159316
v -1.09334666 0.32479112 0.04888331
v -1.09334666 2.55479112 1.19888331
v -1.08569341 0.36674035 -0.03246172
v -1.08569341 2.59674035 1.11753828
v -1.20000000 2.58000000 1.15000000
v -1.29947170 2.59021125 1.14894620
v -1.29947170 2.38381125 -0.85105380
v -1.20000000 2.37360000 -0.85000000
v -1.26307833 2.65718597 1.14203441
v -1.26307833 2.45078597 -0.85796559
v -1.18973452 2.67894620 1.13978875
v -1.18973452 2.47254620 -0.86021125
v -1.12240409 2.64274509 1.14352471
v -1.12240409 2.43634509 -0.85647529
v -1.10052830 2.56978875 1.15105380
v -1.10052830 2.36338875 -0.84894620
v -1.13692167 2.50281403 1.15796559
v -1.13692167 2.29641403 -0.84203441
v -1.21026548 2.48105380 1.16021125
v -1.21026548 2.27465380 -0.83978875
v -1.27759591 2.51725491 1.15647529
v -1.27759591 2.31085491 -0.84352471
v -0.40000000 0.35000000 0.00000000
v -0.35001640 0.39544119 -0.09918033
v -0.35001640 2.90544119 1.05081967
v -0.40000000 2.86000000 1.15000000
v -0.44179782 0.39685350 -0.10226286
v -0.44179782 2.90685350 1.04773714
v -0.50909464 0.37081967 -0.04544119
v -0.50909464 2.88081967 1.10455881
v -0.51248530 0.33258996 0.03799931
v -0.51248530 2.84258996 1.18799931
v -0.44998360 0.30455881 0.09918033
v -0.44998360 2.81455881 1.24918033
v -0.35820218 0.30314650 0.10226286
v -0.35820218 2.81314650 1.25226286
v -0.29090536 0.32918033 0.04544119
v -0.29090536 2.83918033 1.19544119
v -0.28751470 0.36741004 -0.03799931
v -0.28751470 2.87741004 1.11200069
v -0.40000000 2.86000000 1.15000000
v -0.49935199 2.87129221 1.14870817
v -0.49935199 2.64249221 -0.85129183
v -0.40000000 2.63120000 -0.85000000
v -0.46221558 2.93778202 1.14110174
v -0.46221558 2.70898202 -0.85889826
v -0.38863413 2.95870817 1.13870779
v -0.38863413 2.72990817 -0.86129221
v -0.32171066 2.92181242 1.14292866
v -0.32171066 2.69301242 -0.85707134
v -0.30064801 2.84870779 1.15129183
v -0.30064801 2.61990779 -0.84870817
v -0.33778442 2.78221798 1.15889826
v -0.33778442 2.55341798 -0.84110174
v -0.41136587 2.76129183 1.16129221
v -0.41136587 2.53249183 -0.83870779
v -0.47828934 2.79818758 1.15707134
v -0.47828934 2.56938758 -0.84292866
v 0.40000000 0.35000000 0.00000000
v 0.44998360 0.39544119 -0.09918033
v 0.44998360 2.90544119 1.05081967
v 0.40000000 2.86000000 1.15000000
v 0.35820218 0.39685350 -0.10226286
v 0.35820218 2.90685350 1.04773714
v 0.29090536 0.37081967 -0.04544119
v 0.29090536 2.88081967 1.10455881
v 0.28751470 0.33258996 0.03799931
v 0.28751470 2.84258996 1.18799931
v 0.35001640 0.30455881 0.09918033
v 0.35001640 2.81455881 1.24918033
v 0.44179782 0.30314650 0.10226286
v 0.44179782 2.81314650 1.25226286
v 0.50909464 0.32918033 0.04544119
v 0.50909464 2.83918033 1.19544119
v 0.51248530 0.36741004 -0.03799931
v 0.51248530 2.87741004 1.11200069
v 0.40000000 2.86000000 1.15000000
v 0.30064801 2.87129221 1.14870817
v 0.30064801 2.64249221 -0.85129183
v 0.40000000 2.63120000 -0.85000000
v 0.33778442 2.93778202 1.14110174
v 0.33778442 2.70898202 -0.85889826
v 0.41136587 2.95870817 1.13870779
v 0.41136587 2.72990817 -0.86129221
v 0.47828934 2.92181242 1.14292866
v 0.47828934 2.69301242 -0.85707134
v 0.49935199 2.84870779 1.15129183
v 0.49935199 2.61990779 -0.84870817
v 0.46221558 2.78221798 1.15889826
v 0.46221558 2.55341798 -0.84110174
v 0.38863413 2.76129183 1.16129221
v 0.38863413 2.53249183 -0.83870779
v 0.32171066 2.79818758 1.15707134
v 0.32171066 2.56938758 -0.84292866
v 1.20000000 0.35000000 0.00000000
v 1.25500060 0.39888331 -0.09479112
v 1.25500060 2.62888331 1.05520888
v 1.20000000 2.58000000 1.15000000
v 1.16347600 0.40239109 -0.10159316
v 1.16347600 2.63239109 1.04840684
v 1.09334666 0.37520888 -0.04888331
v 1.09334666 2.60520888 1.10111669
v 1.08569341 0.33325965 0.03246172
v 1.08569341 2.56325965 1.18246172
v 1.14499940 0.30111669 0.09479112
v 1.14499940 2.53111669 1.24479112
v 1.23652400 0.29760891 0.10159316
v 1.23652400 2.52760891 1.25159316
v 1.30665334 0.32479112 0.04888331
v 1.30665334 2.55479112 1.19888331
v 1.31430659 0.36674035 -0.03246172
v 1.31430659 2.59674035 1.11753828
v 1.20000000 2.58000000 1.15000000
v 1.10052830 2.59021125 1.14894620
v 1.10052830 2.38381125 -0.85105380
v 1.20000000 2.37360000 -0.85000000
v 1.13692167 2.65718597 1.14203441
v 1.13692167 2.45078597 -0.85796559
v 1.21026548 2.67894620 1.13978875
v 1.21026548 2.47254620 -0.86021125
v 1.27759591 2.64274509 1.14352471
v 1.27759591 2.43634509 -0.85647529
v 1.29947170 2.56978875 1.15105380
v 1.29947170 2.36338875 -0.84894620
v 1.26307833 2.50281403 1.15796559
v 1.26307833 2.29641403 -0.84203441
v 1.18973452 2.48105380 1.16021125
v 1.18973452 2.27465380 -0.83978875
v 1.12240409 2.51725491 1.15647529
v 1.12240409 2.31085491 -0.84352471
v 2.00000000 0.35000000 0.00000000
v 2.06095820 0.40250732 -0.08903415
v 2.06095820 2.35250732 1.06096585
v 2.00000000 2.30000000 1.15000000
v 1.97001464 0.40902445 -0.10008493
v 1.97001464 2.35902445 1.04991507
v 1.89663609 0.38096585 -0.05250732
v 1.89663609 2.33096585 1.09749268
v 1.88380672 0.33476789 0.02582837
v 1.88380672 2.28476789 1.17582837
v 1.93904180 0.29749268 0.08903415
v 1.93904180 2.24749268 1.23903415
v 2.02998536 0.29097555 0.10008493
v 2.02998536 2.24097555 1.25008493
v 2.10336391 0.31903415 0.05250732
v 2.10336391 2.26903415 1.20250732
v 2.11619328 0.36523211 -0.02582837
v 2.11619328 2.31523211 1.12417163
v 2.00000000 2.30000000 1.15000000
v 1.90042053 2.30912278 1.14916070
v 1.90042053 2.12512278 -0.85083930
v 2.00000000 2.11600000 -0.85000000
v 1.93606471 2.37656799 1.14295575
v 1.93606471 2.19256799 -0.85704425
v 2.00916131 2.39916070 1.14087722
v 2.00916131 2.21516070 -0.85912278
v 2.07689134 2.36366642 1.14414269
v 2.07689134 2.17966642 -0.85585731
v 2.09957947 2.29087722 1.15083930
v 2.09957947 2.10687722 -0.84916070
v 2.06393529 2.22343201 1.15704425
v 2.06393529 2.03943201 -0.84295575
v 1.99083869 2.20083930 1.15912278
v 1.99083869 2.01683930 -0.84087722
v 1.92310866 2.23633358 1.15585731
v 1.92310866 2.05233358 -0.84414269
f 2 4 1
f 5 2 1
f 1 4 3
f 3 5 1
f 2 8 4
f 6 2 5
f 6 8 2
f 4 8 3
f 7 5 3
f 3 8 7
f 7 6 5
f 8 6 7
f 10 9 13
f 10 13 11
f 11 13 14
f 11 14 12
f 13 9 15
f 13 15 14
f 14 15 16
f 14 16 12
f 15 9 17
f 15 17 16
f 16 17 18
f 16 18 12
f 17 9 19
f 17 19 18
f 18 19 20
f 18 20 12
f 19 9 21
f 19 21 20
f 20 21 22
f 20 22 12
f 21 9 23
f 21 23 22
f 22 23 24
f 22 24 12
f 23 9 25
f 23 25 24
f 24 25 26
f 24 26 12
f 25 9 10
f 25 10 26
f 26 10 11
f 26 11 12
f 28 27 31
f 28 31 29
f 29 31 32
f 29 32 30
f 31 27 33
f 31 33 32
f 32 33 34
f 32 34 30
f 33 27 35
f 33 35 34
f 34 35 36
f 34 36 30
f 35 27 37
f 35 37 36
f 36 37 38
f 36 38 30
f 37 27 39
f 37 39 38
f 38 39 40
f 38 40 30
f 39 27 41
f 39 41 40
f 40 41 42
f 40 42 30
f 41 27 43
f 41 43 42
f 42 43 44
f 42 44 30
f 43 27 28
f 43 28 44
f 44 28 29
f 44 29 30
f 46 45 49
f 46 49 47
f 47 49 50
f 47 50 48
f 49 45 51
f 49 51 50
f 50 51 52
f 50 52 48
f 51 45 53
f 51 53 52
f 52 53 54
f 52 54 48
f 53 45 55
f 53 55 54
f 54 55 56
f 54 56 48
f 55 45 57
f 55 57 56
f 56 57 58
f 56 58 48
f 57 45 59
f 57 59 58
f 58 59 60
f 58 60 48
f 59 45 61
f 59 61 60
f 60 61 62
f 60 62 48
f 61 45 46
f 61 46 62
f 62 46 47
f 62 47 48
f 64 63 67
f 64 67 65
f 65 67 68
f 65 68 66
f 67 63 69
f 67 69 68
f 68 69 70
f 68 70 66
f 69 63 71
f 69 71 70
f 70 71 72
f 70 72 66
f 71 63 73
f 71 73 72
f 72 73 74
f 72 74 66
f 73 63 75
f 73 75 74
f 74 75 76
f 74 76 66
f 75 63 77
f 75 77 76
f 76 77 78
f 76 78 66
f 77 63 79
f 77 79 78
f 78 79 80
f 78 80 66
f 79 63 64
f 79 64 80
f 80 64 65
f 80 65 66
f 82 81 85
f 82 85 83
f 83 85 86
f 83 86 84
f 85 81 87
f 85 87 86
f 86 87 88
f 86 88 84
f 87 81 89
f 87 89 88
f 88 89 90
f 88 90 84
f 89 81 91
f 89 91 90
f 90 91 92
f 90 92 84
f 91 81 93
f 91 93 92
f 92 93 94
f 92 94 84
f 93 81 95
f 93 95 94
f 94 95 96
f 94 96 84
f 95 81 97
f 95 97 96
f 96 97 98
f 96 98 84
f 97 81 82
f 97 82 98
f 98 82 83
f 98 83 84
f 100 99 103
f 100 103 101
f 101 103 104
f 101 104 102
f 103 99 105
f 103 105 104
f 104 105 106
f 104 106 102
f 105 99 107
f 105 107 106
f 106 107 108
f 106 108 102
f 107 99 109
f 107 109 108
f 108 109 110
f 108 110 102
f 109 99 111
f 109 111 110
f 110 111 112
f 110 112 102
f 111 99 113
f 111 113 112
f 112 113 114
f 112 114 102
f 113 99 115
f 113 115 114
f 114 115 116
f 114 116 102
f 115 99 100
f 115 100 116
f 116 100 101
f 116 101 102
f 118 117 121
f 118 121 119
f 119 121 122
f 119 122 120
f 121 117 123
f 121 123 122
f 122 123 124
f 122 124 120
f 123 117 125
f 123 125 124
f 124 125 126
f 124 126 120
f 125 117 127
f 125 127 126
f 126 127 128
f 126 128 120
f 127 117 129
f 127 129 128
f 128 129 130
f 128 130 120
f 129 117 131
f 129 131 130
f 130 131 132
f 130 132 120
f 131 117 133
f 131 133 132
f 132 133 134
f 132 134 120
f 133 117 118
f 133 118 134
f 134 118 119
f 134 119 120
f 136 135 139
f 136 139 137
f 137 139 140
f 137 140 138
f 139 135 141
f 139 141 140
f 140 141 142
f 140 142 138
f 141 135 143
f 141 143 142
f 142 143 144
f 142 144 138
f 143 135 145
f 143 145 144
f 144 145 146
f 144 146 138
f 145 135 147
f 145 147 146
f 146 147 148
f 146 148 138
f 147 135 149
f 147 149 148
f 148 149 150
f 148 150 138
f 149 135 151
f 149 151 150
f 150 151 152
f 150 152 138
f 151 135 136
f 151 136 152
f 152 136 137
f 152 137 138
f 154 153 157
f 154 157 155
f 155 157 158
f 155 158 156
f 157 153 159
f 157 159 158
f 158 159 160
f 158 160 156
f 159 153 161
f 159 161 160
f 160 161 162
f 160 162 156
f 161 153 163
f 161 163 162
f 162 163 164
f 162 164 156
f 163 153 165
f 163 165 164
f 164 165 166
f 164 166 156
f 165 153 167
f 165 167 166
f 166 167 168
f 166 168 156
f 167 153 169
f 167 169 168
f 168 169 170
f 168 170 156
f 169 153 154
f 169 154 170
f 170 154 155
f 170 155 156
f 172 171 175
f 172 175 173
f 173 175 176
f 173 176 174
f 175 171 177
f 175 177 176
f 176 177 178
f 176 178 174
f 177 171 179
f 177 179 178
f 178 179 180
f 178 180 174
f 179 171 181
f 179 181 180
f 180 181 182
f 180 182 174
f 181 171 183
f 181 183 182
f 182 183 184
f 182 184 174
f 183 171 185
f 183 185 184
f 184 185 186
f 184 186 174
f 185 171 187
f 185 187 186
f 186 187 188
f 186 188 174
f 187 171 172
f 187 172 188
f 188 172 173
f 188 173 174
f 190 189 193
f 190 193 191
f 191 193 194
f 191 194 192
f 193 189 195
f 193 195 194
f 194 195 196
f 194 196 192
f 195 189 197
f 195 197 196
f 196 197 198
f 196 198 192
f 197 189 199
f 197 199 198
f 198 199 200
f 198 200 192
f 199 189 201
f 199 201 200
f 200 201 202
f 200 202 192
f 201 189 203
f 201 203 202
f 202 203 204
f 202 204 192
f 203 189 205
f 203 205 204
f 204 205 206
f 204 206 192
f 205 189 190
f 205 190 206
f 206 190 191
f 206 191 192
f 208 207 211
f 208 211 209
f 209 211 212
f 209 212 210
f 211 207 213
f 211 213 212
f 212 213 214
f 212 214 210
f 213 207 215
f 213 215 214
f 214 215 216
f 214 216 210
f 215 207 217
f 215 217 216
f 216 217 218
f 216 218 210
f 217 207 219
f 217 219 218
f 218 219 220
f 218 220 210
f 219 207 221
f 219 221 220
f 220 221 222
f 220 222 210
f 221 207 223
f 221 223 222
f 222 223 224
f 222 224 210
f 223 207 208
f 223 208 224
f 224 208 209
f 224 209 210

