# https://github.com/mikedh/trimesh
v -0.37603306 0.00000000 -0.00000000
v -0.37603306 0.00000000 -0.10743802
v 0.36776860 0.00000000 -0.10743802
v 0.36776860 0.00000000 0.00000000
v -0.37603306 0.05371901 -0.09304405
v 0.36776860 0.05371901 -0.09304405
v -0.37603306 0.09304405 -0.05371901
v 0.36776860 0.09304405 -0.05371901
v -0.37603306 0.10743802 -0.00000000
v 0.36776860 0.10743802 0.00000000
v -0.37603306 0.09304405 0.05371901
v 0.36776860 0.09304405 0.05371901
v -0.37603306 0.05371901 0.09304405
v 0.36776860 0.05371901 0.09304405
v -0.37603306 0.00000000 0.10743802
v 0.36776860 0.00000000 0.10743802
v -0.37603306 -0.05371901 0.09304405
v 0.36776860 -0.05371901 0.09304405
v -0.37603306 -0.09304405 0.05371901
v 0.36776860 -0.09304405 0.05371901
v -0.37603306 -0.10743802 -0.00000000
v 0.36776860 -0.10743802 0.00000000
v -0.37603306 -0.09304405 -0.05371901
v 0.36776860 -0.09304405 -0.05371901
v -0.37603306 -0.05371901 -0.09304405
v 0.36776860 -0.05371901 -0.09304405
v 0.31818182 0.00000000 -0.00000000
v 0.31818182 0.00000000 -0.14876033
v 0.50000000 0.00000000 -0.14876033
v 0.50000000 0.00000000 0.00000000
v 0.31818182 0.07438017 -0.12883023
v 0.50000000 0.07438017 -0.12883023
v 0.31818182 0.12883023 -0.07438017
v 0.50000000 0.12883023 -0.07438017
v 0.31818182 0.14876033 -0.00000000
v 0.50000000 0.14876033 -0.00000000
v 0.31818182 0.12883023 0.07438017
v 0.50000000 0.12883023 0.07438017
v 0.31818182 0.07438017 0.12883023
v 0.50000000 0.07438017 0.12883023
v 0.31818182 0.00000000 0.14876033
v 0.50000000 0.00000000 0.14876033
v 0.31818182 -0.07438017 0.12883023
v 0.50000000 -0.07438017 0.12883023
v 0.31818182 -0.12883023 0.07438017
v 0.50000000 -0.12883023 0.07438017
v 0.31818182 -0.14876033 0.00000000
v 0.50000000 -0.14876033 0.00000000
v 0.31818182 -0.12883023 -0.07438017
v 0.50000000 -0.12883023 -0.07438017
v 0.31818182 -0.07438017 -0.12883023
v 0.50000000 -0.07438017 -0.12883023
v -0.50000000 0.00000000 -0.00000000
v -0.50000000 0.00000000 -0.13223140
v -0.33471074 0.00000000 -0.13223140
v -0.33471074 0.00000000 0.00000000
v -0.50000000 0.06611570 -0.11451576
v -0.33471074 0.06611570 -0.11451576
v -0.50000000 0.11451576 -0.06611570
v -0.33471074 0.11451576 -0.06611570
v -0.50000000 0.13223140 -0.00000000
v -0.33471074 0.13223140 -0.00000000
v -0.50000000 0.11451576 0.06611570
v -0.33471074 0.11451576 0.06611570
v -0.50000000 0.06611570 0.11451576
v -0.33471074 0.06611570 0.11451576
v -0.50000000 0.00000000 0.13223140
v -0.33471074 0.00000000 0.13223140
v -0.50000000 -0.06611570 0.11451576
v -0.33471074 -0.06611570 0.11451576
v -0.50000000 -0.11451576 0.06611570
v -0.33471074 -0.11451576 0.06611570
v -0.50000000 -0.13223140 0.00000000
v -0.33471074 -0.13223140 0.00000000
v -0.50000000 -0.11451576 -0.06611570
v -0.33471074 -0.11451576 -0.06611570
v -0.50000000 -0.06611570 -0.11451576
v -0.33471074 -0.06611570 -0.11451576
f 2 1 5
f 2 5 3
f 3 5 6
f 3 6 4
f 5 1 7
f 5 7 6
f 6 7 8
f 6 8 4
f 7 1 9
f 7 9 8
f 8 9 10
f 8 10 4
f 9 1 11
f 9 11 10
f 10 11 12
f 10 12 4
f 11 1 13
f 11 13 12
f 12 13 14
f 12 14 4
f 13 1 15
f 13 15 14
f 14 15 16
f 14 16 4
f 15 1 17
f 15 17 16
f 16 17 18
f 16 18 4
f 17 1 19
f 17 19 18
f 18 19 20
f 18 20 4
f 19 1 21
f 19 21 20
f 20 21 22
f 20 22 4
f 21 1 23
f 21 23 22
f 22 23 24
f 22 24 4
f 23 1 25
f 23 25 24
f 24 25 26
f 24 26 4
f 25 1 2
f 25 2 26
f 26 2 3
f 26 3 4
f 28 27 31
f 28 31 29
f 29 31 32
f 29 32 30
f 31 27 33
f 31 33 32
f 32 33 34
f 32 34 30
f 33 27 35
f 33 35 34
f 34 35 36
f 34 36 30
f 35 27 37
f 35 37 36
f 36 37 38
f 36 38 30
f 37 27 39
f 37 39 38
f 38 39 40
f 38 40 30
f 39 27 41
f 39 41 40
f 40 41 42
f 40 42 30
f 41 27 43
f 41 43 42
f 42 43 44
f 42 44 30
f 43 27 45
f 43 45 44
f 44 45 46
f 44 46 30
f 45 27 47
f 45 47 46
f 46 47 48
f 46 48 30
f 47 27 49
f 47 49 48
f 48 49 50
f 48 50 30
f 49 27 51
f 49 51 50
f 50 51 52
f 50 52 30
f 51 27 28
f 51 28 52
f 52 28 29
f 52 29 30
f 54 53 57
f 54 57 55
f 55 57 58
f 55 58 56
f 57 53 59
f 57 59 58
f 58 59 60
f 58 60 56
f 59 53 61
f 59 61 60
f 60 61 62
f 60 62 56
f 61 53 63
f 61 63 62
f 62 63 64
f 62 64 56
f 63 53 65
f 63 65 64
f 64 65 66
f 64 66 56
f 65 53 67
f 65 67 66
f 66 67 68
f 66 68 56
f 67 53 69
f 67 69 68
f 68 69 70
f 68 70 56
f 69 53 71
f 69 71 70
f 70 71 72
f 70 72 56
f 71 53 73
f 71 73 72
f 72 73 74
f 72 74 56
f 73 53 75
f 73 75 74
f 74 75 76
f 74 76 56
f 75 53 77
f 75 77 76
f 76 77 78
f 76 78 56
f 77 53 54
f 77 54 78
f 78 54 55
f 78 55 56

