# https://github.com/mikedh/trimesh
v -0.39460691 0.18903351 0.00000000
v -0.16094864 0.18903351 0.00000000
v -0.39460691 -0.18903351 0.00000000
v -0.16094864 -0.18903351 0.00000000
v -0.27777778 -0.11682914 0.18903351
v -0.27777778 0.11682914 0.18903351
v -0.27777778 -0.11682914 -0.18903351
v -0.27777778 0.11682914 -0.18903351
v -0.08874426 0.00000000 -0.11682914
v -0.08874426 0.00000000 0.11682914
v -0.46681129 0.00000000 -0.11682914
v -0.46681129 0.00000000 0.11682914
v -0.27777778 0.22222222 0.00000000
v -0.27777778 -0.22222222 0.00000000
v -0.34644822 -0.17978155 0.11111111
v -0.20910733 -0.17978155 0.11111111
v -0.34644822 0.17978155 0.11111111
v -0.20910733 0.17978155 0.11111111
v -0.27777778 0.00000000 0.22222222
v -0.34644822 -0.17978155 -0.11111111
v -0.20910733 -0.17978155 -0.11111111
v -0.34644822 0.17978155 -0.11111111
v -0.20910733 0.17978155 -0.11111111
v -0.27777778 0.00000000 -0.22222222
v -0.09799622 0.11111111 -0.06867044
v -0.09799622 -0.11111111 -0.06867044
v -0.16666667 -0.06867044 -0.17978155
v -0.16666667 0.06867044 -0.17978155
v -0.09799622 0.11111111 0.06867044
v -0.09799622 -0.11111111 0.06867044
v -0.16666667 -0.06867044 0.17978155
v -0.16666667 0.06867044 0.17978155
v -0.05555556 0.00000000 0.00000000
v -0.45755933 0.11111111 -0.06867044
v -0.45755933 -0.11111111 -0.06867044
v -0.38888889 -0.06867044 -0.17978155
v -0.38888889 0.06867044 -0.17978155
v -0.45755933 0.11111111 0.06867044
v -0.45755933 -0.11111111 0.06867044
v -0.38888889 -0.06867044 0.17978155
v -0.38888889 0.06867044 0.17978155
v -0.50000000 0.00000000 0.00000000
v -0.33850367 0.21376408 0.00000000
v -0.21705188 0.21376408 0.00000000
v -0.33850367 -0.21376408 0.00000000
v -0.21705188 -0.21376408 0.00000000
v -0.37419746 -0.19170411 0.05775376
v -0.31347156 -0.15417344 0.15601032
v -0.31387997 -0.21134589 0.05841457
v -0.18135810 -0.19170411 0.05775376
v -0.24208399 -0.15417344 0.15601032
v -0.24167559 -0.21134589 0.05841457
v -0.27777778 -0.18903351 0.11682914
v -0.37419746 0.19170411 0.05775376
v -0.31347156 0.15417344 0.15601032
v -0.31387997 0.21134589 0.05841457
v -0.18135810 0.19170411 0.05775376
v -0.24208399 0.15417344 0.15601032
v -0.24167559 0.21134589 0.05841457
v -0.27777778 0.18903351 0.11682914
v -0.27777778 -0.06072590 0.21376408
v -0.27777778 0.06072590 0.21376408
v -0.37419746 -0.19170411 -0.05775376
v -0.31347156 -0.15417344 -0.15601032
v -0.31387997 -0.21134589 -0.05841457
v -0.18135810 -0.19170411 -0.05775376
v -0.24208399 -0.15417344 -0.15601032
v -0.24167559 -0.21134589 -0.05841457
v -0.27777778 -0.18903351 -0.11682914
v -0.37419746 0.19170411 -0.05775376
v -0.31347156 0.15417344 -0.15601032
v -0.31387997 0.21134589 -0.05841457
v -0.18135810 0.19170411 -0.05775376
v -0.24208399 0.15417344 -0.15601032
v -0.24167559 0.21134589 -0.05841457
v -0.27777778 0.18903351 -0.11682914
v -0.27777778 -0.06072590 -0.21376408
v -0.27777778 0.06072590 -0.21376408
v -0.12360434 0.15601032 -0.03569379
v -0.08607367 0.05775376 -0.09641968
v -0.14715883 0.15293132 -0.09451676
v -0.12360434 -0.15601032 -0.03569379
v -0.08607367 -0.05775376 -0.09641968
v -0.14715883 -0.15293132 -0.09451676
v -0.22002402 -0.09641968 -0.19170411
v -0.12176746 -0.03569379 -0.15417344
v -0.18326102 -0.13061894 -0.15293132
v -0.21936321 -0.03610219 -0.21134589
v -0.12484645 -0.09451676 -0.13061894
v -0.22002402 0.09641968 -0.19170411
v -0.12176746 0.03569379 -0.15417344
v -0.18326102 0.13061894 -0.15293132
v -0.21936321 0.03610219 -0.21134589
v -0.12484645 0.09451676 -0.13061894
v -0.16094864 0.00000000 -0.18903351
v -0.12360434 0.15601032 0.03569379
v -0.08607367 0.05775376 0.09641968
v -0.14715883 0.15293132 0.09451676
v -0.08874426 0.11682914 0.00000000
v -0.12360434 -0.15601032 0.03569379
v -0.08607367 -0.05775376 0.09641968
v -0.14715883 -0.15293132 0.09451676
v -0.08874426 -0.11682914 0.00000000
v -0.22002402 -0.09641968 0.19170411
v -0.12176746 -0.03569379 0.15417344
v -0.18326102 -0.13061894 0.15293132
v -0.21936321 -0.03610219 0.21134589
v -0.12484645 -0.09451676 0.13061894
v -0.22002402 0.09641968 0.19170411
v -0.12176746 0.03569379 0.15417344
v -0.18326102 0.13061894 0.15293132
v -0.21936321 0.03610219 0.21134589
v -0.12484645 0.09451676 0.13061894
v -0.16094864 0.00000000 0.18903351
v -0.06401370 0.00000000 -0.06072590
v -0.06401370 0.00000000 0.06072590
v -0.06643189 0.05841457 -0.03610219
v -0.06643189 -0.05841457 -0.03610219
v -0.06643189 0.05841457 0.03610219
v -0.06643189 -0.05841457 0.03610219
v -0.43195122 0.15601032 -0.03569379
v -0.46948188 0.05775376 -0.09641968
v -0.40839672 0.15293132 -0.09451676
v -0.43195122 -0.15601032 -0.03569379
v -0.46948188 -0.05775376 -0.09641968
v -0.40839672 -0.15293132 -0.09451676
v -0.33553154 -0.09641968 -0.19170411
v -0.43378810 -0.03569379 -0.15417344
v -0.37229453 -0.13061894 -0.15293132
v -0.33619235 -0.03610219 -0.21134589
v -0.43070910 -0.09451676 -0.13061894
v -0.33553154 0.09641968 -0.19170411
v -0.43378810 0.03569379 -0.15417344
v -0.37229453 0.13061894 -0.15293132
v -0.33619235 0.03610219 -0.21134589
v -0.43070910 0.09451676 -0.13061894
v -0.39460691 0.00000000 -0.18903351
v -0.43195122 0.15601032 0.03569379
v -0.46948188 0.05775376 0.09641968
v -0.40839672 0.15293132 0.09451676
v -0.46681129 0.11682914 0.00000000
v -0.43195122 -0.15601032 0.03569379
v -0.46948188 -0.05775376 0.09641968
v -0.40839672 -0.15293132 0.09451676
v -0.46681129 -0.11682914 0.00000000
v -0.33553154 -0.09641968 0.19170411
v -0.43378810 -0.03569379 0.15417344
v -0.37229453 -0.13061894 0.15293132
v -0.33619235 -0.03610219 0.21134589
v -0.43070910 -0.09451676 0.13061894
v -0.33553154 0.09641968 0.19170411
v -0.43378810 0.03569379 0.15417344
v -0.37229453 0.13061894 0.15293132
v -0.33619235 0.03610219 0.21134589
v -0.43070910 0.09451676 0.13061894
v -0.39460691 0.00000000 0.18903351
v -0.49154186 0.00000000 -0.06072590
v -0.49154186 0.00000000 0.06072590
v -0.48912367 0.05841457 -0.03610219
v -0.48912367 -0.05841457 -0.03610219
v -0.48912367 0.05841457 0.03610219
v -0.48912367 -0.05841457 0.03610219
v -0.28229201 0.17847675 0.00000000
v -0.09782495 0.17847675 0.00000000
v -0.28229201 -0.11999722 0.00000000
v -0.09782495 -0.11999722 0.00000000
v -0.19005848 -0.06299376 0.14923698
v -0.19005848 0.12147329 0.14923698
v -0.19005848 -0.06299376 -0.14923698
v -0.19005848 0.12147329 -0.14923698
v -0.04082150 0.02923977 -0.09223353
v -0.04082150 0.02923977 0.09223353
v -0.33929546 0.02923977 -0.09223353
v -0.33929546 0.02923977 0.09223353
v -0.19005848 0.20467836 0.00000000
v -0.19005848 -0.14619883 0.00000000
v -0.24427199 -0.11269304 0.08771930
v -0.13584497 -0.11269304 0.08771930
v -0.24427199 0.17117257 0.08771930
v -0.13584497 0.17117257 0.08771930
v -0.19005848 0.02923977 0.17543860
v -0.24427199 -0.11269304 -0.08771930
v -0.13584497 -0.11269304 -0.08771930
v -0.24427199 0.17117257 -0.08771930
v -0.13584497 0.17117257 -0.08771930
v -0.19005848 0.02923977 -0.17543860
v -0.04812567 0.11695906 -0.05421351
v -0.04812567 -0.05847953 -0.05421351
v -0.10233918 -0.02497374 -0.14193281
v -0.10233918 0.08345327 -0.14193281
v -0.04812567 0.11695906 0.05421351
v -0.04812567 -0.05847953 0.05421351
v -0.10233918 -0.02497374 0.14193281
v -0.10233918 0.08345327 0.14193281
v -0.01461988 0.02923977 0.00000000
v -0.33199129 0.11695906 -0.05421351
v -0.33199129 -0.05847953 -0.05421351
v -0.27777778 -0.02497374 -0.14193281
v -0.27777778 0.08345327 -0.14193281
v -0.33199129 0.11695906 0.05421351
v -0.33199129 -0.05847953 0.05421351
v -0.27777778 -0.02497374 0.14193281
v -0.27777778 0.08345327 0.14193281
v -0.36549708 0.02923977 0.00000000
v -0.16503849 0.17077185 0.00000000
v -0.00455215 0.17077185 0.00000000
v -0.16503849 -0.08890050 0.00000000
v -0.00455215 -0.08890050 0.00000000
v -0.08479532 -0.03930750 0.12983618
v -0.08479532 0.12117884 0.12983618
v -0.08479532 -0.03930750 -0.12983618
v -0.08479532 0.12117884 -0.12983618
v 0.04504085 0.04093567 -0.08024317
v 0.04504085 0.04093567 0.08024317
v -0.21463150 0.04093567 -0.08024317
v -0.21463150 0.04093567 0.08024317
v -0.08479532 0.19356725 0.00000000
v -0.08479532 -0.11169591 0.00000000
v -0.13196107 -0.08254587 0.07631579
v -0.03762957 -0.08254587 0.07631579
v -0.13196107 0.16441721 0.07631579
v -0.03762957 0.16441721 0.07631579
v -0.08479532 0.04093567 0.15263158
v -0.13196107 -0.08254587 -0.07631579
v -0.03762957 -0.08254587 -0.07631579
v -0.13196107 0.16441721 -0.07631579
v -0.03762957 0.16441721 -0.07631579
v -0.08479532 0.04093567 -0.15263158
v 0.03868622 0.11725146 -0.04716575
v 0.03868622 -0.03538012 -0.04716575
v -0.00847953 -0.00623008 -0.12348154
v -0.00847953 0.08810142 -0.12348154
v 0.03868622 0.11725146 0.04716575
v 0.03868622 -0.03538012 0.04716575
v -0.00847953 -0.00623008 0.12348154
v -0.00847953 0.08810142 0.12348154
v 0.06783626 0.04093567 0.00000000
v -0.20827686 0.11725146 -0.04716575
v -0.20827686 -0.03538012 -0.04716575
v -0.16111111 -0.00623008 -0.12348154
v -0.16111111 0.08810142 -0.12348154
v -0.20827686 0.11725146 0.04716575
v -0.20827686 -0.03538012 0.04716575
v -0.16111111 -0.00623008 0.12348154
v -0.16111111 0.08810142 0.12348154
v -0.23742690 0.04093567 0.00000000
v -0.04778497 0.16306695 0.00000000
v 0.08872065 0.16306695 0.00000000
v -0.04778497 -0.05780379 0.00000000
v 0.08872065 -0.05780379 0.00000000
v 0.02046784 -0.01562123 0.11043537
v 0.02046784 0.12088439 0.11043537
v 0.02046784 -0.01562123 -0.11043537
v 0.02046784 0.12088439 -0.11043537
v 0.13090320 0.05263158 -0.06825281
v 0.13090320 0.05263158 0.06825281
v -0.08996753 0.05263158 -0.06825281
v -0.08996753 0.05263158 0.06825281
v 0.02046784 0.18245614 0.00000000
v 0.02046784 -0.07719298 0.00000000
v -0.01965016 -0.05239870 0.06491228
v 0.06058583 -0.05239870 0.06491228
v -0.01965016 0.15766186 0.06491228
v 0.06058583 0.15766186 0.06491228
v 0.02046784 0.05263158 0.12982456
v -0.01965016 -0.05239870 -0.06491228
v 0.06058583 -0.05239870 -0.06491228
v -0.01965016 0.15766186 -0.06491228
v 0.06058583 0.15766186 -0.06491228
v 0.02046784 0.05263158 -0.12982456
v 0.12549811 0.11754386 -0.04011800
v 0.12549811 -0.01228070 -0.04011800
v 0.08538012 0.01251358 -0.10503028
v 0.08538012 0.09274957 -0.10503028
v 0.12549811 0.11754386 0.04011800
v 0.12549811 -0.01228070 0.04011800
v 0.08538012 0.01251358 0.10503028
v 0.08538012 0.09274957 0.10503028
v 0.15029240 0.05263158 0.00000000
v -0.08456244 0.11754386 -0.04011800
v -0.08456244 -0.01228070 -0.04011800
v -0.04444444 0.01251358 -0.10503028
v -0.04444444 0.09274957 -0.10503028
v -0.08456244 0.11754386 0.04011800
v -0.08456244 -0.01228070 0.04011800
v -0.04444444 0.01251358 0.10503028
v -0.04444444 0.09274957 0.10503028
v -0.10935673 0.05263158 0.00000000
v 0.06946854 0.15536205 0.00000000
v 0.18199345 0.15536205 0.00000000
v 0.06946854 -0.02670707 0.00000000
v 0.18199345 -0.02670707 0.00000000
v 0.12573099 0.00806503 0.09103456
v 0.12573099 0.12058994 0.09103456
v 0.12573099 0.00806503 -0.09103456
v 0.12573099 0.12058994 -0.09103456
v 0.21676555 0.06432749 -0.05626245
v 0.21676555 0.06432749 0.05626245
v 0.03469643 0.06432749 -0.05626245
v 0.03469643 0.06432749 0.05626245
v 0.12573099 0.17134503 0.00000000
v 0.12573099 -0.04269006 0.00000000
v 0.09266075 -0.02225153 0.05350877
v 0.15880123 -0.02225153 0.05350877
v 0.09266075 0.15090650 0.05350877
v 0.15880123 0.15090650 0.05350877
v 0.12573099 0.06432749 0.10701754
v 0.09266075 -0.02225153 -0.05350877
v 0.15880123 -0.02225153 -0.05350877
v 0.09266075 0.15090650 -0.05350877
v 0.15880123 0.15090650 -0.05350877
v 0.12573099 0.06432749 -0.10701754
v 0.21231001 0.11783626 -0.03307024
v 0.21231001 0.01081871 -0.03307024
v 0.17923977 0.03125725 -0.08657901
v 0.17923977 0.09739773 -0.08657901
v 0.21231001 0.11783626 0.03307024
v 0.21231001 0.01081871 0.03307024
v 0.17923977 0.03125725 0.08657901
v 0.17923977 0.09739773 0.08657901
v 0.23274854 0.06432749 0.00000000
v 0.03915198 0.11783626 -0.03307024
v 0.03915198 0.01081871 -0.03307024
v 0.07222222 0.03125725 -0.08657901
v 0.07222222 0.09739773 -0.08657901
v 0.03915198 0.11783626 0.03307024
v 0.03915198 0.01081871 0.03307024
v 0.07222222 0.03125725 0.08657901
v 0.07222222 0.09739773 0.08657901
v 0.01871345 0.06432749 0.00000000
v 0.18672206 0.14765714 0.00000000
v 0.27526625 0.14765714 0.00000000
v 0.18672206 0.00438964 0.00000000
v 0.27526625 0.00438964 0.00000000
v 0.23099415 0.03175130 0.07163375
v 0.23099415 0.12029549 0.07163375
v 0.23099415 0.03175130 -0.07163375
v 0.23099415 0.12029549 -0.07163375
v 0.30262790 0.07602339 -0.04427209
v 0.30262790 0.07602339 0.04427209
v 0.15936040 0.07602339 -0.04427209
v 0.15936040 0.07602339 0.04427209
v 0.23099415 0.16023392 0.00000000
v 0.23099415 -0.00818713 0.00000000
v 0.20497167 0.00789564 0.04210526
v 0.25701664 0.00789564 0.04210526
v 0.20497167 0.14415114 0.04210526
v 0.25701664 0.14415114 0.04210526
v 0.23099415 0.07602339 0.08421053
v 0.20497167 0.00789564 -0.04210526
v 0.25701664 0.00789564 -0.04210526
v 0.20497167 0.14415114 -0.04210526
v 0.25701664 0.14415114 -0.04210526
v 0.23099415 0.07602339 -0.08421053
v 0.29912190 0.11812865 -0.02602248
v 0.29912190 0.03391813 -0.02602248
v 0.27309942 0.05000091 -0.06812775
v 0.27309942 0.10204588 -0.06812775
v 0.29912190 0.11812865 0.02602248
v 0.29912190 0.03391813 0.02602248
v 0.27309942 0.05000091 0.06812775
v 0.27309942 0.10204588 0.06812775
v 0.31520468 0.07602339 0.00000000
v 0.16286641 0.11812865 -0.02602248
v 0.16286641 0.03391813 -0.02602248
v 0.18888889 0.05000091 -0.06812775
v 0.18888889 0.10204588 -0.06812775
v 0.16286641 0.11812865 0.02602248
v 0.16286641 0.03391813 0.02602248
v 0.18888889 0.05000091 0.06812775
v 0.18888889 0.10204588 0.06812775
v 0.14678363 0.07602339 0.00000000
v 0.17836257 0.02923977 0.00000000
v 0.17836257 0.02923977 -0.12865497
v 0.50000000 0.02923977 0.00000000
v 0.17836257 0.10486126 -0.10408406
v 0.17836257 0.15159791 -0.03975657
v 0.17836257 0.15159791 0.03975657
v 0.17836257 0.10486126 0.10408406
v 0.17836257 0.02923977 0.12865497
v 0.17836257 -0.04638173 0.10408406
v 0.17836257 -0.09311838 0.03975657
v 0.17836257 -0.09311838 -0.03975657
v 0.17836257 -0.04638173 -0.10408406
f 1 138 54
f 138 38 140
f 54 140 17
f 138 140 54
f 38 139 155
f 139 12 152
f 155 152 41
f 139 152 155
f 17 153 55
f 153 41 151
f 55 151 6
f 153 151 55
f 38 155 140
f 155 41 153
f 140 153 17
f 155 153 140
f 1 54 43
f 54 17 56
f 43 56 13
f 54 56 43
f 17 55 60
f 55 6 58
f 60 58 18
f 55 58 60
f 13 59 44
f 59 18 57
f 44 57 2
f 59 57 44
f 17 60 56
f 60 18 59
f 56 59 13
f 60 59 56
f 1 43 70
f 43 13 72
f 70 72 22
f 43 72 70
f 13 44 75
f 44 2 73
f 75 73 23
f 44 73 75
f 22 76 71
f 76 23 74
f 71 74 8
f 76 74 71
f 13 75 72
f 75 23 76
f 72 76 22
f 75 76 72
f 1 70 121
f 70 22 123
f 121 123 34
f 70 123 121
f 22 71 134
f 71 8 132
f 134 132 37
f 71 132 134
f 34 136 122
f 136 37 133
f 122 133 11
f 136 133 122
f 22 134 123
f 134 37 136
f 123 136 34
f 134 136 123
f 1 121 138
f 121 34 141
f 138 141 38
f 121 141 138
f 34 122 159
f 122 11 157
f 159 157 42
f 122 157 159
f 38 161 139
f 161 42 158
f 139 158 12
f 161 158 139
f 34 159 141
f 159 42 161
f 141 161 38
f 159 161 141
f 2 57 96
f 57 18 98
f 96 98 29
f 57 98 96
f 18 58 111
f 58 6 109
f 111 109 32
f 58 109 111
f 29 113 97
f 113 32 110
f 97 110 10
f 113 110 97
f 18 111 98
f 111 32 113
f 98 113 29
f 111 113 98
f 6 151 62
f 151 41 154
f 62 154 19
f 151 154 62
f 41 152 156
f 152 12 147
f 156 147 40
f 152 147 156
f 19 149 61
f 149 40 146
f 61 146 5
f 149 146 61
f 41 156 154
f 156 40 149
f 154 149 19
f 156 149 154
f 12 158 143
f 158 42 162
f 143 162 39
f 158 162 143
f 42 157 160
f 157 11 125
f 160 125 35
f 157 125 160
f 39 145 142
f 145 35 124
f 142 124 3
f 145 124 142
f 42 160 162
f 160 35 145
f 162 145 39
f 160 145 162
f 11 133 128
f 133 37 137
f 128 137 36
f 133 137 128
f 37 132 135
f 132 8 78
f 135 78 24
f 132 78 135
f 36 130 127
f 130 24 77
f 127 77 7
f 130 77 127
f 37 135 137
f 135 24 130
f 137 130 36
f 135 130 137
f 8 74 90
f 74 23 92
f 90 92 28
f 74 92 90
f 23 73 81
f 73 2 79
f 81 79 25
f 73 79 81
f 28 94 91
f 94 25 80
f 91 80 9
f 94 80 91
f 23 81 92
f 81 25 94
f 92 94 28
f 81 94 92
f 4 100 50
f 100 30 102
f 50 102 16
f 100 102 50
f 30 101 108
f 101 10 105
f 108 105 31
f 101 105 108
f 16 106 51
f 106 31 104
f 51 104 5
f 106 104 51
f 30 108 102
f 108 31 106
f 102 106 16
f 108 106 102
f 4 50 46
f 50 16 52
f 46 52 14
f 50 52 46
f 16 51 53
f 51 5 48
f 53 48 15
f 51 48 53
f 14 49 45
f 49 15 47
f 45 47 3
f 49 47 45
f 16 53 52
f 53 15 49
f 52 49 14
f 53 49 52
f 4 46 66
f 46 14 68
f 66 68 21
f 46 68 66
f 14 45 65
f 45 3 63
f 65 63 20
f 45 63 65
f 21 69 67
f 69 20 64
f 67 64 7
f 69 64 67
f 14 65 68
f 65 20 69
f 68 69 21
f 65 69 68
f 4 66 82
f 66 21 84
f 82 84 26
f 66 84 82
f 21 67 87
f 67 7 85
f 87 85 27
f 67 85 87
f 26 89 83
f 89 27 86
f 83 86 9
f 89 86 83
f 21 87 84
f 87 27 89
f 84 89 26
f 87 89 84
f 4 82 100
f 82 26 103
f 100 103 30
f 82 103 100
f 26 83 118
f 83 9 115
f 118 115 33
f 83 115 118
f 30 120 101
f 120 33 116
f 101 116 10
f 120 116 101
f 26 118 103
f 118 33 120
f 103 120 30
f 118 120 103
f 5 104 61
f 104 31 107
f 61 107 19
f 104 107 61
f 31 105 114
f 105 10 110
f 114 110 32
f 105 110 114
f 19 112 62
f 112 32 109
f 62 109 6
f 112 109 62
f 31 114 107
f 114 32 112
f 107 112 19
f 114 112 107
f 3 47 142
f 47 15 144
f 142 144 39
f 47 144 142
f 15 48 148
f 48 5 146
f 148 146 40
f 48 146 148
f 39 150 143
f 150 40 147
f 143 147 12
f 150 147 143
f 15 148 144
f 148 40 150
f 144 150 39
f 148 150 144
f 7 64 127
f 64 20 129
f 127 129 36
f 64 129 127
f 20 63 126
f 63 3 124
f 126 124 35
f 63 124 126
f 36 131 128
f 131 35 125
f 128 125 11
f 131 125 128
f 20 126 129
f 126 35 131
f 129 131 36
f 126 131 129
f 9 86 91
f 86 27 95
f 91 95 28
f 86 95 91
f 27 85 88
f 85 7 77
f 88 77 24
f 85 77 88
f 28 93 90
f 93 24 78
f 90 78 8
f 93 78 90
f 27 88 95
f 88 24 93
f 95 93 28
f 88 93 95
f 10 116 97
f 116 33 119
f 97 119 29
f 116 119 97
f 33 115 117
f 115 9 80
f 117 80 25
f 115 80 117
f 29 99 96
f 99 25 79
f 96 79 2
f 99 79 96
f 33 117 119
f 117 25 99
f 119 99 29
f 117 99 119
f 163 200 179
f 200 174 203
f 179 203 168
f 200 203 179
f 163 179 175
f 179 168 180
f 175 180 164
f 179 180 175
f 163 175 184
f 175 164 185
f 184 185 170
f 175 185 184
f 163 184 196
f 184 170 199
f 196 199 173
f 184 199 196
f 163 196 200
f 196 173 204
f 200 204 174
f 196 204 200
f 164 180 191
f 180 168 194
f 191 194 172
f 180 194 191
f 168 203 181
f 203 174 202
f 181 202 167
f 203 202 181
f 174 204 201
f 204 173 197
f 201 197 165
f 204 197 201
f 173 199 198
f 199 170 186
f 198 186 169
f 199 186 198
f 170 185 190
f 185 164 187
f 190 187 171
f 185 187 190
f 166 192 178
f 192 172 193
f 178 193 167
f 192 193 178
f 166 178 176
f 178 167 177
f 176 177 165
f 178 177 176
f 166 176 183
f 176 165 182
f 183 182 169
f 176 182 183
f 166 183 188
f 183 169 189
f 188 189 171
f 183 189 188
f 166 188 192
f 188 171 195
f 192 195 172
f 188 195 192
f 167 193 181
f 193 172 194
f 181 194 168
f 193 194 181
f 165 177 201
f 177 167 202
f 201 202 174
f 177 202 201
f 169 182 198
f 182 165 197
f 198 197 173
f 182 197 198
f 171 189 190
f 189 169 186
f 190 186 170
f 189 186 190
f 172 195 191
f 195 171 187
f 191 187 164
f 195 187 191
f 205 242 221
f 242 216 245
f 221 245 210
f 242 245 221
f 205 221 217
f 221 210 222
f 217 222 206
f 221 222 217
f 205 217 226
f 217 206 227
f 226 227 212
f 217 227 226
f 205 226 238
f 226 212 241
f 238 241 215
f 226 241 238
f 205 238 242
f 238 215 246
f 242 246 216
f 238 246 242
f 206 222 233
f 222 210 236
f 233 236 214
f 222 236 233
f 210 245 223
f 245 216 244
f 223 244 209
f 245 244 223
f 216 246 243
f 246 215 239
f 243 239 207
f 246 239 243
f 215 241 240
f 241 212 228
f 240 228 211
f 241 228 240
f 212 227 232
f 227 206 229
f 232 229 213
f 227 229 232
f 208 234 220
f 234 214 235
f 220 235 209
f 234 235 220
f 208 220 218
f 220 209 219
f 218 219 207
f 220 219 218
f 208 218 225
f 218 207 224
f 225 224 211
f 218 224 225
f 208 225 230
f 225 211 231
f 230 231 213
f 225 231 230
f 208 230 234
f 230 213 237
f 234 237 214
f 230 237 234
f 209 235 223
f 235 214 236
f 223 236 210
f 235 236 223
f 207 219 243
f 219 209 244
f 243 244 216
f 219 244 243
f 211 224 240
f 224 207 239
f 240 239 215
f 224 239 240
f 213 231 232
f 231 211 228
f 232 228 212
f 231 228 232
f 214 237 233
f 237 213 229
f 233 229 206
f 237 229 233
f 247 284 263
f 284 258 287
f 263 287 252
f 284 287 263
f 247 263 259
f 263 252 264
f 259 264 248
f 263 264 259
f 247 259 268
f 259 248 269
f 268 269 254
f 259 269 268
f 247 268 280
f 268 254 283
f 280 283 257
f 268 283 280
f 247 280 284
f 280 257 288
f 284 288 258
f 280 288 284
f 248 264 275
f 264 252 278
f 275 278 256
f 264 278 275
f 252 287 265
f 287 258 286
f 265 286 251
f 287 286 265
f 258 288 285
f 288 257 281
f 285 281 249
f 288 281 285
f 257 283 282
f 283 254 270
f 282 270 253
f 283 270 282
f 254 269 274
f 269 248 271
f 274 271 255
f 269 271 274
f 250 276 262
f 276 256 277
f 262 277 251
f 276 277 262
f 250 262 260
f 262 251 261
f 260 261 249
f 262 261 260
f 250 260 267
f 260 249 266
f 267 266 253
f 260 266 267
f 250 267 272
f 267 253 273
f 272 273 255
f 267 273 272
f 250 272 276
f 272 255 279
f 276 279 256
f 272 279 276
f 251 277 265
f 277 256 278
f 265 278 252
f 277 278 265
f 249 261 285
f 261 251 286
f 285 286 258
f 261 286 285
f 253 266 282
f 266 249 281
f 282 281 257
f 266 281 282
f 255 273 274
f 273 253 270
f 274 270 254
f 273 270 274
f 256 279 275
f 279 255 271
f 275 271 248
f 279 271 275
f 289 326 305
f 326 300 329
f 305 329 294
f 326 329 305
f 289 305 301
f 305 294 306
f 301 306 290
f 305 306 301
f 289 301 310
f 301 290 311
f 310 311 296
f 301 311 310
f 289 310 322
f 310 296 325
f 322 325 299
f 310 325 322
f 289 322 326
f 322 299 330
f 326 330 300
f 322 330 326
f 290 306 317
f 306 294 320
f 317 320 298
f 306 320 317
f 294 329 307
f 329 300 328
f 307 328 293
f 329 328 307
f 300 330 327
f 330 299 323
f 327 323 291
f 330 323 327
f 299 325 324
f 325 296 312
f 324 312 295
f 325 312 324
f 296 311 316
f 311 290 313
f 316 313 297
f 311 313 316
f 292 318 304
f 318 298 319
f 304 319 293
f 318 319 304
f 292 304 302
f 304 293 303
f 302 303 291
f 304 303 302
f 292 302 309
f 302 291 308
f 309 308 295
f 302 308 309
f 292 309 314
f 309 295 315
f 314 315 297
f 309 315 314
f 292 314 318
f 314 297 321
f 318 321 298
f 314 321 318
f 293 319 307
f 319 298 320
f 307 320 294
f 319 320 307
f 291 303 327
f 303 293 328
f 327 328 300
f 303 328 327
f 295 308 324
f 308 291 323
f 324 323 299
f 308 323 324
f 297 315 316
f 315 295 312
f 316 312 296
f 315 312 316
f 298 321 317
f 321 297 313
f 317 313 290
f 321 313 317
f 331 368 347
f 368 342 371
f 347 371 336
f 368 371 347
f 331 347 343
f 347 336 348
f 343 348 332
f 347 348 343
f 331 343 352
f 343 332 353
f 352 353 338
f 343 353 352
f 331 352 364
f 352 338 367
f 364 367 341
f 352 367 364
f 331 364 368
f 364 341 372
f 368 372 342
f 364 372 368
f 332 348 359
f 348 336 362
f 359 362 340
f 348 362 359
f 336 371 349
f 371 342 370
f 349 370 335
f 371 370 349
f 342 372 369
f 372 341 365
f 369 365 333
f 372 365 369
f 341 367 366
f 367 338 354
f 366 354 337
f 367 354 366
f 338 353 358
f 353 332 355
f 358 355 339
f 353 355 358
f 334 360 346
f 360 340 361
f 346 361 335
f 360 361 346
f 334 346 344
f 346 335 345
f 344 345 333
f 346 345 344
f 334 344 351
f 344 333 350
f 351 350 337
f 344 350 351
f 334 351 356
f 351 337 357
f 356 357 339
f 351 357 356
f 334 356 360
f 356 339 363
f 360 363 340
f 356 363 360
f 335 361 349
f 361 340 362
f 349 362 336
f 361 362 349
f 333 345 369
f 345 335 370
f 369 370 342
f 345 370 369
f 337 350 366
f 350 333 365
f 366 365 341
f 350 365 366
f 339 357 358
f 357 337 354
f 358 354 338
f 357 354 358
f 340 363 359
f 363 339 355
f 359 355 332
f 363 355 359
f 374 373 376
f 374 376 375
f 376 373 377
f 376 377 375
f 377 373 378
f 377 378 375
f 378 373 379
f 378 379 375
f 379 373 380
f 379 380 375
f 380 373 381
f 380 381 375
f 381 373 382
f 381 382 375
f 382 373 383
f 382 383 375
f 383 373 384
f 383 384 375
f 384 373 374
f 384 374 375

