# https://github.com/mikedh/trimesh
v -0.24986198 0.42809113 -0.02083333
v 0.21745457 0.42809113 -0.02083333
v -0.24986198 -0.39105409 -0.02083333
v 0.21745457 -0.39105409 -0.02083333
v -0.01620370 -0.23461128 0.34148090
v -0.01620370 0.27164831 0.34148090
v -0.01620370 -0.23461128 -0.38314757
v -0.01620370 0.27164831 -0.38314757
v 0.36186332 0.01851852 -0.24475584
v 0.36186332 0.01851852 0.20308918
v -0.39427073 0.01851852 -0.24475584
v -0.39427073 0.01851852 0.20308918
v -0.01620370 0.50000000 -0.02083333
v -0.01620370 -0.46296296 -0.02083333
v -0.15354459 -0.37100818 0.19212963
v 0.12113718 -0.37100818 0.19212963
v -0.15354459 0.40804522 0.19212963
v 0.12113718 0.40804522 0.19212963
v -0.01620370 0.01851852 0.40509259
v -0.15354459 -0.37100818 -0.23379630
v 0.12113718 -0.37100818 -0.23379630
v -0.15354459 0.40804522 -0.23379630
v 0.12113718 0.40804522 -0.23379630
v -0.01620370 0.01851852 -0.44675926
v 0.34335940 0.25925926 -0.15245168
v 0.34335940 -0.22222222 -0.15245168
v 0.20601852 -0.13026744 -0.36541465
v 0.20601852 0.16730448 -0.36541465
v 0.34335940 0.25925926 0.11078502
v 0.34335940 -0.22222222 0.11078502
v 0.20601852 -0.13026744 0.32374798
v 0.20601852 0.16730448 0.32374798
v 0.42824074 0.01851852 -0.02083333
v -0.37576681 0.25925926 -0.15245168
v -0.37576681 -0.22222222 -0.15245168
v -0.23842593 -0.13026744 -0.36541465
v -0.23842593 0.16730448 -0.36541465
v -0.37576681 0.25925926 0.11078502
v -0.37576681 -0.22222222 0.11078502
v -0.23842593 -0.13026744 0.32374798
v -0.23842593 0.16730448 0.32374798
v -0.46064815 0.01851852 -0.02083333
v -0.13765549 0.48167402 -0.02083333
v 0.10524809 0.48167402 -0.02083333
v -0.13765549 -0.44463699 -0.02083333
v 0.10524809 -0.44463699 -0.02083333
v -0.20904307 -0.39684038 0.08986137
v -0.08759128 -0.31552393 0.27818645
v -0.08840808 -0.43939758 0.09112792
v 0.17663566 -0.39684038 0.08986137
v 0.05518387 -0.31552393 0.27818645
v 0.05600067 -0.43939758 0.09112792
v -0.01620370 -0.39105409 0.20308918
v -0.20904307 0.43387742 0.08986137
v -0.08759128 0.35256097 0.27818645
v -0.08840808 0.47643462 0.09112792
v 0.17663566 0.43387742 0.08986137
v 0.05518387 0.35256097 0.27818645
v 0.05600067 0.47643462 0.09112792
v -0.01620370 0.42809113 0.20308918
v -0.01620370 -0.11305425 0.38888115
v -0.01620370 0.15009129 0.38888115
v -0.20904307 -0.39684038 -0.13152804
v -0.08759128 -0.31552393 -0.31985312
v -0.08840808 -0.43939758 -0.13279459
v 0.17663566 -0.39684038 -0.13152804
v 0.05518387 -0.31552393 -0.31985312
v 0.05600067 -0.43939758 -0.13279459
v -0.01620370 -0.39105409 -0.24475584
v -0.20904307 0.43387742 -0.13152804
v -0.08759128 0.35256097 -0.31985312
v -0.08840808 0.47643462 -0.13279459
v 0.17663566 0.43387742 -0.13152804
v 0.05518387 0.35256097 -0.31985312
v 0.05600067 0.47643462 -0.13279459
v -0.01620370 0.42809113 -0.24475584
v -0.01620370 -0.11305425 -0.43054782
v -0.01620370 0.15009129 -0.43054782
v 0.29214318 0.35654088 -0.08924642
v 0.36720451 0.14365166 -0.20563772
v 0.24503419 0.34986972 -0.20199045
v 0.29214318 -0.31950384 -0.08924642
v 0.36720451 -0.10661462 -0.20563772
v 0.24503419 -0.31283268 -0.20199045
v 0.09930381 -0.19039079 -0.38826620
v 0.29581694 -0.05881802 -0.31633243
v 0.17282981 -0.26448920 -0.31395171
v 0.10062543 -0.05970289 -0.42591296
v 0.28965895 -0.18626779 -0.27118631
v 0.09930381 0.22742783 -0.38826620
v 0.29581694 0.09585505 -0.31633243
v 0.17282981 0.30152623 -0.31395171
v 0.10062543 0.09673993 -0.42591296
v 0.28965895 0.22330482 -0.27118631
v 0.21745457 0.01851852 -0.38314757
v 0.29214318 0.35654088 0.04757976
v 0.36720451 0.14365166 0.16397106
v 0.24503419 0.34986972 0.16032378
v 0.36186332 0.27164831 -0.02083333
v 0.29214318 -0.31950384 0.04757976
v 0.36720451 -0.10661462 0.16397106
v 0.24503419 -0.31283268 0.16032378
v 0.36186332 -0.23461128 -0.02083333
v 0.09930381 -0.19039079 0.34659954
v 0.29581694 -0.05881802 0.27466576
v 0.17282981 -0.26448920 0.27228504
v 0.10062543 -0.05970289 0.38424629
v 0.28965895 -0.18626779 0.22951964
v 0.09930381 0.22742783 0.34659954
v 0.29581694 0.09585505 0.27466576
v 0.17282981 0.30152623 0.27228504
v 0.10062543 0.09673993 0.38424629
v 0.28965895 0.22330482 0.22951964
v 0.21745457 0.01851852 0.34148090
v 0.41132446 0.01851852 -0.13722463
v 0.41132446 0.01851852 0.09555797
v 0.40648808 0.14508342 -0.09002919
v 0.40648808 -0.10804638 -0.09002919
v 0.40648808 0.14508342 0.04836253
v 0.40648808 -0.10804638 0.04836253
v -0.32455058 0.35654088 -0.08924642
v -0.39961192 0.14365166 -0.20563772
v -0.27744159 0.34986972 -0.20199045
v -0.32455058 -0.31950384 -0.08924642
v -0.39961192 -0.10661462 -0.20563772
v -0.27744159 -0.31283268 -0.20199045
v -0.13171122 -0.19039079 -0.38826620
v -0.32822435 -0.05881802 -0.31633243
v -0.20523722 -0.26448920 -0.31395171
v -0.13303284 -0.05970289 -0.42591296
v -0.32206635 -0.18626779 -0.27118631
v -0.13171122 0.22742783 -0.38826620
v -0.32822435 0.09585505 -0.31633243
v -0.20523722 0.30152623 -0.31395171
v -0.13303284 0.09673993 -0.42591296
v -0.32206635 0.22330482 -0.27118631
v -0.24986198 0.01851852 -0.38314757
v -0.32455058 0.35654088 0.04757976
v -0.39961192 0.14365166 0.16397106
v -0.27744159 0.34986972 0.16032378
v -0.39427073 0.27164831 -0.02083333
v -0.32455058 -0.31950384 0.04757976
v -0.39961192 -0.10661462 0.16397106
v -0.27744159 -0.31283268 0.16032378
v -0.39427073 -0.23461128 -0.02083333
v -0.13171122 -0.19039079 0.34659954
v -0.32822435 -0.05881802 0.27466576
v -0.20523722 -0.26448920 0.27228504
v -0.13303284 -0.05970289 0.38424629
v -0.32206635 -0.18626779 0.22951964
v -0.13171122 0.22742783 0.34659954
v -0.32822435 0.09585505 0.27466576
v -0.20523722 0.30152623 0.27228504
v -0.13303284 0.09673993 0.38424629
v -0.32206635 0.22330482 0.22951964
v -0.24986198 0.01851852 0.34148090
v -0.44373186 0.01851852 -0.13722463
v -0.44373186 0.01851852 0.09555797
v -0.43889549 0.14508342 -0.09002919
v -0.43889549 -0.10804638 -0.09002919
v -0.43889549 0.14508342 0.04836253
v -0.43889549 -0.10804638 0.04836253
v -0.01620370 -0.38888889 -0.02083333
v 0.41898148 -0.38888889 -0.02083333
v 0.41898148 -0.50000000 -0.02083333
v -0.01620370 -0.50000000 -0.02083333
v 0.37588460 -0.38888889 0.16798644
v 0.37588460 -0.50000000 0.16798644
v 0.25512982 -0.38888889 0.31940815
v 0.25512982 -0.50000000 0.31940815
v 0.08063411 -0.38888889 0.40344085
v 0.08063411 -0.50000000 0.40344085
v -0.11304152 -0.38888889 0.40344085
v -0.11304152 -0.50000000 0.40344085
v -0.28753723 -0.38888889 0.31940815
v -0.28753723 -0.50000000 0.31940815
v -0.40829201 -0.38888889 0.16798644
v -0.40829201 -0.50000000 0.16798644
v -0.45138889 -0.38888889 -0.02083333
v -0.45138889 -0.50000000 -0.02083333
v -0.40829201 -0.38888889 -0.20965311
v -0.40829201 -0.50000000 -0.20965311
v -0.28753723 -0.38888889 -0.36107481
v -0.28753723 -0.50000000 -0.36107481
v -0.11304152 -0.38888889 -0.44510752
v -0.11304152 -0.50000000 -0.44510752
v 0.08063411 -0.38888889 -0.44510752
v 0.08063411 -0.50000000 -0.44510752
v 0.25512982 -0.38888889 -0.36107481
v 0.25512982 -0.50000000 -0.36107481
v 0.37588460 -0.38888889 -0.20965311
v 0.37588460 -0.50000000 -0.20965311
v 0.24305556 0.04629630 0.34027778
v 0.42824074 0.04629630 0.34027778
v 0.42824074 0.04629630 0.41435185
v 0.24305556 0.04629630 0.41435185
v 0.40343063 0.13888889 0.34027778
v 0.40343063 0.13888889 0.41435185
v 0.33564815 0.20667137 0.34027778
v 0.33564815 0.20667137 0.41435185
v 0.24305556 0.23148148 0.34027778
v 0.24305556 0.23148148 0.41435185
v 0.15046296 0.20667137 0.34027778
v 0.15046296 0.20667137 0.41435185
v 0.08268048 0.13888889 0.34027778
v 0.08268048 0.13888889 0.41435185
v 0.05787037 0.04629630 0.34027778
v 0.05787037 0.04629630 0.41435185
v 0.08268048 -0.04629630 0.34027778
v 0.08268048 -0.04629630 0.41435185
v 0.15046296 -0.11407878 0.34027778
v 0.15046296 -0.11407878 0.41435185
v 0.24305556 -0.13888889 0.34027778
v 0.24305556 -0.13888889 0.41435185
v 0.33564815 -0.11407878 0.34027778
v 0.33564815 -0.11407878 0.41435185
v 0.40343063 -0.04629630 0.34027778
v 0.40343063 -0.04629630 0.41435185
v 0.46064815 0.04629630 0.41435185
v 0.45115624 0.04629630 0.43726735
v 0.42824074 0.04629630 0.44675926
v 0.40532524 0.04629630 0.43726735
v 0.39583333 0.04629630 0.41435185
v 0.40532524 0.04629630 0.39143635
v 0.42824074 0.04629630 0.38194444
v 0.45115624 0.04629630 0.39143635
v 0.44408490 0.12956538 0.41435185
v 0.43531552 0.12593298 0.43726735
v 0.41414436 0.11716360 0.44675926
v 0.39297320 0.10839422 0.43726735
v 0.38420382 0.10476182 0.41435185
v 0.39297320 0.10839422 0.39143635
v 0.41414436 0.11716360 0.38194444
v 0.43531552 0.12593298 0.39143635
v 0.39691675 0.20015749 0.41435185
v 0.39020496 0.19344570 0.43726735
v 0.37400126 0.17724200 0.44675926
v 0.35779755 0.16103829 0.43726735
v 0.35108576 0.15432650 0.41435185
v 0.35779755 0.16103829 0.39143635
v 0.37400126 0.17724200 0.38194444
v 0.39020496 0.19344570 0.39143635
v 0.32632464 0.24732564 0.41435185
v 0.32269224 0.23855626 0.43726735
v 0.31392286 0.21738510 0.44675926
v 0.30515348 0.19621394 0.43726735
v 0.30152108 0.18744456 0.41435185
v 0.30515348 0.19621394 0.39143635
v 0.31392286 0.21738510 0.38194444
v 0.32269224 0.23855626 0.39143635
v 0.24305556 0.26388889 0.41435185
v 0.24305556 0.25439698 0.43726735
v 0.24305556 0.23148148 0.44675926
v 0.24305556 0.20856598 0.43726735
v 0.24305556 0.19907407 0.41435185
v 0.24305556 0.20856598 0.39143635
v 0.24305556 0.23148148 0.38194444
v 0.24305556 0.25439698 0.39143635
v 0.15978648 0.24732564 0.41435185
v 0.16341887 0.23855626 0.43726735
v 0.17218825 0.21738510 0.44675926
v 0.18095763 0.19621394 0.43726735
v 0.18459003 0.18744456 0.41435185
v 0.18095763 0.19621394 0.39143635
v 0.17218825 0.21738510 0.38194444
v 0.16341887 0.23855626 0.39143635
v 0.08919436 0.20015749 0.41435185
v 0.09590615 0.19344570 0.43726735
v 0.11210986 0.17724200 0.44675926
v 0.12831356 0.16103829 0.43726735
v 0.13502535 0.15432650 0.41435185
v 0.12831356 0.16103829 0.39143635
v 0.11210986 0.17724200 0.38194444
v 0.09590615 0.19344570 0.39143635
v 0.04202621 0.12956538 0.41435185
v 0.05079559 0.12593298 0.43726735
v 0.07196675 0.11716360 0.44675926
v 0.09313791 0.10839422 0.43726735
v 0.10190729 0.10476182 0.41435185
v 0.09313791 0.10839422 0.39143635
v 0.07196675 0.11716360 0.38194444
v 0.05079559 0.12593298 0.39143635
v 0.02546296 0.04629630 0.41435185
v 0.03495487 0.04629630 0.43726735
v 0.05787037 0.04629630 0.44675926
v 0.08078587 0.04629630 0.43726735
v 0.09027778 0.04629630 0.41435185
v 0.08078587 0.04629630 0.39143635
v 0.05787037 0.04629630 0.38194444
v 0.03495487 0.04629630 0.39143635
v 0.04202621 -0.03697278 0.41435185
v 0.05079559 -0.03334039 0.43726735
v 0.07196675 -0.02457101 0.44675926
v 0.09313791 -0.01580162 0.43726735
v 0.10190729 -0.01216923 0.41435185
v 0.09313791 -0.01580162 0.39143635
v 0.07196675 -0.02457101 0.38194444
v 0.05079559 -0.03334039 0.39143635
v 0.08919436 -0.10756490 0.41435185
v 0.09590615 -0.10085311 0.43726735
v 0.11210986 -0.08464940 0.44675926
v 0.12831356 -0.06844570 0.43726735
v 0.13502535 -0.06173391 0.41435185
v 0.12831356 -0.06844570 0.39143635
v 0.11210986 -0.08464940 0.38194444
v 0.09590615 -0.10085311 0.39143635
v 0.15978648 -0.15473305 0.41435185
v 0.16341887 -0.14596367 0.43726735
v 0.17218825 -0.12479251 0.44675926
v 0.18095763 -0.10362135 0.43726735
v 0.18459003 -0.09485197 0.41435185
v 0.18095763 -0.10362135 0.39143635
v 0.17218825 -0.12479251 0.38194444
v 0.16341887 -0.14596367 0.39143635
v 0.24305556 -0.17129630 0.41435185
v 0.24305556 -0.16180439 0.43726735
v 0.24305556 -0.13888889 0.44675926
v 0.24305556 -0.11597339 0.43726735
v 0.24305556 -0.10648148 0.41435185
v 0.24305556 -0.11597339 0.39143635
v 0.24305556 -0.13888889 0.38194444
v 0.24305556 -0.16180439 0.39143635
v 0.32632464 -0.15473305 0.41435185
v 0.32269224 -0.14596367 0.43726735
v 0.31392286 -0.12479251 0.44675926
v 0.30515348 -0.10362135 0.43726735
v 0.30152108 -0.09485197 0.41435185
v 0.30515348 -0.10362135 0.39143635
v 0.31392286 -0.12479251 0.38194444
v 0.32269224 -0.14596367 0.39143635
v 0.39691675 -0.10756490 0.41435185
v 0.39020496 -0.10085311 0.43726735
v 0.37400126 -0.08464940 0.44675926
v 0.35779755 -0.06844570 0.43726735
v 0.35108576 -0.06173391 0.41435185
v 0.35779755 -0.06844570 0.39143635
v 0.37400126 -0.08464940 0.38194444
v 0.39020496 -0.10085311 0.39143635
v 0.44408490 -0.03697278 0.41435185
v 0.43531552 -0.03334039 0.43726735
v 0.41414436 -0.02457101 0.44675926
v 0.39297320 -0.01580162 0.43726735
v 0.38420382 -0.01216923 0.41435185
v 0.39297320 -0.01580162 0.39143635
v 0.41414436 -0.02457101 0.38194444
v 0.43531552 -0.03334039 0.39143635
f 1 138 54
f 138 38 140
f 54 140 17
f 138 140 54
f 38 139 155
f 139 12 152
f 155 152 41
f 139 152 155
f 17 153 55
f 153 41 151
f 55 151 6
f 153 151 55
f 38 155 140
f 155 41 153
f 140 153 17
f 155 153 140
f 1 54 43
f 54 17 56
f 43 56 13
f 54 56 43
f 17 55 60
f 55 6 58
f 60 58 18
f 55 58 60
f 13 59 44
f 59 18 57
f 44 57 2
f 59 57 44
f 17 60 56
f 60 18 59
f 56 59 13
f 60 59 56
f 1 43 70
f 43 13 72
f 70 72 22
f 43 72 70
f 13 44 75
f 44 2 73
f 75 73 23
f 44 73 75
f 22 76 71
f 76 23 74
f 71 74 8
f 76 74 71
f 13 75 72
f 75 23 76
f 72 76 22
f 75 76 72
f 1 70 121
f 70 22 123
f 121 123 34
f 70 123 121
f 22 71 134
f 71 8 132
f 134 132 37
f 71 132 134
f 34 136 122
f 136 37 133
f 122 133 11
f 136 133 122
f 22 134 123
f 134 37 136
f 123 136 34
f 134 136 123
f 1 121 138
f 121 34 141
f 138 141 38
f 121 141 138
f 34 122 159
f 122 11 157
f 159 157 42
f 122 157 159
f 38 161 139
f 161 42 158
f 139 158 12
f 161 158 139
f 34 159 141
f 159 42 161
f 141 161 38
f 159 161 141
f 2 57 96
f 57 18 98
f 96 98 29
f 57 98 96
f 18 58 111
f 58 6 109
f 111 109 32
f 58 109 111
f 29 113 97
f 113 32 110
f 97 110 10
f 113 110 97
f 18 111 98
f 111 32 113
f 98 113 29
f 111 113 98
f 6 151 62
f 151 41 154
f 62 154 19
f 151 154 62
f 41 152 156
f 152 12 147
f 156 147 40
f 152 147 156
f 19 149 61
f 149 40 146
f 61 146 5
f 149 146 61
f 41 156 154
f 156 40 149
f 154 149 19
f 156 149 154
f 12 158 143
f 158 42 162
f 143 162 39
f 158 162 143
f 42 157 160
f 157 11 125
f 160 125 35
f 157 125 160
f 39 145 142
f 145 35 124
f 142 124 3
f 145 124 142
f 42 160 162
f 160 35 145
f 162 145 39
f 160 145 162
f 11 133 128
f 133 37 137
f 128 137 36
f 133 137 128
f 37 132 135
f 132 8 78
f 135 78 24
f 132 78 135
f 36 130 127
f 130 24 77
f 127 77 7
f 130 77 127
f 37 135 137
f 135 24 130
f 137 130 36
f 135 130 137
f 8 74 90
f 74 23 92
f 90 92 28
f 74 92 90
f 23 73 81
f 73 2 79
f 81 79 25
f 73 79 81
f 28 94 91
f 94 25 80
f 91 80 9
f 94 80 91
f 23 81 92
f 81 25 94
f 92 94 28
f 81 94 92
f 4 100 50
f 100 30 102
f 50 102 16
f 100 102 50
f 30 101 108
f 101 10 105
f 108 105 31
f 101 105 108
f 16 106 51
f 106 31 104
f 51 104 5
f 106 104 51
f 30 108 102
f 108 31 106
f 102 106 16
f 108 106 102
f 4 50 46
f 50 16 52
f 46 52 14
f 50 52 46
f 16 51 53
f 51 5 48
f 53 48 15
f 51 48 53
f 14 49 45
f 49 15 47
f 45 47 3
f 49 47 45
f 16 53 52
f 53 15 49
f 52 49 14
f 53 49 52
f 4 46 66
f 46 14 68
f 66 68 21
f 46 68 66
f 14 45 65
f 45 3 63
f 65 63 20
f 45 63 65
f 21 69 67
f 69 20 64
f 67 64 7
f 69 64 67
f 14 65 68
f 65 20 69
f 68 69 21
f 65 69 68
f 4 66 82
f 66 21 84
f 82 84 26
f 66 84 82
f 21 67 87
f 67 7 85
f 87 85 27
f 67 85 87
f 26 89 83
f 89 27 86
f 83 86 9
f 89 86 83
f 21 87 84
f 87 27 89
f 84 89 26
f 87 89 84
f 4 82 100
f 82 26 103
f 100 103 30
f 82 103 100
f 26 83 118
f 83 9 115
f 118 115 33
f 83 115 118
f 30 120 101
f 120 33 116
f 101 116 10
f 120 116 101
f 26 118 103
f 118 33 120
f 103 120 30
f 118 120 103
f 5 104 61
f 104 31 107
f 61 107 19
f 104 107 61
f 31 105 114
f 105 10 110
f 114 110 32
f 105 110 114
f 19 112 62
f 112 32 109
f 62 109 6
f 112 109 62
f 31 114 107
f 114 32 112
f 107 112 19
f 114 112 107
f 3 47 142
f 47 15 144
f 142 144 39
f 47 144 142
f 15 48 148
f 48 5 146
f 148 146 40
f 48 146 148
f 39 150 143
f 150 40 147
f 143 147 12
f 150 147 143
f 15 148 144
f 148 40 150
f 144 150 39
f 148 150 144
f 7 64 127
f 64 20 129
f 127 129 36
f 64 129 127
f 20 63 126
f 63 3 124
f 126 124 35
f 63 124 126
f 36 131 128
f 131 35 125
f 128 125 11
f 131 125 128
f 20 126 129
f 126 35 131
f 129 131 36
f 126 131 129
f 9 86 91
f 86 27 95
f 91 95 28
f 86 95 91
f 27 85 88
f 85 7 77
f 88 77 24
f 85 77 88
f 28 93 90
f 93 24 78
f 90 78 8
f 93 78 90
f 27 88 95
f 88 24 93
f 95 93 28
f 88 93 95
f 10 116 97
f 116 33 119
f 97 119 29
f 116 119 97
f 33 115 117
f 115 9 80
f 117 80 25
f 115 80 117
f 29 99 96
f 99 25 79
f 96 79 2
f 99 79 96
f 33 117 119
f 117 25 99
f 119 99 29
f 117 99 119
f 164 163 167
f 164 167 165
f 165 167 168
f 165 168 166
f 167 163 169
f 167 169 168
f 168 169 170
f 168 170 166
f 169 163 171
f 169 171 170
f 170 171 172
f 170 172 166
f 171 163 173
f 171 173 172
f 172 173 174
f 172 174 166
f 173 163 175
f 173 175 174
f 174 175 176
f 174 176 166
f 175 163 177
f 175 177 176
f 176 177 178
f 176 178 166
f 177 163 179
f 177 179 178
f 178 179 180
f 178 180 166
f 179 163 181
f 179 181 180
f 180 181 182
f 180 182 166
f 181 163 183
f 181 183 182
f 182 183 184
f 182 184 166
f 183 163 185
f 183 185 184
f 184 185 186
f 184 186 166
f 185 163 187
f 185 187 186
f 186 187 188
f 186 188 166
f 187 163 189
f 187 189 188
f 188 189 190
f 188 190 166
f 189 163 191
f 189 191 190
f 190 191 192
f 190 192 166
f 191 163 164
f 191 164 192
f 192 164 165
f 192 165 166
f 194 193 197
f 194 197 195
f 195 197 198
f 195 198 196
f 197 193 199
f 197 199 198
f 198 199 200
f 198 200 196
f 199 193 201
f 199 201 200
f 200 201 202
f 200 202 196
f 201 193 203
f 201 203 202
f 202 203 204
f 202 204 196
f 203 193 205
f 203 205 204
f 204 205 206
f 204 206 196
f 205 193 207
f 205 207 206
f 206 207 208
f 206 208 196
f 207 193 209
f 207 209 208
f 208 209 210
f 208 210 196
f 209 193 211
f 209 211 210
f 210 211 212
f 210 212 196
f 211 193 213
f 211 213 212
f 212 213 214
f 212 214 196
f 213 193 215
f 213 215 214
f 214 215 216
f 214 216 196
f 215 193 217
f 215 217 216
f 216 217 218
f 216 218 196
f 217 193 194
f 217 194 218
f 218 194 195
f 218 195 196
f 219 227 220
f 220 227 228
f 220 228 221
f 221 228 229
f 221 229 222
f 222 229 230
f 222 230 223
f 223 230 231
f 223 231 224
f 224 231 232
f 224 232 225
f 225 232 233
f 225 233 226
f 226 233 234
f 226 234 219
f 219 234 227
f 227 235 228
f 228 235 236
f 228 236 229
f 229 236 237
f 229 237 230
f 230 237 238
f 230 238 231
f 231 238 239
f 231 239 232
f 232 239 240
f 232 240 233
f 233 240 241
f 233 241 234
f 234 241 242
f 234 242 227
f 227 242 235
f 235 243 236
f 236 243 244
f 236 244 237
f 237 244 245
f 237 245 238
f 238 245 246
f 238 246 239
f 239 246 247
f 239 247 240
f 240 247 248
f 240 248 241
f 241 248 249
f 241 249 242
f 242 249 250
f 242 250 235
f 235 250 243
f 243 251 244
f 244 251 252
f 244 252 245
f 245 252 253
f 245 253 246
f 246 253 254
f 246 254 247
f 247 254 255
f 247 255 248
f 248 255 256
f 248 256 249
f 249 256 257
f 249 257 250
f 250 257 258
f 250 258 243
f 243 258 251
f 251 259 252
f 252 259 260
f 252 260 253
f 253 260 261
f 253 261 254
f 254 261 262
f 254 262 255
f 255 262 263
f 255 263 256
f 256 263 264
f 256 264 257
f 257 264 265
f 257 265 258
f 258 265 266
f 258 266 251
f 251 266 259
f 259 267 260
f 260 267 268
f 260 268 261
f 261 268 269
f 261 269 262
f 262 269 270
f 262 270 263
f 263 270 271
f 263 271 264
f 264 271 272
f 264 272 265
f 265 272 273
f 265 273 266
f 266 273 274
f 266 274 259
f 259 274 267
f 267 275 268
f 268 275 276
f 268 276 269
f 269 276 277
f 269 277 270
f 270 277 278
f 270 278 271
f 271 278 279
f 271 279 272
f 272 279 280
f 272 280 273
f 273 280 281
f 273 281 274
f 274 281 282
f 274 282 267
f 267 282 275
f 275 283 276
f 276 283 284
f 276 284 277
f 277 284 285
f 277 285 278
f 278 285 286
f 278 286 279
f 279 286 287
f 279 287 280
f 280 287 288
f 280 288 281
f 281 288 289
f 281 289 282
f 282 289 290
f 282 290 275
f 275 290 283
f 283 291 284
f 284 291 292
f 284 292 285
f 285 292 293
f 285 293 286
f 286 293 294
f 286 294 287
f 287 294 295
f 287 295 288
f 288 295 296
f 288 296 289
f 289 296 297
f 289 297 290
f 290 297 298
f 290 298 283
f 283 298 291
f 291 299 292
f 292 299 300
f 292 300 293
f 293 300 301
f 293 301 294
f 294 301 302
f 294 302 295
f 295 302 303
f 295 303 296
f 296 303 304
f 296 304 297
f 297 304 305
f 297 305 298
f 298 305 306
f 298 306 291
f 291 306 299
f 299 307 300
f 300 307 308
f 300 308 301
f 301 308 309
f 301 309 302
f 302 309 310
f 302 310 303
f 303 310 311
f 303 311 304
f 304 311 312
f 304 312 305
f 305 312 313
f 305 313 306
f 306 313 314
f 306 314 299
f 299 314 307
f 307 315 308
f 308 315 316
f 308 316 309
f 309 316 317
f 309 317 310
f 310 317 318
f 310 318 311
f 311 318 319
f 311 319 312
f 312 319 320
f 312 320 313
f 313 320 321
f 313 321 314
f 314 321 322
f 314 322 307
f 307 322 315
f 315 323 316
f 316 323 324
f 316 324 317
f 317 324 325
f 317 325 318
f 318 325 326
f 318 326 319
f 319 326 327
f 319 327 320
f 320 327 328
f 320 328 321
f 321 328 329
f 321 329 322
f 322 329 330
f 322 330 315
f 315 330 323
f 323 331 324
f 324 331 332
f 324 332 325
f 325 332 333
f 325 333 326
f 326 333 334
f 326 334 327
f 327 334 335
f 327 335 328
f 328 335 336
f 328 336 329
f 329 336 337
f 329 337 330
f 330 337 338
f 330 338 323
f 323 338 331
f 331 339 332
f 332 339 340
f 332 340 333
f 333 340 341
f 333 341 334
f 334 341 342
f 334 342 335
f 335 342 343
f 335 343 336
f 336 343 344
f 336 344 337
f 337 344 345
f 337 345 338
f 338 345 346
f 338 346 331
f 331 346 339
f 339 219 340
f 340 219 220
f 340 220 341
f 341 220 221
f 341 221 342
f 342 221 222
f 342 222 343
f 343 222 223
f 343 223 344
f 344 223 224
f 344 224 345
f 345 224 225
f 345 225 346
f 346 225 226
f 346 226 339
f 339 226 219

