# https://github.com/mikedh/trimesh
v -0.24033422 0.38886894 0.00000000
v 0.24033422 0.38886894 0.00000000
v -0.24033422 -0.38886894 0.00000000
v 0.24033422 -0.38886894 0.00000000
v 0.00000000 -0.24033422 0.38886894
v 0.00000000 0.24033422 0.38886894
v 0.00000000 -0.24033422 -0.38886894
v 0.00000000 0.24033422 -0.38886894
v 0.38886894 0.00000000 -0.24033422
v 0.38886894 0.00000000 0.24033422
v -0.38886894 0.00000000 -0.24033422
v -0.38886894 0.00000000 0.24033422
v 0.00000000 0.45714286 0.00000000
v 0.00000000 -0.45714286 0.00000000
v -0.14126491 -0.36983634 0.22857143
v 0.14126491 -0.36983634 0.22857143
v -0.14126491 0.36983634 0.22857143
v 0.14126491 0.36983634 0.22857143
v 0.00000000 0.00000000 0.45714286
v -0.14126491 -0.36983634 -0.22857143
v 0.14126491 -0.36983634 -0.22857143
v -0.14126491 0.36983634 -0.22857143
v 0.14126491 0.36983634 -0.22857143
v 0.00000000 0.00000000 -0.45714286
v 0.36983634 0.22857143 -0.14126491
v 0.36983634 -0.22857143 -0.14126491
v 0.22857143 -0.14126491 -0.36983634
v 0.22857143 0.14126491 -0.36983634
v 0.36983634 0.22857143 0.14126491
v 0.36983634 -0.22857143 0.14126491
v 0.22857143 -0.14126491 0.36983634
v 0.22857143 0.14126491 0.36983634
v 0.45714286 0.00000000 0.00000000
v -0.36983634 0.22857143 -0.14126491
v -0.36983634 -0.22857143 -0.14126491
v -0.22857143 -0.14126491 -0.36983634
v -0.22857143 0.14126491 -0.36983634
v -0.36983634 0.22857143 0.14126491
v -0.36983634 -0.22857143 0.14126491
v -0.22857143 -0.14126491 0.36983634
v -0.22857143 0.14126491 0.36983634
v -0.45714286 0.00000000 0.00000000
v -0.12492184 0.43974325 0.00000000
v 0.12492184 0.43974325 0.00000000
v -0.12492184 -0.43974325 0.00000000
v 0.12492184 -0.43974325 0.00000000
v -0.19834906 -0.39436273 0.11880773
v -0.07342722 -0.31715679 0.32093552
v -0.07426736 -0.43476869 0.12016711
v 0.19834906 -0.39436273 0.11880773
v 0.07342722 -0.31715679 0.32093552
v 0.07426736 -0.43476869 0.12016711
v 0.00000000 -0.38886894 0.24033422
v -0.19834906 0.39436273 0.11880773
v -0.07342722 0.31715679 0.32093552
v -0.07426736 0.43476869 0.12016711
v 0.19834906 0.39436273 0.11880773
v 0.07342722 0.31715679 0.32093552
v 0.07426736 0.43476869 0.12016711
v 0.00000000 0.38886894 0.24033422
v 0.00000000 -0.12492184 0.43974325
v 0.00000000 0.12492184 0.43974325
v -0.19834906 -0.39436273 -0.11880773
v -0.07342722 -0.31715679 -0.32093552
v -0.07426736 -0.43476869 -0.12016711
v 0.19834906 -0.39436273 -0.11880773
v 0.07342722 -0.31715679 -0.32093552
v 0.07426736 -0.43476869 -0.12016711
v 0.00000000 -0.38886894 -0.24033422
v -0.19834906 0.39436273 -0.11880773
v -0.07342722 0.31715679 -0.32093552
v -0.07426736 0.43476869 -0.12016711
v 0.19834906 0.39436273 -0.11880773
v 0.07342722 0.31715679 -0.32093552
v 0.07426736 0.43476869 -0.12016711
v 0.00000000 0.38886894 -0.24033422
v 0.00000000 -0.12492184 -0.43974325
v 0.00000000 0.12492184 -0.43974325
v 0.31715679 0.32093552 -0.07342722
v 0.39436273 0.11880773 -0.19834906
v 0.26870183 0.31460158 -0.19443447
v 0.31715679 -0.32093552 -0.07342722
v 0.39436273 -0.11880773 -0.19834906
v 0.26870183 -0.31460158 -0.19443447
v 0.11880773 -0.19834906 -0.39436273
v 0.32093552 -0.07342722 -0.31715679
v 0.19443447 -0.26870183 -0.31460158
v 0.12016711 -0.07426736 -0.43476869
v 0.31460158 -0.19443447 -0.26870183
v 0.11880773 0.19834906 -0.39436273
v 0.32093552 0.07342722 -0.31715679
v 0.19443447 0.26870183 -0.31460158
v 0.12016711 0.07426736 -0.43476869
v 0.31460158 0.19443447 -0.26870183
v 0.24033422 0.00000000 -0.38886894
v 0.31715679 0.32093552 0.07342722
v 0.39436273 0.11880773 0.19834906
v 0.26870183 0.31460158 0.19443447
v 0.38886894 0.24033422 0.00000000
v 0.31715679 -0.32093552 0.07342722
v 0.39436273 -0.11880773 0.19834906
v 0.26870183 -0.31460158 0.19443447
v 0.38886894 -0.24033422 0.00000000
v 0.11880773 -0.19834906 0.39436273
v 0.32093552 -0.07342722 0.31715679
v 0.19443447 -0.26870183 0.31460158
v 0.12016711 -0.07426736 0.43476869
v 0.31460158 -0.19443447 0.26870183
v 0.11880773 0.19834906 0.39436273
v 0.32093552 0.07342722 0.31715679
v 0.19443447 0.26870183 0.31460158
v 0.12016711 0.07426736 0.43476869
v 0.31460158 0.19443447 0.26870183
v 0.24033422 0.00000000 0.38886894
v 0.43974325 0.00000000 -0.12492184
v 0.43974325 0.00000000 0.12492184
v 0.43476869 0.12016711 -0.07426736
v 0.43476869 -0.12016711 -0.07426736
v 0.43476869 0.12016711 0.07426736
v 0.43476869 -0.12016711 0.07426736
v -0.31715679 0.32093552 -0.07342722
v -0.39436273 0.11880773 -0.19834906
v -0.26870183 0.31460158 -0.19443447
v -0.31715679 -0.32093552 -0.07342722
v -0.39436273 -0.11880773 -0.19834906
v -0.26870183 -0.31460158 -0.19443447
v -0.11880773 -0.19834906 -0.39436273
v -0.32093552 -0.07342722 -0.31715679
v -0.19443447 -0.26870183 -0.31460158
v -0.12016711 -0.07426736 -0.43476869
v -0.31460158 -0.19443447 -0.26870183
v -0.11880773 0.19834906 -0.39436273
v -0.32093552 0.07342722 -0.31715679
v -0.19443447 0.26870183 -0.31460158
v -0.12016711 0.07426736 -0.43476869
v -0.31460158 0.19443447 -0.26870183
v -0.24033422 0.00000000 -0.38886894
v -0.31715679 0.32093552 0.07342722
v -0.39436273 0.11880773 0.19834906
v -0.26870183 0.31460158 0.19443447
v -0.38886894 0.24033422 0.00000000
v -0.31715679 -0.32093552 0.07342722
v -0.39436273 -0.11880773 0.19834906
v -0.26870183 -0.31460158 0.19443447
v -0.38886894 -0.24033422 0.00000000
v -0.11880773 -0.19834906 0.39436273
v -0.32093552 -0.07342722 0.31715679
v -0.19443447 -0.26870183 0.31460158
v -0.12016711 -0.07426736 0.43476869
v -0.31460158 -0.19443447 0.26870183
v -0.11880773 0.19834906 0.39436273
v -0.32093552 0.07342722 0.31715679
v -0.19443447 0.26870183 0.31460158
v -0.12016711 0.07426736 0.43476869
v -0.31460158 0.19443447 0.26870183
v -0.24033422 0.00000000 0.38886894
v -0.43974325 0.00000000 -0.12492184
v -0.43974325 0.00000000 0.12492184
v -0.43476869 0.12016711 -0.07426736
v -0.43476869 -0.12016711 -0.07426736
v -0.43476869 0.12016711 0.07426736
v -0.43476869 -0.12016711 0.07426736
v 0.50000000 0.00000000 0.00000000
v 0.49302635 0.00000000 0.01683588
v 0.47619048 0.00000000 0.02380952
v 0.45935460 0.00000000 0.01683588
v 0.45238095 0.00000000 0.00000000
v 0.45935460 0.00000000 -0.01683588
v 0.47619048 0.00000000 -0.02380952
v 0.49302635 0.00000000 -0.01683588
v 0.46193977 0.19134172 0.00000000
v 0.45549696 0.18867302 0.01683588
v 0.43994263 0.18223021 0.02380952
v 0.42438831 0.17578740 0.01683588
v 0.41794550 0.17311870 0.00000000
v 0.42438831 0.17578740 -0.01683588
v 0.43994263 0.18223021 -0.02380952
v 0.45549696 0.18867302 -0.01683588
v 0.35355339 0.35355339 0.00000000
v 0.34862228 0.34862228 0.01683588
v 0.33671751 0.33671751 0.02380952
v 0.32481275 0.32481275 0.01683588
v 0.31988164 0.31988164 0.00000000
v 0.32481275 0.32481275 -0.01683588
v 0.33671751 0.33671751 -0.02380952
v 0.34862228 0.34862228 -0.01683588
v 0.19134172 0.46193977 0.00000000
v 0.18867302 0.45549696 0.01683588
v 0.18223021 0.43994263 0.02380952
v 0.17578740 0.42438831 0.01683588
v 0.17311870 0.41794550 0.00000000
v 0.17578740 0.42438831 -0.01683588
v 0.18223021 0.43994263 -0.02380952
v 0.18867302 0.45549696 -0.01683588
v 0.00000000 0.50000000 0.00000000
v 0.00000000 0.49302635 0.01683588
v 0.00000000 0.47619048 0.02380952
v 0.00000000 0.45935460 0.01683588
v 0.00000000 0.45238095 0.00000000
v 0.00000000 0.45935460 -0.01683588
v 0.00000000 0.47619048 -0.02380952
v 0.00000000 0.49302635 -0.01683588
v -0.19134172 0.46193977 0.00000000
v -0.18867302 0.45549696 0.01683588
v -0.18223021 0.43994263 0.02380952
v -0.17578740 0.42438831 0.01683588
v -0.17311870 0.41794550 0.00000000
v -0.17578740 0.42438831 -0.01683588
v -0.18223021 0.43994263 -0.02380952
v -0.18867302 0.45549696 -0.01683588
v -0.35355339 0.35355339 0.00000000
v -0.34862228 0.34862228 0.01683588
v -0.33671751 0.33671751 0.02380952
v -0.32481275 0.32481275 0.01683588
v -0.31988164 0.31988164 0.00000000
v -0.32481275 0.32481275 -0.01683588
v -0.33671751 0.33671751 -0.02380952
v -0.34862228 0.34862228 -0.01683588
v -0.46193977 0.19134172 0.00000000
v -0.45549696 0.18867302 0.01683588
v -0.43994263 0.18223021 0.02380952
v -0.42438831 0.17578740 0.01683588
v -0.41794550 0.17311870 0.00000000
v -0.42438831 0.17578740 -0.01683588
v -0.43994263 0.18223021 -0.02380952
v -0.45549696 0.18867302 -0.01683588
v -0.50000000 0.00000000 0.00000000
v -0.49302635 0.00000000 0.01683588
v -0.47619048 0.00000000 0.02380952
v -0.45935460 0.00000000 0.01683588
v -0.45238095 0.00000000 0.00000000
v -0.45935460 0.00000000 -0.01683588
v -0.47619048 0.00000000 -0.02380952
v -0.49302635 0.00000000 -0.01683588
v -0.46193977 -0.19134172 0.00000000
v -0.45549696 -0.18867302 0.01683588
v -0.43994263 -0.18223021 0.02380952
v -0.42438831 -0.17578740 0.01683588
v -0.41794550 -0.17311870 0.00000000
v -0.42438831 -0.17578740 -0.01683588
v -0.43994263 -0.18223021 -0.02380952
v -0.45549696 -0.18867302 -0.01683588
v -0.35355339 -0.35355339 0.00000000
v -0.34862228 -0.34862228 0.01683588
v -0.33671751 -0.33671751 0.02380952
v -0.32481275 -0.32481275 0.01683588
v -0.31988164 -0.31988164 0.00000000
v -0.32481275 -0.32481275 -0.01683588
v -0.33671751 -0.33671751 -0.02380952
v -0.34862228 -0.34862228 -0.01683588
v -0.19134172 -0.46193977 0.00000000
v -0.18867302 -0.45549696 0.01683588
v -0.18223021 -0.43994263 0.02380952
v -0.17578740 -0.42438831 0.01683588
v -0.17311870 -0.41794550 0.00000000
v -0.17578740 -0.42438831 -0.01683588
v -0.18223021 -0.43994263 -0.02380952
v -0.18867302 -0.45549696 -0.01683588
v -0.00000000 -0.50000000 0.00000000
v -0.00000000 -0.49302635 0.01683588
v -0.00000000 -0.47619048 0.02380952
v -0.00000000 -0.45935460 0.01683588
v -0.00000000 -0.45238095 0.00000000
v -0.00000000 -0.45935460 -0.01683588
v -0.00000000 -0.47619048 -0.02380952
v -0.00000000 -0.49302635 -0.01683588
v 0.19134172 -0.46193977 0.00000000
v 0.18867302 -0.45549696 0.01683588
v 0.18223021 -0.43994263 0.02380952
v 0.17578740 -0.42438831 0.01683588
v 0.17311870 -0.41794550 0.00000000
v 0.17578740 -0.42438831 -0.01683588
v 0.18223021 -0.43994263 -0.02380952
v 0.18867302 -0.45549696 -0.01683588
v 0.35355339 -0.35355339 0.00000000
v 0.34862228 -0.34862228 0.01683588
v 0.33671751 -0.33671751 0.02380952
v 0.32481275 -0.32481275 0.01683588
v 0.31988164 -0.31988164 0.00000000
v 0.32481275 -0.32481275 -0.01683588
v 0.33671751 -0.33671751 -0.02380952
v 0.34862228 -0.34862228 -0.01683588
v 0.46193977 -0.19134172 0.00000000
v 0.45549696 -0.18867302 0.01683588
v 0.43994263 -0.18223021 0.02380952
v 0.42438831 -0.17578740 0.01683588
v 0.41794550 -0.17311870 0.00000000
v 0.42438831 -0.17578740 -0.01683588
v 0.43994263 -0.18223021 -0.02380952
v 0.45549696 -0.18867302 -0.01683588
v 0.00000000 0.00000000 -0.50000000
v 0.01683588 0.00000000 -0.49302635
v 0.02380952 0.00000000 -0.47619048
v 0.01683588 0.00000000 -0.45935460
v 0.00000000 0.00000000 -0.45238095
v -0.01683588 0.00000000 -0.45935460
v -0.02380952 0.00000000 -0.47619048
v -0.01683588 0.00000000 -0.49302635
v 0.00000000 0.19134172 -0.46193977
v 0.01683588 0.18867302 -0.45549696
v 0.02380952 0.18223021 -0.43994263
v 0.01683588 0.17578740 -0.42438831
v 0.00000000 0.17311870 -0.41794550
v -0.01683588 0.17578740 -0.42438831
v -0.02380952 0.18223021 -0.43994263
v -0.01683588 0.18867302 -0.45549696
v 0.00000000 0.35355339 -0.35355339
v 0.01683588 0.34862228 -0.34862228
v 0.02380952 0.33671751 -0.33671751
v 0.01683588 0.32481275 -0.32481275
v 0.00000000 0.31988164 -0.31988164
v -0.01683588 0.32481275 -0.32481275
v -0.02380952 0.33671751 -0.33671751
v -0.01683588 0.34862228 -0.34862228
v 0.00000000 0.46193977 -0.19134172
v 0.01683588 0.45549696 -0.18867302
v 0.02380952 0.43994263 -0.18223021
v 0.01683588 0.42438831 -0.17578740
v 0.00000000 0.41794550 -0.17311870
v -0.01683588 0.42438831 -0.17578740
v -0.02380952 0.43994263 -0.18223021
v -0.01683588 0.45549696 -0.18867302
v 0.00000000 0.50000000 -0.00000000
v 0.01683588 0.49302635 -0.00000000
v 0.02380952 0.47619048 -0.00000000
v 0.01683588 0.45935460 -0.00000000
v 0.00000000 0.45238095 -0.00000000
v -0.01683588 0.45935460 -0.00000000
v -0.02380952 0.47619048 -0.00000000
v -0.01683588 0.49302635 -0.00000000
v -0.00000000 0.46193977 0.19134172
v 0.01683588 0.45549696 0.18867302
v 0.02380952 0.43994263 0.18223021
v 0.01683588 0.42438831 0.17578740
v -0.00000000 0.41794550 0.17311870
v -0.01683588 0.42438831 0.17578740
v -0.02380952 0.43994263 0.18223021
v -0.01683588 0.45549696 0.18867302
v -0.00000000 0.35355339 0.35355339
v 0.01683588 0.34862228 0.34862228
v 0.02380952 0.33671751 0.33671751
v 0.01683588 0.32481275 0.32481275
v -0.00000000 0.31988164 0.31988164
v -0.01683588 0.32481275 0.32481275
v -0.02380952 0.33671751 0.33671751
v -0.01683588 0.34862228 0.34862228
v -0.00000000 0.19134172 0.46193977
v 0.01683588 0.18867302 0.45549696
v 0.02380952 0.18223021 0.43994263
v 0.01683588 0.17578740 0.42438831
v -0.00000000 0.17311870 0.41794550
v -0.01683588 0.17578740 0.42438831
v -0.02380952 0.18223021 0.43994263
v -0.01683588 0.18867302 0.45549696
v -0.00000000 0.00000000 0.50000000
v 0.01683588 0.00000000 0.49302635
v 0.02380952 0.00000000 0.47619048
v 0.01683588 0.00000000 0.45935460
v -0.00000000 0.00000000 0.45238095
v -0.01683588 0.00000000 0.45935460
v -0.02380952 0.00000000 0.47619048
v -0.01683588 0.00000000 0.49302635
v -0.00000000 -0.19134172 0.46193977
v 0.01683588 -0.18867302 0.45549696
v 0.02380952 -0.18223021 0.43994263
v 0.01683588 -0.17578740 0.42438831
v -0.00000000 -0.17311870 0.41794550
v -0.01683588 -0.17578740 0.42438831
v -0.02380952 -0.18223021 0.43994263
v -0.01683588 -0.18867302 0.45549696
v -0.00000000 -0.35355339 0.35355339
v 0.01683588 -0.34862228 0.34862228
v 0.02380952 -0.33671751 0.33671751
v 0.01683588 -0.32481275 0.32481275
v -0.00000000 -0.31988164 0.31988164
v -0.01683588 -0.32481275 0.32481275
v -0.02380952 -0.33671751 0.33671751
v -0.01683588 -0.34862228 0.34862228
v -0.00000000 -0.46193977 0.19134172
v 0.01683588 -0.45549696 0.18867302
v 0.02380952 -0.43994263 0.18223021
v 0.01683588 -0.42438831 0.17578740
v -0.00000000 -0.41794550 0.17311870
v -0.01683588 -0.42438831 0.17578740
v -0.02380952 -0.43994263 0.18223021
v -0.01683588 -0.45549696 0.18867302
v -0.00000000 -0.50000000 0.00000000
v 0.01683588 -0.49302635 0.00000000
v 0.02380952 -0.47619048 0.00000000
v 0.01683588 -0.45935460 0.00000000
v 0.00000000 -0.45238095 0.00000000
v -0.01683588 -0.45935460 0.00000000
v -0.02380952 -0.47619048 0.00000000
v -0.01683588 -0.49302635 0.00000000
v 0.00000000 -0.46193977 -0.19134172
v 0.01683588 -0.45549696 -0.18867302
v 0.02380952 -0.43994263 -0.18223021
v 0.01683588 -0.42438831 -0.17578740
v 0.00000000 -0.41794550 -0.17311870
v -0.01683588 -0.42438831 -0.17578740
v -0.02380952 -0.43994263 -0.18223021
v -0.01683588 -0.45549696 -0.18867302
v 0.00000000 -0.35355339 -0.35355339
v 0.01683588 -0.34862228 -0.34862228
v 0.02380952 -0.33671751 -0.33671751
v 0.01683588 -0.32481275 -0.32481275
v 0.00000000 -0.31988164 -0.31988164
v -0.01683588 -0.32481275 -0.32481275
v -0.02380952 -0.33671751 -0.33671751
v -0.01683588 -0.34862228 -0.34862228
v 0.00000000 -0.19134172 -0.46193977
v 0.01683588 -0.18867302 -0.45549696
v 0.02380952 -0.18223021 -0.43994263
v 0.01683588 -0.17578740 -0.42438831
v 0.00000000 -0.17311870 -0.41794550
v -0.01683588 -0.17578740 -0.42438831
v -0.02380952 -0.18223021 -0.43994263
v -0.01683588 -0.18867302 -0.45549696
f 1 138 54
f 138 38 140
f 54 140 17
f 138 140 54
f 38 139 155
f 139 12 152
f 155 152 41
f 139 152 155
f 17 153 55
f 153 41 151
f 55 151 6
f 153 151 55
f 38 155 140
f 155 41 153
f 140 153 17
f 155 153 140
f 1 54 43
f 54 17 56
f 43 56 13
f 54 56 43
f 17 55 60
f 55 6 58
f 60 58 18
f 55 58 60
f 13 59 44
f 59 18 57
f 44 57 2
f 59 57 44
f 17 60 56
f 60 18 59
f 56 59 13
f 60 59 56
f 1 43 70
f 43 13 72
f 70 72 22
f 43 72 70
f 13 44 75
f 44 2 73
f 75 73 23
f 44 73 75
f 22 76 71
f 76 23 74
f 71 74 8
f 76 74 71
f 13 75 72
f 75 23 76
f 72 76 22
f 75 76 72
f 1 70 121
f 70 22 123
f 121 123 34
f 70 123 121
f 22 71 134
f 71 8 132
f 134 132 37
f 71 132 134
f 34 136 122
f 136 37 133
f 122 133 11
f 136 133 122
f 22 134 123
f 134 37 136
f 123 136 34
f 134 136 123
f 1 121 138
f 121 34 141
f 138 141 38
f 121 141 138
f 34 122 159
f 122 11 157
f 159 157 42
f 122 157 159
f 38 161 139
f 161 42 158
f 139 158 12
f 161 158 139
f 34 159 141
f 159 42 161
f 141 161 38
f 159 161 141
f 2 57 96
f 57 18 98
f 96 98 29
f 57 98 96
f 18 58 111
f 58 6 109
f 111 109 32
f 58 109 111
f 29 113 97
f 113 32 110
f 97 110 10
f 113 110 97
f 18 111 98
f 111 32 113
f 98 113 29
f 111 113 98
f 6 151 62
f 151 41 154
f 62 154 19
f 151 154 62
f 41 152 156
f 152 12 147
f 156 147 40
f 152 147 156
f 19 149 61
f 149 40 146
f 61 146 5
f 149 146 61
f 41 156 154
f 156 40 149
f 154 149 19
f 156 149 154
f 12 158 143
f 158 42 162
f 143 162 39
f 158 162 143
f 42 157 160
f 157 11 125
f 160 125 35
f 157 125 160
f 39 145 142
f 145 35 124
f 142 124 3
f 145 124 142
f 42 160 162
f 160 35 145
f 162 145 39
f 160 145 162
f 11 133 128
f 133 37 137
f 128 137 36
f 133 137 128
f 37 132 135
f 132 8 78
f 135 78 24
f 132 78 135
f 36 130 127
f 130 24 77
f 127 77 7
f 130 77 127
f 37 135 137
f 135 24 130
f 137 130 36
f 135 130 137
f 8 74 90
f 74 23 92
f 90 92 28
f 74 92 90
f 23 73 81
f 73 2 79
f 81 79 25
f 73 79 81
f 28 94 91
f 94 25 80
f 91 80 9
f 94 80 91
f 23 81 92
f 81 25 94
f 92 94 28
f 81 94 92
f 4 100 50
f 100 30 102
f 50 102 16
f 100 102 50
f 30 101 108
f 101 10 105
f 108 105 31
f 101 105 108
f 16 106 51
f 106 31 104
f 51 104 5
f 106 104 51
f 30 108 102
f 108 31 106
f 102 106 16
f 108 106 102
f 4 50 46
f 50 16 52
f 46 52 14
f 50 52 46
f 16 51 53
f 51 5 48
f 53 48 15
f 51 48 53
f 14 49 45
f 49 15 47
f 45 47 3
f 49 47 45
f 16 53 52
f 53 15 49
f 52 49 14
f 53 49 52
f 4 46 66
f 46 14 68
f 66 68 21
f 46 68 66
f 14 45 65
f 45 3 63
f 65 63 20
f 45 63 65
f 21 69 67
f 69 20 64
f 67 64 7
f 69 64 67
f 14 65 68
f 65 20 69
f 68 69 21
f 65 69 68
f 4 66 82
f 66 21 84
f 82 84 26
f 66 84 82
f 21 67 87
f 67 7 85
f 87 85 27
f 67 85 87
f 26 89 83
f 89 27 86
f 83 86 9
f 89 86 83
f 21 87 84
f 87 27 89
f 84 89 26
f 87 89 84
f 4 82 100
f 82 26 103
f 100 103 30
f 82 103 100
f 26 83 118
f 83 9 115
f 118 115 33
f 83 115 118
f 30 120 101
f 120 33 116
f 101 116 10
f 120 116 101
f 26 118 103
f 118 33 120
f 103 120 30
f 118 120 103
f 5 104 61
f 104 31 107
f 61 107 19
f 104 107 61
f 31 105 114
f 105 10 110
f 114 110 32
f 105 110 114
f 19 112 62
f 112 32 109
f 62 109 6
f 112 109 62
f 31 114 107
f 114 32 112
f 107 112 19
f 114 112 107
f 3 47 142
f 47 15 144
f 142 144 39
f 47 144 142
f 15 48 148
f 48 5 146
f 148 146 40
f 48 146 148
f 39 150 143
f 150 40 147
f 143 147 12
f 150 147 143
f 15 148 144
f 148 40 150
f 144 150 39
f 148 150 144
f 7 64 127
f 64 20 129
f 127 129 36
f 64 129 127
f 20 63 126
f 63 3 124
f 126 124 35
f 63 124 126
f 36 131 128
f 131 35 125
f 128 125 11
f 131 125 128
f 20 126 129
f 126 35 131
f 129 131 36
f 126 131 129
f 9 86 91
f 86 27 95
f 91 95 28
f 86 95 91
f 27 85 88
f 85 7 77
f 88 77 24
f 85 77 88
f 28 93 90
f 93 24 78
f 90 78 8
f 93 78 90
f 27 88 95
f 88 24 93
f 95 93 28
f 88 93 95
f 10 116 97
f 116 33 119
f 97 119 29
f 116 119 97
f 33 115 117
f 115 9 80
f 117 80 25
f 115 80 117
f 29 99 96
f 99 25 79
f 96 79 2
f 99 79 96
f 33 117 119
f 117 25 99
f 119 99 29
f 117 99 119
f 163 171 164
f 164 171 172
f 164 172 165
f 165 172 173
f 165 173 166
f 166 173 174
f 166 174 167
f 167 174 175
f 167 175 168
f 168 175 176
f 168 176 169
f 169 176 177
f 169 177 170
f 170 177 178
f 170 178 163
f 163 178 171
f 171 179 172
f 172 179 180
f 172 180 173
f 173 180 181
f 173 181 174
f 174 181 182
f 174 182 175
f 175 182 183
f 175 183 176
f 176 183 184
f 176 184 177
f 177 184 185
f 177 185 178
f 178 185 186
f 178 186 171
f 171 186 179
f 179 187 180
f 180 187 188
f 180 188 181
f 181 188 189
f 181 189 182
f 182 189 190
f 182 190 183
f 183 190 191
f 183 191 184
f 184 191 192
f 184 192 185
f 185 192 193
f 185 193 186
f 186 193 194
f 186 194 179
f 179 194 187
f 187 195 188
f 188 195 196
f 188 196 189
f 189 196 197
f 189 197 190
f 190 197 198
f 190 198 191
f 191 198 199
f 191 199 192
f 192 199 200
f 192 200 193
f 193 200 201
f 193 201 194
f 194 201 202
f 194 202 187
f 187 202 195
f 195 203 196
f 196 203 204
f 196 204 197
f 197 204 205
f 197 205 198
f 198 205 206
f 198 206 199
f 199 206 207
f 199 207 200
f 200 207 208
f 200 208 201
f 201 208 209
f 201 209 202
f 202 209 210
f 202 210 195
f 195 210 203
f 203 211 204
f 204 211 212
f 204 212 205
f 205 212 213
f 205 213 206
f 206 213 214
f 206 214 207
f 207 214 215
f 207 215 208
f 208 215 216
f 208 216 209
f 209 216 217
f 209 217 210
f 210 217 218
f 210 218 203
f 203 218 211
f 211 219 212
f 212 219 220
f 212 220 213
f 213 220 221
f 213 221 214
f 214 221 222
f 214 222 215
f 215 222 223
f 215 223 216
f 216 223 224
f 216 224 217
f 217 224 225
f 217 225 218
f 218 225 226
f 218 226 211
f 211 226 219
f 219 227 220
f 220 227 228
f 220 228 221
f 221 228 229
f 221 229 222
f 222 229 230
f 222 230 223
f 223 230 231
f 223 231 224
f 224 231 232
f 224 232 225
f 225 232 233
f 225 233 226
f 226 233 234
f 226 234 219
f 219 234 227
f 227 235 228
f 228 235 236
f 228 236 229
f 229 236 237
f 229 237 230
f 230 237 238
f 230 238 231
f 231 238 239
f 231 239 232
f 232 239 240
f 232 240 233
f 233 240 241
f 233 241 234
f 234 241 242
f 234 242 227
f 227 242 235
f 235 243 236
f 236 243 244
f 236 244 237
f 237 244 245
f 237 245 238
f 238 245 246
f 238 246 239
f 239 246 247
f 239 247 240
f 240 247 248
f 240 248 241
f 241 248 249
f 241 249 242
f 242 249 250
f 242 250 235
f 235 250 243
f 243 251 244
f 244 251 252
f 244 252 245
f 245 252 253
f 245 253 246
f 246 253 254
f 246 254 247
f 247 254 255
f 247 255 248
f 248 255 256
f 248 256 249
f 249 256 257
f 249 257 250
f 250 257 258
f 250 258 243
f 243 258 251
f 251 259 252
f 252 259 260
f 252 260 253
f 253 260 261
f 253 261 254
f 254 261 262
f 254 262 255
f 255 262 263
f 255 263 256
f 256 263 264
f 256 264 257
f 257 264 265
f 257 265 258
f 258 265 266
f 258 266 251
f 251 266 259
f 259 267 260
f 260 267 268
f 260 268 261
f 261 268 269
f 261 269 262
f 262 269 270
f 262 270 263
f 263 270 271
f 263 271 264
f 264 271 272
f 264 272 265
f 265 272 273
f 265 273 266
f 266 273 274
f 266 274 259
f 259 274 267
f 267 275 268
f 268 275 276
f 268 276 269
f 269 276 277
f 269 277 270
f 270 277 278
f 270 278 271
f 271 278 279
f 271 279 272
f 272 279 280
f 272 280 273
f 273 280 281
f 273 281 274
f 274 281 282
f 274 282 267
f 267 282 275
f 275 283 276
f 276 283 284
f 276 284 277
f 277 284 285
f 277 285 278
f 278 285 286
f 278 286 279
f 279 286 287
f 279 287 280
f 280 287 288
f 280 288 281
f 281 288 289
f 281 289 282
f 282 289 290
f 282 290 275
f 275 290 283
f 283 163 284
f 284 163 164
f 284 164 285
f 285 164 165
f 285 165 286
f 286 165 166
f 286 166 287
f 287 166 167
f 287 167 288
f 288 167 168
f 288 168 289
f 289 168 169
f 289 169 290
f 290 169 170
f 290 170 283
f 283 170 163
f 291 299 292
f 292 299 300
f 292 300 293
f 293 300 301
f 293 301 294
f 294 301 302
f 294 302 295
f 295 302 303
f 295 303 296
f 296 303 304
f 296 304 297
f 297 304 305
f 297 305 298
f 298 305 306
f 298 306 291
f 291 306 299
f 299 307 300
f 300 307 308
f 300 308 301
f 301 308 309
f 301 309 302
f 302 309 310
f 302 310 303
f 303 310 311
f 303 311 304
f 304 311 312
f 304 312 305
f 305 312 313
f 305 313 306
f 306 313 314
f 306 314 299
f 299 314 307
f 307 315 308
f 308 315 316
f 308 316 309
f 309 316 317
f 309 317 310
f 310 317 318
f 310 318 311
f 311 318 319
f 311 319 312
f 312 319 320
f 312 320 313
f 313 320 321
f 313 321 314
f 314 321 322
f 314 322 307
f 307 322 315
f 315 323 316
f 316 323 324
f 316 324 317
f 317 324 325
f 317 325 318
f 318 325 326
f 318 326 319
f 319 326 327
f 319 327 320
f 320 327 328
f 320 328 321
f 321 328 329
f 321 329 322
f 322 329 330
f 322 330 315
f 315 330 323
f 323 331 324
f 324 331 332
f 324 332 325
f 325 332 333
f 325 333 326
f 326 333 334
f 326 334 327
f 327 334 335
f 327 335 328
f 328 335 336
f 328 336 329
f 329 336 337
f 329 337 330
f 330 337 338
f 330 338 323
f 323 338 331
f 331 339 332
f 332 339 340
f 332 340 333
f 333 340 341
f 333 341 334
f 334 341 342
f 334 342 335
f 335 342 343
f 335 343 336
f 336 343 344
f 336 344 337
f 337 344 345
f 337 345 338
f 338 345 346
f 338 346 331
f 331 346 339
f 339 347 340
f 340 347 348
f 340 348 341
f 341 348 349
f 341 349 342
f 342 349 350
f 342 350 343
f 343 350 351
f 343 351 344
f 344 351 352
f 344 352 345
f 345 352 353
f 345 353 346
f 346 353 354
f 346 354 339
f 339 354 347
f 347 355 348
f 348 355 356
f 348 356 349
f 349 356 357
f 349 357 350
f 350 357 358
f 350 358 351
f 351 358 359
f 351 359 352
f 352 359 360
f 352 360 353
f 353 360 361
f 353 361 354
f 354 361 362
f 354 362 347
f 347 362 355
f 355 363 356
f 356 363 364
f 356 364 357
f 357 364 365
f 357 365 358
f 358 365 366
f 358 366 359
f 359 366 367
f 359 367 360
f 360 367 368
f 360 368 361
f 361 368 369
f 361 369 362
f 362 369 370
f 362 370 355
f 355 370 363
f 363 371 364
f 364 371 372
f 364 372 365
f 365 372 373
f 365 373 366
f 366 373 374
f 366 374 367
f 367 374 375
f 367 375 368
f 368 375 376
f 368 376 369
f 369 376 377
f 369 377 370
f 370 377 378
f 370 378 363
f 363 378 371
f 371 379 372
f 372 379 380
f 372 380 373
f 373 380 381
f 373 381 374
f 374 381 382
f 374 382 375
f 375 382 383
f 375 383 376
f 376 383 384
f 376 384 377
f 377 384 385
f 377 385 378
f 378 385 386
f 378 386 371
f 371 386 379
f 379 387 380
f 380 387 388
f 380 388 381
f 381 388 389
f 381 389 382
f 382 389 390
f 382 390 383
f 383 390 391
f 383 391 384
f 384 391 392
f 384 392 385
f 385 392 393
f 385 393 386
f 386 393 394
f 386 394 379
f 379 394 387
f 387 395 388
f 388 395 396
f 388 396 389
f 389 396 397
f 389 397 390
f 390 397 398
f 390 398 391
f 391 398 399
f 391 399 392
f 392 399 400
f 392 400 393
f 393 400 401
f 393 401 394
f 394 401 402
f 394 402 387
f 387 402 395
f 395 403 396
f 396 403 404
f 396 404 397
f 397 404 405
f 397 405 398
f 398 405 406
f 398 406 399
f 399 406 407
f 399 407 400
f 400 407 408
f 400 408 401
f 401 408 409
f 401 409 402
f 402 409 410
f 402 410 395
f 395 410 403
f 403 411 404
f 404 411 412
f 404 412 405
f 405 412 413
f 405 413 406
f 406 413 414
f 406 414 407
f 407 414 415
f 407 415 408
f 408 415 416
f 408 416 409
f 409 416 417
f 409 417 410
f 410 417 418
f 410 418 403
f 403 418 411
f 411 291 412
f 412 291 292
f 412 292 413
f 413 292 293
f 413 293 414
f 414 293 294
f 414 294 415
f 415 294 295
f 415 295 416
f 416 295 296
f 416 296 417
f 417 296 297
f 417 297 418
f 418 297 298
f 418 298 411
f 411 298 291

