# https://github.com/mikedh/trimesh
v 0.44690265 -0.05309735 0.00000000
v 0.43264679 -0.05309735 0.03441670
v 0.39823009 -0.05309735 0.04867257
v 0.36381339 -0.05309735 0.03441670
v 0.34955752 -0.05309735 0.00000000
v 0.36381339 -0.05309735 -0.03441670
v 0.39823009 -0.05309735 -0.04867257
v 0.43264679 -0.05309735 -0.03441670
v 0.41288422 0.11792490 0.00000000
v 0.39971351 0.11246941 0.03441670
v 0.36791663 0.09929871 0.04867257
v 0.33611974 0.08612801 0.03441670
v 0.32294904 0.08067253 0.00000000
v 0.33611974 0.08612801 -0.03441670
v 0.36791663 0.09929871 -0.04867257
v 0.39971351 0.11246941 -0.03441670
v 0.31600790 0.26291055 0.00000000
v 0.30592748 0.25283013 0.03441670
v 0.28159120 0.22849385 0.04867257
v 0.25725491 0.20415757 0.03441670
v 0.24717449 0.19407715 0.00000000
v 0.25725491 0.20415757 -0.03441670
v 0.28159120 0.22849385 -0.04867257
v 0.30592748 0.25283013 -0.03441670
v 0.17102224 0.35978687 0.00000000
v 0.16556676 0.34661617 0.03441670
v 0.15239606 0.31481928 0.04867257
v 0.13922536 0.28302240 0.03441670
v 0.13376987 0.26985169 0.00000000
v 0.13922536 0.28302240 -0.03441670
v 0.15239606 0.31481928 -0.04867257
v 0.16556676 0.34661617 -0.03441670
v 0.00000000 0.39380531 0.00000000
v 0.00000000 0.37954945 0.03441670
v 0.00000000 0.34513274 0.04867257
v 0.00000000 0.31071604 0.03441670
v 0.00000000 0.29646018 0.00000000
v 0.00000000 0.31071604 -0.03441670
v 0.00000000 0.34513274 -0.04867257
v 0.00000000 0.37954945 -0.03441670
v -0.17102224 0.35978687 0.00000000
v -0.16556676 0.34661617 0.03441670
v -0.15239606 0.31481928 0.04867257
v -0.13922536 0.28302240 0.03441670
v -0.13376987 0.26985169 0.00000000
v -0.13922536 0.28302240 -0.03441670
v -0.15239606 0.31481928 -0.04867257
v -0.16556676 0.34661617 -0.03441670
v -0.31600790 0.26291055 0.00000000
v -0.30592748 0.25283013 0.03441670
v -0.28159120 0.22849385 0.04867257
v -0.25725491 0.20415757 0.03441670
v -0.24717449 0.19407715 0.00000000
v -0.25725491 0.20415757 -0.03441670
v -0.28159120 0.22849385 -0.04867257
v -0.30592748 0.25283013 -0.03441670
v -0.41288422 0.11792490 0.00000000
v -0.39971351 0.11246941 0.03441670
v -0.36791663 0.09929871 0.04867257
v -0.33611974 0.08612801 0.03441670
v -0.32294904 0.08067253 0.00000000
v -0.33611974 0.08612801 -0.03441670
v -0.36791663 0.09929871 -0.04867257
v -0.39971351 0.11246941 -0.03441670
v -0.44690265 -0.05309735 0.00000000
v -0.43264679 -0.05309735 0.03441670
v -0.39823009 -0.05309735 0.04867257
v -0.36381339 -0.05309735 0.03441670
v -0.34955752 -0.05309735 0.00000000
v -0.36381339 -0.05309735 -0.03441670
v -0.39823009 -0.05309735 -0.04867257
v -0.43264679 -0.05309735 -0.03441670
v -0.41288422 -0.22411959 0.00000000
v -0.39971351 -0.21866410 0.03441670
v -0.36791663 -0.20549340 0.04867257
v -0.33611974 -0.19232270 0.03441670
v -0.32294904 -0.18686722 0.00000000
v -0.33611974 -0.19232270 -0.03441670
v -0.36791663 -0.20549340 -0.04867257
v -0.39971351 -0.21866410 -0.03441670
v -0.31600790 -0.36910524 0.00000000
v -0.30592748 -0.35902482 0.03441670
v -0.28159120 -0.33468854 0.04867257
v -0.25725491 -0.31035226 0.03441670
v -0.24717449 -0.30027184 0.00000000
v -0.25725491 -0.31035226 -0.03441670
v -0.28159120 -0.33468854 -0.04867257
v -0.30592748 -0.35902482 -0.03441670
v -0.17102224 -0.46598156 0.00000000
v -0.16556676 -0.45281086 0.03441670
v -0.15239606 -0.42101397 0.04867257
v -0.13922536 -0.38921709 0.03441670
v -0.13376987 -0.37604639 0.00000000
v -0.13922536 -0.38921709 -0.03441670
v -0.15239606 -0.42101397 -0.04867257
v -0.16556676 -0.45281086 -0.03441670
v -0.00000000 -0.50000000 0.00000000
v -0.00000000 -0.48574414 0.03441670
v -0.00000000 -0.45132743 0.04867257
v -0.00000000 -0.41691073 0.03441670
v -0.00000000 -0.40265487 0.00000000
v -0.00000000 -0.41691073 -0.03441670
v -0.00000000 -0.45132743 -0.04867257
v -0.00000000 -0.48574414 -0.03441670
v 0.17102224 -0.46598156 0.00000000
v 0.16556676 -0.45281086 0.03441670
v 0.15239606 -0.42101397 0.04867257
v 0.13922536 -0.38921709 0.03441670
v 0.13376987 -0.37604639 0.00000000
v 0.13922536 -0.38921709 -0.03441670
v 0.15239606 -0.42101397 -0.04867257
v 0.16556676 -0.45281086 -0.03441670
v 0.31600790 -0.36910524 0.00000000
v 0.30592748 -0.35902482 0.03441670
v 0.28159120 -0.33468854 0.04867257
v 0.25725491 -0.31035226 0.03441670
v 0.24717449 -0.30027184 0.00000000
v 0.25725491 -0.31035226 -0.03441670
v 0.28159120 -0.33468854 -0.04867257
v 0.30592748 -0.35902482 -0.03441670
v 0.41288422 -0.22411959 0.00000000
v 0.39971351 -0.21866410 0.03441670
v 0.36791663 -0.20549340 0.04867257
v 0.33611974 -0.19232270 0.03441670
v 0.32294904 -0.18686722 0.00000000
v 0.33611974 -0.19232270 -0.03441670
v 0.36791663 -0.20549340 -0.04867257
v 0.39971351 -0.21866410 -0.03441670
v 0.29646018 -0.05309735 0.00000000
v 0.28738826 -0.05309735 0.02190154
v 0.26548673 -0.05309735 0.03097345
v 0.24358519 -0.05309735 0.02190154
v 0.23451327 -0.05309735 0.00000000
v 0.24358519 -0.05309735 -0.02190154
v 0.26548673 -0.05309735 -0.03097345
v 0.28738826 -0.05309735 -0.02190154
v 0.27389349 0.06035305 0.00000000
v 0.26551213 0.05688138 0.02190154
v 0.24527775 0.04850003 0.03097345
v 0.22504337 0.04011867 0.02190154
v 0.21666201 0.03664700 0.00000000
v 0.22504337 0.04011867 -0.02190154
v 0.24527775 0.04850003 -0.03097345
v 0.26551213 0.05688138 -0.02190154
v 0.20962900 0.15653166 0.00000000
v 0.20321419 0.15011684 0.02190154
v 0.18772746 0.13463012 0.03097345
v 0.17224074 0.11914339 0.02190154
v 0.16582593 0.11272858 0.00000000
v 0.17224074 0.11914339 -0.02190154
v 0.18772746 0.13463012 -0.03097345
v 0.20321419 0.15011684 -0.02190154
v 0.11345040 0.22079614 0.00000000
v 0.10997873 0.21241479 0.02190154
v 0.10159737 0.19218041 0.03097345
v 0.09321602 0.17194602 0.02190154
v 0.08974434 0.16356467 0.00000000
v 0.09321602 0.17194602 -0.02190154
v 0.10159737 0.19218041 -0.03097345
v 0.10997873 0.21241479 -0.02190154
v 0.00000000 0.24336283 0.00000000
v 0.00000000 0.23429092 0.02190154
v 0.00000000 0.21238938 0.03097345
v 0.00000000 0.19048784 0.02190154
v 0.00000000 0.18141593 0.00000000
v 0.00000000 0.19048784 -0.02190154
v 0.00000000 0.21238938 -0.03097345
v 0.00000000 0.23429092 -0.02190154
v -0.11345040 0.22079614 0.00000000
v -0.10997873 0.21241479 0.02190154
v -0.10159737 0.19218041 0.03097345
v -0.09321602 0.17194602 0.02190154
v -0.08974434 0.16356467 0.00000000
v -0.09321602 0.17194602 -0.02190154
v -0.10159737 0.19218041 -0.03097345
v -0.10997873 0.21241479 -0.02190154
v -0.20962900 0.15653166 0.00000000
v -0.20321419 0.15011684 0.02190154
v -0.18772746 0.13463012 0.03097345
v -0.17224074 0.11914339 0.02190154
v -0.16582593 0.11272858 0.00000000
v -0.17224074 0.11914339 -0.02190154
v -0.18772746 0.13463012 -0.03097345
v -0.20321419 0.15011684 -0.02190154
v -0.27389349 0.06035305 0.00000000
v -0.26551213 0.05688138 0.02190154
v -0.24527775 0.04850003 0.03097345
v -0.22504337 0.04011867 0.02190154
v -0.21666201 0.03664700 0.00000000
v -0.22504337 0.04011867 -0.02190154
v -0.24527775 0.04850003 -0.03097345
v -0.26551213 0.05688138 -0.02190154
v -0.29646018 -0.05309735 0.00000000
v -0.28738826 -0.05309735 0.02190154
v -0.26548673 -0.05309735 0.03097345
v -0.24358519 -0.05309735 0.02190154
v -0.23451327 -0.05309735 0.00000000
v -0.24358519 -0.05309735 -0.02190154
v -0.26548673 -0.05309735 -0.03097345
v -0.28738826 -0.05309735 -0.02190154
v -0.27389349 -0.16654774 0.00000000
v -0.26551213 -0.16307607 0.02190154
v -0.24527775 -0.15469472 0.03097345
v -0.22504337 -0.14631336 0.02190154
v -0.21666201 -0.14284169 0.00000000
v -0.22504337 -0.14631336 -0.02190154
v -0.24527775 -0.15469472 -0.03097345
v -0.26551213 -0.16307607 -0.02190154
v -0.20962900 -0.26272635 0.00000000
v -0.20321419 -0.25631153 0.02190154
v -0.18772746 -0.24082481 0.03097345
v -0.17224074 -0.22533808 0.02190154
v -0.16582593 -0.21892327 0.00000000
v -0.17224074 -0.22533808 -0.02190154
v -0.18772746 -0.24082481 -0.03097345
v -0.20321419 -0.25631153 -0.02190154
v -0.11345040 -0.32699083 0.00000000
v -0.10997873 -0.31860948 0.02190154
v -0.10159737 -0.29837510 0.03097345
v -0.09321602 -0.27814071 0.02190154
v -0.08974434 -0.26975936 0.00000000
v -0.09321602 -0.27814071 -0.02190154
v -0.10159737 -0.29837510 -0.03097345
v -0.10997873 -0.31860948 -0.02190154
v -0.00000000 -0.34955752 0.00000000
v -0.00000000 -0.34048561 0.02190154
v -0.00000000 -0.31858407 0.03097345
v -0.00000000 -0.29668253 0.02190154
v -0.00000000 -0.28761062 0.00000000
v -0.00000000 -0.29668253 -0.02190154
v -0.00000000 -0.31858407 -0.03097345
v -0.00000000 -0.34048561 -0.02190154
v 0.11345040 -0.32699083 0.00000000
v 0.10997873 -0.31860948 0.02190154
v 0.10159737 -0.29837510 0.03097345
v 0.09321602 -0.27814071 0.02190154
v 0.08974434 -0.26975936 0.00000000
v 0.09321602 -0.27814071 -0.02190154
v 0.10159737 -0.29837510 -0.03097345
v 0.10997873 -0.31860948 -0.02190154
v 0.20962900 -0.26272635 0.00000000
v 0.20321419 -0.25631153 0.02190154
v 0.18772746 -0.24082481 0.03097345
v 0.17224074 -0.22533808 0.02190154
v 0.16582593 -0.21892327 0.00000000
v 0.17224074 -0.22533808 -0.02190154
v 0.18772746 -0.24082481 -0.03097345
v 0.20321419 -0.25631153 -0.02190154
v 0.27389349 -0.16654774 0.00000000
v 0.26551213 -0.16307607 0.02190154
v 0.24527775 -0.15469472 0.03097345
v 0.22504337 -0.14631336 0.02190154
v 0.21666201 -0.14284169 0.00000000
v 0.22504337 -0.14631336 -0.02190154
v 0.24527775 -0.15469472 -0.03097345
v 0.26551213 -0.16307607 -0.02190154
v -0.37168142 -0.05309735 0.00000000
v -0.37168142 -0.05309735 -0.02212389
v 0.37168142 -0.05309735 -0.02212389
v 0.37168142 -0.05309735 0.00000000
v -0.37168142 -0.03745339 -0.01564396
v 0.37168142 -0.03745339 -0.01564396
v -0.37168142 -0.03097345 -0.00000000
v 0.37168142 -0.03097345 -0.00000000
v -0.37168142 -0.03745339 0.01564396
v 0.37168142 -0.03745339 0.01564396
v -0.37168142 -0.05309735 0.02212389
v 0.37168142 -0.05309735 0.02212389
v -0.37168142 -0.06874130 0.01564396
v 0.37168142 -0.06874130 0.01564396
v -0.37168142 -0.07522124 0.00000000
v 0.37168142 -0.07522124 0.00000000
v -0.37168142 -0.06874130 -0.01564396
v 0.37168142 -0.06874130 -0.01564396
v 0.00000000 -0.42477876 0.00000000
v 0.00000000 -0.42477876 -0.02212389
v 0.00000000 0.31858407 -0.02212389
v 0.00000000 0.31858407 0.00000000
v -0.01564396 -0.42477876 -0.01564396
v -0.01564396 0.31858407 -0.01564396
v -0.02212389 -0.42477876 -0.00000000
v -0.02212389 0.31858407 -0.00000000
v -0.01564396 -0.42477876 0.01564396
v -0.01564396 0.31858407 0.01564396
v -0.00000000 -0.42477876 0.02212389
v -0.00000000 0.31858407 0.02212389
v 0.01564396 -0.42477876 0.01564396
v 0.01564396 0.31858407 0.01564396
v 0.02212389 -0.42477876 0.00000000
v 0.02212389 0.31858407 0.00000000
v 0.01564396 -0.42477876 -0.01564396
v 0.01564396 0.31858407 -0.01564396
v 0.09292035 0.40707965 0.00000000
v 0.08644042 0.40707965 0.01564396
v 0.07079646 0.40707965 0.02212389
v 0.05515250 0.40707965 0.01564396
v 0.04867257 0.40707965 0.00000000
v 0.05515250 0.40707965 -0.01564396
v 0.07079646 0.40707965 -0.02212389
v 0.08644042 0.40707965 -0.01564396
v 0.08584721 0.44263873 0.00000000
v 0.07986053 0.44015896 0.01564396
v 0.06540740 0.43417228 0.02212389
v 0.05095427 0.42818560 0.01564396
v 0.04496759 0.42570583 0.00000000
v 0.05095427 0.42818560 -0.01564396
v 0.06540740 0.43417228 -0.02212389
v 0.07986053 0.44015896 -0.01564396
v 0.06570461 0.47278426 0.00000000
v 0.06112260 0.46820225 0.01564396
v 0.05006066 0.45714030 0.02212389
v 0.03899871 0.44607836 0.01564396
v 0.03441670 0.44149635 0.00000000
v 0.03899871 0.44607836 -0.01564396
v 0.05006066 0.45714030 -0.02212389
v 0.06112260 0.46820225 -0.01564396
v 0.03555908 0.49292686 0.00000000
v 0.03307931 0.48694018 0.01564396
v 0.02709263 0.47248705 0.02212389
v 0.02110595 0.45803392 0.01564396
v 0.01862618 0.45204723 0.00000000
v 0.02110595 0.45803392 -0.01564396
v 0.02709263 0.47248705 -0.02212389
v 0.03307931 0.48694018 -0.01564396
v 0.00000000 0.50000000 0.00000000
v 0.00000000 0.49352006 0.01564396
v 0.00000000 0.47787611 0.02212389
v 0.00000000 0.46223215 0.01564396
v 0.00000000 0.45575221 0.00000000
v 0.00000000 0.46223215 -0.01564396
v 0.00000000 0.47787611 -0.02212389
v 0.00000000 0.49352006 -0.01564396
v -0.03555908 0.49292686 0.00000000
v -0.03307931 0.48694018 0.01564396
v -0.02709263 0.47248705 0.02212389
v -0.02110595 0.45803392 0.01564396
v -0.01862618 0.45204723 0.00000000
v -0.02110595 0.45803392 -0.01564396
v -0.02709263 0.47248705 -0.02212389
v -0.03307931 0.48694018 -0.01564396
v -0.06570461 0.47278426 0.00000000
v -0.06112260 0.46820225 0.01564396
v -0.05006066 0.45714030 0.02212389
v -0.03899871 0.44607836 0.01564396
v -0.03441670 0.44149635 0.00000000
v -0.03899871 0.44607836 -0.01564396
v -0.05006066 0.45714030 -0.02212389
v -0.06112260 0.46820225 -0.01564396
v -0.08584721 0.44263873 0.00000000
v -0.07986053 0.44015896 0.01564396
v -0.06540740 0.43417228 0.02212389
v -0.05095427 0.42818560 0.01564396
v -0.04496759 0.42570583 0.00000000
v -0.05095427 0.42818560 -0.01564396
v -0.06540740 0.43417228 -0.02212389
v -0.07986053 0.44015896 -0.01564396
v -0.09292035 0.40707965 0.00000000
v -0.08644042 0.40707965 0.01564396
v -0.07079646 0.40707965 0.02212389
v -0.05515250 0.40707965 0.01564396
v -0.04867257 0.40707965 0.00000000
v -0.05515250 0.40707965 -0.01564396
v -0.07079646 0.40707965 -0.02212389
v -0.08644042 0.40707965 -0.01564396
v -0.08584721 0.37152057 0.00000000
v -0.07986053 0.37400033 0.01564396
v -0.06540740 0.37998701 0.02212389
v -0.05095427 0.38597370 0.01564396
v -0.04496759 0.38845346 0.00000000
v -0.05095427 0.38597370 -0.01564396
v -0.06540740 0.37998701 -0.02212389
v -0.07986053 0.37400033 -0.01564396
v -0.06570461 0.34137503 0.00000000
v -0.06112260 0.34595704 0.01564396
v -0.05006066 0.35701899 0.02212389
v -0.03899871 0.36808094 0.01564396
v -0.03441670 0.37266294 0.00000000
v -0.03899871 0.36808094 -0.01564396
v -0.05006066 0.35701899 -0.02212389
v -0.06112260 0.34595704 -0.01564396
v -0.03555908 0.32123243 0.00000000
v -0.03307931 0.32721912 0.01564396
v -0.02709263 0.34167225 0.02212389
v -0.02110595 0.35612538 0.01564396
v -0.01862618 0.36211206 0.00000000
v -0.02110595 0.35612538 -0.01564396
v -0.02709263 0.34167225 -0.02212389
v -0.03307931 0.32721912 -0.01564396
v -0.00000000 0.31415929 0.00000000
v -0.00000000 0.32063923 0.01564396
v -0.00000000 0.33628319 0.02212389
v -0.00000000 0.35192714 0.01564396
v -0.00000000 0.35840708 0.00000000
v -0.00000000 0.35192714 -0.01564396
v -0.00000000 0.33628319 -0.02212389
v -0.00000000 0.32063923 -0.01564396
v 0.03555908 0.32123243 0.00000000
v 0.03307931 0.32721912 0.01564396
v 0.02709263 0.34167225 0.02212389
v 0.02110595 0.35612538 0.01564396
v 0.01862618 0.36211206 0.00000000
v 0.02110595 0.35612538 -0.01564396
v 0.02709263 0.34167225 -0.02212389
v 0.03307931 0.32721912 -0.01564396
v 0.06570461 0.34137503 0.00000000
v 0.06112260 0.34595704 0.01564396
v 0.05006066 0.35701899 0.02212389
v 0.03899871 0.36808094 0.01564396
v 0.03441670 0.37266294 0.00000000
v 0.03899871 0.36808094 -0.01564396
v 0.05006066 0.35701899 -0.02212389
v 0.06112260 0.34595704 -0.01564396
v 0.08584721 0.37152057 0.00000000
v 0.07986053 0.37400033 0.01564396
v 0.06540740 0.37998701 0.02212389
v 0.05095427 0.38597370 0.01564396
v 0.04496759 0.38845346 0.00000000
v 0.05095427 0.38597370 -0.01564396
v 0.06540740 0.37998701 -0.02212389
v 0.07986053 0.37400033 -0.01564396
f 1 9 2
f 2 9 10
f 2 10 3
f 3 10 11
f 3 11 4
f 4 11 12
f 4 12 5
f 5 12 13
f 5 13 6
f 6 13 14
f 6 14 7
f 7 14 15
f 7 15 8
f 8 15 16
f 8 16 1
f 1 16 9
f 9 17 10
f 10 17 18
f 10 18 11
f 11 18 19
f 11 19 12
f 12 19 20
f 12 20 13
f 13 20 21
f 13 21 14
f 14 21 22
f 14 22 15
f 15 22 23
f 15 23 16
f 16 23 24
f 16 24 9
f 9 24 17
f 17 25 18
f 18 25 26
f 18 26 19
f 19 26 27
f 19 27 20
f 20 27 28
f 20 28 21
f 21 28 29
f 21 29 22
f 22 29 30
f 22 30 23
f 23 30 31
f 23 31 24
f 24 31 32
f 24 32 17
f 17 32 25
f 25 33 26
f 26 33 34
f 26 34 27
f 27 34 35
f 27 35 28
f 28 35 36
f 28 36 29
f 29 36 37
f 29 37 30
f 30 37 38
f 30 38 31
f 31 38 39
f 31 39 32
f 32 39 40
f 32 40 25
f 25 40 33
f 33 41 34
f 34 41 42
f 34 42 35
f 35 42 43
f 35 43 36
f 36 43 44
f 36 44 37
f 37 44 45
f 37 45 38
f 38 45 46
f 38 46 39
f 39 46 47
f 39 47 40
f 40 47 48
f 40 48 33
f 33 48 41
f 41 49 42
f 42 49 50
f 42 50 43
f 43 50 51
f 43 51 44
f 44 51 52
f 44 52 45
f 45 52 53
f 45 53 46
f 46 53 54
f 46 54 47
f 47 54 55
f 47 55 48
f 48 55 56
f 48 56 41
f 41 56 49
f 49 57 50
f 50 57 58
f 50 58 51
f 51 58 59
f 51 59 52
f 52 59 60
f 52 60 53
f 53 60 61
f 53 61 54
f 54 61 62
f 54 62 55
f 55 62 63
f 55 63 56
f 56 63 64
f 56 64 49
f 49 64 57
f 57 65 58
f 58 65 66
f 58 66 59
f 59 66 67
f 59 67 60
f 60 67 68
f 60 68 61
f 61 68 69
f 61 69 62
f 62 69 70
f 62 70 63
f 63 70 71
f 63 71 64
f 64 71 72
f 64 72 57
f 57 72 65
f 65 73 66
f 66 73 74
f 66 74 67
f 67 74 75
f 67 75 68
f 68 75 76
f 68 76 69
f 69 76 77
f 69 77 70
f 70 77 78
f 70 78 71
f 71 78 79
f 71 79 72
f 72 79 80
f 72 80 65
f 65 80 73
f 73 81 74
f 74 81 82
f 74 82 75
f 75 82 83
f 75 83 76
f 76 83 84
f 76 84 77
f 77 84 85
f 77 85 78
f 78 85 86
f 78 86 79
f 79 86 87
f 79 87 80
f 80 87 88
f 80 88 73
f 73 88 81
f 81 89 82
f 82 89 90
f 82 90 83
f 83 90 91
f 83 91 84
f 84 91 92
f 84 92 85
f 85 92 93
f 85 93 86
f 86 93 94
f 86 94 87
f 87 94 95
f 87 95 88
f 88 95 96
f 88 96 81
f 81 96 89
f 89 97 90
f 90 97 98
f 90 98 91
f 91 98 99
f 91 99 92
f 92 99 100
f 92 100 93
f 93 100 101
f 93 101 94
f 94 101 102
f 94 102 95
f 95 102 103
f 95 103 96
f 96 103 104
f 96 104 89
f 89 104 97
f 97 105 98
f 98 105 106
f 98 106 99
f 99 106 107
f 99 107 100
f 100 107 108
f 100 108 101
f 101 108 109
f 101 109 102
f 102 109 110
f 102 110 103
f 103 110 111
f 103 111 104
f 104 111 112
f 104 112 97
f 97 112 105
f 105 113 106
f 106 113 114
f 106 114 107
f 107 114 115
f 107 115 108
f 108 115 116
f 108 116 109
f 109 116 117
f 109 117 110
f 110 117 118
f 110 118 111
f 111 118 119
f 111 119 112
f 112 119 120
f 112 120 105
f 105 120 113
f 113 121 114
f 114 121 122
f 114 122 115
f 115 122 123
f 115 123 116
f 116 123 124
f 116 124 117
f 117 124 125
f 117 125 118
f 118 125 126
f 118 126 119
f 119 126 127
f 119 127 120
f 120 127 128
f 120 128 113
f 113 128 121
f 121 1 122
f 122 1 2
f 122 2 123
f 123 2 3
f 123 3 124
f 124 3 4
f 124 4 125
f 125 4 5
f 125 5 126
f 126 5 6
f 126 6 127
f 127 6 7
f 127 7 128
f 128 7 8
f 128 8 121
f 121 8 1
f 129 137 130
f 130 137 138
f 130 138 131
f 131 138 139
f 131 139 132
f 132 139 140
f 132 140 133
f 133 140 141
f 133 141 134
f 134 141 142
f 134 142 135
f 135 142 143
f 135 143 136
f 136 143 144
f 136 144 129
f 129 144 137
f 137 145 138
f 138 145 146
f 138 146 139
f 139 146 147
f 139 147 140
f 140 147 148
f 140 148 141
f 141 148 149
f 141 149 142
f 142 149 150
f 142 150 143
f 143 150 151
f 143 151 144
f 144 151 152
f 144 152 137
f 137 152 145
f 145 153 146
f 146 153 154
f 146 154 147
f 147 154 155
f 147 155 148
f 148 155 156
f 148 156 149
f 149 156 157
f 149 157 150
f 150 157 158
f 150 158 151
f 151 158 159
f 151 159 152
f 152 159 160
f 152 160 145
f 145 160 153
f 153 161 154
f 154 161 162
f 154 162 155
f 155 162 163
f 155 163 156
f 156 163 164
f 156 164 157
f 157 164 165
f 157 165 158
f 158 165 166
f 158 166 159
f 159 166 167
f 159 167 160
f 160 167 168
f 160 168 153
f 153 168 161
f 161 169 162
f 162 169 170
f 162 170 163
f 163 170 171
f 163 171 164
f 164 171 172
f 164 172 165
f 165 172 173
f 165 173 166
f 166 173 174
f 166 174 167
f 167 174 175
f 167 175 168
f 168 175 176
f 168 176 161
f 161 176 169
f 169 177 170
f 170 177 178
f 170 178 171
f 171 178 179
f 171 179 172
f 172 179 180
f 172 180 173
f 173 180 181
f 173 181 174
f 174 181 182
f 174 182 175
f 175 182 183
f 175 183 176
f 176 183 184
f 176 184 169
f 169 184 177
f 177 185 178
f 178 185 186
f 178 186 179
f 179 186 187
f 179 187 180
f 180 187 188
f 180 188 181
f 181 188 189
f 181 189 182
f 182 189 190
f 182 190 183
f 183 190 191
f 183 191 184
f 184 191 192
f 184 192 177
f 177 192 185
f 185 193 186
f 186 193 194
f 186 194 187
f 187 194 195
f 187 195 188
f 188 195 196
f 188 196 189
f 189 196 197
f 189 197 190
f 190 197 198
f 190 198 191
f 191 198 199
f 191 199 192
f 192 199 200
f 192 200 185
f 185 200 193
f 193 201 194
f 194 201 202
f 194 202 195
f 195 202 203
f 195 203 196
f 196 203 204
f 196 204 197
f 197 204 205
f 197 205 198
f 198 205 206
f 198 206 199
f 199 206 207
f 199 207 200
f 200 207 208
f 200 208 193
f 193 208 201
f 201 209 202
f 202 209 210
f 202 210 203
f 203 210 211
f 203 211 204
f 204 211 212
f 204 212 205
f 205 212 213
f 205 213 206
f 206 213 214
f 206 214 207
f 207 214 215
f 207 215 208
f 208 215 216
f 208 216 201
f 201 216 209
f 209 217 210
f 210 217 218
f 210 218 211
f 211 218 219
f 211 219 212
f 212 219 220
f 212 220 213
f 213 220 221
f 213 221 214
f 214 221 222
f 214 222 215
f 215 222 223
f 215 223 216
f 216 223 224
f 216 224 209
f 209 224 217
f 217 225 218
f 218 225 226
f 218 226 219
f 219 226 227
f 219 227 220
f 220 227 228
f 220 228 221
f 221 228 229
f 221 229 222
f 222 229 230
f 222 230 223
f 223 230 231
f 223 231 224
f 224 231 232
f 224 232 217
f 217 232 225
f 225 233 226
f 226 233 234
f 226 234 227
f 227 234 235
f 227 235 228
f 228 235 236
f 228 236 229
f 229 236 237
f 229 237 230
f 230 237 238
f 230 238 231
f 231 238 239
f 231 239 232
f 232 239 240
f 232 240 225
f 225 240 233
f 233 241 234
f 234 241 242
f 234 242 235
f 235 242 243
f 235 243 236
f 236 243 244
f 236 244 237
f 237 244 245
f 237 245 238
f 238 245 246
f 238 246 239
f 239 246 247
f 239 247 240
f 240 247 248
f 240 248 233
f 233 248 241
f 241 249 242
f 242 249 250
f 242 250 243
f 243 250 251
f 243 251 244
f 244 251 252
f 244 252 245
f 245 252 253
f 245 253 246
f 246 253 254
f 246 254 247
f 247 254 255
f 247 255 248
f 248 255 256
f 248 256 241
f 241 256 249
f 249 129 250
f 250 129 130
f 250 130 251
f 251 130 131
f 251 131 252
f 252 131 132
f 252 132 253
f 253 132 133
f 253 133 254
f 254 133 134
f 254 134 255
f 255 134 135
f 255 135 256
f 256 135 136
f 256 136 249
f 249 136 129
f 258 257 261
f 258 261 259
f 259 261 262
f 259 262 260
f 261 257 263
f 261 263 262
f 262 263 264
f 262 264 260
f 263 257 265
f 263 265 264
f 264 265 266
f 264 266 260
f 265 257 267
f 265 267 266
f 266 267 268
f 266 268 260
f 267 257 269
f 267 269 268
f 268 269 270
f 268 270 260
f 269 257 271
f 269 271 270
f 270 271 272
f 270 272 260
f 271 257 273
f 271 273 272
f 272 273 274
f 272 274 260
f 273 257 258
f 273 258 274
f 274 258 259
f 274 259 260
f 276 275 279
f 276 279 277
f 277 279 280
f 277 280 278
f 279 275 281
f 279 281 280
f 280 281 282
f 280 282 278
f 281 275 283
f 281 283 282
f 282 283 284
f 282 284 278
f 283 275 285
f 283 285 284
f 284 285 286
f 284 286 278
f 285 275 287
f 285 287 286
f 286 287 288
f 286 288 278
f 287 275 289
f 287 289 288
f 288 289 290
f 288 290 278
f 289 275 291
f 289 291 290
f 290 291 292
f 290 292 278
f 291 275 276
f 291 276 292
f 292 276 277
f 292 277 278
f 293 301 294
f 294 301 302
f 294 302 295
f 295 302 303
f 295 303 296
f 296 303 304
f 296 304 297
f 297 304 305
f 297 305 298
f 298 305 306
f 298 306 299
f 299 306 307
f 299 307 300
f 300 307 308
f 300 308 293
f 293 308 301
f 301 309 302
f 302 309 310
f 302 310 303
f 303 310 311
f 303 311 304
f 304 311 312
f 304 312 305
f 305 312 313
f 305 313 306
f 306 313 314
f 306 314 307
f 307 314 315
f 307 315 308
f 308 315 316
f 308 316 301
f 301 316 309
f 309 317 310
f 310 317 318
f 310 318 311
f 311 318 319
f 311 319 312
f 312 319 320
f 312 320 313
f 313 320 321
f 313 321 314
f 314 321 322
f 314 322 315
f 315 322 323
f 315 323 316
f 316 323 324
f 316 324 309
f 309 324 317
f 317 325 318
f 318 325 326
f 318 326 319
f 319 326 327
f 319 327 320
f 320 327 328
f 320 328 321
f 321 328 329
f 321 329 322
f 322 329 330
f 322 330 323
f 323 330 331
f 323 331 324
f 324 331 332
f 324 332 317
f 317 332 325
f 325 333 326
f 326 333 334
f 326 334 327
f 327 334 335
f 327 335 328
f 328 335 336
f 328 336 329
f 329 336 337
f 329 337 330
f 330 337 338
f 330 338 331
f 331 338 339
f 331 339 332
f 332 339 340
f 332 340 325
f 325 340 333
f 333 341 334
f 334 341 342
f 334 342 335
f 335 342 343
f 335 343 336
f 336 343 344
f 336 344 337
f 337 344 345
f 337 345 338
f 338 345 346
f 338 346 339
f 339 346 347
f 339 347 340
f 340 347 348
f 340 348 333
f 333 348 341
f 341 349 342
f 342 349 350
f 342 350 343
f 343 350 351
f 343 351 344
f 344 351 352
f 344 352 345
f 345 352 353
f 345 353 346
f 346 353 354
f 346 354 347
f 347 354 355
f 347 355 348
f 348 355 356
f 348 356 341
f 341 356 349
f 349 357 350
f 350 357 358
f 350 358 351
f 351 358 359
f 351 359 352
f 352 359 360
f 352 360 353
f 353 360 361
f 353 361 354
f 354 361 362
f 354 362 355
f 355 362 363
f 355 363 356
f 356 363 364
f 356 364 349
f 349 364 357
f 357 365 358
f 358 365 366
f 358 366 359
f 359 366 367
f 359 367 360
f 360 367 368
f 360 368 361
f 361 368 369
f 361 369 362
f 362 369 370
f 362 370 363
f 363 370 371
f 363 371 364
f 364 371 372
f 364 372 357
f 357 372 365
f 365 373 366
f 366 373 374
f 366 374 367
f 367 374 375
f 367 375 368
f 368 375 376
f 368 376 369
f 369 376 377
f 369 377 370
f 370 377 378
f 370 378 371
f 371 378 379
f 371 379 372
f 372 379 380
f 372 380 365
f 365 380 373
f 373 381 374
f 374 381 382
f 374 382 375
f 375 382 383
f 375 383 376
f 376 383 384
f 376 384 377
f 377 384 385
f 377 385 378
f 378 385 386
f 378 386 379
f 379 386 387
f 379 387 380
f 380 387 388
f 380 388 373
f 373 388 381
f 381 389 382
f 382 389 390
f 382 390 383
f 383 390 391
f 383 391 384
f 384 391 392
f 384 392 385
f 385 392 393
f 385 393 386
f 386 393 394
f 386 394 387
f 387 394 395
f 387 395 388
f 388 395 396
f 388 396 381
f 381 396 389
f 389 397 390
f 390 397 398
f 390 398 391
f 391 398 399
f 391 399 392
f 392 399 400
f 392 400 393
f 393 400 401
f 393 401 394
f 394 401 402
f 394 402 395
f 395 402 403
f 395 403 396
f 396 403 404
f 396 404 389
f 389 404 397
f 397 405 398
f 398 405 406
f 398 406 399
f 399 406 407
f 399 407 400
f 400 407 408
f 400 408 401
f 401 408 409
f 401 409 402
f 402 409 410
f 402 410 403
f 403 410 411
f 403 411 404
f 404 411 412
f 404 412 397
f 397 412 405
f 405 413 406
f 406 413 414
f 406 414 407
f 407 414 415
f 407 415 408
f 408 415 416
f 408 416 409
f 409 416 417
f 409 417 410
f 410 417 418
f 410 418 411
f 411 418 419
f 411 419 412
f 412 419 420
f 412 420 405
f 405 420 413
f 413 293 414
f 414 293 294
f 414 294 415
f 415 294 295
f 415 295 416
f 416 295 296
f 416 296 417
f 417 296 297
f 417 297 418
f 418 297 298
f 418 298 419
f 419 298 299
f 419 299 420
f 420 299 300
f 420 300 413
f 413 300 293

