# https://github.com/mikedh/trimesh
v 0.00000000 -0.40950226 -0.00000000
v 0.27149321 -0.40950226 -0.00000000
v 0.27149321 -0.50000000 0.00000000
v 0.00000000 -0.50000000 0.00000000
v 0.23512002 -0.40950226 0.13574661
v 0.23512002 -0.50000000 0.13574661
v 0.13574661 -0.40950226 0.23512002
v 0.13574661 -0.50000000 0.23512002
v 0.00000000 -0.40950226 0.27149321
v 0.00000000 -0.50000000 0.27149321
v -0.13574661 -0.40950226 0.23512002
v -0.13574661 -0.50000000 0.23512002
v -0.23512002 -0.40950226 0.13574661
v -0.23512002 -0.50000000 0.13574661
v -0.27149321 -0.40950226 0.00000000
v -0.27149321 -0.50000000 0.00000000
v -0.23512002 -0.40950226 -0.13574661
v -0.23512002 -0.50000000 -0.13574661
v -0.13574661 -0.40950226 -0.23512002
v -0.13574661 -0.50000000 -0.23512002
v -0.00000000 -0.40950226 -0.27149321
v -0.00000000 -0.50000000 -0.27149321
v 0.13574661 -0.40950226 -0.23512002
v 0.13574661 -0.50000000 -0.23512002
v 0.23512002 -0.40950226 -0.13574661
v 0.23512002 -0.50000000 -0.13574661
v 0.00000000 0.16063348 -0.00000000
v 0.16289593 0.16063348 -0.00000000
v 0.16289593 -0.40045249 0.00000000
v 0.00000000 -0.40045249 0.00000000
v 0.14107201 0.16063348 0.08144796
v 0.14107201 -0.40045249 0.08144796
v 0.08144796 0.16063348 0.14107201
v 0.08144796 -0.40045249 0.14107201
v 0.00000000 0.16063348 0.16289593
v 0.00000000 -0.40045249 0.16289593
v -0.08144796 0.16063348 0.14107201
v -0.08144796 -0.40045249 0.14107201
v -0.14107201 0.16063348 0.08144796
v -0.14107201 -0.40045249 0.08144796
v -0.16289593 0.16063348 0.00000000
v -0.16289593 -0.40045249 0.00000000
v -0.14107201 0.16063348 -0.08144796
v -0.14107201 -0.40045249 -0.08144796
v -0.08144796 0.16063348 -0.14107201
v -0.08144796 -0.40045249 -0.14107201
v -0.00000000 0.16063348 -0.16289593
v -0.00000000 -0.40045249 -0.16289593
v 0.08144796 0.16063348 -0.14107201
v 0.08144796 -0.40045249 -0.14107201
v 0.14107201 0.16063348 -0.08144796
v 0.14107201 -0.40045249 -0.08144796
v 0.00000000 0.26018100 -0.00000000
v 0.22624434 0.26018100 -0.00000000
v 0.22624434 0.16968326 0.00000000
v 0.00000000 0.16968326 0.00000000
v 0.19593335 0.26018100 0.11312217
v 0.19593335 0.16968326 0.11312217
v 0.11312217 0.26018100 0.19593335
v 0.11312217 0.16968326 0.19593335
v 0.00000000 0.26018100 0.22624434
v 0.00000000 0.16968326 0.22624434
v -0.11312217 0.26018100 0.19593335
v -0.11312217 0.16968326 0.19593335
v -0.19593335 0.26018100 0.11312217
v -0.19593335 0.16968326 0.11312217
v -0.22624434 0.26018100 0.00000000
v -0.22624434 0.16968326 0.00000000
v -0.19593335 0.26018100 -0.11312217
v -0.19593335 0.16968326 -0.11312217
v -0.11312217 0.26018100 -0.19593335
v -0.11312217 0.16968326 -0.19593335
v -0.00000000 0.26018100 -0.22624434
v -0.00000000 0.16968326 -0.22624434
v 0.11312217 0.26018100 -0.19593335
v 0.11312217 0.16968326 -0.19593335
v 0.19593335 0.26018100 -0.11312217
v 0.19593335 0.16968326 -0.11312217
v -0.24434389 0.10633484 0.00000000
v -0.24434389 0.10633484 0.03167421
v -0.31674208 0.46832579 0.03167421
v -0.31674208 0.46832579 0.00000000
v -0.22238178 0.11072726 0.02239705
v -0.29477997 0.47271821 0.02239705
v -0.21328477 0.11254666 0.00000000
v -0.28568297 0.47453762 0.00000000
v -0.22238178 0.11072726 -0.02239705
v -0.29477997 0.47271821 -0.02239705
v -0.24434389 0.10633484 -0.03167421
v -0.31674208 0.46832579 -0.03167421
v -0.26630600 0.10194242 -0.02239705
v -0.33870419 0.46393337 -0.02239705
v -0.27540301 0.10012302 -0.00000000
v -0.34780120 0.46211397 -0.00000000
v -0.26630600 0.10194242 0.02239705
v -0.33870419 0.46393337 0.02239705
v 0.24434389 0.10633484 0.00000000
v 0.24434389 0.10633484 -0.03167421
v 0.31674208 0.46832579 -0.03167421
v 0.31674208 0.46832579 0.00000000
v 0.22238178 0.11072726 -0.02239705
v 0.29477997 0.47271821 -0.02239705
v 0.21328477 0.11254666 -0.00000000
v 0.28568297 0.47453762 -0.00000000
v 0.22238178 0.11072726 0.02239705
v 0.29477997 0.47271821 0.02239705
v 0.24434389 0.10633484 0.03167421
v 0.31674208 0.46832579 0.03167421
v 0.26630600 0.10194242 0.02239705
v 0.33870419 0.46393337 0.02239705
v 0.27540301 0.10012302 0.00000000
v 0.34780120 0.46211397 0.00000000
v 0.26630600 0.10194242 -0.02239705
v 0.33870419 0.46393337 -0.02239705
v -0.31674208 0.46832579 0.00000000
v -0.31674208 0.46832579 -0.03167421
v 0.31674208 0.46832579 -0.03167421
v 0.31674208 0.46832579 0.00000000
v -0.31674208 0.49072284 -0.02239705
v 0.31674208 0.49072284 -0.02239705
v -0.31674208 0.50000000 -0.00000000
v 0.31674208 0.50000000 -0.00000000
v -0.31674208 0.49072284 0.02239705
v 0.31674208 0.49072284 0.02239705
v -0.31674208 0.46832579 0.03167421
v 0.31674208 0.46832579 0.03167421
v -0.31674208 0.44592874 0.02239705
v 0.31674208 0.44592874 0.02239705
v -0.31674208 0.43665158 0.00000000
v 0.31674208 0.43665158 0.00000000
v -0.31674208 0.44592874 -0.02239705
v 0.31674208 0.44592874 -0.02239705
f 2 1 5
f 2 5 3
f 3 5 6
f 3 6 4
f 5 1 7
f 5 7 6
f 6 7 8
f 6 8 4
f 7 1 9
f 7 9 8
f 8 9 10
f 8 10 4
f 9 1 11
f 9 11 10
f 10 11 12
f 10 12 4
f 11 1 13
f 11 13 12
f 12 13 14
f 12 14 4
f 13 1 15
f 13 15 14
f 14 15 16
f 14 16 4
f 15 1 17
f 15 17 16
f 16 17 18
f 16 18 4
f 17 1 19
f 17 19 18
f 18 19 20
f 18 20 4
f 19 1 21
f 19 21 20
f 20 21 22
f 20 22 4
f 21 1 23
f 21 23 22
f 22 23 24
f 22 24 4
f 23 1 25
f 23 25 24
f 24 25 26
f 24 26 4
f 25 1 2
f 25 2 26
f 26 2 3
f 26 3 4
f 28 27 31
f 28 31 29
f 29 31 32
f 29 32 30
f 31 27 33
f 31 33 32
f 32 33 34
f 32 34 30
f 33 27 35
f 33 35 34
f 34 35 36
f 34 36 30
f 35 27 37
f 35 37 36
f 36 37 38
f 36 38 30
f 37 27 39
f 37 39 38
f 38 39 40
f 38 40 30
f 39 27 41
f 39 41 40
f 40 41 42
f 40 42 30
f 41 27 43
f 41 43 42
f 42 43 44
f 42 44 30
f 43 27 45
f 43 45 44
f 44 45 46
f 44 46 30
f 45 27 47
f 45 47 46
f 46 47 48
f 46 48 30
f 47 27 49
f 47 49 48
f 48 49 50
f 48 50 30
f 49 27 51
f 49 51 50
f 50 51 52
f 50 52 30
f 51 27 28
f 51 28 52
f 52 28 29
f 52 29 30
f 54 53 57
f 54 57 55
f 55 57 58
f 55 58 56
f 57 53 59
f 57 59 58
f 58 59 60
f 58 60 56
f 59 53 61
f 59 61 60
f 60 61 62
f 60 62 56
f 61 53 63
f 61 63 62
f 62 63 64
f 62 64 56
f 63 53 65
f 63 65 64
f 64 65 66
f 64 66 56
f 65 53 67
f 65 67 66
f 66 67 68
f 66 68 56
f 67 53 69
f 67 69 68
f 68 69 70
f 68 70 56
f 69 53 71
f 69 71 70
f 70 71 72
f 70 72 56
f 71 53 73
f 71 73 72
f 72 73 74
f 72 74 56
f 73 53 75
f 73 75 74
f 74 75 76
f 74 76 56
f 75 53 77
f 75 77 76
f 76 77 78
f 76 78 56
f 77 53 54
f 77 54 78
f 78 54 55
f 78 55 56
f 80 79 83
f 80 83 81
f 81 83 84
f 81 84 82
f 83 79 85
f 83 85 84
f 84 85 86
f 84 86 82
f 85 79 87
f 85 87 86
f 86 87 88
f 86 88 82
f 87 79 89
f 87 89 88
f 88 89 90
f 88 90 82
f 89 79 91
f 89 91 90
f 90 91 92
f 90 92 82
f 91 79 93
f 91 93 92
f 92 93 94
f 92 94 82
f 93 79 95
f 93 95 94
f 94 95 96
f 94 96 82
f 95 79 80
f 95 80 96
f 96 80 81
f 96 81 82
f 98 97 101
f 98 101 99
f 99 101 102
f 99 102 100
f 101 97 103
f 101 103 102
f 102 103 104
f 102 104 100
f 103 97 105
f 103 105 104
f 104 105 106
f 104 106 100
f 105 97 107
f 105 107 106
f 106 107 108
f 106 108 100
f 107 97 109
f 107 109 108
f 108 109 110
f 108 110 100
f 109 97 111
f 109 111 110
f 110 111 112
f 110 112 100
f 111 97 113
f 111 113 112
f 112 113 114
f 112 114 100
f 113 97 98
f 113 98 114
f 114 98 99
f 114 99 100
f 116 115 119
f 116 119 117
f 117 119 120
f 117 120 118
f 119 115 121
f 119 121 120
f 120 121 122
f 120 122 118
f 121 115 123
f 121 123 122
f 122 123 124
f 122 124 118
f 123 115 125
f 123 125 124
f 124 125 126
f 124 126 118
f 125 115 127
f 125 127 126
f 126 127 128
f 126 128 118
f 127 115 129
f 127 129 128
f 128 129 130
f 128 130 118
f 129 115 131
f 129 131 130
f 130 131 132
f 130 132 118
f 131 115 116
f 131 116 132
f 132 116 117
f 132 117 118

