# https://github.com/mikedh/trimesh
v 0.00000000 0.22000000 -0.02666667
v 0.28000000 0.22000000 -0.02666667
v 0.28000000 0.22000000 0.02666667
v 0.00000000 0.22000000 0.02666667
v 0.25868627 0.32715136 -0.02666667
v 0.25868627 0.32715136 0.02666667
v 0.19798990 0.41798990 -0.02666667
v 0.19798990 0.41798990 0.02666667
v 0.10715136 0.47868627 -0.02666667
v 0.10715136 0.47868627 0.02666667
v 0.00000000 0.50000000 -0.02666667
v 0.00000000 0.50000000 0.02666667
v -0.10715136 0.47868627 -0.02666667
v -0.10715136 0.47868627 0.02666667
v -0.19798990 0.41798990 -0.02666667
v -0.19798990 0.41798990 0.02666667
v -0.25868627 0.32715136 -0.02666667
v -0.25868627 0.32715136 0.02666667
v -0.28000000 0.22000000 -0.02666667
v -0.28000000 0.22000000 0.02666667
v -0.25868627 0.11284864 -0.02666667
v -0.25868627 0.11284864 0.02666667
v -0.19798990 0.02201010 -0.02666667
v -0.19798990 0.02201010 0.02666667
v -0.10715136 -0.03868627 -0.02666667
v -0.10715136 -0.03868627 0.02666667
v -0.00000000 -0.06000000 -0.02666667
v -0.00000000 -0.06000000 0.02666667
v 0.10715136 -0.03868627 -0.02666667
v 0.10715136 -0.03868627 0.02666667
v 0.19798990 0.02201010 -0.02666667
v 0.19798990 0.02201010 0.02666667
v 0.25868627 0.11284864 -0.02666667
v 0.25868627 0.11284864 0.02666667
v 0.00000000 0.05333333 -0.00000000
v 0.04666667 0.05333333 -0.00000000
v 0.04666667 -0.41333333 0.00000000
v 0.00000000 -0.41333333 0.00000000
v 0.03775413 0.05333333 0.02742998
v 0.03775413 -0.41333333 0.02742998
v 0.01442079 0.05333333 0.04438264
v 0.01442079 -0.41333333 0.04438264
v -0.01442079 0.05333333 0.04438264
v -0.01442079 -0.41333333 0.04438264
v -0.03775413 0.05333333 0.02742998
v -0.03775413 -0.41333333 0.02742998
v -0.04666667 0.05333333 -0.00000000
v -0.04666667 -0.41333333 0.00000000
v -0.03775413 0.05333333 -0.02742998
v -0.03775413 -0.41333333 -0.02742998
v -0.01442079 0.05333333 -0.04438264
v -0.01442079 -0.41333333 -0.04438264
v 0.01442079 0.05333333 -0.04438264
v 0.01442079 -0.41333333 -0.04438264
v 0.03775413 0.05333333 -0.02742998
v 0.03775413 -0.41333333 -0.02742998
v -0.03504874 -0.37662328 0.00000000
v 0.03504874 -0.37662328 0.00000000
v -0.03504874 -0.49004339 0.00000000
v 0.03504874 -0.49004339 0.00000000
v 0.00000000 -0.46838207 0.05671005
v 0.00000000 -0.39828459 0.05671005
v 0.00000000 -0.46838207 -0.05671005
v 0.00000000 -0.39828459 -0.05671005
v 0.05671005 -0.43333333 -0.03504874
v 0.05671005 -0.43333333 0.03504874
v -0.05671005 -0.43333333 -0.03504874
v -0.05671005 -0.43333333 0.03504874
v 0.00000000 -0.36666667 0.00000000
v 0.00000000 -0.50000000 0.00000000
v -0.02060113 -0.48726780 0.03333333
v 0.02060113 -0.48726780 0.03333333
v -0.02060113 -0.37939887 0.03333333
v 0.02060113 -0.37939887 0.03333333
v 0.00000000 -0.43333333 0.06666667
v -0.02060113 -0.48726780 -0.03333333
v 0.02060113 -0.48726780 -0.03333333
v -0.02060113 -0.37939887 -0.03333333
v 0.02060113 -0.37939887 -0.03333333
v 0.00000000 -0.43333333 -0.06666667
v 0.05393447 -0.40000000 -0.02060113
v 0.05393447 -0.46666667 -0.02060113
v 0.03333333 -0.45393447 -0.05393447
v 0.03333333 -0.41273220 -0.05393447
v 0.05393447 -0.40000000 0.02060113
v 0.05393447 -0.46666667 0.02060113
v 0.03333333 -0.45393447 0.05393447
v 0.03333333 -0.41273220 0.05393447
v 0.06666667 -0.43333333 0.00000000
v -0.05393447 -0.40000000 -0.02060113
v -0.05393447 -0.46666667 -0.02060113
v -0.03333333 -0.45393447 -0.05393447
v -0.03333333 -0.41273220 -0.05393447
v -0.05393447 -0.40000000 0.02060113
v -0.05393447 -0.46666667 0.02060113
v -0.03333333 -0.45393447 0.05393447
v -0.03333333 -0.41273220 0.05393447
v -0.06666667 -0.43333333 0.00000000
f 2 1 5
f 2 5 3
f 3 5 6
f 3 6 4
f 5 1 7
f 5 7 6
f 6 7 8
f 6 8 4
f 7 1 9
f 7 9 8
f 8 9 10
f 8 10 4
f 9 1 11
f 9 11 10
f 10 11 12
f 10 12 4
f 11 1 13
f 11 13 12
f 12 13 14
f 12 14 4
f 13 1 15
f 13 15 14
f 14 15 16
f 14 16 4
f 15 1 17
f 15 17 16
f 16 17 18
f 16 18 4
f 17 1 19
f 17 19 18
f 18 19 20
f 18 20 4
f 19 1 21
f 19 21 20
f 20 21 22
f 20 22 4
f 21 1 23
f 21 23 22
f 22 23 24
f 22 24 4
f 23 1 25
f 23 25 24
f 24 25 26
f 24 26 4
f 25 1 27
f 25 27 26
f 26 27 28
f 26 28 4
f 27 1 29
f 27 29 28
f 28 29 30
f 28 30 4
f 29 1 31
f 29 31 30
f 30 31 32
f 30 32 4
f 31 1 33
f 31 33 32
f 32 33 34
f 32 34 4
f 33 1 2
f 33 2 34
f 34 2 3
f 34 3 4
f 36 35 39
f 36 39 37
f 37 39 40
f 37 40 38
f 39 35 41
f 39 41 40
f 40 41 42
f 40 42 38
f 41 35 43
f 41 43 42
f 42 43 44
f 42 44 38
f 43 35 45
f 43 45 44
f 44 45 46
f 44 46 38
f 45 35 47
f 45 47 46
f 46 47 48
f 46 48 38
f 47 35 49
f 47 49 48
f 48 49 50
f 48 50 38
f 49 35 51
f 49 51 50
f 50 51 52
f 50 52 38
f 51 35 53
f 51 53 52
f 52 53 54
f 52 54 38
f 53 35 55
f 53 55 54
f 54 55 56
f 54 56 38
f 55 35 36
f 55 36 56
f 56 36 37
f 56 37 38
f 57 94 73
f 94 68 97
f 73 97 62
f 94 97 73
f 57 73 69
f 73 62 74
f 69 74 58
f 73 74 69
f 57 69 78
f 69 58 79
f 78 79 64
f 69 79 78
f 57 78 90
f 78 64 93
f 90 93 67
f 78 93 90
f 57 90 94
f 90 67 98
f 94 98 68
f 90 98 94
f 58 74 85
f 74 62 88
f 85 88 66
f 74 88 85
f 62 97 75
f 97 68 96
f 75 96 61
f 97 96 75
f 68 98 95
f 98 67 91
f 95 91 59
f 98 91 95
f 67 93 92
f 93 64 80
f 92 80 63
f 93 80 92
f 64 79 84
f 79 58 81
f 84 81 65
f 79 81 84
f 60 86 72
f 86 66 87
f 72 87 61
f 86 87 72
f 60 72 70
f 72 61 71
f 70 71 59
f 72 71 70
f 60 70 77
f 70 59 76
f 77 76 63
f 70 76 77
f 60 77 82
f 77 63 83
f 82 83 65
f 77 83 82
f 60 82 86
f 82 65 89
f 86 89 66
f 82 89 86
f 61 87 75
f 87 66 88
f 75 88 62
f 87 88 75
f 59 71 95
f 71 61 96
f 95 96 68
f 71 96 95
f 63 76 92
f 76 59 91
f 92 91 67
f 76 91 92
f 65 83 84
f 83 63 80
f 84 80 64
f 83 80 84
f 66 89 85
f 89 65 81
f 85 81 58
f 89 81 85

