# https://github.com/mikedh/trimesh
v -0.27573297 0.05230866 -0.04109739
v -0.27573297 0.05230866 0.04109739
v -0.28762711 0.11976370 -0.04109739
v -0.28762711 0.11976370 0.04109739
v 0.50000000 0.18909131 -0.04109739
v 0.50000000 0.18909131 0.04109739
v 0.48810586 0.25654635 -0.04109739
v 0.48810586 0.25654635 0.04109739
v -0.31163698 0.01743622 -0.00000000
v -0.26369003 0.01743622 -0.00000000
v -0.26369003 -0.25654635 0.00000000
v -0.31163698 -0.25654635 0.00000000
v -0.27490749 0.01743622 0.03081971
v -0.27490749 -0.25654635 0.03081971
v -0.30331108 0.01743622 0.04721853
v -0.30331108 -0.25654635 0.04721853
v -0.33561046 0.01743622 0.04152328
v -0.33561046 -0.25654635 0.04152328
v -0.35669238 0.01743622 0.01639882
v -0.35669238 -0.25654635 0.01639882
v -0.35669238 0.01743622 -0.01639882
v -0.35669238 -0.25654635 -0.01639882
v -0.33561046 0.01743622 -0.04152328
v -0.33561046 -0.25654635 -0.04152328
v -0.30331108 0.01743622 -0.04721853
v -0.30331108 -0.25654635 -0.04721853
v -0.27490749 0.01743622 -0.03081971
v -0.27490749 -0.25654635 -0.03081971
v -0.50000000 0.01058666 -0.00000000
v -0.50000000 0.01058666 -0.02397348
v -0.12327396 0.01058666 -0.02397348
v -0.12327396 0.01058666 0.00000000
v -0.50000000 0.02599651 -0.01836475
v -0.12327396 0.02599651 -0.01836475
v -0.50000000 0.03419592 -0.00416295
v -0.12327396 0.03419592 -0.00416295
v -0.50000000 0.03134829 0.01198674
v -0.12327396 0.03134829 0.01198674
v -0.50000000 0.01878607 0.02252770
v -0.12327396 0.01878607 0.02252770
v -0.50000000 0.00238724 0.02252770
v -0.12327396 0.00238724 0.02252770
v -0.50000000 -0.01017498 0.01198674
v -0.12327396 -0.01017498 0.01198674
v -0.50000000 -0.01302261 -0.00416295
v -0.12327396 -0.01302261 -0.00416295
v -0.50000000 -0.00482320 -0.01836475
v -0.12327396 -0.00482320 -0.01836475
v -0.11642440 -0.02366117 0.00000000
v -0.12344607 -0.02366117 0.01695181
v -0.14039787 -0.02366117 0.02397348
v -0.15734968 -0.02366117 0.01695181
v -0.16437135 -0.02366117 0.00000000
v -0.15734968 -0.02366117 -0.01695181
v -0.14039787 -0.02366117 -0.02397348
v -0.12344607 -0.02366117 -0.01695181
v -0.13076268 0.04842224 0.00000000
v -0.13724985 0.04573516 0.01695181
v -0.15291128 0.03924799 0.02397348
v -0.16857271 0.03276081 0.01695181
v -0.17505988 0.03007374 0.00000000
v -0.16857271 0.03276081 -0.01695181
v -0.15291128 0.03924799 -0.02397348
v -0.13724985 0.04573516 -0.01695181
v -0.17159465 0.10953160 0.00000000
v -0.17655972 0.10456653 0.01695181
v -0.18854645 0.09257980 0.02397348
v -0.20053319 0.08059306 0.01695181
v -0.20549826 0.07562799 0.00000000
v -0.20053319 0.08059306 -0.01695181
v -0.18854645 0.09257980 -0.02397348
v -0.17655972 0.10456653 -0.01695181
v -0.23270401 0.15036357 0.00000000
v -0.23539109 0.14387640 0.01695181
v -0.24187826 0.12821497 0.02397348
v -0.24836544 0.11255354 0.01695181
v -0.25105251 0.10606637 0.00000000
v -0.24836544 0.11255354 -0.01695181
v -0.24187826 0.12821497 -0.02397348
v -0.23539109 0.14387640 -0.01695181
v -0.30478742 0.16470185 0.00000000
v -0.30478742 0.15768019 0.01695181
v -0.30478742 0.14072838 0.02397348
v -0.30478742 0.12377657 0.01695181
v -0.30478742 0.11675490 0.00000000
v -0.30478742 0.12377657 -0.01695181
v -0.30478742 0.14072838 -0.02397348
v -0.30478742 0.15768019 -0.01695181
v -0.37687082 0.15036357 0.00000000
v -0.37418375 0.14387640 0.01695181
v -0.36769657 0.12821497 0.02397348
v -0.36120940 0.11255354 0.01695181
v -0.35852232 0.10606637 0.00000000
v -0.36120940 0.11255354 -0.01695181
v -0.36769657 0.12821497 -0.02397348
v -0.37418375 0.14387640 -0.01695181
v -0.43798018 0.10953160 0.00000000
v -0.43301512 0.10456653 0.01695181
v -0.42102838 0.09257980 0.02397348
v -0.40904164 0.08059306 0.01695181
v -0.40407657 0.07562799 0.00000000
v -0.40904164 0.08059306 -0.01695181
v -0.42102838 0.09257980 -0.02397348
v -0.43301512 0.10456653 -0.01695181
v -0.47881215 0.04842224 0.00000000
v -0.47232498 0.04573516 0.01695181
v -0.45666355 0.03924799 0.02397348
v -0.44100212 0.03276081 0.01695181
v -0.43451495 0.03007374 0.00000000
v -0.44100212 0.03276081 -0.01695181
v -0.45666355 0.03924799 -0.02397348
v -0.47232498 0.04573516 -0.01695181
v -0.49315044 -0.02366117 0.00000000
v -0.48612877 -0.02366117 0.01695181
v -0.46917696 -0.02366117 0.02397348
v -0.45222515 -0.02366117 0.01695181
v -0.44520349 -0.02366117 0.00000000
v -0.45222515 -0.02366117 -0.01695181
v -0.46917696 -0.02366117 -0.02397348
v -0.48612877 -0.02366117 -0.01695181
v -0.47881215 -0.09574457 0.00000000
v -0.47232498 -0.09305750 0.01695181
v -0.45666355 -0.08657032 0.02397348
v -0.44100212 -0.08008315 0.01695181
v -0.43451495 -0.07739607 0.00000000
v -0.44100212 -0.08008315 -0.01695181
v -0.45666355 -0.08657032 -0.02397348
v -0.47232498 -0.09305750 -0.01695181
v -0.43798018 -0.15685393 0.00000000
v -0.43301512 -0.15188886 0.01695181
v -0.42102838 -0.13990213 0.02397348
v -0.40904164 -0.12791539 0.01695181
v -0.40407657 -0.12295032 0.00000000
v -0.40904164 -0.12791539 -0.01695181
v -0.42102838 -0.13990213 -0.02397348
v -0.43301512 -0.15188886 -0.01695181
v -0.37687082 -0.19768590 0.00000000
v -0.37418375 -0.19119873 0.01695181
v -0.36769657 -0.17553730 0.02397348
v -0.36120940 -0.15987587 0.01695181
v -0.35852232 -0.15338870 0.00000000
v -0.36120940 -0.15987587 -0.01695181
v -0.36769657 -0.17553730 -0.02397348
v -0.37418375 -0.19119873 -0.01695181
v -0.30478742 -0.21202419 0.00000000
v -0.30478742 -0.20500252 0.01695181
v -0.30478742 -0.18805071 0.02397348
v -0.30478742 -0.17109890 0.01695181
v -0.30478742 -0.16407723 0.00000000
v -0.30478742 -0.17109890 -0.01695181
v -0.30478742 -0.18805071 -0.02397348
v -0.30478742 -0.20500252 -0.01695181
v -0.23270401 -0.19768590 0.00000000
v -0.23539109 -0.19119873 0.01695181
v -0.24187826 -0.17553730 0.02397348
v -0.24836544 -0.15987587 0.01695181
v -0.25105251 -0.15338870 0.00000000
v -0.24836544 -0.15987587 -0.01695181
v -0.24187826 -0.17553730 -0.02397348
v -0.23539109 -0.19119873 -0.01695181
v -0.17159465 -0.15685393 0.00000000
v -0.17655972 -0.15188886 0.01695181
v -0.18854645 -0.13990213 0.02397348
v -0.20053319 -0.12791539 0.01695181
v -0.20549826 -0.12295032 0.00000000
v -0.20053319 -0.12791539 -0.01695181
v -0.18854645 -0.13990213 -0.02397348
v -0.17655972 -0.15188886 -0.01695181
v -0.13076268 -0.09574457 0.00000000
v -0.13724985 -0.09305750 0.01695181
v -0.15291128 -0.08657032 0.02397348
v -0.16857271 -0.08008315 0.01695181
v -0.17505988 -0.07739607 0.00000000
v -0.16857271 -0.08008315 -0.01695181
v -0.15291128 -0.08657032 -0.02397348
v -0.13724985 -0.09305750 -0.01695181
f 2 4 1
f 5 2 1
f 1 4 3
f 3 5 1
f 2 8 4
f 6 2 5
f 6 8 2
f 4 8 3
f 7 5 3
f 3 8 7
f 7 6 5
f 8 6 7
f 10 9 13
f 10 13 11
f 11 13 14
f 11 14 12
f 13 9 15
f 13 15 14
f 14 15 16
f 14 16 12
f 15 9 17
f 15 17 16
f 16 17 18
f 16 18 12
f 17 9 19
f 17 19 18
f 18 19 20
f 18 20 12
f 19 9 21
f 19 21 20
f 20 21 22
f 20 22 12
f 21 9 23
f 21 23 22
f 22 23 24
f 22 24 12
f 23 9 25
f 23 25 24
f 24 25 26
f 24 26 12
f 25 9 27
f 25 27 26
f 26 27 28
f 26 28 12
f 27 9 10
f 27 10 28
f 28 10 11
f 28 11 12
f 30 29 33
f 30 33 31
f 31 33 34
f 31 34 32
f 33 29 35
f 33 35 34
f 34 35 36
f 34 36 32
f 35 29 37
f 35 37 36
f 36 37 38
f 36 38 32
f 37 29 39
f 37 39 38
f 38 39 40
f 38 40 32
f 39 29 41
f 39 41 40
f 40 41 42
f 40 42 32
f 41 29 43
f 41 43 42
f 42 43 44
f 42 44 32
f 43 29 45
f 43 45 44
f 44 45 46
f 44 46 32
f 45 29 47
f 45 47 46
f 46 47 48
f 46 48 32
f 47 29 30
f 47 30 48
f 48 30 31
f 48 31 32
f 49 57 50
f 50 57 58
f 50 58 51
f 51 58 59
f 51 59 52
f 52 59 60
f 52 60 53
f 53 60 61
f 53 61 54
f 54 61 62
f 54 62 55
f 55 62 63
f 55 63 56
f 56 63 64
f 56 64 49
f 49 64 57
f 57 65 58
f 58 65 66
f 58 66 59
f 59 66 67
f 59 67 60
f 60 67 68
f 60 68 61
f 61 68 69
f 61 69 62
f 62 69 70
f 62 70 63
f 63 70 71
f 63 71 64
f 64 71 72
f 64 72 57
f 57 72 65
f 65 73 66
f 66 73 74
f 66 74 67
f 67 74 75
f 67 75 68
f 68 75 76
f 68 76 69
f 69 76 77
f 69 77 70
f 70 77 78
f 70 78 71
f 71 78 79
f 71 79 72
f 72 79 80
f 72 80 65
f 65 80 73
f 73 81 74
f 74 81 82
f 74 82 75
f 75 82 83
f 75 83 76
f 76 83 84
f 76 84 77
f 77 84 85
f 77 85 78
f 78 85 86
f 78 86 79
f 79 86 87
f 79 87 80
f 80 87 88
f 80 88 73
f 73 88 81
f 81 89 82
f 82 89 90
f 82 90 83
f 83 90 91
f 83 91 84
f 84 91 92
f 84 92 85
f 85 92 93
f 85 93 86
f 86 93 94
f 86 94 87
f 87 94 95
f 87 95 88
f 88 95 96
f 88 96 81
f 81 96 89
f 89 97 90
f 90 97 98
f 90 98 91
f 91 98 99
f 91 99 92
f 92 99 100
f 92 100 93
f 93 100 101
f 93 101 94
f 94 101 102
f 94 102 95
f 95 102 103
f 95 103 96
f 96 103 104
f 96 104 89
f 89 104 97
f 97 105 98
f 98 105 106
f 98 106 99
f 99 106 107
f 99 107 100
f 100 107 108
f 100 108 101
f 101 108 109
f 101 109 102
f 102 109 110
f 102 110 103
f 103 110 111
f 103 111 104
f 104 111 112
f 104 112 97
f 97 112 105
f 105 113 106
f 106 113 114
f 106 114 107
f 107 114 115
f 107 115 108
f 108 115 116
f 108 116 109
f 109 116 117
f 109 117 110
f 110 117 118
f 110 118 111
f 111 118 119
f 111 119 112
f 112 119 120
f 112 120 105
f 105 120 113
f 113 121 114
f 114 121 122
f 114 122 115
f 115 122 123
f 115 123 116
f 116 123 124
f 116 124 117
f 117 124 125
f 117 125 118
f 118 125 126
f 118 126 119
f 119 126 127
f 119 127 120
f 120 127 128
f 120 128 113
f 113 128 121
f 121 129 122
f 122 129 130
f 122 130 123
f 123 130 131
f 123 131 124
f 124 131 132
f 124 132 125
f 125 132 133
f 125 133 126
f 126 133 134
f 126 134 127
f 127 134 135
f 127 135 128
f 128 135 136
f 128 136 121
f 121 136 129
f 129 137 130
f 130 137 138
f 130 138 131
f 131 138 139
f 131 139 132
f 132 139 140
f 132 140 133
f 133 140 141
f 133 141 134
f 134 141 142
f 134 142 135
f 135 142 143
f 135 143 136
f 136 143 144
f 136 144 129
f 129 144 137
f 137 145 138
f 138 145 146
f 138 146 139
f 139 146 147
f 139 147 140
f 140 147 148
f 140 148 141
f 141 148 149
f 141 149 142
f 142 149 150
f 142 150 143
f 143 150 151
f 143 151 144
f 144 151 152
f 144 152 137
f 137 152 145
f 145 153 146
f 146 153 154
f 146 154 147
f 147 154 155
f 147 155 148
f 148 155 156
f 148 156 149
f 149 156 157
f 149 157 150
f 150 157 158
f 150 158 151
f 151 158 159
f 151 159 152
f 152 159 160
f 152 160 145
f 145 160 153
f 153 161 154
f 154 161 162
f 154 162 155
f 155 162 163
f 155 163 156
f 156 163 164
f 156 164 157
f 157 164 165
f 157 165 158
f 158 165 166
f 158 166 159
f 159 166 167
f 159 167 160
f 160 167 168
f 160 168 153
f 153 168 161
f 161 169 162
f 162 169 170
f 162 170 163
f 163 170 171
f 163 171 164
f 164 171 172
f 164 172 165
f 165 172 173
f 165 173 166
f 166 173 174
f 166 174 167
f 167 174 175
f 167 175 168
f 168 175 176
f 168 176 161
f 161 176 169
f 169 49 170
f 170 49 50
f 170 50 171
f 171 50 51
f 171 51 172
f 172 51 52
f 172 52 173
f 173 52 53
f 173 53 174
f 174 53 54
f 174 54 175
f 175 54 55
f 175 55 176
f 176 55 56
f 176 56 169
f 169 56 49

