# https://github.com/mikedh/trimesh
v -0.00246892 0.30332410 -0.00000000
v 0.02246183 0.30332410 -0.00000000
v 0.02246183 -0.50000000 0.00000000
v -0.00246892 -0.50000000 0.00000000
v 0.01515978 0.30332410 0.01762870
v 0.01515978 -0.50000000 0.01762870
v -0.00246892 0.30332410 0.02493075
v -0.00246892 -0.50000000 0.02493075
v -0.02009762 0.30332410 0.01762870
v -0.02009762 -0.50000000 0.01762870
v -0.02739967 0.30332410 -0.00000000
v -0.02739967 -0.50000000 0.00000000
v -0.02009762 0.30332410 -0.01762870
v -0.02009762 -0.50000000 -0.01762870
v -0.00246892 0.30332410 -0.02493075
v -0.00246892 -0.50000000 -0.02493075
v 0.01515978 0.30332410 -0.01762870
v 0.01515978 -0.50000000 -0.01762870
v -0.12989274 0.45013850 -0.00000000
v -0.10773208 0.45013850 -0.00000000
v -0.10773208 0.20637119 0.00000000
v -0.12989274 0.20637119 0.00000000
v -0.11422279 0.45013850 0.01566996
v -0.11422279 0.20637119 0.01566996
v -0.12989274 0.45013850 0.02216066
v -0.12989274 0.20637119 0.02216066
v -0.14556270 0.45013850 0.01566996
v -0.14556270 0.20637119 0.01566996
v -0.15205341 0.45013850 -0.00000000
v -0.15205341 0.20637119 0.00000000
v -0.14556270 0.45013850 -0.01566996
v -0.14556270 0.20637119 -0.01566996
v -0.12989274 0.45013850 -0.02216066
v -0.12989274 0.20637119 -0.02216066
v -0.11422279 0.45013850 -0.01566996
v -0.11422279 0.20637119 -0.01566996
v -0.12989274 0.45567867 0.00000000
v -0.08003125 0.45567867 0.00000000
v -0.12989274 0.30055402 0.00000000
v -0.09880461 0.45567867 0.03898329
v -0.14098797 0.45567867 0.04861136
v -0.17481640 0.45567867 0.02163409
v -0.17481640 0.45567867 -0.02163409
v -0.14098797 0.45567867 -0.04861136
v -0.09880461 0.45567867 -0.03898329
v -0.00246892 0.48891967 -0.00000000
v 0.01969174 0.48891967 -0.00000000
v 0.01969174 0.16759003 0.00000000
v -0.00246892 0.16759003 0.00000000
v 0.01320104 0.48891967 0.01566996
v 0.01320104 0.16759003 0.01566996
v -0.00246892 0.48891967 0.02216066
v -0.00246892 0.16759003 0.02216066
v -0.01813888 0.48891967 0.01566996
v -0.01813888 0.16759003 0.01566996
v -0.02462959 0.48891967 -0.00000000
v -0.02462959 0.16759003 0.00000000
v -0.01813888 0.48891967 -0.01566996
v -0.01813888 0.16759003 -0.01566996
v -0.00246892 0.48891967 -0.02216066
v -0.00246892 0.16759003 -0.02216066
v 0.01320104 0.48891967 -0.01566996
v 0.01320104 0.16759003 -0.01566996
v -0.00246892 0.50000000 0.00000000
v 0.04739258 0.50000000 0.00000000
v -0.00246892 0.34487535 0.00000000
v 0.02861921 0.50000000 0.03898329
v -0.01356415 0.50000000 0.04861136
v -0.04739258 0.50000000 0.02163409
v -0.04739258 0.50000000 -0.02163409
v -0.01356415 0.50000000 -0.04861136
v 0.02861921 0.50000000 -0.03898329
v 0.12495490 0.45013850 -0.00000000
v 0.14711557 0.45013850 -0.00000000
v 0.14711557 0.20637119 0.00000000
v 0.12495490 0.20637119 0.00000000
v 0.14062486 0.45013850 0.01566996
v 0.14062486 0.20637119 0.01566996
v 0.12495490 0.45013850 0.02216066
v 0.12495490 0.20637119 0.02216066
v 0.10928495 0.45013850 0.01566996
v 0.10928495 0.20637119 0.01566996
v 0.10279424 0.45013850 -0.00000000
v 0.10279424 0.20637119 0.00000000
v 0.10928495 0.45013850 -0.01566996
v 0.10928495 0.20637119 -0.01566996
v 0.12495490 0.45013850 -0.02216066
v 0.12495490 0.20637119 -0.02216066
v 0.14062486 0.45013850 -0.01566996
v 0.14062486 0.20637119 -0.01566996
v 0.12495490 0.45567867 0.00000000
v 0.17481640 0.45567867 0.00000000
v 0.12495490 0.30055402 0.00000000
v 0.15604304 0.45567867 0.03898329
v 0.11385968 0.45567867 0.04861136
v 0.08003125 0.45567867 0.02163409
v 0.08003125 0.45567867 -0.02163409
v 0.11385968 0.45567867 -0.04861136
v 0.15604304 0.45567867 -0.03898329
v -0.00246892 0.20637119 0.00000000
v -0.00246892 0.20637119 0.01939058
v -0.12989274 0.30609418 0.01939058
v -0.12989274 0.30609418 0.00000000
v 0.00598141 0.21716884 0.01371121
v -0.12144241 0.31689183 0.01371121
v 0.00948166 0.22164137 0.00000000
v -0.11794217 0.32136436 0.00000000
v 0.00598141 0.21716884 -0.01371121
v -0.12144241 0.31689183 -0.01371121
v -0.00246892 0.20637119 -0.01939058
v -0.12989274 0.30609418 -0.01939058
v -0.01091925 0.19557354 -0.01371121
v -0.13834308 0.29529653 -0.01371121
v -0.01441950 0.19110101 -0.00000000
v -0.14184332 0.29082400 -0.00000000
v -0.01091925 0.19557354 0.01371121
v -0.13834308 0.29529653 0.01371121
v -0.00246892 0.20637119 0.00000000
v -0.00246892 0.20637119 -0.01939058
v 0.12495490 0.30609418 -0.01939058
v 0.12495490 0.30609418 0.00000000
v -0.01091925 0.21716884 -0.01371121
v 0.11650457 0.31689183 -0.01371121
v -0.01441950 0.22164137 -0.00000000
v 0.11300433 0.32136436 -0.00000000
v -0.01091925 0.21716884 0.01371121
v 0.11650457 0.31689183 0.01371121
v -0.00246892 0.20637119 0.01939058
v 0.12495490 0.30609418 0.01939058
v 0.00598141 0.19557354 0.01371121
v 0.13340524 0.29529653 0.01371121
v 0.00948166 0.19110101 0.00000000
v 0.13690548 0.29082400 0.00000000
v 0.00598141 0.19557354 -0.01371121
v 0.13340524 0.29529653 -0.01371121
f 2 1 5
f 2 5 3
f 3 5 6
f 3 6 4
f 5 1 7
f 5 7 6
f 6 7 8
f 6 8 4
f 7 1 9
f 7 9 8
f 8 9 10
f 8 10 4
f 9 1 11
f 9 11 10
f 10 11 12
f 10 12 4
f 11 1 13
f 11 13 12
f 12 13 14
f 12 14 4
f 13 1 15
f 13 15 14
f 14 15 16
f 14 16 4
f 15 1 17
f 15 17 16
f 16 17 18
f 16 18 4
f 17 1 2
f 17 2 18
f 18 2 3
f 18 3 4
f 20 19 23
f 20 23 21
f 21 23 24
f 21 24 22
f 23 19 25
f 23 25 24
f 24 25 26
f 24 26 22
f 25 19 27
f 25 27 26
f 26 27 28
f 26 28 22
f 27 19 29
f 27 29 28
f 28 29 30
f 28 30 22
f 29 19 31
f 29 31 30
f 30 31 32
f 30 32 22
f 31 19 33
f 31 33 32
f 32 33 34
f 32 34 22
f 33 19 35
f 33 35 34
f 34 35 36
f 34 36 22
f 35 19 20
f 35 20 36
f 36 20 21
f 36 21 22
f 38 37 40
f 38 40 39
f 40 37 41
f 40 41 39
f 41 37 42
f 41 42 39
f 42 37 43
f 42 43 39
f 43 37 44
f 43 44 39
f 44 37 45
f 44 45 39
f 45 37 38
f 45 38 39
f 47 46 50
f 47 50 48
f 48 50 51
f 48 51 49
f 50 46 52
f 50 52 51
f 51 52 53
f 51 53 49
f 52 46 54
f 52 54 53
f 53 54 55
f 53 55 49
f 54 46 56
f 54 56 55
f 55 56 57
f 55 57 49
f 56 46 58
f 56 58 57
f 57 58 59
f 57 59 49
f 58 46 60
f 58 60 59
f 59 60 61
f 59 61 49
f 60 46 62
f 60 62 61
f 61 62 63
f 61 63 49
f 62 46 47
f 62 47 63
f 63 47 48
f 63 48 49
f 65 64 67
f 65 67 66
f 67 64 68
f 67 68 66
f 68 64 69
f 68 69 66
f 69 64 70
f 69 70 66
f 70 64 71
f 70 71 66
f 71 64 72
f 71 72 66
f 72 64 65
f 72 65 66
f 74 73 77
f 74 77 75
f 75 77 78
f 75 78 76
f 77 73 79
f 77 79 78
f 78 79 80
f 78 80 76
f 79 73 81
f 79 81 80
f 80 81 82
f 80 82 76
f 81 73 83
f 81 83 82
f 82 83 84
f 82 84 76
f 83 73 85
f 83 85 84
f 84 85 86
f 84 86 76
f 85 73 87
f 85 87 86
f 86 87 88
f 86 88 76
f 87 73 89
f 87 89 88
f 88 89 90
f 88 90 76
f 89 73 74
f 89 74 90
f 90 74 75
f 90 75 76
f 92 91 94
f 92 94 93
f 94 91 95
f 94 95 93
f 95 91 96
f 95 96 93
f 96 91 97
f 96 97 93
f 97 91 98
f 97 98 93
f 98 91 99
f 98 99 93
f 99 91 92
f 99 92 93
f 101 100 104
f 101 104 102
f 102 104 105
f 102 105 103
f 104 100 106
f 104 106 105
f 105 106 107
f 105 107 103
f 106 100 108
f 106 108 107
f 107 108 109
f 107 109 103
f 108 100 110
f 108 110 109
f 109 110 111
f 109 111 103
f 110 100 112
f 110 112 111
f 111 112 113
f 111 113 103
f 112 100 114
f 112 114 113
f 113 114 115
f 113 115 103
f 114 100 116
f 114 116 115
f 115 116 117
f 115 117 103
f 116 100 101
f 116 101 117
f 117 101 102
f 117 102 103
f 119 118 122
f 119 122 120
f 120 122 123
f 120 123 121
f 122 118 124
f 122 124 123
f 123 124 125
f 123 125 121
f 124 118 126
f 124 126 125
f 125 126 127
f 125 127 121
f 126 118 128
f 126 128 127
f 127 128 129
f 127 129 121
f 128 118 130
f 128 130 129
f 129 130 131
f 129 131 121
f 130 118 132
f 130 132 131
f 131 132 133
f 131 133 121
f 132 118 134
f 132 134 133
f 133 134 135
f 133 135 121
f 134 118 119
f 134 119 135
f 135 119 120
f 135 120 121

