# https://github.com/mikedh/trimesh
v 0.00000000 0.32799147 -0.00000000
v 0.03503877 0.32799147 -0.00000000
v 0.03503877 -0.46834431 0.00000000
v 0.00000000 -0.46834431 0.00000000
v 0.02834696 0.32799147 0.02059527
v 0.02834696 -0.46834431 0.02059527
v 0.01082758 0.32799147 0.03332385
v 0.01082758 -0.46834431 0.03332385
v -0.01082758 0.32799147 0.03332385
v -0.01082758 -0.46834431 0.03332385
v -0.02834696 0.32799147 0.02059527
v -0.02834696 -0.46834431 0.02059527
v -0.03503877 0.32799147 -0.00000000
v -0.03503877 -0.46834431 0.00000000
v -0.02834696 0.32799147 -0.02059527
v -0.02834696 -0.46834431 -0.02059527
v -0.01082758 0.32799147 -0.03332385
v -0.01082758 -0.46834431 -0.03332385
v 0.01082758 0.32799147 -0.03332385
v 0.01082758 -0.46834431 -0.03332385
v 0.02834696 0.32799147 -0.02059527
v 0.02834696 -0.46834431 -0.02059527
v -0.24845676 0.19739240 -0.00000000
v -0.24845676 0.19739240 -0.02866809
v 0.24845676 0.19739240 -0.02866809
v 0.24845676 0.19739240 0.00000000
v -0.24845676 0.21424308 -0.02319297
v 0.24845676 0.21424308 -0.02319297
v -0.24845676 0.22465737 -0.00885893
v 0.24845676 0.22465737 -0.00885893
v -0.24845676 0.22465737 0.00885893
v 0.24845676 0.22465737 0.00885893
v -0.24845676 0.21424308 0.02319297
v 0.24845676 0.21424308 0.02319297
v -0.24845676 0.19739240 0.02866809
v 0.24845676 0.19739240 0.02866809
v -0.24845676 0.18054172 0.02319297
v 0.24845676 0.18054172 0.02319297
v -0.24845676 0.17012743 0.00885893
v 0.24845676 0.17012743 0.00885893
v -0.24845676 0.17012743 -0.00885893
v 0.24845676 0.17012743 -0.00885893
v -0.24845676 0.18054172 -0.02319297
v 0.24845676 0.18054172 -0.02319297
v 0.13059907 0.36940093 0.00000000
v 0.12220238 0.36940093 0.02027140
v 0.10193098 0.36940093 0.02866809
v 0.08165958 0.36940093 0.02027140
v 0.07326289 0.36940093 0.00000000
v 0.08165958 0.36940093 -0.02027140
v 0.10193098 0.36940093 -0.02866809
v 0.12220238 0.36940093 -0.02027140
v 0.12065781 0.41937903 0.00000000
v 0.11290028 0.41616576 0.02027140
v 0.09417195 0.40840823 0.02866809
v 0.07544362 0.40065070 0.02027140
v 0.06768609 0.39743743 0.00000000
v 0.07544362 0.40065070 -0.02027140
v 0.09417195 0.40840823 -0.02866809
v 0.11290028 0.41616576 -0.02027140
v 0.09234749 0.46174842 0.00000000
v 0.08641013 0.45581106 0.02027140
v 0.07207609 0.44147702 0.02866809
v 0.05774204 0.42714297 0.02027140
v 0.05180469 0.42120562 0.00000000
v 0.05774204 0.42714297 -0.02027140
v 0.07207609 0.44147702 -0.02866809
v 0.08641013 0.45581106 -0.02027140
v 0.04997810 0.49005874 0.00000000
v 0.04676483 0.48230121 0.02027140
v 0.03900730 0.46357288 0.02866809
v 0.03124977 0.44484455 0.02027140
v 0.02803649 0.43708702 0.00000000
v 0.03124977 0.44484455 -0.02027140
v 0.03900730 0.46357288 -0.02866809
v 0.04676483 0.48230121 -0.02027140
v 0.00000000 0.50000000 0.00000000
v 0.00000000 0.49160331 0.02027140
v 0.00000000 0.47133191 0.02866809
v 0.00000000 0.45106051 0.02027140
v 0.00000000 0.44266382 0.00000000
v 0.00000000 0.45106051 -0.02027140
v 0.00000000 0.47133191 -0.02866809
v 0.00000000 0.49160331 -0.02027140
v -0.04997810 0.49005874 0.00000000
v -0.04676483 0.48230121 0.02027140
v -0.03900730 0.46357288 0.02866809
v -0.03124977 0.44484455 0.02027140
v -0.02803649 0.43708702 0.00000000
v -0.03124977 0.44484455 -0.02027140
v -0.03900730 0.46357288 -0.02866809
v -0.04676483 0.48230121 -0.02027140
v -0.09234749 0.46174842 0.00000000
v -0.08641013 0.45581106 0.02027140
v -0.07207609 0.44147702 0.02866809
v -0.05774204 0.42714297 0.02027140
v -0.05180469 0.42120562 0.00000000
v -0.05774204 0.42714297 -0.02027140
v -0.07207609 0.44147702 -0.02866809
v -0.08641013 0.45581106 -0.02027140
v -0.12065781 0.41937903 0.00000000
v -0.11290028 0.41616576 0.02027140
v -0.09417195 0.40840823 0.02866809
v -0.07544362 0.40065070 0.02027140
v -0.06768609 0.39743743 0.00000000
v -0.07544362 0.40065070 -0.02027140
v -0.09417195 0.40840823 -0.02866809
v -0.11290028 0.41616576 -0.02027140
v -0.13059907 0.36940093 0.00000000
v -0.12220238 0.36940093 0.02027140
v -0.10193098 0.36940093 0.02866809
v -0.08165958 0.36940093 0.02027140
v -0.07326289 0.36940093 0.00000000
v -0.08165958 0.36940093 -0.02027140
v -0.10193098 0.36940093 -0.02866809
v -0.12220238 0.36940093 -0.02027140
v -0.12065781 0.31942283 0.00000000
v -0.11290028 0.32263611 0.02027140
v -0.09417195 0.33039363 0.02866809
v -0.07544362 0.33815116 0.02027140
v -0.06768609 0.34136444 0.00000000
v -0.07544362 0.33815116 -0.02027140
v -0.09417195 0.33039363 -0.02866809
v -0.11290028 0.32263611 -0.02027140
v -0.09234749 0.27705344 0.00000000
v -0.08641013 0.28299080 0.02027140
v -0.07207609 0.29732484 0.02866809
v -0.05774204 0.31165889 0.02027140
v -0.05180469 0.31759624 0.00000000
v -0.05774204 0.31165889 -0.02027140
v -0.07207609 0.29732484 -0.02866809
v -0.08641013 0.28299080 -0.02027140
v -0.04997810 0.24874313 0.00000000
v -0.04676483 0.25650065 0.02027140
v -0.03900730 0.27522899 0.02866809
v -0.03124977 0.29395732 0.02027140
v -0.02803649 0.30171485 0.00000000
v -0.03124977 0.29395732 -0.02027140
v -0.03900730 0.27522899 -0.02866809
v -0.04676483 0.25650065 -0.02027140
v -0.00000000 0.23880186 0.00000000
v -0.00000000 0.24719855 0.02027140
v -0.00000000 0.26746995 0.02866809
v -0.00000000 0.28774135 0.02027140
v -0.00000000 0.29613804 0.00000000
v -0.00000000 0.28774135 -0.02027140
v -0.00000000 0.26746995 -0.02866809
v -0.00000000 0.24719855 -0.02027140
v 0.04997810 0.24874313 0.00000000
v 0.04676483 0.25650065 0.02027140
v 0.03900730 0.27522899 0.02866809
v 0.03124977 0.29395732 0.02027140
v 0.02803649 0.30171485 0.00000000
v 0.03124977 0.29395732 -0.02027140
v 0.03900730 0.27522899 -0.02866809
v 0.04676483 0.25650065 -0.02027140
v 0.09234749 0.27705344 0.00000000
v 0.08641013 0.28299080 0.02027140
v 0.07207609 0.29732484 0.02866809
v 0.05774204 0.31165889 0.02027140
v 0.05180469 0.31759624 0.00000000
v 0.05774204 0.31165889 -0.02027140
v 0.07207609 0.29732484 -0.02866809
v 0.08641013 0.28299080 -0.02027140
v 0.12065781 0.31942283 0.00000000
v 0.11290028 0.32263611 0.02027140
v 0.09417195 0.33039363 0.02866809
v 0.07544362 0.33815116 0.02027140
v 0.06768609 0.34136444 0.00000000
v 0.07544362 0.33815116 -0.02027140
v 0.09417195 0.33039363 -0.02866809
v 0.11290028 0.32263611 -0.02027140
v -0.01274137 -0.47152966 0.00000000
v -0.01274137 -0.47152966 0.03503877
v -0.30579294 -0.26129701 0.03503877
v -0.30579294 -0.26129701 0.00000000
v 0.00170084 -0.45139808 0.02477616
v -0.29135072 -0.24116544 0.02477616
v 0.00768301 -0.44305931 0.00000000
v -0.28536856 -0.23282666 0.00000000
v 0.00170084 -0.45139808 -0.02477616
v -0.29135072 -0.24116544 -0.02477616
v -0.01274137 -0.47152966 -0.03503877
v -0.30579294 -0.26129701 -0.03503877
v -0.02718359 -0.49166123 -0.02477616
v -0.32023516 -0.28142858 -0.02477616
v -0.03316575 -0.50000000 -0.00000000
v -0.32621732 -0.28976735 -0.00000000
v -0.02718359 -0.49166123 0.02477616
v -0.32023516 -0.28142858 0.02477616
v 0.01274137 -0.47152966 0.00000000
v 0.01274137 -0.47152966 -0.03503877
v 0.30579294 -0.26129701 -0.03503877
v 0.30579294 -0.26129701 0.00000000
v -0.00170084 -0.45139808 -0.02477616
v 0.29135072 -0.24116544 -0.02477616
v -0.00768301 -0.44305931 -0.00000000
v 0.28536856 -0.23282666 -0.00000000
v -0.00170084 -0.45139808 0.02477616
v 0.29135072 -0.24116544 0.02477616
v 0.01274137 -0.47152966 0.03503877
v 0.30579294 -0.26129701 0.03503877
v 0.02718359 -0.49166123 0.02477616
v 0.32023516 -0.28142858 0.02477616
v 0.03316575 -0.50000000 0.00000000
v 0.32621732 -0.28976735 0.00000000
v 0.02718359 -0.49166123 -0.02477616
v 0.32023516 -0.28142858 -0.02477616
v -0.30579294 -0.22944358 0.00000000
v -0.24208608 -0.22944358 0.00000000
v -0.30579294 -0.38871073 0.00000000
v -0.26074539 -0.22944358 0.04504755
v -0.30579294 -0.22944358 0.06370686
v -0.35084050 -0.22944358 0.04504755
v -0.36949980 -0.22944358 0.00000000
v -0.35084050 -0.22944358 -0.04504755
v -0.30579294 -0.22944358 -0.06370686
v -0.26074539 -0.22944358 -0.04504755
v 0.30579294 -0.22944358 0.00000000
v 0.36949980 -0.22944358 0.00000000
v 0.30579294 -0.38871073 0.00000000
v 0.35084050 -0.22944358 0.04504755
v 0.30579294 -0.22944358 0.06370686
v 0.26074539 -0.22944358 0.04504755
v 0.24208608 -0.22944358 0.00000000
v 0.26074539 -0.22944358 -0.04504755
v 0.30579294 -0.22944358 -0.06370686
v 0.35084050 -0.22944358 -0.04504755
f 2 1 5
f 2 5 3
f 3 5 6
f 3 6 4
f 5 1 7
f 5 7 6
f 6 7 8
f 6 8 4
f 7 1 9
f 7 9 8
f 8 9 10
f 8 10 4
f 9 1 11
f 9 11 10
f 10 11 12
f 10 12 4
f 11 1 13
f 11 13 12
f 12 13 14
f 12 14 4
f 13 1 15
f 13 15 14
f 14 15 16
f 14 16 4
f 15 1 17
f 15 17 16
f 16 17 18
f 16 18 4
f 17 1 19
f 17 19 18
f 18 19 20
f 18 20 4
f 19 1 21
f 19 21 20
f 20 21 22
f 20 22 4
f 21 1 2
f 21 2 22
f 22 2 3
f 22 3 4
f 24 23 27
f 24 27 25
f 25 27 28
f 25 28 26
f 27 23 29
f 27 29 28
f 28 29 30
f 28 30 26
f 29 23 31
f 29 31 30
f 30 31 32
f 30 32 26
f 31 23 33
f 31 33 32
f 32 33 34
f 32 34 26
f 33 23 35
f 33 35 34
f 34 35 36
f 34 36 26
f 35 23 37
f 35 37 36
f 36 37 38
f 36 38 26
f 37 23 39
f 37 39 38
f 38 39 40
f 38 40 26
f 39 23 41
f 39 41 40
f 40 41 42
f 40 42 26
f 41 23 43
f 41 43 42
f 42 43 44
f 42 44 26
f 43 23 24
f 43 24 44
f 44 24 25
f 44 25 26
f 45 53 46
f 46 53 54
f 46 54 47
f 47 54 55
f 47 55 48
f 48 55 56
f 48 56 49
f 49 56 57
f 49 57 50
f 50 57 58
f 50 58 51
f 51 58 59
f 51 59 52
f 52 59 60
f 52 60 45
f 45 60 53
f 53 61 54
f 54 61 62
f 54 62 55
f 55 62 63
f 55 63 56
f 56 63 64
f 56 64 57
f 57 64 65
f 57 65 58
f 58 65 66
f 58 66 59
f 59 66 67
f 59 67 60
f 60 67 68
f 60 68 53
f 53 68 61
f 61 69 62
f 62 69 70
f 62 70 63
f 63 70 71
f 63 71 64
f 64 71 72
f 64 72 65
f 65 72 73
f 65 73 66
f 66 73 74
f 66 74 67
f 67 74 75
f 67 75 68
f 68 75 76
f 68 76 61
f 61 76 69
f 69 77 70
f 70 77 78
f 70 78 71
f 71 78 79
f 71 79 72
f 72 79 80
f 72 80 73
f 73 80 81
f 73 81 74
f 74 81 82
f 74 82 75
f 75 82 83
f 75 83 76
f 76 83 84
f 76 84 69
f 69 84 77
f 77 85 78
f 78 85 86
f 78 86 79
f 79 86 87
f 79 87 80
f 80 87 88
f 80 88 81
f 81 88 89
f 81 89 82
f 82 89 90
f 82 90 83
f 83 90 91
f 83 91 84
f 84 91 92
f 84 92 77
f 77 92 85
f 85 93 86
f 86 93 94
f 86 94 87
f 87 94 95
f 87 95 88
f 88 95 96
f 88 96 89
f 89 96 97
f 89 97 90
f 90 97 98
f 90 98 91
f 91 98 99
f 91 99 92
f 92 99 100
f 92 100 85
f 85 100 93
f 93 101 94
f 94 101 102
f 94 102 95
f 95 102 103
f 95 103 96
f 96 103 104
f 96 104 97
f 97 104 105
f 97 105 98
f 98 105 106
f 98 106 99
f 99 106 107
f 99 107 100
f 100 107 108
f 100 108 93
f 93 108 101
f 101 109 102
f 102 109 110
f 102 110 103
f 103 110 111
f 103 111 104
f 104 111 112
f 104 112 105
f 105 112 113
f 105 113 106
f 106 113 114
f 106 114 107
f 107 114 115
f 107 115 108
f 108 115 116
f 108 116 101
f 101 116 109
f 109 117 110
f 110 117 118
f 110 118 111
f 111 118 119
f 111 119 112
f 112 119 120
f 112 120 113
f 113 120 121
f 113 121 114
f 114 121 122
f 114 122 115
f 115 122 123
f 115 123 116
f 116 123 124
f 116 124 109
f 109 124 117
f 117 125 118
f 118 125 126
f 118 126 119
f 119 126 127
f 119 127 120
f 120 127 128
f 120 128 121
f 121 128 129
f 121 129 122
f 122 129 130
f 122 130 123
f 123 130 131
f 123 131 124
f 124 131 132
f 124 132 117
f 117 132 125
f 125 133 126
f 126 133 134
f 126 134 127
f 127 134 135
f 127 135 128
f 128 135 136
f 128 136 129
f 129 136 137
f 129 137 130
f 130 137 138
f 130 138 131
f 131 138 139
f 131 139 132
f 132 139 140
f 132 140 125
f 125 140 133
f 133 141 134
f 134 141 142
f 134 142 135
f 135 142 143
f 135 143 136
f 136 143 144
f 136 144 137
f 137 144 145
f 137 145 138
f 138 145 146
f 138 146 139
f 139 146 147
f 139 147 140
f 140 147 148
f 140 148 133
f 133 148 141
f 141 149 142
f 142 149 150
f 142 150 143
f 143 150 151
f 143 151 144
f 144 151 152
f 144 152 145
f 145 152 153
f 145 153 146
f 146 153 154
f 146 154 147
f 147 154 155
f 147 155 148
f 148 155 156
f 148 156 141
f 141 156 149
f 149 157 150
f 150 157 158
f 150 158 151
f 151 158 159
f 151 159 152
f 152 159 160
f 152 160 153
f 153 160 161
f 153 161 154
f 154 161 162
f 154 162 155
f 155 162 163
f 155 163 156
f 156 163 164
f 156 164 149
f 149 164 157
f 157 165 158
f 158 165 166
f 158 166 159
f 159 166 167
f 159 167 160
f 160 167 168
f 160 168 161
f 161 168 169
f 161 169 162
f 162 169 170
f 162 170 163
f 163 170 171
f 163 171 164
f 164 171 172
f 164 172 157
f 157 172 165
f 165 45 166
f 166 45 46
f 166 46 167
f 167 46 47
f 167 47 168
f 168 47 48
f 168 48 169
f 169 48 49
f 169 49 170
f 170 49 50
f 170 50 171
f 171 50 51
f 171 51 172
f 172 51 52
f 172 52 165
f 165 52 45
f 174 173 177
f 174 177 175
f 175 177 178
f 175 178 176
f 177 173 179
f 177 179 178
f 178 179 180
f 178 180 176
f 179 173 181
f 179 181 180
f 180 181 182
f 180 182 176
f 181 173 183
f 181 183 182
f 182 183 184
f 182 184 176
f 183 173 185
f 183 185 184
f 184 185 186
f 184 186 176
f 185 173 187
f 185 187 186
f 186 187 188
f 186 188 176
f 187 173 189
f 187 189 188
f 188 189 190
f 188 190 176
f 189 173 174
f 189 174 190
f 190 174 175
f 190 175 176
f 192 191 195
f 192 195 193
f 193 195 196
f 193 196 194
f 195 191 197
f 195 197 196
f 196 197 198
f 196 198 194
f 197 191 199
f 197 199 198
f 198 199 200
f 198 200 194
f 199 191 201
f 199 201 200
f 200 201 202
f 200 202 194
f 201 191 203
f 201 203 202
f 202 203 204
f 202 204 194
f 203 191 205
f 203 205 204
f 204 205 206
f 204 206 194
f 205 191 207
f 205 207 206
f 206 207 208
f 206 208 194
f 207 191 192
f 207 192 208
f 208 192 193
f 208 193 194
f 210 209 212
f 210 212 211
f 212 209 213
f 212 213 211
f 213 209 214
f 213 214 211
f 214 209 215
f 214 215 211
f 215 209 216
f 215 216 211
f 216 209 217
f 216 217 211
f 217 209 218
f 217 218 211
f 218 209 210
f 218 210 211
f 220 219 222
f 220 222 221
f 222 219 223
f 222 223 221
f 223 219 224
f 223 224 221
f 224 219 225
f 224 225 221
f 225 219 226
f 225 226 221
f 226 219 227
f 226 227 221
f 227 219 228
f 227 228 221
f 228 219 220
f 228 220 221

