# https://github.com/mikedh/trimesh
v 0.45338983 0.00000000 0.00000000
v 0.43973803 0.00000000 0.03295837
v 0.40677966 0.00000000 0.04661017
v 0.37382129 0.00000000 0.03295837
v 0.36016949 0.00000000 0.00000000
v 0.37382129 0.00000000 -0.03295837
v 0.40677966 0.00000000 -0.04661017
v 0.43973803 0.00000000 -0.03295837
v 0.41887758 0.17350478 0.00000000
v 0.40626496 0.16828046 0.03295837
v 0.37581540 0.15566784 0.04661017
v 0.34536584 0.14305522 0.03295837
v 0.33275322 0.13783090 0.00000000
v 0.34536584 0.14305522 -0.03295837
v 0.37581540 0.15566784 -0.04661017
v 0.40626496 0.16828046 -0.03295837
v 0.32059502 0.32059502 0.00000000
v 0.31094174 0.31094174 0.03295837
v 0.28763666 0.28763666 0.04661017
v 0.26433157 0.26433157 0.03295837
v 0.25467829 0.25467829 0.00000000
v 0.26433157 0.26433157 -0.03295837
v 0.28763666 0.28763666 -0.04661017
v 0.31094174 0.31094174 -0.03295837
v 0.17350478 0.41887758 0.00000000
v 0.16828046 0.40626496 0.03295837
v 0.15566784 0.37581540 0.04661017
v 0.14305522 0.34536584 0.03295837
v 0.13783090 0.33275322 0.00000000
v 0.14305522 0.34536584 -0.03295837
v 0.15566784 0.37581540 -0.04661017
v 0.16828046 0.40626496 -0.03295837
v 0.00000000 0.45338983 0.00000000
v 0.00000000 0.43973803 0.03295837
v 0.00000000 0.40677966 0.04661017
v 0.00000000 0.37382129 0.03295837
v 0.00000000 0.36016949 0.00000000
v 0.00000000 0.37382129 -0.03295837
v 0.00000000 0.40677966 -0.04661017
v 0.00000000 0.43973803 -0.03295837
v -0.17350478 0.41887758 0.00000000
v -0.16828046 0.40626496 0.03295837
v -0.15566784 0.37581540 0.04661017
v -0.14305522 0.34536584 0.03295837
v -0.13783090 0.33275322 0.00000000
v -0.14305522 0.34536584 -0.03295837
v -0.15566784 0.37581540 -0.04661017
v -0.16828046 0.40626496 -0.03295837
v -0.32059502 0.32059502 0.00000000
v -0.31094174 0.31094174 0.03295837
v -0.28763666 0.28763666 0.04661017
v -0.26433157 0.26433157 0.03295837
v -0.25467829 0.25467829 0.00000000
v -0.26433157 0.26433157 -0.03295837
v -0.28763666 0.28763666 -0.04661017
v -0.31094174 0.31094174 -0.03295837
v -0.41887758 0.17350478 0.00000000
v -0.40626496 0.16828046 0.03295837
v -0.37581540 0.15566784 0.04661017
v -0.34536584 0.14305522 0.03295837
v -0.33275322 0.13783090 0.00000000
v -0.34536584 0.14305522 -0.03295837
v -0.37581540 0.15566784 -0.04661017
v -0.40626496 0.16828046 -0.03295837
v -0.45338983 0.00000000 0.00000000
v -0.43973803 0.00000000 0.03295837
v -0.40677966 0.00000000 0.04661017
v -0.37382129 0.00000000 0.03295837
v -0.36016949 0.00000000 0.00000000
v -0.37382129 0.00000000 -0.03295837
v -0.40677966 0.00000000 -0.04661017
v -0.43973803 0.00000000 -0.03295837
v -0.41887758 -0.17350478 0.00000000
v -0.40626496 -0.16828046 0.03295837
v -0.37581540 -0.15566784 0.04661017
v -0.34536584 -0.14305522 0.03295837
v -0.33275322 -0.13783090 0.00000000
v -0.34536584 -0.14305522 -0.03295837
v -0.37581540 -0.15566784 -0.04661017
v -0.40626496 -0.16828046 -0.03295837
v -0.32059502 -0.32059502 0.00000000
v -0.31094174 -0.31094174 0.03295837
v -0.28763666 -0.28763666 0.04661017
v -0.26433157 -0.26433157 0.03295837
v -0.25467829 -0.25467829 0.00000000
v -0.26433157 -0.26433157 -0.03295837
v -0.28763666 -0.28763666 -0.04661017
v -0.31094174 -0.31094174 -0.03295837
v -0.17350478 -0.41887758 0.00000000
v -0.16828046 -0.40626496 0.03295837
v -0.15566784 -0.37581540 0.04661017
v -0.14305522 -0.34536584 0.03295837
v -0.13783090 -0.33275322 0.00000000
v -0.14305522 -0.34536584 -0.03295837
v -0.15566784 -0.37581540 -0.04661017
v -0.16828046 -0.40626496 -0.03295837
v -0.00000000 -0.45338983 0.00000000
v -0.00000000 -0.43973803 0.03295837
v -0.00000000 -0.40677966 0.04661017
v -0.00000000 -0.37382129 0.03295837
v -0.00000000 -0.36016949 0.00000000
v -0.00000000 -0.37382129 -0.03295837
v -0.00000000 -0.40677966 -0.04661017
v -0.00000000 -0.43973803 -0.03295837
v 0.17350478 -0.41887758 0.00000000
v 0.16828046 -0.40626496 0.03295837
v 0.15566784 -0.37581540 0.04661017
v 0.14305522 -0.34536584 0.03295837
v 0.13783090 -0.33275322 0.00000000
v 0.14305522 -0.34536584 -0.03295837
v 0.15566784 -0.37581540 -0.04661017
v 0.16828046 -0.40626496 -0.03295837
v 0.32059502 -0.32059502 0.00000000
v 0.31094174 -0.31094174 0.03295837
v 0.28763666 -0.28763666 0.04661017
v 0.26433157 -0.26433157 0.03295837
v 0.25467829 -0.25467829 0.00000000
v 0.26433157 -0.26433157 -0.03295837
v 0.28763666 -0.28763666 -0.04661017
v 0.31094174 -0.31094174 -0.03295837
v 0.41887758 -0.17350478 0.00000000
v 0.40626496 -0.16828046 0.03295837
v 0.37581540 -0.15566784 0.04661017
v 0.34536584 -0.14305522 0.03295837
v 0.33275322 -0.13783090 0.00000000
v 0.34536584 -0.14305522 -0.03295837
v 0.37581540 -0.15566784 -0.04661017
v 0.40626496 -0.16828046 -0.03295837
v 0.35777083 0.05767124 0.00000000
v 0.45578849 0.05767124 0.00000000
v 0.35777083 -0.05767124 0.00000000
v 0.45578849 -0.05767124 0.00000000
v 0.40677966 -0.03564279 0.03604453
v 0.40677966 0.03564279 0.03604453
v 0.40677966 -0.03564279 -0.03604453
v 0.40677966 0.03564279 -0.03604453
v 0.48607762 0.00000000 -0.02227674
v 0.48607762 0.00000000 0.02227674
v 0.32748170 0.00000000 -0.02227674
v 0.32748170 0.00000000 0.02227674
v 0.40677966 0.06779661 0.00000000
v 0.40677966 -0.06779661 0.00000000
v 0.37797299 -0.05484861 0.02118644
v 0.43558633 -0.05484861 0.02118644
v 0.37797299 0.05484861 0.02118644
v 0.43558633 0.05484861 0.02118644
v 0.40677966 0.00000000 0.04237288
v 0.37797299 -0.05484861 -0.02118644
v 0.43558633 -0.05484861 -0.02118644
v 0.37797299 0.05484861 -0.02118644
v 0.43558633 0.05484861 -0.02118644
v 0.40677966 0.00000000 -0.04237288
v 0.48219650 0.03389831 -0.01309394
v 0.48219650 -0.03389831 -0.01309394
v 0.45338983 -0.02095030 -0.03428038
v 0.45338983 0.02095030 -0.03428038
v 0.48219650 0.03389831 0.01309394
v 0.48219650 -0.03389831 0.01309394
v 0.45338983 -0.02095030 0.03428038
v 0.45338983 0.02095030 0.03428038
v 0.50000000 0.00000000 0.00000000
v 0.33136282 0.03389831 -0.01309394
v 0.33136282 -0.03389831 -0.01309394
v 0.36016949 -0.02095030 -0.03428038
v 0.36016949 0.02095030 -0.03428038
v 0.33136282 0.03389831 0.01309394
v 0.33136282 -0.03389831 0.01309394
v 0.36016949 -0.02095030 0.03428038
v 0.36016949 0.02095030 0.03428038
v 0.31355932 0.00000000 0.00000000
v 0.23862782 0.34530790 0.00000000
v 0.33664549 0.34530790 0.00000000
v 0.23862782 0.22996542 0.00000000
v 0.33664549 0.22996542 0.00000000
v 0.28763666 0.25199387 0.03604453
v 0.28763666 0.32327944 0.03604453
v 0.28763666 0.25199387 -0.03604453
v 0.28763666 0.32327944 -0.03604453
v 0.36693461 0.28763666 -0.02227674
v 0.36693461 0.28763666 0.02227674
v 0.20833870 0.28763666 -0.02227674
v 0.20833870 0.28763666 0.02227674
v 0.28763666 0.35543327 0.00000000
v 0.28763666 0.21984005 0.00000000
v 0.25882999 0.23278805 0.02118644
v 0.31644333 0.23278805 0.02118644
v 0.25882999 0.34248527 0.02118644
v 0.31644333 0.34248527 0.02118644
v 0.28763666 0.28763666 0.04237288
v 0.25882999 0.23278805 -0.02118644
v 0.31644333 0.23278805 -0.02118644
v 0.25882999 0.34248527 -0.02118644
v 0.31644333 0.34248527 -0.02118644
v 0.28763666 0.28763666 -0.04237288
v 0.36305350 0.32153496 -0.01309394
v 0.36305350 0.25373835 -0.01309394
v 0.33424683 0.26668635 -0.03428038
v 0.33424683 0.30858696 -0.03428038
v 0.36305350 0.32153496 0.01309394
v 0.36305350 0.25373835 0.01309394
v 0.33424683 0.26668635 0.03428038
v 0.33424683 0.30858696 0.03428038
v 0.38085700 0.28763666 0.00000000
v 0.21221982 0.32153496 -0.01309394
v 0.21221982 0.25373835 -0.01309394
v 0.24102649 0.26668635 -0.03428038
v 0.24102649 0.30858696 -0.03428038
v 0.21221982 0.32153496 0.01309394
v 0.21221982 0.25373835 0.01309394
v 0.24102649 0.26668635 0.03428038
v 0.24102649 0.30858696 0.03428038
v 0.19441632 0.28763666 0.00000000
v -0.04900883 0.46445090 0.00000000
v 0.04900883 0.46445090 0.00000000
v -0.04900883 0.34910842 0.00000000
v 0.04900883 0.34910842 0.00000000
v 0.00000000 0.37113687 0.03604453
v 0.00000000 0.44242245 0.03604453
v 0.00000000 0.37113687 -0.03604453
v 0.00000000 0.44242245 -0.03604453
v 0.07929796 0.40677966 -0.02227674
v 0.07929796 0.40677966 0.02227674
v -0.07929796 0.40677966 -0.02227674
v -0.07929796 0.40677966 0.02227674
v 0.00000000 0.47457627 0.00000000
v 0.00000000 0.33898305 0.00000000
v -0.02880667 0.35193105 0.02118644
v 0.02880667 0.35193105 0.02118644
v -0.02880667 0.46162827 0.02118644
v 0.02880667 0.46162827 0.02118644
v 0.00000000 0.40677966 0.04237288
v -0.02880667 0.35193105 -0.02118644
v 0.02880667 0.35193105 -0.02118644
v -0.02880667 0.46162827 -0.02118644
v 0.02880667 0.46162827 -0.02118644
v 0.00000000 0.40677966 -0.04237288
v 0.07541684 0.44067797 -0.01309394
v 0.07541684 0.37288136 -0.01309394
v 0.04661017 0.38582936 -0.03428038
v 0.04661017 0.42772997 -0.03428038
v 0.07541684 0.44067797 0.01309394
v 0.07541684 0.37288136 0.01309394
v 0.04661017 0.38582936 0.03428038
v 0.04661017 0.42772997 0.03428038
v 0.09322034 0.40677966 0.00000000
v -0.07541684 0.44067797 -0.01309394
v -0.07541684 0.37288136 -0.01309394
v -0.04661017 0.38582936 -0.03428038
v -0.04661017 0.42772997 -0.03428038
v -0.07541684 0.44067797 0.01309394
v -0.07541684 0.37288136 0.01309394
v -0.04661017 0.38582936 0.03428038
v -0.04661017 0.42772997 0.03428038
v -0.09322034 0.40677966 0.00000000
v -0.33664549 0.34530790 0.00000000
v -0.23862782 0.34530790 0.00000000
v -0.33664549 0.22996542 0.00000000
v -0.23862782 0.22996542 0.00000000
v -0.28763666 0.25199387 0.03604453
v -0.28763666 0.32327944 0.03604453
v -0.28763666 0.25199387 -0.03604453
v -0.28763666 0.32327944 -0.03604453
v -0.20833870 0.28763666 -0.02227674
v -0.20833870 0.28763666 0.02227674
v -0.36693461 0.28763666 -0.02227674
v -0.36693461 0.28763666 0.02227674
v -0.28763666 0.35543327 0.00000000
v -0.28763666 0.21984005 0.00000000
v -0.31644333 0.23278805 0.02118644
v -0.25882999 0.23278805 0.02118644
v -0.31644333 0.34248527 0.02118644
v -0.25882999 0.34248527 0.02118644
v -0.28763666 0.28763666 0.04237288
v -0.31644333 0.23278805 -0.02118644
v -0.25882999 0.23278805 -0.02118644
v -0.31644333 0.34248527 -0.02118644
v -0.25882999 0.34248527 -0.02118644
v -0.28763666 0.28763666 -0.04237288
v -0.21221982 0.32153496 -0.01309394
v -0.21221982 0.25373835 -0.01309394
v -0.24102649 0.26668635 -0.03428038
v -0.24102649 0.30858696 -0.03428038
v -0.21221982 0.32153496 0.01309394
v -0.21221982 0.25373835 0.01309394
v -0.24102649 0.26668635 0.03428038
v -0.24102649 0.30858696 0.03428038
v -0.19441632 0.28763666 0.00000000
v -0.36305350 0.32153496 -0.01309394
v -0.36305350 0.25373835 -0.01309394
v -0.33424683 0.26668635 -0.03428038
v -0.33424683 0.30858696 -0.03428038
v -0.36305350 0.32153496 0.01309394
v -0.36305350 0.25373835 0.01309394
v -0.33424683 0.26668635 0.03428038
v -0.33424683 0.30858696 0.03428038
v -0.38085700 0.28763666 0.00000000
v -0.45578849 0.05767124 0.00000000
v -0.35777083 0.05767124 0.00000000
v -0.45578849 -0.05767124 0.00000000
v -0.35777083 -0.05767124 0.00000000
v -0.40677966 -0.03564279 0.03604453
v -0.40677966 0.03564279 0.03604453
v -0.40677966 -0.03564279 -0.03604453
v -0.40677966 0.03564279 -0.03604453
v -0.32748170 0.00000000 -0.02227674
v -0.32748170 0.00000000 0.02227674
v -0.48607762 0.00000000 -0.02227674
v -0.48607762 0.00000000 0.02227674
v -0.40677966 0.06779661 0.00000000
v -0.40677966 -0.06779661 0.00000000
v -0.43558633 -0.05484861 0.02118644
v -0.37797299 -0.05484861 0.02118644
v -0.43558633 0.05484861 0.02118644
v -0.37797299 0.05484861 0.02118644
v -0.40677966 0.00000000 0.04237288
v -0.43558633 -0.05484861 -0.02118644
v -0.37797299 -0.05484861 -0.02118644
v -0.43558633 0.05484861 -0.02118644
v -0.37797299 0.05484861 -0.02118644
v -0.40677966 0.00000000 -0.04237288
v -0.33136282 0.03389831 -0.01309394
v -0.33136282 -0.03389831 -0.01309394
v -0.36016949 -0.02095030 -0.03428038
v -0.36016949 0.02095030 -0.03428038
v -0.33136282 0.03389831 0.01309394
v -0.33136282 -0.03389831 0.01309394
v -0.36016949 -0.02095030 0.03428038
v -0.36016949 0.02095030 0.03428038
v -0.31355932 0.00000000 0.00000000
v -0.48219650 0.03389831 -0.01309394
v -0.48219650 -0.03389831 -0.01309394
v -0.45338983 -0.02095030 -0.03428038
v -0.45338983 0.02095030 -0.03428038
v -0.48219650 0.03389831 0.01309394
v -0.48219650 -0.03389831 0.01309394
v -0.45338983 -0.02095030 0.03428038
v -0.45338983 0.02095030 0.03428038
v -0.50000000 0.00000000 0.00000000
v -0.33664549 -0.22996542 0.00000000
v -0.23862782 -0.22996542 0.00000000
v -0.33664549 -0.34530790 0.00000000
v -0.23862782 -0.34530790 0.00000000
v -0.28763666 -0.32327944 0.03604453
v -0.28763666 -0.25199387 0.03604453
v -0.28763666 -0.32327944 -0.03604453
v -0.28763666 -0.25199387 -0.03604453
v -0.20833870 -0.28763666 -0.02227674
v -0.20833870 -0.28763666 0.02227674
v -0.36693461 -0.28763666 -0.02227674
v -0.36693461 -0.28763666 0.02227674
v -0.28763666 -0.21984005 0.00000000
v -0.28763666 -0.35543327 0.00000000
v -0.31644333 -0.34248527 0.02118644
v -0.25882999 -0.34248527 0.02118644
v -0.31644333 -0.23278805 0.02118644
v -0.25882999 -0.23278805 0.02118644
v -0.28763666 -0.28763666 0.04237288
v -0.31644333 -0.34248527 -0.02118644
v -0.25882999 -0.34248527 -0.02118644
v -0.31644333 -0.23278805 -0.02118644
v -0.25882999 -0.23278805 -0.02118644
v -0.28763666 -0.28763666 -0.04237288
v -0.21221982 -0.25373835 -0.01309394
v -0.21221982 -0.32153496 -0.01309394
v -0.24102649 -0.30858696 -0.03428038
v -0.24102649 -0.26668635 -0.03428038
v -0.21221982 -0.25373835 0.01309394
v -0.21221982 -0.32153496 0.01309394
v -0.24102649 -0.30858696 0.03428038
v -0.24102649 -0.26668635 0.03428038
v -0.19441632 -0.28763666 0.00000000
v -0.36305350 -0.25373835 -0.01309394
v -0.36305350 -0.32153496 -0.01309394
v -0.33424683 -0.30858696 -0.03428038
v -0.33424683 -0.26668635 -0.03428038
v -0.36305350 -0.25373835 0.01309394
v -0.36305350 -0.32153496 0.01309394
v -0.33424683 -0.30858696 0.03428038
v -0.33424683 -0.26668635 0.03428038
v -0.38085700 -0.28763666 0.00000000
v -0.04900883 -0.34910842 0.00000000
v 0.04900883 -0.34910842 0.00000000
v -0.04900883 -0.46445090 0.00000000
v 0.04900883 -0.46445090 0.00000000
v -0.00000000 -0.44242245 0.03604453
v -0.00000000 -0.37113687 0.03604453
v -0.00000000 -0.44242245 -0.03604453
v -0.00000000 -0.37113687 -0.03604453
v 0.07929796 -0.40677966 -0.02227674
v 0.07929796 -0.40677966 0.02227674
v -0.07929796 -0.40677966 -0.02227674
v -0.07929796 -0.40677966 0.02227674
v -0.00000000 -0.33898305 0.00000000
v -0.00000000 -0.47457627 0.00000000
v -0.02880667 -0.46162827 0.02118644
v 0.02880667 -0.46162827 0.02118644
v -0.02880667 -0.35193105 0.02118644
v 0.02880667 -0.35193105 0.02118644
v -0.00000000 -0.40677966 0.04237288
v -0.02880667 -0.46162827 -0.02118644
v 0.02880667 -0.46162827 -0.02118644
v -0.02880667 -0.35193105 -0.02118644
v 0.02880667 -0.35193105 -0.02118644
v -0.00000000 -0.40677966 -0.04237288
v 0.07541684 -0.37288136 -0.01309394
v 0.07541684 -0.44067797 -0.01309394
v 0.04661017 -0.42772997 -0.03428038
v 0.04661017 -0.38582936 -0.03428038
v 0.07541684 -0.37288136 0.01309394
v 0.07541684 -0.44067797 0.01309394
v 0.04661017 -0.42772997 0.03428038
v 0.04661017 -0.38582936 0.03428038
v 0.09322034 -0.40677966 0.00000000
v -0.07541684 -0.37288136 -0.01309394
v -0.07541684 -0.44067797 -0.01309394
v -0.04661017 -0.42772997 -0.03428038
v -0.04661017 -0.38582936 -0.03428038
v -0.07541684 -0.37288136 0.01309394
v -0.07541684 -0.44067797 0.01309394
v -0.04661017 -0.42772997 0.03428038
v -0.04661017 -0.38582936 0.03428038
v -0.09322034 -0.40677966 0.00000000
v 0.23862782 -0.22996542 0.00000000
v 0.33664549 -0.22996542 0.00000000
v 0.23862782 -0.34530790 0.00000000
v 0.33664549 -0.34530790 0.00000000
v 0.28763666 -0.32327944 0.03604453
v 0.28763666 -0.25199387 0.03604453
v 0.28763666 -0.32327944 -0.03604453
v 0.28763666 -0.25199387 -0.03604453
v 0.36693461 -0.28763666 -0.02227674
v 0.36693461 -0.28763666 0.02227674
v 0.20833870 -0.28763666 -0.02227674
v 0.20833870 -0.28763666 0.02227674
v 0.28763666 -0.21984005 0.00000000
v 0.28763666 -0.35543327 0.00000000
v 0.25882999 -0.34248527 0.02118644
v 0.31644333 -0.34248527 0.02118644
v 0.25882999 -0.23278805 0.02118644
v 0.31644333 -0.23278805 0.02118644
v 0.28763666 -0.28763666 0.04237288
v 0.25882999 -0.34248527 -0.02118644
v 0.31644333 -0.34248527 -0.02118644
v 0.25882999 -0.23278805 -0.02118644
v 0.31644333 -0.23278805 -0.02118644
v 0.28763666 -0.28763666 -0.04237288
v 0.36305350 -0.25373835 -0.01309394
v 0.36305350 -0.32153496 -0.01309394
v 0.33424683 -0.30858696 -0.03428038
v 0.33424683 -0.26668635 -0.03428038
v 0.36305350 -0.25373835 0.01309394
v 0.36305350 -0.32153496 0.01309394
v 0.33424683 -0.30858696 0.03428038
v 0.33424683 -0.26668635 0.03428038
v 0.38085700 -0.28763666 0.00000000
v 0.21221982 -0.25373835 -0.01309394
v 0.21221982 -0.32153496 -0.01309394
v 0.24102649 -0.30858696 -0.03428038
v 0.24102649 -0.26668635 -0.03428038
v 0.21221982 -0.25373835 0.01309394
v 0.21221982 -0.32153496 0.01309394
v 0.24102649 -0.30858696 0.03428038
v 0.24102649 -0.26668635 0.03428038
v 0.19441632 -0.28763666 0.00000000
f 1 9 2
f 2 9 10
f 2 10 3
f 3 10 11
f 3 11 4
f 4 11 12
f 4 12 5
f 5 12 13
f 5 13 6
f 6 13 14
f 6 14 7
f 7 14 15
f 7 15 8
f 8 15 16
f 8 16 1
f 1 16 9
f 9 17 10
f 10 17 18
f 10 18 11
f 11 18 19
f 11 19 12
f 12 19 20
f 12 20 13
f 13 20 21
f 13 21 14
f 14 21 22
f 14 22 15
f 15 22 23
f 15 23 16
f 16 23 24
f 16 24 9
f 9 24 17
f 17 25 18
f 18 25 26
f 18 26 19
f 19 26 27
f 19 27 20
f 20 27 28
f 20 28 21
f 21 28 29
f 21 29 22
f 22 29 30
f 22 30 23
f 23 30 31
f 23 31 24
f 24 31 32
f 24 32 17
f 17 32 25
f 25 33 26
f 26 33 34
f 26 34 27
f 27 34 35
f 27 35 28
f 28 35 36
f 28 36 29
f 29 36 37
f 29 37 30
f 30 37 38
f 30 38 31
f 31 38 39
f 31 39 32
f 32 39 40
f 32 40 25
f 25 40 33
f 33 41 34
f 34 41 42
f 34 42 35
f 35 42 43
f 35 43 36
f 36 43 44
f 36 44 37
f 37 44 45
f 37 45 38
f 38 45 46
f 38 46 39
f 39 46 47
f 39 47 40
f 40 47 48
f 40 48 33
f 33 48 41
f 41 49 42
f 42 49 50
f 42 50 43
f 43 50 51
f 43 51 44
f 44 51 52
f 44 52 45
f 45 52 53
f 45 53 46
f 46 53 54
f 46 54 47
f 47 54 55
f 47 55 48
f 48 55 56
f 48 56 41
f 41 56 49
f 49 57 50
f 50 57 58
f 50 58 51
f 51 58 59
f 51 59 52
f 52 59 60
f 52 60 53
f 53 60 61
f 53 61 54
f 54 61 62
f 54 62 55
f 55 62 63
f 55 63 56
f 56 63 64
f 56 64 49
f 49 64 57
f 57 65 58
f 58 65 66
f 58 66 59
f 59 66 67
f 59 67 60
f 60 67 68
f 60 68 61
f 61 68 69
f 61 69 62
f 62 69 70
f 62 70 63
f 63 70 71
f 63 71 64
f 64 71 72
f 64 72 57
f 57 72 65
f 65 73 66
f 66 73 74
f 66 74 67
f 67 74 75
f 67 75 68
f 68 75 76
f 68 76 69
f 69 76 77
f 69 77 70
f 70 77 78
f 70 78 71
f 71 78 79
f 71 79 72
f 72 79 80
f 72 80 65
f 65 80 73
f 73 81 74
f 74 81 82
f 74 82 75
f 75 82 83
f 75 83 76
f 76 83 84
f 76 84 77
f 77 84 85
f 77 85 78
f 78 85 86
f 78 86 79
f 79 86 87
f 79 87 80
f 80 87 88
f 80 88 73
f 73 88 81
f 81 89 82
f 82 89 90
f 82 90 83
f 83 90 91
f 83 91 84
f 84 91 92
f 84 92 85
f 85 92 93
f 85 93 86
f 86 93 94
f 86 94 87
f 87 94 95
f 87 95 88
f 88 95 96
f 88 96 81
f 81 96 89
f 89 97 90
f 90 97 98
f 90 98 91
f 91 98 99
f 91 99 92
f 92 99 100
f 92 100 93
f 93 100 101
f 93 101 94
f 94 101 102
f 94 102 95
f 95 102 103
f 95 103 96
f 96 103 104
f 96 104 89
f 89 104 97
f 97 105 98
f 98 105 106
f 98 106 99
f 99 106 107
f 99 107 100
f 100 107 108
f 100 108 101
f 101 108 109
f 101 109 102
f 102 109 110
f 102 110 103
f 103 110 111
f 103 111 104
f 104 111 112
f 104 112 97
f 97 112 105
f 105 113 106
f 106 113 114
f 106 114 107
f 107 114 115
f 107 115 108
f 108 115 116
f 108 116 109
f 109 116 117
f 109 117 110
f 110 117 118
f 110 118 111
f 111 118 119
f 111 119 112
f 112 119 120
f 112 120 105
f 105 120 113
f 113 121 114
f 114 121 122
f 114 122 115
f 115 122 123
f 115 123 116
f 116 123 124
f 116 124 117
f 117 124 125
f 117 125 118
f 118 125 126
f 118 126 119
f 119 126 127
f 119 127 120
f 120 127 128
f 120 128 113
f 113 128 121
f 121 1 122
f 122 1 2
f 122 2 123
f 123 2 3
f 123 3 124
f 124 3 4
f 124 4 125
f 125 4 5
f 125 5 126
f 126 5 6
f 126 6 127
f 127 6 7
f 127 7 128
f 128 7 8
f 128 8 121
f 121 8 1
f 129 166 145
f 166 140 169
f 145 169 134
f 166 169 145
f 129 145 141
f 145 134 146
f 141 146 130
f 145 146 141
f 129 141 150
f 141 130 151
f 150 151 136
f 141 151 150
f 129 150 162
f 150 136 165
f 162 165 139
f 150 165 162
f 129 162 166
f 162 139 170
f 166 170 140
f 162 170 166
f 130 146 157
f 146 134 160
f 157 160 138
f 146 160 157
f 134 169 147
f 169 140 168
f 147 168 133
f 169 168 147
f 140 170 167
f 170 139 163
f 167 163 131
f 170 163 167
f 139 165 164
f 165 136 152
f 164 152 135
f 165 152 164
f 136 151 156
f 151 130 153
f 156 153 137
f 151 153 156
f 132 158 144
f 158 138 159
f 144 159 133
f 158 159 144
f 132 144 142
f 144 133 143
f 142 143 131
f 144 143 142
f 132 142 149
f 142 131 148
f 149 148 135
f 142 148 149
f 132 149 154
f 149 135 155
f 154 155 137
f 149 155 154
f 132 154 158
f 154 137 161
f 158 161 138
f 154 161 158
f 133 159 147
f 159 138 160
f 147 160 134
f 159 160 147
f 131 143 167
f 143 133 168
f 167 168 140
f 143 168 167
f 135 148 164
f 148 131 163
f 164 163 139
f 148 163 164
f 137 155 156
f 155 135 152
f 156 152 136
f 155 152 156
f 138 161 157
f 161 137 153
f 157 153 130
f 161 153 157
f 171 208 187
f 208 182 211
f 187 211 176
f 208 211 187
f 171 187 183
f 187 176 188
f 183 188 172
f 187 188 183
f 171 183 192
f 183 172 193
f 192 193 178
f 183 193 192
f 171 192 204
f 192 178 207
f 204 207 181
f 192 207 204
f 171 204 208
f 204 181 212
f 208 212 182
f 204 212 208
f 172 188 199
f 188 176 202
f 199 202 180
f 188 202 199
f 176 211 189
f 211 182 210
f 189 210 175
f 211 210 189
f 182 212 209
f 212 181 205
f 209 205 173
f 212 205 209
f 181 207 206
f 207 178 194
f 206 194 177
f 207 194 206
f 178 193 198
f 193 172 195
f 198 195 179
f 193 195 198
f 174 200 186
f 200 180 201
f 186 201 175
f 200 201 186
f 174 186 184
f 186 175 185
f 184 185 173
f 186 185 184
f 174 184 191
f 184 173 190
f 191 190 177
f 184 190 191
f 174 191 196
f 191 177 197
f 196 197 179
f 191 197 196
f 174 196 200
f 196 179 203
f 200 203 180
f 196 203 200
f 175 201 189
f 201 180 202
f 189 202 176
f 201 202 189
f 173 185 209
f 185 175 210
f 209 210 182
f 185 210 209
f 177 190 206
f 190 173 205
f 206 205 181
f 190 205 206
f 179 197 198
f 197 177 194
f 198 194 178
f 197 194 198
f 180 203 199
f 203 179 195
f 199 195 172
f 203 195 199
f 213 250 229
f 250 224 253
f 229 253 218
f 250 253 229
f 213 229 225
f 229 218 230
f 225 230 214
f 229 230 225
f 213 225 234
f 225 214 235
f 234 235 220
f 225 235 234
f 213 234 246
f 234 220 249
f 246 249 223
f 234 249 246
f 213 246 250
f 246 223 254
f 250 254 224
f 246 254 250
f 214 230 241
f 230 218 244
f 241 244 222
f 230 244 241
f 218 253 231
f 253 224 252
f 231 252 217
f 253 252 231
f 224 254 251
f 254 223 247
f 251 247 215
f 254 247 251
f 223 249 248
f 249 220 236
f 248 236 219
f 249 236 248
f 220 235 240
f 235 214 237
f 240 237 221
f 235 237 240
f 216 242 228
f 242 222 243
f 228 243 217
f 242 243 228
f 216 228 226
f 228 217 227
f 226 227 215
f 228 227 226
f 216 226 233
f 226 215 232
f 233 232 219
f 226 232 233
f 216 233 238
f 233 219 239
f 238 239 221
f 233 239 238
f 216 238 242
f 238 221 245
f 242 245 222
f 238 245 242
f 217 243 231
f 243 222 244
f 231 244 218
f 243 244 231
f 215 227 251
f 227 217 252
f 251 252 224
f 227 252 251
f 219 232 248
f 232 215 247
f 248 247 223
f 232 247 248
f 221 239 240
f 239 219 236
f 240 236 220
f 239 236 240
f 222 245 241
f 245 221 237
f 241 237 214
f 245 237 241
f 255 292 271
f 292 266 295
f 271 295 260
f 292 295 271
f 255 271 267
f 271 260 272
f 267 272 256
f 271 272 267
f 255 267 276
f 267 256 277
f 276 277 262
f 267 277 276
f 255 276 288
f 276 262 291
f 288 291 265
f 276 291 288
f 255 288 292
f 288 265 296
f 292 296 266
f 288 296 292
f 256 272 283
f 272 260 286
f 283 286 264
f 272 286 283
f 260 295 273
f 295 266 294
f 273 294 259
f 295 294 273
f 266 296 293
f 296 265 289
f 293 289 257
f 296 289 293
f 265 291 290
f 291 262 278
f 290 278 261
f 291 278 290
f 262 277 282
f 277 256 279
f 282 279 263
f 277 279 282
f 258 284 270
f 284 264 285
f 270 285 259
f 284 285 270
f 258 270 268
f 270 259 269
f 268 269 257
f 270 269 268
f 258 268 275
f 268 257 274
f 275 274 261
f 268 274 275
f 258 275 280
f 275 261 281
f 280 281 263
f 275 281 280
f 258 280 284
f 280 263 287
f 284 287 264
f 280 287 284
f 259 285 273
f 285 264 286
f 273 286 260
f 285 286 273
f 257 269 293
f 269 259 294
f 293 294 266
f 269 294 293
f 261 274 290
f 274 257 289
f 290 289 265
f 274 289 290
f 263 281 282
f 281 261 278
f 282 278 262
f 281 278 282
f 264 287 283
f 287 263 279
f 283 279 256
f 287 279 283
f 297 334 313
f 334 308 337
f 313 337 302
f 334 337 313
f 297 313 309
f 313 302 314
f 309 314 298
f 313 314 309
f 297 309 318
f 309 298 319
f 318 319 304
f 309 319 318
f 297 318 330
f 318 304 333
f 330 333 307
f 318 333 330
f 297 330 334
f 330 307 338
f 334 338 308
f 330 338 334
f 298 314 325
f 314 302 328
f 325 328 306
f 314 328 325
f 302 337 315
f 337 308 336
f 315 336 301
f 337 336 315
f 308 338 335
f 338 307 331
f 335 331 299
f 338 331 335
f 307 333 332
f 333 304 320
f 332 320 303
f 333 320 332
f 304 319 324
f 319 298 321
f 324 321 305
f 319 321 324
f 300 326 312
f 326 306 327
f 312 327 301
f 326 327 312
f 300 312 310
f 312 301 311
f 310 311 299
f 312 311 310
f 300 310 317
f 310 299 316
f 317 316 303
f 310 316 317
f 300 317 322
f 317 303 323
f 322 323 305
f 317 323 322
f 300 322 326
f 322 305 329
f 326 329 306
f 322 329 326
f 301 327 315
f 327 306 328
f 315 328 302
f 327 328 315
f 299 311 335
f 311 301 336
f 335 336 308
f 311 336 335
f 303 316 332
f 316 299 331
f 332 331 307
f 316 331 332
f 305 323 324
f 323 303 320
f 324 320 304
f 323 320 324
f 306 329 325
f 329 305 321
f 325 321 298
f 329 321 325
f 339 376 355
f 376 350 379
f 355 379 344
f 376 379 355
f 339 355 351
f 355 344 356
f 351 356 340
f 355 356 351
f 339 351 360
f 351 340 361
f 360 361 346
f 351 361 360
f 339 360 372
f 360 346 375
f 372 375 349
f 360 375 372
f 339 372 376
f 372 349 380
f 376 380 350
f 372 380 376
f 340 356 367
f 356 344 370
f 367 370 348
f 356 370 367
f 344 379 357
f 379 350 378
f 357 378 343
f 379 378 357
f 350 380 377
f 380 349 373
f 377 373 341
f 380 373 377
f 349 375 374
f 375 346 362
f 374 362 345
f 375 362 374
f 346 361 366
f 361 340 363
f 366 363 347
f 361 363 366
f 342 368 354
f 368 348 369
f 354 369 343
f 368 369 354
f 342 354 352
f 354 343 353
f 352 353 341
f 354 353 352
f 342 352 359
f 352 341 358
f 359 358 345
f 352 358 359
f 342 359 364
f 359 345 365
f 364 365 347
f 359 365 364
f 342 364 368
f 364 347 371
f 368 371 348
f 364 371 368
f 343 369 357
f 369 348 370
f 357 370 344
f 369 370 357
f 341 353 377
f 353 343 378
f 377 378 350
f 353 378 377
f 345 358 374
f 358 341 373
f 374 373 349
f 358 373 374
f 347 365 366
f 365 345 362
f 366 362 346
f 365 362 366
f 348 371 367
f 371 347 363
f 367 363 340
f 371 363 367
f 381 418 397
f 418 392 421
f 397 421 386
f 418 421 397
f 381 397 393
f 397 386 398
f 393 398 382
f 397 398 393
f 381 393 402
f 393 382 403
f 402 403 388
f 393 403 402
f 381 402 414
f 402 388 417
f 414 417 391
f 402 417 414
f 381 414 418
f 414 391 422
f 418 422 392
f 414 422 418
f 382 398 409
f 398 386 412
f 409 412 390
f 398 412 409
f 386 421 399
f 421 392 420
f 399 420 385
f 421 420 399
f 392 422 419
f 422 391 415
f 419 415 383
f 422 415 419
f 391 417 416
f 417 388 404
f 416 404 387
f 417 404 416
f 388 403 408
f 403 382 405
f 408 405 389
f 403 405 408
f 384 410 396
f 410 390 411
f 396 411 385
f 410 411 396
f 384 396 394
f 396 385 395
f 394 395 383
f 396 395 394
f 384 394 401
f 394 383 400
f 401 400 387
f 394 400 401
f 384 401 406
f 401 387 407
f 406 407 389
f 401 407 406
f 384 406 410
f 406 389 413
f 410 413 390
f 406 413 410
f 385 411 399
f 411 390 412
f 399 412 386
f 411 412 399
f 383 395 419
f 395 385 420
f 419 420 392
f 395 420 419
f 387 400 416
f 400 383 415
f 416 415 391
f 400 415 416
f 389 407 408
f 407 387 404
f 408 404 388
f 407 404 408
f 390 413 409
f 413 389 405
f 409 405 382
f 413 405 409
f 423 460 439
f 460 434 463
f 439 463 428
f 460 463 439
f 423 439 435
f 439 428 440
f 435 440 424
f 439 440 435
f 423 435 444
f 435 424 445
f 444 445 430
f 435 445 444
f 423 444 456
f 444 430 459
f 456 459 433
f 444 459 456
f 423 456 460
f 456 433 464
f 460 464 434
f 456 464 460
f 424 440 451
f 440 428 454
f 451 454 432
f 440 454 451
f 428 463 441
f 463 434 462
f 441 462 427
f 463 462 441
f 434 464 461
f 464 433 457
f 461 457 425
f 464 457 461
f 433 459 458
f 459 430 446
f 458 446 429
f 459 446 458
f 430 445 450
f 445 424 447
f 450 447 431
f 445 447 450
f 426 452 438
f 452 432 453
f 438 453 427
f 452 453 438
f 426 438 436
f 438 427 437
f 436 437 425
f 438 437 436
f 426 436 443
f 436 425 442
f 443 442 429
f 436 442 443
f 426 443 448
f 443 429 449
f 448 449 431
f 443 449 448
f 426 448 452
f 448 431 455
f 452 455 432
f 448 455 452
f 427 453 441
f 453 432 454
f 441 454 428
f 453 454 441
f 425 437 461
f 437 427 462
f 461 462 434
f 437 462 461
f 429 442 458
f 442 425 457
f 458 457 433
f 442 457 458
f 431 449 450
f 449 429 446
f 450 446 430
f 449 446 450
f 432 455 451
f 455 431 447
f 451 447 424
f 455 447 451

