# https://github.com/mikedh/trimesh
v -0.06756757 0.00000000 -0.10228717
v 0.36486486 0.00000000 -0.10228717
v 0.36486486 0.00000000 0.01482995
v -0.06756757 0.00000000 0.01482995
v 0.33878600 0.14790060 -0.10228717
v 0.33878600 0.14790060 0.01482995
v 0.26369489 0.27796221 -0.10228717
v 0.26369489 0.27796221 0.01482995
v 0.14864865 0.37449747 -0.10228717
v 0.14864865 0.37449747 0.01482995
v 0.00752354 0.42586281 -0.10228717
v 0.00752354 0.42586281 0.01482995
v -0.14265867 0.42586281 -0.10228717
v -0.14265867 0.42586281 0.01482995
v -0.28378378 0.37449747 -0.10228717
v -0.28378378 0.37449747 0.01482995
v -0.39883003 0.27796221 -0.10228717
v -0.39883003 0.27796221 0.01482995
v -0.47392113 0.14790060 -0.10228717
v -0.47392113 0.14790060 0.01482995
v -0.50000000 0.00000000 -0.10228717
v -0.50000000 0.00000000 0.01482995
v -0.47392113 -0.14790060 -0.10228717
v -0.47392113 -0.14790060 0.01482995
v -0.39883003 -0.27796221 -0.10228717
v -0.39883003 -0.27796221 0.01482995
v -0.28378378 -0.37449747 -0.10228717
v -0.28378378 -0.37449747 0.01482995
v -0.14265867 -0.42586281 -0.10228717
v -0.14265867 -0.42586281 0.01482995
v 0.00752354 -0.42586281 -0.10228717
v 0.00752354 -0.42586281 0.01482995
v 0.14864865 -0.37449747 -0.10228717
v 0.14864865 -0.37449747 0.01482995
v 0.26369489 -0.27796221 -0.10228717
v 0.26369489 -0.27796221 0.01482995
v 0.33878600 -0.14790060 -0.10228717
v 0.33878600 -0.14790060 0.01482995
v -0.35585586 -0.07207207 0.03735247
v -0.35585586 -0.07207207 0.00582094
v 0.22072072 0.07207207 0.00582094
v 0.22072072 0.07207207 0.03735247
v -0.36126347 -0.05044162 0.01505631
v 0.21531311 0.09370252 0.01505631
v -0.36350338 -0.04148199 0.03735247
v 0.21307320 0.10266215 0.03735247
v -0.36126347 -0.05044162 0.05964863
v 0.21531311 0.09370252 0.05964863
v -0.35585586 -0.07207207 0.06888400
v 0.22072072 0.07207207 0.06888400
v -0.35044824 -0.09370252 0.05964863
v 0.22612833 0.05044162 0.05964863
v -0.34820834 -0.10266215 0.03735247
v 0.22836824 0.04148199 0.03735247
v -0.35044824 -0.09370252 0.01505631
v 0.22612833 0.05044162 0.01505631
v 0.24774775 0.08108108 0.03735247
v 0.24774775 0.08108108 -0.03471960
v 0.50000000 0.08108108 0.03735247
v 0.24774775 0.13742930 -0.00758373
v 0.24774775 0.15134616 0.05339002
v 0.24774775 0.11235198 0.10228717
v 0.24774775 0.04981018 0.10228717
v 0.24774775 0.01081601 0.05339002
v 0.24774775 0.02473287 -0.00758373
f 2 1 5
f 2 5 3
f 3 5 6
f 3 6 4
f 5 1 7
f 5 7 6
f 6 7 8
f 6 8 4
f 7 1 9
f 7 9 8
f 8 9 10
f 8 10 4
f 9 1 11
f 9 11 10
f 10 11 12
f 10 12 4
f 11 1 13
f 11 13 12
f 12 13 14
f 12 14 4
f 13 1 15
f 13 15 14
f 14 15 16
f 14 16 4
f 15 1 17
f 15 17 16
f 16 17 18
f 16 18 4
f 17 1 19
f 17 19 18
f 18 19 20
f 18 20 4
f 19 1 21
f 19 21 20
f 20 21 22
f 20 22 4
f 21 1 23
f 21 23 22
f 22 23 24
f 22 24 4
f 23 1 25
f 23 25 24
f 24 25 26
f 24 26 4
f 25 1 27
f 25 27 26
f 26 27 28
f 26 28 4
f 27 1 29
f 27 29 28
f 28 29 30
f 28 30 4
f 29 1 31
f 29 31 30
f 30 31 32
f 30 32 4
f 31 1 33
f 31 33 32
f 32 33 34
f 32 34 4
f 33 1 35
f 33 35 34
f 34 35 36
f 34 36 4
f 35 1 37
f 35 37 36
f 36 37 38
f 36 38 4
f 37 1 2
f 37 2 38
f 38 2 3
f 38 3 4
f 40 39 43
f 40 43 41
f 41 43 44
f 41 44 42
f 43 39 45
f 43 45 44
f 44 45 46
f 44 46 42
f 45 39 47
f 45 47 46
f 46 47 48
f 46 48 42
f 47 39 49
f 47 49 48
f 48 49 50
f 48 50 42
f 49 39 51
f 49 51 50
f 50 51 52
f 50 52 42
f 51 39 53
f 51 53 52
f 52 53 54
f 52 54 42
f 53 39 55
f 53 55 54
f 54 55 56
f 54 56 42
f 55 39 40
f 55 40 56
f 56 40 41
f 56 41 42
f 58 57 60
f 58 60 59
f 60 57 61
f 60 61 59
f 61 57 62
f 61 62 59
f 62 57 63
f 62 63 59
f 63 57 64
f 63 64 59
f 64 57 65
f 64 65 59
f 65 57 58
f 65 58 59

