# https://github.com/mikedh/trimesh
v 0.50000000 0.00000000 0.00000000
v 0.47415648 0.00000000 0.06239177
v 0.41176471 0.00000000 0.08823529
v 0.34937293 0.00000000 0.06239177
v 0.32352941 0.00000000 0.00000000
v 0.34937293 0.00000000 -0.06239177
v 0.41176471 0.00000000 -0.08823529
v 0.47415648 0.00000000 -0.06239177
v 0.46193977 0.19134172 0.00000000
v 0.43806347 0.18145183 0.06239177
v 0.38042098 0.15757553 0.08823529
v 0.32277850 0.13369923 0.06239177
v 0.29890220 0.12380935 0.00000000
v 0.32277850 0.13369923 -0.06239177
v 0.38042098 0.15757553 -0.08823529
v 0.43806347 0.18145183 -0.06239177
v 0.35355339 0.35355339 0.00000000
v 0.33527926 0.33527926 0.06239177
v 0.29116162 0.29116162 0.08823529
v 0.24704397 0.24704397 0.06239177
v 0.22876984 0.22876984 0.00000000
v 0.24704397 0.24704397 -0.06239177
v 0.29116162 0.29116162 -0.08823529
v 0.33527926 0.33527926 -0.06239177
v 0.19134172 0.46193977 0.00000000
v 0.18145183 0.43806347 0.06239177
v 0.15757553 0.38042098 0.08823529
v 0.13369923 0.32277850 0.06239177
v 0.12380935 0.29890220 0.00000000
v 0.13369923 0.32277850 -0.06239177
v 0.15757553 0.38042098 -0.08823529
v 0.18145183 0.43806347 -0.06239177
v 0.00000000 0.50000000 0.00000000
v 0.00000000 0.47415648 0.06239177
v 0.00000000 0.41176471 0.08823529
v 0.00000000 0.34937293 0.06239177
v 0.00000000 0.32352941 0.00000000
v 0.00000000 0.34937293 -0.06239177
v 0.00000000 0.41176471 -0.08823529
v 0.00000000 0.47415648 -0.06239177
v -0.19134172 0.46193977 0.00000000
v -0.18145183 0.43806347 0.06239177
v -0.15757553 0.38042098 0.08823529
v -0.13369923 0.32277850 0.06239177
v -0.12380935 0.29890220 0.00000000
v -0.13369923 0.32277850 -0.06239177
v -0.15757553 0.38042098 -0.08823529
v -0.18145183 0.43806347 -0.06239177
v -0.35355339 0.35355339 0.00000000
v -0.33527926 0.33527926 0.06239177
v -0.29116162 0.29116162 0.08823529
v -0.24704397 0.24704397 0.06239177
v -0.22876984 0.22876984 0.00000000
v -0.24704397 0.24704397 -0.06239177
v -0.29116162 0.29116162 -0.08823529
v -0.33527926 0.33527926 -0.06239177
v -0.46193977 0.19134172 0.00000000
v -0.43806347 0.18145183 0.06239177
v -0.38042098 0.15757553 0.08823529
v -0.32277850 0.13369923 0.06239177
v -0.29890220 0.12380935 0.00000000
v -0.32277850 0.13369923 -0.06239177
v -0.38042098 0.15757553 -0.08823529
v -0.43806347 0.18145183 -0.06239177
v -0.50000000 0.00000000 0.00000000
v -0.47415648 0.00000000 0.06239177
v -0.41176471 0.00000000 0.08823529
v -0.34937293 0.00000000 0.06239177
v -0.32352941 0.00000000 0.00000000
v -0.34937293 0.00000000 -0.06239177
v -0.41176471 0.00000000 -0.08823529
v -0.47415648 0.00000000 -0.06239177
v -0.46193977 -0.19134172 0.00000000
v -0.43806347 -0.18145183 0.06239177
v -0.38042098 -0.15757553 0.08823529
v -0.32277850 -0.13369923 0.06239177
v -0.29890220 -0.12380935 0.00000000
v -0.32277850 -0.13369923 -0.06239177
v -0.38042098 -0.15757553 -0.08823529
v -0.43806347 -0.18145183 -0.06239177
v -0.35355339 -0.35355339 0.00000000
v -0.33527926 -0.33527926 0.06239177
v -0.29116162 -0.29116162 0.08823529
v -0.24704397 -0.24704397 0.06239177
v -0.22876984 -0.22876984 0.00000000
v -0.24704397 -0.24704397 -0.06239177
v -0.29116162 -0.29116162 -0.08823529
v -0.33527926 -0.33527926 -0.06239177
v -0.19134172 -0.46193977 0.00000000
v -0.18145183 -0.43806347 0.06239177
v -0.15757553 -0.38042098 0.08823529
v -0.13369923 -0.32277850 0.06239177
v -0.12380935 -0.29890220 0.00000000
v -0.13369923 -0.32277850 -0.06239177
v -0.15757553 -0.38042098 -0.08823529
v -0.18145183 -0.43806347 -0.06239177
v -0.00000000 -0.50000000 0.00000000
v -0.00000000 -0.47415648 0.06239177
v -0.00000000 -0.41176471 0.08823529
v -0.00000000 -0.34937293 0.06239177
v -0.00000000 -0.32352941 0.00000000
v -0.00000000 -0.34937293 -0.06239177
v -0.00000000 -0.41176471 -0.08823529
v -0.00000000 -0.47415648 -0.06239177
v 0.19134172 -0.46193977 0.00000000
v 0.18145183 -0.43806347 0.06239177
v 0.15757553 -0.38042098 0.08823529
v 0.13369923 -0.32277850 0.06239177
v 0.12380935 -0.29890220 0.00000000
v 0.13369923 -0.32277850 -0.06239177
v 0.15757553 -0.38042098 -0.08823529
v 0.18145183 -0.43806347 -0.06239177
v 0.35355339 -0.35355339 0.00000000
v 0.33527926 -0.33527926 0.06239177
v 0.29116162 -0.29116162 0.08823529
v 0.24704397 -0.24704397 0.06239177
v 0.22876984 -0.22876984 0.00000000
v 0.24704397 -0.24704397 -0.06239177
v 0.29116162 -0.29116162 -0.08823529
v 0.33527926 -0.33527926 -0.06239177
v 0.46193977 -0.19134172 0.00000000
v 0.43806347 -0.18145183 0.06239177
v 0.38042098 -0.15757553 0.08823529
v 0.32277850 -0.13369923 0.06239177
v 0.29890220 -0.12380935 0.00000000
v 0.32277850 -0.13369923 -0.06239177
v 0.38042098 -0.15757553 -0.08823529
v 0.43806347 -0.18145183 -0.06239177
v 0.00000000 0.00000000 -0.02941176
v 0.30392157 0.00000000 -0.02941176
v 0.30392157 0.00000000 0.02941176
v 0.00000000 0.00000000 0.02941176
v 0.28078692 0.11630575 -0.02941176
v 0.28078692 0.11630575 0.02941176
v 0.21490500 0.21490500 -0.02941176
v 0.21490500 0.21490500 0.02941176
v 0.11630575 0.28078692 -0.02941176
v 0.11630575 0.28078692 0.02941176
v 0.00000000 0.30392157 -0.02941176
v 0.00000000 0.30392157 0.02941176
v -0.11630575 0.28078692 -0.02941176
v -0.11630575 0.28078692 0.02941176
v -0.21490500 0.21490500 -0.02941176
v -0.21490500 0.21490500 0.02941176
v -0.28078692 0.11630575 -0.02941176
v -0.28078692 0.11630575 0.02941176
v -0.30392157 0.00000000 -0.02941176
v -0.30392157 0.00000000 0.02941176
v -0.28078692 -0.11630575 -0.02941176
v -0.28078692 -0.11630575 0.02941176
v -0.21490500 -0.21490500 -0.02941176
v -0.21490500 -0.21490500 0.02941176
v -0.11630575 -0.28078692 -0.02941176
v -0.11630575 -0.28078692 0.02941176
v -0.00000000 -0.30392157 -0.02941176
v -0.00000000 -0.30392157 0.02941176
v 0.11630575 -0.28078692 -0.02941176
v 0.11630575 -0.28078692 0.02941176
v 0.21490500 -0.21490500 -0.02941176
v 0.21490500 -0.21490500 0.02941176
v 0.28078692 -0.11630575 -0.02941176
v 0.28078692 -0.11630575 0.02941176
f 1 9 2
f 2 9 10
f 2 10 3
f 3 10 11
f 3 11 4
f 4 11 12
f 4 12 5
f 5 12 13
f 5 13 6
f 6 13 14
f 6 14 7
f 7 14 15
f 7 15 8
f 8 15 16
f 8 16 1
f 1 16 9
f 9 17 10
f 10 17 18
f 10 18 11
f 11 18 19
f 11 19 12
f 12 19 20
f 12 20 13
f 13 20 21
f 13 21 14
f 14 21 22
f 14 22 15
f 15 22 23
f 15 23 16
f 16 23 24
f 16 24 9
f 9 24 17
f 17 25 18
f 18 25 26
f 18 26 19
f 19 26 27
f 19 27 20
f 20 27 28
f 20 28 21
f 21 28 29
f 21 29 22
f 22 29 30
f 22 30 23
f 23 30 31
f 23 31 24
f 24 31 32
f 24 32 17
f 17 32 25
f 25 33 26
f 26 33 34
f 26 34 27
f 27 34 35
f 27 35 28
f 28 35 36
f 28 36 29
f 29 36 37
f 29 37 30
f 30 37 38
f 30 38 31
f 31 38 39
f 31 39 32
f 32 39 40
f 32 40 25
f 25 40 33
f 33 41 34
f 34 41 42
f 34 42 35
f 35 42 43
f 35 43 36
f 36 43 44
f 36 44 37
f 37 44 45
f 37 45 38
f 38 45 46
f 38 46 39
f 39 46 47
f 39 47 40
f 40 47 48
f 40 48 33
f 33 48 41
f 41 49 42
f 42 49 50
f 42 50 43
f 43 50 51
f 43 51 44
f 44 51 52
f 44 52 45
f 45 52 53
f 45 53 46
f 46 53 54
f 46 54 47
f 47 54 55
f 47 55 48
f 48 55 56
f 48 56 41
f 41 56 49
f 49 57 50
f 50 57 58
f 50 58 51
f 51 58 59
f 51 59 52
f 52 59 60
f 52 60 53
f 53 60 61
f 53 61 54
f 54 61 62
f 54 62 55
f 55 62 63
f 55 63 56
f 56 63 64
f 56 64 49
f 49 64 57
f 57 65 58
f 58 65 66
f 58 66 59
f 59 66 67
f 59 67 60
f 60 67 68
f 60 68 61
f 61 68 69
f 61 69 62
f 62 69 70
f 62 70 63
f 63 70 71
f 63 71 64
f 64 71 72
f 64 72 57
f 57 72 65
f 65 73 66
f 66 73 74
f 66 74 67
f 67 74 75
f 67 75 68
f 68 75 76
f 68 76 69
f 69 76 77
f 69 77 70
f 70 77 78
f 70 78 71
f 71 78 79
f 71 79 72
f 72 79 80
f 72 80 65
f 65 80 73
f 73 81 74
f 74 81 82
f 74 82 75
f 75 82 83
f 75 83 76
f 76 83 84
f 76 84 77
f 77 84 85
f 77 85 78
f 78 85 86
f 78 86 79
f 79 86 87
f 79 87 80
f 80 87 88
f 80 88 73
f 73 88 81
f 81 89 82
f 82 89 90
f 82 90 83
f 83 90 91
f 83 91 84
f 84 91 92
f 84 92 85
f 85 92 93
f 85 93 86
f 86 93 94
f 86 94 87
f 87 94 95
f 87 95 88
f 88 95 96
f 88 96 81
f 81 96 89
f 89 97 90
f 90 97 98
f 90 98 91
f 91 98 99
f 91 99 92
f 92 99 100
f 92 100 93
f 93 100 101
f 93 101 94
f 94 101 102
f 94 102 95
f 95 102 103
f 95 103 96
f 96 103 104
f 96 104 89
f 89 104 97
f 97 105 98
f 98 105 106
f 98 106 99
f 99 106 107
f 99 107 100
f 100 107 108
f 100 108 101
f 101 108 109
f 101 109 102
f 102 109 110
f 102 110 103
f 103 110 111
f 103 111 104
f 104 111 112
f 104 112 97
f 97 112 105
f 105 113 106
f 106 113 114
f 106 114 107
f 107 114 115
f 107 115 108
f 108 115 116
f 108 116 109
f 109 116 117
f 109 117 110
f 110 117 118
f 110 118 111
f 111 118 119
f 111 119 112
f 112 119 120
f 112 120 105
f 105 120 113
f 113 121 114
f 114 121 122
f 114 122 115
f 115 122 123
f 115 123 116
f 116 123 124
f 116 124 117
f 117 124 125
f 117 125 118
f 118 125 126
f 118 126 119
f 119 126 127
f 119 127 120
f 120 127 128
f 120 128 113
f 113 128 121
f 121 1 122
f 122 1 2
f 122 2 123
f 123 2 3
f 123 3 124
f 124 3 4
f 124 4 125
f 125 4 5
f 125 5 126
f 126 5 6
f 126 6 127
f 127 6 7
f 127 7 128
f 128 7 8
f 128 8 121
f 121 8 1
f 130 129 133
f 130 133 131
f 131 133 134
f 131 134 132
f 133 129 135
f 133 135 134
f 134 135 136
f 134 136 132
f 135 129 137
f 135 137 136
f 136 137 138
f 136 138 132
f 137 129 139
f 137 139 138
f 138 139 140
f 138 140 132
f 139 129 141
f 139 141 140
f 140 141 142
f 140 142 132
f 141 129 143
f 141 143 142
f 142 143 144
f 142 144 132
f 143 129 145
f 143 145 144
f 144 145 146
f 144 146 132
f 145 129 147
f 145 147 146
f 146 147 148
f 146 148 132
f 147 129 149
f 147 149 148
f 148 149 150
f 148 150 132
f 149 129 151
f 149 151 150
f 150 151 152
f 150 152 132
f 151 129 153
f 151 153 152
f 152 153 154
f 152 154 132
f 153 129 155
f 153 155 154
f 154 155 156
f 154 156 132
f 155 129 157
f 155 157 156
f 156 157 158
f 156 158 132
f 157 129 159
f 157 159 158
f 158 159 160
f 158 160 132
f 159 129 161
f 159 161 160
f 160 161 162
f 160 162 132
f 161 129 130
f 161 130 162
f 162 130 131
f 162 131 132

