# https://github.com/mikedh/trimesh
v -0.00000000 0.03571429 -0.00000000
v 0.50000000 0.03571429 -0.00000000
v 0.50000000 -0.20238095 0.00000000
v -0.00000000 -0.20238095 0.00000000
v 0.43301270 0.03571429 0.25000000
v 0.43301270 -0.20238095 0.25000000
v 0.25000000 0.03571429 0.43301270
v 0.25000000 -0.20238095 0.43301270
v -0.00000000 0.03571429 0.50000000
v -0.00000000 -0.20238095 0.50000000
v -0.25000000 0.03571429 0.43301270
v -0.25000000 -0.20238095 0.43301270
v -0.43301270 0.03571429 0.25000000
v -0.43301270 -0.20238095 0.25000000
v -0.50000000 0.03571429 0.00000000
v -0.50000000 -0.20238095 0.00000000
v -0.43301270 0.03571429 -0.25000000
v -0.43301270 -0.20238095 -0.25000000
v -0.25000000 0.03571429 -0.43301270
v -0.25000000 -0.20238095 -0.43301270
v -0.00000000 0.03571429 -0.50000000
v -0.00000000 -0.20238095 -0.50000000
v 0.25000000 0.03571429 -0.43301270
v 0.25000000 -0.20238095 -0.43301270
v 0.43301270 0.03571429 -0.25000000
v 0.43301270 -0.20238095 -0.25000000
v -0.38095238 0.29761905 0.00000000
v -0.26190476 0.29761905 0.00000000
v -0.38095238 -0.15476190 0.00000000
v -0.30672740 0.29761905 0.09307518
v -0.40744297 0.29761905 0.11606285
v -0.48821058 0.29761905 0.05165283
v -0.48821058 0.29761905 -0.05165283
v -0.40744297 0.29761905 -0.11606285
v -0.30672740 0.29761905 -0.09307518
v -0.19047619 0.29761905 0.00000000
v -0.07142857 0.29761905 0.00000000
v -0.19047619 -0.15476190 0.00000000
v -0.11625121 0.29761905 0.09307518
v -0.21696678 0.29761905 0.11606285
v -0.29773439 0.29761905 0.05165283
v -0.29773439 0.29761905 -0.05165283
v -0.21696678 0.29761905 -0.11606285
v -0.11625121 0.29761905 -0.09307518
v -0.00000000 0.29761905 0.00000000
v 0.11904762 0.29761905 0.00000000
v -0.00000000 -0.29761905 0.00000000
v 0.07422498 0.29761905 0.09307518
v -0.02649059 0.29761905 0.11606285
v -0.10725820 0.29761905 0.05165283
v -0.10725820 0.29761905 -0.05165283
v -0.02649059 0.29761905 -0.11606285
v 0.07422498 0.29761905 -0.09307518
v 0.19047619 0.29761905 0.00000000
v 0.30952381 0.29761905 0.00000000
v 0.19047619 -0.15476190 0.00000000
v 0.26470117 0.29761905 0.09307518
v 0.16398560 0.29761905 0.11606285
v 0.08321799 0.29761905 0.05165283
v 0.08321799 0.29761905 -0.05165283
v 0.16398560 0.29761905 -0.11606285
v 0.26470117 0.29761905 -0.09307518
v 0.38095238 0.29761905 0.00000000
v 0.50000000 0.29761905 0.00000000
v 0.38095238 -0.15476190 0.00000000
v 0.45517736 0.29761905 0.09307518
v 0.35446179 0.29761905 0.11606285
v 0.27369418 0.29761905 0.05165283
v 0.27369418 0.29761905 -0.05165283
v 0.35446179 0.29761905 -0.11606285
v 0.45517736 0.29761905 -0.09307518
f 2 1 5
f 2 5 3
f 3 5 6
f 3 6 4
f 5 1 7
f 5 7 6
f 6 7 8
f 6 8 4
f 7 1 9
f 7 9 8
f 8 9 10
f 8 10 4
f 9 1 11
f 9 11 10
f 10 11 12
f 10 12 4
f 11 1 13
f 11 13 12
f 12 13 14
f 12 14 4
f 13 1 15
f 13 15 14
f 14 15 16
f 14 16 4
f 15 1 17
f 15 17 16
f 16 17 18
f 16 18 4
f 17 1 19
f 17 19 18
f 18 19 20
f 18 20 4
f 19 1 21
f 19 21 20
f 20 21 22
f 20 22 4
f 21 1 23
f 21 23 22
f 22 23 24
f 22 24 4
f 23 1 25
f 23 25 24
f 24 25 26
f 24 26 4
f 25 1 2
f 25 2 26
f 26 2 3
f 26 3 4
f 28 27 30
f 28 30 29
f 30 27 31
f 30 31 29
f 31 27 32
f 31 32 29
f 32 27 33
f 32 33 29
f 33 27 34
f 33 34 29
f 34 27 35
f 34 35 29
f 35 27 28
f 35 28 29
f 37 36 39
f 37 39 38
f 39 36 40
f 39 40 38
f 40 36 41
f 40 41 38
f 41 36 42
f 41 42 38
f 42 36 43
f 42 43 38
f 43 36 44
f 43 44 38
f 44 36 37
f 44 37 38
f 46 45 48
f 46 48 47
f 48 45 49
f 48 49 47
f 49 45 50
f 49 50 47
f 50 45 51
f 50 51 47
f 51 45 52
f 51 52 47
f 52 45 53
f 52 53 47
f 53 45 46
f 53 46 47
f 55 54 57
f 55 57 56
f 57 54 58
f 57 58 56
f 58 54 59
f 58 59 56
f 59 54 60
f 59 60 56
f 60 54 61
f 60 61 56
f 61 54 62
f 61 62 56
f 62 54 55
f 62 55 56
f 64 63 66
f 64 66 65
f 66 63 67
f 66 67 65
f 67 63 68
f 67 68 65
f 68 63 69
f 68 69 65
f 69 63 70
f 69 70 65
f 70 63 71
f 70 71 65
f 71 63 64
f 71 64 65

