# https://github.com/mikedh/trimesh
v 0.00000000 -0.07142857 0.00000000
v 0.38095238 -0.07142857 0.00000000
v 0.00000000 0.50000000 -0.00000000
v 0.34322624 -0.07142857 -0.16528904
v 0.23751992 -0.07142857 -0.29784056
v 0.08476988 -0.07142857 -0.37140111
v -0.08476988 -0.07142857 -0.37140111
v -0.23751992 -0.07142857 -0.29784056
v -0.34322624 -0.07142857 -0.16528904
v -0.38095238 -0.07142857 -0.00000000
v -0.34322624 -0.07142857 0.16528904
v -0.23751992 -0.07142857 0.29784056
v -0.08476988 -0.07142857 0.37140111
v 0.08476988 -0.07142857 0.37140111
v 0.23751992 -0.07142857 0.29784056
v 0.34322624 -0.07142857 0.16528904
v 0.38095238 -0.35714286 0.00000000
v 0.36700508 -0.39081461 0.00000000
v 0.33333333 -0.40476190 0.00000000
v 0.29966158 -0.39081461 0.00000000
v 0.28571429 -0.35714286 0.00000000
v 0.29966158 -0.32347111 -0.00000000
v 0.33333333 -0.30952381 -0.00000000
v 0.36700508 -0.32347111 -0.00000000
v 0.35195411 -0.35714286 0.14578416
v 0.33906849 -0.39081461 0.14044677
v 0.30795984 -0.40476190 0.12756114
v 0.27685120 -0.39081461 0.11467552
v 0.26396558 -0.35714286 0.10933812
v 0.27685120 -0.32347111 0.11467552
v 0.30795984 -0.30952381 0.12756114
v 0.33906849 -0.32347111 0.14044677
v 0.26937401 -0.35714286 0.26937401
v 0.25951178 -0.39081461 0.25951178
v 0.23570226 -0.40476190 0.23570226
v 0.21189274 -0.39081461 0.21189274
v 0.20203051 -0.35714286 0.20203051
v 0.21189274 -0.32347111 0.21189274
v 0.23570226 -0.30952381 0.23570226
v 0.25951178 -0.32347111 0.25951178
v 0.14578416 -0.35714286 0.35195411
v 0.14044677 -0.39081461 0.33906849
v 0.12756114 -0.40476190 0.30795984
v 0.11467552 -0.39081461 0.27685120
v 0.10933812 -0.35714286 0.26396558
v 0.11467552 -0.32347111 0.27685120
v 0.12756114 -0.30952381 0.30795984
v 0.14044677 -0.32347111 0.33906849
v 0.00000000 -0.35714286 0.38095238
v 0.00000000 -0.39081461 0.36700508
v 0.00000000 -0.40476190 0.33333333
v 0.00000000 -0.39081461 0.29966158
v 0.00000000 -0.35714286 0.28571429
v 0.00000000 -0.32347111 0.29966158
v 0.00000000 -0.30952381 0.33333333
v 0.00000000 -0.32347111 0.36700508
v -0.14578416 -0.35714286 0.35195411
v -0.14044677 -0.39081461 0.33906849
v -0.12756114 -0.40476190 0.30795984
v -0.11467552 -0.39081461 0.27685120
v -0.10933812 -0.35714286 0.26396558
v -0.11467552 -0.32347111 0.27685120
v -0.12756114 -0.30952381 0.30795984
v -0.14044677 -0.32347111 0.33906849
v -0.26937401 -0.35714286 0.26937401
v -0.25951178 -0.39081461 0.25951178
v -0.23570226 -0.40476190 0.23570226
v -0.21189274 -0.39081461 0.21189274
v -0.20203051 -0.35714286 0.20203051
v -0.21189274 -0.32347111 0.21189274
v -0.23570226 -0.30952381 0.23570226
v -0.25951178 -0.32347111 0.25951178
v -0.35195411 -0.35714286 0.14578416
v -0.33906849 -0.39081461 0.14044677
v -0.30795984 -0.40476190 0.12756114
v -0.27685120 -0.39081461 0.11467552
v -0.26396558 -0.35714286 0.10933812
v -0.27685120 -0.32347111 0.11467552
v -0.30795984 -0.30952381 0.12756114
v -0.33906849 -0.32347111 0.14044677
v -0.38095238 -0.35714286 0.00000000
v -0.36700508 -0.39081461 0.00000000
v -0.33333333 -0.40476190 0.00000000
v -0.29966158 -0.39081461 0.00000000
v -0.28571429 -0.35714286 0.00000000
v -0.29966158 -0.32347111 0.00000000
v -0.33333333 -0.30952381 0.00000000
v -0.36700508 -0.32347111 0.00000000
v -0.35195411 -0.35714286 -0.14578416
v -0.33906849 -0.39081461 -0.14044677
v -0.30795984 -0.40476190 -0.12756114
v -0.27685120 -0.39081461 -0.11467552
v -0.26396558 -0.35714286 -0.10933812
v -0.27685120 -0.32347111 -0.11467552
v -0.30795984 -0.30952381 -0.12756114
v -0.33906849 -0.32347111 -0.14044677
v -0.26937401 -0.35714286 -0.26937401
v -0.25951178 -0.39081461 -0.25951178
v -0.23570226 -0.40476190 -0.23570226
v -0.21189274 -0.39081461 -0.21189274
v -0.20203051 -0.35714286 -0.20203051
v -0.21189274 -0.32347111 -0.21189274
v -0.23570226 -0.30952381 -0.23570226
v -0.25951178 -0.32347111 -0.25951178
v -0.14578416 -0.35714286 -0.35195411
v -0.14044677 -0.39081461 -0.33906849
v -0.12756114 -0.40476190 -0.30795984
v -0.11467552 -0.39081461 -0.27685120
v -0.10933812 -0.35714286 -0.26396558
v -0.11467552 -0.32347111 -0.27685120
v -0.12756114 -0.30952381 -0.30795984
v -0.14044677 -0.32347111 -0.33906849
v -0.00000000 -0.35714286 -0.38095238
v -0.00000000 -0.39081461 -0.36700508
v -0.00000000 -0.40476190 -0.33333333
v -0.00000000 -0.39081461 -0.29966158
v -0.00000000 -0.35714286 -0.28571429
v -0.00000000 -0.32347111 -0.29966158
v -0.00000000 -0.30952381 -0.33333333
v -0.00000000 -0.32347111 -0.36700508
v 0.14578416 -0.35714286 -0.35195411
v 0.14044677 -0.39081461 -0.33906849
v 0.12756114 -0.40476190 -0.30795984
v 0.11467552 -0.39081461 -0.27685120
v 0.10933812 -0.35714286 -0.26396558
v 0.11467552 -0.32347111 -0.27685120
v 0.12756114 -0.30952381 -0.30795984
v 0.14044677 -0.32347111 -0.33906849
v 0.26937401 -0.35714286 -0.26937401
v 0.25951178 -0.39081461 -0.25951178
v 0.23570226 -0.40476190 -0.23570226
v 0.21189274 -0.39081461 -0.21189274
v 0.20203051 -0.35714286 -0.20203051
v 0.21189274 -0.32347111 -0.21189274
v 0.23570226 -0.30952381 -0.23570226
v 0.25951178 -0.32347111 -0.25951178
v 0.35195411 -0.35714286 -0.14578416
v 0.33906849 -0.39081461 -0.14044677
v 0.30795984 -0.40476190 -0.12756114
v 0.27685120 -0.39081461 -0.11467552
v 0.26396558 -0.35714286 -0.10933812
v 0.27685120 -0.32347111 -0.11467552
v 0.30795984 -0.30952381 -0.12756114
v 0.33906849 -0.32347111 -0.14044677
v -0.04172469 -0.35312295 0.00000000
v 0.04172469 -0.35312295 0.00000000
v -0.04172469 -0.48814689 0.00000000
v 0.04172469 -0.48814689 0.00000000
v 0.00000000 -0.46235961 0.06751197
v 0.00000000 -0.37891023 0.06751197
v 0.00000000 -0.46235961 -0.06751197
v 0.00000000 -0.37891023 -0.06751197
v 0.06751197 -0.42063492 -0.04172469
v 0.06751197 -0.42063492 0.04172469
v -0.06751197 -0.42063492 -0.04172469
v -0.06751197 -0.42063492 0.04172469
v 0.00000000 -0.34126984 0.00000000
v 0.00000000 -0.50000000 0.00000000
v -0.02452516 -0.48484262 0.03968254
v 0.02452516 -0.48484262 0.03968254
v -0.02452516 -0.35642722 0.03968254
v 0.02452516 -0.35642722 0.03968254
v 0.00000000 -0.42063492 0.07936508
v -0.02452516 -0.48484262 -0.03968254
v 0.02452516 -0.48484262 -0.03968254
v -0.02452516 -0.35642722 -0.03968254
v 0.02452516 -0.35642722 -0.03968254
v 0.00000000 -0.42063492 -0.07936508
v 0.06420770 -0.38095238 -0.02452516
v 0.06420770 -0.46031746 -0.02452516
v 0.03968254 -0.44516008 -0.06420770
v 0.03968254 -0.39610976 -0.06420770
v 0.06420770 -0.38095238 0.02452516
v 0.06420770 -0.46031746 0.02452516
v 0.03968254 -0.44516008 0.06420770
v 0.03968254 -0.39610976 0.06420770
v 0.07936508 -0.42063492 0.00000000
v -0.06420770 -0.38095238 -0.02452516
v -0.06420770 -0.46031746 -0.02452516
v -0.03968254 -0.44516008 -0.06420770
v -0.03968254 -0.39610976 -0.06420770
v -0.06420770 -0.38095238 0.02452516
v -0.06420770 -0.46031746 0.02452516
v -0.03968254 -0.44516008 0.06420770
v -0.03968254 -0.39610976 0.06420770
v -0.07936508 -0.42063492 0.00000000
v 0.12301587 0.24603175 0.00000000
v 0.11487995 0.24603175 0.01964186
v 0.09523810 0.24603175 0.02777778
v 0.07559624 0.24603175 0.01964186
v 0.06746032 0.24603175 0.00000000
v 0.07559624 0.24603175 -0.01964186
v 0.09523810 0.24603175 -0.02777778
v 0.11487995 0.24603175 -0.01964186
v 0.11365185 0.29310788 0.00000000
v 0.10613523 0.28999440 0.01964186
v 0.08798853 0.28247779 0.02777778
v 0.06984182 0.27496117 0.01964186
v 0.06232521 0.27184769 0.00000000
v 0.06984182 0.27496117 -0.01964186
v 0.08798853 0.28247779 -0.02777778
v 0.10613523 0.28999440 -0.01964186
v 0.08698536 0.33301710 0.00000000
v 0.08123239 0.32726414 0.01964186
v 0.06734350 0.31337525 0.02777778
v 0.05345461 0.29948636 0.01964186
v 0.04770165 0.29373339 0.00000000
v 0.05345461 0.29948636 -0.01964186
v 0.06734350 0.31337525 -0.02777778
v 0.08123239 0.32726414 -0.01964186
v 0.04707614 0.35968359 0.00000000
v 0.04396265 0.35216698 0.01964186
v 0.03644604 0.33402027 0.02777778
v 0.02892943 0.31587357 0.01964186
v 0.02581595 0.30835695 0.00000000
v 0.02892943 0.31587357 -0.01964186
v 0.03644604 0.33402027 -0.02777778
v 0.04396265 0.35216698 -0.01964186
v 0.00000000 0.36904762 0.00000000
v 0.00000000 0.36091170 0.01964186
v 0.00000000 0.34126984 0.02777778
v 0.00000000 0.32162799 0.01964186
v 0.00000000 0.31349206 0.00000000
v 0.00000000 0.32162799 -0.01964186
v 0.00000000 0.34126984 -0.02777778
v 0.00000000 0.36091170 -0.01964186
v -0.04707614 0.35968359 0.00000000
v -0.04396265 0.35216698 0.01964186
v -0.03644604 0.33402027 0.02777778
v -0.02892943 0.31587357 0.01964186
v -0.02581595 0.30835695 0.00000000
v -0.02892943 0.31587357 -0.01964186
v -0.03644604 0.33402027 -0.02777778
v -0.04396265 0.35216698 -0.01964186
v -0.08698536 0.33301710 0.00000000
v -0.08123239 0.32726414 0.01964186
v -0.06734350 0.31337525 0.02777778
v -0.05345461 0.29948636 0.01964186
v -0.04770165 0.29373339 0.00000000
v -0.05345461 0.29948636 -0.01964186
v -0.06734350 0.31337525 -0.02777778
v -0.08123239 0.32726414 -0.01964186
v -0.11365185 0.29310788 0.00000000
v -0.10613523 0.28999440 0.01964186
v -0.08798853 0.28247779 0.02777778
v -0.06984182 0.27496117 0.01964186
v -0.06232521 0.27184769 0.00000000
v -0.06984182 0.27496117 -0.01964186
v -0.08798853 0.28247779 -0.02777778
v -0.10613523 0.28999440 -0.01964186
v -0.12301587 0.24603175 0.00000000
v -0.11487995 0.24603175 0.01964186
v -0.09523810 0.24603175 0.02777778
v -0.07559624 0.24603175 0.01964186
v -0.06746032 0.24603175 0.00000000
v -0.07559624 0.24603175 -0.01964186
v -0.09523810 0.24603175 -0.02777778
v -0.11487995 0.24603175 -0.01964186
v -0.11365185 0.19895561 0.00000000
v -0.10613523 0.20206909 0.01964186
v -0.08798853 0.20958570 0.02777778
v -0.06984182 0.21710232 0.01964186
v -0.06232521 0.22021580 0.00000000
v -0.06984182 0.21710232 -0.01964186
v -0.08798853 0.20958570 -0.02777778
v -0.10613523 0.20206909 -0.01964186
v -0.08698536 0.15904639 0.00000000
v -0.08123239 0.16479935 0.01964186
v -0.06734350 0.17868824 0.02777778
v -0.05345461 0.19257713 0.01964186
v -0.04770165 0.19833010 0.00000000
v -0.05345461 0.19257713 -0.01964186
v -0.06734350 0.17868824 -0.02777778
v -0.08123239 0.16479935 -0.01964186
v -0.04707614 0.13237990 0.00000000
v -0.04396265 0.13989651 0.01964186
v -0.03644604 0.15804322 0.02777778
v -0.02892943 0.17618993 0.01964186
v -0.02581595 0.18370654 0.00000000
v -0.02892943 0.17618993 -0.01964186
v -0.03644604 0.15804322 -0.02777778
v -0.04396265 0.13989651 -0.01964186
v -0.00000000 0.12301587 0.00000000
v -0.00000000 0.13115180 0.01964186
v -0.00000000 0.15079365 0.02777778
v -0.00000000 0.17043551 0.01964186
v -0.00000000 0.17857143 0.00000000
v -0.00000000 0.17043551 -0.01964186
v -0.00000000 0.15079365 -0.02777778
v -0.00000000 0.13115180 -0.01964186
v 0.04707614 0.13237990 0.00000000
v 0.04396265 0.13989651 0.01964186
v 0.03644604 0.15804322 0.02777778
v 0.02892943 0.17618993 0.01964186
v 0.02581595 0.18370654 0.00000000
v 0.02892943 0.17618993 -0.01964186
v 0.03644604 0.15804322 -0.02777778
v 0.04396265 0.13989651 -0.01964186
v 0.08698536 0.15904639 0.00000000
v 0.08123239 0.16479935 0.01964186
v 0.06734350 0.17868824 0.02777778
v 0.05345461 0.19257713 0.01964186
v 0.04770165 0.19833010 0.00000000
v 0.05345461 0.19257713 -0.01964186
v 0.06734350 0.17868824 -0.02777778
v 0.08123239 0.16479935 -0.01964186
v 0.11365185 0.19895561 0.00000000
v 0.10613523 0.20206909 0.01964186
v 0.08798853 0.20958570 0.02777778
v 0.06984182 0.21710232 0.01964186
v 0.06232521 0.22021580 0.00000000
v 0.06984182 0.21710232 -0.01964186
v 0.08798853 0.20958570 -0.02777778
v 0.10613523 0.20206909 -0.01964186
f 2 1 4
f 2 4 3
f 4 1 5
f 4 5 3
f 5 1 6
f 5 6 3
f 6 1 7
f 6 7 3
f 7 1 8
f 7 8 3
f 8 1 9
f 8 9 3
f 9 1 10
f 9 10 3
f 10 1 11
f 10 11 3
f 11 1 12
f 11 12 3
f 12 1 13
f 12 13 3
f 13 1 14
f 13 14 3
f 14 1 15
f 14 15 3
f 15 1 16
f 15 16 3
f 16 1 2
f 16 2 3
f 17 25 18
f 18 25 26
f 18 26 19
f 19 26 27
f 19 27 20
f 20 27 28
f 20 28 21
f 21 28 29
f 21 29 22
f 22 29 30
f 22 30 23
f 23 30 31
f 23 31 24
f 24 31 32
f 24 32 17
f 17 32 25
f 25 33 26
f 26 33 34
f 26 34 27
f 27 34 35
f 27 35 28
f 28 35 36
f 28 36 29
f 29 36 37
f 29 37 30
f 30 37 38
f 30 38 31
f 31 38 39
f 31 39 32
f 32 39 40
f 32 40 25
f 25 40 33
f 33 41 34
f 34 41 42
f 34 42 35
f 35 42 43
f 35 43 36
f 36 43 44
f 36 44 37
f 37 44 45
f 37 45 38
f 38 45 46
f 38 46 39
f 39 46 47
f 39 47 40
f 40 47 48
f 40 48 33
f 33 48 41
f 41 49 42
f 42 49 50
f 42 50 43
f 43 50 51
f 43 51 44
f 44 51 52
f 44 52 45
f 45 52 53
f 45 53 46
f 46 53 54
f 46 54 47
f 47 54 55
f 47 55 48
f 48 55 56
f 48 56 41
f 41 56 49
f 49 57 50
f 50 57 58
f 50 58 51
f 51 58 59
f 51 59 52
f 52 59 60
f 52 60 53
f 53 60 61
f 53 61 54
f 54 61 62
f 54 62 55
f 55 62 63
f 55 63 56
f 56 63 64
f 56 64 49
f 49 64 57
f 57 65 58
f 58 65 66
f 58 66 59
f 59 66 67
f 59 67 60
f 60 67 68
f 60 68 61
f 61 68 69
f 61 69 62
f 62 69 70
f 62 70 63
f 63 70 71
f 63 71 64
f 64 71 72
f 64 72 57
f 57 72 65
f 65 73 66
f 66 73 74
f 66 74 67
f 67 74 75
f 67 75 68
f 68 75 76
f 68 76 69
f 69 76 77
f 69 77 70
f 70 77 78
f 70 78 71
f 71 78 79
f 71 79 72
f 72 79 80
f 72 80 65
f 65 80 73
f 73 81 74
f 74 81 82
f 74 82 75
f 75 82 83
f 75 83 76
f 76 83 84
f 76 84 77
f 77 84 85
f 77 85 78
f 78 85 86
f 78 86 79
f 79 86 87
f 79 87 80
f 80 87 88
f 80 88 73
f 73 88 81
f 81 89 82
f 82 89 90
f 82 90 83
f 83 90 91
f 83 91 84
f 84 91 92
f 84 92 85
f 85 92 93
f 85 93 86
f 86 93 94
f 86 94 87
f 87 94 95
f 87 95 88
f 88 95 96
f 88 96 81
f 81 96 89
f 89 97 90
f 90 97 98
f 90 98 91
f 91 98 99
f 91 99 92
f 92 99 100
f 92 100 93
f 93 100 101
f 93 101 94
f 94 101 102
f 94 102 95
f 95 102 103
f 95 103 96
f 96 103 104
f 96 104 89
f 89 104 97
f 97 105 98
f 98 105 106
f 98 106 99
f 99 106 107
f 99 107 100
f 100 107 108
f 100 108 101
f 101 108 109
f 101 109 102
f 102 109 110
f 102 110 103
f 103 110 111
f 103 111 104
f 104 111 112
f 104 112 97
f 97 112 105
f 105 113 106
f 106 113 114
f 106 114 107
f 107 114 115
f 107 115 108
f 108 115 116
f 108 116 109
f 109 116 117
f 109 117 110
f 110 117 118
f 110 118 111
f 111 118 119
f 111 119 112
f 112 119 120
f 112 120 105
f 105 120 113
f 113 121 114
f 114 121 122
f 114 122 115
f 115 122 123
f 115 123 116
f 116 123 124
f 116 124 117
f 117 124 125
f 117 125 118
f 118 125 126
f 118 126 119
f 119 126 127
f 119 127 120
f 120 127 128
f 120 128 113
f 113 128 121
f 121 129 122
f 122 129 130
f 122 130 123
f 123 130 131
f 123 131 124
f 124 131 132
f 124 132 125
f 125 132 133
f 125 133 126
f 126 133 134
f 126 134 127
f 127 134 135
f 127 135 128
f 128 135 136
f 128 136 121
f 121 136 129
f 129 137 130
f 130 137 138
f 130 138 131
f 131 138 139
f 131 139 132
f 132 139 140
f 132 140 133
f 133 140 141
f 133 141 134
f 134 141 142
f 134 142 135
f 135 142 143
f 135 143 136
f 136 143 144
f 136 144 129
f 129 144 137
f 137 17 138
f 138 17 18
f 138 18 139
f 139 18 19
f 139 19 140
f 140 19 20
f 140 20 141
f 141 20 21
f 141 21 142
f 142 21 22
f 142 22 143
f 143 22 23
f 143 23 144
f 144 23 24
f 144 24 137
f 137 24 17
f 145 182 161
f 182 156 185
f 161 185 150
f 182 185 161
f 145 161 157
f 161 150 162
f 157 162 146
f 161 162 157
f 145 157 166
f 157 146 167
f 166 167 152
f 157 167 166
f 145 166 178
f 166 152 181
f 178 181 155
f 166 181 178
f 145 178 182
f 178 155 186
f 182 186 156
f 178 186 182
f 146 162 173
f 162 150 176
f 173 176 154
f 162 176 173
f 150 185 163
f 185 156 184
f 163 184 149
f 185 184 163
f 156 186 183
f 186 155 179
f 183 179 147
f 186 179 183
f 155 181 180
f 181 152 168
f 180 168 151
f 181 168 180
f 152 167 172
f 167 146 169
f 172 169 153
f 167 169 172
f 148 174 160
f 174 154 175
f 160 175 149
f 174 175 160
f 148 160 158
f 160 149 159
f 158 159 147
f 160 159 158
f 148 158 165
f 158 147 164
f 165 164 151
f 158 164 165
f 148 165 170
f 165 151 171
f 170 171 153
f 165 171 170
f 148 170 174
f 170 153 177
f 174 177 154
f 170 177 174
f 149 175 163
f 175 154 176
f 163 176 150
f 175 176 163
f 147 159 183
f 159 149 184
f 183 184 156
f 159 184 183
f 151 164 180
f 164 147 179
f 180 179 155
f 164 179 180
f 153 171 172
f 171 151 168
f 172 168 152
f 171 168 172
f 154 177 173
f 177 153 169
f 173 169 146
f 177 169 173
f 187 195 188
f 188 195 196
f 188 196 189
f 189 196 197
f 189 197 190
f 190 197 198
f 190 198 191
f 191 198 199
f 191 199 192
f 192 199 200
f 192 200 193
f 193 200 201
f 193 201 194
f 194 201 202
f 194 202 187
f 187 202 195
f 195 203 196
f 196 203 204
f 196 204 197
f 197 204 205
f 197 205 198
f 198 205 206
f 198 206 199
f 199 206 207
f 199 207 200
f 200 207 208
f 200 208 201
f 201 208 209
f 201 209 202
f 202 209 210
f 202 210 195
f 195 210 203
f 203 211 204
f 204 211 212
f 204 212 205
f 205 212 213
f 205 213 206
f 206 213 214
f 206 214 207
f 207 214 215
f 207 215 208
f 208 215 216
f 208 216 209
f 209 216 217
f 209 217 210
f 210 217 218
f 210 218 203
f 203 218 211
f 211 219 212
f 212 219 220
f 212 220 213
f 213 220 221
f 213 221 214
f 214 221 222
f 214 222 215
f 215 222 223
f 215 223 216
f 216 223 224
f 216 224 217
f 217 224 225
f 217 225 218
f 218 225 226
f 218 226 211
f 211 226 219
f 219 227 220
f 220 227 228
f 220 228 221
f 221 228 229
f 221 229 222
f 222 229 230
f 222 230 223
f 223 230 231
f 223 231 224
f 224 231 232
f 224 232 225
f 225 232 233
f 225 233 226
f 226 233 234
f 226 234 219
f 219 234 227
f 227 235 228
f 228 235 236
f 228 236 229
f 229 236 237
f 229 237 230
f 230 237 238
f 230 238 231
f 231 238 239
f 231 239 232
f 232 239 240
f 232 240 233
f 233 240 241
f 233 241 234
f 234 241 242
f 234 242 227
f 227 242 235
f 235 243 236
f 236 243 244
f 236 244 237
f 237 244 245
f 237 245 238
f 238 245 246
f 238 246 239
f 239 246 247
f 239 247 240
f 240 247 248
f 240 248 241
f 241 248 249
f 241 249 242
f 242 249 250
f 242 250 235
f 235 250 243
f 243 251 244
f 244 251 252
f 244 252 245
f 245 252 253
f 245 253 246
f 246 253 254
f 246 254 247
f 247 254 255
f 247 255 248
f 248 255 256
f 248 256 249
f 249 256 257
f 249 257 250
f 250 257 258
f 250 258 243
f 243 258 251
f 251 259 252
f 252 259 260
f 252 260 253
f 253 260 261
f 253 261 254
f 254 261 262
f 254 262 255
f 255 262 263
f 255 263 256
f 256 263 264
f 256 264 257
f 257 264 265
f 257 265 258
f 258 265 266
f 258 266 251
f 251 266 259
f 259 267 260
f 260 267 268
f 260 268 261
f 261 268 269
f 261 269 262
f 262 269 270
f 262 270 263
f 263 270 271
f 263 271 264
f 264 271 272
f 264 272 265
f 265 272 273
f 265 273 266
f 266 273 274
f 266 274 259
f 259 274 267
f 267 275 268
f 268 275 276
f 268 276 269
f 269 276 277
f 269 277 270
f 270 277 278
f 270 278 271
f 271 278 279
f 271 279 272
f 272 279 280
f 272 280 273
f 273 280 281
f 273 281 274
f 274 281 282
f 274 282 267
f 267 282 275
f 275 283 276
f 276 283 284
f 276 284 277
f 277 284 285
f 277 285 278
f 278 285 286
f 278 286 279
f 279 286 287
f 279 287 280
f 280 287 288
f 280 288 281
f 281 288 289
f 281 289 282
f 282 289 290
f 282 290 275
f 275 290 283
f 283 291 284
f 284 291 292
f 284 292 285
f 285 292 293
f 285 293 286
f 286 293 294
f 286 294 287
f 287 294 295
f 287 295 288
f 288 295 296
f 288 296 289
f 289 296 297
f 289 297 290
f 290 297 298
f 290 298 283
f 283 298 291
f 291 299 292
f 292 299 300
f 292 300 293
f 293 300 301
f 293 301 294
f 294 301 302
f 294 302 295
f 295 302 303
f 295 303 296
f 296 303 304
f 296 304 297
f 297 304 305
f 297 305 298
f 298 305 306
f 298 306 291
f 291 306 299
f 299 307 300
f 300 307 308
f 300 308 301
f 301 308 309
f 301 309 302
f 302 309 310
f 302 310 303
f 303 310 311
f 303 311 304
f 304 311 312
f 304 312 305
f 305 312 313
f 305 313 306
f 306 313 314
f 306 314 299
f 299 314 307
f 307 187 308
f 308 187 188
f 308 188 309
f 309 188 189
f 309 189 310
f 310 189 190
f 310 190 311
f 311 190 191
f 311 191 312
f 312 191 192
f 312 192 313
f 313 192 193
f 313 193 314
f 314 193 194
f 314 194 307
f 307 194 187

