# https://github.com/mikedh/trimesh
v -0.30611565 -0.50000000 -0.24742268
v -0.30611565 -0.50000000 0.14432990
v -0.30611565 0.42783505 -0.24742268
v -0.30611565 0.42783505 0.14432990
v 0.29182250 -0.50000000 -0.24742268
v 0.29182250 -0.50000000 0.14432990
v 0.29182250 0.42783505 -0.24742268
v 0.29182250 0.42783505 0.14432990
v -0.28549709 0.09793814 0.14432990
v -0.28549709 0.09793814 0.24742268
v -0.28549709 0.20103093 0.14432990
v -0.28549709 0.20103093 0.24742268
v -0.09993008 0.09793814 0.14432990
v -0.09993008 0.09793814 0.24742268
v -0.09993008 0.20103093 0.14432990
v -0.09993008 0.20103093 0.24742268
v 0.08563693 0.09793814 0.14432990
v 0.08563693 0.09793814 0.24742268
v 0.08563693 0.20103093 0.14432990
v 0.08563693 0.20103093 0.24742268
v 0.27120394 0.09793814 0.14432990
v 0.27120394 0.09793814 0.24742268
v 0.27120394 0.20103093 0.14432990
v 0.27120394 0.20103093 0.24742268
v -0.13085792 -0.24226804 0.14432990
v -0.13085792 -0.24226804 0.24742268
v -0.13085792 -0.15979381 0.14432990
v -0.13085792 -0.15979381 0.24742268
v 0.11656476 -0.24226804 0.14432990
v 0.11656476 -0.24226804 0.24742268
v 0.11656476 -0.15979381 0.14432990
v 0.11656476 -0.15979381 0.24742268
v -0.29580637 0.50000000 -0.05154639
v -0.15147647 0.50000000 -0.05154639
v -0.29580637 0.21134021 -0.05154639
v -0.20581815 0.50000000 0.06129527
v -0.32792279 0.50000000 0.08916485
v -0.42584311 0.50000000 0.01107600
v -0.42584311 0.50000000 -0.11416879
v -0.32792279 0.50000000 -0.19225764
v -0.20581815 0.50000000 -0.16438805
v 0.28151322 0.50000000 -0.05154639
v 0.42584311 0.50000000 -0.05154639
v 0.28151322 0.21134021 -0.05154639
v 0.37150144 0.50000000 0.06129527
v 0.24939679 0.50000000 0.08916485
v 0.15147647 0.50000000 0.01107600
v 0.15147647 0.50000000 -0.11416879
v 0.24939679 0.50000000 -0.19225764
v 0.37150144 0.50000000 -0.16438805
f 2 4 1
f 5 2 1
f 1 4 3
f 3 5 1
f 2 8 4
f 6 2 5
f 6 8 2
f 4 8 3
f 7 5 3
f 3 8 7
f 7 6 5
f 8 6 7
f 10 12 9
f 13 10 9
f 9 12 11
f 11 13 9
f 10 16 12
f 14 10 13
f 14 16 10
f 12 16 11
f 15 13 11
f 11 16 15
f 15 14 13
f 16 14 15
f 18 20 17
f 21 18 17
f 17 20 19
f 19 21 17
f 18 24 20
f 22 18 21
f 22 24 18
f 20 24 19
f 23 21 19
f 19 24 23
f 23 22 21
f 24 22 23
f 26 28 25
f 29 26 25
f 25 28 27
f 27 29 25
f 26 32 28
f 30 26 29
f 30 32 26
f 28 32 27
f 31 29 27
f 27 32 31
f 31 30 29
f 32 30 31
f 34 33 36
f 34 36 35
f 36 33 37
f 36 37 35
f 37 33 38
f 37 38 35
f 38 33 39
f 38 39 35
f 39 33 40
f 39 40 35
f 40 33 41
f 40 41 35
f 41 33 34
f 41 34 35
f 43 42 45
f 43 45 44
f 45 42 46
f 45 46 44
f 46 42 47
f 46 47 44
f 47 42 48
f 47 48 44
f 48 42 49
f 48 49 44
f 49 42 50
f 49 50 44
f 50 42 43
f 50 43 44

