# https://github.com/mikedh/trimesh
v 0.00000000 -0.50000000 0.00000000
v 0.26829268 -0.50000000 0.00000000
v 0.00000000 0.50000000 -0.00000000
v 0.21705334 -0.50000000 -0.15769848
v 0.08290700 -0.50000000 -0.25516150
v -0.08290700 -0.50000000 -0.25516150
v -0.21705334 -0.50000000 -0.15769848
v -0.26829268 -0.50000000 -0.00000000
v -0.21705334 -0.50000000 0.15769848
v -0.08290700 -0.50000000 0.25516150
v 0.08290700 -0.50000000 0.25516150
v 0.21705334 -0.50000000 0.15769848
v 0.17073171 0.13414634 0.00000000
v 0.16001610 0.13414634 0.02586976
v 0.13414634 0.13414634 0.03658537
v 0.10827658 0.13414634 0.02586976
v 0.09756098 0.13414634 0.00000000
v 0.10827658 0.13414634 -0.02586976
v 0.13414634 0.13414634 -0.03658537
v 0.16001610 0.13414634 -0.02586976
v 0.15773553 0.19948254 0.00000000
v 0.14783560 0.19538185 0.02586976
v 0.12393506 0.18548192 0.03658537
v 0.10003452 0.17558200 0.02586976
v 0.09013459 0.17148131 0.00000000
v 0.10003452 0.17558200 -0.02586976
v 0.12393506 0.18548192 -0.03658537
v 0.14783560 0.19538185 -0.02586976
v 0.12072555 0.25487189 0.00000000
v 0.11314847 0.24729481 0.02586976
v 0.09485579 0.22900213 0.03658537
v 0.07656310 0.21070945 0.02586976
v 0.06898603 0.20313237 0.00000000
v 0.07656310 0.21070945 -0.02586976
v 0.09485579 0.22900213 -0.03658537
v 0.11314847 0.24729481 -0.02586976
v 0.06533620 0.29188187 0.00000000
v 0.06123551 0.28198194 0.02586976
v 0.05133558 0.25808140 0.03658537
v 0.04143565 0.23418086 0.02586976
v 0.03733497 0.22428093 0.00000000
v 0.04143565 0.23418086 -0.02586976
v 0.05133558 0.25808140 -0.03658537
v 0.06123551 0.28198194 -0.02586976
v 0.00000000 0.30487805 0.00000000
v 0.00000000 0.29416244 0.02586976
v 0.00000000 0.26829268 0.03658537
v 0.00000000 0.24242292 0.02586976
v 0.00000000 0.23170732 0.00000000
v 0.00000000 0.24242292 -0.02586976
v 0.00000000 0.26829268 -0.03658537
v 0.00000000 0.29416244 -0.02586976
v -0.06533620 0.29188187 0.00000000
v -0.06123551 0.28198194 0.02586976
v -0.05133558 0.25808140 0.03658537
v -0.04143565 0.23418086 0.02586976
v -0.03733497 0.22428093 0.00000000
v -0.04143565 0.23418086 -0.02586976
v -0.05133558 0.25808140 -0.03658537
v -0.06123551 0.28198194 -0.02586976
v -0.12072555 0.25487189 0.00000000
v -0.11314847 0.24729481 0.02586976
v -0.09485579 0.22900213 0.03658537
v -0.07656310 0.21070945 0.02586976
v -0.06898603 0.20313237 0.00000000
v -0.07656310 0.21070945 -0.02586976
v -0.09485579 0.22900213 -0.03658537
v -0.11314847 0.24729481 -0.02586976
v -0.15773553 0.19948254 0.00000000
v -0.14783560 0.19538185 0.02586976
v -0.12393506 0.18548192 0.03658537
v -0.10003452 0.17558200 0.02586976
v -0.09013459 0.17148131 0.00000000
v -0.10003452 0.17558200 -0.02586976
v -0.12393506 0.18548192 -0.03658537
v -0.14783560 0.19538185 -0.02586976
v -0.17073171 0.13414634 0.00000000
v -0.16001610 0.13414634 0.02586976
v -0.13414634 0.13414634 0.03658537
v -0.10827658 0.13414634 0.02586976
v -0.09756098 0.13414634 0.00000000
v -0.10827658 0.13414634 -0.02586976
v -0.13414634 0.13414634 -0.03658537
v -0.16001610 0.13414634 -0.02586976
v -0.15773553 0.06881015 0.00000000
v -0.14783560 0.07291083 0.02586976
v -0.12393506 0.08281076 0.03658537
v -0.10003452 0.09271069 0.02586976
v -0.09013459 0.09681137 0.00000000
v -0.10003452 0.09271069 -0.02586976
v -0.12393506 0.08281076 -0.03658537
v -0.14783560 0.07291083 -0.02586976
v -0.12072555 0.01342079 0.00000000
v -0.11314847 0.02099787 0.02586976
v -0.09485579 0.03929055 0.03658537
v -0.07656310 0.05758324 0.02586976
v -0.06898603 0.06516031 0.00000000
v -0.07656310 0.05758324 -0.02586976
v -0.09485579 0.03929055 -0.03658537
v -0.11314847 0.02099787 -0.02586976
v -0.06533620 -0.02358919 0.00000000
v -0.06123551 -0.01368926 0.02586976
v -0.05133558 0.01021128 0.03658537
v -0.04143565 0.03411182 0.02586976
v -0.03733497 0.04401175 0.00000000
v -0.04143565 0.03411182 -0.02586976
v -0.05133558 0.01021128 -0.03658537
v -0.06123551 -0.01368926 -0.02586976
v -0.00000000 -0.03658537 0.00000000
v -0.00000000 -0.02586976 0.02586976
v -0.00000000 0.00000000 0.03658537
v -0.00000000 0.02586976 0.02586976
v -0.00000000 0.03658537 0.00000000
v -0.00000000 0.02586976 -0.02586976
v -0.00000000 0.00000000 -0.03658537
v -0.00000000 -0.02586976 -0.02586976
v 0.06533620 -0.02358919 0.00000000
v 0.06123551 -0.01368926 0.02586976
v 0.05133558 0.01021128 0.03658537
v 0.04143565 0.03411182 0.02586976
v 0.03733497 0.04401175 0.00000000
v 0.04143565 0.03411182 -0.02586976
v 0.05133558 0.01021128 -0.03658537
v 0.06123551 -0.01368926 -0.02586976
v 0.12072555 0.01342079 0.00000000
v 0.11314847 0.02099787 0.02586976
v 0.09485579 0.03929055 0.03658537
v 0.07656310 0.05758324 0.02586976
v 0.06898603 0.06516031 0.00000000
v 0.07656310 0.05758324 -0.02586976
v 0.09485579 0.03929055 -0.03658537
v 0.11314847 0.02099787 -0.02586976
v 0.15773553 0.06881015 0.00000000
v 0.14783560 0.07291083 0.02586976
v 0.12393506 0.08281076 0.03658537
v 0.10003452 0.09271069 0.02586976
v 0.09013459 0.09681137 0.00000000
v 0.10003452 0.09271069 -0.02586976
v 0.12393506 0.08281076 -0.03658537
v 0.14783560 0.07291083 -0.02586976
f 2 1 4
f 2 4 3
f 4 1 5
f 4 5 3
f 5 1 6
f 5 6 3
f 6 1 7
f 6 7 3
f 7 1 8
f 7 8 3
f 8 1 9
f 8 9 3
f 9 1 10
f 9 10 3
f 10 1 11
f 10 11 3
f 11 1 12
f 11 12 3
f 12 1 2
f 12 2 3
f 13 21 14
f 14 21 22
f 14 22 15
f 15 22 23
f 15 23 16
f 16 23 24
f 16 24 17
f 17 24 25
f 17 25 18
f 18 25 26
f 18 26 19
f 19 26 27
f 19 27 20
f 20 27 28
f 20 28 13
f 13 28 21
f 21 29 22
f 22 29 30
f 22 30 23
f 23 30 31
f 23 31 24
f 24 31 32
f 24 32 25
f 25 32 33
f 25 33 26
f 26 33 34
f 26 34 27
f 27 34 35
f 27 35 28
f 28 35 36
f 28 36 21
f 21 36 29
f 29 37 30
f 30 37 38
f 30 38 31
f 31 38 39
f 31 39 32
f 32 39 40
f 32 40 33
f 33 40 41
f 33 41 34
f 34 41 42
f 34 42 35
f 35 42 43
f 35 43 36
f 36 43 44
f 36 44 29
f 29 44 37
f 37 45 38
f 38 45 46
f 38 46 39
f 39 46 47
f 39 47 40
f 40 47 48
f 40 48 41
f 41 48 49
f 41 49 42
f 42 49 50
f 42 50 43
f 43 50 51
f 43 51 44
f 44 51 52
f 44 52 37
f 37 52 45
f 45 53 46
f 46 53 54
f 46 54 47
f 47 54 55
f 47 55 48
f 48 55 56
f 48 56 49
f 49 56 57
f 49 57 50
f 50 57 58
f 50 58 51
f 51 58 59
f 51 59 52
f 52 59 60
f 52 60 45
f 45 60 53
f 53 61 54
f 54 61 62
f 54 62 55
f 55 62 63
f 55 63 56
f 56 63 64
f 56 64 57
f 57 64 65
f 57 65 58
f 58 65 66
f 58 66 59
f 59 66 67
f 59 67 60
f 60 67 68
f 60 68 53
f 53 68 61
f 61 69 62
f 62 69 70
f 62 70 63
f 63 70 71
f 63 71 64
f 64 71 72
f 64 72 65
f 65 72 73
f 65 73 66
f 66 73 74
f 66 74 67
f 67 74 75
f 67 75 68
f 68 75 76
f 68 76 61
f 61 76 69
f 69 77 70
f 70 77 78
f 70 78 71
f 71 78 79
f 71 79 72
f 72 79 80
f 72 80 73
f 73 80 81
f 73 81 74
f 74 81 82
f 74 82 75
f 75 82 83
f 75 83 76
f 76 83 84
f 76 84 69
f 69 84 77
f 77 85 78
f 78 85 86
f 78 86 79
f 79 86 87
f 79 87 80
f 80 87 88
f 80 88 81
f 81 88 89
f 81 89 82
f 82 89 90
f 82 90 83
f 83 90 91
f 83 91 84
f 84 91 92
f 84 92 77
f 77 92 85
f 85 93 86
f 86 93 94
f 86 94 87
f 87 94 95
f 87 95 88
f 88 95 96
f 88 96 89
f 89 96 97
f 89 97 90
f 90 97 98
f 90 98 91
f 91 98 99
f 91 99 92
f 92 99 100
f 92 100 85
f 85 100 93
f 93 101 94
f 94 101 102
f 94 102 95
f 95 102 103
f 95 103 96
f 96 103 104
f 96 104 97
f 97 104 105
f 97 105 98
f 98 105 106
f 98 106 99
f 99 106 107
f 99 107 100
f 100 107 108
f 100 108 93
f 93 108 101
f 101 109 102
f 102 109 110
f 102 110 103
f 103 110 111
f 103 111 104
f 104 111 112
f 104 112 105
f 105 112 113
f 105 113 106
f 106 113 114
f 106 114 107
f 107 114 115
f 107 115 108
f 108 115 116
f 108 116 101
f 101 116 109
f 109 117 110
f 110 117 118
f 110 118 111
f 111 118 119
f 111 119 112
f 112 119 120
f 112 120 113
f 113 120 121
f 113 121 114
f 114 121 122
f 114 122 115
f 115 122 123
f 115 123 116
f 116 123 124
f 116 124 109
f 109 124 117
f 117 125 118
f 118 125 126
f 118 126 119
f 119 126 127
f 119 127 120
f 120 127 128
f 120 128 121
f 121 128 129
f 121 129 122
f 122 129 130
f 122 130 123
f 123 130 131
f 123 131 124
f 124 131 132
f 124 132 117
f 117 132 125
f 125 133 126
f 126 133 134
f 126 134 127
f 127 134 135
f 127 135 128
f 128 135 136
f 128 136 129
f 129 136 137
f 129 137 130
f 130 137 138
f 130 138 131
f 131 138 139
f 131 139 132
f 132 139 140
f 132 140 125
f 125 140 133
f 133 13 134
f 134 13 14
f 134 14 135
f 135 14 15
f 135 15 136
f 136 15 16
f 136 16 137
f 137 16 17
f 137 17 138
f 138 17 18
f 138 18 139
f 139 18 19
f 139 19 140
f 140 19 20
f 140 20 133
f 133 20 13

