# https://github.com/mikedh/trimesh
v -1.00000000 1.50000000 0.00000000
v -0.60000000 1.50000000 0.00000000
v -1.00000000 4.50000000 -0.00000000
v -0.71715729 1.50000000 -0.28284271
v -1.00000000 1.50000000 -0.40000000
v -1.28284271 1.50000000 -0.28284271
v -1.40000000 1.50000000 -0.00000000
v -1.28284271 1.50000000 0.28284271
v -1.00000000 1.50000000 0.40000000
v -0.71715729 1.50000000 0.28284271
v -0.40000000 2.25000000 0.20000000
v 0.00000000 2.25000000 0.20000000
v -0.40000000 6.75000000 0.20000000
v -0.11715729 2.25000000 -0.08284271
v -0.40000000 2.25000000 -0.20000000
v -0.68284271 2.25000000 -0.08284271
v -0.80000000 2.25000000 0.20000000
v -0.68284271 2.25000000 0.48284271
v -0.40000000 2.25000000 0.60000000
v -0.11715729 2.25000000 0.48284271
v 0.30000000 1.80000000 -0.20000000
v 0.70000000 1.80000000 -0.20000000
v 0.30000000 5.40000000 -0.20000000
v 0.58284271 1.80000000 -0.48284271
v 0.30000000 1.80000000 -0.60000000
v 0.01715729 1.80000000 -0.48284271
v -0.10000000 1.80000000 -0.20000000
v 0.01715729 1.80000000 0.08284271
v 0.30000000 1.80000000 0.20000000
v 0.58284271 1.80000000 0.08284271
v 1.00000000 1.40000000 0.10000000
v 1.40000000 1.40000000 0.10000000
v 1.00000000 4.20000000 0.10000000
v 1.28284271 1.40000000 -0.18284271
v 1.00000000 1.40000000 -0.30000000
v 0.71715729 1.40000000 -0.18284271
v 0.60000000 1.40000000 0.10000000
v 0.71715729 1.40000000 0.38284271
v 1.00000000 1.40000000 0.50000000
v 1.28284271 1.40000000 0.38284271
f 2 1 4
f 2 4 3
f 4 1 5
f 4 5 3
f 5 1 6
f 5 6 3
f 6 1 7
f 6 7 3
f 7 1 8
f 7 8 3
f 8 1 9
f 8 9 3
f 9 1 10
f 9 10 3
f 10 1 2
f 10 2 3
f 12 11 14
f 12 14 13
f 14 11 15
f 14 15 13
f 15 11 16
f 15 16 13
f 16 11 17
f 16 17 13
f 17 11 18
f 17 18 13
f 18 11 19
f 18 19 13
f 19 11 20
f 19 20 13
f 20 11 12
f 20 12 13
f 22 21 24
f 22 24 23
f 24 21 25
f 24 25 23
f 25 21 26
f 25 26 23
f 26 21 27
f 26 27 23
f 27 21 28
f 27 28 23
f 28 21 29
f 28 29 23
f 29 21 30
f 29 30 23
f 30 21 22
f 30 22 23
f 32 31 34
f 32 34 33
f 34 31 35
f 34 35 33
f 35 31 36
f 35 36 33
f 36 31 37
f 36 37 33
f 37 31 38
f 37 38 33
f 38 31 39
f 38 39 33
f 39 31 40
f 39 40 33
f 40 31 32
f 40 32 33

