# https://github.com/mikedh/trimesh
v -1.42768053 1.14918731 0.16993279
v 1.08845735 1.06244758 0.10479300
v -1.14607754 -1.38986944 -0.09045285
v 1.87027324 -1.39806881 -0.08092626
v 0.23575124 -0.69914794 1.95919023
v 0.16355117 0.73967519 1.72025202
v -0.11002553 -0.69190584 -1.61996459
v -0.24615963 0.84674007 -1.83239572
v 2.14106510 -0.04572243 -1.00617396
v 1.60750566 0.05332757 0.82374612
v -1.89221812 -0.14189732 -1.13433643
v -2.26864395 0.03087003 1.22094039
v 0.04264636 1.49732565 0.02634404
v -0.02092817 -1.49343122 -0.11798381
v -0.79941092 -1.03687889 1.17881655
v 0.43156548 -1.23886073 1.03284459
v -0.87683178 1.13536562 0.99371943
v 0.97565750 1.34355595 1.00990406
v 0.17172099 -0.00938398 2.06622484
v -0.81051973 -1.39503598 -1.10606177
v 0.85238885 -1.07055743 -0.94298833
v -0.35179073 1.32787702 -0.98750999
v 0.68884089 1.48995687 -1.03151753
v -0.22017735 0.05088728 -2.08576195
v 2.14827310 0.56609920 -0.46883842
v 2.22509750 -0.79110481 -0.77119920
v 1.28048702 -0.32090672 -1.71124093
v 1.21573913 0.60613594 -1.51873698
v 2.00070112 0.79324067 0.64943683
v 1.94157344 -0.76618334 0.19186172
v 1.27605860 -0.35627883 1.72735032
v 1.16461542 0.66573194 1.83919928
v 2.33546806 -0.00227322 -0.06959409
v -2.18723513 0.87651149 -0.45320963
v -2.15696420 -0.76704736 -0.55061467
v -1.30990691 -0.34534465 -1.56149770
v -1.17732038 0.28189700 -1.42313026
v -2.47528118 0.74174865 0.79542485
v -2.00236400 -0.84450666 0.54692487
v -1.50244421 -0.31455901 1.68502551
v -1.43490460 0.67964877 1.53112143
v -2.42230680 -0.22135935 -0.01072425
f 1 38 17
f 38 12 41
f 17 41 6
f 38 41 17
f 1 17 13
f 17 6 18
f 13 18 2
f 17 18 13
f 1 13 22
f 13 2 23
f 22 23 8
f 13 23 22
f 1 22 34
f 22 8 37
f 34 37 11
f 22 37 34
f 1 34 38
f 34 11 42
f 38 42 12
f 34 42 38
f 2 18 29
f 18 6 32
f 29 32 10
f 18 32 29
f 6 41 19
f 41 12 40
f 19 40 5
f 41 40 19
f 12 42 39
f 42 11 35
f 39 35 3
f 42 35 39
f 11 37 36
f 37 8 24
f 36 24 7
f 37 24 36
f 8 23 28
f 23 2 25
f 28 25 9
f 23 25 28
f 4 30 16
f 30 10 31
f 16 31 5
f 30 31 16
f 4 16 14
f 16 5 15
f 14 15 3
f 16 15 14
f 4 14 21
f 14 3 20
f 21 20 7
f 14 20 21
f 4 21 26
f 21 7 27
f 26 27 9
f 21 27 26
f 4 26 30
f 26 9 33
f 30 33 10
f 26 33 30
f 5 31 19
f 31 10 32
f 19 32 6
f 31 32 19
f 3 15 39
f 15 5 40
f 39 40 12
f 15 40 39
f 7 20 36
f 20 3 35
f 36 35 11
f 20 35 36
f 9 27 28
f 27 7 24
f 28 24 8
f 27 24 28
f 10 33 29
f 33 9 25
f 29 25 2
f 33 25 29

