# https://github.com/mikedh/trimesh
v 1.79317960 1.64421637 0.52639350
v 2.28535251 1.63571729 0.52639350
v 2.25370365 -0.19703630 0.52639350
v 1.76153073 -0.18853723 0.52639350
v 2.03926605 1.63996683 0.95269129
v 2.00761719 -0.19278676 0.95269129
v 1.54709314 1.64846590 0.95269129
v 1.51544428 -0.18428769 0.95269129
v 1.30100668 1.65271544 0.52639350
v 1.26935782 -0.18003815 0.52639350
v 1.54709314 1.64846590 0.10009570
v 1.51544428 -0.18428769 0.10009570
v 2.03926605 1.63996683 0.10009570
v 2.00761719 -0.19278676 0.10009570
v 1.80062639 2.07545250 0.52639350
v 2.29279930 2.06695343 0.52639350
v 1.78573281 1.21298023 0.52639350
v 2.04671285 2.07120297 0.95269129
v 1.55453993 2.07970204 0.95269129
v 1.30845347 2.08395158 0.52639350
v 1.55453993 2.07970204 0.10009570
v 2.04671285 2.07120297 0.10009570
v 1.18604171 2.28095584 -1.08427883
v 1.60814030 2.39182060 -1.08427883
v 2.26430998 -0.10643317 -1.08427883
v 1.84221138 -0.21729793 -1.08427883
v 1.39709101 2.33638822 -0.70633219
v 2.05326068 -0.16186555 -0.70633219
v 0.97499241 2.22552346 -0.70633219
v 1.63116208 -0.27273031 -0.70633219
v 0.76394311 2.17009108 -1.08427883
v 1.42011278 -0.32816269 -1.08427883
v 0.97499241 2.22552346 -1.46222548
v 1.63116208 -0.27273031 -1.46222548
v 1.39709101 2.33638822 -1.46222548
v 2.05326068 -0.16186555 -1.46222548
v 1.03164884 2.86878026 -1.08427883
v 1.45374744 2.97964501 -1.08427883
v 1.34043457 1.69313142 -1.08427883
v 1.24269814 2.92421264 -0.70633219
v 0.82059955 2.81334788 -0.70633219
v 0.60955025 2.75791550 -1.08427883
v 0.82059955 2.81334788 -1.46222548
v 1.24269814 2.92421264 -1.46222548
v 1.36730196 1.75238816 0.08114353
v 1.88845363 1.66298082 0.08114353
v 1.55586857 -0.27564372 0.08114353
v 1.03471690 -0.18623638 0.08114353
v 1.62787780 1.70768449 0.53906771
v 1.29529274 -0.23094005 0.53906771
v 1.10672612 1.79709183 0.53906771
v 0.77414106 -0.14153271 0.53906771
v 0.84615028 1.84179550 0.08114353
v 0.51356522 -0.09682904 0.08114353
v 1.10672612 1.79709183 -0.37678065
v 0.77414106 -0.14153271 -0.37678065
v 1.62787780 1.70768449 -0.37678065
v 1.29529274 -0.23094005 -0.37678065
v 1.44555727 2.20853511 0.08114353
v 1.96670894 2.11912777 0.08114353
v 1.28904665 1.29624121 0.08114353
v 1.70613311 2.16383144 0.53906771
v 1.18498143 2.25323878 0.53906771
v 0.92440559 2.29794245 0.08114353
v 1.18498143 2.25323878 -0.37678065
v 1.70613311 2.16383144 -0.37678065
v -0.55820514 1.96751233 -0.97492490
v -0.12351759 1.90233790 -0.97492490
v -0.45044961 -0.27816876 -0.97492490
v -0.88513716 -0.21299432 -0.97492490
v -0.34086136 1.93492512 -0.59426661
v -0.66779339 -0.24558154 -0.59426661
v -0.77554892 2.00009955 -0.59426661
v -1.10248094 -0.18040711 -0.59426661
v -0.99289269 2.03268676 -0.97492490
v -1.31982472 -0.14781989 -0.97492490
v -0.77554892 2.00009955 -1.35558319
v -1.10248094 -0.18040711 -1.35558319
v -0.34086136 1.93492512 -1.35558319
v -0.66779339 -0.24558154 -1.35558319
v -0.48127996 2.48057272 -0.97492490
v -0.04659240 2.41539829 -0.97492490
v -0.63513032 1.45445194 -0.97492490
v -0.26393618 2.44798551 -0.59426661
v -0.69862373 2.51315994 -0.59426661
v -0.91596751 2.54574715 -0.97492490
v -0.69862373 2.51315994 -1.35558319
v -0.26393618 2.44798551 -1.35558319
v -1.19131999 2.53777301 0.38486286
v -0.88149771 2.57003845 0.38486286
v -0.58771491 -0.25095113 0.38486286
v -0.89753720 -0.28321656 0.38486286
v -1.03640885 2.55390573 0.65462790
v -0.74262606 -0.26708385 0.65462790
v -1.34623113 2.52164030 0.65462790
v -1.05244834 -0.29934928 0.65462790
v -1.50114227 2.50550758 0.38486286
v -1.20735948 -0.31548200 0.38486286
v -1.34623113 2.52164030 0.11509782
v -1.05244834 -0.29934928 0.11509782
v -1.03640885 2.55390573 0.11509782
v -0.74262606 -0.26708385 0.11509782
v -1.26044535 3.20153527 0.38486286
v -0.95062307 3.23380070 0.38486286
v -1.12219463 1.87401076 0.38486286
v -1.10553421 3.21766799 0.65462790
v -1.41535649 3.18540255 0.65462790
v -1.57026764 3.16926983 0.38486286
v -1.41535649 3.18540255 0.11509782
v -1.10553421 3.21766799 0.11509782
v 1.87204162 2.89263180 0.45638155
v 2.22968158 2.88322686 0.45638155
v 2.14489957 -0.34076160 0.45638155
v 1.78725961 -0.33135666 0.45638155
v 2.05086160 2.88792933 0.76621392
v 1.96607959 -0.33605913 0.76621392
v 1.69322164 2.89733427 0.76621392
v 1.60843963 -0.32665419 0.76621392
v 1.51440166 2.90203674 0.45638155
v 1.42961965 -0.32195171 0.45638155
v 1.69322164 2.89733427 0.14654919
v 1.60843963 -0.32665419 0.14654919
v 2.05086160 2.88792933 0.14654919
v 1.96607959 -0.33605913 0.14654919
v 1.89199033 3.65121732 0.45638155
v 2.24963029 3.64181238 0.45638155
v 1.85209291 2.13404628 0.45638155
v 2.07081031 3.64651485 0.76621392
v 1.71317035 3.65591979 0.76621392
v 1.53435037 3.66062226 0.45638155
v 1.71317035 3.65591979 0.14654919
v 2.07081031 3.64651485 0.14654919
v 0.94567862 3.03884307 1.26976678
v 1.50720450 3.08960206 1.26976678
v 1.81276880 -0.29073049 1.26976678
v 1.25124291 -0.34148948 1.26976678
v 1.22644156 3.06422257 1.75804523
v 1.53200585 -0.31610998 1.75804523
v 0.66491567 3.01346358 1.75804523
v 0.97047997 -0.36686897 1.75804523
v 0.38415273 2.98808408 1.26976678
v 0.68971703 -0.39224847 1.26976678
v 0.66491567 3.01346358 0.78148833
v 0.97047997 -0.36686897 0.78148833
v 1.22644156 3.06422257 0.78148833
v 1.53200585 -0.31610998 0.78148833
v 0.87378113 3.83421544 1.26976678
v 1.43530702 3.88497443 1.26976678
v 1.01757610 2.24347071 1.26976678
v 1.15454408 3.85959493 1.75804523
v 0.59301819 3.80883594 1.75804523
v 0.31225525 3.78345645 1.26976678
v 0.59301819 3.80883594 0.78148833
v 1.15454408 3.85959493 0.78148833
v -1.37180927 -0.04667686 0.20070630
v 1.71074114 0.02132233 -0.01946113
v -1.65412160 -0.55145333 0.05975647
v 1.46698203 -0.58827339 0.05215784
v -0.03091072 -0.45034878 1.31333650
v 0.00154685 -0.15820232 1.46668987
v 0.08074878 -0.45968089 -1.71424881
v 0.07727787 -0.16186443 -1.43457333
v 2.41067764 -0.29956095 -0.95677232
v 2.39525317 -0.30163437 0.73445994
v -2.04775962 -0.31997676 -0.87874974
v -2.13808650 -0.28437730 0.82148924
v 0.26504698 0.02268953 -0.16074408
v -0.38685242 -0.61426216 0.26729159
v -0.77552349 -0.60022751 0.99918936
v 0.70335976 -0.56974146 1.05032509
v -0.61040555 -0.06101140 1.07546878
v 0.56774203 -0.04395037 1.00068606
v 0.18029955 -0.32091019 1.79549869
v -1.20920295 -0.59210718 -1.02473527
v 0.59394491 -0.57401041 -0.83484368
v -1.23745357 -0.01677072 -1.04434829
v 0.62300003 -0.00213084 -0.89750325
v 0.45373781 -0.26185928 -1.63119208
v 2.16341306 -0.15575033 -0.65498830
v 2.27884269 -0.50497165 -0.45842373
v 1.39370543 -0.38587255 -1.44406715
v 1.70557211 -0.17892894 -1.42183186
v 2.44437185 -0.11551107 0.48587992
v 2.13133970 -0.46123291 0.50929128
v 1.50323176 -0.43764976 1.57503057
v 1.36639172 -0.15704289 1.25537998
v 2.39017527 -0.29182156 0.03367269
v -1.85567247 -0.14943007 -0.48538025
v -2.09573147 -0.47499612 -0.49767434
v -1.75456909 -0.39780421 -1.47595896
v -1.01828845 -0.18965818 -1.44518912
v -2.25874181 -0.12040763 0.32783228
v -2.08651085 -0.50369866 0.45395003
v -1.50007371 -0.38296007 1.23742626
v -1.55558547 -0.21793149 1.49784960
v -2.61075773 -0.32398543 0.00280997
f 2 1 5
f 2 5 3
f 3 5 6
f 3 6 4
f 5 1 7
f 5 7 6
f 6 7 8
f 6 8 4
f 7 1 9
f 7 9 8
f 8 9 10
f 8 10 4
f 9 1 11
f 9 11 10
f 10 11 12
f 10 12 4
f 11 1 13
f 11 13 12
f 12 13 14
f 12 14 4
f 13 1 2
f 13 2 14
f 14 2 3
f 14 3 4
f 16 15 18
f 16 18 17
f 18 15 19
f 18 19 17
f 19 15 20
f 19 20 17
f 20 15 21
f 20 21 17
f 21 15 22
f 21 22 17
f 22 15 16
f 22 16 17
f 24 23 27
f 24 27 25
f 25 27 28
f 25 28 26
f 27 23 29
f 27 29 28
f 28 29 30
f 28 30 26
f 29 23 31
f 29 31 30
f 30 31 32
f 30 32 26
f 31 23 33
f 31 33 32
f 32 33 34
f 32 34 26
f 33 23 35
f 33 35 34
f 34 35 36
f 34 36 26
f 35 23 24
f 35 24 36
f 36 24 25
f 36 25 26
f 38 37 40
f 38 40 39
f 40 37 41
f 40 41 39
f 41 37 42
f 41 42 39
f 42 37 43
f 42 43 39
f 43 37 44
f 43 44 39
f 44 37 38
f 44 38 39
f 46 45 49
f 46 49 47
f 47 49 50
f 47 50 48
f 49 45 51
f 49 51 50
f 50 51 52
f 50 52 48
f 51 45 53
f 51 53 52
f 52 53 54
f 52 54 48
f 53 45 55
f 53 55 54
f 54 55 56
f 54 56 48
f 55 45 57
f 55 57 56
f 56 57 58
f 56 58 48
f 57 45 46
f 57 46 58
f 58 46 47
f 58 47 48
f 60 59 62
f 60 62 61
f 62 59 63
f 62 63 61
f 63 59 64
f 63 64 61
f 64 59 65
f 64 65 61
f 65 59 66
f 65 66 61
f 66 59 60
f 66 60 61
f 68 67 71
f 68 71 69
f 69 71 72
f 69 72 70
f 71 67 73
f 71 73 72
f 72 73 74
f 72 74 70
f 73 67 75
f 73 75 74
f 74 75 76
f 74 76 70
f 75 67 77
f 75 77 76
f 76 77 78
f 76 78 70
f 77 67 79
f 77 79 78
f 78 79 80
f 78 80 70
f 79 67 68
f 79 68 80
f 80 68 69
f 80 69 70
f 82 81 84
f 82 84 83
f 84 81 85
f 84 85 83
f 85 81 86
f 85 86 83
f 86 81 87
f 86 87 83
f 87 81 88
f 87 88 83
f 88 81 82
f 88 82 83
f 90 89 93
f 90 93 91
f 91 93 94
f 91 94 92
f 93 89 95
f 93 95 94
f 94 95 96
f 94 96 92
f 95 89 97
f 95 97 96
f 96 97 98
f 96 98 92
f 97 89 99
f 97 99 98
f 98 99 100
f 98 100 92
f 99 89 101
f 99 101 100
f 100 101 102
f 100 102 92
f 101 89 90
f 101 90 102
f 102 90 91
f 102 91 92
f 104 103 106
f 104 106 105
f 106 103 107
f 106 107 105
f 107 103 108
f 107 108 105
f 108 103 109
f 108 109 105
f 109 103 110
f 109 110 105
f 110 103 104
f 110 104 105
f 112 111 115
f 112 115 113
f 113 115 116
f 113 116 114
f 115 111 117
f 115 117 116
f 116 117 118
f 116 118 114
f 117 111 119
f 117 119 118
f 118 119 120
f 118 120 114
f 119 111 121
f 119 121 120
f 120 121 122
f 120 122 114
f 121 111 123
f 121 123 122
f 122 123 124
f 122 124 114
f 123 111 112
f 123 112 124
f 124 112 113
f 124 113 114
f 126 125 128
f 126 128 127
f 128 125 129
f 128 129 127
f 129 125 130
f 129 130 127
f 130 125 131
f 130 131 127
f 131 125 132
f 131 132 127
f 132 125 126
f 132 126 127
f 134 133 137
f 134 137 135
f 135 137 138
f 135 138 136
f 137 133 139
f 137 139 138
f 138 139 140
f 138 140 136
f 139 133 141
f 139 141 140
f 140 141 142
f 140 142 136
f 141 133 143
f 141 143 142
f 142 143 144
f 142 144 136
f 143 133 145
f 143 145 144
f 144 145 146
f 144 146 136
f 145 133 134
f 145 134 146
f 146 134 135
f 146 135 136
f 148 147 150
f 148 150 149
f 150 147 151
f 150 151 149
f 151 147 152
f 151 152 149
f 152 147 153
f 152 153 149
f 153 147 154
f 153 154 149
f 154 147 148
f 154 148 149
f 155 192 171
f 192 166 195
f 171 195 160
f 192 195 171
f 155 171 167
f 171 160 172
f 167 172 156
f 171 172 167
f 155 167 176
f 167 156 177
f 176 177 162
f 167 177 176
f 155 176 188
f 176 162 191
f 188 191 165
f 176 191 188
f 155 188 192
f 188 165 196
f 192 196 166
f 188 196 192
f 156 172 183
f 172 160 186
f 183 186 164
f 172 186 183
f 160 195 173
f 195 166 194
f 173 194 159
f 195 194 173
f 166 196 193
f 196 165 189
f 193 189 157
f 196 189 193
f 165 191 190
f 191 162 178
f 190 178 161
f 191 178 190
f 162 177 182
f 177 156 179
f 182 179 163
f 177 179 182
f 158 184 170
f 184 164 185
f 170 185 159
f 184 185 170
f 158 170 168
f 170 159 169
f 168 169 157
f 170 169 168
f 158 168 175
f 168 157 174
f 175 174 161
f 168 174 175
f 158 175 180
f 175 161 181
f 180 181 163
f 175 181 180
f 158 180 184
f 180 163 187
f 184 187 164
f 180 187 184
f 159 185 173
f 185 164 186
f 173 186 160
f 185 186 173
f 157 169 193
f 169 159 194
f 193 194 166
f 169 194 193
f 161 174 190
f 174 157 189
f 190 189 165
f 174 189 190
f 163 181 182
f 181 161 178
f 182 178 162
f 181 178 182
f 164 187 183
f 187 163 179
f 183 179 156
f 187 179 183

