# https://github.com/mikedh/trimesh
v -1.05000000 0.00000000 -0.70000000
v -1.05000000 0.00000000 0.70000000
v -1.05000000 7.00000000 -0.70000000
v -1.05000000 7.00000000 0.70000000
v 1.05000000 0.00000000 -0.70000000
v 1.05000000 0.00000000 0.70000000
v 1.05000000 7.00000000 -0.70000000
v 1.05000000 7.00000000 0.70000000
v 0.00000000 8.18000000 -0.00000000
v 0.45000000 8.18000000 -0.00000000
v 0.45000000 6.82000000 0.00000000
v 0.00000000 6.82000000 0.00000000
v 0.22500000 8.18000000 0.38971143
v 0.22500000 6.82000000 0.38971143
v -0.22500000 8.18000000 0.38971143
v -0.22500000 6.82000000 0.38971143
v -0.45000000 8.18000000 0.00000000
v -0.45000000 6.82000000 0.00000000
v -0.22500000 8.18000000 -0.38971143
v -0.22500000 6.82000000 -0.38971143
v 0.22500000 8.18000000 -0.38971143
v 0.22500000 6.82000000 -0.38971143
v 0.00000000 8.50000000 0.00000000
v 0.45000000 8.50000000 0.00000000
v 0.00000000 7.86000000 0.00000000
v 0.22500000 8.50000000 0.38971143
v -0.22500000 8.50000000 0.38971143
v -0.45000000 8.50000000 0.00000000
v -0.22500000 8.50000000 -0.38971143
v 0.22500000 8.50000000 -0.38971143
f 2 4 1
f 5 2 1
f 1 4 3
f 3 5 1
f 2 8 4
f 6 2 5
f 6 8 2
f 4 8 3
f 7 5 3
f 3 8 7
f 7 6 5
f 8 6 7
f 10 9 13
f 10 13 11
f 11 13 14
f 11 14 12
f 13 9 15
f 13 15 14
f 14 15 16
f 14 16 12
f 15 9 17
f 15 17 16
f 16 17 18
f 16 18 12
f 17 9 19
f 17 19 18
f 18 19 20
f 18 20 12
f 19 9 21
f 19 21 20
f 20 21 22
f 20 22 12
f 21 9 10
f 21 10 22
f 22 10 11
f 22 11 12
f 24 23 26
f 24 26 25
f 26 23 27
f 26 27 25
f 27 23 28
f 27 28 25
f 28 23 29
f 28 29 25
f 29 23 30
f 29 30 25
f 30 23 24
f 30 24 25

