# https://github.com/mikedh/trimesh
v 1.68952556 1.61142392 0.06371719
v 2.06803048 1.69813417 0.06371719
v 2.47403021 -0.07412341 0.06371719
v 2.09552529 -0.16083366 0.06371719
v 1.87877802 1.65477904 0.40000350
v 2.28477775 -0.11747853 0.40000350
v 1.50027310 1.56806879 0.40000350
v 1.90627282 -0.20418878 0.40000350
v 1.31102064 1.52471367 0.06371719
v 1.71702036 -0.24754391 0.06371719
v 1.50027310 1.56806879 -0.27256912
v 1.90627282 -0.20418878 -0.27256912
v 1.87877802 1.65477904 -0.27256912
v 2.28477775 -0.11747853 -0.27256912
v 1.59399621 2.02842570 0.06371719
v 1.97250113 2.11513595 0.06371719
v 1.78505491 1.19442214 0.06371719
v 1.78324867 2.07178082 0.40000350
v 1.40474375 1.98507058 0.40000350
v 1.21549129 1.94171545 0.06371719
v 1.40474375 1.98507058 -0.27256912
v 1.78324867 2.07178082 -0.27256912
v -1.37919862 2.60979618 1.32504713
v -1.06212112 2.51416905 1.32504713
v -1.91951867 -0.32876308 1.32504713
v -2.23659616 -0.23313595 1.32504713
v -1.22065987 2.56198261 1.61186068
v -2.07805742 -0.28094952 1.61186068
v -1.53773736 2.65760975 1.61186068
v -2.39513491 -0.18532238 1.61186068
v -1.69627611 2.70542332 1.32504713
v -2.55367365 -0.13750881 1.32504713
v -1.53773736 2.65760975 1.03823358
v -2.39513491 -0.18532238 1.03823358
v -1.22065987 2.56198261 1.03823358
v -2.07805742 -0.28094952 1.03823358
v -1.17745802 3.27872139 1.32504713
v -0.86038053 3.18309425 1.32504713
v -1.58093921 1.94087098 1.32504713
v -1.01891927 3.23090782 1.61186068
v -1.33599676 3.32653496 1.61186068
v -1.49453551 3.37434853 1.32504713
v -1.33599676 3.32653496 1.03823358
v -1.01891927 3.23090782 1.03823358
v -0.72189793 2.73496661 0.15180394
v -0.43811452 2.81934540 0.15180394
v 0.44828608 -0.16180372 0.15180394
v 0.16450267 -0.24618252 0.15180394
v -0.58000622 2.77715600 0.40820129
v 0.30639437 -0.20399312 0.40820129
v -0.86378963 2.69277721 0.40820129
v 0.02261096 -0.28837192 0.40820129
v -1.00568134 2.65058781 0.15180394
v -0.11928074 -0.33056132 0.15180394
v -0.86378963 2.69277721 -0.10459342
v 0.02261096 -0.28837192 -0.10459342
v -0.58000622 2.77715600 -0.10459342
v 0.30639437 -0.20399312 -0.10459342
v -0.93046278 3.43641346 0.15180394
v -0.64667937 3.52079226 0.15180394
v -0.51333308 2.03351975 0.15180394
v -0.78857107 3.47860286 0.40820129
v -1.07235448 3.39422406 0.40820129
v -1.21424619 3.35203466 0.15180394
v -1.07235448 3.39422406 -0.10459342
v -0.78857107 3.47860286 -0.10459342
v 0.19000643 2.95575272 0.01352091
v 0.70324497 2.97683599 0.01352091
v 0.83853745 -0.31664434 0.01352091
v 0.32529891 -0.33772761 0.01352091
v 0.44662570 2.96629435 0.45837339
v 0.58191818 -0.32718597 0.45837339
v -0.06661284 2.94521109 0.45837339
v 0.06867964 -0.34826924 0.45837339
v -0.32323211 2.93466946 0.01352091
v -0.18793963 -0.35881087 0.01352091
v -0.06661284 2.94521109 -0.43133157
v 0.06867964 -0.34826924 -0.43133157
v 0.44662570 2.96629435 -0.43133157
v 0.58191818 -0.32718597 -0.43133157
v 0.15817290 3.73068927 0.01352091
v 0.67141144 3.75177253 0.01352091
v 0.22183996 2.18081617 0.01352091
v 0.41479217 3.74123090 0.45837339
v -0.09844637 3.72014764 0.45837339
v -0.35506564 3.70960601 0.01352091
v -0.09844637 3.72014764 -0.43133157
v 0.41479217 3.74123090 -0.43133157
v -0.06850035 2.99583726 0.78102627
v 0.21286547 3.06633068 0.78102627
v 1.03622484 -0.22000721 0.78102627
v 0.75485901 -0.29050063 0.78102627
v 0.07218256 3.03108397 1.03222745
v 0.89554192 -0.25525392 1.03222745
v -0.20918327 2.96059055 1.03222745
v 0.61417610 -0.32574733 1.03222745
v -0.34986618 2.92534385 0.78102627
v 0.47349319 -0.36099404 0.78102627
v -0.20918327 2.96059055 0.52982508
v 0.61417610 -0.32574733 0.52982508
v 0.07218256 3.03108397 0.52982508
v 0.89554192 -0.25525392 0.52982508
v -0.26223197 3.76909324 0.78102627
v 0.01913385 3.83958665 0.78102627
v 0.12523126 2.22258129 0.78102627
v -0.12154906 3.80433994 1.03222745
v -0.40291488 3.73384653 1.03222745
v -0.54359779 3.69859982 0.78102627
v -0.40291488 3.73384653 0.52982508
v -0.12154906 3.80433994 0.52982508
v -1.84750364 1.59921122 -0.04148608
v -1.28659760 1.50689257 -0.04148608
v -1.57795752 -0.26334052 -0.04148608
v -2.13886356 -0.17102187 -0.04148608
v -1.56705062 1.55305189 0.45080828
v -1.85841054 -0.21718120 0.45080828
v -2.12795665 1.64537055 0.45080828
v -2.41931658 -0.12486254 0.45080828
v -2.40840967 1.69152988 -0.04148608
v -2.69976960 -0.07870321 -0.04148608
v -2.12795665 1.64537055 -0.53378044
v -2.41931658 -0.12486254 -0.53378044
v -1.56705062 1.55305189 -0.53378044
v -1.85841054 -0.21718120 -0.53378044
v -1.77894836 2.01573666 -0.04148608
v -1.21804232 1.92341800 -0.04148608
v -1.91605891 1.18268579 -0.04148608
v -1.49849534 1.96957733 0.45080828
v -2.05940138 2.06189598 0.45080828
v -2.33985440 2.10805531 -0.04148608
v -2.05940138 2.06189598 -0.53378044
v -1.49849534 1.96957733 -0.53378044
v 1.40048142 2.51791610 -1.24410039
v 1.82748834 2.63387636 -1.24410039
v 2.57552104 -0.12064611 -1.24410039
v 2.14851412 -0.23660637 -1.24410039
v 1.61398488 2.57589623 -0.86090819
v 2.36201758 -0.17862624 -0.86090819
v 1.18697796 2.45993597 -0.86090819
v 1.93501067 -0.29458650 -0.86090819
v 0.97347450 2.40195584 -1.24410039
v 1.72150721 -0.35256663 -1.24410039
v 1.18697796 2.45993597 -1.62729260
v 1.93501067 -0.29458650 -1.62729260
v 1.61398488 2.57589623 -1.62729260
v 2.36201758 -0.17862624 -1.62729260
v 1.22447373 3.16603903 -1.24410039
v 1.65148064 3.28199929 -1.24410039
v 1.57648912 1.86979316 -1.24410039
v 1.43797718 3.22401916 -0.86090819
v 1.01097027 3.10805890 -0.86090819
v 0.79746681 3.05007877 -1.24410039
v 1.01097027 3.10805890 -1.62729260
v 1.43797718 3.22401916 -1.62729260
v -1.15792598 -0.00340865 0.05936084
v 1.28782806 -0.01775353 -0.14093499
v -1.37696756 -0.60343238 -0.13406748
v 1.49488503 -0.63899889 -0.17422077
v -0.20621708 -0.47435313 1.54051638
v 0.15382414 -0.12946934 1.36217748
v 0.32544541 -0.51124848 -1.49054300
v 0.24562491 -0.07673609 -1.62494261
v 1.88526438 -0.30281521 -0.87644851
v 2.07564888 -0.34877769 0.86467691
v -2.67454645 -0.28274365 -0.65656802
v -2.35070500 -0.28441992 0.82692088
v -0.20705793 0.04375193 -0.05113308
v 0.16345195 -0.65866811 0.19796818
v -0.78111198 -0.60799490 1.02015864
v 0.84433462 -0.61154400 0.75934261
v -1.17759681 0.02736909 0.98055666
v 1.04657762 0.00220527 0.72003473
v 0.09796027 -0.29718746 1.68528729
v -0.57242542 -0.52676677 -0.65367170
v 0.93213180 -0.58187660 -1.18265845
v -0.71817179 0.01224602 -0.69780608
v 1.10931431 0.02633350 -0.78782799
v 0.04132470 -0.28405545 -1.59151472
v 2.43129363 -0.14230594 -0.61986565
v 2.22328186 -0.45530381 -0.46465756
v 1.62554754 -0.40918941 -1.57426622
v 1.56499119 -0.15132600 -1.53338003
v 2.00909717 -0.09255626 0.55764547
v 2.17867455 -0.52165983 0.24471750
v 1.02885754 -0.41594693 1.35888372
v 1.57538065 -0.17966352 1.31370057
v 2.85822870 -0.36469778 -0.02110225
v -2.07769114 -0.14236515 -0.95907953
v -2.00504187 -0.45137464 -0.57919693
v -1.27390144 -0.43447056 -1.38648968
v -1.34513501 -0.16748970 -1.28964596
v -2.30076733 -0.11936237 0.60009038
v -2.11137558 -0.55552641 0.51937901
v -1.47450956 -0.40222648 1.60099141
v -1.52735943 -0.22375899 1.73777734
v -2.56849188 -0.32558820 -0.01739338
f 2 1 5
f 2 5 3
f 3 5 6
f 3 6 4
f 5 1 7
f 5 7 6
f 6 7 8
f 6 8 4
f 7 1 9
f 7 9 8
f 8 9 10
f 8 10 4
f 9 1 11
f 9 11 10
f 10 11 12
f 10 12 4
f 11 1 13
f 11 13 12
f 12 13 14
f 12 14 4
f 13 1 2
f 13 2 14
f 14 2 3
f 14 3 4
f 16 15 18
f 16 18 17
f 18 15 19
f 18 19 17
f 19 15 20
f 19 20 17
f 20 15 21
f 20 21 17
f 21 15 22
f 21 22 17
f 22 15 16
f 22 16 17
f 24 23 27
f 24 27 25
f 25 27 28
f 25 28 26
f 27 23 29
f 27 29 28
f 28 29 30
f 28 30 26
f 29 23 31
f 29 31 30
f 30 31 32
f 30 32 26
f 31 23 33
f 31 33 32
f 32 33 34
f 32 34 26
f 33 23 35
f 33 35 34
f 34 35 36
f 34 36 26
f 35 23 24
f 35 24 36
f 36 24 25
f 36 25 26
f 38 37 40
f 38 40 39
f 40 37 41
f 40 41 39
f 41 37 42
f 41 42 39
f 42 37 43
f 42 43 39
f 43 37 44
f 43 44 39
f 44 37 38
f 44 38 39
f 46 45 49
f 46 49 47
f 47 49 50
f 47 50 48
f 49 45 51
f 49 51 50
f 50 51 52
f 50 52 48
f 51 45 53
f 51 53 52
f 52 53 54
f 52 54 48
f 53 45 55
f 53 55 54
f 54 55 56
f 54 56 48
f 55 45 57
f 55 57 56
f 56 57 58
f 56 58 48
f 57 45 46
f 57 46 58
f 58 46 47
f 58 47 48
f 60 59 62
f 60 62 61
f 62 59 63
f 62 63 61
f 63 59 64
f 63 64 61
f 64 59 65
f 64 65 61
f 65 59 66
f 65 66 61
f 66 59 60
f 66 60 61
f 68 67 71
f 68 71 69
f 69 71 72
f 69 72 70
f 71 67 73
f 71 73 72
f 72 73 74
f 72 74 70
f 73 67 75
f 73 75 74
f 74 75 76
f 74 76 70
f 75 67 77
f 75 77 76
f 76 77 78
f 76 78 70
f 77 67 79
f 77 79 78
f 78 79 80
f 78 80 70
f 79 67 68
f 79 68 80
f 80 68 69
f 80 69 70
f 82 81 84
f 82 84 83
f 84 81 85
f 84 85 83
f 85 81 86
f 85 86 83
f 86 81 87
f 86 87 83
f 87 81 88
f 87 88 83
f 88 81 82
f 88 82 83
f 90 89 93
f 90 93 91
f 91 93 94
f 91 94 92
f 93 89 95
f 93 95 94
f 94 95 96
f 94 96 92
f 95 89 97
f 95 97 96
f 96 97 98
f 96 98 92
f 97 89 99
f 97 99 98
f 98 99 100
f 98 100 92
f 99 89 101
f 99 101 100
f 100 101 102
f 100 102 92
f 101 89 90
f 101 90 102
f 102 90 91
f 102 91 92
f 104 103 106
f 104 106 105
f 106 103 107
f 106 107 105
f 107 103 108
f 107 108 105
f 108 103 109
f 108 109 105
f 109 103 110
f 109 110 105
f 110 103 104
f 110 104 105
f 112 111 115
f 112 115 113
f 113 115 116
f 113 116 114
f 115 111 117
f 115 117 116
f 116 117 118
f 116 118 114
f 117 111 119
f 117 119 118
f 118 119 120
f 118 120 114
f 119 111 121
f 119 121 120
f 120 121 122
f 120 122 114
f 121 111 123
f 121 123 122
f 122 123 124
f 122 124 114
f 123 111 112
f 123 112 124
f 124 112 113
f 124 113 114
f 126 125 128
f 126 128 127
f 128 125 129
f 128 129 127
f 129 125 130
f 129 130 127
f 130 125 131
f 130 131 127
f 131 125 132
f 131 132 127
f 132 125 126
f 132 126 127
f 134 133 137
f 134 137 135
f 135 137 138
f 135 138 136
f 137 133 139
f 137 139 138
f 138 139 140
f 138 140 136
f 139 133 141
f 139 141 140
f 140 141 142
f 140 142 136
f 141 133 143
f 141 143 142
f 142 143 144
f 142 144 136
f 143 133 145
f 143 145 144
f 144 145 146
f 144 146 136
f 145 133 134
f 145 134 146
f 146 134 135
f 146 135 136
f 148 147 150
f 148 150 149
f 150 147 151
f 150 151 149
f 151 147 152
f 151 152 149
f 152 147 153
f 152 153 149
f 153 147 154
f 153 154 149
f 154 147 148
f 154 148 149
f 155 192 171
f 192 166 195
f 171 195 160
f 192 195 171
f 155 171 167
f 171 160 172
f 167 172 156
f 171 172 167
f 155 167 176
f 167 156 177
f 176 177 162
f 167 177 176
f 155 176 188
f 176 162 191
f 188 191 165
f 176 191 188
f 155 188 192
f 188 165 196
f 192 196 166
f 188 196 192
f 156 172 183
f 172 160 186
f 183 186 164
f 172 186 183
f 160 195 173
f 195 166 194
f 173 194 159
f 195 194 173
f 166 196 193
f 196 165 189
f 193 189 157
f 196 189 193
f 165 191 190
f 191 162 178
f 190 178 161
f 191 178 190
f 162 177 182
f 177 156 179
f 182 179 163
f 177 179 182
f 158 184 170
f 184 164 185
f 170 185 159
f 184 185 170
f 158 170 168
f 170 159 169
f 168 169 157
f 170 169 168
f 158 168 175
f 168 157 174
f 175 174 161
f 168 174 175
f 158 175 180
f 175 161 181
f 180 181 163
f 175 181 180
f 158 180 184
f 180 163 187
f 184 187 164
f 180 187 184
f 159 185 173
f 185 164 186
f 173 186 160
f 185 186 173
f 157 169 193
f 169 159 194
f 193 194 166
f 169 194 193
f 161 174 190
f 174 157 189
f 190 189 165
f 174 189 190
f 163 181 182
f 181 161 178
f 182 178 162
f 181 178 182
f 164 187 183
f 187 163 179
f 183 179 156
f 187 179 183

