# https://github.com/mikedh/trimesh
v 0.26420040 0.18142508 -0.16128685
v 0.38052886 0.18875122 -0.16128685
v 0.40850575 -0.25548102 -0.16128685
v 0.29217729 -0.26280716 -0.16128685
v 0.32236463 0.18508815 -0.06034386
v 0.35034152 -0.25914409 -0.06034386
v 0.20603617 0.17776200 -0.06034386
v 0.23401306 -0.26647023 -0.06034386
v 0.14787194 0.17409893 -0.16128685
v 0.17584883 -0.27013331 -0.16128685
v 0.20603617 0.17776200 -0.26222984
v 0.23401306 -0.26647023 -0.26222984
v 0.32236463 0.18508815 -0.26222984
v 0.35034152 -0.25914409 -0.26222984
v 0.25876045 0.26780357 -0.16128685
v 0.37508891 0.27512971 -0.16128685
v 0.26964035 0.09504659 -0.16128685
v 0.31692468 0.27146664 -0.06034386
v 0.20059622 0.26414050 -0.06034386
v 0.14243199 0.26047742 -0.16128685
v 0.20059622 0.26414050 -0.26222984
v 0.31692468 0.27146664 -0.26222984
v -0.37990595 0.23512754 -0.07739452
v -0.27104903 0.24593071 -0.07739452
v -0.21325802 -0.33639357 -0.07739452
v -0.32211493 -0.34719674 -0.07739452
v -0.32547749 0.24052912 0.01734144
v -0.26768648 -0.34179516 0.01734144
v -0.43433440 0.22972595 0.01734144
v -0.37654339 -0.35259833 0.01734144
v -0.48876286 0.22432436 -0.07739452
v -0.43097184 -0.35799992 -0.07739452
v -0.43433440 0.22972595 -0.17213048
v -0.37654339 -0.35259833 -0.17213048
v -0.32547749 0.24052912 -0.17213048
v -0.26768648 -0.34179516 -0.17213048
v -0.39114309 0.34835726 -0.07739452
v -0.28228618 0.35916043 -0.07739452
v -0.36866880 0.12189782 -0.07739452
v -0.33671463 0.35375885 0.01734144
v -0.44557154 0.34295567 0.01734144
v -0.50000000 0.33755408 -0.07739452
v -0.44557154 0.34295567 -0.17213048
v -0.33671463 0.35375885 -0.17213048
v -0.03279266 0.21659564 0.10332370
v 0.07402086 0.21140942 0.10332370
v 0.04806050 -0.32326141 0.10332370
v -0.05875303 -0.31807519 0.10332370
v 0.02061410 0.21400253 0.19593590
v -0.00534627 -0.32066830 0.19593590
v -0.08619943 0.21918875 0.19593590
v -0.11215979 -0.31548208 0.19593590
v -0.13960619 0.22178185 0.10332370
v -0.16556655 -0.31288897 0.10332370
v -0.08619943 0.21918875 0.01071150
v -0.11215979 -0.31548208 0.01071150
v 0.02061410 0.21400253 0.01071150
v -0.00534627 -0.32066830 0.01071150
v -0.02774482 0.32055941 0.10332370
v 0.07906871 0.31537320 0.10332370
v -0.03784051 0.11263187 0.10332370
v 0.02566195 0.31796630 0.19593590
v -0.08115158 0.32315252 0.19593590
v -0.13455834 0.32574563 0.10332370
v -0.08115158 0.32315252 0.01071150
v 0.02566195 0.31796630 0.01071150
v 0.20804831 0.22094823 -0.02393199
v 0.36488354 0.18972641 -0.02393199
v 0.25621638 -0.35613678 -0.02393199
v 0.09938115 -0.32491497 -0.02393199
v 0.28646593 0.20533732 0.11455652
v 0.17779877 -0.34052587 0.11455652
v 0.12963070 0.23655913 0.11455652
v 0.02096354 -0.30930406 0.11455652
v 0.05121308 0.25217004 -0.02393199
v -0.05745408 -0.29369315 -0.02393199
v 0.12963070 0.23655913 -0.16242051
v 0.02096354 -0.30930406 -0.16242051
v 0.28646593 0.20533732 -0.16242051
v 0.17779877 -0.34052587 -0.16242051
v 0.22917804 0.32708829 -0.02393199
v 0.38601327 0.29586648 -0.02393199
v 0.18691859 0.11480816 -0.02393199
v 0.30759566 0.31147738 0.11455652
v 0.15076042 0.34269920 0.11455652
v 0.07234281 0.35831011 -0.02393199
v 0.15076042 0.34269920 -0.16242051
v 0.30759566 0.31147738 -0.16242051
v 0.36008539 0.19041425 0.15202509
v 0.48957125 0.17555423 0.15202509
v 0.43593767 -0.29179303 0.15202509
v 0.30645181 -0.27693301 0.15202509
v 0.42482832 0.18298424 0.26489916
v 0.37119474 -0.28436302 0.26489916
v 0.29534246 0.19784426 0.26489916
v 0.24170888 -0.26950300 0.26489916
v 0.23059953 0.20527427 0.15202509
v 0.17696595 -0.26207299 0.15202509
v 0.29534246 0.19784426 0.03915102
v 0.24170888 -0.26950300 0.03915102
v 0.42482832 0.18298424 0.03915102
v 0.37119474 -0.28436302 0.03915102
v 0.37051414 0.28128733 0.15202509
v 0.50000000 0.26642731 0.15202509
v 0.34965664 0.09954117 0.15202509
v 0.43525707 0.27385732 0.26489916
v 0.30577121 0.28871734 0.26489916
v 0.24102828 0.29614735 0.15202509
v 0.30577121 0.28871734 0.03915102
v 0.43525707 0.27385732 0.03915102
v 0.23627824 0.25137475 -0.15427891
v 0.36008871 0.21996210 -0.15427891
v 0.20174410 -0.40414071 -0.15427891
v 0.07793364 -0.37272807 -0.15427891
v 0.29818348 0.23566842 -0.04365866
v 0.13983887 -0.38843439 -0.04365866
v 0.17437301 0.26708107 -0.04365866
v 0.01602840 -0.35702175 -0.04365866
v 0.11246778 0.28278739 -0.15427891
v -0.04587683 -0.34131543 -0.15427891
v 0.17437301 0.26708107 -0.26489916
v 0.01602840 -0.35702175 -0.26489916
v 0.29818348 0.23566842 -0.26489916
v 0.13983887 -0.38843439 -0.26489916
v 0.26706747 0.37272807 -0.15427891
v 0.39087794 0.34131543 -0.15427891
v 0.20548901 0.13002142 -0.15427891
v 0.32897271 0.35702175 -0.04365866
v 0.20516224 0.38843439 -0.04365866
v 0.14325700 0.40414071 -0.15427891
v 0.20516224 0.38843439 -0.26489916
v 0.32897271 0.35702175 -0.26489916
f 2 1 5
f 2 5 3
f 3 5 6
f 3 6 4
f 5 1 7
f 5 7 6
f 6 7 8
f 6 8 4
f 7 1 9
f 7 9 8
f 8 9 10
f 8 10 4
f 9 1 11
f 9 11 10
f 10 11 12
f 10 12 4
f 11 1 13
f 11 13 12
f 12 13 14
f 12 14 4
f 13 1 2
f 13 2 14
f 14 2 3
f 14 3 4
f 16 15 18
f 16 18 17
f 18 15 19
f 18 19 17
f 19 15 20
f 19 20 17
f 20 15 21
f 20 21 17
f 21 15 22
f 21 22 17
f 22 15 16
f 22 16 17
f 24 23 27
f 24 27 25
f 25 27 28
f 25 28 26
f 27 23 29
f 27 29 28
f 28 29 30
f 28 30 26
f 29 23 31
f 29 31 30
f 30 31 32
f 30 32 26
f 31 23 33
f 31 33 32
f 32 33 34
f 32 34 26
f 33 23 35
f 33 35 34
f 34 35 36
f 34 36 26
f 35 23 24
f 35 24 36
f 36 24 25
f 36 25 26
f 38 37 40
f 38 40 39
f 40 37 41
f 40 41 39
f 41 37 42
f 41 42 39
f 42 37 43
f 42 43 39
f 43 37 44
f 43 44 39
f 44 37 38
f 44 38 39
f 46 45 49
f 46 49 47
f 47 49 50
f 47 50 48
f 49 45 51
f 49 51 50
f 50 51 52
f 50 52 48
f 51 45 53
f 51 53 52
f 52 53 54
f 52 54 48
f 53 45 55
f 53 55 54
f 54 55 56
f 54 56 48
f 55 45 57
f 55 57 56
f 56 57 58
f 56 58 48
f 57 45 46
f 57 46 58
f 58 46 47
f 58 47 48
f 60 59 62
f 60 62 61
f 62 59 63
f 62 63 61
f 63 59 64
f 63 64 61
f 64 59 65
f 64 65 61
f 65 59 66
f 65 66 61
f 66 59 60
f 66 60 61
f 68 67 71
f 68 71 69
f 69 71 72
f 69 72 70
f 71 67 73
f 71 73 72
f 72 73 74
f 72 74 70
f 73 67 75
f 73 75 74
f 74 75 76
f 74 76 70
f 75 67 77
f 75 77 76
f 76 77 78
f 76 78 70
f 77 67 79
f 77 79 78
f 78 79 80
f 78 80 70
f 79 67 68
f 79 68 80
f 80 68 69
f 80 69 70
f 82 81 84
f 82 84 83
f 84 81 85
f 84 85 83
f 85 81 86
f 85 86 83
f 86 81 87
f 86 87 83
f 87 81 88
f 87 88 83
f 88 81 82
f 88 82 83
f 90 89 93
f 90 93 91
f 91 93 94
f 91 94 92
f 93 89 95
f 93 95 94
f 94 95 96
f 94 96 92
f 95 89 97
f 95 97 96
f 96 97 98
f 96 98 92
f 97 89 99
f 97 99 98
f 98 99 100
f 98 100 92
f 99 89 101
f 99 101 100
f 100 101 102
f 100 102 92
f 101 89 90
f 101 90 102
f 102 90 91
f 102 91 92
f 104 103 106
f 104 106 105
f 106 103 107
f 106 107 105
f 107 103 108
f 107 108 105
f 108 103 109
f 108 109 105
f 109 103 110
f 109 110 105
f 110 103 104
f 110 104 105
f 112 111 115
f 112 115 113
f 113 115 116
f 113 116 114
f 115 111 117
f 115 117 116
f 116 117 118
f 116 118 114
f 117 111 119
f 117 119 118
f 118 119 120
f 118 120 114
f 119 111 121
f 119 121 120
f 120 121 122
f 120 122 114
f 121 111 123
f 121 123 122
f 122 123 124
f 122 124 114
f 123 111 112
f 123 112 124
f 124 112 113
f 124 113 114
f 126 125 128
f 126 128 127
f 128 125 129
f 128 129 127
f 129 125 130
f 129 130 127
f 130 125 131
f 130 131 127
f 131 125 132
f 131 132 127
f 132 125 126
f 132 126 127

