# https://github.com/mikedh/trimesh
v -0.08632311 0.23729462 0.11105534
v 0.06324595 0.27269611 0.11105534
v 0.20102529 -0.30941291 0.11105534
v 0.05145622 -0.34481439 0.11105534
v -0.01153858 0.25499537 0.24416479
v 0.12624076 -0.32711365 0.24416479
v -0.16110764 0.21959388 0.24416479
v -0.02332831 -0.36251514 0.24416479
v -0.23589217 0.20189314 0.11105534
v -0.09811284 -0.38021588 0.11105534
v -0.16110764 0.21959388 -0.02205412
v -0.02332831 -0.36251514 -0.02205412
v -0.01153858 0.25499537 -0.02205412
v 0.12624076 -0.32711365 -0.02205412
v -0.11311354 0.35048249 0.11105534
v 0.03645552 0.38588398 0.11105534
v -0.05953268 0.12410676 0.11105534
v -0.03832901 0.36818323 0.24416479
v -0.18789807 0.33278174 0.24416479
v -0.26268260 0.31508100 0.11105534
v -0.18789807 0.33278174 -0.02205412
v -0.03832901 0.36818323 -0.02205412
v 0.00671455 0.25315536 -0.14045683
v 0.12645573 0.25157272 -0.14045683
v 0.11822284 -0.37132105 -0.14045683
v -0.00151834 -0.36973841 -0.14045683
v 0.06658514 0.25236404 -0.03674888
v 0.05835225 -0.37052973 -0.03674888
v -0.05315604 0.25394668 -0.03674888
v -0.06138892 -0.36894709 -0.03674888
v -0.11302662 0.25473800 -0.14045683
v -0.12125951 -0.36815577 -0.14045683
v -0.05315604 0.25394668 -0.24416479
v -0.06138892 -0.36894709 -0.24416479
v 0.06658514 0.25236404 -0.24416479
v 0.05835225 -0.37052973 -0.24416479
v 0.00831539 0.37427359 -0.14045683
v 0.12805657 0.37269095 -0.14045683
v 0.00511371 0.13203713 -0.14045683
v 0.06818598 0.37348227 -0.03674888
v -0.05155520 0.37506491 -0.03674888
v -0.11142578 0.37585623 -0.14045683
v -0.05155520 0.37506491 -0.24416479
v 0.06818598 0.37348227 -0.24416479
v -0.16568689 0.22643361 -0.10838625
v -0.05920800 0.24770594 -0.10838625
v 0.05150607 -0.30647477 -0.10838625
v -0.05497283 -0.32774709 -0.10838625
v -0.11244745 0.23706978 -0.01435062
v -0.00173338 -0.31711093 -0.01435062
v -0.21892634 0.21579745 -0.01435062
v -0.10821228 -0.33838325 -0.01435062
v -0.27216579 0.20516129 -0.10838625
v -0.16145172 -0.34901942 -0.10838625
v -0.21892634 0.21579745 -0.20242188
v -0.10821228 -0.33838325 -0.20242188
v -0.11244745 0.23706978 -0.20242188
v -0.00173338 -0.31711093 -0.20242188
v -0.18721463 0.33419097 -0.10838625
v -0.08073573 0.35546330 -0.10838625
v -0.14415916 0.11867625 -0.10838625
v -0.13397518 0.34482714 -0.01435062
v -0.24045408 0.32355481 -0.01435062
v -0.29369352 0.31291865 -0.10838625
v -0.24045408 0.32355481 -0.20242188
v -0.13397518 0.34482714 -0.20242188
v 0.12711272 0.25691561 0.04305631
v 0.23515842 0.26691377 0.04305631
v 0.29369352 -0.36564921 0.04305631
v 0.18564782 -0.37564737 0.04305631
v 0.18113557 0.26191469 0.13702640
v 0.23967067 -0.37064829 0.13702640
v 0.07308987 0.25191653 0.13702640
v 0.13162497 -0.38064645 0.13702640
v 0.01906702 0.24691745 0.04305631
v 0.07760212 -0.38564553 0.04305631
v 0.07308987 0.25191653 -0.05091378
v 0.13162497 -0.38064645 -0.05091378
v 0.18113557 0.26191469 -0.05091378
v 0.23967067 -0.37064829 -0.05091378
v 0.11573090 0.37991396 0.04305631
v 0.22377660 0.38991212 0.04305631
v 0.13849455 0.13391725 0.04305631
v 0.16975375 0.38491304 0.13702640
v 0.06170805 0.37491488 0.13702640
v 0.00768520 0.36991580 0.04305631
v 0.06170805 0.37491488 -0.05091378
v 0.16975375 0.38491304 -0.05091378
v 0.09838457 0.31664794 -0.07489679
v 0.19569513 0.28616041 -0.07489679
v -0.05061002 -0.50000000 -0.07489679
v -0.14792058 -0.46951247 -0.07489679
v 0.14703985 0.30140418 0.01341588
v -0.09926530 -0.48475623 0.01341588
v 0.04972929 0.33189171 0.01341588
v -0.19657586 -0.45426870 0.01341588
v 0.00107401 0.34713548 -0.07489679
v -0.24523114 -0.43902493 -0.07489679
v 0.04972929 0.33189171 -0.16320945
v -0.19657586 -0.45426870 -0.16320945
v 0.14703985 0.30140418 -0.16320945
v -0.09926530 -0.48475623 -0.16320945
v 0.14627724 0.46951247 -0.07489679
v 0.24358780 0.43902493 -0.07489679
v 0.05049190 0.16378342 -0.07489679
v 0.19493252 0.45426870 0.01341588
v 0.09762196 0.48475623 0.01341588
v 0.04896668 0.50000000 -0.07489679
v 0.09762196 0.48475623 -0.16320945
v 0.19493252 0.45426870 -0.16320945
f 2 1 5
f 2 5 3
f 3 5 6
f 3 6 4
f 5 1 7
f 5 7 6
f 6 7 8
f 6 8 4
f 7 1 9
f 7 9 8
f 8 9 10
f 8 10 4
f 9 1 11
f 9 11 10
f 10 11 12
f 10 12 4
f 11 1 13
f 11 13 12
f 12 13 14
f 12 14 4
f 13 1 2
f 13 2 14
f 14 2 3
f 14 3 4
f 16 15 18
f 16 18 17
f 18 15 19
f 18 19 17
f 19 15 20
f 19 20 17
f 20 15 21
f 20 21 17
f 21 15 22
f 21 22 17
f 22 15 16
f 22 16 17
f 24 23 27
f 24 27 25
f 25 27 28
f 25 28 26
f 27 23 29
f 27 29 28
f 28 29 30
f 28 30 26
f 29 23 31
f 29 31 30
f 30 31 32
f 30 32 26
f 31 23 33
f 31 33 32
f 32 33 34
f 32 34 26
f 33 23 35
f 33 35 34
f 34 35 36
f 34 36 26
f 35 23 24
f 35 24 36
f 36 24 25
f 36 25 26
f 38 37 40
f 38 40 39
f 40 37 41
f 40 41 39
f 41 37 42
f 41 42 39
f 42 37 43
f 42 43 39
f 43 37 44
f 43 44 39
f 44 37 38
f 44 38 39
f 46 45 49
f 46 49 47
f 47 49 50
f 47 50 48
f 49 45 51
f 49 51 50
f 50 51 52
f 50 52 48
f 51 45 53
f 51 53 52
f 52 53 54
f 52 54 48
f 53 45 55
f 53 55 54
f 54 55 56
f 54 56 48
f 55 45 57
f 55 57 56
f 56 57 58
f 56 58 48
f 57 45 46
f 57 46 58
f 58 46 47
f 58 47 48
f 60 59 62
f 60 62 61
f 62 59 63
f 62 63 61
f 63 59 64
f 63 64 61
f 64 59 65
f 64 65 61
f 65 59 66
f 65 66 61
f 66 59 60
f 66 60 61
f 68 67 71
f 68 71 69
f 69 71 72
f 69 72 70
f 71 67 73
f 71 73 72
f 72 73 74
f 72 74 70
f 73 67 75
f 73 75 74
f 74 75 76
f 74 76 70
f 75 67 77
f 75 77 76
f 76 77 78
f 76 78 70
f 77 67 79
f 77 79 78
f 78 79 80
f 78 80 70
f 79 67 68
f 79 68 80
f 80 68 69
f 80 69 70
f 82 81 84
f 82 84 83
f 84 81 85
f 84 85 83
f 85 81 86
f 85 86 83
f 86 81 87
f 86 87 83
f 87 81 88
f 87 88 83
f 88 81 82
f 88 82 83
f 90 89 93
f 90 93 91
f 91 93 94
f 91 94 92
f 93 89 95
f 93 95 94
f 94 95 96
f 94 96 92
f 95 89 97
f 95 97 96
f 96 97 98
f 96 98 92
f 97 89 99
f 97 99 98
f 98 99 100
f 98 100 92
f 99 89 101
f 99 101 100
f 100 101 102
f 100 102 92
f 101 89 90
f 101 90 102
f 102 90 91
f 102 91 92
f 104 103 106
f 104 106 105
f 106 103 107
f 106 107 105
f 107 103 108
f 107 108 105
f 108 103 109
f 108 109 105
f 109 103 110
f 109 110 105
f 110 103 104
f 110 104 105

