# https://github.com/mikedh/trimesh
v 0.32779596 0.24016784 -0.19552305
v 0.45402927 0.24869567 -0.19552305
v 0.49439756 -0.34885600 -0.19552305
v 0.36816425 -0.35738384 -0.19552305
v 0.39091262 0.24443175 -0.08595262
v 0.43128091 -0.35311992 -0.08595262
v 0.26467931 0.23590392 -0.08595262
v 0.30504760 -0.36164776 -0.08595262
v 0.20156265 0.23164000 -0.19552305
v 0.24193095 -0.36591167 -0.19552305
v 0.26467931 0.23590392 -0.30509348
v 0.30504760 -0.36164776 -0.30509348
v 0.39091262 0.24443175 -0.30509348
v 0.43128091 -0.35311992 -0.30509348
v 0.31994657 0.35635844 -0.19552305
v 0.44617988 0.36488628 -0.19552305
v 0.33564535 0.12397723 -0.19552305
v 0.38306323 0.36062236 -0.08595262
v 0.25682992 0.35209452 -0.08595262
v 0.19371326 0.34783060 -0.19552305
v 0.25682992 0.35209452 -0.30509348
v 0.38306323 0.36062236 -0.30509348
v -0.35288220 0.17968821 0.17969357
v -0.20813803 0.18368549 0.17969357
v -0.19593077 -0.25834714 0.17969357
v -0.34067493 -0.26234442 0.17969357
v -0.28051012 0.18168685 0.30509348
v -0.26830285 -0.26034578 0.30509348
v -0.42525428 0.17768957 0.30509348
v -0.41304701 -0.26434306 0.30509348
v -0.49762636 0.17569092 0.17969357
v -0.48541910 -0.26634171 0.17969357
v -0.42525428 0.17768957 0.05429365
v -0.41304701 -0.26434306 0.05429365
v -0.28051012 0.18168685 0.05429365
v -0.26830285 -0.26034578 0.05429365
v -0.35525583 0.26563900 0.17969357
v -0.21051167 0.26963628 0.17969357
v -0.35050856 0.09373742 0.17969357
v -0.28288375 0.26763764 0.30509348
v -0.42762792 0.26364035 0.30509348
v -0.50000000 0.26164171 0.17969357
v -0.42762792 0.26364035 0.05429365
v -0.28288375 0.26763764 0.05429365
v -0.19576276 0.22581227 0.14045969
v -0.07710177 0.26306549 0.14045969
v 0.09890847 -0.29757187 0.14045969
v -0.01975251 -0.33482509 0.14045969
v -0.13643227 0.24443888 0.24816843
v 0.03957798 -0.31619848 0.24816843
v -0.25509325 0.20718566 0.24816843
v -0.07908301 -0.35345170 0.24816843
v -0.31442374 0.18855905 0.14045969
v -0.13841350 -0.37207831 0.14045969
v -0.25509325 0.20718566 0.03275095
v -0.07908301 -0.35345170 0.03275095
v -0.13643227 0.24443888 0.03275095
v 0.03957798 -0.31619848 0.03275095
v -0.22998697 0.33482509 0.14045969
v -0.11132599 0.37207831 0.14045969
v -0.16153854 0.11679945 0.14045969
v -0.17065648 0.35345170 0.24816843
v -0.28931746 0.31619848 0.24816843
v -0.34864795 0.29757187 0.14045969
v -0.28931746 0.31619848 0.03275095
v -0.17065648 0.35345170 0.03275095
v 0.29105842 0.17862617 -0.14956677
v 0.44600168 0.18923983 -0.14956677
v 0.47609399 -0.25006184 -0.14956677
v 0.32115073 -0.26067550 -0.14956677
v 0.36853005 0.18393300 -0.01506753
v 0.39862236 -0.25536867 -0.01506753
v 0.21358680 0.17331934 -0.01506753
v 0.24367910 -0.26598233 -0.01506753
v 0.13611517 0.16801250 -0.14956677
v 0.16620748 -0.27128917 -0.14956677
v 0.21358680 0.17331934 -0.28406602
v 0.24367910 -0.26598233 -0.28406602
v 0.36853005 0.18393300 -0.28406602
v 0.39862236 -0.25536867 -0.28406602
v 0.28520714 0.26404594 -0.14956677
v 0.44015040 0.27465960 -0.14956677
v 0.29690971 0.09320640 -0.14956677
v 0.36267877 0.26935277 -0.01506753
v 0.20773551 0.25873911 -0.01506753
v 0.13026389 0.25343227 -0.14956677
v 0.20773551 0.25873911 -0.28406602
v 0.36267877 0.26935277 -0.28406602
v 0.07583380 0.21507597 -0.17058463
v 0.22949638 0.21487009 -0.17058463
v 0.22878221 -0.31815964 -0.17058463
v 0.07511963 -0.31795376 -0.17058463
v 0.15266509 0.21497303 -0.03750882
v 0.15195092 -0.31805670 -0.03750882
v -0.00099749 0.21517891 -0.03750882
v -0.00171166 -0.31785082 -0.03750882
v -0.07782877 0.21528185 -0.17058463
v -0.07854294 -0.31774788 -0.17058463
v -0.00099749 0.21517891 -0.30366044
v -0.00171166 -0.31785082 -0.30366044
v 0.15266509 0.21497303 -0.30366044
v 0.15195092 -0.31805670 -0.30366044
v 0.07597267 0.31872064 -0.17058463
v 0.22963524 0.31851476 -0.17058463
v 0.07569493 0.11143130 -0.17058463
v 0.15280395 0.31861770 -0.03750882
v -0.00085862 0.31882358 -0.03750882
v -0.07768991 0.31892652 -0.17058463
v -0.00085862 0.31882358 -0.30366044
v 0.15280395 0.31861770 -0.30366044
v 0.36013123 0.18958045 -0.06784045
v 0.48406362 0.16785217 -0.06784045
v 0.40210509 -0.29961766 -0.06784045
v 0.27817270 -0.27788938 -0.06784045
v 0.42209743 0.17871631 0.04112522
v 0.34013890 -0.28875352 0.04112522
v 0.29816504 0.20044459 0.04112522
v 0.21620651 -0.26702524 0.04112522
v 0.23619884 0.21130874 -0.06784045
v 0.15424032 -0.25616110 -0.06784045
v 0.29816504 0.20044459 -0.17680611
v 0.21620651 -0.26702524 -0.17680611
v 0.42209743 0.17871631 -0.17680611
v 0.34013890 -0.28875352 -0.17680611
v 0.37606761 0.28047737 -0.06784045
v 0.50000000 0.25874908 -0.06784045
v 0.34419485 0.09868354 -0.06784045
v 0.43803381 0.26961323 0.04112522
v 0.31410142 0.29134151 0.04112522
v 0.25213523 0.30220565 -0.06784045
v 0.31410142 0.29134151 -0.17680611
v 0.43803381 0.26961323 -0.17680611
v 0.33873075 0.19342266 0.04227558
v 0.47198898 0.17384461 0.04227558
v 0.40185762 -0.30350519 0.04227558
v 0.26859939 -0.28392713 0.04227558
v 0.40535987 0.18363363 0.15891945
v 0.33522850 -0.29371616 0.15891945
v 0.27210164 0.20321169 0.15891945
v 0.20197028 -0.27413811 0.15891945
v 0.20547253 0.21300072 0.04227558
v 0.13534117 -0.26434908 0.04227558
v 0.27210164 0.20321169 -0.07436828
v 0.20197028 -0.27413811 -0.07436828
v 0.40535987 0.18363363 -0.07436828
v 0.33522850 -0.29371616 -0.07436828
v 0.35236741 0.28624068 0.04227558
v 0.48562563 0.26666262 0.04227558
v 0.32509410 0.10060465 0.04227558
v 0.41899652 0.27645165 0.15891945
v 0.28573829 0.29602971 0.15891945
v 0.21910918 0.30581873 0.04227558
v 0.28573829 0.29602971 -0.07436828
v 0.41899652 0.27645165 -0.07436828
f 2 1 5
f 2 5 3
f 3 5 6
f 3 6 4
f 5 1 7
f 5 7 6
f 6 7 8
f 6 8 4
f 7 1 9
f 7 9 8
f 8 9 10
f 8 10 4
f 9 1 11
f 9 11 10
f 10 11 12
f 10 12 4
f 11 1 13
f 11 13 12
f 12 13 14
f 12 14 4
f 13 1 2
f 13 2 14
f 14 2 3
f 14 3 4
f 16 15 18
f 16 18 17
f 18 15 19
f 18 19 17
f 19 15 20
f 19 20 17
f 20 15 21
f 20 21 17
f 21 15 22
f 21 22 17
f 22 15 16
f 22 16 17
f 24 23 27
f 24 27 25
f 25 27 28
f 25 28 26
f 27 23 29
f 27 29 28
f 28 29 30
f 28 30 26
f 29 23 31
f 29 31 30
f 30 31 32
f 30 32 26
f 31 23 33
f 31 33 32
f 32 33 34
f 32 34 26
f 33 23 35
f 33 35 34
f 34 35 36
f 34 36 26
f 35 23 24
f 35 24 36
f 36 24 25
f 36 25 26
f 38 37 40
f 38 40 39
f 40 37 41
f 40 41 39
f 41 37 42
f 41 42 39
f 42 37 43
f 42 43 39
f 43 37 44
f 43 44 39
f 44 37 38
f 44 38 39
f 46 45 49
f 46 49 47
f 47 49 50
f 47 50 48
f 49 45 51
f 49 51 50
f 50 51 52
f 50 52 48
f 51 45 53
f 51 53 52
f 52 53 54
f 52 54 48
f 53 45 55
f 53 55 54
f 54 55 56
f 54 56 48
f 55 45 57
f 55 57 56
f 56 57 58
f 56 58 48
f 57 45 46
f 57 46 58
f 58 46 47
f 58 47 48
f 60 59 62
f 60 62 61
f 62 59 63
f 62 63 61
f 63 59 64
f 63 64 61
f 64 59 65
f 64 65 61
f 65 59 66
f 65 66 61
f 66 59 60
f 66 60 61
f 68 67 71
f 68 71 69
f 69 71 72
f 69 72 70
f 71 67 73
f 71 73 72
f 72 73 74
f 72 74 70
f 73 67 75
f 73 75 74
f 74 75 76
f 74 76 70
f 75 67 77
f 75 77 76
f 76 77 78
f 76 78 70
f 77 67 79
f 77 79 78
f 78 79 80
f 78 80 70
f 79 67 68
f 79 68 80
f 80 68 69
f 80 69 70
f 82 81 84
f 82 84 83
f 84 81 85
f 84 85 83
f 85 81 86
f 85 86 83
f 86 81 87
f 86 87 83
f 87 81 88
f 87 88 83
f 88 81 82
f 88 82 83
f 90 89 93
f 90 93 91
f 91 93 94
f 91 94 92
f 93 89 95
f 93 95 94
f 94 95 96
f 94 96 92
f 95 89 97
f 95 97 96
f 96 97 98
f 96 98 92
f 97 89 99
f 97 99 98
f 98 99 100
f 98 100 92
f 99 89 101
f 99 101 100
f 100 101 102
f 100 102 92
f 101 89 90
f 101 90 102
f 102 90 91
f 102 91 92
f 104 103 106
f 104 106 105
f 106 103 107
f 106 107 105
f 107 103 108
f 107 108 105
f 108 103 109
f 108 109 105
f 109 103 110
f 109 110 105
f 110 103 104
f 110 104 105
f 112 111 115
f 112 115 113
f 113 115 116
f 113 116 114
f 115 111 117
f 115 117 116
f 116 117 118
f 116 118 114
f 117 111 119
f 117 119 118
f 118 119 120
f 118 120 114
f 119 111 121
f 119 121 120
f 120 121 122
f 120 122 114
f 121 111 123
f 121 123 122
f 122 123 124
f 122 124 114
f 123 111 112
f 123 112 124
f 124 112 113
f 124 113 114
f 126 125 128
f 126 128 127
f 128 125 129
f 128 129 127
f 129 125 130
f 129 130 127
f 130 125 131
f 130 131 127
f 131 125 132
f 131 132 127
f 132 125 126
f 132 126 127
f 134 133 137
f 134 137 135
f 135 137 138
f 135 138 136
f 137 133 139
f 137 139 138
f 138 139 140
f 138 140 136
f 139 133 141
f 139 141 140
f 140 141 142
f 140 142 136
f 141 133 143
f 141 143 142
f 142 143 144
f 142 144 136
f 143 133 145
f 143 145 144
f 144 145 146
f 144 146 136
f 145 133 134
f 145 134 146
f 146 134 135
f 146 135 136
f 148 147 150
f 148 150 149
f 150 147 151
f 150 151 149
f 151 147 152
f 151 152 149
f 152 147 153
f 152 153 149
f 153 147 154
f 153 154 149
f 154 147 148
f 154 148 149

