# https://github.com/mikedh/trimesh
v 0.29771317 0.20411750 -0.11455798
v 0.42065364 0.18859956 -0.11455798
v 0.35700138 -0.31568366 -0.11455798
v 0.23406091 -0.30016571 -0.11455798
v 0.35918340 0.19635853 -0.00724361
v 0.29553115 -0.30792469 -0.00724361
v 0.23624293 0.21187647 -0.00724361
v 0.17259067 -0.29240674 -0.00724361
v 0.17477269 0.21963545 -0.11455798
v 0.11112044 -0.28464777 -0.11455798
v 0.23624293 0.21187647 -0.22187236
v 0.17259067 -0.29240674 -0.22187236
v 0.35918340 0.19635853 -0.22187236
v 0.29553115 -0.30792469 -0.22187236
v 0.31009000 0.30217257 -0.11455798
v 0.43303047 0.28665463 -0.11455798
v 0.28533634 0.10606243 -0.11455798
v 0.37156023 0.29441360 -0.00724361
v 0.24861976 0.30993154 -0.00724361
v 0.18714952 0.31769052 -0.11455798
v 0.24861976 0.30993154 -0.22187236
v 0.37156023 0.29441360 -0.22187236
v 0.31447147 0.23221350 0.14092928
v 0.39226534 0.23064597 0.14092928
v 0.38064838 -0.34588409 0.14092928
v 0.30285451 -0.34431656 0.14092928
v 0.35336840 0.23142973 0.20831443
v 0.34175144 -0.34510033 0.20831443
v 0.27557453 0.23299726 0.20831443
v 0.26395757 -0.34353280 0.20831443
v 0.23667759 0.23378103 0.14092928
v 0.22506063 -0.34274903 0.14092928
v 0.27557453 0.23299726 0.07354413
v 0.26395757 -0.34353280 0.07354413
v 0.35336840 0.23142973 0.07354413
v 0.34175144 -0.34510033 0.07354413
v 0.31673032 0.34431656 0.14092928
v 0.39452419 0.34274903 0.14092928
v 0.31221261 0.12011043 0.14092928
v 0.35562726 0.34353280 0.20831443
v 0.27783338 0.34510033 0.20831443
v 0.23893644 0.34588409 0.14092928
v 0.27783338 0.34510033 0.07354413
v 0.35562726 0.34353280 0.07354413
v -0.15056453 0.17121160 -0.01632845
v -0.05863513 0.17147431 -0.01632845
v -0.05743582 -0.24819373 -0.01632845
v -0.14936522 -0.24845644 -0.01632845
v -0.10459983 0.17134296 0.06328507
v -0.10340052 -0.24832508 0.06328507
v -0.19652923 0.17108024 0.06328507
v -0.19532992 -0.24858780 0.06328507
v -0.24249393 0.17094889 -0.01632845
v -0.24129462 -0.24871915 -0.01632845
v -0.19652923 0.17108024 -0.09594197
v -0.19532992 -0.24858780 -0.09594197
v -0.10459983 0.17134296 -0.09594197
v -0.10340052 -0.24832508 -0.09594197
v -0.15079773 0.25281372 -0.01632845
v -0.05886833 0.25307643 -0.01632845
v -0.15033133 0.08960948 -0.01632845
v -0.10483303 0.25294507 0.06328507
v -0.19676243 0.25268236 0.06328507
v -0.24272713 0.25255100 -0.01632845
v -0.19676243 0.25268236 -0.09594197
v -0.10483303 0.25294507 -0.09594197
v 0.22928934 0.18911586 0.06279470
v 0.35224590 0.22812605 0.06279470
v 0.50000000 -0.23758153 0.06279470
v 0.37704343 -0.27659171 0.06279470
v 0.29076762 0.20862096 0.17450899
v 0.43852172 -0.25708662 0.17450899
v 0.16781105 0.16961077 0.17450899
v 0.31556515 -0.29609680 0.17450899
v 0.10633277 0.15010568 0.06279470
v 0.25408686 -0.31560189 0.06279470
v 0.16781105 0.16961077 -0.04891960
v 0.31556515 -0.29609680 -0.04891960
v 0.29076762 0.20862096 -0.04891960
v 0.43852172 -0.25708662 -0.04891960
v 0.20055937 0.27967012 0.06279470
v 0.32351594 0.31868030 0.06279470
v 0.25801930 0.09856161 0.06279470
v 0.26203766 0.29917521 0.17450899
v 0.13908109 0.26016503 0.17450899
v 0.07760280 0.24065994 0.06279470
v 0.13908109 0.26016503 -0.04891960
v 0.26203766 0.29917521 -0.04891960
v 0.18467754 0.15532603 -0.19554068
v 0.26687034 0.13064275 -0.19554068
v 0.15310728 -0.24817668 -0.19554068
v 0.07091447 -0.22349340 -0.19554068
v 0.22577394 0.14298439 -0.12121914
v 0.11201088 -0.23583504 -0.12121914
v 0.14358113 0.16766767 -0.12121914
v 0.02981807 -0.21115176 -0.12121914
v 0.10248473 0.18000931 -0.19554068
v -0.01127833 -0.19881013 -0.19554068
v 0.14358113 0.16766767 -0.26986222
v 0.02981807 -0.21115176 -0.26986222
v 0.22577394 0.14298439 -0.26986222
v 0.11201088 -0.23583504 -0.26986222
v 0.20679813 0.22898536 -0.19554068
v 0.28899094 0.20430209 -0.19554068
v 0.16255694 0.08166670 -0.19554068
v 0.24789453 0.21664373 -0.12121914
v 0.16570173 0.24132700 -0.12121914
v 0.12460533 0.25366864 -0.19554068
v 0.16570173 0.24132700 -0.26986222
v 0.24789453 0.21664373 -0.26986222
v 0.38623631 0.19387396 0.06594305
v 0.48786877 0.19477550 0.06594305
v 0.49210841 -0.28316717 0.06594305
v 0.39047596 -0.28406871 0.06594305
v 0.43705254 0.19432473 0.15396281
v 0.44129219 -0.28361794 0.15396281
v 0.33542008 0.19342318 0.15396281
v 0.33965973 -0.28451949 0.15396281
v 0.28460385 0.19297241 0.06594305
v 0.28884350 -0.28497026 0.06594305
v 0.33542008 0.19342318 -0.02207670
v 0.33965973 -0.28451949 -0.02207670
v 0.43705254 0.19432473 -0.02207670
v 0.44129219 -0.28361794 -0.02207670
v 0.38541194 0.28680725 0.06594305
v 0.48704440 0.28770879 0.06594305
v 0.38706069 0.10094066 0.06594305
v 0.43622817 0.28725802 0.15396281
v 0.33459571 0.28635648 0.15396281
v 0.28377948 0.28590571 0.06594305
v 0.33459571 0.28635648 -0.02207670
v 0.43622817 0.28725802 -0.02207670
v -0.36968847 0.19061625 -0.12921409
v -0.28001325 0.20148904 -0.12921409
v -0.22308015 -0.26807668 -0.12921409
v -0.31275537 -0.27894947 -0.12921409
v -0.32485086 0.19605265 -0.05098432
v -0.26791776 -0.27351307 -0.05098432
v -0.41452607 0.18517986 -0.05098432
v -0.35759297 -0.28438586 -0.05098432
v -0.45936368 0.17974347 -0.12921409
v -0.40243058 -0.28982225 -0.12921409
v -0.41452607 0.18517986 -0.20744385
v -0.35759297 -0.28438586 -0.20744385
v -0.32485086 0.19605265 -0.20744385
v -0.26791776 -0.27351307 -0.20744385
v -0.38075879 0.28192070 -0.12921409
v -0.29108358 0.29279348 -0.12921409
v -0.35861814 0.09931181 -0.12921409
v -0.33592119 0.28735709 -0.05098432
v -0.42559640 0.27648430 -0.05098432
v -0.47043401 0.27104791 -0.12921409
v -0.42559640 0.27648430 -0.20744385
v -0.33592119 0.28735709 -0.20744385
v -0.32130010 0.15667849 0.15566279
v -0.22692933 0.13586168 0.15566279
v -0.31125846 -0.24643549 0.15566279
v -0.40562923 -0.22561869 0.15566279
v -0.27411471 0.14627008 0.23935500
v -0.35844385 -0.23602709 0.23935500
v -0.36848548 0.16708689 0.23935500
v -0.45281462 -0.21521029 0.23935500
v -0.41567087 0.17749529 0.15566279
v -0.50000000 -0.20480189 0.15566279
v -0.36848548 0.16708689 0.07197058
v -0.45281462 -0.21521029 0.07197058
v -0.27411471 0.14627008 0.07197058
v -0.35844385 -0.23602709 0.07197058
v -0.30490277 0.23101405 0.15566279
v -0.21053200 0.21019725 0.15566279
v -0.33769743 0.08234292 0.15566279
v -0.25771738 0.22060565 0.23935500
v -0.35208815 0.24142245 0.23935500
v -0.39927353 0.25183085 0.15566279
v -0.35208815 0.24142245 0.07197058
v -0.25771738 0.22060565 0.07197058
v 0.04299730 0.16680699 0.16330357
v 0.16556682 0.17759471 0.16330357
v 0.20150625 -0.23074719 0.16330357
v 0.07893674 -0.24153491 0.16330357
v 0.10428206 0.17220085 0.26986222
v 0.14022149 -0.23614105 0.26986222
v -0.01828745 0.16141313 0.26986222
v 0.01765198 -0.24692877 0.26986222
v -0.07957221 0.15601927 0.16330357
v -0.04363277 -0.25232263 0.16330357
v -0.01828745 0.16141313 0.05674492
v 0.01765198 -0.24692877 0.05674492
v 0.10428206 0.17220085 0.05674492
v 0.14022149 -0.23614105 0.05674492
v 0.03600908 0.24620681 0.16330357
v 0.15857859 0.25699453 0.16330357
v 0.04998553 0.08740718 0.16330357
v 0.09729384 0.25160067 0.26986222
v -0.02527567 0.24081294 0.26986222
v -0.08656043 0.23541908 0.16330357
v -0.02527567 0.24081294 0.05674492
v 0.09729384 0.25160067 0.05674492
f 2 1 5
f 2 5 3
f 3 5 6
f 3 6 4
f 5 1 7
f 5 7 6
f 6 7 8
f 6 8 4
f 7 1 9
f 7 9 8
f 8 9 10
f 8 10 4
f 9 1 11
f 9 11 10
f 10 11 12
f 10 12 4
f 11 1 13
f 11 13 12
f 12 13 14
f 12 14 4
f 13 1 2
f 13 2 14
f 14 2 3
f 14 3 4
f 16 15 18
f 16 18 17
f 18 15 19
f 18 19 17
f 19 15 20
f 19 20 17
f 20 15 21
f 20 21 17
f 21 15 22
f 21 22 17
f 22 15 16
f 22 16 17
f 24 23 27
f 24 27 25
f 25 27 28
f 25 28 26
f 27 23 29
f 27 29 28
f 28 29 30
f 28 30 26
f 29 23 31
f 29 31 30
f 30 31 32
f 30 32 26
f 31 23 33
f 31 33 32
f 32 33 34
f 32 34 26
f 33 23 35
f 33 35 34
f 34 35 36
f 34 36 26
f 35 23 24
f 35 24 36
f 36 24 25
f 36 25 26
f 38 37 40
f 38 40 39
f 40 37 41
f 40 41 39
f 41 37 42
f 41 42 39
f 42 37 43
f 42 43 39
f 43 37 44
f 43 44 39
f 44 37 38
f 44 38 39
f 46 45 49
f 46 49 47
f 47 49 50
f 47 50 48
f 49 45 51
f 49 51 50
f 50 51 52
f 50 52 48
f 51 45 53
f 51 53 52
f 52 53 54
f 52 54 48
f 53 45 55
f 53 55 54
f 54 55 56
f 54 56 48
f 55 45 57
f 55 57 56
f 56 57 58
f 56 58 48
f 57 45 46
f 57 46 58
f 58 46 47
f 58 47 48
f 60 59 62
f 60 62 61
f 62 59 63
f 62 63 61
f 63 59 64
f 63 64 61
f 64 59 65
f 64 65 61
f 65 59 66
f 65 66 61
f 66 59 60
f 66 60 61
f 68 67 71
f 68 71 69
f 69 71 72
f 69 72 70
f 71 67 73
f 71 73 72
f 72 73 74
f 72 74 70
f 73 67 75
f 73 75 74
f 74 75 76
f 74 76 70
f 75 67 77
f 75 77 76
f 76 77 78
f 76 78 70
f 77 67 79
f 77 79 78
f 78 79 80
f 78 80 70
f 79 67 68
f 79 68 80
f 80 68 69
f 80 69 70
f 82 81 84
f 82 84 83
f 84 81 85
f 84 85 83
f 85 81 86
f 85 86 83
f 86 81 87
f 86 87 83
f 87 81 88
f 87 88 83
f 88 81 82
f 88 82 83
f 90 89 93
f 90 93 91
f 91 93 94
f 91 94 92
f 93 89 95
f 93 95 94
f 94 95 96
f 94 96 92
f 95 89 97
f 95 97 96
f 96 97 98
f 96 98 92
f 97 89 99
f 97 99 98
f 98 99 100
f 98 100 92
f 99 89 101
f 99 101 100
f 100 101 102
f 100 102 92
f 101 89 90
f 101 90 102
f 102 90 91
f 102 91 92
f 104 103 106
f 104 106 105
f 106 103 107
f 106 107 105
f 107 103 108
f 107 108 105
f 108 103 109
f 108 109 105
f 109 103 110
f 109 110 105
f 110 103 104
f 110 104 105
f 112 111 115
f 112 115 113
f 113 115 116
f 113 116 114
f 115 111 117
f 115 117 116
f 116 117 118
f 116 118 114
f 117 111 119
f 117 119 118
f 118 119 120
f 118 120 114
f 119 111 121
f 119 121 120
f 120 121 122
f 120 122 114
f 121 111 123
f 121 123 122
f 122 123 124
f 122 124 114
f 123 111 112
f 123 112 124
f 124 112 113
f 124 113 114
f 126 125 128
f 126 128 127
f 128 125 129
f 128 129 127
f 129 125 130
f 129 130 127
f 130 125 131
f 130 131 127
f 131 125 132
f 131 132 127
f 132 125 126
f 132 126 127
f 134 133 137
f 134 137 135
f 135 137 138
f 135 138 136
f 137 133 139
f 137 139 138
f 138 139 140
f 138 140 136
f 139 133 141
f 139 141 140
f 140 141 142
f 140 142 136
f 141 133 143
f 141 143 142
f 142 143 144
f 142 144 136
f 143 133 145
f 143 145 144
f 144 145 146
f 144 146 136
f 145 133 134
f 145 134 146
f 146 134 135
f 146 135 136
f 148 147 150
f 148 150 149
f 150 147 151
f 150 151 149
f 151 147 152
f 151 152 149
f 152 147 153
f 152 153 149
f 153 147 154
f 153 154 149
f 154 147 148
f 154 148 149
f 156 155 159
f 156 159 157
f 157 159 160
f 157 160 158
f 159 155 161
f 159 161 160
f 160 161 162
f 160 162 158
f 161 155 163
f 161 163 162
f 162 163 164
f 162 164 158
f 163 155 165
f 163 165 164
f 164 165 166
f 164 166 158
f 165 155 167
f 165 167 166
f 166 167 168
f 166 168 158
f 167 155 156
f 167 156 168
f 168 156 157
f 168 157 158
f 170 169 172
f 170 172 171
f 172 169 173
f 172 173 171
f 173 169 174
f 173 174 171
f 174 169 175
f 174 175 171
f 175 169 176
f 175 176 171
f 176 169 170
f 176 170 171
f 178 177 181
f 178 181 179
f 179 181 182
f 179 182 180
f 181 177 183
f 181 183 182
f 182 183 184
f 182 184 180
f 183 177 185
f 183 185 184
f 184 185 186
f 184 186 180
f 185 177 187
f 185 187 186
f 186 187 188
f 186 188 180
f 187 177 189
f 187 189 188
f 188 189 190
f 188 190 180
f 189 177 178
f 189 178 190
f 190 178 179
f 190 179 180
f 192 191 194
f 192 194 193
f 194 191 195
f 194 195 193
f 195 191 196
f 195 196 193
f 196 191 197
f 196 197 193
f 197 191 198
f 197 198 193
f 198 191 192
f 198 192 193

