# https://github.com/mikedh/trimesh
v -0.12293896 0.28371716 0.17327308
v 0.10236385 0.25695484 0.17327308
v 0.01909049 -0.44409514 0.17327308
v -0.20621232 -0.41733282 0.17327308
v -0.01028756 0.27033600 0.36976273
v -0.09356091 -0.43071398 0.36976273
v -0.23559036 0.29709832 0.36976273
v -0.31886372 -0.40395166 0.36976273
v -0.34824177 0.31047947 0.17327308
v -0.43151513 -0.39057051 0.17327308
v -0.23559036 0.29709832 -0.02321657
v -0.31886372 -0.40395166 -0.02321657
v -0.01028756 0.27033600 -0.02321657
v -0.09356091 -0.43071398 -0.02321657
v -0.10674692 0.42003243 0.17327308
v 0.11855589 0.39327011 0.17327308
v -0.13913100 0.14740188 0.17327308
v 0.00590448 0.40665127 0.36976273
v -0.21939832 0.43341359 0.36976273
v -0.33204973 0.44679475 0.17327308
v -0.21939832 0.43341359 -0.02321657
v 0.00590448 0.40665127 -0.02321657
v 0.18731688 0.26022789 -0.04736100
v 0.39341134 0.19718752 -0.04736100
v 0.19744904 -0.44346148 -0.04736100
v -0.00864543 -0.38042111 -0.04736100
v 0.29036411 0.22870770 0.13928509
v 0.09440181 -0.41194129 0.13928509
v 0.08426964 0.29174807 0.13928509
v -0.11169266 -0.34890093 0.13928509
v -0.01877759 0.32326825 -0.04736100
v -0.21473990 -0.31738075 -0.04736100
v 0.08426964 0.29174807 -0.23400709
v -0.11169266 -0.34890093 -0.23400709
v 0.29036411 0.22870770 -0.23400709
v 0.09440181 -0.41194129 -0.23400709
v 0.22542066 0.38479852 -0.04736100
v 0.43151513 0.32175816 -0.04736100
v 0.14921310 0.13565725 -0.04736100
v 0.32846789 0.35327834 0.13928509
v 0.12237342 0.41631871 0.13928509
v 0.01932619 0.44783889 -0.04736100
v 0.12237342 0.41631871 -0.23400709
v 0.32846789 0.35327834 -0.23400709
v 0.06980716 0.32151167 0.08468857
v 0.25707647 0.29823588 0.08468857
v 0.15786335 -0.50000000 0.08468857
v -0.02940597 -0.47672421 0.08468857
v 0.16344182 0.30987378 0.24811644
v 0.06422869 -0.48836210 0.24811644
v -0.02382750 0.33314957 0.24811644
v -0.12304062 -0.46508631 0.24811644
v -0.11746216 0.34478747 0.08468857
v -0.21667528 -0.45344841 0.08468857
v -0.02382750 0.33314957 -0.07873930
v -0.12304062 -0.46508631 -0.07873930
v 0.16344182 0.30987378 -0.07873930
v 0.06422869 -0.48836210 -0.07873930
v 0.08909860 0.47672421 0.08468857
v 0.27636792 0.45344841 0.08468857
v 0.05051572 0.16629914 0.08468857
v 0.18273326 0.46508631 0.24811644
v -0.00453606 0.48836210 0.24811644
v -0.09817071 0.50000000 0.08468857
v -0.00453606 0.48836210 -0.07873930
v 0.18273326 0.46508631 -0.07873930
v 0.14446666 0.27344633 -0.23873761
v 0.29407738 0.25093542 -0.23873761
v 0.19256899 -0.42370385 -0.23873761
v 0.04295828 -0.40119295 -0.23873761
v 0.21927202 0.26219087 -0.10771250
v 0.11776363 -0.41244840 -0.10771250
v 0.06966131 0.28470178 -0.10771250
v -0.03184708 -0.38993749 -0.10771250
v -0.00514405 0.29595723 -0.23873761
v -0.10665244 -0.37868204 -0.23873761
v 0.06966131 0.28470178 -0.36976273
v -0.03184708 -0.38993749 -0.36976273
v 0.21927202 0.26219087 -0.36976273
v 0.11776363 -0.41244840 -0.36976273
v 0.16420441 0.40462618 -0.23873761
v 0.31381512 0.38211528 -0.23873761
v 0.12472892 0.14226647 -0.23873761
v 0.23900976 0.39337073 -0.10771250
v 0.08939905 0.41588164 -0.10771250
v 0.01459369 0.42713709 -0.23873761
v 0.08939905 0.41588164 -0.36976273
v 0.23900976 0.39337073 -0.36976273
f 2 1 5
f 2 5 3
f 3 5 6
f 3 6 4
f 5 1 7
f 5 7 6
f 6 7 8
f 6 8 4
f 7 1 9
f 7 9 8
f 8 9 10
f 8 10 4
f 9 1 11
f 9 11 10
f 10 11 12
f 10 12 4
f 11 1 13
f 11 13 12
f 12 13 14
f 12 14 4
f 13 1 2
f 13 2 14
f 14 2 3
f 14 3 4
f 16 15 18
f 16 18 17
f 18 15 19
f 18 19 17
f 19 15 20
f 19 20 17
f 20 15 21
f 20 21 17
f 21 15 22
f 21 22 17
f 22 15 16
f 22 16 17
f 24 23 27
f 24 27 25
f 25 27 28
f 25 28 26
f 27 23 29
f 27 29 28
f 28 29 30
f 28 30 26
f 29 23 31
f 29 31 30
f 30 31 32
f 30 32 26
f 31 23 33
f 31 33 32
f 32 33 34
f 32 34 26
f 33 23 35
f 33 35 34
f 34 35 36
f 34 36 26
f 35 23 24
f 35 24 36
f 36 24 25
f 36 25 26
f 38 37 40
f 38 40 39
f 40 37 41
f 40 41 39
f 41 37 42
f 41 42 39
f 42 37 43
f 42 43 39
f 43 37 44
f 43 44 39
f 44 37 38
f 44 38 39
f 46 45 49
f 46 49 47
f 47 49 50
f 47 50 48
f 49 45 51
f 49 51 50
f 50 51 52
f 50 52 48
f 51 45 53
f 51 53 52
f 52 53 54
f 52 54 48
f 53 45 55
f 53 55 54
f 54 55 56
f 54 56 48
f 55 45 57
f 55 57 56
f 56 57 58
f 56 58 48
f 57 45 46
f 57 46 58
f 58 46 47
f 58 47 48
f 60 59 62
f 60 62 61
f 62 59 63
f 62 63 61
f 63 59 64
f 63 64 61
f 64 59 65
f 64 65 61
f 65 59 66
f 65 66 61
f 66 59 60
f 66 60 61
f 68 67 71
f 68 71 69
f 69 71 72
f 69 72 70
f 71 67 73
f 71 73 72
f 72 73 74
f 72 74 70
f 73 67 75
f 73 75 74
f 74 75 76
f 74 76 70
f 75 67 77
f 75 77 76
f 76 77 78
f 76 78 70
f 77 67 79
f 77 79 78
f 78 79 80
f 78 80 70
f 79 67 68
f 79 68 80
f 80 68 69
f 80 69 70
f 82 81 84
f 82 84 83
f 84 81 85
f 84 85 83
f 85 81 86
f 85 86 83
f 86 81 87
f 86 87 83
f 87 81 88
f 87 88 83
f 88 81 82
f 88 82 83

