# https://github.com/mikedh/trimesh
v -0.07785660 0.17974829 -0.10449141
v 0.02242567 0.21145959 -0.10449141
v 0.16260370 -0.23183253 -0.10449141
v 0.06232143 -0.26354384 -0.10449141
v -0.02771547 0.19560394 -0.01340571
v 0.11246257 -0.24768818 -0.01340571
v -0.12799774 0.16389264 -0.01340571
v 0.01218030 -0.27939949 -0.01340571
v -0.17813887 0.14803698 -0.10449141
v -0.03796084 -0.29525514 -0.10449141
v -0.12799774 0.16389264 -0.19557711
v 0.01218030 -0.27939949 -0.19557711
v -0.02771547 0.19560394 -0.19557711
v 0.11246257 -0.24768818 -0.19557711
v -0.10511344 0.26594398 -0.10449141
v -0.00483117 0.29765528 -0.10449141
v -0.05059976 0.09355260 -0.10449141
v -0.05497231 0.28179963 -0.01340571
v -0.15525458 0.25008833 -0.01340571
v -0.20539571 0.23423267 -0.10449141
v -0.15525458 0.25008833 -0.19557711
v -0.05497231 0.28179963 -0.19557711
v -0.01178088 0.19255654 0.03791422
v 0.10882070 0.16344011 0.03791422
v -0.00615332 -0.31278751 0.03791422
v -0.12675489 -0.28367109 0.03791422
v 0.04851991 0.17799832 0.14535900
v -0.06645411 -0.29822930 0.14535900
v -0.07208167 0.20711475 0.14535900
v -0.18705568 -0.26911287 0.14535900
v -0.13238246 0.22167297 0.03791422
v -0.24735647 -0.25455466 0.03791422
v -0.07208167 0.20711475 -0.06953056
v -0.18705568 -0.26911287 -0.06953056
v 0.04851991 0.17799832 -0.06953056
v -0.06645411 -0.29822930 -0.06953056
v 0.01057518 0.28515635 0.03791422
v 0.13117675 0.25603993 0.03791422
v -0.03413694 0.09995672 0.03791422
v 0.07087597 0.27059814 0.14535900
v -0.04972561 0.29971457 0.14535900
v -0.11002640 0.31427278 0.03791422
v -0.04972561 0.29971457 -0.06953056
v 0.07087597 0.27059814 -0.06953056
v -0.35537165 0.13544943 0.17725606
v -0.22409073 0.16280875 0.17725606
v -0.15544682 -0.16657202 0.17725606
v -0.28672774 -0.19393134 0.17725606
v -0.28973119 0.14912909 0.29339137
v -0.22108728 -0.18025168 0.29339137
v -0.42101211 0.12176977 0.29339137
v -0.35236820 -0.20761101 0.29339137
v -0.48665257 0.10809010 0.17725606
v -0.41800866 -0.22129067 0.17725606
v -0.42101211 0.12176977 0.06112075
v -0.35236820 -0.20761101 0.06112075
v -0.28973119 0.14912909 0.06112075
v -0.22108728 -0.18025168 0.06112075
v -0.36871908 0.19949569 0.17725606
v -0.23743815 0.22685502 0.17725606
v -0.34202422 0.07140317 0.17725606
v -0.30307862 0.21317535 0.29339137
v -0.43435954 0.18581603 0.29339137
v -0.50000000 0.17213637 0.17725606
v -0.43435954 0.18581603 0.06112075
v -0.30307862 0.21317535 0.06112075
v -0.15161998 0.21335029 0.11715421
v -0.06336605 0.20960477 0.11715421
v -0.08584652 -0.32009249 0.11715421
v -0.17410044 -0.31634697 0.11715421
v -0.10749302 0.21147753 0.19365315
v -0.12997348 -0.31821973 0.19365315
v -0.19574694 0.21522304 0.19365315
v -0.21822741 -0.31447422 0.19365315
v -0.23987391 0.21709580 0.11715421
v -0.26235437 -0.31260146 0.11715421
v -0.19574694 0.21522304 0.04065526
v -0.21822741 -0.31447422 0.04065526
v -0.10749302 0.21147753 0.04065526
v -0.12997348 -0.31821973 0.04065526
v -0.14724878 0.31634697 0.11715421
v -0.05899485 0.31260146 0.11715421
v -0.15599118 0.11035360 0.11715421
v -0.10312181 0.31447422 0.19365315
v -0.19137574 0.31821973 0.19365315
v -0.23550270 0.32009249 0.11715421
v -0.19137574 0.31821973 0.04065526
v -0.10312181 0.31447422 0.04065526
v -0.20908688 0.19481527 -0.04724810
v -0.11774713 0.20983952 -0.04724810
v -0.03845827 -0.27219628 -0.04724810
v -0.12979802 -0.28722052 -0.04724810
v -0.16341701 0.20232739 0.03291740
v -0.08412814 -0.27970840 0.03291740
v -0.25475675 0.18730315 0.03291740
v -0.17546789 -0.29473265 0.03291740
v -0.30042662 0.17979103 -0.04724810
v -0.22113776 -0.30224477 -0.04724810
v -0.25475675 0.18730315 -0.12741360
v -0.17546789 -0.29473265 -0.12741360
v -0.16341701 0.20232739 -0.12741360
v -0.08412814 -0.27970840 -0.12741360
v -0.22450416 0.28854445 -0.04724810
v -0.13316441 0.30356870 -0.04724810
v -0.19366960 0.10108609 -0.04724810
v -0.17883428 0.29605658 0.03291740
v -0.27017403 0.28103233 0.03291740
v -0.31584390 0.27352021 -0.04724810
v -0.27017403 0.28103233 -0.12741360
v -0.17883428 0.29605658 -0.12741360
v 0.40494759 0.18820594 -0.21398697
v 0.49656999 0.18473049 -0.21398697
v 0.47892992 -0.28030988 -0.21398697
v 0.38730752 -0.27683443 -0.21398697
v 0.45075879 0.18646821 -0.13458258
v 0.43311872 -0.27857216 -0.13458258
v 0.35913639 0.18994366 -0.13458258
v 0.34149632 -0.27509671 -0.13458258
v 0.31332518 0.19168139 -0.21398697
v 0.29568512 -0.27335898 -0.21398697
v 0.35913639 0.18994366 -0.29339137
v 0.34149632 -0.27509671 -0.29339137
v 0.45075879 0.18646821 -0.29339137
v 0.43311872 -0.27857216 -0.29339137
v 0.40837760 0.27863046 -0.21398697
v 0.50000000 0.27515500 -0.21398697
v 0.40151757 0.09778142 -0.21398697
v 0.45418880 0.27689273 -0.13458258
v 0.36256640 0.28036818 -0.13458258
v 0.31675520 0.28210591 -0.21398697
v 0.36256640 0.28036818 -0.29339137
v 0.45418880 0.27689273 -0.29339137
v 0.02353924 0.19308532 0.13445193
v 0.12729649 0.19009448 0.13445193
v 0.11352986 -0.28749287 0.13445193
v 0.00977261 -0.28450203 0.13445193
v 0.07541786 0.19158990 0.22434567
v 0.06165123 -0.28599745 0.22434567
v -0.02833939 0.19458074 0.22434567
v -0.04210602 -0.28300661 0.22434567
v -0.08021802 0.19607616 0.13445193
v -0.09398465 -0.28151119 0.13445193
v -0.02833939 0.19458074 0.04455819
v -0.04210602 -0.28300661 0.04455819
v 0.07541786 0.19158990 0.04455819
v 0.06165123 -0.28599745 0.04455819
v 0.02621608 0.28594953 0.13445193
v 0.12997333 0.28295869 0.13445193
v 0.02086239 0.10022111 0.13445193
v 0.07809471 0.28445411 0.22434567
v -0.02566254 0.28744495 0.22434567
v -0.07754117 0.28894037 0.13445193
v -0.02566254 0.28744495 0.04455819
v 0.07809471 0.28445411 0.04455819
v -0.08657099 0.18759225 0.13810074
v 0.05386400 0.17537197 0.13810074
v 0.01353473 -0.28809035 0.13810074
v -0.12690026 -0.27587007 0.13810074
v -0.01635349 0.18148211 0.26018060
v -0.05668277 -0.28198021 0.26018060
v -0.15678848 0.19370240 0.26018060
v -0.19711776 -0.26975993 0.26018060
v -0.22700598 0.19981254 0.13810074
v -0.26733525 -0.26364978 0.13810074
v -0.15678848 0.19370240 0.01602089
v -0.19711776 -0.26975993 0.01602089
v -0.01635349 0.18148211 0.01602089
v -0.05668277 -0.28198021 0.01602089
v -0.07872918 0.27770993 0.13810074
v 0.06170581 0.26548964 0.13810074
v -0.09441279 0.09747458 0.13810074
v -0.00851169 0.27159978 0.26018060
v -0.14894668 0.28382007 0.26018060
v -0.21916417 0.28993021 0.13810074
v -0.14894668 0.28382007 0.01602089
v -0.00851169 0.27159978 0.01602089
f 2 1 5
f 2 5 3
f 3 5 6
f 3 6 4
f 5 1 7
f 5 7 6
f 6 7 8
f 6 8 4
f 7 1 9
f 7 9 8
f 8 9 10
f 8 10 4
f 9 1 11
f 9 11 10
f 10 11 12
f 10 12 4
f 11 1 13
f 11 13 12
f 12 13 14
f 12 14 4
f 13 1 2
f 13 2 14
f 14 2 3
f 14 3 4
f 16 15 18
f 16 18 17
f 18 15 19
f 18 19 17
f 19 15 20
f 19 20 17
f 20 15 21
f 20 21 17
f 21 15 22
f 21 22 17
f 22 15 16
f 22 16 17
f 24 23 27
f 24 27 25
f 25 27 28
f 25 28 26
f 27 23 29
f 27 29 28
f 28 29 30
f 28 30 26
f 29 23 31
f 29 31 30
f 30 31 32
f 30 32 26
f 31 23 33
f 31 33 32
f 32 33 34
f 32 34 26
f 33 23 35
f 33 35 34
f 34 35 36
f 34 36 26
f 35 23 24
f 35 24 36
f 36 24 25
f 36 25 26
f 38 37 40
f 38 40 39
f 40 37 41
f 40 41 39
f 41 37 42
f 41 42 39
f 42 37 43
f 42 43 39
f 43 37 44
f 43 44 39
f 44 37 38
f 44 38 39
f 46 45 49
f 46 49 47
f 47 49 50
f 47 50 48
f 49 45 51
f 49 51 50
f 50 51 52
f 50 52 48
f 51 45 53
f 51 53 52
f 52 53 54
f 52 54 48
f 53 45 55
f 53 55 54
f 54 55 56
f 54 56 48
f 55 45 57
f 55 57 56
f 56 57 58
f 56 58 48
f 57 45 46
f 57 46 58
f 58 46 47
f 58 47 48
f 60 59 62
f 60 62 61
f 62 59 63
f 62 63 61
f 63 59 64
f 63 64 61
f 64 59 65
f 64 65 61
f 65 59 66
f 65 66 61
f 66 59 60
f 66 60 61
f 68 67 71
f 68 71 69
f 69 71 72
f 69 72 70
f 71 67 73
f 71 73 72
f 72 73 74
f 72 74 70
f 73 67 75
f 73 75 74
f 74 75 76
f 74 76 70
f 75 67 77
f 75 77 76
f 76 77 78
f 76 78 70
f 77 67 79
f 77 79 78
f 78 79 80
f 78 80 70
f 79 67 68
f 79 68 80
f 80 68 69
f 80 69 70
f 82 81 84
f 82 84 83
f 84 81 85
f 84 85 83
f 85 81 86
f 85 86 83
f 86 81 87
f 86 87 83
f 87 81 88
f 87 88 83
f 88 81 82
f 88 82 83
f 90 89 93
f 90 93 91
f 91 93 94
f 91 94 92
f 93 89 95
f 93 95 94
f 94 95 96
f 94 96 92
f 95 89 97
f 95 97 96
f 96 97 98
f 96 98 92
f 97 89 99
f 97 99 98
f 98 99 100
f 98 100 92
f 99 89 101
f 99 101 100
f 100 101 102
f 100 102 92
f 101 89 90
f 101 90 102
f 102 90 91
f 102 91 92
f 104 103 106
f 104 106 105
f 106 103 107
f 106 107 105
f 107 103 108
f 107 108 105
f 108 103 109
f 108 109 105
f 109 103 110
f 109 110 105
f 110 103 104
f 110 104 105
f 112 111 115
f 112 115 113
f 113 115 116
f 113 116 114
f 115 111 117
f 115 117 116
f 116 117 118
f 116 118 114
f 117 111 119
f 117 119 118
f 118 119 120
f 118 120 114
f 119 111 121
f 119 121 120
f 120 121 122
f 120 122 114
f 121 111 123
f 121 123 122
f 122 123 124
f 122 124 114
f 123 111 112
f 123 112 124
f 124 112 113
f 124 113 114
f 126 125 128
f 126 128 127
f 128 125 129
f 128 129 127
f 129 125 130
f 129 130 127
f 130 125 131
f 130 131 127
f 131 125 132
f 131 132 127
f 132 125 126
f 132 126 127
f 134 133 137
f 134 137 135
f 135 137 138
f 135 138 136
f 137 133 139
f 137 139 138
f 138 139 140
f 138 140 136
f 139 133 141
f 139 141 140
f 140 141 142
f 140 142 136
f 141 133 143
f 141 143 142
f 142 143 144
f 142 144 136
f 143 133 145
f 143 145 144
f 144 145 146
f 144 146 136
f 145 133 134
f 145 134 146
f 146 134 135
f 146 135 136
f 148 147 150
f 148 150 149
f 150 147 151
f 150 151 149
f 151 147 152
f 151 152 149
f 152 147 153
f 152 153 149
f 153 147 154
f 153 154 149
f 154 147 148
f 154 148 149
f 156 155 159
f 156 159 157
f 157 159 160
f 157 160 158
f 159 155 161
f 159 161 160
f 160 161 162
f 160 162 158
f 161 155 163
f 161 163 162
f 162 163 164
f 162 164 158
f 163 155 165
f 163 165 164
f 164 165 166
f 164 166 158
f 165 155 167
f 165 167 166
f 166 167 168
f 166 168 158
f 167 155 156
f 167 156 168
f 168 156 157
f 168 157 158
f 170 169 172
f 170 172 171
f 172 169 173
f 172 173 171
f 173 169 174
f 173 174 171
f 174 169 175
f 174 175 171
f 175 169 176
f 175 176 171
f 176 169 170
f 176 170 171

