# https://github.com/mikedh/trimesh
v 0.09350791 0.24877628 -0.08267180
v 0.21999905 0.21236573 -0.08267180
v 0.04236233 -0.40474861 -0.08267180
v -0.08412881 -0.36833806 -0.08267180
v 0.15675348 0.23057100 0.03132075
v -0.02088324 -0.38654334 0.03132075
v 0.03026234 0.26698155 0.03132075
v -0.14737438 -0.35013279 0.03132075
v -0.03298323 0.28518683 -0.08267180
v -0.21061995 -0.33192752 -0.08267180
v 0.03026234 0.26698155 -0.19666436
v -0.14737438 -0.35013279 -0.19666436
v 0.15675348 0.23057100 -0.19666436
v -0.02088324 -0.38654334 -0.19666436
v 0.12804838 0.36877073 -0.08267180
v 0.25453952 0.33236019 -0.08267180
v 0.05896744 0.12878182 -0.08267180
v 0.19129395 0.35056546 0.03132075
v 0.06480282 0.38697601 0.03132075
v 0.00155725 0.40518128 -0.08267180
v 0.06480282 0.38697601 -0.19666436
v 0.19129395 0.35056546 -0.19666436
v -0.36595322 0.19693086 -0.17402266
v -0.26241837 0.23051213 -0.17402266
v -0.10549985 -0.25328542 -0.17402266
v -0.20903470 -0.28686669 -0.17402266
v -0.31418579 0.21372149 -0.07976040
v -0.15726728 -0.27007606 -0.07976040
v -0.41772064 0.18014022 -0.07976040
v -0.26080213 -0.30365732 -0.07976040
v -0.46948807 0.16334959 -0.17402266
v -0.31256955 -0.32044796 -0.17402266
v -0.41772064 0.18014022 -0.26828493
v -0.26080213 -0.30365732 -0.26828493
v -0.31418579 0.21372149 -0.26828493
v -0.15726728 -0.27007606 -0.26828493
v -0.39646515 0.29100260 -0.17402266
v -0.29293030 0.32458387 -0.17402266
v -0.33544128 0.10285911 -0.17402266
v -0.34469772 0.30779324 -0.07976040
v -0.44823257 0.27421197 -0.07976040
v -0.50000000 0.25742134 -0.17402266
v -0.44823257 0.27421197 -0.26828493
v -0.34469772 0.30779324 -0.26828493
v -0.08899621 0.23254645 0.18261495
v 0.00685491 0.25700780 0.18261495
v 0.15369290 -0.31837270 0.18261495
v 0.05784179 -0.34283405 0.18261495
v -0.04107065 0.24477713 0.26828493
v 0.10576735 -0.33060337 0.26828493
v -0.13692176 0.22031577 0.26828493
v 0.00991623 -0.35506473 0.26828493
v -0.18484732 0.20808510 0.18261495
v -0.03800933 -0.36729540 0.18261495
v -0.13692176 0.22031577 0.09694497
v 0.00991623 -0.35506473 0.09694497
v -0.04107065 0.24477713 0.09694497
v 0.10576735 -0.33060337 0.09694497
v -0.11754804 0.34442599 0.18261495
v -0.02169692 0.36888735 0.18261495
v -0.06044437 0.12066691 0.18261495
v -0.06962248 0.35665667 0.26828493
v -0.16547360 0.33219532 0.26828493
v -0.21339915 0.31996464 0.18261495
v -0.16547360 0.33219532 0.09694497
v -0.06962248 0.35665667 0.09694497
v 0.07816073 0.25372199 0.06796691
v 0.18200555 0.22431513 0.06796691
v 0.00364927 -0.40551675 0.06796691
v -0.10019555 -0.37610989 0.06796691
v 0.13008314 0.23901856 0.16143553
v -0.04827314 -0.39081332 0.16143553
v 0.02623832 0.26842542 0.16143553
v -0.15211796 -0.36140646 0.16143553
v -0.02568409 0.28312884 0.06796691
v -0.20404038 -0.34670304 0.06796691
v 0.02623832 0.26842542 -0.02550171
v -0.15211796 -0.36140646 -0.02550171
v 0.13008314 0.23901856 -0.02550171
v -0.04827314 -0.39081332 -0.02550171
v 0.11284112 0.37618930 0.06796691
v 0.21668594 0.34678244 0.06796691
v 0.04348034 0.13125468 0.06796691
v 0.16476353 0.36148587 0.16143553
v 0.06091870 0.39089273 0.16143553
v 0.00899629 0.40559616 0.06796691
v 0.06091870 0.39089273 -0.02550171
v 0.16476353 0.36148587 -0.02550171
v 0.25509906 0.22641005 -0.16806602
v 0.35548949 0.23776031 -0.16806602
v 0.41875865 -0.32184087 -0.16806602
v 0.31836822 -0.33319113 -0.16806602
v 0.30529428 0.23208518 -0.08057145
v 0.36856344 -0.32751600 -0.08057145
v 0.20490385 0.22073492 -0.08057145
v 0.26817301 -0.33886626 -0.08057145
v 0.15470863 0.21505979 -0.16806602
v 0.21797779 -0.34454139 -0.16806602
v 0.20490385 0.22073492 -0.25556059
v 0.26817301 -0.33886626 -0.25556059
v 0.30529428 0.23208518 -0.25556059
v 0.36856344 -0.32751600 -0.25556059
v 0.24279673 0.33522139 -0.16806602
v 0.34318716 0.34657165 -0.16806602
v 0.26740140 0.11759871 -0.16806602
v 0.29299194 0.34089652 -0.08057145
v 0.19260151 0.32954626 -0.08057145
v 0.14240630 0.32387113 -0.16806602
v 0.19260151 0.32954626 -0.25556059
v 0.29299194 0.34089652 -0.25556059
v 0.36756464 0.25483365 0.14331021
v 0.46160392 0.22548356 0.14331021
v 0.26413836 -0.40720688 0.14331021
v 0.17009907 -0.37785679 0.14331021
v 0.41458428 0.24015861 0.22862498
v 0.21711871 -0.39253184 0.22862498
v 0.32054499 0.26950869 0.22862498
v 0.12307943 -0.36318175 0.22862498
v 0.27352535 0.28418374 0.14331021
v 0.07605979 -0.34850671 0.14331021
v 0.32054499 0.26950869 0.05799543
v 0.12307943 -0.36318175 0.05799543
v 0.41458428 0.24015861 0.05799543
v 0.21711871 -0.39253184 0.05799543
v 0.40596072 0.37785679 0.14331021
v 0.50000000 0.34850671 0.14331021
v 0.32916855 0.13181051 0.14331021
v 0.45298036 0.36318175 0.22862498
v 0.35894108 0.39253184 0.22862498
v 0.31192143 0.40720688 0.14331021
v 0.35894108 0.39253184 0.05799543
v 0.45298036 0.36318175 0.05799543
f 2 1 5
f 2 5 3
f 3 5 6
f 3 6 4
f 5 1 7
f 5 7 6
f 6 7 8
f 6 8 4
f 7 1 9
f 7 9 8
f 8 9 10
f 8 10 4
f 9 1 11
f 9 11 10
f 10 11 12
f 10 12 4
f 11 1 13
f 11 13 12
f 12 13 14
f 12 14 4
f 13 1 2
f 13 2 14
f 14 2 3
f 14 3 4
f 16 15 18
f 16 18 17
f 18 15 19
f 18 19 17
f 19 15 20
f 19 20 17
f 20 15 21
f 20 21 17
f 21 15 22
f 21 22 17
f 22 15 16
f 22 16 17
f 24 23 27
f 24 27 25
f 25 27 28
f 25 28 26
f 27 23 29
f 27 29 28
f 28 29 30
f 28 30 26
f 29 23 31
f 29 31 30
f 30 31 32
f 30 32 26
f 31 23 33
f 31 33 32
f 32 33 34
f 32 34 26
f 33 23 35
f 33 35 34
f 34 35 36
f 34 36 26
f 35 23 24
f 35 24 36
f 36 24 25
f 36 25 26
f 38 37 40
f 38 40 39
f 40 37 41
f 40 41 39
f 41 37 42
f 41 42 39
f 42 37 43
f 42 43 39
f 43 37 44
f 43 44 39
f 44 37 38
f 44 38 39
f 46 45 49
f 46 49 47
f 47 49 50
f 47 50 48
f 49 45 51
f 49 51 50
f 50 51 52
f 50 52 48
f 51 45 53
f 51 53 52
f 52 53 54
f 52 54 48
f 53 45 55
f 53 55 54
f 54 55 56
f 54 56 48
f 55 45 57
f 55 57 56
f 56 57 58
f 56 58 48
f 57 45 46
f 57 46 58
f 58 46 47
f 58 47 48
f 60 59 62
f 60 62 61
f 62 59 63
f 62 63 61
f 63 59 64
f 63 64 61
f 64 59 65
f 64 65 61
f 65 59 66
f 65 66 61
f 66 59 60
f 66 60 61
f 68 67 71
f 68 71 69
f 69 71 72
f 69 72 70
f 71 67 73
f 71 73 72
f 72 73 74
f 72 74 70
f 73 67 75
f 73 75 74
f 74 75 76
f 74 76 70
f 75 67 77
f 75 77 76
f 76 77 78
f 76 78 70
f 77 67 79
f 77 79 78
f 78 79 80
f 78 80 70
f 79 67 68
f 79 68 80
f 80 68 69
f 80 69 70
f 82 81 84
f 82 84 83
f 84 81 85
f 84 85 83
f 85 81 86
f 85 86 83
f 86 81 87
f 86 87 83
f 87 81 88
f 87 88 83
f 88 81 82
f 88 82 83
f 90 89 93
f 90 93 91
f 91 93 94
f 91 94 92
f 93 89 95
f 93 95 94
f 94 95 96
f 94 96 92
f 95 89 97
f 95 97 96
f 96 97 98
f 96 98 92
f 97 89 99
f 97 99 98
f 98 99 100
f 98 100 92
f 99 89 101
f 99 101 100
f 100 101 102
f 100 102 92
f 101 89 90
f 101 90 102
f 102 90 91
f 102 91 92
f 104 103 106
f 104 106 105
f 106 103 107
f 106 107 105
f 107 103 108
f 107 108 105
f 108 103 109
f 108 109 105
f 109 103 110
f 109 110 105
f 110 103 104
f 110 104 105
f 112 111 115
f 112 115 113
f 113 115 116
f 113 116 114
f 115 111 117
f 115 117 116
f 116 117 118
f 116 118 114
f 117 111 119
f 117 119 118
f 118 119 120
f 118 120 114
f 119 111 121
f 119 121 120
f 120 121 122
f 120 122 114
f 121 111 123
f 121 123 122
f 122 123 124
f 122 124 114
f 123 111 112
f 123 112 124
f 124 112 113
f 124 113 114
f 126 125 128
f 126 128 127
f 128 125 129
f 128 129 127
f 129 125 130
f 129 130 127
f 130 125 131
f 130 131 127
f 131 125 132
f 131 132 127
f 132 125 126
f 132 126 127

