# https://github.com/mikedh/trimesh
v 0.33592381 0.19549032 0.04249443
v 0.45950436 0.16327382 0.04249443
v 0.33598622 -0.31053416 0.04249443
v 0.21240568 -0.27831765 0.04249443
v 0.39771408 0.17938207 0.15309525
v 0.27419595 -0.29442590 0.15309525
v 0.27413354 0.21159858 0.15309525
v 0.15061541 -0.26220940 0.15309525
v 0.21234327 0.22770683 0.04249443
v 0.08882513 -0.24610114 0.04249443
v 0.27413354 0.21159858 -0.06810639
v 0.15061541 -0.26220940 -0.06810639
v 0.39771408 0.17938207 -0.06810639
v 0.27419595 -0.29442590 -0.06810639
v 0.35994123 0.28761965 0.04249443
v 0.48352177 0.25540314 0.04249443
v 0.31190640 0.10336100 0.04249443
v 0.42173150 0.27151140 0.15309525
v 0.29815095 0.30372791 0.15309525
v 0.23636068 0.31983616 0.04249443
v 0.29815095 0.30372791 -0.06810639
v 0.42173150 0.27151140 -0.06810639
v -0.19330555 0.24517347 0.11294069
v -0.05204852 0.21019546 0.11294069
v -0.20100771 -0.39136917 0.11294069
v -0.34226474 -0.35639116 0.11294069
v -0.12267703 0.22768446 0.23896750
v -0.27163622 -0.37388017 0.23896750
v -0.26393407 0.26266247 0.23896750
v -0.41289326 -0.33890216 0.23896750
v -0.33456258 0.28015148 0.11294069
v -0.48352177 -0.32141315 0.11294069
v -0.26393407 0.26266247 -0.01308612
v -0.41289326 -0.33890216 -0.01308612
v -0.12267703 0.22768446 -0.01308612
v -0.27163622 -0.37388017 -0.01308612
v -0.16434126 0.36214437 0.11294069
v -0.02308423 0.32716636 0.11294069
v -0.22226984 0.12820257 0.11294069
v -0.09371275 0.34465536 0.23896750
v -0.23496978 0.37963337 0.23896750
v -0.30559830 0.39712238 0.11294069
v -0.23496978 0.37963337 -0.01308612
v -0.09371275 0.34465536 -0.01308612
v -0.05856229 0.24352068 0.04463744
v 0.08807951 0.26559911 0.04463744
v 0.17801139 -0.33171548 0.04463744
v 0.03136958 -0.35379392 0.04463744
v 0.01475861 0.25455990 0.17306429
v 0.10469048 -0.34275470 0.17306429
v -0.13188320 0.23248146 0.17306429
v -0.04195132 -0.36483314 0.17306429
v -0.20520410 0.22144224 0.04463744
v -0.11527223 -0.37587236 0.04463744
v -0.13188320 0.23248146 -0.08378942
v -0.04195132 -0.36483314 -0.08378942
v 0.01475861 0.25455990 -0.08378942
v 0.10469048 -0.34275470 -0.08378942
v -0.07604905 0.35966518 0.04463744
v 0.07059276 0.38174362 0.04463744
v -0.04107554 0.12737617 0.04463744
v -0.00272814 0.37070440 0.17306429
v -0.14936995 0.34862596 0.17306429
v -0.22269085 0.33758675 0.04463744
v -0.14936995 0.34862596 -0.08378942
v -0.00272814 0.37070440 -0.08378942
v 0.20073364 0.32571835 0.09521017
v 0.33081810 0.30868005 0.09521017
v 0.22489818 -0.50000000 0.09521017
v 0.09481372 -0.48296170 0.09521017
v 0.26577587 0.31719920 0.20882884
v 0.15985595 -0.49148085 0.20882884
v 0.13569141 0.33423751 0.20882884
v 0.02977148 -0.47444254 0.20882884
v 0.07064918 0.34275666 0.09521017
v -0.03527075 -0.46592339 0.09521017
v 0.13569141 0.33423751 -0.01840851
v 0.02977148 -0.47444254 -0.01840851
v 0.26577587 0.31719920 -0.01840851
v 0.15985595 -0.49148085 -0.01840851
v 0.22132918 0.48296170 0.09521017
v 0.35141364 0.46592339 0.09521017
v 0.18013810 0.16847501 0.09521017
v 0.28637141 0.47444254 0.20882884
v 0.15628695 0.49148085 0.20882884
v 0.09124472 0.50000000 0.09521017
v 0.15628695 0.49148085 -0.01840851
v 0.28637141 0.47444254 -0.01840851
v -0.17811560 0.18402667 -0.08145652
v -0.00171844 0.22833980 -0.08145652
v 0.10990272 -0.21599020 -0.08145652
v -0.06649444 -0.26030333 -0.08145652
v -0.08991702 0.20618324 0.07605446
v 0.02170414 -0.23814676 0.07605446
v -0.26631418 0.16187010 0.07605446
v -0.15469302 -0.28245990 0.07605446
v -0.35451276 0.13971353 -0.08145652
v -0.24289160 -0.30461647 -0.08145652
v -0.26631418 0.16187010 -0.23896750
v -0.15469302 -0.28245990 -0.23896750
v -0.08991702 0.20618324 -0.23896750
v 0.02170414 -0.23814676 -0.23896750
v -0.19981972 0.27042417 -0.08145652
v -0.02342255 0.31473730 -0.08145652
v -0.15641149 0.09762917 -0.08145652
v -0.11162113 0.29258074 0.07605446
v -0.28801830 0.24826760 0.07605446
v -0.37621688 0.22611103 -0.08145652
v -0.28801830 0.24826760 -0.23896750
v -0.11162113 0.29258074 -0.23896750
f 2 1 5
f 2 5 3
f 3 5 6
f 3 6 4
f 5 1 7
f 5 7 6
f 6 7 8
f 6 8 4
f 7 1 9
f 7 9 8
f 8 9 10
f 8 10 4
f 9 1 11
f 9 11 10
f 10 11 12
f 10 12 4
f 11 1 13
f 11 13 12
f 12 13 14
f 12 14 4
f 13 1 2
f 13 2 14
f 14 2 3
f 14 3 4
f 16 15 18
f 16 18 17
f 18 15 19
f 18 19 17
f 19 15 20
f 19 20 17
f 20 15 21
f 20 21 17
f 21 15 22
f 21 22 17
f 22 15 16
f 22 16 17
f 24 23 27
f 24 27 25
f 25 27 28
f 25 28 26
f 27 23 29
f 27 29 28
f 28 29 30
f 28 30 26
f 29 23 31
f 29 31 30
f 30 31 32
f 30 32 26
f 31 23 33
f 31 33 32
f 32 33 34
f 32 34 26
f 33 23 35
f 33 35 34
f 34 35 36
f 34 36 26
f 35 23 24
f 35 24 36
f 36 24 25
f 36 25 26
f 38 37 40
f 38 40 39
f 40 37 41
f 40 41 39
f 41 37 42
f 41 42 39
f 42 37 43
f 42 43 39
f 43 37 44
f 43 44 39
f 44 37 38
f 44 38 39
f 46 45 49
f 46 49 47
f 47 49 50
f 47 50 48
f 49 45 51
f 49 51 50
f 50 51 52
f 50 52 48
f 51 45 53
f 51 53 52
f 52 53 54
f 52 54 48
f 53 45 55
f 53 55 54
f 54 55 56
f 54 56 48
f 55 45 57
f 55 57 56
f 56 57 58
f 56 58 48
f 57 45 46
f 57 46 58
f 58 46 47
f 58 47 48
f 60 59 62
f 60 62 61
f 62 59 63
f 62 63 61
f 63 59 64
f 63 64 61
f 64 59 65
f 64 65 61
f 65 59 66
f 65 66 61
f 66 59 60
f 66 60 61
f 68 67 71
f 68 71 69
f 69 71 72
f 69 72 70
f 71 67 73
f 71 73 72
f 72 73 74
f 72 74 70
f 73 67 75
f 73 75 74
f 74 75 76
f 74 76 70
f 75 67 77
f 75 77 76
f 76 77 78
f 76 78 70
f 77 67 79
f 77 79 78
f 78 79 80
f 78 80 70
f 79 67 68
f 79 68 80
f 80 68 69
f 80 69 70
f 82 81 84
f 82 84 83
f 84 81 85
f 84 85 83
f 85 81 86
f 85 86 83
f 86 81 87
f 86 87 83
f 87 81 88
f 87 88 83
f 88 81 82
f 88 82 83
f 90 89 93
f 90 93 91
f 91 93 94
f 91 94 92
f 93 89 95
f 93 95 94
f 94 95 96
f 94 96 92
f 95 89 97
f 95 97 96
f 96 97 98
f 96 98 92
f 97 89 99
f 97 99 98
f 98 99 100
f 98 100 92
f 99 89 101
f 99 101 100
f 100 101 102
f 100 102 92
f 101 89 90
f 101 90 102
f 102 90 91
f 102 91 92
f 104 103 106
f 104 106 105
f 106 103 107
f 106 107 105
f 107 103 108
f 107 108 105
f 108 103 109
f 108 109 105
f 109 103 110
f 109 110 105
f 110 103 104
f 110 104 105

