# https://github.com/mikedh/trimesh
v -1.35911812 2.23442124 -0.66035131
v -0.76326366 2.10606549 -0.66035131
v -1.29344499 -0.35514802 -0.66035131
v -1.88929944 -0.22679227 -0.66035131
v -1.06119089 2.17024336 -0.13248930
v -1.59137221 -0.29097015 -0.13248930
v -1.65704535 2.29859911 -0.13248930
v -2.18722667 -0.16261440 -0.13248930
v -1.95497257 2.36277699 -0.66035131
v -2.48515390 -0.09843652 -0.66035131
v -1.65704535 2.29859911 -1.18821331
v -2.18722667 -0.16261440 -1.18821331
v -1.06119089 2.17024336 -1.18821331
v -1.59137221 -0.29097015 -1.18821331
v -1.23436957 2.81353030 -0.66035131
v -0.63851512 2.68517455 -0.66035131
v -1.48386667 1.65531218 -0.66035131
v -0.93644234 2.74935242 -0.13248930
v -1.53229680 2.87770817 -0.13248930
v -1.83022403 2.94188605 -0.66035131
v -1.53229680 2.87770817 -1.18821331
v -0.93644234 2.74935242 -1.18821331
v 1.42643747 2.13065674 -0.91988641
v 1.93549558 2.16799702 -0.91988641
v 2.10947231 -0.20381852 -0.91988641
v 1.60041420 -0.24115881 -0.91988641
v 1.68096652 2.14932688 -0.47784474
v 1.85494326 -0.22248866 -0.47784474
v 1.17190842 2.11198659 -0.47784474
v 1.34588515 -0.25982895 -0.47784474
v 0.91737936 2.09331645 -0.91988641
v 1.09135609 -0.27849909 -0.91988641
v 1.17190842 2.11198659 -1.36192808
v 1.34588515 -0.25982895 -1.36192808
v 1.68096652 2.14932688 -1.36192808
v 1.85494326 -0.22248866 -1.36192808
v 1.38550177 2.68873098 -0.91988641
v 1.89455988 2.72607127 -0.91988641
v 1.46737317 1.57258249 -0.91988641
v 1.64003082 2.70740112 -0.47784474
v 1.13097271 2.67006084 -0.47784474
v 0.87644366 2.65139070 -0.91988641
v 1.13097271 2.67006084 -1.36192808
v 1.64003082 2.70740112 -1.36192808
v 1.70250269 3.22950037 -0.24187587
v 2.29214676 3.30985833 -0.24187587
v 2.78040833 -0.27286727 -0.24187587
v 2.19076426 -0.35322523 -0.24187587
v 1.99732472 3.26967935 0.27349113
v 2.48558629 -0.31304625 0.27349113
v 1.40768066 3.18932139 0.27349113
v 1.89594223 -0.39340422 0.27349113
v 1.11285862 3.14914240 -0.24187587
v 1.60112019 -0.43358320 -0.24187587
v 1.40768066 3.18932139 -0.75724287
v 1.89594223 -0.39340422 -0.75724287
v 1.99732472 3.26967935 -0.75724287
v 2.48558629 -0.31304625 -0.75724287
v 1.58761762 4.07249463 -0.24187587
v 2.17726168 4.15285259 -0.24187587
v 1.81738777 2.38650611 -0.24187587
v 1.88243965 4.11267361 0.27349113
v 1.29279558 4.03231565 0.27349113
v 0.99797355 3.99213666 -0.24187587
v 1.29279558 4.03231565 -0.75724287
v 1.88243965 4.11267361 -0.75724287
v -1.73305964 3.14465271 0.81190009
v -1.28321448 3.05800874 0.81190009
v -1.95195812 -0.41402833 0.81190009
v -2.40180328 -0.32738435 0.81190009
v -1.50813706 3.10133072 1.20863790
v -2.17688070 -0.37070634 1.20863790
v -1.95798222 3.18797470 1.20863790
v -2.62672587 -0.28406236 1.20863790
v -2.18290480 3.23129669 0.81190009
v -2.85164845 -0.24074038 0.81190009
v -1.95798222 3.18797470 0.41516228
v -2.62672587 -0.28406236 0.41516228
v -1.50813706 3.10133072 0.41516228
v -2.17688070 -0.37070634 0.41516228
v -1.57570819 3.96160261 0.81190009
v -1.12586303 3.87495863 0.81190009
v -1.89041108 2.32770281 0.81190009
v -1.35078561 3.91828062 1.20863790
v -1.80063078 4.00492460 1.20863790
v -2.02555336 4.04824658 0.81190009
v -1.80063078 4.00492460 0.41516228
v -1.35078561 3.91828062 0.41516228
v -1.19351359 1.65698108 0.94292873
v -0.73586573 1.57070003 0.94292873
v -1.08091847 -0.25951225 0.94292873
v -1.53856633 -0.17323119 0.94292873
v -0.96468966 1.61384056 1.34624558
v -1.30974240 -0.21637172 1.34624558
v -1.42233751 1.70012161 1.34624558
v -1.76739025 -0.13009066 1.34624558
v -1.65116144 1.74326214 0.94292873
v -1.99621418 -0.08695014 0.94292873
v -1.42233751 1.70012161 0.53961188
v -1.76739025 -0.13009066 0.53961188
v -0.96468966 1.61384056 0.53961188
v -1.30974240 -0.21637172 0.53961188
v -1.11232471 2.08761927 0.94292873
v -0.65467685 2.00133821 0.94292873
v -1.27470247 1.22634290 0.94292873
v -0.88350078 2.04447874 1.34624558
v -1.34114863 2.13075979 1.34624558
v -1.56997256 2.17390032 0.94292873
v -1.34114863 2.13075979 0.53961188
v -0.88350078 2.04447874 0.53961188
v -0.99521801 2.00667041 1.30263172
v -0.49003873 2.09234969 1.30263172
v -0.11347014 -0.12796122 1.30263172
v -0.61864942 -0.21364050 1.30263172
v -0.74262837 2.04951005 1.74637746
v -0.36605978 -0.17080086 1.74637746
v -1.24780765 1.96383077 1.74637746
v -0.87123906 -0.25648014 1.74637746
v -1.50039728 1.92099113 1.30263172
v -1.12382869 -0.29931978 1.30263172
v -1.24780765 1.96383077 0.85888598
v -0.87123906 -0.25648014 0.85888598
v -0.74262837 2.04951005 0.85888598
v -0.36605978 -0.17080086 0.85888598
v -1.08382238 2.52909651 1.30263172
v -0.57864311 2.61477579 1.30263172
v -0.90661363 1.48424431 1.30263172
v -0.83123274 2.57193615 1.74637746
v -1.33641202 2.48625686 1.74637746
v -1.58900166 2.44341722 1.30263172
v -1.33641202 2.48625686 0.85888598
v -0.83123274 2.57193615 0.85888598
v -0.70403299 2.92220660 -0.96489243
v -0.27365338 2.86450389 -0.96489243
v -0.70836448 -0.37781852 -0.96489243
v -1.13874408 -0.32011581 -0.96489243
v -0.48884319 2.89335524 -0.58883770
v -0.92355428 -0.34896717 -0.58883770
v -0.91922279 2.95105795 -0.58883770
v -1.35393388 -0.29126446 -0.58883770
v -1.13441259 2.97990931 -0.96489243
v -1.56912368 -0.26241310 -0.96489243
v -0.91922279 2.95105795 -1.34094715
v -1.35393388 -0.29126446 -1.34094715
v -0.48884319 2.89335524 -1.34094715
v -0.92355428 -0.34896717 -1.34094715
v -0.60174802 3.68510599 -0.96489243
v -0.17136842 3.62740328 -0.96489243
v -0.80631795 2.15930721 -0.96489243
v -0.38655822 3.65625463 -0.58883770
v -0.81693783 3.71395734 -0.58883770
v -1.03212763 3.74280870 -0.96489243
v -0.81693783 3.71395734 -1.34094715
v -0.38655822 3.65625463 -1.34094715
v -1.55895329 0.00368130 -0.12747112
v 1.56537308 0.03123203 0.02856552
v -1.45991550 -0.59366078 -0.03656216
v 1.24043800 -0.60942557 0.01757293
v 0.17878925 -0.47233472 1.40480201
v -0.38045423 -0.14386344 1.43773130
v 0.18971726 -0.49080276 -1.75346337
v 0.24320342 -0.08530893 -1.50150221
v 1.94761423 -0.31350054 -0.91758189
v 2.28141195 -0.32244461 0.83886774
v -1.90511362 -0.34894098 -0.71783262
v -2.44733988 -0.26460153 1.01004033
v 0.11698765 0.05393696 0.23765978
v 0.10315634 -0.65056340 -0.19689970
v -0.71537948 -0.57361613 0.83554646
v 0.59299733 -0.57999624 0.93292276
v -0.86951963 0.02747412 0.98072627
v 0.49711713 -0.04150009 1.18708718
v 0.09071337 -0.28082588 1.70331190
v -0.83173706 -0.59186920 -1.06790749
v 0.48705510 -0.59379830 -0.92800094
v -1.01467389 -0.01933208 -0.99918129
v 1.30366908 -0.04719221 -0.51612473
v 0.01617183 -0.28940440 -1.80248976
v 2.18876053 -0.10421232 -0.55298570
v 2.10551024 -0.46688236 -0.50114694
v 1.55424281 -0.35342750 -1.54356048
v 1.38591827 -0.19344056 -1.52607851
v 1.97610854 -0.15224998 0.45651763
v 2.00314704 -0.42414301 0.87634049
v 1.37372021 -0.35514922 1.19091180
v 1.63420750 -0.21468536 1.45901859
v 2.45403708 -0.29562786 0.13637979
v -2.21174497 -0.10532330 -0.34909444
v -1.83803598 -0.44972941 -0.45053230
v -1.28043334 -0.40254719 -1.49446396
v -1.56143857 -0.20293600 -1.50180659
v -1.74642811 -0.11503471 0.71377397
v -2.26256416 -0.48285419 0.56630469
v -1.31684380 -0.38589878 1.27210588
v -1.14833258 -0.17041149 1.42764190
v -2.76347396 -0.28853019 0.03594596
f 2 1 5
f 2 5 3
f 3 5 6
f 3 6 4
f 5 1 7
f 5 7 6
f 6 7 8
f 6 8 4
f 7 1 9
f 7 9 8
f 8 9 10
f 8 10 4
f 9 1 11
f 9 11 10
f 10 11 12
f 10 12 4
f 11 1 13
f 11 13 12
f 12 13 14
f 12 14 4
f 13 1 2
f 13 2 14
f 14 2 3
f 14 3 4
f 16 15 18
f 16 18 17
f 18 15 19
f 18 19 17
f 19 15 20
f 19 20 17
f 20 15 21
f 20 21 17
f 21 15 22
f 21 22 17
f 22 15 16
f 22 16 17
f 24 23 27
f 24 27 25
f 25 27 28
f 25 28 26
f 27 23 29
f 27 29 28
f 28 29 30
f 28 30 26
f 29 23 31
f 29 31 30
f 30 31 32
f 30 32 26
f 31 23 33
f 31 33 32
f 32 33 34
f 32 34 26
f 33 23 35
f 33 35 34
f 34 35 36
f 34 36 26
f 35 23 24
f 35 24 36
f 36 24 25
f 36 25 26
f 38 37 40
f 38 40 39
f 40 37 41
f 40 41 39
f 41 37 42
f 41 42 39
f 42 37 43
f 42 43 39
f 43 37 44
f 43 44 39
f 44 37 38
f 44 38 39
f 46 45 49
f 46 49 47
f 47 49 50
f 47 50 48
f 49 45 51
f 49 51 50
f 50 51 52
f 50 52 48
f 51 45 53
f 51 53 52
f 52 53 54
f 52 54 48
f 53 45 55
f 53 55 54
f 54 55 56
f 54 56 48
f 55 45 57
f 55 57 56
f 56 57 58
f 56 58 48
f 57 45 46
f 57 46 58
f 58 46 47
f 58 47 48
f 60 59 62
f 60 62 61
f 62 59 63
f 62 63 61
f 63 59 64
f 63 64 61
f 64 59 65
f 64 65 61
f 65 59 66
f 65 66 61
f 66 59 60
f 66 60 61
f 68 67 71
f 68 71 69
f 69 71 72
f 69 72 70
f 71 67 73
f 71 73 72
f 72 73 74
f 72 74 70
f 73 67 75
f 73 75 74
f 74 75 76
f 74 76 70
f 75 67 77
f 75 77 76
f 76 77 78
f 76 78 70
f 77 67 79
f 77 79 78
f 78 79 80
f 78 80 70
f 79 67 68
f 79 68 80
f 80 68 69
f 80 69 70
f 82 81 84
f 82 84 83
f 84 81 85
f 84 85 83
f 85 81 86
f 85 86 83
f 86 81 87
f 86 87 83
f 87 81 88
f 87 88 83
f 88 81 82
f 88 82 83
f 90 89 93
f 90 93 91
f 91 93 94
f 91 94 92
f 93 89 95
f 93 95 94
f 94 95 96
f 94 96 92
f 95 89 97
f 95 97 96
f 96 97 98
f 96 98 92
f 97 89 99
f 97 99 98
f 98 99 100
f 98 100 92
f 99 89 101
f 99 101 100
f 100 101 102
f 100 102 92
f 101 89 90
f 101 90 102
f 102 90 91
f 102 91 92
f 104 103 106
f 104 106 105
f 106 103 107
f 106 107 105
f 107 103 108
f 107 108 105
f 108 103 109
f 108 109 105
f 109 103 110
f 109 110 105
f 110 103 104
f 110 104 105
f 112 111 115
f 112 115 113
f 113 115 116
f 113 116 114
f 115 111 117
f 115 117 116
f 116 117 118
f 116 118 114
f 117 111 119
f 117 119 118
f 118 119 120
f 118 120 114
f 119 111 121
f 119 121 120
f 120 121 122
f 120 122 114
f 121 111 123
f 121 123 122
f 122 123 124
f 122 124 114
f 123 111 112
f 123 112 124
f 124 112 113
f 124 113 114
f 126 125 128
f 126 128 127
f 128 125 129
f 128 129 127
f 129 125 130
f 129 130 127
f 130 125 131
f 130 131 127
f 131 125 132
f 131 132 127
f 132 125 126
f 132 126 127
f 134 133 137
f 134 137 135
f 135 137 138
f 135 138 136
f 137 133 139
f 137 139 138
f 138 139 140
f 138 140 136
f 139 133 141
f 139 141 140
f 140 141 142
f 140 142 136
f 141 133 143
f 141 143 142
f 142 143 144
f 142 144 136
f 143 133 145
f 143 145 144
f 144 145 146
f 144 146 136
f 145 133 134
f 145 134 146
f 146 134 135
f 146 135 136
f 148 147 150
f 148 150 149
f 150 147 151
f 150 151 149
f 151 147 152
f 151 152 149
f 152 147 153
f 152 153 149
f 153 147 154
f 153 154 149
f 154 147 148
f 154 148 149
f 155 192 171
f 192 166 195
f 171 195 160
f 192 195 171
f 155 171 167
f 171 160 172
f 167 172 156
f 171 172 167
f 155 167 176
f 167 156 177
f 176 177 162
f 167 177 176
f 155 176 188
f 176 162 191
f 188 191 165
f 176 191 188
f 155 188 192
f 188 165 196
f 192 196 166
f 188 196 192
f 156 172 183
f 172 160 186
f 183 186 164
f 172 186 183
f 160 195 173
f 195 166 194
f 173 194 159
f 195 194 173
f 166 196 193
f 196 165 189
f 193 189 157
f 196 189 193
f 165 191 190
f 191 162 178
f 190 178 161
f 191 178 190
f 162 177 182
f 177 156 179
f 182 179 163
f 177 179 182
f 158 184 170
f 184 164 185
f 170 185 159
f 184 185 170
f 158 170 168
f 170 159 169
f 168 169 157
f 170 169 168
f 158 168 175
f 168 157 174
f 175 174 161
f 168 174 175
f 158 175 180
f 175 161 181
f 180 181 163
f 175 181 180
f 158 180 184
f 180 163 187
f 184 187 164
f 180 187 184
f 159 185 173
f 185 164 186
f 173 186 160
f 185 186 173
f 157 169 193
f 169 159 194
f 193 194 166
f 169 194 193
f 161 174 190
f 174 157 189
f 190 189 165
f 174 189 190
f 163 181 182
f 181 161 178
f 182 178 162
f 181 178 182
f 164 187 183
f 187 163 179
f 183 179 156
f 187 179 183

