# https://github.com/mikedh/trimesh
v -1.00000000 2.00000000 0.00000000
v -0.45000000 2.00000000 0.00000000
v -1.00000000 -2.00000000 0.00000000
v -0.57867556 2.00000000 0.35353319
v -0.90449350 2.00000000 0.54164426
v -1.27500000 2.00000000 0.47631397
v -1.51683094 2.00000000 0.18811108
v -1.51683094 2.00000000 -0.18811108
v -1.27500000 2.00000000 -0.47631397
v -0.90449350 2.00000000 -0.54164426
v -0.57867556 2.00000000 -0.35353319
v -0.61750000 4.00000000 0.00000000
v -0.64762082 3.93745348 0.00000000
v -0.71530167 3.92200577 0.00000000
v -0.76957751 3.96528930 0.00000000
v -0.76957751 4.03471070 -0.00000000
v -0.71530167 4.07799423 -0.00000000
v -0.64762082 4.06254652 -0.00000000
v -0.64056757 4.00000000 0.13082270
v -0.66887188 3.93745348 0.12052078
v -0.73247108 3.92200577 0.09737256
v -0.78347369 3.96528930 0.07880913
v -0.78347369 4.03471070 0.07880913
v -0.73247108 4.07799423 0.09737256
v -0.66887188 4.06254652 0.12052078
v -0.70698800 4.00000000 0.24586626
v -0.73006188 3.93745348 0.22650497
v -0.78190843 3.92200577 0.18300056
v -0.82348613 3.96528930 0.14811272
v -0.82348613 4.03471070 0.14811272
v -0.78190843 4.07799423 0.18300056
v -0.73006188 4.06254652 0.22650497
v -0.80875000 4.00000000 0.33125472
v -0.82381041 3.93745348 0.30516933
v -0.85765084 3.92200577 0.24655598
v -0.88478875 3.96528930 0.19955173
v -0.88478875 4.03471070 0.19955173
v -0.85765084 4.07799423 0.24655598
v -0.82381041 4.06254652 0.30516933
v -0.93357957 4.00000000 0.37668897
v -0.93881000 3.93745348 0.34702575
v -0.95056265 3.92200577 0.28037312
v -0.95998755 3.96528930 0.22692186
v -0.95998755 4.03471070 0.22692186
v -0.95056265 4.07799423 0.28037312
v -0.93881000 4.06254652 0.34702575
v -1.06642043 4.00000000 0.37668897
v -1.06119000 3.93745348 0.34702575
v -1.04943735 3.92200577 0.28037312
v -1.04001245 3.96528930 0.22692186
v -1.04001245 4.03471070 0.22692186
v -1.04943735 4.07799423 0.28037312
v -1.06119000 4.06254652 0.34702575
v -1.19125000 4.00000000 0.33125472
v -1.17618959 3.93745348 0.30516933
v -1.14234916 3.92200577 0.24655598
v -1.11521125 3.96528930 0.19955173
v -1.11521125 4.03471070 0.19955173
v -1.14234916 4.07799423 0.24655598
v -1.17618959 4.06254652 0.30516933
v -1.29301200 4.00000000 0.24586626
v -1.26993812 3.93745348 0.22650497
v -1.21809157 3.92200577 0.18300056
v -1.17651387 3.96528930 0.14811272
v -1.17651387 4.03471070 0.14811272
v -1.21809157 4.07799423 0.18300056
v -1.26993812 4.06254652 0.22650497
v -1.35943243 4.00000000 0.13082270
v -1.33112812 3.93745348 0.12052078
v -1.26752892 3.92200577 0.09737256
v -1.21652631 3.96528930 0.07880913
v -1.21652631 4.03471070 0.07880913
v -1.26752892 4.07799423 0.09737256
v -1.33112812 4.06254652 0.12052078
v -1.38250000 4.00000000 0.00000000
v -1.35237918 3.93745348 0.00000000
v -1.28469833 3.92200577 0.00000000
v -1.23042249 3.96528930 0.00000000
v -1.23042249 4.03471070 0.00000000
v -1.28469833 4.07799423 0.00000000
v -1.35237918 4.06254652 0.00000000
v -1.35943243 4.00000000 -0.13082270
v -1.33112812 3.93745348 -0.12052078
v -1.26752892 3.92200577 -0.09737256
v -1.21652631 3.96528930 -0.07880913
v -1.21652631 4.03471070 -0.07880913
v -1.26752892 4.07799423 -0.09737256
v -1.33112812 4.06254652 -0.12052078
v -1.29301200 4.00000000 -0.24586626
v -1.26993812 3.93745348 -0.22650497
v -1.21809157 3.92200577 -0.18300056
v -1.17651387 3.96528930 -0.14811272
v -1.17651387 4.03471070 -0.14811272
v -1.21809157 4.07799423 -0.18300056
v -1.26993812 4.06254652 -0.22650497
v -1.19125000 4.00000000 -0.33125472
v -1.17618959 3.93745348 -0.30516933
v -1.14234916 3.92200577 -0.24655598
v -1.11521125 3.96528930 -0.19955173
v -1.11521125 4.03471070 -0.19955173
v -1.14234916 4.07799423 -0.24655598
v -1.17618959 4.06254652 -0.30516933
v -1.06642043 4.00000000 -0.37668897
v -1.06119000 3.93745348 -0.34702575
v -1.04943735 3.92200577 -0.28037312
v -1.04001245 3.96528930 -0.22692186
v -1.04001245 4.03471070 -0.22692186
v -1.04943735 4.07799423 -0.28037312
v -1.06119000 4.06254652 -0.34702575
v -0.93357957 4.00000000 -0.37668897
v -0.93881000 3.93745348 -0.34702575
v -0.95056265 3.92200577 -0.28037312
v -0.95998755 3.96528930 -0.22692186
v -0.95998755 4.03471070 -0.22692186
v -0.95056265 4.07799423 -0.28037312
v -0.93881000 4.06254652 -0.34702575
v -0.80875000 4.00000000 -0.33125472
v -0.82381041 3.93745348 -0.30516933
v -0.85765084 3.92200577 -0.24655598
v -0.88478875 3.96528930 -0.19955173
v -0.88478875 4.03471070 -0.19955173
v -0.85765084 4.07799423 -0.24655598
v -0.82381041 4.06254652 -0.30516933
v -0.70698800 4.00000000 -0.24586626
v -0.73006188 3.93745348 -0.22650497
v -0.78190843 3.92200577 -0.18300056
v -0.82348613 3.96528930 -0.14811272
v -0.82348613 4.03471070 -0.14811272
v -0.78190843 4.07799423 -0.18300056
v -0.73006188 4.06254652 -0.22650497
v -0.64056757 4.00000000 -0.13082270
v -0.66887188 3.93745348 -0.12052078
v -0.73247108 3.92200577 -0.09737256
v -0.78347369 3.96528930 -0.07880913
v -0.78347369 4.03471070 -0.07880913
v -0.73247108 4.07799423 -0.09737256
v -0.66887188 4.06254652 -0.12052078
v 0.00000000 2.50000000 0.00000000
v 0.65000000 2.50000000 0.00000000
v 0.00000000 -2.50000000 0.00000000
v 0.49792889 2.50000000 0.41781195
v 0.11287132 2.50000000 0.64012504
v -0.32500000 2.50000000 0.56291651
v -0.61080020 2.50000000 0.22231309
v -0.61080020 2.50000000 -0.22231309
v -0.32500000 2.50000000 -0.56291651
v 0.11287132 2.50000000 -0.64012504
v 0.49792889 2.50000000 -0.41781195
v 0.43750000 5.00000000 0.00000000
v 0.40737918 4.93745348 0.00000000
v 0.33969833 4.92200577 0.00000000
v 0.28542249 4.96528930 0.00000000
v 0.28542249 5.03471070 -0.00000000
v 0.33969833 5.07799423 -0.00000000
v 0.40737918 5.06254652 -0.00000000
v 0.41111552 5.00000000 0.14963381
v 0.38281121 4.93745348 0.13933189
v 0.31921201 4.92200577 0.11618367
v 0.26820941 4.96528930 0.09762024
v 0.26820941 5.03471070 0.09762024
v 0.31921201 5.07799423 0.11618367
v 0.38281121 5.06254652 0.13933189
v 0.33514444 5.00000000 0.28121958
v 0.31207056 4.93745348 0.26185829
v 0.26022401 4.92200577 0.21835387
v 0.21864631 4.96528930 0.18346604
v 0.21864631 5.03471070 0.18346604
v 0.26022401 5.07799423 0.21835387
v 0.31207056 5.06254652 0.26185829
v 0.21875000 5.00000000 0.37888611
v 0.20368959 4.93745348 0.35280072
v 0.16984916 4.92200577 0.29418738
v 0.14271125 4.96528930 0.24718313
v 0.14271125 5.03471070 0.24718313
v 0.16984916 5.07799423 0.29418738
v 0.20368959 5.06254652 0.35280072
v 0.07597108 5.00000000 0.43085339
v 0.07074065 4.93745348 0.40119018
v 0.05898800 4.92200577 0.33453754
v 0.04956310 4.96528930 0.28108628
v 0.04956310 5.03471070 0.28108628
v 0.05898800 5.07799423 0.33453754
v 0.07074065 5.06254652 0.40119018
v -0.07597108 5.00000000 0.43085339
v -0.07074065 4.93745348 0.40119018
v -0.05898800 4.92200577 0.33453754
v -0.04956310 4.96528930 0.28108628
v -0.04956310 5.03471070 0.28108628
v -0.05898800 5.07799423 0.33453754
v -0.07074065 5.06254652 0.40119018
v -0.21875000 5.00000000 0.37888611
v -0.20368959 4.93745348 0.35280072
v -0.16984916 4.92200577 0.29418738
v -0.14271125 4.96528930 0.24718313
v -0.14271125 5.03471070 0.24718313
v -0.16984916 5.07799423 0.29418738
v -0.20368959 5.06254652 0.35280072
v -0.33514444 5.00000000 0.28121958
v -0.31207056 4.93745348 0.26185829
v -0.26022401 4.92200577 0.21835387
v -0.21864631 4.96528930 0.18346604
v -0.21864631 5.03471070 0.18346604
v -0.26022401 5.07799423 0.21835387
v -0.31207056 5.06254652 0.26185829
v -0.41111552 5.00000000 0.14963381
v -0.38281121 4.93745348 0.13933189
v -0.31921201 4.92200577 0.11618367
v -0.26820941 4.96528930 0.09762024
v -0.26820941 5.03471070 0.09762024
v -0.31921201 5.07799423 0.11618367
v -0.38281121 5.06254652 0.13933189
v -0.43750000 5.00000000 0.00000000
v -0.40737918 4.93745348 0.00000000
v -0.33969833 4.92200577 0.00000000
v -0.28542249 4.96528930 0.00000000
v -0.28542249 5.03471070 0.00000000
v -0.33969833 5.07799423 0.00000000
v -0.40737918 5.06254652 0.00000000
v -0.41111552 5.00000000 -0.14963381
v -0.38281121 4.93745348 -0.13933189
v -0.31921201 4.92200577 -0.11618367
v -0.26820941 4.96528930 -0.09762024
v -0.26820941 5.03471070 -0.09762024
v -0.31921201 5.07799423 -0.11618367
v -0.38281121 5.06254652 -0.13933189
v -0.33514444 5.00000000 -0.28121958
v -0.31207056 4.93745348 -0.26185829
v -0.26022401 4.92200577 -0.21835387
v -0.21864631 4.96528930 -0.18346604
v -0.21864631 5.03471070 -0.18346604
v -0.26022401 5.07799423 -0.21835387
v -0.31207056 5.06254652 -0.26185829
v -0.21875000 5.00000000 -0.37888611
v -0.20368959 4.93745348 -0.35280072
v -0.16984916 4.92200577 -0.29418738
v -0.14271125 4.96528930 -0.24718313
v -0.14271125 5.03471070 -0.24718313
v -0.16984916 5.07799423 -0.29418738
v -0.20368959 5.06254652 -0.35280072
v -0.07597108 5.00000000 -0.43085339
v -0.07074065 4.93745348 -0.40119018
v -0.05898800 4.92200577 -0.33453754
v -0.04956310 4.96528930 -0.28108628
v -0.04956310 5.03471070 -0.28108628
v -0.05898800 5.07799423 -0.33453754
v -0.07074065 5.06254652 -0.40119018
v 0.07597108 5.00000000 -0.43085339
v 0.07074065 4.93745348 -0.40119018
v 0.05898800 4.92200577 -0.33453754
v 0.04956310 4.96528930 -0.28108628
v 0.04956310 5.03471070 -0.28108628
v 0.05898800 5.07799423 -0.33453754
v 0.07074065 5.06254652 -0.40119018
v 0.21875000 5.00000000 -0.37888611
v 0.20368959 4.93745348 -0.35280072
v 0.16984916 4.92200577 -0.29418738
v 0.14271125 4.96528930 -0.24718313
v 0.14271125 5.03471070 -0.24718313
v 0.16984916 5.07799423 -0.29418738
v 0.20368959 5.06254652 -0.35280072
v 0.33514444 5.00000000 -0.28121958
v 0.31207056 4.93745348 -0.26185829
v 0.26022401 4.92200577 -0.21835387
v 0.21864631 4.96528930 -0.18346604
v 0.21864631 5.03471070 -0.18346604
v 0.26022401 5.07799423 -0.21835387
v 0.31207056 5.06254652 -0.26185829
v 0.41111552 5.00000000 -0.14963381
v 0.38281121 4.93745348 -0.13933189
v 0.31921201 4.92200577 -0.11618367
v 0.26820941 4.96528930 -0.09762024
v 0.26820941 5.03471070 -0.09762024
v 0.31921201 5.07799423 -0.11618367
v 0.38281121 5.06254652 -0.13933189
v 1.00000000 1.70000000 0.30000000
v 1.48000000 1.70000000 0.30000000
v 1.00000000 -1.70000000 0.30000000
v 1.36770133 1.70000000 0.60853805
v 1.08335113 1.70000000 0.77270772
v 0.76000000 1.70000000 0.71569219
v 0.54894754 1.70000000 0.46416967
v 0.54894754 1.70000000 0.13583033
v 0.76000000 1.70000000 -0.11569219
v 1.08335113 1.70000000 -0.17270772
v 1.36770133 1.70000000 -0.00853805
v 1.34400000 3.40000000 0.30000000
v 1.31387918 3.33745348 0.30000000
v 1.24619833 3.32200577 0.30000000
v 1.19192249 3.36528930 0.30000000
v 1.19192249 3.43471070 0.30000000
v 1.24619833 3.47799423 0.30000000
v 1.31387918 3.46254652 0.30000000
v 1.32325426 3.40000000 0.41765493
v 1.29494995 3.33745348 0.40735300
v 1.23135075 3.32200577 0.38420479
v 1.18034815 3.36528930 0.36564136
v 1.18034815 3.43471070 0.36564136
v 1.23135075 3.47799423 0.38420479
v 1.29494995 3.46254652 0.40735300
v 1.26351929 3.40000000 0.52111894
v 1.24044540 3.33745348 0.50175765
v 1.18859886 3.32200577 0.45825323
v 1.14702116 3.36528930 0.42336540
v 1.14702116 3.43471070 0.42336540
v 1.18859886 3.47799423 0.45825323
v 1.24044540 3.46254652 0.50175765
v 1.17200000 3.40000000 0.59791274
v 1.15693959 3.33745348 0.57182735
v 1.12309916 3.32200577 0.51321400
v 1.09596125 3.36528930 0.46620975
v 1.09596125 3.43471070 0.46620975
v 1.12309916 3.47799423 0.51321400
v 1.15693959 3.46254652 0.57182735
v 1.05973497 3.40000000 0.63877387
v 1.05450455 3.33745348 0.60911065
v 1.04275189 3.32200577 0.54245802
v 1.03332699 3.36528930 0.48900676
v 1.03332699 3.43471070 0.48900676
v 1.04275189 3.47799423 0.54245802
v 1.05450455 3.46254652 0.60911065
v 0.94026503 3.40000000 0.63877387
v 0.94549545 3.33745348 0.60911065
v 0.95724811 3.32200577 0.54245802
v 0.96667301 3.36528930 0.48900676
v 0.96667301 3.43471070 0.48900676
v 0.95724811 3.47799423 0.54245802
v 0.94549545 3.46254652 0.60911065
v 0.82800000 3.40000000 0.59791274
v 0.84306041 3.33745348 0.57182735
v 0.87690084 3.32200577 0.51321400
v 0.90403875 3.36528930 0.46620975
v 0.90403875 3.43471070 0.46620975
v 0.87690084 3.47799423 0.51321400
v 0.84306041 3.46254652 0.57182735
v 0.73648071 3.40000000 0.52111894
v 0.75955460 3.33745348 0.50175765
v 0.81140114 3.32200577 0.45825323
v 0.85297884 3.36528930 0.42336540
v 0.85297884 3.43471070 0.42336540
v 0.81140114 3.47799423 0.45825323
v 0.75955460 3.46254652 0.50175765
v 0.67674574 3.40000000 0.41765493
v 0.70505005 3.33745348 0.40735300
v 0.76864925 3.32200577 0.38420479
v 0.81965185 3.36528930 0.36564136
v 0.81965185 3.43471070 0.36564136
v 0.76864925 3.47799423 0.38420479
v 0.70505005 3.46254652 0.40735300
v 0.65600000 3.40000000 0.30000000
v 0.68612082 3.33745348 0.30000000
v 0.75380167 3.32200577 0.30000000
v 0.80807751 3.36528930 0.30000000
v 0.80807751 3.43471070 0.30000000
v 0.75380167 3.47799423 0.30000000
v 0.68612082 3.46254652 0.30000000
v 0.67674574 3.40000000 0.18234507
v 0.70505005 3.33745348 0.19264700
v 0.76864925 3.32200577 0.21579521
v 0.81965185 3.36528930 0.23435864
v 0.81965185 3.43471070 0.23435864
v 0.76864925 3.47799423 0.21579521
v 0.70505005 3.46254652 0.19264700
v 0.73648071 3.40000000 0.07888106
v 0.75955460 3.33745348 0.09824235
v 0.81140114 3.32200577 0.14174677
v 0.85297884 3.36528930 0.17663460
v 0.85297884 3.43471070 0.17663460
v 0.81140114 3.47799423 0.14174677
v 0.75955460 3.46254652 0.09824235
v 0.82800000 3.40000000 0.00208726
v 0.84306041 3.33745348 0.02817265
v 0.87690084 3.32200577 0.08678600
v 0.90403875 3.36528930 0.13379025
v 0.90403875 3.43471070 0.13379025
v 0.87690084 3.47799423 0.08678600
v 0.84306041 3.46254652 0.02817265
v 0.94026503 3.40000000 -0.03877387
v 0.94549545 3.33745348 -0.00911065
v 0.95724811 3.32200577 0.05754198
v 0.96667301 3.36528930 0.11099324
v 0.96667301 3.43471070 0.11099324
v 0.95724811 3.47799423 0.05754198
v 0.94549545 3.46254652 -0.00911065
v 1.05973497 3.40000000 -0.03877387
v 1.05450455 3.33745348 -0.00911065
v 1.04275189 3.32200577 0.05754198
v 1.03332699 3.36528930 0.11099324
v 1.03332699 3.43471070 0.11099324
v 1.04275189 3.47799423 0.05754198
v 1.05450455 3.46254652 -0.00911065
v 1.17200000 3.40000000 0.00208726
v 1.15693959 3.33745348 0.02817265
v 1.12309916 3.32200577 0.08678600
v 1.09596125 3.36528930 0.13379025
v 1.09596125 3.43471070 0.13379025
v 1.12309916 3.47799423 0.08678600
v 1.15693959 3.46254652 0.02817265
v 1.26351929 3.40000000 0.07888106
v 1.24044540 3.33745348 0.09824235
v 1.18859886 3.32200577 0.14174677
v 1.14702116 3.36528930 0.17663460
v 1.14702116 3.43471070 0.17663460
v 1.18859886 3.47799423 0.14174677
v 1.24044540 3.46254652 0.09824235
v 1.32325426 3.40000000 0.18234507
v 1.29494995 3.33745348 0.19264700
v 1.23135075 3.32200577 0.21579521
v 1.18034815 3.36528930 0.23435864
v 1.18034815 3.43471070 0.23435864
v 1.23135075 3.47799423 0.21579521
v 1.29494995 3.46254652 0.19264700
v 0.40000000 1.40000000 -0.80000000
v 0.80000000 1.40000000 -0.80000000
v 0.40000000 -1.40000000 -0.80000000
v 0.70641778 1.40000000 -0.54288496
v 0.46945927 1.40000000 -0.40607690
v 0.20000000 1.40000000 -0.45358984
v 0.02412295 1.40000000 -0.66319194
v 0.02412295 1.40000000 -0.93680806
v 0.20000000 1.40000000 -1.14641016
v 0.46945927 1.40000000 -1.19392310
v 0.70641778 1.40000000 -1.05711504
v 0.70000000 2.80000000 -0.80000000
v 0.66987918 2.73745348 -0.80000000
v 0.60219833 2.72200577 -0.80000000
v 0.54792249 2.76528930 -0.80000000
v 0.54792249 2.83471070 -0.80000000
v 0.60219833 2.87799423 -0.80000000
v 0.66987918 2.86254652 -0.80000000
v 0.68190779 2.80000000 -0.69739396
v 0.65360348 2.73745348 -0.70769588
v 0.59000427 2.72200577 -0.73084410
v 0.53900167 2.76528930 -0.74940753
v 0.53900167 2.83471070 -0.74940753
v 0.59000427 2.87799423 -0.73084410
v 0.65360348 2.86254652 -0.70769588
v 0.62981333 2.80000000 -0.60716372
v 0.60673945 2.73745348 -0.62652500
v 0.55489290 2.72200577 -0.67002942
v 0.51331520 2.76528930 -0.70491726
v 0.51331520 2.83471070 -0.70491726
v 0.55489290 2.87799423 -0.67002942
v 0.60673945 2.86254652 -0.62652500
v 0.55000000 2.80000000 -0.54019238
v 0.53493959 2.73745348 -0.56627777
v 0.50109916 2.72200577 -0.62489111
v 0.47396125 2.76528930 -0.67189537
v 0.47396125 2.83471070 -0.67189537
v 0.50109916 2.87799423 -0.62489111
v 0.53493959 2.86254652 -0.56627777
v 0.45209445 2.80000000 -0.50455767
v 0.44686403 2.73745348 -0.53422089
v 0.43511137 2.72200577 -0.60087352
v 0.42568647 2.76528930 -0.65432478
v 0.42568647 2.83471070 -0.65432478
v 0.43511137 2.87799423 -0.60087352
v 0.44686403 2.86254652 -0.53422089
v 0.34790555 2.80000000 -0.50455767
v 0.35313597 2.73745348 -0.53422089
v 0.36488863 2.72200577 -0.60087352
v 0.37431353 2.76528930 -0.65432478
v 0.37431353 2.83471070 -0.65432478
v 0.36488863 2.87799423 -0.60087352
v 0.35313597 2.86254652 -0.53422089
v 0.25000000 2.80000000 -0.54019238
v 0.26506041 2.73745348 -0.56627777
v 0.29890084 2.72200577 -0.62489111
v 0.32603875 2.76528930 -0.67189537
v 0.32603875 2.83471070 -0.67189537
v 0.29890084 2.87799423 -0.62489111
v 0.26506041 2.86254652 -0.56627777
v 0.17018667 2.80000000 -0.60716372
v 0.19326055 2.73745348 -0.62652500
v 0.24510710 2.72200577 -0.67002942
v 0.28668480 2.76528930 -0.70491726
v 0.28668480 2.83471070 -0.70491726
v 0.24510710 2.87799423 -0.67002942
v 0.19326055 2.86254652 -0.62652500
v 0.11809221 2.80000000 -0.69739396
v 0.14639652 2.73745348 -0.70769588
v 0.20999573 2.72200577 -0.73084410
v 0.26099833 2.76528930 -0.74940753
v 0.26099833 2.83471070 -0.74940753
v 0.20999573 2.87799423 -0.73084410
v 0.14639652 2.86254652 -0.70769588
v 0.10000000 2.80000000 -0.80000000
v 0.13012082 2.73745348 -0.80000000
v 0.19780167 2.72200577 -0.80000000
v 0.25207751 2.76528930 -0.80000000
v 0.25207751 2.83471070 -0.80000000
v 0.19780167 2.87799423 -0.80000000
v 0.13012082 2.86254652 -0.80000000
v 0.11809221 2.80000000 -0.90260604
v 0.14639652 2.73745348 -0.89230412
v 0.20999573 2.72200577 -0.86915590
v 0.26099833 2.76528930 -0.85059247
v 0.26099833 2.83471070 -0.85059247
v 0.20999573 2.87799423 -0.86915590
v 0.14639652 2.86254652 -0.89230412
v 0.17018667 2.80000000 -0.99283628
v 0.19326055 2.73745348 -0.97347500
v 0.24510710 2.72200577 -0.92997058
v 0.28668480 2.76528930 -0.89508274
v 0.28668480 2.83471070 -0.89508274
v 0.24510710 2.87799423 -0.92997058
v 0.19326055 2.86254652 -0.97347500
v 0.25000000 2.80000000 -1.05980762
v 0.26506041 2.73745348 -1.03372223
v 0.29890084 2.72200577 -0.97510889
v 0.32603875 2.76528930 -0.92810463
v 0.32603875 2.83471070 -0.92810463
v 0.29890084 2.87799423 -0.97510889
v 0.26506041 2.86254652 -1.03372223
v 0.34790555 2.80000000 -1.09544233
v 0.35313597 2.73745348 -1.06577911
v 0.36488863 2.72200577 -0.99912648
v 0.37431353 2.76528930 -0.94567522
v 0.37431353 2.83471070 -0.94567522
v 0.36488863 2.87799423 -0.99912648
v 0.35313597 2.86254652 -1.06577911
v 0.45209445 2.80000000 -1.09544233
v 0.44686403 2.73745348 -1.06577911
v 0.43511137 2.72200577 -0.99912648
v 0.42568647 2.76528930 -0.94567522
v 0.42568647 2.83471070 -0.94567522
v 0.43511137 2.87799423 -0.99912648
v 0.44686403 2.86254652 -1.06577911
v 0.55000000 2.80000000 -1.05980762
v 0.53493959 2.73745348 -1.03372223
v 0.50109916 2.72200577 -0.97510889
v 0.47396125 2.76528930 -0.92810463
v 0.47396125 2.83471070 -0.92810463
v 0.50109916 2.87799423 -0.97510889
v 0.53493959 2.86254652 -1.03372223
v 0.62981333 2.80000000 -0.99283628
v 0.60673945 2.73745348 -0.97347500
v 0.55489290 2.72200577 -0.92997058
v 0.51331520 2.76528930 -0.89508274
v 0.51331520 2.83471070 -0.89508274
v 0.55489290 2.87799423 -0.92997058
v 0.60673945 2.86254652 -0.97347500
v 0.68190779 2.80000000 -0.90260604
v 0.65360348 2.73745348 -0.89230412
v 0.59000427 2.72200577 -0.86915590
v 0.53900167 2.76528930 -0.85059247
v 0.53900167 2.83471070 -0.85059247
v 0.59000427 2.87799423 -0.86915590
v 0.65360348 2.86254652 -0.89230412
f 2 1 4
f 2 4 3
f 4 1 5
f 4 5 3
f 5 1 6
f 5 6 3
f 6 1 7
f 6 7 3
f 7 1 8
f 7 8 3
f 8 1 9
f 8 9 3
f 9 1 10
f 9 10 3
f 10 1 11
f 10 11 3
f 11 1 2
f 11 2 3
f 12 19 13
f 13 19 20
f 13 20 14
f 14 20 21
f 14 21 15
f 15 21 22
f 15 22 16
f 16 22 23
f 16 23 17
f 17 23 24
f 17 24 18
f 18 24 25
f 18 25 12
f 12 25 19
f 19 26 20
f 20 26 27
f 20 27 21
f 21 27 28
f 21 28 22
f 22 28 29
f 22 29 23
f 23 29 30
f 23 30 24
f 24 30 31
f 24 31 25
f 25 31 32
f 25 32 19
f 19 32 26
f 26 33 27
f 27 33 34
f 27 34 28
f 28 34 35
f 28 35 29
f 29 35 36
f 29 36 30
f 30 36 37
f 30 37 31
f 31 37 38
f 31 38 32
f 32 38 39
f 32 39 26
f 26 39 33
f 33 40 34
f 34 40 41
f 34 41 35
f 35 41 42
f 35 42 36
f 36 42 43
f 36 43 37
f 37 43 44
f 37 44 38
f 38 44 45
f 38 45 39
f 39 45 46
f 39 46 33
f 33 46 40
f 40 47 41
f 41 47 48
f 41 48 42
f 42 48 49
f 42 49 43
f 43 49 50
f 43 50 44
f 44 50 51
f 44 51 45
f 45 51 52
f 45 52 46
f 46 52 53
f 46 53 40
f 40 53 47
f 47 54 48
f 48 54 55
f 48 55 49
f 49 55 56
f 49 56 50
f 50 56 57
f 50 57 51
f 51 57 58
f 51 58 52
f 52 58 59
f 52 59 53
f 53 59 60
f 53 60 47
f 47 60 54
f 54 61 55
f 55 61 62
f 55 62 56
f 56 62 63
f 56 63 57
f 57 63 64
f 57 64 58
f 58 64 65
f 58 65 59
f 59 65 66
f 59 66 60
f 60 66 67
f 60 67 54
f 54 67 61
f 61 68 62
f 62 68 69
f 62 69 63
f 63 69 70
f 63 70 64
f 64 70 71
f 64 71 65
f 65 71 72
f 65 72 66
f 66 72 73
f 66 73 67
f 67 73 74
f 67 74 61
f 61 74 68
f 68 75 69
f 69 75 76
f 69 76 70
f 70 76 77
f 70 77 71
f 71 77 78
f 71 78 72
f 72 78 79
f 72 79 73
f 73 79 80
f 73 80 74
f 74 80 81
f 74 81 68
f 68 81 75
f 75 82 76
f 76 82 83
f 76 83 77
f 77 83 84
f 77 84 78
f 78 84 85
f 78 85 79
f 79 85 86
f 79 86 80
f 80 86 87
f 80 87 81
f 81 87 88
f 81 88 75
f 75 88 82
f 82 89 83
f 83 89 90
f 83 90 84
f 84 90 91
f 84 91 85
f 85 91 92
f 85 92 86
f 86 92 93
f 86 93 87
f 87 93 94
f 87 94 88
f 88 94 95
f 88 95 82
f 82 95 89
f 89 96 90
f 90 96 97
f 90 97 91
f 91 97 98
f 91 98 92
f 92 98 99
f 92 99 93
f 93 99 100
f 93 100 94
f 94 100 101
f 94 101 95
f 95 101 102
f 95 102 89
f 89 102 96
f 96 103 97
f 97 103 104
f 97 104 98
f 98 104 105
f 98 105 99
f 99 105 106
f 99 106 100
f 100 106 107
f 100 107 101
f 101 107 108
f 101 108 102
f 102 108 109
f 102 109 96
f 96 109 103
f 103 110 104
f 104 110 111
f 104 111 105
f 105 111 112
f 105 112 106
f 106 112 113
f 106 113 107
f 107 113 114
f 107 114 108
f 108 114 115
f 108 115 109
f 109 115 116
f 109 116 103
f 103 116 110
f 110 117 111
f 111 117 118
f 111 118 112
f 112 118 119
f 112 119 113
f 113 119 120
f 113 120 114
f 114 120 121
f 114 121 115
f 115 121 122
f 115 122 116
f 116 122 123
f 116 123 110
f 110 123 117
f 117 124 118
f 118 124 125
f 118 125 119
f 119 125 126
f 119 126 120
f 120 126 127
f 120 127 121
f 121 127 128
f 121 128 122
f 122 128 129
f 122 129 123
f 123 129 130
f 123 130 117
f 117 130 124
f 124 131 125
f 125 131 132
f 125 132 126
f 126 132 133
f 126 133 127
f 127 133 134
f 127 134 128
f 128 134 135
f 128 135 129
f 129 135 136
f 129 136 130
f 130 136 137
f 130 137 124
f 124 137 131
f 131 12 132
f 132 12 13
f 132 13 133
f 133 13 14
f 133 14 134
f 134 14 15
f 134 15 135
f 135 15 16
f 135 16 136
f 136 16 17
f 136 17 137
f 137 17 18
f 137 18 131
f 131 18 12
f 139 138 141
f 139 141 140
f 141 138 142
f 141 142 140
f 142 138 143
f 142 143 140
f 143 138 144
f 143 144 140
f 144 138 145
f 144 145 140
f 145 138 146
f 145 146 140
f 146 138 147
f 146 147 140
f 147 138 148
f 147 148 140
f 148 138 139
f 148 139 140
f 149 156 150
f 150 156 157
f 150 157 151
f 151 157 158
f 151 158 152
f 152 158 159
f 152 159 153
f 153 159 160
f 153 160 154
f 154 160 161
f 154 161 155
f 155 161 162
f 155 162 149
f 149 162 156
f 156 163 157
f 157 163 164
f 157 164 158
f 158 164 165
f 158 165 159
f 159 165 166
f 159 166 160
f 160 166 167
f 160 167 161
f 161 167 168
f 161 168 162
f 162 168 169
f 162 169 156
f 156 169 163
f 163 170 164
f 164 170 171
f 164 171 165
f 165 171 172
f 165 172 166
f 166 172 173
f 166 173 167
f 167 173 174
f 167 174 168
f 168 174 175
f 168 175 169
f 169 175 176
f 169 176 163
f 163 176 170
f 170 177 171
f 171 177 178
f 171 178 172
f 172 178 179
f 172 179 173
f 173 179 180
f 173 180 174
f 174 180 181
f 174 181 175
f 175 181 182
f 175 182 176
f 176 182 183
f 176 183 170
f 170 183 177
f 177 184 178
f 178 184 185
f 178 185 179
f 179 185 186
f 179 186 180
f 180 186 187
f 180 187 181
f 181 187 188
f 181 188 182
f 182 188 189
f 182 189 183
f 183 189 190
f 183 190 177
f 177 190 184
f 184 191 185
f 185 191 192
f 185 192 186
f 186 192 193
f 186 193 187
f 187 193 194
f 187 194 188
f 188 194 195
f 188 195 189
f 189 195 196
f 189 196 190
f 190 196 197
f 190 197 184
f 184 197 191
f 191 198 192
f 192 198 199
f 192 199 193
f 193 199 200
f 193 200 194
f 194 200 201
f 194 201 195
f 195 201 202
f 195 202 196
f 196 202 203
f 196 203 197
f 197 203 204
f 197 204 191
f 191 204 198
f 198 205 199
f 199 205 206
f 199 206 200
f 200 206 207
f 200 207 201
f 201 207 208
f 201 208 202
f 202 208 209
f 202 209 203
f 203 209 210
f 203 210 204
f 204 210 211
f 204 211 198
f 198 211 205
f 205 212 206
f 206 212 213
f 206 213 207
f 207 213 214
f 207 214 208
f 208 214 215
f 208 215 209
f 209 215 216
f 209 216 210
f 210 216 217
f 210 217 211
f 211 217 218
f 211 218 205
f 205 218 212
f 212 219 213
f 213 219 220
f 213 220 214
f 214 220 221
f 214 221 215
f 215 221 222
f 215 222 216
f 216 222 223
f 216 223 217
f 217 223 224
f 217 224 218
f 218 224 225
f 218 225 212
f 212 225 219
f 219 226 220
f 220 226 227
f 220 227 221
f 221 227 228
f 221 228 222
f 222 228 229
f 222 229 223
f 223 229 230
f 223 230 224
f 224 230 231
f 224 231 225
f 225 231 232
f 225 232 219
f 219 232 226
f 226 233 227
f 227 233 234
f 227 234 228
f 228 234 235
f 228 235 229
f 229 235 236
f 229 236 230
f 230 236 237
f 230 237 231
f 231 237 238
f 231 238 232
f 232 238 239
f 232 239 226
f 226 239 233
f 233 240 234
f 234 240 241
f 234 241 235
f 235 241 242
f 235 242 236
f 236 242 243
f 236 243 237
f 237 243 244
f 237 244 238
f 238 244 245
f 238 245 239
f 239 245 246
f 239 246 233
f 233 246 240
f 240 247 241
f 241 247 248
f 241 248 242
f 242 248 249
f 242 249 243
f 243 249 250
f 243 250 244
f 244 250 251
f 244 251 245
f 245 251 252
f 245 252 246
f 246 252 253
f 246 253 240
f 240 253 247
f 247 254 248
f 248 254 255
f 248 255 249
f 249 255 256
f 249 256 250
f 250 256 257
f 250 257 251
f 251 257 258
f 251 258 252
f 252 258 259
f 252 259 253
f 253 259 260
f 253 260 247
f 247 260 254
f 254 261 255
f 255 261 262
f 255 262 256
f 256 262 263
f 256 263 257
f 257 263 264
f 257 264 258
f 258 264 265
f 258 265 259
f 259 265 266
f 259 266 260
f 260 266 267
f 260 267 254
f 254 267 261
f 261 268 262
f 262 268 269
f 262 269 263
f 263 269 270
f 263 270 264
f 264 270 271
f 264 271 265
f 265 271 272
f 265 272 266
f 266 272 273
f 266 273 267
f 267 273 274
f 267 274 261
f 261 274 268
f 268 149 269
f 269 149 150
f 269 150 270
f 270 150 151
f 270 151 271
f 271 151 152
f 271 152 272
f 272 152 153
f 272 153 273
f 273 153 154
f 273 154 274
f 274 154 155
f 274 155 268
f 268 155 149
f 276 275 278
f 276 278 277
f 278 275 279
f 278 279 277
f 279 275 280
f 279 280 277
f 280 275 281
f 280 281 277
f 281 275 282
f 281 282 277
f 282 275 283
f 282 283 277
f 283 275 284
f 283 284 277
f 284 275 285
f 284 285 277
f 285 275 276
f 285 276 277
f 286 293 287
f 287 293 294
f 287 294 288
f 288 294 295
f 288 295 289
f 289 295 296
f 289 296 290
f 290 296 297
f 290 297 291
f 291 297 298
f 291 298 292
f 292 298 299
f 292 299 286
f 286 299 293
f 293 300 294
f 294 300 301
f 294 301 295
f 295 301 302
f 295 302 296
f 296 302 303
f 296 303 297
f 297 303 304
f 297 304 298
f 298 304 305
f 298 305 299
f 299 305 306
f 299 306 293
f 293 306 300
f 300 307 301
f 301 307 308
f 301 308 302
f 302 308 309
f 302 309 303
f 303 309 310
f 303 310 304
f 304 310 311
f 304 311 305
f 305 311 312
f 305 312 306
f 306 312 313
f 306 313 300
f 300 313 307
f 307 314 308
f 308 314 315
f 308 315 309
f 309 315 316
f 309 316 310
f 310 316 317
f 310 317 311
f 311 317 318
f 311 318 312
f 312 318 319
f 312 319 313
f 313 319 320
f 313 320 307
f 307 320 314
f 314 321 315
f 315 321 322
f 315 322 316
f 316 322 323
f 316 323 317
f 317 323 324
f 317 324 318
f 318 324 325
f 318 325 319
f 319 325 326
f 319 326 320
f 320 326 327
f 320 327 314
f 314 327 321
f 321 328 322
f 322 328 329
f 322 329 323
f 323 329 330
f 323 330 324
f 324 330 331
f 324 331 325
f 325 331 332
f 325 332 326
f 326 332 333
f 326 333 327
f 327 333 334
f 327 334 321
f 321 334 328
f 328 335 329
f 329 335 336
f 329 336 330
f 330 336 337
f 330 337 331
f 331 337 338
f 331 338 332
f 332 338 339
f 332 339 333
f 333 339 340
f 333 340 334
f 334 340 341
f 334 341 328
f 328 341 335
f 335 342 336
f 336 342 343
f 336 343 337
f 337 343 344
f 337 344 338
f 338 344 345
f 338 345 339
f 339 345 346
f 339 346 340
f 340 346 347
f 340 347 341
f 341 347 348
f 341 348 335
f 335 348 342
f 342 349 343
f 343 349 350
f 343 350 344
f 344 350 351
f 344 351 345
f 345 351 352
f 345 352 346
f 346 352 353
f 346 353 347
f 347 353 354
f 347 354 348
f 348 354 355
f 348 355 342
f 342 355 349
f 349 356 350
f 350 356 357
f 350 357 351
f 351 357 358
f 351 358 352
f 352 358 359
f 352 359 353
f 353 359 360
f 353 360 354
f 354 360 361
f 354 361 355
f 355 361 362
f 355 362 349
f 349 362 356
f 356 363 357
f 357 363 364
f 357 364 358
f 358 364 365
f 358 365 359
f 359 365 366
f 359 366 360
f 360 366 367
f 360 367 361
f 361 367 368
f 361 368 362
f 362 368 369
f 362 369 356
f 356 369 363
f 363 370 364
f 364 370 371
f 364 371 365
f 365 371 372
f 365 372 366
f 366 372 373
f 366 373 367
f 367 373 374
f 367 374 368
f 368 374 375
f 368 375 369
f 369 375 376
f 369 376 363
f 363 376 370
f 370 377 371
f 371 377 378
f 371 378 372
f 372 378 379
f 372 379 373
f 373 379 380
f 373 380 374
f 374 380 381
f 374 381 375
f 375 381 382
f 375 382 376
f 376 382 383
f 376 383 370
f 370 383 377
f 377 384 378
f 378 384 385
f 378 385 379
f 379 385 386
f 379 386 380
f 380 386 387
f 380 387 381
f 381 387 388
f 381 388 382
f 382 388 389
f 382 389 383
f 383 389 390
f 383 390 377
f 377 390 384
f 384 391 385
f 385 391 392
f 385 392 386
f 386 392 393
f 386 393 387
f 387 393 394
f 387 394 388
f 388 394 395
f 388 395 389
f 389 395 396
f 389 396 390
f 390 396 397
f 390 397 384
f 384 397 391
f 391 398 392
f 392 398 399
f 392 399 393
f 393 399 400
f 393 400 394
f 394 400 401
f 394 401 395
f 395 401 402
f 395 402 396
f 396 402 403
f 396 403 397
f 397 403 404
f 397 404 391
f 391 404 398
f 398 405 399
f 399 405 406
f 399 406 400
f 400 406 407
f 400 407 401
f 401 407 408
f 401 408 402
f 402 408 409
f 402 409 403
f 403 409 410
f 403 410 404
f 404 410 411
f 404 411 398
f 398 411 405
f 405 286 406
f 406 286 287
f 406 287 407
f 407 287 288
f 407 288 408
f 408 288 289
f 408 289 409
f 409 289 290
f 409 290 410
f 410 290 291
f 410 291 411
f 411 291 292
f 411 292 405
f 405 292 286
f 413 412 415
f 413 415 414
f 415 412 416
f 415 416 414
f 416 412 417
f 416 417 414
f 417 412 418
f 417 418 414
f 418 412 419
f 418 419 414
f 419 412 420
f 419 420 414
f 420 412 421
f 420 421 414
f 421 412 422
f 421 422 414
f 422 412 413
f 422 413 414
f 423 430 424
f 424 430 431
f 424 431 425
f 425 431 432
f 425 432 426
f 426 432 433
f 426 433 427
f 427 433 434
f 427 434 428
f 428 434 435
f 428 435 429
f 429 435 436
f 429 436 423
f 423 436 430
f 430 437 431
f 431 437 438
f 431 438 432
f 432 438 439
f 432 439 433
f 433 439 440
f 433 440 434
f 434 440 441
f 434 441 435
f 435 441 442
f 435 442 436
f 436 442 443
f 436 443 430
f 430 443 437
f 437 444 438
f 438 444 445
f 438 445 439
f 439 445 446
f 439 446 440
f 440 446 447
f 440 447 441
f 441 447 448
f 441 448 442
f 442 448 449
f 442 449 443
f 443 449 450
f 443 450 437
f 437 450 444
f 444 451 445
f 445 451 452
f 445 452 446
f 446 452 453
f 446 453 447
f 447 453 454
f 447 454 448
f 448 454 455
f 448 455 449
f 449 455 456
f 449 456 450
f 450 456 457
f 450 457 444
f 444 457 451
f 451 458 452
f 452 458 459
f 452 459 453
f 453 459 460
f 453 460 454
f 454 460 461
f 454 461 455
f 455 461 462
f 455 462 456
f 456 462 463
f 456 463 457
f 457 463 464
f 457 464 451
f 451 464 458
f 458 465 459
f 459 465 466
f 459 466 460
f 460 466 467
f 460 467 461
f 461 467 468
f 461 468 462
f 462 468 469
f 462 469 463
f 463 469 470
f 463 470 464
f 464 470 471
f 464 471 458
f 458 471 465
f 465 472 466
f 466 472 473
f 466 473 467
f 467 473 474
f 467 474 468
f 468 474 475
f 468 475 469
f 469 475 476
f 469 476 470
f 470 476 477
f 470 477 471
f 471 477 478
f 471 478 465
f 465 478 472
f 472 479 473
f 473 479 480
f 473 480 474
f 474 480 481
f 474 481 475
f 475 481 482
f 475 482 476
f 476 482 483
f 476 483 477
f 477 483 484
f 477 484 478
f 478 484 485
f 478 485 472
f 472 485 479
f 479 486 480
f 480 486 487
f 480 487 481
f 481 487 488
f 481 488 482
f 482 488 489
f 482 489 483
f 483 489 490
f 483 490 484
f 484 490 491
f 484 491 485
f 485 491 492
f 485 492 479
f 479 492 486
f 486 493 487
f 487 493 494
f 487 494 488
f 488 494 495
f 488 495 489
f 489 495 496
f 489 496 490
f 490 496 497
f 490 497 491
f 491 497 498
f 491 498 492
f 492 498 499
f 492 499 486
f 486 499 493
f 493 500 494
f 494 500 501
f 494 501 495
f 495 501 502
f 495 502 496
f 496 502 503
f 496 503 497
f 497 503 504
f 497 504 498
f 498 504 505
f 498 505 499
f 499 505 506
f 499 506 493
f 493 506 500
f 500 507 501
f 501 507 508
f 501 508 502
f 502 508 509
f 502 509 503
f 503 509 510
f 503 510 504
f 504 510 511
f 504 511 505
f 505 511 512
f 505 512 506
f 506 512 513
f 506 513 500
f 500 513 507
f 507 514 508
f 508 514 515
f 508 515 509
f 509 515 516
f 509 516 510
f 510 516 517
f 510 517 511
f 511 517 518
f 511 518 512
f 512 518 519
f 512 519 513
f 513 519 520
f 513 520 507
f 507 520 514
f 514 521 515
f 515 521 522
f 515 522 516
f 516 522 523
f 516 523 517
f 517 523 524
f 517 524 518
f 518 524 525
f 518 525 519
f 519 525 526
f 519 526 520
f 520 526 527
f 520 527 514
f 514 527 521
f 521 528 522
f 522 528 529
f 522 529 523
f 523 529 530
f 523 530 524
f 524 530 531
f 524 531 525
f 525 531 532
f 525 532 526
f 526 532 533
f 526 533 527
f 527 533 534
f 527 534 521
f 521 534 528
f 528 535 529
f 529 535 536
f 529 536 530
f 530 536 537
f 530 537 531
f 531 537 538
f 531 538 532
f 532 538 539
f 532 539 533
f 533 539 540
f 533 540 534
f 534 540 541
f 534 541 528
f 528 541 535
f 535 542 536
f 536 542 543
f 536 543 537
f 537 543 544
f 537 544 538
f 538 544 545
f 538 545 539
f 539 545 546
f 539 546 540
f 540 546 547
f 540 547 541
f 541 547 548
f 541 548 535
f 535 548 542
f 542 423 543
f 543 423 424
f 543 424 544
f 544 424 425
f 544 425 545
f 545 425 426
f 545 426 546
f 546 426 427
f 546 427 547
f 547 427 428
f 547 428 548
f 548 428 429
f 548 429 542
f 542 429 423

