# https://github.com/mikedh/trimesh
v -1.00270749 0.84419729 0.09605775
v 1.20195258 0.76402479 -0.16667898
v -1.03100776 -0.96354524 -0.00215055
v 0.91497520 -0.85832887 0.09955737
v 0.01056491 -0.47910700 1.42088249
v -0.13748679 0.61075429 1.23830432
v 0.14055205 -0.58269770 -1.38470368
v -0.10894873 0.68588786 -1.38082107
v 1.63276917 -0.03098775 -0.77303420
v 1.75977267 0.03632047 0.89631487
v -1.35863800 -0.03576452 -0.90673685
v -1.83150525 0.05420619 0.98567823
v -0.01823159 1.02606623 -0.10553360
v 0.10409485 -1.03459363 0.06952375
v -0.72451554 -0.86948850 0.81493578
v 0.65302416 -0.81323296 0.82862023
v -0.50940782 0.89586565 0.83700728
v 0.71904010 0.76168898 0.75908208
v -0.07525962 -0.05622125 1.56478179
v -0.37884338 -0.96611183 -0.67606037
v 0.34877483 -0.91938858 -0.77916761
v -0.52423842 0.95250663 -0.69845155
v 0.56223798 0.84923174 -0.69017909
v -0.03060869 -0.11226040 -1.74506076
v 1.47092162 0.59375015 -0.47619670
v 1.72851165 -0.58759823 -0.47413411
v 1.10009446 -0.36714119 -1.23595996
v 0.89409185 0.30796996 -1.34328964
v 1.42669965 0.59285358 0.43434369
v 1.62003305 -0.50769429 0.55158318
v 1.10646162 -0.34858542 1.24024501
v 0.98724509 0.19143326 1.10919679
v 1.78836806 -0.08775772 0.05117110
v -1.76291064 0.51672170 -0.32812597
v -1.67503622 -0.48509863 -0.61393025
v -1.03287001 -0.42352063 -1.33782342
v -0.86555070 0.18791450 -1.23882096
v -1.57999629 0.49771480 0.30933179
v -1.60649327 -0.59659536 0.52420975
v -0.99650366 -0.19896215 1.26378967
v -1.16375960 0.35569495 1.32258677
v -1.78252999 0.07348979 0.04567950
v -1.65760305 0.99000000 0.48203683
v -1.62654476 0.99000000 0.59794793
v -1.65760305 1.11000000 0.48203683
v -1.62654476 1.11000000 0.59794793
v 1.62654476 0.99000000 -0.39794793
v 1.65760305 0.99000000 -0.28203683
v 1.62654476 1.11000000 -0.39794793
v 1.65760305 1.11000000 -0.28203683
v -0.73048307 1.02000000 -1.19479849
v -0.79931224 1.02000000 -1.09650024
v -0.73048307 1.14000000 -1.19479849
v -0.79931224 1.14000000 -1.09650024
v 1.39931224 1.02000000 0.29650024
v 1.33048307 1.02000000 0.39479849
v 1.39931224 1.14000000 0.29650024
v 1.33048307 1.14000000 0.39479849
f 1 38 17
f 38 12 41
f 17 41 6
f 38 41 17
f 1 17 13
f 17 6 18
f 13 18 2
f 17 18 13
f 1 13 22
f 13 2 23
f 22 23 8
f 13 23 22
f 1 22 34
f 22 8 37
f 34 37 11
f 22 37 34
f 1 34 38
f 34 11 42
f 38 42 12
f 34 42 38
f 2 18 29
f 18 6 32
f 29 32 10
f 18 32 29
f 6 41 19
f 41 12 40
f 19 40 5
f 41 40 19
f 12 42 39
f 42 11 35
f 39 35 3
f 42 35 39
f 11 37 36
f 37 8 24
f 36 24 7
f 37 24 36
f 8 23 28
f 23 2 25
f 28 25 9
f 23 25 28
f 4 30 16
f 30 10 31
f 16 31 5
f 30 31 16
f 4 16 14
f 16 5 15
f 14 15 3
f 16 15 14
f 4 14 21
f 14 3 20
f 21 20 7
f 14 20 21
f 4 21 26
f 21 7 27
f 26 27 9
f 21 27 26
f 4 26 30
f 26 9 33
f 30 33 10
f 26 33 30
f 5 31 19
f 31 10 32
f 19 32 6
f 31 32 19
f 3 15 39
f 15 5 40
f 39 40 12
f 15 40 39
f 7 20 36
f 20 3 35
f 36 35 11
f 20 35 36
f 9 27 28
f 27 7 24
f 28 24 8
f 27 24 28
f 10 33 29
f 33 9 25
f 29 25 2
f 33 25 29
f 44 46 43
f 47 44 43
f 43 46 45
f 45 47 43
f 44 50 46
f 48 44 47
f 48 50 44
f 46 50 45
f 49 47 45
f 45 50 49
f 49 48 47
f 50 48 49
f 52 54 51
f 55 52 51
f 51 54 53
f 53 55 51
f 52 58 54
f 56 52 55
f 56 58 52
f 54 58 53
f 57 55 53
f 53 58 57
f 57 56 55
f 58 56 57

