# https://github.com/mikedh/trimesh
v -0.13160853 0.13806943 0.00000000
v 0.29322469 0.13806943 0.00000000
v -0.13160853 -0.36029165 0.00000000
v 0.29322469 -0.36029165 0.00000000
v 0.08080808 -0.26511315 0.20621838
v 0.08080808 0.04289093 0.20621838
v 0.08080808 -0.26511315 -0.20621838
v 0.08080808 0.04289093 -0.20621838
v 0.42450538 -0.11111111 -0.12744997
v 0.42450538 -0.11111111 0.12744997
v -0.26288922 -0.11111111 -0.12744997
v -0.26288922 -0.11111111 0.12744997
v 0.08080808 0.18181818 0.00000000
v 0.08080808 -0.40404040 0.00000000
v -0.04404727 -0.34809589 0.12121212
v 0.20566343 -0.34809589 0.12121212
v -0.04404727 0.12587367 0.12121212
v 0.20566343 0.12587367 0.12121212
v 0.08080808 -0.11111111 0.24242424
v -0.04404727 -0.34809589 -0.12121212
v 0.20566343 -0.34809589 -0.12121212
v -0.04404727 0.12587367 -0.12121212
v 0.20566343 0.12587367 -0.12121212
v 0.08080808 -0.11111111 -0.24242424
v 0.40768363 0.03535354 -0.07491321
v 0.40768363 -0.25757576 -0.07491321
v 0.28282828 -0.20163124 -0.19612533
v 0.28282828 -0.02059098 -0.19612533
v 0.40768363 0.03535354 0.07491321
v 0.40768363 -0.25757576 0.07491321
v 0.28282828 -0.20163124 0.19612533
v 0.28282828 -0.02059098 0.19612533
v 0.48484848 -0.11111111 0.00000000
v -0.24606747 0.03535354 -0.07491321
v -0.24606747 -0.25757576 -0.07491321
v -0.12121212 -0.20163124 -0.19612533
v -0.12121212 -0.02059098 -0.19612533
v -0.24606747 0.03535354 0.07491321
v -0.24606747 -0.25757576 0.07491321
v -0.12121212 -0.20163124 0.19612533
v -0.12121212 -0.02059098 0.19612533
v -0.32323232 -0.11111111 0.00000000
v -0.02960264 0.17066881 0.00000000
v 0.19121880 0.17066881 0.00000000
v -0.02960264 -0.39289103 0.00000000
v 0.19121880 -0.39289103 0.00000000
v -0.09450043 -0.36381198 0.06300410
v 0.01591029 -0.31433974 0.17019308
v 0.01516774 -0.38970342 0.06372498
v 0.25611659 -0.36381198 0.06300410
v 0.14570587 -0.31433974 0.17019308
v 0.14644842 -0.38970342 0.06372498
v 0.08080808 -0.36029165 0.12744997
v -0.09450043 0.14158976 0.06300410
v 0.01591029 0.09211751 0.17019308
v 0.01516774 0.16748120 0.06372498
v 0.25611659 0.14158976 0.06300410
v 0.14570587 0.09211751 0.17019308
v 0.14644842 0.16748120 0.06372498
v 0.08080808 0.13806943 0.12744997
v 0.08080808 -0.19115888 0.23319718
v 0.08080808 -0.03106334 0.23319718
v -0.09450043 -0.36381198 -0.06300410
v 0.01591029 -0.31433974 -0.17019308
v 0.01516774 -0.38970342 -0.06372498
v 0.25611659 -0.36381198 -0.06300410
v 0.14570587 -0.31433974 -0.17019308
v 0.14644842 -0.38970342 -0.06372498
v 0.08080808 -0.36029165 -0.12744997
v -0.09450043 0.14158976 -0.06300410
v 0.01591029 0.09211751 -0.17019308
v 0.01516774 0.16748120 -0.06372498
v 0.25611659 0.14158976 -0.06300410
v 0.14570587 0.09211751 -0.17019308
v 0.14644842 0.16748120 -0.06372498
v 0.08080808 0.13806943 -0.12744997
v 0.08080808 -0.19115888 -0.23319718
v 0.08080808 -0.03106334 -0.23319718
v 0.36112343 0.09453886 -0.03893868
v 0.42936100 -0.03498116 -0.10518511
v 0.31829707 0.09048018 -0.10310919
v 0.36112343 -0.31676108 -0.03893868
v 0.42936100 -0.18724107 -0.10518511
v 0.31829707 -0.31270240 -0.10310919
v 0.18581491 -0.23820978 -0.20913175
v 0.36446321 -0.15816201 -0.16818921
v 0.25265673 -0.28329063 -0.16683417
v 0.18701639 -0.15870036 -0.23055916
v 0.35886503 -0.23570138 -0.14249339
v 0.18581491 0.01598756 -0.20913175
v 0.36446321 -0.06406021 -0.16818921
v 0.25265673 0.06106841 -0.16683417
v 0.18701639 -0.06352186 -0.23055916
v 0.35886503 0.01347916 -0.14249339
v 0.29322469 -0.11111111 -0.20621838
v 0.36112343 0.09453886 0.03893868
v 0.42936100 -0.03498116 0.10518511
v 0.31829707 0.09048018 0.10310919
v 0.42450538 0.04289093 0.00000000
v 0.36112343 -0.31676108 0.03893868
v 0.42936100 -0.18724107 0.10518511
v 0.31829707 -0.31270240 0.10310919
v 0.42450538 -0.26511315 0.00000000
v 0.18581491 -0.23820978 0.20913175
v 0.36446321 -0.15816201 0.16818921
v 0.25265673 -0.28329063 0.16683417
v 0.18701639 -0.15870036 0.23055916
v 0.35886503 -0.23570138 0.14249339
v 0.18581491 0.01598756 0.20913175
v 0.36446321 -0.06406021 0.16818921
v 0.25265673 0.06106841 0.16683417
v 0.18701639 -0.06352186 0.23055916
v 0.35886503 0.01347916 0.14249339
v 0.29322469 -0.11111111 0.20621838
v 0.46947004 -0.11111111 -0.06624643
v 0.46947004 -0.11111111 0.06624643
v 0.46507334 -0.03411009 -0.03938421
v 0.46507334 -0.18811213 -0.03938421
v 0.46507334 -0.03411009 0.03938421
v 0.46507334 -0.18811213 0.03938421
v -0.19950726 0.09453886 -0.03893868
v -0.26774484 -0.03498116 -0.10518511
v -0.15668091 0.09048018 -0.10310919
v -0.19950726 -0.31676108 -0.03893868
v -0.26774484 -0.18724107 -0.10518511
v -0.15668091 -0.31270240 -0.10310919
v -0.02419875 -0.23820978 -0.20913175
v -0.20284705 -0.15816201 -0.16818921
v -0.09104057 -0.28329063 -0.16683417
v -0.02540022 -0.15870036 -0.23055916
v -0.19724887 -0.23570138 -0.14249339
v -0.02419875 0.01598756 -0.20913175
v -0.20284705 -0.06406021 -0.16818921
v -0.09104057 0.06106841 -0.16683417
v -0.02540022 -0.06352186 -0.23055916
v -0.19724887 0.01347916 -0.14249339
v -0.13160853 -0.11111111 -0.20621838
v -0.19950726 0.09453886 0.03893868
v -0.26774484 -0.03498116 0.10518511
v -0.15668091 0.09048018 0.10310919
v -0.26288922 0.04289093 0.00000000
v -0.19950726 -0.31676108 0.03893868
v -0.26774484 -0.18724107 0.10518511
v -0.15668091 -0.31270240 0.10310919
v -0.26288922 -0.26511315 0.00000000
v -0.02419875 -0.23820978 0.20913175
v -0.20284705 -0.15816201 0.16818921
v -0.09104057 -0.28329063 0.16683417
v -0.02540022 -0.15870036 0.23055916
v -0.19724887 -0.23570138 0.14249339
v -0.02419875 0.01598756 0.20913175
v -0.20284705 -0.06406021 0.16818921
v -0.09104057 0.06106841 0.16683417
v -0.02540022 -0.06352186 0.23055916
v -0.19724887 0.01347916 0.14249339
v -0.13160853 -0.11111111 0.20621838
v -0.30785388 -0.11111111 -0.06624643
v -0.30785388 -0.11111111 0.06624643
v -0.30345718 -0.03411009 -0.03938421
v -0.30345718 -0.18811213 -0.03938421
v -0.30345718 -0.03411009 0.03938421
v -0.30345718 -0.18811213 0.03938421
v -0.24747475 -0.11111111 -0.02777778
v -0.50000000 0.08080808 -0.02777778
v -0.50000000 -0.30303030 -0.02777778
v -0.24747475 -0.11111111 0.02777778
v -0.50000000 0.08080808 0.02777778
v -0.50000000 -0.30303030 0.02777778
v 0.20707071 0.10101010 0.00000000
v 0.20707071 0.10101010 -0.01414141
v 0.42424242 0.32323232 -0.01414141
v 0.42424242 0.32323232 0.00000000
v 0.19991920 0.10799907 -0.00999949
v 0.41709092 0.33022130 -0.00999949
v 0.19695695 0.11089400 -0.00000000
v 0.41412867 0.33311622 -0.00000000
v 0.19991920 0.10799907 0.00999949
v 0.41709092 0.33022130 0.00999949
v 0.20707071 0.10101010 0.01414141
v 0.42424242 0.32323232 0.01414141
v 0.21422221 0.09402113 0.00999949
v 0.43139393 0.31624335 0.00999949
v 0.21718447 0.09112620 0.00000000
v 0.43435618 0.31334842 0.00000000
v 0.21422221 0.09402113 -0.00999949
v 0.43139393 0.31624335 -0.00999949
v 0.41523716 0.39574323 0.00000000
v 0.47365173 0.39574323 0.00000000
v 0.41523716 0.30122647 0.00000000
v 0.47365173 0.30122647 0.00000000
v 0.44444444 0.31927756 0.04725838
v 0.44444444 0.37769213 0.04725838
v 0.44444444 0.31927756 -0.04725838
v 0.44444444 0.37769213 -0.04725838
v 0.49170282 0.34848485 -0.02920728
v 0.49170282 0.34848485 0.02920728
v 0.39718607 0.34848485 -0.02920728
v 0.39718607 0.34848485 0.02920728
v 0.44444444 0.40404040 0.00000000
v 0.44444444 0.29292929 0.00000000
v 0.42727683 0.30353946 0.02777778
v 0.46161206 0.30353946 0.02777778
v 0.42727683 0.39343024 0.02777778
v 0.46161206 0.39343024 0.02777778
v 0.44444444 0.34848485 0.05555556
v 0.42727683 0.30353946 -0.02777778
v 0.46161206 0.30353946 -0.02777778
v 0.42727683 0.39343024 -0.02777778
v 0.46161206 0.39343024 -0.02777778
v 0.44444444 0.34848485 -0.05555556
v 0.48938983 0.37626263 -0.01716761
v 0.48938983 0.32070707 -0.01716761
v 0.47222222 0.33131724 -0.04494539
v 0.47222222 0.36565246 -0.04494539
v 0.48938983 0.37626263 0.01716761
v 0.48938983 0.32070707 0.01716761
v 0.47222222 0.33131724 0.04494539
v 0.47222222 0.36565246 0.04494539
v 0.50000000 0.34848485 0.00000000
v 0.39949906 0.37626263 -0.01716761
v 0.39949906 0.32070707 -0.01716761
v 0.41666667 0.33131724 -0.04494539
v 0.41666667 0.36565246 -0.04494539
v 0.39949906 0.37626263 0.01716761
v 0.39949906 0.32070707 0.01716761
v 0.41666667 0.33131724 0.04494539
v 0.41666667 0.36565246 0.04494539
v 0.38888889 0.34848485 0.00000000
f 1 138 54
f 138 38 140
f 54 140 17
f 138 140 54
f 38 139 155
f 139 12 152
f 155 152 41
f 139 152 155
f 17 153 55
f 153 41 151
f 55 151 6
f 153 151 55
f 38 155 140
f 155 41 153
f 140 153 17
f 155 153 140
f 1 54 43
f 54 17 56
f 43 56 13
f 54 56 43
f 17 55 60
f 55 6 58
f 60 58 18
f 55 58 60
f 13 59 44
f 59 18 57
f 44 57 2
f 59 57 44
f 17 60 56
f 60 18 59
f 56 59 13
f 60 59 56
f 1 43 70
f 43 13 72
f 70 72 22
f 43 72 70
f 13 44 75
f 44 2 73
f 75 73 23
f 44 73 75
f 22 76 71
f 76 23 74
f 71 74 8
f 76 74 71
f 13 75 72
f 75 23 76
f 72 76 22
f 75 76 72
f 1 70 121
f 70 22 123
f 121 123 34
f 70 123 121
f 22 71 134
f 71 8 132
f 134 132 37
f 71 132 134
f 34 136 122
f 136 37 133
f 122 133 11
f 136 133 122
f 22 134 123
f 134 37 136
f 123 136 34
f 134 136 123
f 1 121 138
f 121 34 141
f 138 141 38
f 121 141 138
f 34 122 159
f 122 11 157
f 159 157 42
f 122 157 159
f 38 161 139
f 161 42 158
f 139 158 12
f 161 158 139
f 34 159 141
f 159 42 161
f 141 161 38
f 159 161 141
f 2 57 96
f 57 18 98
f 96 98 29
f 57 98 96
f 18 58 111
f 58 6 109
f 111 109 32
f 58 109 111
f 29 113 97
f 113 32 110
f 97 110 10
f 113 110 97
f 18 111 98
f 111 32 113
f 98 113 29
f 111 113 98
f 6 151 62
f 151 41 154
f 62 154 19
f 151 154 62
f 41 152 156
f 152 12 147
f 156 147 40
f 152 147 156
f 19 149 61
f 149 40 146
f 61 146 5
f 149 146 61
f 41 156 154
f 156 40 149
f 154 149 19
f 156 149 154
f 12 158 143
f 158 42 162
f 143 162 39
f 158 162 143
f 42 157 160
f 157 11 125
f 160 125 35
f 157 125 160
f 39 145 142
f 145 35 124
f 142 124 3
f 145 124 142
f 42 160 162
f 160 35 145
f 162 145 39
f 160 145 162
f 11 133 128
f 133 37 137
f 128 137 36
f 133 137 128
f 37 132 135
f 132 8 78
f 135 78 24
f 132 78 135
f 36 130 127
f 130 24 77
f 127 77 7
f 130 77 127
f 37 135 137
f 135 24 130
f 137 130 36
f 135 130 137
f 8 74 90
f 74 23 92
f 90 92 28
f 74 92 90
f 23 73 81
f 73 2 79
f 81 79 25
f 73 79 81
f 28 94 91
f 94 25 80
f 91 80 9
f 94 80 91
f 23 81 92
f 81 25 94
f 92 94 28
f 81 94 92
f 4 100 50
f 100 30 102
f 50 102 16
f 100 102 50
f 30 101 108
f 101 10 105
f 108 105 31
f 101 105 108
f 16 106 51
f 106 31 104
f 51 104 5
f 106 104 51
f 30 108 102
f 108 31 106
f 102 106 16
f 108 106 102
f 4 50 46
f 50 16 52
f 46 52 14
f 50 52 46
f 16 51 53
f 51 5 48
f 53 48 15
f 51 48 53
f 14 49 45
f 49 15 47
f 45 47 3
f 49 47 45
f 16 53 52
f 53 15 49
f 52 49 14
f 53 49 52
f 4 46 66
f 46 14 68
f 66 68 21
f 46 68 66
f 14 45 65
f 45 3 63
f 65 63 20
f 45 63 65
f 21 69 67
f 69 20 64
f 67 64 7
f 69 64 67
f 14 65 68
f 65 20 69
f 68 69 21
f 65 69 68
f 4 66 82
f 66 21 84
f 82 84 26
f 66 84 82
f 21 67 87
f 67 7 85
f 87 85 27
f 67 85 87
f 26 89 83
f 89 27 86
f 83 86 9
f 89 86 83
f 21 87 84
f 87 27 89
f 84 89 26
f 87 89 84
f 4 82 100
f 82 26 103
f 100 103 30
f 82 103 100
f 26 83 118
f 83 9 115
f 118 115 33
f 83 115 118
f 30 120 101
f 120 33 116
f 101 116 10
f 120 116 101
f 26 118 103
f 118 33 120
f 103 120 30
f 118 120 103
f 5 104 61
f 104 31 107
f 61 107 19
f 104 107 61
f 31 105 114
f 105 10 110
f 114 110 32
f 105 110 114
f 19 112 62
f 112 32 109
f 62 109 6
f 112 109 62
f 31 114 107
f 114 32 112
f 107 112 19
f 114 112 107
f 3 47 142
f 47 15 144
f 142 144 39
f 47 144 142
f 15 48 148
f 48 5 146
f 148 146 40
f 48 146 148
f 39 150 143
f 150 40 147
f 143 147 12
f 150 147 143
f 15 148 144
f 148 40 150
f 144 150 39
f 148 150 144
f 7 64 127
f 64 20 129
f 127 129 36
f 64 129 127
f 20 63 126
f 63 3 124
f 126 124 35
f 63 124 126
f 36 131 128
f 131 35 125
f 128 125 11
f 131 125 128
f 20 126 129
f 126 35 131
f 129 131 36
f 126 131 129
f 9 86 91
f 86 27 95
f 91 95 28
f 86 95 91
f 27 85 88
f 85 7 77
f 88 77 24
f 85 77 88
f 28 93 90
f 93 24 78
f 90 78 8
f 93 78 90
f 27 88 95
f 88 24 93
f 95 93 28
f 88 93 95
f 10 116 97
f 116 33 119
f 97 119 29
f 116 119 97
f 33 115 117
f 115 9 80
f 117 80 25
f 115 80 117
f 29 99 96
f 99 25 79
f 96 79 2
f 99 79 96
f 33 117 119
f 117 25 99
f 119 99 29
f 117 99 119
f 163 164 165
f 166 168 167
f 163 166 167
f 163 167 164
f 164 167 168
f 164 168 165
f 165 168 166
f 165 166 163
f 170 169 173
f 170 173 171
f 171 173 174
f 171 174 172
f 173 169 175
f 173 175 174
f 174 175 176
f 174 176 172
f 175 169 177
f 175 177 176
f 176 177 178
f 176 178 172
f 177 169 179
f 177 179 178
f 178 179 180
f 178 180 172
f 179 169 181
f 179 181 180
f 180 181 182
f 180 182 172
f 181 169 183
f 181 183 182
f 182 183 184
f 182 184 172
f 183 169 185
f 183 185 184
f 184 185 186
f 184 186 172
f 185 169 170
f 185 170 186
f 186 170 171
f 186 171 172
f 187 224 203
f 224 198 227
f 203 227 192
f 224 227 203
f 187 203 199
f 203 192 204
f 199 204 188
f 203 204 199
f 187 199 208
f 199 188 209
f 208 209 194
f 199 209 208
f 187 208 220
f 208 194 223
f 220 223 197
f 208 223 220
f 187 220 224
f 220 197 228
f 224 228 198
f 220 228 224
f 188 204 215
f 204 192 218
f 215 218 196
f 204 218 215
f 192 227 205
f 227 198 226
f 205 226 191
f 227 226 205
f 198 228 225
f 228 197 221
f 225 221 189
f 228 221 225
f 197 223 222
f 223 194 210
f 222 210 193
f 223 210 222
f 194 209 214
f 209 188 211
f 214 211 195
f 209 211 214
f 190 216 202
f 216 196 217
f 202 217 191
f 216 217 202
f 190 202 200
f 202 191 201
f 200 201 189
f 202 201 200
f 190 200 207
f 200 189 206
f 207 206 193
f 200 206 207
f 190 207 212
f 207 193 213
f 212 213 195
f 207 213 212
f 190 212 216
f 212 195 219
f 216 219 196
f 212 219 216
f 191 217 205
f 217 196 218
f 205 218 192
f 217 218 205
f 189 201 225
f 201 191 226
f 225 226 198
f 201 226 225
f 193 206 222
f 206 189 221
f 222 221 197
f 206 221 222
f 195 213 214
f 213 193 210
f 214 210 194
f 213 210 214
f 196 219 215
f 219 195 211
f 215 211 188
f 219 211 215

