# https://github.com/mikedh/trimesh
v -0.14048787 0.10608621 0.00000000
v 0.24119045 0.10608621 0.00000000
v -0.14048787 -0.19273726 0.00000000
v 0.24119045 -0.19273726 0.00000000
v 0.05035129 -0.13566706 0.08964704
v 0.05035129 0.04901600 0.08964704
v 0.05035129 -0.13566706 -0.08964704
v 0.05035129 0.04901600 -0.08964704
v 0.35913554 -0.04332553 -0.05540492
v 0.35913554 -0.04332553 0.05540492
v -0.25843296 -0.04332553 -0.05540492
v -0.25843296 -0.04332553 0.05540492
v 0.05035129 0.13231850 0.00000000
v 0.05035129 -0.21896956 0.00000000
v -0.06182116 -0.18542453 0.05269321
v 0.16252373 -0.18542453 0.05269321
v -0.06182116 0.09877348 0.05269321
v 0.16252373 0.09877348 0.05269321
v 0.05035129 -0.04332553 0.10538642
v -0.06182116 -0.18542453 -0.05269321
v 0.16252373 -0.18542453 -0.05269321
v -0.06182116 0.09877348 -0.05269321
v 0.16252373 0.09877348 -0.05269321
v 0.05035129 -0.04332553 -0.10538642
v 0.34402256 0.04449649 -0.03256619
v 0.34402256 -0.13114754 -0.03256619
v 0.23185012 -0.09760252 -0.08525940
v 0.23185012 0.01095146 -0.08525940
v 0.34402256 0.04449649 0.03256619
v 0.34402256 -0.13114754 0.03256619
v 0.23185012 -0.09760252 0.08525940
v 0.23185012 0.01095146 0.08525940
v 0.41334895 -0.04332553 0.00000000
v -0.24331999 0.04449649 -0.03256619
v -0.24331999 -0.13114754 -0.03256619
v -0.13114754 -0.09760252 -0.08525940
v -0.13114754 0.01095146 -0.08525940
v -0.24331999 0.04449649 0.03256619
v -0.24331999 -0.13114754 0.03256619
v -0.13114754 -0.09760252 0.08525940
v -0.13114754 0.01095146 0.08525940
v -0.31264637 -0.04332553 0.00000000
v -0.04884382 0.12563320 0.00000000
v 0.14954640 0.12563320 0.00000000
v -0.04884382 -0.21228425 0.00000000
v 0.14954640 -0.21228425 0.00000000
v -0.10714924 -0.19484809 0.02738908
v -0.00795413 -0.16518392 0.07398616
v -0.00862126 -0.21037292 0.02770246
v 0.20785182 -0.19484809 0.02738908
v 0.10865671 -0.16518392 0.07398616
v 0.10932383 -0.21037292 0.02770246
v 0.05035129 -0.19273726 0.05540492
v -0.10714924 0.10819704 0.02738908
v -0.00795413 0.07853287 0.07398616
v -0.00862126 0.12372187 0.02770246
v 0.20785182 0.10819704 0.02738908
v 0.10865671 0.07853287 0.07398616
v 0.10932383 0.12372187 0.02770246
v 0.05035129 0.10608621 0.05540492
v 0.05035129 -0.09132316 0.10137524
v 0.05035129 0.00467211 0.10137524
v -0.10714924 -0.19484809 -0.02738908
v -0.00795413 -0.16518392 -0.07398616
v -0.00862126 -0.21037292 -0.02770246
v 0.20785182 -0.19484809 -0.02738908
v 0.10865671 -0.16518392 -0.07398616
v 0.10932383 -0.21037292 -0.02770246
v 0.05035129 -0.19273726 -0.05540492
v -0.10714924 0.10819704 -0.02738908
v -0.00795413 0.07853287 -0.07398616
v -0.00862126 0.12372187 -0.02770246
v 0.20785182 0.10819704 -0.02738908
v 0.10865671 0.07853287 -0.07398616
v 0.10932383 0.12372187 -0.02770246
v 0.05035129 0.10608621 -0.05540492
v 0.05035129 -0.09132316 -0.10137524
v 0.05035129 0.00467211 -0.10137524
v 0.30219198 0.07998474 -0.01692738
v 0.36349793 0.00232294 -0.04572596
v 0.26371596 0.07755111 -0.04482352
v 0.30219198 -0.16663579 -0.01692738
v 0.36349793 -0.08897399 -0.04572596
v 0.26371596 -0.16420216 -0.04482352
v 0.14469144 -0.11953546 -0.09091354
v 0.30519250 -0.07153783 -0.07311504
v 0.20474341 -0.14656650 -0.07252598
v 0.14577087 -0.07186063 -0.10022844
v 0.30016299 -0.11803139 -0.06194458
v 0.14469144 0.03288441 -0.09091354
v 0.30519250 -0.01511323 -0.07311504
v 0.20474341 0.05991544 -0.07252598
v 0.14577087 -0.01479042 -0.10022844
v 0.30016299 0.03138034 -0.06194458
v 0.24119045 -0.04332553 -0.08964704
v 0.30219198 0.07998474 0.01692738
v 0.36349793 0.00232294 0.04572596
v 0.26371596 0.07755111 0.04482352
v 0.35913554 0.04901600 0.00000000
v 0.30219198 -0.16663579 0.01692738
v 0.36349793 -0.08897399 0.04572596
v 0.26371596 -0.16420216 0.04482352
v 0.35913554 -0.13566706 0.00000000
v 0.14469144 -0.11953546 0.09091354
v 0.30519250 -0.07153783 0.07311504
v 0.20474341 -0.14656650 0.07252598
v 0.14577087 -0.07186063 0.10022844
v 0.30016299 -0.11803139 0.06194458
v 0.14469144 0.03288441 0.09091354
v 0.30519250 -0.01511323 0.07311504
v 0.20474341 0.05991544 0.07252598
v 0.14577087 -0.01479042 0.10022844
v 0.30016299 0.03138034 0.06194458
v 0.24119045 -0.04332553 0.08964704
v 0.39953266 -0.04332553 -0.02879858
v 0.39953266 -0.04332553 0.02879858
v 0.39558258 0.00284524 -0.01712106
v 0.39558258 -0.08949629 -0.01712106
v 0.39558258 0.00284524 0.01712106
v 0.39558258 -0.08949629 0.01712106
v -0.20148940 0.07998474 -0.01692738
v -0.26279535 0.00232294 -0.04572596
v -0.16301338 0.07755111 -0.04482352
v -0.20148940 -0.16663579 -0.01692738
v -0.26279535 -0.08897399 -0.04572596
v -0.16301338 -0.16420216 -0.04482352
v -0.04398887 -0.11953546 -0.09091354
v -0.20448993 -0.07153783 -0.07311504
v -0.10404084 -0.14656650 -0.07252598
v -0.04506829 -0.07186063 -0.10022844
v -0.19946042 -0.11803139 -0.06194458
v -0.04398887 0.03288441 -0.09091354
v -0.20448993 -0.01511323 -0.07311504
v -0.10404084 0.05991544 -0.07252598
v -0.04506829 -0.01479042 -0.10022844
v -0.19946042 0.03138034 -0.06194458
v -0.14048787 -0.04332553 -0.08964704
v -0.20148940 0.07998474 0.01692738
v -0.26279535 0.00232294 0.04572596
v -0.16301338 0.07755111 0.04482352
v -0.25843296 0.04901600 0.00000000
v -0.20148940 -0.16663579 0.01692738
v -0.26279535 -0.08897399 0.04572596
v -0.16301338 -0.16420216 0.04482352
v -0.25843296 -0.13566706 0.00000000
v -0.04398887 -0.11953546 0.09091354
v -0.20448993 -0.07153783 0.07311504
v -0.10404084 -0.14656650 0.07252598
v -0.04506829 -0.07186063 0.10022844
v -0.19946042 -0.11803139 0.06194458
v -0.04398887 0.03288441 0.09091354
v -0.20448993 -0.01511323 0.07311504
v -0.10404084 0.05991544 0.07252598
v -0.04506829 -0.01479042 0.10022844
v -0.19946042 0.03138034 0.06194458
v -0.14048787 -0.04332553 0.08964704
v -0.29883008 -0.04332553 -0.02879858
v -0.29883008 -0.04332553 0.02879858
v -0.29488000 0.00284524 -0.01712106
v -0.29488000 -0.08949629 -0.01712106
v -0.29488000 0.00284524 0.01712106
v -0.29488000 -0.08949629 0.01712106
v -0.27517564 -0.04332553 -0.01686183
v -0.50000000 0.11826698 -0.01686183
v -0.50000000 -0.20491803 -0.01686183
v -0.27517564 -0.04332553 0.01686183
v -0.50000000 0.11826698 0.01686183
v -0.50000000 -0.20491803 0.01686183
v -0.01990632 0.09016393 -0.01475410
v -0.28688525 0.08313817 -0.01475410
v -0.16042155 0.15339578 -0.01475410
v -0.01990632 0.09016393 0.01475410
v -0.28688525 0.08313817 0.01475410
v -0.16042155 0.15339578 0.01475410
v 0.09718970 -0.05269321 -0.01264637
v -0.15573770 -0.05737705 -0.01264637
v -0.19320843 -0.19789227 -0.01264637
v 0.09718970 -0.05269321 0.01264637
v -0.15573770 -0.05737705 0.01264637
v -0.19320843 -0.19789227 0.01264637
v 0.22844130 0.19238750 0.00000000
v 0.41558680 0.19238750 0.00000000
v 0.22844130 -0.11042028 0.00000000
v 0.41558680 -0.11042028 0.00000000
v 0.32201405 -0.05258914 0.14343527
v 0.32201405 0.13455636 0.14343527
v 0.32201405 -0.05258914 -0.14343527
v 0.32201405 0.13455636 -0.14343527
v 0.47341794 0.04098361 -0.08864787
v 0.47341794 0.04098361 0.08864787
v 0.17061016 0.04098361 -0.08864787
v 0.17061016 0.04098361 0.08864787
v 0.32201405 0.21896956 0.00000000
v 0.32201405 -0.13700234 0.00000000
v 0.26701337 -0.10301005 0.08430913
v 0.37701473 -0.10301005 0.08430913
v 0.26701337 0.18497726 0.08430913
v 0.37701473 0.18497726 0.08430913
v 0.32201405 0.04098361 0.16861827
v 0.26701337 -0.10301005 -0.08430913
v 0.37701473 -0.10301005 -0.08430913
v 0.26701337 0.18497726 -0.08430913
v 0.37701473 0.18497726 -0.08430913
v 0.32201405 0.04098361 -0.16861827
v 0.46600771 0.12997658 -0.05210591
v 0.46600771 -0.04800937 -0.05210591
v 0.41100703 -0.01401708 -0.13641504
v 0.41100703 0.09598429 -0.13641504
v 0.46600771 0.12997658 0.05210591
v 0.46600771 -0.04800937 0.05210591
v 0.41100703 -0.01401708 0.13641504
v 0.41100703 0.09598429 0.13641504
v 0.50000000 0.04098361 0.00000000
v 0.17802039 0.12997658 -0.05210591
v 0.17802039 -0.04800937 -0.05210591
v 0.23302108 -0.01401708 -0.13641504
v 0.23302108 0.09598429 -0.13641504
v 0.17802039 0.12997658 0.05210591
v 0.17802039 -0.04800937 0.05210591
v 0.23302108 -0.01401708 0.13641504
v 0.23302108 0.09598429 0.13641504
v 0.14402810 0.04098361 0.00000000
v 0.27337645 0.21219512 0.00000000
v 0.37065165 0.21219512 0.00000000
v 0.27337645 -0.13022790 0.00000000
v 0.37065165 -0.13022790 0.00000000
v 0.24478798 -0.11255926 0.04382252
v 0.29342559 -0.08249957 0.11837785
v 0.29309848 -0.12829109 0.04432393
v 0.39924012 -0.11255926 0.04382252
v 0.35060252 -0.08249957 0.11837785
v 0.35092962 -0.12829109 0.04432393
v 0.32201405 -0.11042028 0.08864787
v 0.24478798 0.19452647 0.04382252
v 0.29342559 0.16446678 0.11837785
v 0.29309848 0.21025830 0.04432393
v 0.39924012 0.19452647 0.04382252
v 0.35060252 0.16446678 0.11837785
v 0.35092962 0.21025830 0.04432393
v 0.32201405 0.19238750 0.08864787
v 0.32201405 -0.00765400 0.16220038
v 0.32201405 0.08962121 0.16220038
v 0.24478798 -0.11255926 -0.04382252
v 0.29342559 -0.08249957 -0.11837785
v 0.29309848 -0.12829109 -0.04432393
v 0.39924012 -0.11255926 -0.04382252
v 0.35060252 -0.08249957 -0.11837785
v 0.35092962 -0.12829109 -0.04432393
v 0.32201405 -0.11042028 -0.08864787
v 0.24478798 0.19452647 -0.04382252
v 0.29342559 0.16446678 -0.11837785
v 0.29309848 0.21025830 -0.04432393
v 0.39924012 0.19452647 -0.04382252
v 0.35060252 0.16446678 -0.11837785
v 0.35092962 0.21025830 -0.04432393
v 0.32201405 0.19238750 -0.08864787
v 0.32201405 -0.00765400 -0.16220038
v 0.32201405 0.08962121 -0.16220038
v 0.44549723 0.16593801 -0.02708381
v 0.47555692 0.08724072 -0.07316154
v 0.42663157 0.16347193 -0.07171763
v 0.44549723 -0.08397080 -0.02708381
v 0.47555692 -0.00527350 -0.07316154
v 0.42663157 -0.08150471 -0.07171763
v 0.36827116 -0.03624246 -0.14546166
v 0.44696845 0.01239514 -0.11698406
v 0.39771600 -0.06363391 -0.11604157
v 0.36880043 0.01206804 -0.16036550
v 0.44450237 -0.03471834 -0.09911133
v 0.36827116 0.11820967 -0.14546166
v 0.44696845 0.06957207 -0.11698406
v 0.39771600 0.14560112 -0.11604157
v 0.36880043 0.06989918 -0.16036550
v 0.44450237 0.11668555 -0.09911133
v 0.41558680 0.04098361 -0.14343527
v 0.44549723 0.16593801 0.02708381
v 0.47555692 0.08724072 0.07316154
v 0.42663157 0.16347193 0.07171763
v 0.47341794 0.13455636 0.00000000
v 0.44549723 -0.08397080 0.02708381
v 0.47555692 -0.00527350 0.07316154
v 0.42663157 -0.08150471 0.07171763
v 0.47341794 -0.05258914 0.00000000
v 0.36827116 -0.03624246 0.14546166
v 0.44696845 0.01239514 0.11698406
v 0.39771600 -0.06363391 0.11604157
v 0.36880043 0.01206804 0.16036550
v 0.44450237 -0.03471834 0.09911133
v 0.36827116 0.11820967 0.14546166
v 0.44696845 0.06957207 0.11698406
v 0.39771600 0.14560112 0.11604157
v 0.36880043 0.06989918 0.16036550
v 0.44450237 0.11668555 0.09911133
v 0.41558680 0.04098361 0.14343527
v 0.49322556 0.04098361 -0.04607773
v 0.49322556 0.04098361 0.04607773
v 0.49128875 0.08776998 -0.02739370
v 0.49128875 -0.00580277 -0.02739370
v 0.49128875 0.08776998 0.02739370
v 0.49128875 -0.00580277 0.02739370
v 0.19853088 0.16593801 -0.02708381
v 0.16847118 0.08724072 -0.07316154
v 0.21739654 0.16347193 -0.07171763
v 0.19853088 -0.08397080 -0.02708381
v 0.16847118 -0.00527350 -0.07316154
v 0.21739654 -0.08150471 -0.07171763
v 0.27575694 -0.03624246 -0.14546166
v 0.19705965 0.01239514 -0.11698406
v 0.24631211 -0.06363391 -0.11604157
v 0.27522768 0.01206804 -0.16036550
v 0.19952573 -0.03471834 -0.09911133
v 0.27575694 0.11820967 -0.14546166
v 0.19705965 0.06957207 -0.11698406
v 0.24631211 0.14560112 -0.11604157
v 0.27522768 0.06989918 -0.16036550
v 0.19952573 0.11668555 -0.09911133
v 0.22844130 0.04098361 -0.14343527
v 0.19853088 0.16593801 0.02708381
v 0.16847118 0.08724072 0.07316154
v 0.21739654 0.16347193 0.07171763
v 0.17061016 0.13455636 0.00000000
v 0.19853088 -0.08397080 0.02708381
v 0.16847118 -0.00527350 0.07316154
v 0.21739654 -0.08150471 0.07171763
v 0.17061016 -0.05258914 0.00000000
v 0.27575694 -0.03624246 0.14546166
v 0.19705965 0.01239514 0.11698406
v 0.24631211 -0.06363391 0.11604157
v 0.27522768 0.01206804 0.16036550
v 0.19952573 -0.03471834 0.09911133
v 0.27575694 0.11820967 0.14546166
v 0.19705965 0.06957207 0.11698406
v 0.24631211 0.14560112 0.11604157
v 0.27522768 0.06989918 0.16036550
v 0.19952573 0.11668555 0.09911133
v 0.22844130 0.04098361 0.14343527
v 0.15080254 0.04098361 -0.04607773
v 0.15080254 0.04098361 0.04607773
v 0.15273936 0.08776998 -0.02739370
v 0.15273936 -0.00580277 -0.02739370
v 0.15273936 0.08776998 0.02739370
v 0.15273936 -0.00580277 0.02739370
v 0.33510141 0.11969652 0.09367681
v 0.37450046 0.11969652 0.09367681
v 0.33510141 0.05594751 0.09367681
v 0.37450046 0.05594751 0.09367681
v 0.35480094 0.06812249 0.12555132
v 0.35480094 0.10752154 0.12555132
v 0.35480094 0.06812249 0.06180231
v 0.35480094 0.10752154 0.06180231
v 0.38667544 0.08782201 0.07397729
v 0.38667544 0.08782201 0.11337634
v 0.32292643 0.08782201 0.07397729
v 0.32292643 0.08782201 0.11337634
v 0.35480094 0.12529274 0.09367681
v 0.35480094 0.05035129 0.09367681
v 0.34322185 0.05750756 0.11241218
v 0.36638003 0.05750756 0.11241218
v 0.34322185 0.11813647 0.11241218
v 0.36638003 0.11813647 0.11241218
v 0.35480094 0.08782201 0.13114754
v 0.34322185 0.05750756 0.07494145
v 0.36638003 0.05750756 0.07494145
v 0.34322185 0.11813647 0.07494145
v 0.36638003 0.11813647 0.07494145
v 0.35480094 0.08782201 0.05620609
v 0.38511539 0.10655738 0.08209772
v 0.38511539 0.06908665 0.08209772
v 0.37353630 0.07624292 0.06336236
v 0.37353630 0.09940111 0.06336236
v 0.38511539 0.10655738 0.10525591
v 0.38511539 0.06908665 0.10525591
v 0.37353630 0.07624292 0.12399127
v 0.37353630 0.09940111 0.12399127
v 0.39227166 0.08782201 0.09367681
v 0.32448648 0.10655738 0.08209772
v 0.32448648 0.06908665 0.08209772
v 0.33606557 0.07624292 0.06336236
v 0.33606557 0.09940111 0.06336236
v 0.32448648 0.10655738 0.10525591
v 0.32448648 0.06908665 0.10525591
v 0.33606557 0.07624292 0.12399127
v 0.33606557 0.09940111 0.12399127
v 0.31733021 0.08782201 0.09367681
v 0.33510141 0.11969652 -0.09367681
v 0.37450046 0.11969652 -0.09367681
v 0.33510141 0.05594751 -0.09367681
v 0.37450046 0.05594751 -0.09367681
v 0.35480094 0.06812249 -0.06180231
v 0.35480094 0.10752154 -0.06180231
v 0.35480094 0.06812249 -0.12555132
v 0.35480094 0.10752154 -0.12555132
v 0.38667544 0.08782201 -0.11337634
v 0.38667544 0.08782201 -0.07397729
v 0.32292643 0.08782201 -0.11337634
v 0.32292643 0.08782201 -0.07397729
v 0.35480094 0.12529274 -0.09367681
v 0.35480094 0.05035129 -0.09367681
v 0.34322185 0.05750756 -0.07494145
v 0.36638003 0.05750756 -0.07494145
v 0.34322185 0.11813647 -0.07494145
v 0.36638003 0.11813647 -0.07494145
v 0.35480094 0.08782201 -0.05620609
v 0.34322185 0.05750756 -0.11241218
v 0.36638003 0.05750756 -0.11241218
v 0.34322185 0.11813647 -0.11241218
v 0.36638003 0.11813647 -0.11241218
v 0.35480094 0.08782201 -0.13114754
v 0.38511539 0.10655738 -0.10525591
v 0.38511539 0.06908665 -0.10525591
v 0.37353630 0.07624292 -0.12399127
v 0.37353630 0.09940111 -0.12399127
v 0.38511539 0.10655738 -0.08209772
v 0.38511539 0.06908665 -0.08209772
v 0.37353630 0.07624292 -0.06336236
v 0.37353630 0.09940111 -0.06336236
v 0.39227166 0.08782201 -0.09367681
v 0.32448648 0.10655738 -0.10525591
v 0.32448648 0.06908665 -0.10525591
v 0.33606557 0.07624292 -0.12399127
v 0.33606557 0.09940111 -0.12399127
v 0.32448648 0.10655738 -0.08209772
v 0.32448648 0.06908665 -0.08209772
v 0.33606557 0.07624292 -0.06336236
v 0.33606557 0.09940111 -0.06336236
v 0.31733021 0.08782201 -0.09367681
f 1 138 54
f 138 38 140
f 54 140 17
f 138 140 54
f 38 139 155
f 139 12 152
f 155 152 41
f 139 152 155
f 17 153 55
f 153 41 151
f 55 151 6
f 153 151 55
f 38 155 140
f 155 41 153
f 140 153 17
f 155 153 140
f 1 54 43
f 54 17 56
f 43 56 13
f 54 56 43
f 17 55 60
f 55 6 58
f 60 58 18
f 55 58 60
f 13 59 44
f 59 18 57
f 44 57 2
f 59 57 44
f 17 60 56
f 60 18 59
f 56 59 13
f 60 59 56
f 1 43 70
f 43 13 72
f 70 72 22
f 43 72 70
f 13 44 75
f 44 2 73
f 75 73 23
f 44 73 75
f 22 76 71
f 76 23 74
f 71 74 8
f 76 74 71
f 13 75 72
f 75 23 76
f 72 76 22
f 75 76 72
f 1 70 121
f 70 22 123
f 121 123 34
f 70 123 121
f 22 71 134
f 71 8 132
f 134 132 37
f 71 132 134
f 34 136 122
f 136 37 133
f 122 133 11
f 136 133 122
f 22 134 123
f 134 37 136
f 123 136 34
f 134 136 123
f 1 121 138
f 121 34 141
f 138 141 38
f 121 141 138
f 34 122 159
f 122 11 157
f 159 157 42
f 122 157 159
f 38 161 139
f 161 42 158
f 139 158 12
f 161 158 139
f 34 159 141
f 159 42 161
f 141 161 38
f 159 161 141
f 2 57 96
f 57 18 98
f 96 98 29
f 57 98 96
f 18 58 111
f 58 6 109
f 111 109 32
f 58 109 111
f 29 113 97
f 113 32 110
f 97 110 10
f 113 110 97
f 18 111 98
f 111 32 113
f 98 113 29
f 111 113 98
f 6 151 62
f 151 41 154
f 62 154 19
f 151 154 62
f 41 152 156
f 152 12 147
f 156 147 40
f 152 147 156
f 19 149 61
f 149 40 146
f 61 146 5
f 149 146 61
f 41 156 154
f 156 40 149
f 154 149 19
f 156 149 154
f 12 158 143
f 158 42 162
f 143 162 39
f 158 162 143
f 42 157 160
f 157 11 125
f 160 125 35
f 157 125 160
f 39 145 142
f 145 35 124
f 142 124 3
f 145 124 142
f 42 160 162
f 160 35 145
f 162 145 39
f 160 145 162
f 11 133 128
f 133 37 137
f 128 137 36
f 133 137 128
f 37 132 135
f 132 8 78
f 135 78 24
f 132 78 135
f 36 130 127
f 130 24 77
f 127 77 7
f 130 77 127
f 37 135 137
f 135 24 130
f 137 130 36
f 135 130 137
f 8 74 90
f 74 23 92
f 90 92 28
f 74 92 90
f 23 73 81
f 73 2 79
f 81 79 25
f 73 79 81
f 28 94 91
f 94 25 80
f 91 80 9
f 94 80 91
f 23 81 92
f 81 25 94
f 92 94 28
f 81 94 92
f 4 100 50
f 100 30 102
f 50 102 16
f 100 102 50
f 30 101 108
f 101 10 105
f 108 105 31
f 101 105 108
f 16 106 51
f 106 31 104
f 51 104 5
f 106 104 51
f 30 108 102
f 108 31 106
f 102 106 16
f 108 106 102
f 4 50 46
f 50 16 52
f 46 52 14
f 50 52 46
f 16 51 53
f 51 5 48
f 53 48 15
f 51 48 53
f 14 49 45
f 49 15 47
f 45 47 3
f 49 47 45
f 16 53 52
f 53 15 49
f 52 49 14
f 53 49 52
f 4 46 66
f 46 14 68
f 66 68 21
f 46 68 66
f 14 45 65
f 45 3 63
f 65 63 20
f 45 63 65
f 21 69 67
f 69 20 64
f 67 64 7
f 69 64 67
f 14 65 68
f 65 20 69
f 68 69 21
f 65 69 68
f 4 66 82
f 66 21 84
f 82 84 26
f 66 84 82
f 21 67 87
f 67 7 85
f 87 85 27
f 67 85 87
f 26 89 83
f 89 27 86
f 83 86 9
f 89 86 83
f 21 87 84
f 87 27 89
f 84 89 26
f 87 89 84
f 4 82 100
f 82 26 103
f 100 103 30
f 82 103 100
f 26 83 118
f 83 9 115
f 118 115 33
f 83 115 118
f 30 120 101
f 120 33 116
f 101 116 10
f 120 116 101
f 26 118 103
f 118 33 120
f 103 120 30
f 118 120 103
f 5 104 61
f 104 31 107
f 61 107 19
f 104 107 61
f 31 105 114
f 105 10 110
f 114 110 32
f 105 110 114
f 19 112 62
f 112 32 109
f 62 109 6
f 112 109 62
f 31 114 107
f 114 32 112
f 107 112 19
f 114 112 107
f 3 47 142
f 47 15 144
f 142 144 39
f 47 144 142
f 15 48 148
f 48 5 146
f 148 146 40
f 48 146 148
f 39 150 143
f 150 40 147
f 143 147 12
f 150 147 143
f 15 148 144
f 148 40 150
f 144 150 39
f 148 150 144
f 7 64 127
f 64 20 129
f 127 129 36
f 64 129 127
f 20 63 126
f 63 3 124
f 126 124 35
f 63 124 126
f 36 131 128
f 131 35 125
f 128 125 11
f 131 125 128
f 20 126 129
f 126 35 131
f 129 131 36
f 126 131 129
f 9 86 91
f 86 27 95
f 91 95 28
f 86 95 91
f 27 85 88
f 85 7 77
f 88 77 24
f 85 77 88
f 28 93 90
f 93 24 78
f 90 78 8
f 93 78 90
f 27 88 95
f 88 24 93
f 95 93 28
f 88 93 95
f 10 116 97
f 116 33 119
f 97 119 29
f 116 119 97
f 33 115 117
f 115 9 80
f 117 80 25
f 115 80 117
f 29 99 96
f 99 25 79
f 96 79 2
f 99 79 96
f 33 117 119
f 117 25 99
f 119 99 29
f 117 99 119
f 163 164 165
f 166 168 167
f 163 166 167
f 163 167 164
f 164 167 168
f 164 168 165
f 165 168 166
f 165 166 163
f 169 170 171
f 172 174 173
f 169 172 173
f 169 173 170
f 170 173 174
f 170 174 171
f 171 174 172
f 171 172 169
f 175 176 177
f 178 180 179
f 175 178 179
f 175 179 176
f 176 179 180
f 176 180 177
f 177 180 178
f 177 178 175
f 181 318 234
f 318 218 320
f 234 320 197
f 318 320 234
f 218 319 335
f 319 192 332
f 335 332 221
f 319 332 335
f 197 333 235
f 333 221 331
f 235 331 186
f 333 331 235
f 218 335 320
f 335 221 333
f 320 333 197
f 335 333 320
f 181 234 223
f 234 197 236
f 223 236 193
f 234 236 223
f 197 235 240
f 235 186 238
f 240 238 198
f 235 238 240
f 193 239 224
f 239 198 237
f 224 237 182
f 239 237 224
f 197 240 236
f 240 198 239
f 236 239 193
f 240 239 236
f 181 223 250
f 223 193 252
f 250 252 202
f 223 252 250
f 193 224 255
f 224 182 253
f 255 253 203
f 224 253 255
f 202 256 251
f 256 203 254
f 251 254 188
f 256 254 251
f 193 255 252
f 255 203 256
f 252 256 202
f 255 256 252
f 181 250 301
f 250 202 303
f 301 303 214
f 250 303 301
f 202 251 314
f 251 188 312
f 314 312 217
f 251 312 314
f 214 316 302
f 316 217 313
f 302 313 191
f 316 313 302
f 202 314 303
f 314 217 316
f 303 316 214
f 314 316 303
f 181 301 318
f 301 214 321
f 318 321 218
f 301 321 318
f 214 302 339
f 302 191 337
f 339 337 222
f 302 337 339
f 218 341 319
f 341 222 338
f 319 338 192
f 341 338 319
f 214 339 321
f 339 222 341
f 321 341 218
f 339 341 321
f 182 237 276
f 237 198 278
f 276 278 209
f 237 278 276
f 198 238 291
f 238 186 289
f 291 289 212
f 238 289 291
f 209 293 277
f 293 212 290
f 277 290 190
f 293 290 277
f 198 291 278
f 291 212 293
f 278 293 209
f 291 293 278
f 186 331 242
f 331 221 334
f 242 334 199
f 331 334 242
f 221 332 336
f 332 192 327
f 336 327 220
f 332 327 336
f 199 329 241
f 329 220 326
f 241 326 185
f 329 326 241
f 221 336 334
f 336 220 329
f 334 329 199
f 336 329 334
f 192 338 323
f 338 222 342
f 323 342 219
f 338 342 323
f 222 337 340
f 337 191 305
f 340 305 215
f 337 305 340
f 219 325 322
f 325 215 304
f 322 304 183
f 325 304 322
f 222 340 342
f 340 215 325
f 342 325 219
f 340 325 342
f 191 313 308
f 313 217 317
f 308 317 216
f 313 317 308
f 217 312 315
f 312 188 258
f 315 258 204
f 312 258 315
f 216 310 307
f 310 204 257
f 307 257 187
f 310 257 307
f 217 315 317
f 315 204 310
f 317 310 216
f 315 310 317
f 188 254 270
f 254 203 272
f 270 272 208
f 254 272 270
f 203 253 261
f 253 182 259
f 261 259 205
f 253 259 261
f 208 274 271
f 274 205 260
f 271 260 189
f 274 260 271
f 203 261 272
f 261 205 274
f 272 274 208
f 261 274 272
f 184 280 230
f 280 210 282
f 230 282 196
f 280 282 230
f 210 281 288
f 281 190 285
f 288 285 211
f 281 285 288
f 196 286 231
f 286 211 284
f 231 284 185
f 286 284 231
f 210 288 282
f 288 211 286
f 282 286 196
f 288 286 282
f 184 230 226
f 230 196 232
f 226 232 194
f 230 232 226
f 196 231 233
f 231 185 228
f 233 228 195
f 231 228 233
f 194 229 225
f 229 195 227
f 225 227 183
f 229 227 225
f 196 233 232
f 233 195 229
f 232 229 194
f 233 229 232
f 184 226 246
f 226 194 248
f 246 248 201
f 226 248 246
f 194 225 245
f 225 183 243
f 245 243 200
f 225 243 245
f 201 249 247
f 249 200 244
f 247 244 187
f 249 244 247
f 194 245 248
f 245 200 249
f 248 249 201
f 245 249 248
f 184 246 262
f 246 201 264
f 262 264 206
f 246 264 262
f 201 247 267
f 247 187 265
f 267 265 207
f 247 265 267
f 206 269 263
f 269 207 266
f 263 266 189
f 269 266 263
f 201 267 264
f 267 207 269
f 264 269 206
f 267 269 264
f 184 262 280
f 262 206 283
f 280 283 210
f 262 283 280
f 206 263 298
f 263 189 295
f 298 295 213
f 263 295 298
f 210 300 281
f 300 213 296
f 281 296 190
f 300 296 281
f 206 298 283
f 298 213 300
f 283 300 210
f 298 300 283
f 185 284 241
f 284 211 287
f 241 287 199
f 284 287 241
f 211 285 294
f 285 190 290
f 294 290 212
f 285 290 294
f 199 292 242
f 292 212 289
f 242 289 186
f 292 289 242
f 211 294 287
f 294 212 292
f 287 292 199
f 294 292 287
f 183 227 322
f 227 195 324
f 322 324 219
f 227 324 322
f 195 228 328
f 228 185 326
f 328 326 220
f 228 326 328
f 219 330 323
f 330 220 327
f 323 327 192
f 330 327 323
f 195 328 324
f 328 220 330
f 324 330 219
f 328 330 324
f 187 244 307
f 244 200 309
f 307 309 216
f 244 309 307
f 200 243 306
f 243 183 304
f 306 304 215
f 243 304 306
f 216 311 308
f 311 215 305
f 308 305 191
f 311 305 308
f 200 306 309
f 306 215 311
f 309 311 216
f 306 311 309
f 189 266 271
f 266 207 275
f 271 275 208
f 266 275 271
f 207 265 268
f 265 187 257
f 268 257 204
f 265 257 268
f 208 273 270
f 273 204 258
f 270 258 188
f 273 258 270
f 207 268 275
f 268 204 273
f 275 273 208
f 268 273 275
f 190 296 277
f 296 213 299
f 277 299 209
f 296 299 277
f 213 295 297
f 295 189 260
f 297 260 205
f 295 260 297
f 209 279 276
f 279 205 259
f 276 259 182
f 279 259 276
f 213 297 299
f 297 205 279
f 299 279 209
f 297 279 299
f 343 380 359
f 380 354 383
f 359 383 348
f 380 383 359
f 343 359 355
f 359 348 360
f 355 360 344
f 359 360 355
f 343 355 364
f 355 344 365
f 364 365 350
f 355 365 364
f 343 364 376
f 364 350 379
f 376 379 353
f 364 379 376
f 343 376 380
f 376 353 384
f 380 384 354
f 376 384 380
f 344 360 371
f 360 348 374
f 371 374 352
f 360 374 371
f 348 383 361
f 383 354 382
f 361 382 347
f 383 382 361
f 354 384 381
f 384 353 377
f 381 377 345
f 384 377 381
f 353 379 378
f 379 350 366
f 378 366 349
f 379 366 378
f 350 365 370
f 365 344 367
f 370 367 351
f 365 367 370
f 346 372 358
f 372 352 373
f 358 373 347
f 372 373 358
f 346 358 356
f 358 347 357
f 356 357 345
f 358 357 356
f 346 356 363
f 356 345 362
f 363 362 349
f 356 362 363
f 346 363 368
f 363 349 369
f 368 369 351
f 363 369 368
f 346 368 372
f 368 351 375
f 372 375 352
f 368 375 372
f 347 373 361
f 373 352 374
f 361 374 348
f 373 374 361
f 345 357 381
f 357 347 382
f 381 382 354
f 357 382 381
f 349 362 378
f 362 345 377
f 378 377 353
f 362 377 378
f 351 369 370
f 369 349 366
f 370 366 350
f 369 366 370
f 352 375 371
f 375 351 367
f 371 367 344
f 375 367 371
f 385 422 401
f 422 396 425
f 401 425 390
f 422 425 401
f 385 401 397
f 401 390 402
f 397 402 386
f 401 402 397
f 385 397 406
f 397 386 407
f 406 407 392
f 397 407 406
f 385 406 418
f 406 392 421
f 418 421 395
f 406 421 418
f 385 418 422
f 418 395 426
f 422 426 396
f 418 426 422
f 386 402 413
f 402 390 416
f 413 416 394
f 402 416 413
f 390 425 403
f 425 396 424
f 403 424 389
f 425 424 403
f 396 426 423
f 426 395 419
f 423 419 387
f 426 419 423
f 395 421 420
f 421 392 408
f 420 408 391
f 421 408 420
f 392 407 412
f 407 386 409
f 412 409 393
f 407 409 412
f 388 414 400
f 414 394 415
f 400 415 389
f 414 415 400
f 388 400 398
f 400 389 399
f 398 399 387
f 400 399 398
f 388 398 405
f 398 387 404
f 405 404 391
f 398 404 405
f 388 405 410
f 405 391 411
f 410 411 393
f 405 411 410
f 388 410 414
f 410 393 417
f 414 417 394
f 410 417 414
f 389 415 403
f 415 394 416
f 403 416 390
f 415 416 403
f 387 399 423
f 399 389 424
f 423 424 396
f 399 424 423
f 391 404 420
f 404 387 419
f 420 419 395
f 404 419 420
f 393 411 412
f 411 391 408
f 412 408 392
f 411 408 412
f 394 417 413
f 417 393 409
f 413 409 386
f 417 409 413

