# https://github.com/mikedh/trimesh
v -0.25379287 0.40180564 0.00000000
v 0.00213722 0.40180564 0.00000000
v -0.25379287 -0.31346418 0.00000000
v 0.00213722 -0.31346418 0.00000000
v -0.12582783 -0.17685980 0.16187685
v -0.12582783 0.26520126 0.16187685
v -0.12582783 -0.17685980 -0.16187685
v -0.12582783 0.26520126 -0.16187685
v 0.08122396 0.04417073 -0.10004540
v 0.08122396 0.04417073 0.10004540
v -0.33287962 0.04417073 -0.10004540
v -0.33287962 0.04417073 0.10004540
v -0.12582783 0.46459578 0.00000000
v -0.12582783 -0.37625432 0.00000000
v -0.20104379 -0.29596028 0.09514883
v -0.05061186 -0.29596028 0.09514883
v -0.20104379 0.38430174 0.09514883
v -0.05061186 0.38430174 0.09514883
v -0.12582783 0.04417073 0.19029766
v -0.20104379 -0.29596028 -0.09514883
v -0.05061186 -0.29596028 -0.09514883
v -0.20104379 0.38430174 -0.09514883
v -0.05061186 0.38430174 -0.09514883
v -0.12582783 0.04417073 -0.19029766
v 0.07109013 0.25438326 -0.05880521
v 0.07109013 -0.16604180 -0.05880521
v -0.00412584 -0.08574776 -0.15395404
v -0.00412584 0.17408922 -0.15395404
v 0.07109013 0.25438326 0.05880521
v 0.07109013 -0.16604180 0.05880521
v -0.00412584 -0.08574776 0.15395404
v -0.00412584 0.17408922 0.15395404
v 0.11757615 0.04417073 0.00000000
v -0.32274578 0.25438326 -0.05880521
v -0.32274578 -0.16604180 -0.05880521
v -0.24752982 -0.08574776 -0.15395404
v -0.24752982 0.17408922 -0.15395404
v -0.32274578 0.25438326 0.05880521
v -0.32274578 -0.16604180 0.05880521
v -0.24752982 -0.08574776 0.15395404
v -0.24752982 0.17408922 0.15395404
v -0.36923181 0.04417073 0.00000000
v -0.19234199 0.44859372 0.00000000
v -0.05931367 0.44859372 0.00000000
v -0.19234199 -0.36025225 0.00000000
v -0.05931367 -0.36025225 0.00000000
v -0.23143803 -0.31851671 0.04945682
v -0.16492387 -0.24751196 0.13359779
v -0.16537120 -0.35567726 0.05002270
v -0.02021763 -0.31851671 0.04945682
v -0.08673179 -0.24751196 0.13359779
v -0.08628446 -0.35567726 0.05002270
v -0.12582783 -0.31346418 0.10004540
v -0.23143803 0.40685817 0.04945682
v -0.16492387 0.33585343 0.13359779
v -0.16537120 0.44401872 0.05002270
v -0.02021763 0.40685817 0.04945682
v -0.08673179 0.33585343 0.13359779
v -0.08628446 0.44401872 0.05002270
v -0.12582783 0.40180564 0.10004540
v -0.12582783 -0.07071736 0.18305461
v -0.12582783 0.15905883 0.18305461
v -0.23143803 -0.31851671 -0.04945682
v -0.16492387 -0.24751196 -0.13359779
v -0.16537120 -0.35567726 -0.05002270
v -0.02021763 -0.31851671 -0.04945682
v -0.08673179 -0.24751196 -0.13359779
v -0.08628446 -0.35567726 -0.05002270
v -0.12582783 -0.31346418 -0.10004540
v -0.23143803 0.40685817 -0.04945682
v -0.16492387 0.33585343 -0.13359779
v -0.16537120 0.44401872 -0.05002270
v -0.02021763 0.40685817 -0.04945682
v -0.08673179 0.33585343 -0.13359779
v -0.08628446 0.44401872 -0.05002270
v -0.12582783 0.40180564 -0.10004540
v -0.12582783 -0.07071736 -0.18305461
v -0.12582783 0.15905883 -0.18305461
v 0.04304110 0.33932865 -0.03056600
v 0.08414911 0.15343580 -0.08256798
v 0.01724144 0.33350345 -0.08093843
v 0.04304110 -0.25098718 -0.03056600
v 0.08414911 -0.06509434 -0.08256798
v 0.01724144 -0.24516199 -0.08093843
v -0.06256910 -0.13824689 -0.16416379
v 0.04505307 -0.02335880 -0.13202480
v -0.02230193 -0.20294892 -0.13096113
v -0.06184531 -0.02413146 -0.18098383
v 0.04168059 -0.13464672 -0.11185416
v -0.06256910 0.22658835 -0.16416379
v 0.04505307 0.11170026 -0.13202480
v -0.02230193 0.29129038 -0.13096113
v -0.06184531 0.11247292 -0.18098383
v 0.04168059 0.22298819 -0.11185416
v 0.00213722 0.04417073 -0.16187685
v 0.04304110 0.33932865 0.03056600
v 0.08414911 0.15343580 0.08256798
v 0.01724144 0.33350345 0.08093843
v 0.08122396 0.26520126 0.00000000
v 0.04304110 -0.25098718 0.03056600
v 0.08414911 -0.06509434 0.08256798
v 0.01724144 -0.24516199 0.08093843
v 0.08122396 -0.17685980 0.00000000
v -0.06256910 -0.13824689 0.16416379
v 0.04505307 -0.02335880 0.13202480
v -0.02230193 -0.20294892 0.13096113
v -0.06184531 -0.02413146 0.18098383
v 0.04168059 -0.13464672 0.11185416
v -0.06256910 0.22658835 0.16416379
v 0.04505307 0.11170026 0.13202480
v -0.02230193 0.29129038 0.13096113
v -0.06184531 0.11247292 0.18098383
v 0.04168059 0.22298819 0.11185416
v 0.00213722 0.04417073 0.16187685
v 0.10831179 0.04417073 -0.05200198
v 0.10831179 0.04417073 0.05200198
v 0.10566311 0.15468600 -0.03091573
v 0.10566311 -0.06634453 -0.03091573
v 0.10566311 0.15468600 0.03091573
v 0.10566311 -0.06634453 0.03091573
v -0.29469676 0.33932865 -0.03056600
v -0.33580477 0.15343580 -0.08256798
v -0.26889710 0.33350345 -0.08093843
v -0.29469676 -0.25098718 -0.03056600
v -0.33580477 -0.06509434 -0.08256798
v -0.26889710 -0.24516199 -0.08093843
v -0.18908655 -0.13824689 -0.16416379
v -0.29670873 -0.02335880 -0.13202480
v -0.22935372 -0.20294892 -0.13096113
v -0.18981035 -0.02413146 -0.18098383
v -0.29333625 -0.13464672 -0.11185416
v -0.18908655 0.22658835 -0.16416379
v -0.29670873 0.11170026 -0.13202480
v -0.22935372 0.29129038 -0.13096113
v -0.18981035 0.11247292 -0.18098383
v -0.29333625 0.22298819 -0.11185416
v -0.25379287 0.04417073 -0.16187685
v -0.29469676 0.33932865 0.03056600
v -0.33580477 0.15343580 0.08256798
v -0.26889710 0.33350345 0.08093843
v -0.33287962 0.26520126 0.00000000
v -0.29469676 -0.25098718 0.03056600
v -0.33580477 -0.06509434 0.08256798
v -0.26889710 -0.24516199 0.08093843
v -0.33287962 -0.17685980 0.00000000
v -0.18908655 -0.13824689 0.16416379
v -0.29670873 -0.02335880 0.13202480
v -0.22935372 -0.20294892 0.13096113
v -0.18981035 -0.02413146 0.18098383
v -0.29333625 -0.13464672 0.11185416
v -0.18908655 0.22658835 0.16416379
v -0.29670873 0.11170026 0.13202480
v -0.22935372 0.29129038 0.13096113
v -0.18981035 0.11247292 0.18098383
v -0.29333625 0.22298819 0.11185416
v -0.25379287 0.04417073 0.16187685
v -0.35996745 0.04417073 -0.05200198
v -0.35996745 0.04417073 0.05200198
v -0.35731877 0.15468600 -0.03091573
v -0.35731877 -0.06634453 -0.03091573
v -0.35731877 0.15468600 0.03091573
v -0.35731877 -0.06634453 0.03091573
v -0.17008310 0.26544708 -0.02655316
v -0.39135944 0.50000000 -0.02655316
v -0.45774235 0.22119181 -0.02655316
v -0.17008310 0.26544708 0.02655316
v -0.39135944 0.50000000 0.02655316
v -0.45774235 0.22119181 0.02655316
v -0.17008310 -0.06646744 -0.02655316
v -0.39135944 -0.44263723 -0.02655316
v -0.45774235 -0.10187166 -0.02655316
v -0.17008310 -0.06646744 0.02655316
v -0.39135944 -0.44263723 0.02655316
v -0.45774235 -0.10187166 0.02655316
v 0.02906561 -0.22136088 -0.09293606
v 0.02724736 -0.22071437 -0.10830473
v 0.27065134 -0.41986308 -0.14547915
v 0.27246959 -0.42050959 -0.13011049
v 0.03466758 -0.21240014 -0.10426050
v 0.27807156 -0.41154885 -0.14143493
v 0.03880624 -0.20933499 -0.09358258
v 0.28221022 -0.40848370 -0.13075700
v 0.03723897 -0.21331445 -0.08252593
v 0.28064295 -0.41246316 -0.11970036
v 0.03088386 -0.22200739 -0.07756740
v 0.27428784 -0.42115610 -0.11474183
v 0.02346365 -0.23032162 -0.08161163
v 0.26686763 -0.42947033 -0.11878605
v 0.01932499 -0.23338677 -0.09228955
v 0.26272897 -0.43253548 -0.12946398
v 0.02089225 -0.22940732 -0.10334620
v 0.26429623 -0.42855603 -0.14052062
v 0.02906561 -0.22136088 -0.06638290
v 0.02776246 -0.22089663 -0.08181035
v 0.27116644 -0.42004534 -0.10836351
v 0.27246959 -0.42050959 -0.09293606
v 0.03505517 -0.21254203 -0.07762003
v 0.27845914 -0.41169074 -0.10417319
v 0.03883928 -0.20935339 -0.06684715
v 0.28224325 -0.40850210 -0.09340031
v 0.03689811 -0.21319858 -0.05580233
v 0.28030208 -0.41234729 -0.08235549
v 0.03036877 -0.22182513 -0.05095546
v 0.27377275 -0.42097384 -0.07750862
v 0.02307606 -0.23017973 -0.05514578
v 0.26648004 -0.42932844 -0.08169894
v 0.01929195 -0.23336837 -0.06591866
v 0.26269593 -0.43251708 -0.09247182
v 0.02123312 -0.22952319 -0.07696348
v 0.26463710 -0.42867189 -0.10351664
v 0.02906561 -0.22136088 -0.03982974
v 0.02828194 -0.22108134 -0.05529672
v 0.27168592 -0.42023005 -0.07122862
v 0.27246959 -0.42050959 -0.05576164
v 0.03543820 -0.21268140 -0.05096421
v 0.27884218 -0.41183011 -0.06689611
v 0.03886149 -0.20936578 -0.04010928
v 0.28226547 -0.40851449 -0.05604118
v 0.03654648 -0.21307673 -0.02909060
v 0.27995046 -0.41222544 -0.04502250
v 0.02984928 -0.22164042 -0.02436276
v 0.27325326 -0.42078913 -0.04029466
v 0.02269302 -0.23004036 -0.02869527
v 0.26609700 -0.42918907 -0.04462717
v 0.01926974 -0.23335598 -0.03955020
v 0.26267371 -0.43250469 -0.05548210
v 0.02158474 -0.22964503 -0.05056888
v 0.26498872 -0.42879374 -0.06650078
v 0.02906561 -0.22136088 -0.01327658
v 0.02880409 -0.22126754 -0.02876344
v 0.27220807 -0.42041625 -0.03407407
v 0.27246959 -0.42050959 -0.01858721
v 0.03581531 -0.21281746 -0.02429345
v 0.27921929 -0.41196617 -0.02960408
v 0.03887265 -0.20937201 -0.01336993
v 0.28227663 -0.40852072 -0.01868056
v 0.03618516 -0.21294948 -0.00239173
v 0.27958914 -0.41209818 -0.00770236
v 0.02932713 -0.22145423 0.00221027
v 0.27273111 -0.42060294 -0.00310036
v 0.02231591 -0.22990430 -0.00225972
v 0.26571989 -0.42905301 -0.00757035
v 0.01925857 -0.23334975 -0.01318323
v 0.26266255 -0.43249846 -0.01849387
v 0.02194606 -0.22977229 -0.02416144
v 0.26535004 -0.42892100 -0.02947207
v 0.02906561 -0.22136088 0.01327658
v 0.02932713 -0.22145423 -0.00221027
v 0.27273111 -0.42060294 0.00310036
v 0.27246959 -0.42050959 0.01858721
v 0.03618516 -0.21294948 0.00239173
v 0.27958914 -0.41209818 0.00770236
v 0.03887265 -0.20937201 0.01336993
v 0.28227663 -0.40852072 0.01868056
v 0.03581531 -0.21281746 0.02429345
v 0.27921929 -0.41196617 0.02960408
v 0.02880409 -0.22126754 0.02876344
v 0.27220807 -0.42041625 0.03407407
v 0.02194606 -0.22977229 0.02416144
v 0.26535004 -0.42892100 0.02947207
v 0.01925857 -0.23334975 0.01318323
v 0.26266255 -0.43249846 0.01849387
v 0.02231591 -0.22990430 0.00225972
v 0.26571989 -0.42905301 0.00757035
v 0.02906561 -0.22136088 0.03982974
v 0.02984928 -0.22164042 0.02436276
v 0.27325326 -0.42078913 0.04029466
v 0.27246959 -0.42050959 0.05576164
v 0.03654648 -0.21307673 0.02909060
v 0.27995046 -0.41222544 0.04502250
v 0.03886149 -0.20936578 0.04010928
v 0.28226547 -0.40851449 0.05604118
v 0.03543820 -0.21268140 0.05096421
v 0.27884218 -0.41183011 0.06689611
v 0.02828194 -0.22108134 0.05529672
v 0.27168592 -0.42023005 0.07122862
v 0.02158474 -0.22964503 0.05056888
v 0.26498872 -0.42879374 0.06650078
v 0.01926974 -0.23335598 0.03955020
v 0.26267371 -0.43250469 0.05548210
v 0.02269302 -0.23004036 0.02869527
v 0.26609700 -0.42918907 0.04462717
v 0.02906561 -0.22136088 0.06638290
v 0.03036877 -0.22182513 0.05095546
v 0.27377275 -0.42097384 0.07750862
v 0.27246959 -0.42050959 0.09293606
v 0.03689811 -0.21319858 0.05580233
v 0.28030208 -0.41234729 0.08235549
v 0.03883928 -0.20935339 0.06684715
v 0.28224325 -0.40850210 0.09340031
v 0.03505517 -0.21254203 0.07762003
v 0.27845914 -0.41169074 0.10417319
v 0.02776246 -0.22089663 0.08181035
v 0.27116644 -0.42004534 0.10836351
v 0.02123312 -0.22952319 0.07696348
v 0.26463710 -0.42867189 0.10351664
v 0.01929195 -0.23336837 0.06591866
v 0.26269593 -0.43251708 0.09247182
v 0.02307606 -0.23017973 0.05514578
v 0.26648004 -0.42932844 0.08169894
v 0.02906561 -0.22136088 0.09293606
v 0.03088386 -0.22200739 0.07756740
v 0.27428784 -0.42115610 0.11474183
v 0.27246959 -0.42050959 0.13011049
v 0.03723897 -0.21331445 0.08252593
v 0.28064295 -0.41246316 0.11970036
v 0.03880624 -0.20933499 0.09358258
v 0.28221022 -0.40848370 0.13075700
v 0.03466758 -0.21240014 0.10426050
v 0.27807156 -0.41154885 0.14143493
v 0.02724736 -0.22071437 0.10830473
v 0.27065134 -0.41986308 0.14547915
v 0.02089225 -0.22940732 0.10334620
v 0.26429623 -0.42855603 0.14052062
v 0.01932499 -0.23338677 0.09228955
v 0.26272897 -0.43253548 0.12946398
v 0.02346365 -0.23032162 0.08161163
v 0.26686763 -0.42947033 0.11878605
v 0.00693798 -0.20808430 0.06195738
v 0.00746189 -0.20823553 0.04647763
v 0.45001458 -0.48704372 0.06417974
v 0.44949067 -0.48689249 0.07965948
v 0.01314326 -0.19892283 0.05111848
v 0.45569595 -0.47773102 0.06882059
v 0.01518966 -0.19497680 0.06210860
v 0.45774235 -0.47378499 0.07981071
v 0.01240233 -0.19870896 0.07301014
v 0.45495502 -0.47751715 0.09071225
v 0.00641406 -0.20793307 0.07743712
v 0.44896675 -0.48674127 0.09513923
v 0.00073269 -0.21724577 0.07279627
v 0.44328538 -0.49605397 0.09049838
v -0.00131370 -0.22119181 0.06180615
v 0.44123899 -0.50000000 0.07950826
v 0.00147362 -0.21745964 0.05090461
v 0.44402631 -0.49626783 0.06860672
v 0.00693798 -0.20808430 -0.06195738
v 0.00641406 -0.20793307 -0.07743712
v 0.44896675 -0.48674127 -0.09513923
v 0.44949067 -0.48689249 -0.07965948
v 0.01240233 -0.19870896 -0.07301014
v 0.45495502 -0.47751715 -0.09071225
v 0.01518966 -0.19497680 -0.06210860
v 0.45774235 -0.47378499 -0.07981071
v 0.01314326 -0.19892283 -0.05111848
v 0.45569595 -0.47773102 -0.06882059
v 0.00746189 -0.20823553 -0.04647763
v 0.45001458 -0.48704372 -0.06417974
v 0.00147362 -0.21745964 -0.05090461
v 0.44402631 -0.49626783 -0.06860672
v -0.00131370 -0.22119181 -0.06180615
v 0.44123899 -0.50000000 -0.07950826
v 0.00073269 -0.21724577 -0.07279627
v 0.44328538 -0.49605397 -0.09049838
f 1 138 54
f 138 38 140
f 54 140 17
f 138 140 54
f 38 139 155
f 139 12 152
f 155 152 41
f 139 152 155
f 17 153 55
f 153 41 151
f 55 151 6
f 153 151 55
f 38 155 140
f 155 41 153
f 140 153 17
f 155 153 140
f 1 54 43
f 54 17 56
f 43 56 13
f 54 56 43
f 17 55 60
f 55 6 58
f 60 58 18
f 55 58 60
f 13 59 44
f 59 18 57
f 44 57 2
f 59 57 44
f 17 60 56
f 60 18 59
f 56 59 13
f 60 59 56
f 1 43 70
f 43 13 72
f 70 72 22
f 43 72 70
f 13 44 75
f 44 2 73
f 75 73 23
f 44 73 75
f 22 76 71
f 76 23 74
f 71 74 8
f 76 74 71
f 13 75 72
f 75 23 76
f 72 76 22
f 75 76 72
f 1 70 121
f 70 22 123
f 121 123 34
f 70 123 121
f 22 71 134
f 71 8 132
f 134 132 37
f 71 132 134
f 34 136 122
f 136 37 133
f 122 133 11
f 136 133 122
f 22 134 123
f 134 37 136
f 123 136 34
f 134 136 123
f 1 121 138
f 121 34 141
f 138 141 38
f 121 141 138
f 34 122 159
f 122 11 157
f 159 157 42
f 122 157 159
f 38 161 139
f 161 42 158
f 139 158 12
f 161 158 139
f 34 159 141
f 159 42 161
f 141 161 38
f 159 161 141
f 2 57 96
f 57 18 98
f 96 98 29
f 57 98 96
f 18 58 111
f 58 6 109
f 111 109 32
f 58 109 111
f 29 113 97
f 113 32 110
f 97 110 10
f 113 110 97
f 18 111 98
f 111 32 113
f 98 113 29
f 111 113 98
f 6 151 62
f 151 41 154
f 62 154 19
f 151 154 62
f 41 152 156
f 152 12 147
f 156 147 40
f 152 147 156
f 19 149 61
f 149 40 146
f 61 146 5
f 149 146 61
f 41 156 154
f 156 40 149
f 154 149 19
f 156 149 154
f 12 158 143
f 158 42 162
f 143 162 39
f 158 162 143
f 42 157 160
f 157 11 125
f 160 125 35
f 157 125 160
f 39 145 142
f 145 35 124
f 142 124 3
f 145 124 142
f 42 160 162
f 160 35 145
f 162 145 39
f 160 145 162
f 11 133 128
f 133 37 137
f 128 137 36
f 133 137 128
f 37 132 135
f 132 8 78
f 135 78 24
f 132 78 135
f 36 130 127
f 130 24 77
f 127 77 7
f 130 77 127
f 37 135 137
f 135 24 130
f 137 130 36
f 135 130 137
f 8 74 90
f 74 23 92
f 90 92 28
f 74 92 90
f 23 73 81
f 73 2 79
f 81 79 25
f 73 79 81
f 28 94 91
f 94 25 80
f 91 80 9
f 94 80 91
f 23 81 92
f 81 25 94
f 92 94 28
f 81 94 92
f 4 100 50
f 100 30 102
f 50 102 16
f 100 102 50
f 30 101 108
f 101 10 105
f 108 105 31
f 101 105 108
f 16 106 51
f 106 31 104
f 51 104 5
f 106 104 51
f 30 108 102
f 108 31 106
f 102 106 16
f 108 106 102
f 4 50 46
f 50 16 52
f 46 52 14
f 50 52 46
f 16 51 53
f 51 5 48
f 53 48 15
f 51 48 53
f 14 49 45
f 49 15 47
f 45 47 3
f 49 47 45
f 16 53 52
f 53 15 49
f 52 49 14
f 53 49 52
f 4 46 66
f 46 14 68
f 66 68 21
f 46 68 66
f 14 45 65
f 45 3 63
f 65 63 20
f 45 63 65
f 21 69 67
f 69 20 64
f 67 64 7
f 69 64 67
f 14 65 68
f 65 20 69
f 68 69 21
f 65 69 68
f 4 66 82
f 66 21 84
f 82 84 26
f 66 84 82
f 21 67 87
f 67 7 85
f 87 85 27
f 67 85 87
f 26 89 83
f 89 27 86
f 83 86 9
f 89 86 83
f 21 87 84
f 87 27 89
f 84 89 26
f 87 89 84
f 4 82 100
f 82 26 103
f 100 103 30
f 82 103 100
f 26 83 118
f 83 9 115
f 118 115 33
f 83 115 118
f 30 120 101
f 120 33 116
f 101 116 10
f 120 116 101
f 26 118 103
f 118 33 120
f 103 120 30
f 118 120 103
f 5 104 61
f 104 31 107
f 61 107 19
f 104 107 61
f 31 105 114
f 105 10 110
f 114 110 32
f 105 110 114
f 19 112 62
f 112 32 109
f 62 109 6
f 112 109 62
f 31 114 107
f 114 32 112
f 107 112 19
f 114 112 107
f 3 47 142
f 47 15 144
f 142 144 39
f 47 144 142
f 15 48 148
f 48 5 146
f 148 146 40
f 48 146 148
f 39 150 143
f 150 40 147
f 143 147 12
f 150 147 143
f 15 148 144
f 148 40 150
f 144 150 39
f 148 150 144
f 7 64 127
f 64 20 129
f 127 129 36
f 64 129 127
f 20 63 126
f 63 3 124
f 126 124 35
f 63 124 126
f 36 131 128
f 131 35 125
f 128 125 11
f 131 125 128
f 20 126 129
f 126 35 131
f 129 131 36
f 126 131 129
f 9 86 91
f 86 27 95
f 91 95 28
f 86 95 91
f 27 85 88
f 85 7 77
f 88 77 24
f 85 77 88
f 28 93 90
f 93 24 78
f 90 78 8
f 93 78 90
f 27 88 95
f 88 24 93
f 95 93 28
f 88 93 95
f 10 116 97
f 116 33 119
f 97 119 29
f 116 119 97
f 33 115 117
f 115 9 80
f 117 80 25
f 115 80 117
f 29 99 96
f 99 25 79
f 96 79 2
f 99 79 96
f 33 117 119
f 117 25 99
f 119 99 29
f 117 99 119
f 163 164 165
f 166 168 167
f 163 166 167
f 163 167 164
f 164 167 168
f 164 168 165
f 165 168 166
f 165 166 163
f 169 170 171
f 172 174 173
f 169 172 173
f 169 173 170
f 170 173 174
f 170 174 171
f 171 174 172
f 171 172 169
f 176 175 179
f 176 179 177
f 177 179 180
f 177 180 178
f 179 175 181
f 179 181 180
f 180 181 182
f 180 182 178
f 181 175 183
f 181 183 182
f 182 183 184
f 182 184 178
f 183 175 185
f 183 185 184
f 184 185 186
f 184 186 178
f 185 175 187
f 185 187 186
f 186 187 188
f 186 188 178
f 187 175 189
f 187 189 188
f 188 189 190
f 188 190 178
f 189 175 191
f 189 191 190
f 190 191 192
f 190 192 178
f 191 175 176
f 191 176 192
f 192 176 177
f 192 177 178
f 194 193 197
f 194 197 195
f 195 197 198
f 195 198 196
f 197 193 199
f 197 199 198
f 198 199 200
f 198 200 196
f 199 193 201
f 199 201 200
f 200 201 202
f 200 202 196
f 201 193 203
f 201 203 202
f 202 203 204
f 202 204 196
f 203 193 205
f 203 205 204
f 204 205 206
f 204 206 196
f 205 193 207
f 205 207 206
f 206 207 208
f 206 208 196
f 207 193 209
f 207 209 208
f 208 209 210
f 208 210 196
f 209 193 194
f 209 194 210
f 210 194 195
f 210 195 196
f 212 211 215
f 212 215 213
f 213 215 216
f 213 216 214
f 215 211 217
f 215 217 216
f 216 217 218
f 216 218 214
f 217 211 219
f 217 219 218
f 218 219 220
f 218 220 214
f 219 211 221
f 219 221 220
f 220 221 222
f 220 222 214
f 221 211 223
f 221 223 222
f 222 223 224
f 222 224 214
f 223 211 225
f 223 225 224
f 224 225 226
f 224 226 214
f 225 211 227
f 225 227 226
f 226 227 228
f 226 228 214
f 227 211 212
f 227 212 228
f 228 212 213
f 228 213 214
f 230 229 233
f 230 233 231
f 231 233 234
f 231 234 232
f 233 229 235
f 233 235 234
f 234 235 236
f 234 236 232
f 235 229 237
f 235 237 236
f 236 237 238
f 236 238 232
f 237 229 239
f 237 239 238
f 238 239 240
f 238 240 232
f 239 229 241
f 239 241 240
f 240 241 242
f 240 242 232
f 241 229 243
f 241 243 242
f 242 243 244
f 242 244 232
f 243 229 245
f 243 245 244
f 244 245 246
f 244 246 232
f 245 229 230
f 245 230 246
f 246 230 231
f 246 231 232
f 248 247 251
f 248 251 249
f 249 251 252
f 249 252 250
f 251 247 253
f 251 253 252
f 252 253 254
f 252 254 250
f 253 247 255
f 253 255 254
f 254 255 256
f 254 256 250
f 255 247 257
f 255 257 256
f 256 257 258
f 256 258 250
f 257 247 259
f 257 259 258
f 258 259 260
f 258 260 250
f 259 247 261
f 259 261 260
f 260 261 262
f 260 262 250
f 261 247 263
f 261 263 262
f 262 263 264
f 262 264 250
f 263 247 248
f 263 248 264
f 264 248 249
f 264 249 250
f 266 265 269
f 266 269 267
f 267 269 270
f 267 270 268
f 269 265 271
f 269 271 270
f 270 271 272
f 270 272 268
f 271 265 273
f 271 273 272
f 272 273 274
f 272 274 268
f 273 265 275
f 273 275 274
f 274 275 276
f 274 276 268
f 275 265 277
f 275 277 276
f 276 277 278
f 276 278 268
f 277 265 279
f 277 279 278
f 278 279 280
f 278 280 268
f 279 265 281
f 279 281 280
f 280 281 282
f 280 282 268
f 281 265 266
f 281 266 282
f 282 266 267
f 282 267 268
f 284 283 287
f 284 287 285
f 285 287 288
f 285 288 286
f 287 283 289
f 287 289 288
f 288 289 290
f 288 290 286
f 289 283 291
f 289 291 290
f 290 291 292
f 290 292 286
f 291 283 293
f 291 293 292
f 292 293 294
f 292 294 286
f 293 283 295
f 293 295 294
f 294 295 296
f 294 296 286
f 295 283 297
f 295 297 296
f 296 297 298
f 296 298 286
f 297 283 299
f 297 299 298
f 298 299 300
f 298 300 286
f 299 283 284
f 299 284 300
f 300 284 285
f 300 285 286
f 302 301 305
f 302 305 303
f 303 305 306
f 303 306 304
f 305 301 307
f 305 307 306
f 306 307 308
f 306 308 304
f 307 301 309
f 307 309 308
f 308 309 310
f 308 310 304
f 309 301 311
f 309 311 310
f 310 311 312
f 310 312 304
f 311 301 313
f 311 313 312
f 312 313 314
f 312 314 304
f 313 301 315
f 313 315 314
f 314 315 316
f 314 316 304
f 315 301 317
f 315 317 316
f 316 317 318
f 316 318 304
f 317 301 302
f 317 302 318
f 318 302 303
f 318 303 304
f 320 319 323
f 320 323 321
f 321 323 324
f 321 324 322
f 323 319 325
f 323 325 324
f 324 325 326
f 324 326 322
f 325 319 327
f 325 327 326
f 326 327 328
f 326 328 322
f 327 319 329
f 327 329 328
f 328 329 330
f 328 330 322
f 329 319 331
f 329 331 330
f 330 331 332
f 330 332 322
f 331 319 333
f 331 333 332
f 332 333 334
f 332 334 322
f 333 319 335
f 333 335 334
f 334 335 336
f 334 336 322
f 335 319 320
f 335 320 336
f 336 320 321
f 336 321 322
f 338 337 341
f 338 341 339
f 339 341 342
f 339 342 340
f 341 337 343
f 341 343 342
f 342 343 344
f 342 344 340
f 343 337 345
f 343 345 344
f 344 345 346
f 344 346 340
f 345 337 347
f 345 347 346
f 346 347 348
f 346 348 340
f 347 337 349
f 347 349 348
f 348 349 350
f 348 350 340
f 349 337 351
f 349 351 350
f 350 351 352
f 350 352 340
f 351 337 353
f 351 353 352
f 352 353 354
f 352 354 340
f 353 337 338
f 353 338 354
f 354 338 339
f 354 339 340

