# https://github.com/mikedh/trimesh
v 0.01850170 0.44641683 0.00000000
v 0.32272853 0.44641683 0.00000000
v 0.01850170 -0.16397236 0.00000000
v 0.32272853 -0.16397236 0.00000000
v 0.17061512 -0.04739840 0.23627969
v 0.17061512 0.32984287 0.23627969
v 0.17061512 -0.04739840 -0.23627969
v 0.17061512 0.32984287 -0.23627969
v 0.41673979 0.14122223 -0.14602888
v 0.41673979 0.14122223 0.14602888
v -0.07550956 0.14122223 -0.14602888
v -0.07550956 0.14122223 0.14602888
v 0.17061512 0.50000000 0.00000000
v 0.17061512 -0.21755553 0.00000000
v 0.08120510 -0.14903508 0.13888172
v 0.26002514 -0.14903508 0.13888172
v 0.08120510 0.43147954 0.13888172
v 0.26002514 0.43147954 0.13888172
v 0.17061512 0.14122223 0.27776343
v 0.08120510 -0.14903508 -0.13888172
v 0.26002514 -0.14903508 -0.13888172
v 0.08120510 0.43147954 -0.13888172
v 0.26002514 0.43147954 -0.13888172
v 0.17061512 0.14122223 -0.27776343
v 0.40469359 0.32061112 -0.08583362
v 0.40469359 -0.03816665 -0.08583362
v 0.31528357 0.03035381 -0.22471534
v 0.31528357 0.25209066 -0.22471534
v 0.40469359 0.32061112 0.08583362
v 0.40469359 -0.03816665 0.08583362
v 0.31528357 0.03035381 0.22471534
v 0.31528357 0.25209066 0.22471534
v 0.45995203 0.14122223 0.00000000
v -0.06346336 0.32061112 -0.08583362
v -0.06346336 -0.03816665 -0.08583362
v 0.02594666 0.03035381 -0.22471534
v 0.02594666 0.25209066 -0.22471534
v -0.06346336 0.32061112 0.08583362
v -0.06346336 -0.03816665 0.08583362
v 0.02594666 0.03035381 0.22471534
v 0.02594666 0.25209066 0.22471534
v -0.11872179 0.14122223 0.00000000
v 0.09154903 0.48634433 0.00000000
v 0.24968121 0.48634433 0.00000000
v 0.09154903 -0.20389986 0.00000000
v 0.24968121 -0.20389986 0.00000000
v 0.04507514 -0.16828404 0.07218847
v 0.12414123 -0.10769078 0.19500283
v 0.12360949 -0.19999570 0.07301444
v 0.29615509 -0.16828404 0.07218847
v 0.21708900 -0.10769078 0.19500283
v 0.21762075 -0.19999570 0.07301444
v 0.17061512 -0.16397236 0.14602888
v 0.04507514 0.45072850 0.07218847
v 0.12414123 0.39013524 0.19500283
v 0.12360949 0.48244017 0.07301444
v 0.29615509 0.45072850 0.07218847
v 0.21708900 0.39013524 0.19500283
v 0.21762075 0.48244017 0.07301444
v 0.17061512 0.44641683 0.14602888
v 0.17061512 0.04318028 0.26719130
v 0.17061512 0.23926419 0.26719130
v 0.04507514 -0.16828404 -0.07218847
v 0.12414123 -0.10769078 -0.19500283
v 0.12360949 -0.19999570 -0.07301444
v 0.29615509 -0.16828404 -0.07218847
v 0.21708900 -0.10769078 -0.19500283
v 0.21762075 -0.19999570 -0.07301444
v 0.17061512 -0.16397236 -0.14602888
v 0.04507514 0.45072850 -0.07218847
v 0.12414123 0.39013524 -0.19500283
v 0.12360949 0.48244017 -0.07301444
v 0.29615509 0.45072850 -0.07218847
v 0.21708900 0.39013524 -0.19500283
v 0.21762075 0.48244017 -0.07301444
v 0.17061512 0.44641683 -0.14602888
v 0.17061512 0.04318028 -0.26719130
v 0.17061512 0.23926419 -0.26719130
v 0.37135142 0.39310089 -0.04461493
v 0.42021695 0.23446567 -0.12051838
v 0.34068309 0.38812985 -0.11813984
v 0.37135142 -0.11065642 -0.04461493
v 0.42021695 0.04797879 -0.12051838
v 0.34068309 -0.10568538 -0.11813984
v 0.24581144 -0.01444734 -0.23961776
v 0.37374307 0.08359462 -0.19270685
v 0.29367746 -0.06966205 -0.19115428
v 0.24667183 0.08293525 -0.26416872
v 0.36973416 -0.01137506 -0.16326525
v 0.24581144 0.29689180 -0.23961776
v 0.37374307 0.19884985 -0.19270685
v 0.29367746 0.35210651 -0.19115428
v 0.24667183 0.19950922 -0.26416872
v 0.36973416 0.29381953 -0.16326525
v 0.32272853 0.14122223 -0.23627969
v 0.37135142 0.39310089 0.04461493
v 0.42021695 0.23446567 0.12051838
v 0.34068309 0.38812985 0.11813984
v 0.41673979 0.32984287 0.00000000
v 0.37135142 -0.11065642 0.04461493
v 0.42021695 0.04797879 0.12051838
v 0.34068309 -0.10568538 0.11813984
v 0.41673979 -0.04739840 0.00000000
v 0.24581144 -0.01444734 0.23961776
v 0.37374307 0.08359462 0.19270685
v 0.29367746 -0.06966205 0.19115428
v 0.24667183 0.08293525 0.26416872
v 0.36973416 -0.01137506 0.16326525
v 0.24581144 0.29689180 0.23961776
v 0.37374307 0.19884985 0.19270685
v 0.29367746 0.35210651 0.19115428
v 0.24667183 0.19950922 0.26416872
v 0.36973416 0.29381953 0.16326525
v 0.32272853 0.14122223 0.23627969
v 0.44893939 0.14122223 -0.07590345
v 0.44893939 0.14122223 0.07590345
v 0.44579087 0.23553255 -0.04512540
v 0.44579087 0.04691192 -0.04512540
v 0.44579087 0.23553255 0.04512540
v 0.44579087 0.04691192 0.04512540
v -0.03012118 0.39310089 -0.04461493
v -0.07898671 0.23446567 -0.12051838
v 0.00054715 0.38812985 -0.11813984
v -0.03012118 -0.11065642 -0.04461493
v -0.07898671 0.04797879 -0.12051838
v 0.00054715 -0.10568538 -0.11813984
v 0.09541880 -0.01444734 -0.23961776
v -0.03251283 0.08359462 -0.19270685
v 0.04755278 -0.06966205 -0.19115428
v 0.09455841 0.08293525 -0.26416872
v -0.02850393 -0.01137506 -0.16326525
v 0.09541880 0.29689180 -0.23961776
v -0.03251283 0.19884985 -0.19270685
v 0.04755278 0.35210651 -0.19115428
v 0.09455841 0.19950922 -0.26416872
v -0.02850393 0.29381953 -0.16326525
v 0.01850170 0.14122223 -0.23627969
v -0.03012118 0.39310089 0.04461493
v -0.07898671 0.23446567 0.12051838
v 0.00054715 0.38812985 0.11813984
v -0.07550956 0.32984287 0.00000000
v -0.03012118 -0.11065642 0.04461493
v -0.07898671 0.04797879 0.12051838
v 0.00054715 -0.10568538 0.11813984
v -0.07550956 -0.04739840 0.00000000
v 0.09541880 -0.01444734 0.23961776
v -0.03251283 0.08359462 0.19270685
v 0.04755278 -0.06966205 0.19115428
v 0.09455841 0.08293525 0.26416872
v -0.02850393 -0.01137506 0.16326525
v 0.09541880 0.29689180 0.23961776
v -0.03251283 0.19884985 0.19270685
v 0.04755278 0.35210651 0.19115428
v 0.09455841 0.19950922 0.26416872
v -0.02850393 0.29381953 0.16326525
v 0.01850170 0.14122223 0.23627969
v -0.10770915 0.14122223 -0.07590345
v -0.10770915 0.14122223 0.07590345
v -0.10456063 0.23553255 -0.04512540
v -0.10456063 0.04691192 -0.04512540
v -0.10456063 0.23553255 0.04512540
v -0.10456063 0.04691192 0.04512540
v 0.18797533 -0.04395339 0.00000000
v 0.18797533 -0.04395339 0.03182706
v -0.03192072 -0.47795875 0.03182706
v -0.03192072 -0.47795875 0.00000000
v 0.16789995 -0.03378186 0.02250513
v -0.05199610 -0.46778722 0.02250513
v 0.15958446 -0.02956868 0.00000000
v -0.06031159 -0.46357404 0.00000000
v 0.16789995 -0.03378186 -0.02250513
v -0.05199610 -0.46778722 -0.02250513
v 0.18797533 -0.04395339 -0.03182706
v -0.03192072 -0.47795875 -0.03182706
v 0.20805071 -0.05412491 -0.02250513
v -0.01184534 -0.48813027 -0.02250513
v 0.21636621 -0.05833810 -0.00000000
v -0.00352984 -0.49234346 -0.00000000
v 0.20805071 -0.05412491 0.02250513
v -0.01184534 -0.48813027 0.02250513
v 0.15746720 -0.04395339 0.07365315
v 0.16359855 -0.04044498 0.10468635
v -0.08511074 -0.47445034 0.20289055
v -0.09124209 -0.47795875 0.17185736
v 0.14264225 -0.02993121 0.09807775
v -0.10606704 -0.46393657 0.19628196
v 0.13037021 -0.02763144 0.07716156
v -0.11833908 -0.46163680 0.17536576
v 0.13397121 -0.03489284 0.05419019
v -0.11473807 -0.46889821 0.15239439
v 0.15133585 -0.04746179 0.04261995
v -0.09737344 -0.48146715 0.14082416
v 0.17229214 -0.05797556 0.04922855
v -0.07641714 -0.49198093 0.14743275
v 0.18456419 -0.06027533 0.07014475
v -0.06414510 -0.49428070 0.16834895
v 0.18096318 -0.05301393 0.09311612
v -0.06774611 -0.48701929 0.19132032
v 0.08381405 -0.04395339 0.10416129
v 0.09176650 -0.04000485 0.13472482
v -0.22650410 -0.47401022 0.27360653
v -0.23445655 -0.47795875 0.24304300
v 0.07186468 -0.02738133 0.12856500
v -0.24640592 -0.46138669 0.26744672
v 0.05896263 -0.02446549 0.10810982
v -0.25930796 -0.45847085 0.24699153
v 0.06061821 -0.03296539 0.08534164
v -0.25765239 -0.46697076 0.22422336
v 0.07586159 -0.04790192 0.07359776
v -0.24240900 -0.48190728 0.21247947
v 0.09576341 -0.06052545 0.07975757
v -0.22250718 -0.49453081 0.21863929
v 0.10866546 -0.06344128 0.10021276
v -0.20960514 -0.49744665 0.23909447
v 0.10700988 -0.05494138 0.12298093
v -0.21126072 -0.48894674 0.26186265
v 0.01016089 -0.04395339 0.07365315
v 0.01545602 -0.04160382 0.10494857
v -0.37237589 -0.47560918 0.20315277
v -0.37767102 -0.47795875 0.17185736
v -0.00264215 -0.02712925 0.09744374
v -0.39047406 -0.46113461 0.19564795
v -0.01324047 -0.02251003 0.07600272
v -0.40107238 -0.45651539 0.17420692
v -0.01013059 -0.03045204 0.05318535
v -0.39796249 -0.46445740 0.15138955
v 0.00486577 -0.04630295 0.04235774
v -0.38296614 -0.48030831 0.14056194
v 0.02296394 -0.06077752 0.04986256
v -0.36486797 -0.49478288 0.14806676
v 0.03356226 -0.06539674 0.07130359
v -0.35426965 -0.49940210 0.16950779
v 0.03045237 -0.05745474 0.09412096
v -0.35737954 -0.49146010 0.19232516
v -0.02034724 -0.04395339 0.00000000
v -0.02034724 -0.04395339 0.03182706
v -0.43699239 -0.47795875 0.03182706
v -0.43699239 -0.47795875 0.00000000
v -0.03658216 -0.02836787 0.02250513
v -0.45322730 -0.46237323 0.02250513
v -0.04330688 -0.02191213 0.00000000
v -0.45995203 -0.45591750 0.00000000
v -0.03658216 -0.02836787 -0.02250513
v -0.45322730 -0.46237323 -0.02250513
v -0.02034724 -0.04395339 -0.03182706
v -0.43699239 -0.47795875 -0.03182706
v -0.00411233 -0.05953891 -0.02250513
v -0.42075747 -0.49354427 -0.02250513
v 0.00261240 -0.06599464 0.00000000
v -0.41403275 -0.50000000 0.00000000
v -0.00411233 -0.05953891 0.02250513
v -0.42075747 -0.49354427 0.02250513
v 0.01016089 -0.04395339 -0.07365315
v 0.00486577 -0.04630295 -0.04235774
v -0.38296614 -0.48030831 -0.14056194
v -0.37767102 -0.47795875 -0.17185736
v -0.01013059 -0.03045204 -0.05318535
v -0.39796249 -0.46445740 -0.15138955
v -0.01324047 -0.02251003 -0.07600272
v -0.40107238 -0.45651539 -0.17420692
v -0.00264215 -0.02712925 -0.09744374
v -0.39047406 -0.46113461 -0.19564795
v 0.01545602 -0.04160382 -0.10494857
v -0.37237589 -0.47560918 -0.20315277
v 0.03045237 -0.05745474 -0.09412096
v -0.35737954 -0.49146010 -0.19232516
v 0.03356226 -0.06539674 -0.07130359
v -0.35426965 -0.49940210 -0.16950779
v 0.02296394 -0.06077752 -0.04986256
v -0.36486797 -0.49478288 -0.14806676
v 0.08381405 -0.04395339 -0.10416129
v 0.07586159 -0.04790192 -0.07359776
v -0.24240900 -0.48190728 -0.21247947
v -0.23445655 -0.47795875 -0.24304300
v 0.06061821 -0.03296539 -0.08534164
v -0.25765239 -0.46697076 -0.22422336
v 0.05896263 -0.02446549 -0.10810982
v -0.25930796 -0.45847085 -0.24699153
v 0.07186468 -0.02738133 -0.12856500
v -0.24640592 -0.46138669 -0.26744672
v 0.09176650 -0.04000485 -0.13472482
v -0.22650410 -0.47401022 -0.27360653
v 0.10700988 -0.05494138 -0.12298093
v -0.21126072 -0.48894674 -0.26186265
v 0.10866546 -0.06344128 -0.10021276
v -0.20960514 -0.49744665 -0.23909447
v 0.09576341 -0.06052545 -0.07975757
v -0.22250718 -0.49453081 -0.21863929
v 0.15746720 -0.04395339 -0.07365315
v 0.15133585 -0.04746179 -0.04261995
v -0.09737344 -0.48146715 -0.14082416
v -0.09124209 -0.47795875 -0.17185736
v 0.13397121 -0.03489284 -0.05419019
v -0.11473807 -0.46889821 -0.15239439
v 0.13037021 -0.02763144 -0.07716156
v -0.11833908 -0.46163680 -0.17536576
v 0.14264225 -0.02993121 -0.09807775
v -0.10606704 -0.46393657 -0.19628196
v 0.16359855 -0.04044498 -0.10468635
v -0.08511074 -0.47445034 -0.20289055
v 0.18096318 -0.05301393 -0.09311612
v -0.06774611 -0.48701929 -0.19132032
v 0.18456419 -0.06027533 -0.07014475
v -0.06414510 -0.49428070 -0.16834895
v 0.17229214 -0.05797556 -0.04922855
v -0.07641714 -0.49198093 -0.14743275
v 0.07475152 0.46129664 0.20253584
v 0.20861133 0.46129664 0.20253584
v 0.07475152 0.28408688 0.20253584
v 0.20861133 0.28408688 0.20253584
v 0.14168143 0.31793093 0.24191578
v 0.14168143 0.42745259 0.24191578
v 0.14168143 0.31793093 0.16315589
v 0.14168143 0.42745259 0.16315589
v 0.24997628 0.37269176 0.17819769
v 0.24997628 0.37269176 0.22687398
v 0.03338657 0.37269176 0.17819769
v 0.03338657 0.37269176 0.22687398
v 0.14168143 0.47685305 0.20253584
v 0.14168143 0.26853047 0.20253584
v 0.10234102 0.28842351 0.22568279
v 0.18102184 0.28842351 0.22568279
v 0.10234102 0.45696001 0.22568279
v 0.18102184 0.45696001 0.22568279
v 0.14168143 0.37269176 0.24882974
v 0.10234102 0.28842351 0.17938888
v 0.18102184 0.28842351 0.17938888
v 0.10234102 0.45696001 0.17938888
v 0.18102184 0.45696001 0.17938888
v 0.14168143 0.37269176 0.15624193
v 0.24467596 0.42477240 0.18823023
v 0.24467596 0.32061112 0.18823023
v 0.20533555 0.34050415 0.16508328
v 0.20533555 0.40487937 0.16508328
v 0.24467596 0.42477240 0.21684144
v 0.24467596 0.32061112 0.21684144
v 0.20533555 0.34050415 0.23998839
v 0.20533555 0.40487937 0.23998839
v 0.26898967 0.37269176 0.20253584
v 0.03868690 0.42477240 0.18823023
v 0.03868690 0.32061112 0.18823023
v 0.07802731 0.34050415 0.16508328
v 0.07802731 0.40487937 0.16508328
v 0.03868690 0.42477240 0.21684144
v 0.03868690 0.32061112 0.21684144
v 0.07802731 0.34050415 0.23998839
v 0.07802731 0.40487937 0.23998839
v 0.01437319 0.37269176 0.20253584
v 0.07475152 0.46129664 -0.20253584
v 0.20861133 0.46129664 -0.20253584
v 0.07475152 0.28408688 -0.20253584
v 0.20861133 0.28408688 -0.20253584
v 0.14168143 0.31793093 -0.16315589
v 0.14168143 0.42745259 -0.16315589
v 0.14168143 0.31793093 -0.24191578
v 0.14168143 0.42745259 -0.24191578
v 0.24997628 0.37269176 -0.22687398
v 0.24997628 0.37269176 -0.17819769
v 0.03338657 0.37269176 -0.22687398
v 0.03338657 0.37269176 -0.17819769
v 0.14168143 0.47685305 -0.20253584
v 0.14168143 0.26853047 -0.20253584
v 0.10234102 0.28842351 -0.17938888
v 0.18102184 0.28842351 -0.17938888
v 0.10234102 0.45696001 -0.17938888
v 0.18102184 0.45696001 -0.17938888
v 0.14168143 0.37269176 -0.15624193
v 0.10234102 0.28842351 -0.22568279
v 0.18102184 0.28842351 -0.22568279
v 0.10234102 0.45696001 -0.22568279
v 0.18102184 0.45696001 -0.22568279
v 0.14168143 0.37269176 -0.24882974
v 0.24467596 0.42477240 -0.21684144
v 0.24467596 0.32061112 -0.21684144
v 0.20533555 0.34050415 -0.23998839
v 0.20533555 0.40487937 -0.23998839
v 0.24467596 0.42477240 -0.18823023
v 0.24467596 0.32061112 -0.18823023
v 0.20533555 0.34050415 -0.16508328
v 0.20533555 0.40487937 -0.16508328
v 0.26898967 0.37269176 -0.20253584
v 0.03868690 0.42477240 -0.21684144
v 0.03868690 0.32061112 -0.21684144
v 0.07802731 0.34050415 -0.23998839
v 0.07802731 0.40487937 -0.23998839
v 0.03868690 0.42477240 -0.18823023
v 0.03868690 0.32061112 -0.18823023
v 0.07802731 0.34050415 -0.16508328
v 0.07802731 0.40487937 -0.16508328
v 0.01437319 0.37269176 -0.20253584
f 1 138 54
f 138 38 140
f 54 140 17
f 138 140 54
f 38 139 155
f 139 12 152
f 155 152 41
f 139 152 155
f 17 153 55
f 153 41 151
f 55 151 6
f 153 151 55
f 38 155 140
f 155 41 153
f 140 153 17
f 155 153 140
f 1 54 43
f 54 17 56
f 43 56 13
f 54 56 43
f 17 55 60
f 55 6 58
f 60 58 18
f 55 58 60
f 13 59 44
f 59 18 57
f 44 57 2
f 59 57 44
f 17 60 56
f 60 18 59
f 56 59 13
f 60 59 56
f 1 43 70
f 43 13 72
f 70 72 22
f 43 72 70
f 13 44 75
f 44 2 73
f 75 73 23
f 44 73 75
f 22 76 71
f 76 23 74
f 71 74 8
f 76 74 71
f 13 75 72
f 75 23 76
f 72 76 22
f 75 76 72
f 1 70 121
f 70 22 123
f 121 123 34
f 70 123 121
f 22 71 134
f 71 8 132
f 134 132 37
f 71 132 134
f 34 136 122
f 136 37 133
f 122 133 11
f 136 133 122
f 22 134 123
f 134 37 136
f 123 136 34
f 134 136 123
f 1 121 138
f 121 34 141
f 138 141 38
f 121 141 138
f 34 122 159
f 122 11 157
f 159 157 42
f 122 157 159
f 38 161 139
f 161 42 158
f 139 158 12
f 161 158 139
f 34 159 141
f 159 42 161
f 141 161 38
f 159 161 141
f 2 57 96
f 57 18 98
f 96 98 29
f 57 98 96
f 18 58 111
f 58 6 109
f 111 109 32
f 58 109 111
f 29 113 97
f 113 32 110
f 97 110 10
f 113 110 97
f 18 111 98
f 111 32 113
f 98 113 29
f 111 113 98
f 6 151 62
f 151 41 154
f 62 154 19
f 151 154 62
f 41 152 156
f 152 12 147
f 156 147 40
f 152 147 156
f 19 149 61
f 149 40 146
f 61 146 5
f 149 146 61
f 41 156 154
f 156 40 149
f 154 149 19
f 156 149 154
f 12 158 143
f 158 42 162
f 143 162 39
f 158 162 143
f 42 157 160
f 157 11 125
f 160 125 35
f 157 125 160
f 39 145 142
f 145 35 124
f 142 124 3
f 145 124 142
f 42 160 162
f 160 35 145
f 162 145 39
f 160 145 162
f 11 133 128
f 133 37 137
f 128 137 36
f 133 137 128
f 37 132 135
f 132 8 78
f 135 78 24
f 132 78 135
f 36 130 127
f 130 24 77
f 127 77 7
f 130 77 127
f 37 135 137
f 135 24 130
f 137 130 36
f 135 130 137
f 8 74 90
f 74 23 92
f 90 92 28
f 74 92 90
f 23 73 81
f 73 2 79
f 81 79 25
f 73 79 81
f 28 94 91
f 94 25 80
f 91 80 9
f 94 80 91
f 23 81 92
f 81 25 94
f 92 94 28
f 81 94 92
f 4 100 50
f 100 30 102
f 50 102 16
f 100 102 50
f 30 101 108
f 101 10 105
f 108 105 31
f 101 105 108
f 16 106 51
f 106 31 104
f 51 104 5
f 106 104 51
f 30 108 102
f 108 31 106
f 102 106 16
f 108 106 102
f 4 50 46
f 50 16 52
f 46 52 14
f 50 52 46
f 16 51 53
f 51 5 48
f 53 48 15
f 51 48 53
f 14 49 45
f 49 15 47
f 45 47 3
f 49 47 45
f 16 53 52
f 53 15 49
f 52 49 14
f 53 49 52
f 4 46 66
f 46 14 68
f 66 68 21
f 46 68 66
f 14 45 65
f 45 3 63
f 65 63 20
f 45 63 65
f 21 69 67
f 69 20 64
f 67 64 7
f 69 64 67
f 14 65 68
f 65 20 69
f 68 69 21
f 65 69 68
f 4 66 82
f 66 21 84
f 82 84 26
f 66 84 82
f 21 67 87
f 67 7 85
f 87 85 27
f 67 85 87
f 26 89 83
f 89 27 86
f 83 86 9
f 89 86 83
f 21 87 84
f 87 27 89
f 84 89 26
f 87 89 84
f 4 82 100
f 82 26 103
f 100 103 30
f 82 103 100
f 26 83 118
f 83 9 115
f 118 115 33
f 83 115 118
f 30 120 101
f 120 33 116
f 101 116 10
f 120 116 101
f 26 118 103
f 118 33 120
f 103 120 30
f 118 120 103
f 5 104 61
f 104 31 107
f 61 107 19
f 104 107 61
f 31 105 114
f 105 10 110
f 114 110 32
f 105 110 114
f 19 112 62
f 112 32 109
f 62 109 6
f 112 109 62
f 31 114 107
f 114 32 112
f 107 112 19
f 114 112 107
f 3 47 142
f 47 15 144
f 142 144 39
f 47 144 142
f 15 48 148
f 48 5 146
f 148 146 40
f 48 146 148
f 39 150 143
f 150 40 147
f 143 147 12
f 150 147 143
f 15 148 144
f 148 40 150
f 144 150 39
f 148 150 144
f 7 64 127
f 64 20 129
f 127 129 36
f 64 129 127
f 20 63 126
f 63 3 124
f 126 124 35
f 63 124 126
f 36 131 128
f 131 35 125
f 128 125 11
f 131 125 128
f 20 126 129
f 126 35 131
f 129 131 36
f 126 131 129
f 9 86 91
f 86 27 95
f 91 95 28
f 86 95 91
f 27 85 88
f 85 7 77
f 88 77 24
f 85 77 88
f 28 93 90
f 93 24 78
f 90 78 8
f 93 78 90
f 27 88 95
f 88 24 93
f 95 93 28
f 88 93 95
f 10 116 97
f 116 33 119
f 97 119 29
f 116 119 97
f 33 115 117
f 115 9 80
f 117 80 25
f 115 80 117
f 29 99 96
f 99 25 79
f 96 79 2
f 99 79 96
f 33 117 119
f 117 25 99
f 119 99 29
f 117 99 119
f 164 163 167
f 164 167 165
f 165 167 168
f 165 168 166
f 167 163 169
f 167 169 168
f 168 169 170
f 168 170 166
f 169 163 171
f 169 171 170
f 170 171 172
f 170 172 166
f 171 163 173
f 171 173 172
f 172 173 174
f 172 174 166
f 173 163 175
f 173 175 174
f 174 175 176
f 174 176 166
f 175 163 177
f 175 177 176
f 176 177 178
f 176 178 166
f 177 163 179
f 177 179 178
f 178 179 180
f 178 180 166
f 179 163 164
f 179 164 180
f 180 164 165
f 180 165 166
f 182 181 185
f 182 185 183
f 183 185 186
f 183 186 184
f 185 181 187
f 185 187 186
f 186 187 188
f 186 188 184
f 187 181 189
f 187 189 188
f 188 189 190
f 188 190 184
f 189 181 191
f 189 191 190
f 190 191 192
f 190 192 184
f 191 181 193
f 191 193 192
f 192 193 194
f 192 194 184
f 193 181 195
f 193 195 194
f 194 195 196
f 194 196 184
f 195 181 197
f 195 197 196
f 196 197 198
f 196 198 184
f 197 181 182
f 197 182 198
f 198 182 183
f 198 183 184
f 200 199 203
f 200 203 201
f 201 203 204
f 201 204 202
f 203 199 205
f 203 205 204
f 204 205 206
f 204 206 202
f 205 199 207
f 205 207 206
f 206 207 208
f 206 208 202
f 207 199 209
f 207 209 208
f 208 209 210
f 208 210 202
f 209 199 211
f 209 211 210
f 210 211 212
f 210 212 202
f 211 199 213
f 211 213 212
f 212 213 214
f 212 214 202
f 213 199 215
f 213 215 214
f 214 215 216
f 214 216 202
f 215 199 200
f 215 200 216
f 216 200 201
f 216 201 202
f 218 217 221
f 218 221 219
f 219 221 222
f 219 222 220
f 221 217 223
f 221 223 222
f 222 223 224
f 222 224 220
f 223 217 225
f 223 225 224
f 224 225 226
f 224 226 220
f 225 217 227
f 225 227 226
f 226 227 228
f 226 228 220
f 227 217 229
f 227 229 228
f 228 229 230
f 228 230 220
f 229 217 231
f 229 231 230
f 230 231 232
f 230 232 220
f 231 217 233
f 231 233 232
f 232 233 234
f 232 234 220
f 233 217 218
f 233 218 234
f 234 218 219
f 234 219 220
f 236 235 239
f 236 239 237
f 237 239 240
f 237 240 238
f 239 235 241
f 239 241 240
f 240 241 242
f 240 242 238
f 241 235 243
f 241 243 242
f 242 243 244
f 242 244 238
f 243 235 245
f 243 245 244
f 244 245 246
f 244 246 238
f 245 235 247
f 245 247 246
f 246 247 248
f 246 248 238
f 247 235 249
f 247 249 248
f 248 249 250
f 248 250 238
f 249 235 251
f 249 251 250
f 250 251 252
f 250 252 238
f 251 235 236
f 251 236 252
f 252 236 237
f 252 237 238
f 254 253 257
f 254 257 255
f 255 257 258
f 255 258 256
f 257 253 259
f 257 259 258
f 258 259 260
f 258 260 256
f 259 253 261
f 259 261 260
f 260 261 262
f 260 262 256
f 261 253 263
f 261 263 262
f 262 263 264
f 262 264 256
f 263 253 265
f 263 265 264
f 264 265 266
f 264 266 256
f 265 253 267
f 265 267 266
f 266 267 268
f 266 268 256
f 267 253 269
f 267 269 268
f 268 269 270
f 268 270 256
f 269 253 254
f 269 254 270
f 270 254 255
f 270 255 256
f 272 271 275
f 272 275 273
f 273 275 276
f 273 276 274
f 275 271 277
f 275 277 276
f 276 277 278
f 276 278 274
f 277 271 279
f 277 279 278
f 278 279 280
f 278 280 274
f 279 271 281
f 279 281 280
f 280 281 282
f 280 282 274
f 281 271 283
f 281 283 282
f 282 283 284
f 282 284 274
f 283 271 285
f 283 285 284
f 284 285 286
f 284 286 274
f 285 271 287
f 285 287 286
f 286 287 288
f 286 288 274
f 287 271 272
f 287 272 288
f 288 272 273
f 288 273 274
f 290 289 293
f 290 293 291
f 291 293 294
f 291 294 292
f 293 289 295
f 293 295 294
f 294 295 296
f 294 296 292
f 295 289 297
f 295 297 296
f 296 297 298
f 296 298 292
f 297 289 299
f 297 299 298
f 298 299 300
f 298 300 292
f 299 289 301
f 299 301 300
f 300 301 302
f 300 302 292
f 301 289 303
f 301 303 302
f 302 303 304
f 302 304 292
f 303 289 305
f 303 305 304
f 304 305 306
f 304 306 292
f 305 289 290
f 305 290 306
f 306 290 291
f 306 291 292
f 307 344 323
f 344 318 347
f 323 347 312
f 344 347 323
f 307 323 319
f 323 312 324
f 319 324 308
f 323 324 319
f 307 319 328
f 319 308 329
f 328 329 314
f 319 329 328
f 307 328 340
f 328 314 343
f 340 343 317
f 328 343 340
f 307 340 344
f 340 317 348
f 344 348 318
f 340 348 344
f 308 324 335
f 324 312 338
f 335 338 316
f 324 338 335
f 312 347 325
f 347 318 346
f 325 346 311
f 347 346 325
f 318 348 345
f 348 317 341
f 345 341 309
f 348 341 345
f 317 343 342
f 343 314 330
f 342 330 313
f 343 330 342
f 314 329 334
f 329 308 331
f 334 331 315
f 329 331 334
f 310 336 322
f 336 316 337
f 322 337 311
f 336 337 322
f 310 322 320
f 322 311 321
f 320 321 309
f 322 321 320
f 310 320 327
f 320 309 326
f 327 326 313
f 320 326 327
f 310 327 332
f 327 313 333
f 332 333 315
f 327 333 332
f 310 332 336
f 332 315 339
f 336 339 316
f 332 339 336
f 311 337 325
f 337 316 338
f 325 338 312
f 337 338 325
f 309 321 345
f 321 311 346
f 345 346 318
f 321 346 345
f 313 326 342
f 326 309 341
f 342 341 317
f 326 341 342
f 315 333 334
f 333 313 330
f 334 330 314
f 333 330 334
f 316 339 335
f 339 315 331
f 335 331 308
f 339 331 335
f 349 386 365
f 386 360 389
f 365 389 354
f 386 389 365
f 349 365 361
f 365 354 366
f 361 366 350
f 365 366 361
f 349 361 370
f 361 350 371
f 370 371 356
f 361 371 370
f 349 370 382
f 370 356 385
f 382 385 359
f 370 385 382
f 349 382 386
f 382 359 390
f 386 390 360
f 382 390 386
f 350 366 377
f 366 354 380
f 377 380 358
f 366 380 377
f 354 389 367
f 389 360 388
f 367 388 353
f 389 388 367
f 360 390 387
f 390 359 383
f 387 383 351
f 390 383 387
f 359 385 384
f 385 356 372
f 384 372 355
f 385 372 384
f 356 371 376
f 371 350 373
f 376 373 357
f 371 373 376
f 352 378 364
f 378 358 379
f 364 379 353
f 378 379 364
f 352 364 362
f 364 353 363
f 362 363 351
f 364 363 362
f 352 362 369
f 362 351 368
f 369 368 355
f 362 368 369
f 352 369 374
f 369 355 375
f 374 375 357
f 369 375 374
f 352 374 378
f 374 357 381
f 378 381 358
f 374 381 378
f 353 379 367
f 379 358 380
f 367 380 354
f 379 380 367
f 351 363 387
f 363 353 388
f 387 388 360
f 363 388 387
f 355 368 384
f 368 351 383
f 384 383 359
f 368 383 384
f 357 375 376
f 375 355 372
f 376 372 356
f 375 372 376
f 358 381 377
f 381 357 373
f 377 373 350
f 381 373 377

