# https://github.com/mikedh/trimesh
v -0.14561908 0.15040069 0.00000000
v 0.25905732 0.15040069 0.00000000
v -0.14561908 -0.16937568 0.00000000
v 0.25905732 -0.16937568 0.00000000
v 0.05671912 -0.10830383 0.10659212
v 0.05671912 0.08932883 0.10659212
v 0.05671912 -0.10830383 -0.10659212
v 0.05671912 0.08932883 -0.10659212
v 0.38410920 -0.00948750 -0.06587755
v 0.38410920 -0.00948750 0.06587755
v -0.27067097 -0.00948750 -0.06587755
v -0.27067097 -0.00948750 0.06587755
v 0.05671912 0.17847233 0.00000000
v 0.05671912 -0.19744733 0.00000000
v -0.06221229 -0.16155019 0.06265328
v 0.17565053 -0.16155019 0.06265328
v -0.06221229 0.14257520 0.06265328
v 0.17565053 0.14257520 0.06265328
v 0.05671912 -0.00948750 0.12530655
v -0.06221229 -0.16155019 -0.06265328
v 0.17565053 -0.16155019 -0.06265328
v -0.06221229 0.14257520 -0.06265328
v 0.17565053 0.14257520 -0.06265328
v 0.05671912 -0.00948750 -0.12530655
v 0.36808559 0.08449242 -0.03872185
v 0.36808559 -0.10346741 -0.03872185
v 0.24915418 -0.06757028 -0.10137513
v 0.24915418 0.04859529 -0.10137513
v 0.36808559 0.08449242 0.03872185
v 0.36808559 -0.10346741 0.03872185
v 0.24915418 -0.06757028 0.10137513
v 0.24915418 0.04859529 0.10137513
v 0.44158925 -0.00948750 0.00000000
v -0.25464736 0.08449242 -0.03872185
v -0.25464736 -0.10346741 -0.03872185
v -0.13571595 -0.06757028 -0.10137513
v -0.13571595 0.04859529 -0.10137513
v -0.25464736 0.08449242 0.03872185
v -0.25464736 -0.10346741 0.03872185
v -0.13571595 -0.06757028 0.10137513
v -0.13571595 0.04859529 0.10137513
v -0.32815101 -0.00948750 0.00000000
v -0.04845301 0.17131827 0.00000000
v 0.16189124 0.17131827 0.00000000
v -0.04845301 -0.19029327 0.00000000
v 0.16189124 -0.19029327 0.00000000
v -0.11027163 -0.17163452 0.03256616
v -0.00509951 -0.13989036 0.08797102
v -0.00580683 -0.18824792 0.03293878
v 0.22370986 -0.17163452 0.03256616
v 0.11853774 -0.13989036 0.08797102
v 0.11924506 -0.18824792 0.03293878
v 0.05671912 -0.16937568 0.06587755
v -0.11027163 0.15265952 0.03256616
v -0.00509951 0.12091536 0.08797102
v -0.00580683 0.16927293 0.03293878
v 0.22370986 0.15265952 0.03256616
v 0.11853774 0.12091536 0.08797102
v 0.11924506 0.16927293 0.03293878
v 0.05671912 0.15040069 0.06587755
v 0.05671912 -0.06085063 0.12053718
v 0.05671912 0.04187563 0.12053718
v -0.11027163 -0.17163452 -0.03256616
v -0.00509951 -0.13989036 -0.08797102
v -0.00580683 -0.18824792 -0.03293878
v 0.22370986 -0.17163452 -0.03256616
v 0.11853774 -0.13989036 -0.08797102
v 0.11924506 -0.18824792 -0.03293878
v 0.05671912 -0.16937568 -0.06587755
v -0.11027163 0.15265952 -0.03256616
v -0.00509951 0.12091536 -0.08797102
v -0.00580683 0.16927293 -0.03293878
v 0.22370986 0.15265952 -0.03256616
v 0.11853774 0.12091536 -0.08797102
v 0.11924506 0.16927293 -0.03293878
v 0.05671912 0.15040069 -0.06587755
v 0.05671912 -0.06085063 -0.12053718
v 0.05671912 0.04187563 -0.12053718
v 0.32373450 0.12246903 -0.02012699
v 0.38873445 0.03936174 -0.05436908
v 0.28294010 0.11986476 -0.05329606
v 0.32373450 -0.14144403 -0.02012699
v 0.38873445 -0.05833674 -0.05436908
v 0.28294010 -0.13883975 -0.05329606
v 0.15674375 -0.09104112 -0.10809801
v 0.32691582 -0.03967799 -0.08693524
v 0.22041416 -0.11996751 -0.08623484
v 0.15788822 -0.04002342 -0.11917361
v 0.32158326 -0.08943159 -0.07365334
v 0.15674375 0.07206612 -0.10809801
v 0.32691582 0.02070299 -0.08693524
v 0.22041416 0.10099252 -0.08623484
v 0.15788822 0.02104843 -0.11917361
v 0.32158326 0.07045659 -0.07365334
v 0.25905732 -0.00948750 -0.10659212
v 0.32373450 0.12246903 0.02012699
v 0.38873445 0.03936174 0.05436908
v 0.28294010 0.11986476 0.05329606
v 0.38410920 0.08932883 0.00000000
v 0.32373450 -0.14144403 0.02012699
v 0.38873445 -0.05833674 0.05436908
v 0.28294010 -0.13883975 0.05329606
v 0.38410920 -0.10830383 0.00000000
v 0.15674375 -0.09104112 0.10809801
v 0.32691582 -0.03967799 0.08693524
v 0.22041416 -0.11996751 0.08623484
v 0.15788822 -0.04002342 0.11917361
v 0.32158326 -0.08943159 0.07365334
v 0.15674375 0.07206612 0.10809801
v 0.32691582 0.02070299 0.08693524
v 0.22041416 0.10099252 0.08623484
v 0.15788822 0.02104843 0.11917361
v 0.32158326 0.07045659 0.07365334
v 0.25905732 -0.00948750 0.10659212
v 0.42694046 -0.00948750 -0.03424209
v 0.42694046 -0.00948750 0.03424209
v 0.42275236 0.03992067 -0.02035728
v 0.42275236 -0.05889566 -0.02035728
v 0.42275236 0.03992067 0.02035728
v 0.42275236 -0.05889566 0.02035728
v -0.21029627 0.12246903 -0.02012699
v -0.27529621 0.03936174 -0.05436908
v -0.16950187 0.11986476 -0.05329606
v -0.21029627 -0.14144403 -0.02012699
v -0.27529621 -0.05833674 -0.05436908
v -0.16950187 -0.13883975 -0.05329606
v -0.04330552 -0.09104112 -0.10809801
v -0.21347759 -0.03967799 -0.08693524
v -0.10697593 -0.11996751 -0.08623484
v -0.04444998 -0.04002342 -0.11917361
v -0.20814503 -0.08943159 -0.07365334
v -0.04330552 0.07206612 -0.10809801
v -0.21347759 0.02070299 -0.08693524
v -0.10697593 0.10099252 -0.08623484
v -0.04444998 0.02104843 -0.11917361
v -0.20814503 0.07045659 -0.07365334
v -0.14561908 -0.00948750 -0.10659212
v -0.21029627 0.12246903 0.02012699
v -0.27529621 0.03936174 0.05436908
v -0.16950187 0.11986476 0.05329606
v -0.27067097 0.08932883 0.00000000
v -0.21029627 -0.14144403 0.02012699
v -0.27529621 -0.05833674 0.05436908
v -0.16950187 -0.13883975 0.05329606
v -0.27067097 -0.10830383 0.00000000
v -0.04330552 -0.09104112 0.10809801
v -0.21347759 -0.03967799 0.08693524
v -0.10697593 -0.11996751 0.08623484
v -0.04444998 -0.04002342 0.11917361
v -0.20814503 -0.08943159 0.07365334
v -0.04330552 0.07206612 0.10809801
v -0.21347759 0.02070299 0.08693524
v -0.10697593 0.10099252 0.08623484
v -0.04444998 0.02104843 0.11917361
v -0.20814503 0.07045659 0.07365334
v -0.14561908 -0.00948750 0.10659212
v -0.31350222 -0.00948750 -0.03424209
v -0.31350222 -0.00948750 0.03424209
v -0.30931413 0.03992067 -0.02035728
v -0.30931413 -0.05889566 -0.02035728
v -0.30931413 0.03992067 0.02035728
v -0.30931413 -0.05889566 0.02035728
v -0.29950951 -0.00948750 -0.02004905
v -0.50000000 0.16343555 -0.02004905
v -0.50000000 -0.18241054 -0.02004905
v -0.29950951 -0.00948750 0.02004905
v -0.50000000 0.16343555 0.02004905
v -0.50000000 -0.18241054 0.02004905
v 0.00301631 0.13336197 -0.01754292
v -0.20105437 0.12584358 -0.01754292
v -0.10438931 0.19744733 -0.01754292
v 0.00301631 0.13336197 0.01754292
v -0.20105437 0.12584358 0.01754292
v -0.10438931 0.19744733 0.01754292
v 0.09252099 -0.01664787 -0.01503679
v -0.10080912 -0.02022806 -0.01503679
v -0.12945062 -0.17489215 -0.01503679
v 0.09252099 -0.01664787 0.01503679
v -0.10080912 -0.02022806 0.01503679
v -0.12945062 -0.17489215 0.01503679
v 0.22297423 0.12657735 0.00000000
v 0.41388738 0.12657735 0.00000000
v 0.22297423 -0.14555234 0.00000000
v 0.41388738 -0.14555234 0.00000000
v 0.31843080 -0.09358019 0.10659212
v 0.31843080 0.07460520 0.10659212
v 0.31843080 -0.09358019 -0.10659212
v 0.31843080 0.07460520 -0.10659212
v 0.47288279 -0.00948750 -0.06587755
v 0.47288279 -0.00948750 0.06587755
v 0.16397882 -0.00948750 -0.06587755
v 0.16397882 -0.00948750 0.06587755
v 0.31843080 0.15046632 0.00000000
v 0.31843080 -0.16944131 0.00000000
v 0.26232284 -0.13889285 0.06265328
v 0.37453877 -0.13889285 0.06265328
v 0.26232284 0.11991786 0.06265328
v 0.37453877 0.11991786 0.06265328
v 0.31843080 -0.00948750 0.12530655
v 0.26232284 -0.13889285 -0.06265328
v 0.37453877 -0.13889285 -0.06265328
v 0.26232284 0.11991786 -0.06265328
v 0.37453877 0.11991786 -0.06265328
v 0.31843080 -0.00948750 -0.12530655
v 0.46532337 0.07048941 -0.03872185
v 0.46532337 -0.08946440 -0.03872185
v 0.40921540 -0.05891594 -0.10137513
v 0.40921540 0.03994095 -0.10137513
v 0.46532337 0.07048941 0.03872185
v 0.46532337 -0.08946440 0.03872185
v 0.40921540 -0.05891594 0.10137513
v 0.40921540 0.03994095 0.10137513
v 0.50000000 -0.00948750 0.00000000
v 0.17153824 0.07048941 -0.03872185
v 0.17153824 -0.08946440 -0.03872185
v 0.22764621 -0.05891594 -0.10137513
v 0.22764621 0.03994095 -0.10137513
v 0.17153824 0.07048941 0.03872185
v 0.17153824 -0.08946440 0.03872185
v 0.22764621 -0.05891594 0.10137513
v 0.22764621 0.03994095 0.10137513
v 0.13686161 -0.00948750 0.00000000
f 1 138 54
f 138 38 140
f 54 140 17
f 138 140 54
f 38 139 155
f 139 12 152
f 155 152 41
f 139 152 155
f 17 153 55
f 153 41 151
f 55 151 6
f 153 151 55
f 38 155 140
f 155 41 153
f 140 153 17
f 155 153 140
f 1 54 43
f 54 17 56
f 43 56 13
f 54 56 43
f 17 55 60
f 55 6 58
f 60 58 18
f 55 58 60
f 13 59 44
f 59 18 57
f 44 57 2
f 59 57 44
f 17 60 56
f 60 18 59
f 56 59 13
f 60 59 56
f 1 43 70
f 43 13 72
f 70 72 22
f 43 72 70
f 13 44 75
f 44 2 73
f 75 73 23
f 44 73 75
f 22 76 71
f 76 23 74
f 71 74 8
f 76 74 71
f 13 75 72
f 75 23 76
f 72 76 22
f 75 76 72
f 1 70 121
f 70 22 123
f 121 123 34
f 70 123 121
f 22 71 134
f 71 8 132
f 134 132 37
f 71 132 134
f 34 136 122
f 136 37 133
f 122 133 11
f 136 133 122
f 22 134 123
f 134 37 136
f 123 136 34
f 134 136 123
f 1 121 138
f 121 34 141
f 138 141 38
f 121 141 138
f 34 122 159
f 122 11 157
f 159 157 42
f 122 157 159
f 38 161 139
f 161 42 158
f 139 158 12
f 161 158 139
f 34 159 141
f 159 42 161
f 141 161 38
f 159 161 141
f 2 57 96
f 57 18 98
f 96 98 29
f 57 98 96
f 18 58 111
f 58 6 109
f 111 109 32
f 58 109 111
f 29 113 97
f 113 32 110
f 97 110 10
f 113 110 97
f 18 111 98
f 111 32 113
f 98 113 29
f 111 113 98
f 6 151 62
f 151 41 154
f 62 154 19
f 151 154 62
f 41 152 156
f 152 12 147
f 156 147 40
f 152 147 156
f 19 149 61
f 149 40 146
f 61 146 5
f 149 146 61
f 41 156 154
f 156 40 149
f 154 149 19
f 156 149 154
f 12 158 143
f 158 42 162
f 143 162 39
f 158 162 143
f 42 157 160
f 157 11 125
f 160 125 35
f 157 125 160
f 39 145 142
f 145 35 124
f 142 124 3
f 145 124 142
f 42 160 162
f 160 35 145
f 162 145 39
f 160 145 162
f 11 133 128
f 133 37 137
f 128 137 36
f 133 137 128
f 37 132 135
f 132 8 78
f 135 78 24
f 132 78 135
f 36 130 127
f 130 24 77
f 127 77 7
f 130 77 127
f 37 135 137
f 135 24 130
f 137 130 36
f 135 130 137
f 8 74 90
f 74 23 92
f 90 92 28
f 74 92 90
f 23 73 81
f 73 2 79
f 81 79 25
f 73 79 81
f 28 94 91
f 94 25 80
f 91 80 9
f 94 80 91
f 23 81 92
f 81 25 94
f 92 94 28
f 81 94 92
f 4 100 50
f 100 30 102
f 50 102 16
f 100 102 50
f 30 101 108
f 101 10 105
f 108 105 31
f 101 105 108
f 16 106 51
f 106 31 104
f 51 104 5
f 106 104 51
f 30 108 102
f 108 31 106
f 102 106 16
f 108 106 102
f 4 50 46
f 50 16 52
f 46 52 14
f 50 52 46
f 16 51 53
f 51 5 48
f 53 48 15
f 51 48 53
f 14 49 45
f 49 15 47
f 45 47 3
f 49 47 45
f 16 53 52
f 53 15 49
f 52 49 14
f 53 49 52
f 4 46 66
f 46 14 68
f 66 68 21
f 46 68 66
f 14 45 65
f 45 3 63
f 65 63 20
f 45 63 65
f 21 69 67
f 69 20 64
f 67 64 7
f 69 64 67
f 14 65 68
f 65 20 69
f 68 69 21
f 65 69 68
f 4 66 82
f 66 21 84
f 82 84 26
f 66 84 82
f 21 67 87
f 67 7 85
f 87 85 27
f 67 85 87
f 26 89 83
f 89 27 86
f 83 86 9
f 89 86 83
f 21 87 84
f 87 27 89
f 84 89 26
f 87 89 84
f 4 82 100
f 82 26 103
f 100 103 30
f 82 103 100
f 26 83 118
f 83 9 115
f 118 115 33
f 83 115 118
f 30 120 101
f 120 33 116
f 101 116 10
f 120 116 101
f 26 118 103
f 118 33 120
f 103 120 30
f 118 120 103
f 5 104 61
f 104 31 107
f 61 107 19
f 104 107 61
f 31 105 114
f 105 10 110
f 114 110 32
f 105 110 114
f 19 112 62
f 112 32 109
f 62 109 6
f 112 109 62
f 31 114 107
f 114 32 112
f 107 112 19
f 114 112 107
f 3 47 142
f 47 15 144
f 142 144 39
f 47 144 142
f 15 48 148
f 48 5 146
f 148 146 40
f 48 146 148
f 39 150 143
f 150 40 147
f 143 147 12
f 150 147 143
f 15 148 144
f 148 40 150
f 144 150 39
f 148 150 144
f 7 64 127
f 64 20 129
f 127 129 36
f 64 129 127
f 20 63 126
f 63 3 124
f 126 124 35
f 63 124 126
f 36 131 128
f 131 35 125
f 128 125 11
f 131 125 128
f 20 126 129
f 126 35 131
f 129 131 36
f 126 131 129
f 9 86 91
f 86 27 95
f 91 95 28
f 86 95 91
f 27 85 88
f 85 7 77
f 88 77 24
f 85 77 88
f 28 93 90
f 93 24 78
f 90 78 8
f 93 78 90
f 27 88 95
f 88 24 93
f 95 93 28
f 88 93 95
f 10 116 97
f 116 33 119
f 97 119 29
f 116 119 97
f 33 115 117
f 115 9 80
f 117 80 25
f 115 80 117
f 29 99 96
f 99 25 79
f 96 79 2
f 99 79 96
f 33 117 119
f 117 25 99
f 119 99 29
f 117 99 119
f 163 164 165
f 166 168 167
f 163 166 167
f 163 167 164
f 164 167 168
f 164 168 165
f 165 168 166
f 165 166 163
f 169 170 171
f 172 174 173
f 169 172 173
f 169 173 170
f 170 173 174
f 170 174 171
f 171 174 172
f 171 172 169
f 175 176 177
f 178 180 179
f 175 178 179
f 175 179 176
f 176 179 180
f 176 180 177
f 177 180 178
f 177 178 175
f 181 218 197
f 218 192 221
f 197 221 186
f 218 221 197
f 181 197 193
f 197 186 198
f 193 198 182
f 197 198 193
f 181 193 202
f 193 182 203
f 202 203 188
f 193 203 202
f 181 202 214
f 202 188 217
f 214 217 191
f 202 217 214
f 181 214 218
f 214 191 222
f 218 222 192
f 214 222 218
f 182 198 209
f 198 186 212
f 209 212 190
f 198 212 209
f 186 221 199
f 221 192 220
f 199 220 185
f 221 220 199
f 192 222 219
f 222 191 215
f 219 215 183
f 222 215 219
f 191 217 216
f 217 188 204
f 216 204 187
f 217 204 216
f 188 203 208
f 203 182 205
f 208 205 189
f 203 205 208
f 184 210 196
f 210 190 211
f 196 211 185
f 210 211 196
f 184 196 194
f 196 185 195
f 194 195 183
f 196 195 194
f 184 194 201
f 194 183 200
f 201 200 187
f 194 200 201
f 184 201 206
f 201 187 207
f 206 207 189
f 201 207 206
f 184 206 210
f 206 189 213
f 210 213 190
f 206 213 210
f 185 211 199
f 211 190 212
f 199 212 186
f 211 212 199
f 183 195 219
f 195 185 220
f 219 220 192
f 195 220 219
f 187 200 216
f 200 183 215
f 216 215 191
f 200 215 216
f 189 207 208
f 207 187 204
f 208 204 188
f 207 204 208
f 190 213 209
f 213 189 205
f 209 205 182
f 213 205 209

