# https://github.com/mikedh/trimesh
v -0.43693233 0.16795473 0.00000000
v -0.29711022 0.16795473 0.00000000
v -0.43693233 -0.13972747 0.00000000
v -0.29711022 -0.13972747 0.00000000
v -0.36702128 -0.08096540 0.09954424
v -0.36702128 0.10919266 0.09954424
v -0.36702128 -0.08096540 -0.09954424
v -0.36702128 0.10919266 -0.09954424
v -0.25390282 0.01411363 -0.06152173
v -0.25390282 0.01411363 0.06152173
v -0.48013974 0.01411363 -0.06152173
v -0.48013974 0.01411363 0.06152173
v -0.36702128 0.19496469 0.00000000
v -0.36702128 -0.16673743 0.00000000
v -0.40811396 -0.13219795 0.05851064
v -0.32592859 -0.13219795 0.05851064
v -0.40811396 0.16042521 0.05851064
v -0.32592859 0.16042521 0.05851064
v -0.36702128 0.01411363 0.11702128
v -0.40811396 -0.13219795 -0.05851064
v -0.32592859 -0.13219795 -0.05851064
v -0.40811396 0.16042521 -0.05851064
v -0.32592859 0.16042521 -0.05851064
v -0.36702128 0.01411363 -0.11702128
v -0.25943923 0.10453916 -0.03616156
v -0.25943923 -0.07631190 -0.03616156
v -0.30053191 -0.04177242 -0.09467220
v -0.30053191 0.06999968 -0.09467220
v -0.25943923 0.10453916 0.03616156
v -0.25943923 -0.07631190 0.03616156
v -0.30053191 -0.04177242 0.09467220
v -0.30053191 0.06999968 0.09467220
v -0.23404255 0.01411363 0.00000000
v -0.47460332 0.10453916 -0.03616156
v -0.47460332 -0.07631190 -0.03616156
v -0.43351064 -0.04177242 -0.09467220
v -0.43351064 0.06999968 -0.09467220
v -0.47460332 0.10453916 0.03616156
v -0.47460332 -0.07631190 0.03616156
v -0.43351064 -0.04177242 0.09467220
v -0.43351064 0.06999968 0.09467220
v -0.50000000 0.01411363 0.00000000
v -0.36702128 -0.04971616 0.06382979
v -0.36101774 -0.04575256 0.07501374
v -0.41420923 -0.20532703 0.16012012
v -0.42021277 -0.20929062 0.14893617
v -0.37073578 -0.04276549 0.07454072
v -0.42392727 -0.20233996 0.15964711
v -0.37827791 -0.04385003 0.06779338
v -0.43146940 -0.20342449 0.15289977
v -0.37922606 -0.04837086 0.05872422
v -0.43241755 -0.20794533 0.14383061
v -0.37302482 -0.05367975 0.05264583
v -0.42621630 -0.21325422 0.13775222
v -0.36330678 -0.05666682 0.05311885
v -0.41649827 -0.21624129 0.13822523
v -0.35576464 -0.05558229 0.05986619
v -0.40895613 -0.21515675 0.14497257
v -0.35481649 -0.05106145 0.06893535
v -0.40800798 -0.21063592 0.15404173
v -0.36702128 -0.04971616 -0.06382979
v -0.37302482 -0.05367975 -0.05264583
v -0.42621630 -0.21325422 -0.13775222
v -0.42021277 -0.20929062 -0.14893617
v -0.37922606 -0.04837086 -0.05872422
v -0.43241755 -0.20794533 -0.14383061
v -0.37827791 -0.04385003 -0.06779338
v -0.43146940 -0.20342449 -0.15289977
v -0.37073578 -0.04276549 -0.07454072
v -0.42392727 -0.20233996 -0.15964711
v -0.36101774 -0.04575256 -0.07501374
v -0.41420923 -0.20532703 -0.16012012
v -0.35481649 -0.05106145 -0.06893535
v -0.40800798 -0.21063592 -0.15404173
v -0.35576464 -0.05558229 -0.05986619
v -0.40895613 -0.21515675 -0.14497257
v -0.36330678 -0.05666682 -0.05311885
v -0.41649827 -0.21624129 -0.13822523
v -0.31991105 0.16795473 0.00000000
v -0.18008895 0.16795473 0.00000000
v -0.31991105 -0.13972747 0.00000000
v -0.18008895 -0.13972747 0.00000000
v -0.25000000 -0.08096540 0.09954424
v -0.25000000 0.10919266 0.09954424
v -0.25000000 -0.08096540 -0.09954424
v -0.25000000 0.10919266 -0.09954424
v -0.13688154 0.01411363 -0.06152173
v -0.13688154 0.01411363 0.06152173
v -0.36311846 0.01411363 -0.06152173
v -0.36311846 0.01411363 0.06152173
v -0.25000000 0.19496469 0.00000000
v -0.25000000 -0.16673743 0.00000000
v -0.29109269 -0.13219795 0.05851064
v -0.20890731 -0.13219795 0.05851064
v -0.29109269 0.16042521 0.05851064
v -0.20890731 0.16042521 0.05851064
v -0.25000000 0.01411363 0.11702128
v -0.29109269 -0.13219795 -0.05851064
v -0.20890731 -0.13219795 -0.05851064
v -0.29109269 0.16042521 -0.05851064
v -0.20890731 0.16042521 -0.05851064
v -0.25000000 0.01411363 -0.11702128
v -0.14241795 0.10453916 -0.03616156
v -0.14241795 -0.07631190 -0.03616156
v -0.18351064 -0.04177242 -0.09467220
v -0.18351064 0.06999968 -0.09467220
v -0.14241795 0.10453916 0.03616156
v -0.14241795 -0.07631190 0.03616156
v -0.18351064 -0.04177242 0.09467220
v -0.18351064 0.06999968 0.09467220
v -0.11702128 0.01411363 0.00000000
v -0.35758205 0.10453916 -0.03616156
v -0.35758205 -0.07631190 -0.03616156
v -0.31648936 -0.04177242 -0.09467220
v -0.31648936 0.06999968 -0.09467220
v -0.35758205 0.10453916 0.03616156
v -0.35758205 -0.07631190 0.03616156
v -0.31648936 -0.04177242 0.09467220
v -0.31648936 0.06999968 0.09467220
v -0.38297872 0.01411363 0.00000000
v -0.25000000 -0.04971616 0.06382979
v -0.24399646 -0.04575256 0.07501374
v -0.29718795 -0.20532703 0.16012012
v -0.30319149 -0.20929062 0.14893617
v -0.25371450 -0.04276549 0.07454072
v -0.30690599 -0.20233996 0.15964711
v -0.26125664 -0.04385003 0.06779338
v -0.31444812 -0.20342449 0.15289977
v -0.26220479 -0.04837086 0.05872422
v -0.31539628 -0.20794533 0.14383061
v -0.25600354 -0.05367975 0.05264583
v -0.30919503 -0.21325422 0.13775222
v -0.24628550 -0.05666682 0.05311885
v -0.29947699 -0.21624129 0.13822523
v -0.23874336 -0.05558229 0.05986619
v -0.29193485 -0.21515675 0.14497257
v -0.23779521 -0.05106145 0.06893535
v -0.29098670 -0.21063592 0.15404173
v -0.25000000 -0.04971616 -0.06382979
v -0.25600354 -0.05367975 -0.05264583
v -0.30919503 -0.21325422 -0.13775222
v -0.30319149 -0.20929062 -0.14893617
v -0.26220479 -0.04837086 -0.05872422
v -0.31539628 -0.20794533 -0.14383061
v -0.26125664 -0.04385003 -0.06779338
v -0.31444812 -0.20342449 -0.15289977
v -0.25371450 -0.04276549 -0.07454072
v -0.30690599 -0.20233996 -0.15964711
v -0.24399646 -0.04575256 -0.07501374
v -0.29718795 -0.20532703 -0.16012012
v -0.23779521 -0.05106145 -0.06893535
v -0.29098670 -0.21063592 -0.15404173
v -0.23874336 -0.05558229 -0.05986619
v -0.29193485 -0.21515675 -0.14497257
v -0.24628550 -0.05666682 -0.05311885
v -0.29947699 -0.21624129 -0.13822523
v -0.20288978 0.16795473 0.00000000
v -0.06306767 0.16795473 0.00000000
v -0.20288978 -0.13972747 0.00000000
v -0.06306767 -0.13972747 0.00000000
v -0.13297872 -0.08096540 0.09954424
v -0.13297872 0.10919266 0.09954424
v -0.13297872 -0.08096540 -0.09954424
v -0.13297872 0.10919266 -0.09954424
v -0.01986026 0.01411363 -0.06152173
v -0.01986026 0.01411363 0.06152173
v -0.24609718 0.01411363 -0.06152173
v -0.24609718 0.01411363 0.06152173
v -0.13297872 0.19496469 0.00000000
v -0.13297872 -0.16673743 0.00000000
v -0.17407141 -0.13219795 0.05851064
v -0.09188604 -0.13219795 0.05851064
v -0.17407141 0.16042521 0.05851064
v -0.09188604 0.16042521 0.05851064
v -0.13297872 0.01411363 0.11702128
v -0.17407141 -0.13219795 -0.05851064
v -0.09188604 -0.13219795 -0.05851064
v -0.17407141 0.16042521 -0.05851064
v -0.09188604 0.16042521 -0.05851064
v -0.13297872 0.01411363 -0.11702128
v -0.02539668 0.10453916 -0.03616156
v -0.02539668 -0.07631190 -0.03616156
v -0.06648936 -0.04177242 -0.09467220
v -0.06648936 0.06999968 -0.09467220
v -0.02539668 0.10453916 0.03616156
v -0.02539668 -0.07631190 0.03616156
v -0.06648936 -0.04177242 0.09467220
v -0.06648936 0.06999968 0.09467220
v 0.00000000 0.01411363 0.00000000
v -0.24056077 0.10453916 -0.03616156
v -0.24056077 -0.07631190 -0.03616156
v -0.19946809 -0.04177242 -0.09467220
v -0.19946809 0.06999968 -0.09467220
v -0.24056077 0.10453916 0.03616156
v -0.24056077 -0.07631190 0.03616156
v -0.19946809 -0.04177242 0.09467220
v -0.19946809 0.06999968 0.09467220
v -0.26595745 0.01411363 0.00000000
v -0.13297872 -0.04971616 0.06382979
v -0.12697518 -0.04575256 0.07501374
v -0.18016667 -0.20532703 0.16012012
v -0.18617021 -0.20929062 0.14893617
v -0.13669322 -0.04276549 0.07454072
v -0.18988471 -0.20233996 0.15964711
v -0.14423536 -0.04385003 0.06779338
v -0.19742685 -0.20342449 0.15289977
v -0.14518351 -0.04837086 0.05872422
v -0.19837500 -0.20794533 0.14383061
v -0.13898226 -0.05367975 0.05264583
v -0.19217375 -0.21325422 0.13775222
v -0.12926422 -0.05666682 0.05311885
v -0.18245571 -0.21624129 0.13822523
v -0.12172209 -0.05558229 0.05986619
v -0.17491358 -0.21515675 0.14497257
v -0.12077394 -0.05106145 0.06893535
v -0.17396543 -0.21063592 0.15404173
v -0.13297872 -0.04971616 -0.06382979
v -0.13898226 -0.05367975 -0.05264583
v -0.19217375 -0.21325422 -0.13775222
v -0.18617021 -0.20929062 -0.14893617
v -0.14518351 -0.04837086 -0.05872422
v -0.19837500 -0.20794533 -0.14383061
v -0.14423536 -0.04385003 -0.06779338
v -0.19742685 -0.20342449 -0.15289977
v -0.13669322 -0.04276549 -0.07454072
v -0.18988471 -0.20233996 -0.15964711
v -0.12697518 -0.04575256 -0.07501374
v -0.18016667 -0.20532703 -0.16012012
v -0.12077394 -0.05106145 -0.06893535
v -0.17396543 -0.21063592 -0.15404173
v -0.12172209 -0.05558229 -0.05986619
v -0.17491358 -0.21515675 -0.14497257
v -0.12926422 -0.05666682 -0.05311885
v -0.18245571 -0.21624129 -0.13822523
v -0.08586850 0.16795473 0.00000000
v 0.05395361 0.16795473 0.00000000
v -0.08586850 -0.13972747 0.00000000
v 0.05395361 -0.13972747 0.00000000
v -0.01595745 -0.08096540 0.09954424
v -0.01595745 0.10919266 0.09954424
v -0.01595745 -0.08096540 -0.09954424
v -0.01595745 0.10919266 -0.09954424
v 0.09716101 0.01411363 -0.06152173
v 0.09716101 0.01411363 0.06152173
v -0.12907591 0.01411363 -0.06152173
v -0.12907591 0.01411363 0.06152173
v -0.01595745 0.19496469 0.00000000
v -0.01595745 -0.16673743 0.00000000
v -0.05705013 -0.13219795 0.05851064
v 0.02513524 -0.13219795 0.05851064
v -0.05705013 0.16042521 0.05851064
v 0.02513524 0.16042521 0.05851064
v -0.01595745 0.01411363 0.11702128
v -0.05705013 -0.13219795 -0.05851064
v 0.02513524 -0.13219795 -0.05851064
v -0.05705013 0.16042521 -0.05851064
v 0.02513524 0.16042521 -0.05851064
v -0.01595745 0.01411363 -0.11702128
v 0.09162460 0.10453916 -0.03616156
v 0.09162460 -0.07631190 -0.03616156
v 0.05053191 -0.04177242 -0.09467220
v 0.05053191 0.06999968 -0.09467220
v 0.09162460 0.10453916 0.03616156
v 0.09162460 -0.07631190 0.03616156
v 0.05053191 -0.04177242 0.09467220
v 0.05053191 0.06999968 0.09467220
v 0.11702128 0.01411363 0.00000000
v -0.12353949 0.10453916 -0.03616156
v -0.12353949 -0.07631190 -0.03616156
v -0.08244681 -0.04177242 -0.09467220
v -0.08244681 0.06999968 -0.09467220
v -0.12353949 0.10453916 0.03616156
v -0.12353949 -0.07631190 0.03616156
v -0.08244681 -0.04177242 0.09467220
v -0.08244681 0.06999968 0.09467220
v -0.14893617 0.01411363 0.00000000
v -0.01595745 -0.04971616 0.06382979
v -0.00995391 -0.04575256 0.07501374
v -0.06314540 -0.20532703 0.16012012
v -0.06914894 -0.20929062 0.14893617
v -0.01967195 -0.04276549 0.07454072
v -0.07286344 -0.20233996 0.15964711
v -0.02721408 -0.04385003 0.06779338
v -0.08040557 -0.20342449 0.15289977
v -0.02816223 -0.04837086 0.05872422
v -0.08135372 -0.20794533 0.14383061
v -0.02196099 -0.05367975 0.05264583
v -0.07515247 -0.21325422 0.13775222
v -0.01224295 -0.05666682 0.05311885
v -0.06543444 -0.21624129 0.13822523
v -0.00470081 -0.05558229 0.05986619
v -0.05789230 -0.21515675 0.14497257
v -0.00375266 -0.05106145 0.06893535
v -0.05694415 -0.21063592 0.15404173
v -0.01595745 -0.04971616 -0.06382979
v -0.02196099 -0.05367975 -0.05264583
v -0.07515247 -0.21325422 -0.13775222
v -0.06914894 -0.20929062 -0.14893617
v -0.02816223 -0.04837086 -0.05872422
v -0.08135372 -0.20794533 -0.14383061
v -0.02721408 -0.04385003 -0.06779338
v -0.08040557 -0.20342449 -0.15289977
v -0.01967195 -0.04276549 -0.07454072
v -0.07286344 -0.20233996 -0.15964711
v -0.00995391 -0.04575256 -0.07501374
v -0.06314540 -0.20532703 -0.16012012
v -0.00375266 -0.05106145 -0.06893535
v -0.05694415 -0.21063592 -0.15404173
v -0.00470081 -0.05558229 -0.05986619
v -0.05789230 -0.21515675 -0.14497257
v -0.01224295 -0.05666682 -0.05311885
v -0.06543444 -0.21624129 -0.13822523
v 0.03115278 0.16795473 0.00000000
v 0.17097488 0.16795473 0.00000000
v 0.03115278 -0.13972747 0.00000000
v 0.17097488 -0.13972747 0.00000000
v 0.10106383 -0.08096540 0.09954424
v 0.10106383 0.10919266 0.09954424
v 0.10106383 -0.08096540 -0.09954424
v 0.10106383 0.10919266 -0.09954424
v 0.21418229 0.01411363 -0.06152173
v 0.21418229 0.01411363 0.06152173
v -0.01205463 0.01411363 -0.06152173
v -0.01205463 0.01411363 0.06152173
v 0.10106383 0.19496469 0.00000000
v 0.10106383 -0.16673743 0.00000000
v 0.05997114 -0.13219795 0.05851064
v 0.14215652 -0.13219795 0.05851064
v 0.05997114 0.16042521 0.05851064
v 0.14215652 0.16042521 0.05851064
v 0.10106383 0.01411363 0.11702128
v 0.05997114 -0.13219795 -0.05851064
v 0.14215652 -0.13219795 -0.05851064
v 0.05997114 0.16042521 -0.05851064
v 0.14215652 0.16042521 -0.05851064
v 0.10106383 0.01411363 -0.11702128
v 0.20864588 0.10453916 -0.03616156
v 0.20864588 -0.07631190 -0.03616156
v 0.16755319 -0.04177242 -0.09467220
v 0.16755319 0.06999968 -0.09467220
v 0.20864588 0.10453916 0.03616156
v 0.20864588 -0.07631190 0.03616156
v 0.16755319 -0.04177242 0.09467220
v 0.16755319 0.06999968 0.09467220
v 0.23404255 0.01411363 0.00000000
v -0.00651822 0.10453916 -0.03616156
v -0.00651822 -0.07631190 -0.03616156
v 0.03457447 -0.04177242 -0.09467220
v 0.03457447 0.06999968 -0.09467220
v -0.00651822 0.10453916 0.03616156
v -0.00651822 -0.07631190 0.03616156
v 0.03457447 -0.04177242 0.09467220
v 0.03457447 0.06999968 0.09467220
v -0.03191489 0.01411363 0.00000000
v 0.10106383 -0.04971616 0.06382979
v 0.10706737 -0.04575256 0.07501374
v 0.05387588 -0.20532703 0.16012012
v 0.04787234 -0.20929062 0.14893617
v 0.09734933 -0.04276549 0.07454072
v 0.04415784 -0.20233996 0.15964711
v 0.08980719 -0.04385003 0.06779338
v 0.03661571 -0.20342449 0.15289977
v 0.08885904 -0.04837086 0.05872422
v 0.03566755 -0.20794533 0.14383061
v 0.09506029 -0.05367975 0.05264583
v 0.04186880 -0.21325422 0.13775222
v 0.10477833 -0.05666682 0.05311885
v 0.05158684 -0.21624129 0.13822523
v 0.11232047 -0.05558229 0.05986619
v 0.05912898 -0.21515675 0.14497257
v 0.11326862 -0.05106145 0.06893535
v 0.06007713 -0.21063592 0.15404173
v 0.10106383 -0.04971616 -0.06382979
v 0.09506029 -0.05367975 -0.05264583
v 0.04186880 -0.21325422 -0.13775222
v 0.04787234 -0.20929062 -0.14893617
v 0.08885904 -0.04837086 -0.05872422
v 0.03566755 -0.20794533 -0.14383061
v 0.08980719 -0.04385003 -0.06779338
v 0.03661571 -0.20342449 -0.15289977
v 0.09734933 -0.04276549 -0.07454072
v 0.04415784 -0.20233996 -0.15964711
v 0.10706737 -0.04575256 -0.07501374
v 0.05387588 -0.20532703 -0.16012012
v 0.11326862 -0.05106145 -0.06893535
v 0.06007713 -0.21063592 -0.15404173
v 0.11232047 -0.05558229 -0.05986619
v 0.05912898 -0.21515675 -0.14497257
v 0.10477833 -0.05666682 -0.05311885
v 0.05158684 -0.21624129 -0.13822523
v 0.14817405 0.16795473 0.00000000
v 0.28799616 0.16795473 0.00000000
v 0.14817405 -0.13972747 0.00000000
v 0.28799616 -0.13972747 0.00000000
v 0.21808511 -0.08096540 0.09954424
v 0.21808511 0.10919266 0.09954424
v 0.21808511 -0.08096540 -0.09954424
v 0.21808511 0.10919266 -0.09954424
v 0.33120356 0.01411363 -0.06152173
v 0.33120356 0.01411363 0.06152173
v 0.10496665 0.01411363 -0.06152173
v 0.10496665 0.01411363 0.06152173
v 0.21808511 0.19496469 0.00000000
v 0.21808511 -0.16673743 0.00000000
v 0.17699242 -0.13219795 0.05851064
v 0.25917779 -0.13219795 0.05851064
v 0.17699242 0.16042521 0.05851064
v 0.25917779 0.16042521 0.05851064
v 0.21808511 0.01411363 0.11702128
v 0.17699242 -0.13219795 -0.05851064
v 0.25917779 -0.13219795 -0.05851064
v 0.17699242 0.16042521 -0.05851064
v 0.25917779 0.16042521 -0.05851064
v 0.21808511 0.01411363 -0.11702128
v 0.32566715 0.10453916 -0.03616156
v 0.32566715 -0.07631190 -0.03616156
v 0.28457447 -0.04177242 -0.09467220
v 0.28457447 0.06999968 -0.09467220
v 0.32566715 0.10453916 0.03616156
v 0.32566715 -0.07631190 0.03616156
v 0.28457447 -0.04177242 0.09467220
v 0.28457447 0.06999968 0.09467220
v 0.35106383 0.01411363 0.00000000
v 0.11050306 0.10453916 -0.03616156
v 0.11050306 -0.07631190 -0.03616156
v 0.15159574 -0.04177242 -0.09467220
v 0.15159574 0.06999968 -0.09467220
v 0.11050306 0.10453916 0.03616156
v 0.11050306 -0.07631190 0.03616156
v 0.15159574 -0.04177242 0.09467220
v 0.15159574 0.06999968 0.09467220
v 0.08510638 0.01411363 0.00000000
v 0.21808511 -0.04971616 0.06382979
v 0.22408865 -0.04575256 0.07501374
v 0.17089716 -0.20532703 0.16012012
v 0.16489362 -0.20929062 0.14893617
v 0.21437061 -0.04276549 0.07454072
v 0.16117912 -0.20233996 0.15964711
v 0.20682847 -0.04385003 0.06779338
v 0.15363698 -0.20342449 0.15289977
v 0.20588032 -0.04837086 0.05872422
v 0.15268883 -0.20794533 0.14383061
v 0.21208157 -0.05367975 0.05264583
v 0.15889008 -0.21325422 0.13775222
v 0.22179961 -0.05666682 0.05311885
v 0.16860812 -0.21624129 0.13822523
v 0.22934174 -0.05558229 0.05986619
v 0.17615025 -0.21515675 0.14497257
v 0.23028989 -0.05106145 0.06893535
v 0.17709840 -0.21063592 0.15404173
v 0.21808511 -0.04971616 -0.06382979
v 0.21208157 -0.05367975 -0.05264583
v 0.15889008 -0.21325422 -0.13775222
v 0.16489362 -0.20929062 -0.14893617
v 0.20588032 -0.04837086 -0.05872422
v 0.15268883 -0.20794533 -0.14383061
v 0.20682847 -0.04385003 -0.06779338
v 0.15363698 -0.20342449 -0.15289977
v 0.21437061 -0.04276549 -0.07454072
v 0.16117912 -0.20233996 -0.15964711
v 0.22408865 -0.04575256 -0.07501374
v 0.17089716 -0.20532703 -0.16012012
v 0.23028989 -0.05106145 -0.06893535
v 0.17709840 -0.21063592 -0.15404173
v 0.22934174 -0.05558229 -0.05986619
v 0.17615025 -0.21515675 -0.14497257
v 0.22179961 -0.05666682 -0.05311885
v 0.16860812 -0.21624129 -0.13822523
v 0.23218550 0.18605369 0.00000000
v 0.41675067 0.18605369 0.00000000
v 0.23218550 -0.15782643 0.00000000
v 0.41675067 -0.15782643 0.00000000
v 0.32446809 -0.09215117 0.10859372
v 0.32446809 0.12037843 0.10859372
v 0.32446809 -0.09215117 -0.10859372
v 0.32446809 0.12037843 -0.10859372
v 0.47378445 0.01411363 -0.06711461
v 0.47378445 0.01411363 0.06711461
v 0.17515172 0.01411363 -0.06711461
v 0.17515172 0.01411363 0.06711461
v 0.32446809 0.21624129 0.00000000
v 0.32446809 -0.18801403 0.00000000
v 0.27022574 -0.14941108 0.06382979
v 0.37871043 -0.14941108 0.06382979
v 0.27022574 0.17763834 0.06382979
v 0.37871043 0.17763834 0.06382979
v 0.32446809 0.01411363 0.12765957
v 0.27022574 -0.14941108 -0.06382979
v 0.37871043 -0.14941108 -0.06382979
v 0.27022574 0.17763834 -0.06382979
v 0.37871043 0.17763834 -0.06382979
v 0.32446809 0.01411363 -0.12765957
v 0.46647639 0.11517746 -0.03944898
v 0.46647639 -0.08695020 -0.03944898
v 0.41223404 -0.04834725 -0.10327877
v 0.41223404 0.07657451 -0.10327877
v 0.46647639 0.11517746 0.03944898
v 0.46647639 -0.08695020 0.03944898
v 0.41223404 -0.04834725 0.10327877
v 0.41223404 0.07657451 0.10327877
v 0.50000000 0.01411363 0.00000000
v 0.18245978 0.11517746 -0.03944898
v 0.18245978 -0.08695020 -0.03944898
v 0.23670213 -0.04834725 -0.10327877
v 0.23670213 0.07657451 -0.10327877
v 0.18245978 0.11517746 0.03944898
v 0.18245978 -0.08695020 0.03944898
v 0.23670213 -0.04834725 0.10327877
v 0.23670213 0.07657451 0.10327877
v 0.14893617 0.01411363 0.00000000
f 1 38 17
f 38 12 41
f 17 41 6
f 38 41 17
f 1 17 13
f 17 6 18
f 13 18 2
f 17 18 13
f 1 13 22
f 13 2 23
f 22 23 8
f 13 23 22
f 1 22 34
f 22 8 37
f 34 37 11
f 22 37 34
f 1 34 38
f 34 11 42
f 38 42 12
f 34 42 38
f 2 18 29
f 18 6 32
f 29 32 10
f 18 32 29
f 6 41 19
f 41 12 40
f 19 40 5
f 41 40 19
f 12 42 39
f 42 11 35
f 39 35 3
f 42 35 39
f 11 37 36
f 37 8 24
f 36 24 7
f 37 24 36
f 8 23 28
f 23 2 25
f 28 25 9
f 23 25 28
f 4 30 16
f 30 10 31
f 16 31 5
f 30 31 16
f 4 16 14
f 16 5 15
f 14 15 3
f 16 15 14
f 4 14 21
f 14 3 20
f 21 20 7
f 14 20 21
f 4 21 26
f 21 7 27
f 26 27 9
f 21 27 26
f 4 26 30
f 26 9 33
f 30 33 10
f 26 33 30
f 5 31 19
f 31 10 32
f 19 32 6
f 31 32 19
f 3 15 39
f 15 5 40
f 39 40 12
f 15 40 39
f 7 20 36
f 20 3 35
f 36 35 11
f 20 35 36
f 9 27 28
f 27 7 24
f 28 24 8
f 27 24 28
f 10 33 29
f 33 9 25
f 29 25 2
f 33 25 29
f 44 43 47
f 44 47 45
f 45 47 48
f 45 48 46
f 47 43 49
f 47 49 48
f 48 49 50
f 48 50 46
f 49 43 51
f 49 51 50
f 50 51 52
f 50 52 46
f 51 43 53
f 51 53 52
f 52 53 54
f 52 54 46
f 53 43 55
f 53 55 54
f 54 55 56
f 54 56 46
f 55 43 57
f 55 57 56
f 56 57 58
f 56 58 46
f 57 43 59
f 57 59 58
f 58 59 60
f 58 60 46
f 59 43 44
f 59 44 60
f 60 44 45
f 60 45 46
f 62 61 65
f 62 65 63
f 63 65 66
f 63 66 64
f 65 61 67
f 65 67 66
f 66 67 68
f 66 68 64
f 67 61 69
f 67 69 68
f 68 69 70
f 68 70 64
f 69 61 71
f 69 71 70
f 70 71 72
f 70 72 64
f 71 61 73
f 71 73 72
f 72 73 74
f 72 74 64
f 73 61 75
f 73 75 74
f 74 75 76
f 74 76 64
f 75 61 77
f 75 77 76
f 76 77 78
f 76 78 64
f 77 61 62
f 77 62 78
f 78 62 63
f 78 63 64
f 79 116 95
f 116 90 119
f 95 119 84
f 116 119 95
f 79 95 91
f 95 84 96
f 91 96 80
f 95 96 91
f 79 91 100
f 91 80 101
f 100 101 86
f 91 101 100
f 79 100 112
f 100 86 115
f 112 115 89
f 100 115 112
f 79 112 116
f 112 89 120
f 116 120 90
f 112 120 116
f 80 96 107
f 96 84 110
f 107 110 88
f 96 110 107
f 84 119 97
f 119 90 118
f 97 118 83
f 119 118 97
f 90 120 117
f 120 89 113
f 117 113 81
f 120 113 117
f 89 115 114
f 115 86 102
f 114 102 85
f 115 102 114
f 86 101 106
f 101 80 103
f 106 103 87
f 101 103 106
f 82 108 94
f 108 88 109
f 94 109 83
f 108 109 94
f 82 94 92
f 94 83 93
f 92 93 81
f 94 93 92
f 82 92 99
f 92 81 98
f 99 98 85
f 92 98 99
f 82 99 104
f 99 85 105
f 104 105 87
f 99 105 104
f 82 104 108
f 104 87 111
f 108 111 88
f 104 111 108
f 83 109 97
f 109 88 110
f 97 110 84
f 109 110 97
f 81 93 117
f 93 83 118
f 117 118 90
f 93 118 117
f 85 98 114
f 98 81 113
f 114 113 89
f 98 113 114
f 87 105 106
f 105 85 102
f 106 102 86
f 105 102 106
f 88 111 107
f 111 87 103
f 107 103 80
f 111 103 107
f 122 121 125
f 122 125 123
f 123 125 126
f 123 126 124
f 125 121 127
f 125 127 126
f 126 127 128
f 126 128 124
f 127 121 129
f 127 129 128
f 128 129 130
f 128 130 124
f 129 121 131
f 129 131 130
f 130 131 132
f 130 132 124
f 131 121 133
f 131 133 132
f 132 133 134
f 132 134 124
f 133 121 135
f 133 135 134
f 134 135 136
f 134 136 124
f 135 121 137
f 135 137 136
f 136 137 138
f 136 138 124
f 137 121 122
f 137 122 138
f 138 122 123
f 138 123 124
f 140 139 143
f 140 143 141
f 141 143 144
f 141 144 142
f 143 139 145
f 143 145 144
f 144 145 146
f 144 146 142
f 145 139 147
f 145 147 146
f 146 147 148
f 146 148 142
f 147 139 149
f 147 149 148
f 148 149 150
f 148 150 142
f 149 139 151
f 149 151 150
f 150 151 152
f 150 152 142
f 151 139 153
f 151 153 152
f 152 153 154
f 152 154 142
f 153 139 155
f 153 155 154
f 154 155 156
f 154 156 142
f 155 139 140
f 155 140 156
f 156 140 141
f 156 141 142
f 157 194 173
f 194 168 197
f 173 197 162
f 194 197 173
f 157 173 169
f 173 162 174
f 169 174 158
f 173 174 169
f 157 169 178
f 169 158 179
f 178 179 164
f 169 179 178
f 157 178 190
f 178 164 193
f 190 193 167
f 178 193 190
f 157 190 194
f 190 167 198
f 194 198 168
f 190 198 194
f 158 174 185
f 174 162 188
f 185 188 166
f 174 188 185
f 162 197 175
f 197 168 196
f 175 196 161
f 197 196 175
f 168 198 195
f 198 167 191
f 195 191 159
f 198 191 195
f 167 193 192
f 193 164 180
f 192 180 163
f 193 180 192
f 164 179 184
f 179 158 181
f 184 181 165
f 179 181 184
f 160 186 172
f 186 166 187
f 172 187 161
f 186 187 172
f 160 172 170
f 172 161 171
f 170 171 159
f 172 171 170
f 160 170 177
f 170 159 176
f 177 176 163
f 170 176 177
f 160 177 182
f 177 163 183
f 182 183 165
f 177 183 182
f 160 182 186
f 182 165 189
f 186 189 166
f 182 189 186
f 161 187 175
f 187 166 188
f 175 188 162
f 187 188 175
f 159 171 195
f 171 161 196
f 195 196 168
f 171 196 195
f 163 176 192
f 176 159 191
f 192 191 167
f 176 191 192
f 165 183 184
f 183 163 180
f 184 180 164
f 183 180 184
f 166 189 185
f 189 165 181
f 185 181 158
f 189 181 185
f 200 199 203
f 200 203 201
f 201 203 204
f 201 204 202
f 203 199 205
f 203 205 204
f 204 205 206
f 204 206 202
f 205 199 207
f 205 207 206
f 206 207 208
f 206 208 202
f 207 199 209
f 207 209 208
f 208 209 210
f 208 210 202
f 209 199 211
f 209 211 210
f 210 211 212
f 210 212 202
f 211 199 213
f 211 213 212
f 212 213 214
f 212 214 202
f 213 199 215
f 213 215 214
f 214 215 216
f 214 216 202
f 215 199 200
f 215 200 216
f 216 200 201
f 216 201 202
f 218 217 221
f 218 221 219
f 219 221 222
f 219 222 220
f 221 217 223
f 221 223 222
f 222 223 224
f 222 224 220
f 223 217 225
f 223 225 224
f 224 225 226
f 224 226 220
f 225 217 227
f 225 227 226
f 226 227 228
f 226 228 220
f 227 217 229
f 227 229 228
f 228 229 230
f 228 230 220
f 229 217 231
f 229 231 230
f 230 231 232
f 230 232 220
f 231 217 233
f 231 233 232
f 232 233 234
f 232 234 220
f 233 217 218
f 233 218 234
f 234 218 219
f 234 219 220
f 235 272 251
f 272 246 275
f 251 275 240
f 272 275 251
f 235 251 247
f 251 240 252
f 247 252 236
f 251 252 247
f 235 247 256
f 247 236 257
f 256 257 242
f 247 257 256
f 235 256 268
f 256 242 271
f 268 271 245
f 256 271 268
f 235 268 272
f 268 245 276
f 272 276 246
f 268 276 272
f 236 252 263
f 252 240 266
f 263 266 244
f 252 266 263
f 240 275 253
f 275 246 274
f 253 274 239
f 275 274 253
f 246 276 273
f 276 245 269
f 273 269 237
f 276 269 273
f 245 271 270
f 271 242 258
f 270 258 241
f 271 258 270
f 242 257 262
f 257 236 259
f 262 259 243
f 257 259 262
f 238 264 250
f 264 244 265
f 250 265 239
f 264 265 250
f 238 250 248
f 250 239 249
f 248 249 237
f 250 249 248
f 238 248 255
f 248 237 254
f 255 254 241
f 248 254 255
f 238 255 260
f 255 241 261
f 260 261 243
f 255 261 260
f 238 260 264
f 260 243 267
f 264 267 244
f 260 267 264
f 239 265 253
f 265 244 266
f 253 266 240
f 265 266 253
f 237 249 273
f 249 239 274
f 273 274 246
f 249 274 273
f 241 254 270
f 254 237 269
f 270 269 245
f 254 269 270
f 243 261 262
f 261 241 258
f 262 258 242
f 261 258 262
f 244 267 263
f 267 243 259
f 263 259 236
f 267 259 263
f 278 277 281
f 278 281 279
f 279 281 282
f 279 282 280
f 281 277 283
f 281 283 282
f 282 283 284
f 282 284 280
f 283 277 285
f 283 285 284
f 284 285 286
f 284 286 280
f 285 277 287
f 285 287 286
f 286 287 288
f 286 288 280
f 287 277 289
f 287 289 288
f 288 289 290
f 288 290 280
f 289 277 291
f 289 291 290
f 290 291 292
f 290 292 280
f 291 277 293
f 291 293 292
f 292 293 294
f 292 294 280
f 293 277 278
f 293 278 294
f 294 278 279
f 294 279 280
f 296 295 299
f 296 299 297
f 297 299 300
f 297 300 298
f 299 295 301
f 299 301 300
f 300 301 302
f 300 302 298
f 301 295 303
f 301 303 302
f 302 303 304
f 302 304 298
f 303 295 305
f 303 305 304
f 304 305 306
f 304 306 298
f 305 295 307
f 305 307 306
f 306 307 308
f 306 308 298
f 307 295 309
f 307 309 308
f 308 309 310
f 308 310 298
f 309 295 311
f 309 311 310
f 310 311 312
f 310 312 298
f 311 295 296
f 311 296 312
f 312 296 297
f 312 297 298
f 313 350 329
f 350 324 353
f 329 353 318
f 350 353 329
f 313 329 325
f 329 318 330
f 325 330 314
f 329 330 325
f 313 325 334
f 325 314 335
f 334 335 320
f 325 335 334
f 313 334 346
f 334 320 349
f 346 349 323
f 334 349 346
f 313 346 350
f 346 323 354
f 350 354 324
f 346 354 350
f 314 330 341
f 330 318 344
f 341 344 322
f 330 344 341
f 318 353 331
f 353 324 352
f 331 352 317
f 353 352 331
f 324 354 351
f 354 323 347
f 351 347 315
f 354 347 351
f 323 349 348
f 349 320 336
f 348 336 319
f 349 336 348
f 320 335 340
f 335 314 337
f 340 337 321
f 335 337 340
f 316 342 328
f 342 322 343
f 328 343 317
f 342 343 328
f 316 328 326
f 328 317 327
f 326 327 315
f 328 327 326
f 316 326 333
f 326 315 332
f 333 332 319
f 326 332 333
f 316 333 338
f 333 319 339
f 338 339 321
f 333 339 338
f 316 338 342
f 338 321 345
f 342 345 322
f 338 345 342
f 317 343 331
f 343 322 344
f 331 344 318
f 343 344 331
f 315 327 351
f 327 317 352
f 351 352 324
f 327 352 351
f 319 332 348
f 332 315 347
f 348 347 323
f 332 347 348
f 321 339 340
f 339 319 336
f 340 336 320
f 339 336 340
f 322 345 341
f 345 321 337
f 341 337 314
f 345 337 341
f 356 355 359
f 356 359 357
f 357 359 360
f 357 360 358
f 359 355 361
f 359 361 360
f 360 361 362
f 360 362 358
f 361 355 363
f 361 363 362
f 362 363 364
f 362 364 358
f 363 355 365
f 363 365 364
f 364 365 366
f 364 366 358
f 365 355 367
f 365 367 366
f 366 367 368
f 366 368 358
f 367 355 369
f 367 369 368
f 368 369 370
f 368 370 358
f 369 355 371
f 369 371 370
f 370 371 372
f 370 372 358
f 371 355 356
f 371 356 372
f 372 356 357
f 372 357 358
f 374 373 377
f 374 377 375
f 375 377 378
f 375 378 376
f 377 373 379
f 377 379 378
f 378 379 380
f 378 380 376
f 379 373 381
f 379 381 380
f 380 381 382
f 380 382 376
f 381 373 383
f 381 383 382
f 382 383 384
f 382 384 376
f 383 373 385
f 383 385 384
f 384 385 386
f 384 386 376
f 385 373 387
f 385 387 386
f 386 387 388
f 386 388 376
f 387 373 389
f 387 389 388
f 388 389 390
f 388 390 376
f 389 373 374
f 389 374 390
f 390 374 375
f 390 375 376
f 391 428 407
f 428 402 431
f 407 431 396
f 428 431 407
f 391 407 403
f 407 396 408
f 403 408 392
f 407 408 403
f 391 403 412
f 403 392 413
f 412 413 398
f 403 413 412
f 391 412 424
f 412 398 427
f 424 427 401
f 412 427 424
f 391 424 428
f 424 401 432
f 428 432 402
f 424 432 428
f 392 408 419
f 408 396 422
f 419 422 400
f 408 422 419
f 396 431 409
f 431 402 430
f 409 430 395
f 431 430 409
f 402 432 429
f 432 401 425
f 429 425 393
f 432 425 429
f 401 427 426
f 427 398 414
f 426 414 397
f 427 414 426
f 398 413 418
f 413 392 415
f 418 415 399
f 413 415 418
f 394 420 406
f 420 400 421
f 406 421 395
f 420 421 406
f 394 406 404
f 406 395 405
f 404 405 393
f 406 405 404
f 394 404 411
f 404 393 410
f 411 410 397
f 404 410 411
f 394 411 416
f 411 397 417
f 416 417 399
f 411 417 416
f 394 416 420
f 416 399 423
f 420 423 400
f 416 423 420
f 395 421 409
f 421 400 422
f 409 422 396
f 421 422 409
f 393 405 429
f 405 395 430
f 429 430 402
f 405 430 429
f 397 410 426
f 410 393 425
f 426 425 401
f 410 425 426
f 399 417 418
f 417 397 414
f 418 414 398
f 417 414 418
f 400 423 419
f 423 399 415
f 419 415 392
f 423 415 419
f 434 433 437
f 434 437 435
f 435 437 438
f 435 438 436
f 437 433 439
f 437 439 438
f 438 439 440
f 438 440 436
f 439 433 441
f 439 441 440
f 440 441 442
f 440 442 436
f 441 433 443
f 441 443 442
f 442 443 444
f 442 444 436
f 443 433 445
f 443 445 444
f 444 445 446
f 444 446 436
f 445 433 447
f 445 447 446
f 446 447 448
f 446 448 436
f 447 433 449
f 447 449 448
f 448 449 450
f 448 450 436
f 449 433 434
f 449 434 450
f 450 434 435
f 450 435 436
f 452 451 455
f 452 455 453
f 453 455 456
f 453 456 454
f 455 451 457
f 455 457 456
f 456 457 458
f 456 458 454
f 457 451 459
f 457 459 458
f 458 459 460
f 458 460 454
f 459 451 461
f 459 461 460
f 460 461 462
f 460 462 454
f 461 451 463
f 461 463 462
f 462 463 464
f 462 464 454
f 463 451 465
f 463 465 464
f 464 465 466
f 464 466 454
f 465 451 467
f 465 467 466
f 466 467 468
f 466 468 454
f 467 451 452
f 467 452 468
f 468 452 453
f 468 453 454
f 469 506 485
f 506 480 509
f 485 509 474
f 506 509 485
f 469 485 481
f 485 474 486
f 481 486 470
f 485 486 481
f 469 481 490
f 481 470 491
f 490 491 476
f 481 491 490
f 469 490 502
f 490 476 505
f 502 505 479
f 490 505 502
f 469 502 506
f 502 479 510
f 506 510 480
f 502 510 506
f 470 486 497
f 486 474 500
f 497 500 478
f 486 500 497
f 474 509 487
f 509 480 508
f 487 508 473
f 509 508 487
f 480 510 507
f 510 479 503
f 507 503 471
f 510 503 507
f 479 505 504
f 505 476 492
f 504 492 475
f 505 492 504
f 476 491 496
f 491 470 493
f 496 493 477
f 491 493 496
f 472 498 484
f 498 478 499
f 484 499 473
f 498 499 484
f 472 484 482
f 484 473 483
f 482 483 471
f 484 483 482
f 472 482 489
f 482 471 488
f 489 488 475
f 482 488 489
f 472 489 494
f 489 475 495
f 494 495 477
f 489 495 494
f 472 494 498
f 494 477 501
f 498 501 478
f 494 501 498
f 473 499 487
f 499 478 500
f 487 500 474
f 499 500 487
f 471 483 507
f 483 473 508
f 507 508 480
f 483 508 507
f 475 488 504
f 488 471 503
f 504 503 479
f 488 503 504
f 477 495 496
f 495 475 492
f 496 492 476
f 495 492 496
f 478 501 497
f 501 477 493
f 497 493 470
f 501 493 497

