# https://github.com/mikedh/trimesh
v -0.17554427 0.04645206 0.00000000
v 0.14328621 0.04645206 0.00000000
v -0.17554427 -0.08965206 0.00000000
v 0.14328621 -0.08965206 0.00000000
v -0.01612903 -0.06365849 0.05488070
v -0.01612903 0.02045849 0.05488070
v -0.01612903 -0.06365849 -0.05488070
v -0.01612903 0.02045849 -0.05488070
v 0.24181025 -0.02160000 -0.03391814
v 0.24181025 -0.02160000 0.03391814
v -0.27406831 -0.02160000 -0.03391814
v -0.27406831 -0.02160000 0.03391814
v -0.01612903 0.05840000 0.00000000
v -0.01612903 -0.10160000 0.00000000
v -0.10983096 -0.08632136 0.03225806
v 0.07757290 -0.08632136 0.03225806
v -0.10983096 0.04312136 0.03225806
v 0.07757290 0.04312136 0.03225806
v -0.01612903 -0.02160000 0.06451613
v -0.10983096 -0.08632136 -0.03225806
v 0.07757290 -0.08632136 -0.03225806
v -0.10983096 0.04312136 -0.03225806
v 0.07757290 0.04312136 -0.03225806
v -0.01612903 -0.02160000 -0.06451613
v 0.22918580 0.01840000 -0.01993658
v 0.22918580 -0.06160000 -0.01993658
v 0.13548387 -0.04632136 -0.05219464
v 0.13548387 0.00312136 -0.05219464
v 0.22918580 0.01840000 0.01993658
v 0.22918580 -0.06160000 0.01993658
v 0.13548387 -0.04632136 0.05219464
v 0.13548387 0.00312136 0.05219464
v 0.28709677 -0.02160000 0.00000000
v -0.26144386 0.01840000 -0.01993658
v -0.26144386 -0.06160000 -0.01993658
v -0.16774194 -0.04632136 -0.05219464
v -0.16774194 0.00312136 -0.05219464
v -0.26144386 0.01840000 0.01993658
v -0.26144386 -0.06160000 0.01993658
v -0.16774194 -0.04632136 0.05219464
v -0.16774194 0.00312136 0.05219464
v -0.31935484 -0.02160000 0.00000000
v -0.09899050 0.05535507 0.00000000
v 0.06673243 0.05535507 0.00000000
v -0.09899050 -0.09855507 0.00000000
v 0.06673243 -0.09855507 0.00000000
v -0.14769524 -0.09061348 0.01676722
v -0.06483378 -0.07710244 0.04529332
v -0.06539105 -0.09768452 0.01695907
v 0.11543718 -0.09061348 0.01676722
v 0.03257571 -0.07710244 0.04529332
v 0.03313299 -0.09768452 0.01695907
v -0.01612903 -0.08965206 0.03391814
v -0.14769524 0.04741348 0.01676722
v -0.06483378 0.03390244 0.04529332
v -0.06539105 0.05448452 0.01695907
v 0.11543718 0.04741348 0.01676722
v 0.03257571 0.03390244 0.04529332
v 0.03313299 0.05448452 0.01695907
v -0.01612903 0.04645206 0.03391814
v -0.01612903 -0.04346132 0.06206054
v -0.01612903 0.00026132 0.06206054
v -0.14769524 -0.09061348 -0.01676722
v -0.06483378 -0.07710244 -0.04529332
v -0.06539105 -0.09768452 -0.01695907
v 0.11543718 -0.09061348 -0.01676722
v 0.03257571 -0.07710244 -0.04529332
v 0.03313299 -0.09768452 -0.01695907
v -0.01612903 -0.08965206 -0.03391814
v -0.14769524 0.04741348 -0.01676722
v -0.06483378 0.03390244 -0.04529332
v -0.06539105 0.05448452 -0.01695907
v 0.11543718 0.04741348 -0.01676722
v 0.03257571 0.03390244 -0.04529332
v 0.03313299 0.05448452 -0.01695907
v -0.01612903 0.04645206 -0.03391814
v -0.01612903 -0.04346132 -0.06206054
v -0.01612903 0.00026132 -0.06206054
v 0.19424311 0.03456372 -0.01036271
v 0.24545431 -0.00080865 -0.02799281
v 0.16210262 0.03345528 -0.02744035
v 0.19424311 -0.07776372 -0.01036271
v 0.24545431 -0.04239135 -0.02799281
v 0.16210262 -0.07665528 -0.02744035
v 0.06267690 -0.05631109 -0.05565603
v 0.19674957 -0.03444976 -0.04476003
v 0.11284061 -0.06862282 -0.04439942
v 0.06357859 -0.03459679 -0.06135848
v 0.19254823 -0.05562603 -0.03792163
v 0.06267690 0.01311109 -0.05565603
v 0.19674957 -0.00875024 -0.04476003
v 0.11284061 0.02542282 -0.04439942
v 0.06357859 -0.00860321 -0.06135848
v 0.19254823 0.01242603 -0.03792163
v 0.14328621 -0.02160000 -0.05488070
v 0.19424311 0.03456372 0.01036271
v 0.24545431 -0.00080865 0.02799281
v 0.16210262 0.03345528 0.02744035
v 0.24181025 0.02045849 0.00000000
v 0.19424311 -0.07776372 0.01036271
v 0.24545431 -0.04239135 0.02799281
v 0.16210262 -0.07665528 0.02744035
v 0.24181025 -0.06365849 0.00000000
v 0.06267690 -0.05631109 0.05565603
v 0.19674957 -0.03444976 0.04476003
v 0.11284061 -0.06862282 0.04439942
v 0.06357859 -0.03459679 0.06135848
v 0.19254823 -0.05562603 0.03792163
v 0.06267690 0.01311109 0.05565603
v 0.19674957 -0.00875024 0.04476003
v 0.11284061 0.02542282 0.04439942
v 0.06357859 -0.00860321 0.06135848
v 0.19254823 0.01242603 0.03792163
v 0.14328621 -0.02160000 0.05488070
v 0.27555550 -0.02160000 -0.01763010
v 0.27555550 -0.02160000 0.01763010
v 0.27225585 -0.00057076 -0.01048128
v 0.27225585 -0.04262924 -0.01048128
v 0.27225585 -0.00057076 0.01048128
v 0.27225585 -0.04262924 0.01048128
v -0.22650118 0.03456372 -0.01036271
v -0.27771238 -0.00080865 -0.02799281
v -0.19436069 0.03345528 -0.02744035
v -0.22650118 -0.07776372 -0.01036271
v -0.27771238 -0.04239135 -0.02799281
v -0.19436069 -0.07665528 -0.02744035
v -0.09493497 -0.05631109 -0.05565603
v -0.22900763 -0.03444976 -0.04476003
v -0.14509867 -0.06862282 -0.04439942
v -0.09583665 -0.03459679 -0.06135848
v -0.22480629 -0.05562603 -0.03792163
v -0.09493497 0.01311109 -0.05565603
v -0.22900763 -0.00875024 -0.04476003
v -0.14509867 0.02542282 -0.04439942
v -0.09583665 -0.00860321 -0.06135848
v -0.22480629 0.01242603 -0.03792163
v -0.17554427 -0.02160000 -0.05488070
v -0.22650118 0.03456372 0.01036271
v -0.27771238 -0.00080865 0.02799281
v -0.19436069 0.03345528 0.02744035
v -0.27406831 0.02045849 0.00000000
v -0.22650118 -0.07776372 0.01036271
v -0.27771238 -0.04239135 0.02799281
v -0.19436069 -0.07665528 0.02744035
v -0.27406831 -0.06365849 0.00000000
v -0.09493497 -0.05631109 0.05565603
v -0.22900763 -0.03444976 0.04476003
v -0.14509867 -0.06862282 0.04439942
v -0.09583665 -0.03459679 0.06135848
v -0.22480629 -0.05562603 0.03792163
v -0.09493497 0.01311109 0.05565603
v -0.22900763 -0.00875024 0.04476003
v -0.14509867 0.02542282 0.04439942
v -0.09583665 -0.00860321 0.06135848
v -0.22480629 0.01242603 0.03792163
v -0.17554427 -0.02160000 0.05488070
v -0.30781357 -0.02160000 -0.01763010
v -0.30781357 -0.02160000 0.01763010
v -0.30451391 -0.00057076 -0.01048128
v -0.30451391 -0.04262924 -0.01048128
v -0.30451391 -0.00057076 0.01048128
v -0.30451391 -0.04262924 0.01048128
v 0.30774194 -0.02160000 0.00000000
v 0.30774194 -0.02160000 -0.04800000
v 0.43677419 -0.02160000 0.00000000
v 0.30774194 0.00661369 -0.03883282
v 0.30774194 0.02405071 -0.01483282
v 0.30774194 0.02405071 0.01483282
v 0.30774194 0.00661369 0.03883282
v 0.30774194 -0.02160000 0.04800000
v 0.30774194 -0.04981369 0.03883282
v 0.30774194 -0.06725071 0.01483282
v 0.30774194 -0.06725071 -0.01483282
v 0.30774194 -0.04981369 -0.03883282
v -0.29870968 -0.02160000 -0.00903226
v -0.50000000 0.05040000 -0.00903226
v -0.50000000 -0.09360000 -0.00903226
v -0.29870968 -0.02160000 0.00903226
v -0.50000000 0.05040000 0.00903226
v -0.50000000 -0.09360000 0.00903226
v -0.05483871 0.02640000 -0.01161290
v -0.20967742 0.02320000 -0.01161290
v -0.14516129 0.11440000 -0.01161290
v -0.05483871 0.02640000 0.01161290
v -0.20967742 0.02320000 0.01161290
v -0.14516129 0.11440000 0.01161290
v 0.02258065 -0.02676129 -0.00903226
v -0.13225806 -0.02676129 -0.00903226
v -0.18387097 -0.11440000 -0.00903226
v 0.02258065 -0.02676129 0.00903226
v -0.13225806 -0.02676129 0.00903226
v -0.18387097 -0.11440000 0.00903226
v 0.33225806 -0.00869677 0.00000000
v 0.33225806 -0.00869677 -0.02064516
v 0.50000000 -0.00869677 0.00000000
v 0.33225806 0.00590156 -0.01459833
v 0.33225806 0.01194839 -0.00000000
v 0.33225806 0.00590156 0.01459833
v 0.33225806 -0.00869677 0.02064516
v 0.33225806 -0.02329511 0.01459833
v 0.33225806 -0.02934194 0.00000000
v 0.33225806 -0.02329511 -0.01459833
f 1 138 54
f 138 38 140
f 54 140 17
f 138 140 54
f 38 139 155
f 139 12 152
f 155 152 41
f 139 152 155
f 17 153 55
f 153 41 151
f 55 151 6
f 153 151 55
f 38 155 140
f 155 41 153
f 140 153 17
f 155 153 140
f 1 54 43
f 54 17 56
f 43 56 13
f 54 56 43
f 17 55 60
f 55 6 58
f 60 58 18
f 55 58 60
f 13 59 44
f 59 18 57
f 44 57 2
f 59 57 44
f 17 60 56
f 60 18 59
f 56 59 13
f 60 59 56
f 1 43 70
f 43 13 72
f 70 72 22
f 43 72 70
f 13 44 75
f 44 2 73
f 75 73 23
f 44 73 75
f 22 76 71
f 76 23 74
f 71 74 8
f 76 74 71
f 13 75 72
f 75 23 76
f 72 76 22
f 75 76 72
f 1 70 121
f 70 22 123
f 121 123 34
f 70 123 121
f 22 71 134
f 71 8 132
f 134 132 37
f 71 132 134
f 34 136 122
f 136 37 133
f 122 133 11
f 136 133 122
f 22 134 123
f 134 37 136
f 123 136 34
f 134 136 123
f 1 121 138
f 121 34 141
f 138 141 38
f 121 141 138
f 34 122 159
f 122 11 157
f 159 157 42
f 122 157 159
f 38 161 139
f 161 42 158
f 139 158 12
f 161 158 139
f 34 159 141
f 159 42 161
f 141 161 38
f 159 161 141
f 2 57 96
f 57 18 98
f 96 98 29
f 57 98 96
f 18 58 111
f 58 6 109
f 111 109 32
f 58 109 111
f 29 113 97
f 113 32 110
f 97 110 10
f 113 110 97
f 18 111 98
f 111 32 113
f 98 113 29
f 111 113 98
f 6 151 62
f 151 41 154
f 62 154 19
f 151 154 62
f 41 152 156
f 152 12 147
f 156 147 40
f 152 147 156
f 19 149 61
f 149 40 146
f 61 146 5
f 149 146 61
f 41 156 154
f 156 40 149
f 154 149 19
f 156 149 154
f 12 158 143
f 158 42 162
f 143 162 39
f 158 162 143
f 42 157 160
f 157 11 125
f 160 125 35
f 157 125 160
f 39 145 142
f 145 35 124
f 142 124 3
f 145 124 142
f 42 160 162
f 160 35 145
f 162 145 39
f 160 145 162
f 11 133 128
f 133 37 137
f 128 137 36
f 133 137 128
f 37 132 135
f 132 8 78
f 135 78 24
f 132 78 135
f 36 130 127
f 130 24 77
f 127 77 7
f 130 77 127
f 37 135 137
f 135 24 130
f 137 130 36
f 135 130 137
f 8 74 90
f 74 23 92
f 90 92 28
f 74 92 90
f 23 73 81
f 73 2 79
f 81 79 25
f 73 79 81
f 28 94 91
f 94 25 80
f 91 80 9
f 94 80 91
f 23 81 92
f 81 25 94
f 92 94 28
f 81 94 92
f 4 100 50
f 100 30 102
f 50 102 16
f 100 102 50
f 30 101 108
f 101 10 105
f 108 105 31
f 101 105 108
f 16 106 51
f 106 31 104
f 51 104 5
f 106 104 51
f 30 108 102
f 108 31 106
f 102 106 16
f 108 106 102
f 4 50 46
f 50 16 52
f 46 52 14
f 50 52 46
f 16 51 53
f 51 5 48
f 53 48 15
f 51 48 53
f 14 49 45
f 49 15 47
f 45 47 3
f 49 47 45
f 16 53 52
f 53 15 49
f 52 49 14
f 53 49 52
f 4 46 66
f 46 14 68
f 66 68 21
f 46 68 66
f 14 45 65
f 45 3 63
f 65 63 20
f 45 63 65
f 21 69 67
f 69 20 64
f 67 64 7
f 69 64 67
f 14 65 68
f 65 20 69
f 68 69 21
f 65 69 68
f 4 66 82
f 66 21 84
f 82 84 26
f 66 84 82
f 21 67 87
f 67 7 85
f 87 85 27
f 67 85 87
f 26 89 83
f 89 27 86
f 83 86 9
f 89 86 83
f 21 87 84
f 87 27 89
f 84 89 26
f 87 89 84
f 4 82 100
f 82 26 103
f 100 103 30
f 82 103 100
f 26 83 118
f 83 9 115
f 118 115 33
f 83 115 118
f 30 120 101
f 120 33 116
f 101 116 10
f 120 116 101
f 26 118 103
f 118 33 120
f 103 120 30
f 118 120 103
f 5 104 61
f 104 31 107
f 61 107 19
f 104 107 61
f 31 105 114
f 105 10 110
f 114 110 32
f 105 110 114
f 19 112 62
f 112 32 109
f 62 109 6
f 112 109 62
f 31 114 107
f 114 32 112
f 107 112 19
f 114 112 107
f 3 47 142
f 47 15 144
f 142 144 39
f 47 144 142
f 15 48 148
f 48 5 146
f 148 146 40
f 48 146 148
f 39 150 143
f 150 40 147
f 143 147 12
f 150 147 143
f 15 148 144
f 148 40 150
f 144 150 39
f 148 150 144
f 7 64 127
f 64 20 129
f 127 129 36
f 64 129 127
f 20 63 126
f 63 3 124
f 126 124 35
f 63 124 126
f 36 131 128
f 131 35 125
f 128 125 11
f 131 125 128
f 20 126 129
f 126 35 131
f 129 131 36
f 126 131 129
f 9 86 91
f 86 27 95
f 91 95 28
f 86 95 91
f 27 85 88
f 85 7 77
f 88 77 24
f 85 77 88
f 28 93 90
f 93 24 78
f 90 78 8
f 93 78 90
f 27 88 95
f 88 24 93
f 95 93 28
f 88 93 95
f 10 116 97
f 116 33 119
f 97 119 29
f 116 119 97
f 33 115 117
f 115 9 80
f 117 80 25
f 115 80 117
f 29 99 96
f 99 25 79
f 96 79 2
f 99 79 96
f 33 117 119
f 117 25 99
f 119 99 29
f 117 99 119
f 164 163 166
f 164 166 165
f 166 163 167
f 166 167 165
f 167 163 168
f 167 168 165
f 168 163 169
f 168 169 165
f 169 163 170
f 169 170 165
f 170 163 171
f 170 171 165
f 171 163 172
f 171 172 165
f 172 163 173
f 172 173 165
f 173 163 174
f 173 174 165
f 174 163 164
f 174 164 165
f 175 176 177
f 178 180 179
f 175 178 179
f 175 179 176
f 176 179 180
f 176 180 177
f 177 180 178
f 177 178 175
f 181 182 183
f 184 186 185
f 181 184 185
f 181 185 182
f 182 185 186
f 182 186 183
f 183 186 184
f 183 184 181
f 187 188 189
f 190 192 191
f 187 190 191
f 187 191 188
f 188 191 192
f 188 192 189
f 189 192 190
f 189 190 187
f 194 193 196
f 194 196 195
f 196 193 197
f 196 197 195
f 197 193 198
f 197 198 195
f 198 193 199
f 198 199 195
f 199 193 200
f 199 200 195
f 200 193 201
f 200 201 195
f 201 193 202
f 201 202 195
f 202 193 194
f 202 194 195

