# https://github.com/mikedh/trimesh
v -0.39455621 0.02449518 0.00000000
v -0.31748568 0.02449518 0.00000000
v -0.39455621 -0.02449518 0.00000000
v -0.31748568 -0.02449518 0.00000000
v -0.35602094 -0.01513885 0.01959614
v -0.35602094 0.01513885 0.01959614
v -0.35602094 -0.01513885 -0.01959614
v -0.35602094 0.01513885 -0.01959614
v -0.29366957 0.00000000 -0.01211108
v -0.29366957 0.00000000 0.01211108
v -0.41837231 0.00000000 -0.01211108
v -0.41837231 0.00000000 0.01211108
v -0.35602094 0.02879581 0.00000000
v -0.35602094 -0.02879581 0.00000000
v -0.37867140 -0.02329630 0.01151832
v -0.33337048 -0.02329630 0.01151832
v -0.37867140 0.02329630 0.01151832
v -0.33337048 0.02329630 0.01151832
v -0.35602094 0.00000000 0.02303665
v -0.37867140 -0.02329630 -0.01151832
v -0.33337048 -0.02329630 -0.01151832
v -0.37867140 0.02329630 -0.01151832
v -0.33337048 0.02329630 -0.01151832
v -0.35602094 0.00000000 -0.02303665
v -0.29672127 0.01439791 -0.00711872
v -0.29672127 -0.01439791 -0.00711872
v -0.31937173 -0.00889840 -0.01863704
v -0.31937173 0.00889840 -0.01863704
v -0.29672127 0.01439791 0.00711872
v -0.29672127 -0.01439791 0.00711872
v -0.31937173 -0.00889840 0.01863704
v -0.31937173 0.00889840 0.01863704
v -0.28272251 0.00000000 0.00000000
v -0.41532062 0.01439791 -0.00711872
v -0.41532062 -0.01439791 -0.00711872
v -0.39267016 -0.00889840 -0.01863704
v -0.39267016 0.00889840 -0.01863704
v -0.41532062 0.01439791 0.00711872
v -0.41532062 -0.01439791 0.00711872
v -0.39267016 -0.00889840 0.01863704
v -0.39267016 0.00889840 0.01863704
v -0.42931937 0.00000000 0.00000000
v -0.28984417 0.04782505 0.00000000
v -0.21277364 0.04782505 0.00000000
v -0.28984417 -0.00689146 0.00000000
v -0.21277364 -0.00689146 0.00000000
v -0.25130890 0.00355846 0.02188660
v -0.25130890 0.03737512 0.02188660
v -0.25130890 0.00355846 -0.02188660
v -0.25130890 0.03737512 -0.02188660
v -0.18895753 0.02046679 -0.01352666
v -0.18895753 0.02046679 0.01352666
v -0.31366027 0.02046679 -0.01352666
v -0.31366027 0.02046679 0.01352666
v -0.25130890 0.05262835 0.00000000
v -0.25130890 -0.01169476 0.00000000
v -0.27395936 -0.00555245 0.01286462
v -0.22865844 -0.00555245 0.01286462
v -0.27395936 0.04648604 0.01286462
v -0.22865844 0.04648604 0.01286462
v -0.25130890 0.02046679 0.02572924
v -0.27395936 -0.00555245 -0.01286462
v -0.22865844 -0.00555245 -0.01286462
v -0.27395936 0.04648604 -0.01286462
v -0.22865844 0.04648604 -0.01286462
v -0.25130890 0.02046679 -0.02572924
v -0.19200923 0.03654757 -0.00795077
v -0.19200923 0.00438601 -0.00795077
v -0.21465969 0.01052833 -0.02081540
v -0.21465969 0.03040526 -0.02081540
v -0.19200923 0.03654757 0.00795077
v -0.19200923 0.00438601 0.00795077
v -0.21465969 0.01052833 0.02081540
v -0.21465969 0.03040526 0.02081540
v -0.17801047 0.02046679 0.00000000
v -0.31060858 0.03654757 -0.00795077
v -0.31060858 0.00438601 -0.00795077
v -0.28795812 0.01052833 -0.02081540
v -0.28795812 0.03040526 -0.02081540
v -0.31060858 0.03654757 0.00795077
v -0.31060858 0.00438601 0.00795077
v -0.28795812 0.01052833 0.02081540
v -0.28795812 0.03040526 0.02081540
v -0.32460733 0.02046679 0.00000000
v -0.18513212 0.05574300 0.00000000
v -0.10806159 0.05574300 0.00000000
v -0.18513212 -0.00469965 0.00000000
v -0.10806159 -0.00469965 0.00000000
v -0.14659686 0.00684387 0.02417706
v -0.14659686 0.04419948 0.02417706
v -0.14659686 0.00684387 -0.02417706
v -0.14659686 0.04419948 -0.02417706
v -0.08424549 0.02552167 -0.01494225
v -0.08424549 0.02552167 0.01494225
v -0.20894823 0.02552167 -0.01494225
v -0.20894823 0.02552167 0.01494225
v -0.14659686 0.06104897 0.00000000
v -0.14659686 -0.01000563 0.00000000
v -0.16924732 -0.00322052 0.01421092
v -0.12394640 -0.00322052 0.01421092
v -0.16924732 0.05426386 0.01421092
v -0.12394640 0.05426386 0.01421092
v -0.14659686 0.02552167 0.02842184
v -0.16924732 -0.00322052 -0.01421092
v -0.12394640 -0.00322052 -0.01421092
v -0.16924732 0.05426386 -0.01421092
v -0.12394640 0.05426386 -0.01421092
v -0.14659686 0.02552167 -0.02842184
v -0.08729718 0.04328532 -0.00878283
v -0.08729718 0.00775802 -0.00878283
v -0.10994764 0.01454313 -0.02299375
v -0.10994764 0.03650021 -0.02299375
v -0.08729718 0.04328532 0.00878283
v -0.08729718 0.00775802 0.00878283
v -0.10994764 0.01454313 0.02299375
v -0.10994764 0.03650021 0.02299375
v -0.07329843 0.02552167 0.00000000
v -0.20589653 0.04328532 -0.00878283
v -0.20589653 0.00775802 -0.00878283
v -0.18324607 0.01454313 -0.02299375
v -0.18324607 0.03650021 -0.02299375
v -0.20589653 0.04328532 0.00878283
v -0.20589653 0.00775802 0.00878283
v -0.18324607 0.01454313 0.02299375
v -0.18324607 0.03650021 0.02299375
v -0.21989529 0.02552167 0.00000000
v -0.08042008 0.04444261 0.00000000
v -0.00334955 0.04444261 0.00000000
v -0.08042008 -0.02172619 0.00000000
v -0.00334955 -0.02172619 0.00000000
v -0.04188482 -0.00908907 0.02646752
v -0.04188482 0.03180550 0.02646752
v -0.04188482 -0.00908907 -0.02646752
v -0.04188482 0.03180550 -0.02646752
v 0.02046655 0.01135821 -0.01635783
v 0.02046655 0.01135821 0.01635783
v -0.10423618 0.01135821 -0.01635783
v -0.10423618 0.01135821 0.01635783
v -0.04188482 0.05025126 0.00000000
v -0.04188482 -0.02753483 0.00000000
v -0.06453528 -0.02010692 0.01555722
v -0.01923436 -0.02010692 0.01555722
v -0.06453528 0.04282335 0.01555722
v -0.01923436 0.04282335 0.01555722
v -0.04188482 0.01135821 0.03111444
v -0.06453528 -0.02010692 -0.01555722
v -0.01923436 -0.02010692 -0.01555722
v -0.06453528 0.04282335 -0.01555722
v -0.01923436 0.04282335 -0.01555722
v -0.04188482 0.01135821 -0.03111444
v 0.01741486 0.03080474 -0.00961489
v 0.01741486 -0.00808831 -0.00961489
v -0.00523560 -0.00066040 -0.02517211
v -0.00523560 0.02337682 -0.02517211
v 0.01741486 0.03080474 0.00961489
v 0.01741486 -0.00808831 0.00961489
v -0.00523560 -0.00066040 0.02517211
v -0.00523560 0.02337682 0.02517211
v 0.03141361 0.01135821 0.00000000
v -0.10118449 0.03080474 -0.00961489
v -0.10118449 -0.00808831 -0.00961489
v -0.07853403 -0.00066040 -0.02517211
v -0.07853403 0.02337682 -0.02517211
v -0.10118449 0.03080474 0.00961489
v -0.10118449 -0.00808831 0.00961489
v -0.07853403 -0.00066040 0.02517211
v -0.07853403 0.02337682 0.02517211
v -0.11518325 0.01135821 0.00000000
v 0.02429196 0.02458926 0.00000000
v 0.10136249 0.02458926 0.00000000
v 0.02429196 -0.04730569 0.00000000
v 0.10136249 -0.04730569 0.00000000
v 0.06282723 -0.03357497 0.02875798
v 0.06282723 0.01085855 0.02875798
v 0.06282723 -0.03357497 -0.02875798
v 0.06282723 0.01085855 -0.02875798
v 0.12517859 -0.01135821 -0.01777341
v 0.12517859 -0.01135821 0.01777341
v 0.00047586 -0.01135821 -0.01777341
v 0.00047586 -0.01135821 0.01777341
v 0.06282723 0.03090058 0.00000000
v 0.06282723 -0.05361700 0.00000000
v 0.04017676 -0.04554629 0.01690352
v 0.08547769 -0.04554629 0.01690352
v 0.04017676 0.02282986 0.01690352
v 0.08547769 0.02282986 0.01690352
v 0.06282723 -0.01135821 0.03380703
v 0.04017676 -0.04554629 -0.01690352
v 0.08547769 -0.04554629 -0.01690352
v 0.04017676 0.02282986 -0.01690352
v 0.08547769 0.02282986 -0.01690352
v 0.06282723 -0.01135821 -0.03380703
v 0.12212690 0.00977118 -0.01044695
v 0.12212690 -0.03248761 -0.01044695
v 0.09947644 -0.02441690 -0.02735046
v 0.09947644 0.00170047 -0.02735046
v 0.12212690 0.00977118 0.01044695
v 0.12212690 -0.03248761 0.01044695
v 0.09947644 -0.02441690 0.02735046
v 0.09947644 0.00170047 0.02735046
v 0.13612565 -0.01135821 0.00000000
v 0.00352755 0.00977118 -0.01044695
v 0.00352755 -0.03248761 -0.01044695
v 0.02617801 -0.02441690 -0.02735046
v 0.02617801 0.00170047 -0.02735046
v 0.00352755 0.00977118 0.01044695
v 0.00352755 -0.03248761 0.01044695
v 0.02617801 -0.02441690 0.02735046
v 0.02617801 0.00170047 0.02735046
v -0.01047120 -0.01135821 0.00000000
v 0.12900400 0.01328887 0.00000000
v 0.20607453 0.01328887 0.00000000
v 0.12900400 -0.06433222 0.00000000
v 0.20607453 -0.06433222 0.00000000
v 0.16753927 -0.04950791 0.03104844
v 0.16753927 -0.00153544 0.03104844
v 0.16753927 -0.04950791 -0.03104844
v 0.16753927 -0.00153544 -0.03104844
v 0.22989064 -0.02552167 -0.01918899
v 0.22989064 -0.02552167 0.01918899
v 0.10518790 -0.02552167 -0.01918899
v 0.10518790 -0.02552167 0.01918899
v 0.16753927 0.02010286 0.00000000
v 0.16753927 -0.07114621 0.00000000
v 0.14488881 -0.06243270 0.01824981
v 0.19018973 -0.06243270 0.01824981
v 0.14488881 0.01138935 0.01824981
v 0.19018973 0.01138935 0.01824981
v 0.16753927 -0.02552167 0.03649963
v 0.14488881 -0.06243270 -0.01824981
v 0.19018973 -0.06243270 -0.01824981
v 0.14488881 0.01138935 -0.01824981
v 0.19018973 0.01138935 -0.01824981
v 0.16753927 -0.02552167 -0.03649963
v 0.22683894 -0.00270941 -0.01127900
v 0.22683894 -0.04833394 -0.01127900
v 0.20418848 -0.03962043 -0.02952882
v 0.20418848 -0.01142292 -0.02952882
v 0.22683894 -0.00270941 0.01127900
v 0.22683894 -0.04833394 0.01127900
v 0.20418848 -0.03962043 0.02952882
v 0.20418848 -0.01142292 0.02952882
v 0.24083770 -0.02552167 0.00000000
v 0.10823959 -0.00270941 -0.01127900
v 0.10823959 -0.04833394 -0.01127900
v 0.13089005 -0.03962043 -0.02952882
v 0.13089005 -0.01142292 -0.02952882
v 0.10823959 -0.00270941 0.01127900
v 0.10823959 -0.04833394 0.01127900
v 0.13089005 -0.03962043 0.02952882
v 0.13089005 -0.01142292 0.02952882
v 0.09424084 -0.02552167 0.00000000
v 0.23371604 0.02120683 0.00000000
v 0.31078657 0.02120683 0.00000000
v 0.23371604 -0.06214041 0.00000000
v 0.31078657 -0.06214041 0.00000000
v 0.27225131 -0.04622251 0.03333889
v 0.27225131 0.00528892 0.03333889
v 0.27225131 -0.04622251 -0.03333889
v 0.27225131 0.00528892 -0.03333889
v 0.33460268 -0.02046679 -0.02060457
v 0.33460268 -0.02046679 0.02060457
v 0.20989994 -0.02046679 -0.02060457
v 0.20989994 -0.02046679 0.02060457
v 0.27225131 0.02852348 0.00000000
v 0.27225131 -0.06945707 0.00000000
v 0.24960085 -0.06010076 0.01959611
v 0.29490177 -0.06010076 0.01959611
v 0.24960085 0.01916717 0.01959611
v 0.29490177 0.01916717 0.01959611
v 0.27225131 -0.02046679 0.03919222
v 0.24960085 -0.06010076 -0.01959611
v 0.29490177 -0.06010076 -0.01959611
v 0.24960085 0.01916717 -0.01959611
v 0.29490177 0.01916717 -0.01959611
v 0.27225131 -0.02046679 -0.03919222
v 0.33155098 0.00402835 -0.01211106
v 0.33155098 -0.04496193 -0.01211106
v 0.30890052 -0.03560562 -0.03170717
v 0.30890052 -0.00532796 -0.03170717
v 0.33155098 0.00402835 0.01211106
v 0.33155098 -0.04496193 0.01211106
v 0.30890052 -0.03560562 0.03170717
v 0.30890052 -0.00532796 0.03170717
v 0.34554974 -0.02046679 0.00000000
v 0.21295163 0.00402835 -0.01211106
v 0.21295163 -0.04496193 -0.01211106
v 0.23560209 -0.03560562 -0.03170717
v 0.23560209 -0.00532796 -0.03170717
v 0.21295163 0.00402835 0.01211106
v 0.21295163 -0.04496193 0.01211106
v 0.23560209 -0.03560562 0.03170717
v 0.23560209 -0.00532796 0.03170717
v 0.19895288 -0.02046679 0.00000000
v 0.33842809 0.04453669 0.00000000
v 0.41549862 0.04453669 0.00000000
v 0.33842809 -0.04453669 0.00000000
v 0.41549862 -0.04453669 0.00000000
v 0.37696335 -0.02752519 0.03562935
v 0.37696335 0.02752519 0.03562935
v 0.37696335 -0.02752519 -0.03562935
v 0.37696335 0.02752519 -0.03562935
v 0.43931472 -0.00000000 -0.02202015
v 0.43931472 -0.00000000 0.02202015
v 0.31461198 -0.00000000 -0.02202015
v 0.31461198 -0.00000000 0.02202015
v 0.37696335 0.05235602 0.00000000
v 0.37696335 -0.05235602 0.00000000
v 0.35431289 -0.04235691 0.02094241
v 0.39961381 -0.04235691 0.02094241
v 0.35431289 0.04235691 0.02094241
v 0.39961381 0.04235691 0.02094241
v 0.37696335 -0.00000000 0.04188482
v 0.35431289 -0.04235691 -0.02094241
v 0.39961381 -0.04235691 -0.02094241
v 0.35431289 0.04235691 -0.02094241
v 0.39961381 0.04235691 -0.02094241
v 0.37696335 -0.00000000 -0.04188482
v 0.43626303 0.02617801 -0.01294312
v 0.43626303 -0.02617801 -0.01294312
v 0.41361257 -0.01617890 -0.03388553
v 0.41361257 0.01617890 -0.03388553
v 0.43626303 0.02617801 0.01294312
v 0.43626303 -0.02617801 0.01294312
v 0.41361257 -0.01617890 0.03388553
v 0.41361257 0.01617890 0.03388553
v 0.45026178 -0.00000000 0.00000000
v 0.31766368 0.02617801 -0.01294312
v 0.31766368 -0.02617801 -0.01294312
v 0.34031414 -0.01617890 -0.03388553
v 0.34031414 0.01617890 -0.03388553
v 0.31766368 0.02617801 0.01294312
v 0.31766368 -0.02617801 0.01294312
v 0.34031414 -0.01617890 0.03388553
v 0.34031414 0.01617890 0.03388553
v 0.30366492 -0.00000000 0.00000000
v 0.39655858 0.06012453 0.00000000
v 0.45160896 0.06012453 0.00000000
v 0.39655858 -0.06012453 0.00000000
v 0.45160896 -0.06012453 0.00000000
v 0.42408377 -0.03715901 0.04453669
v 0.42408377 0.03715901 0.04453669
v 0.42408377 -0.03715901 -0.04453669
v 0.42408377 0.03715901 -0.04453669
v 0.46862046 0.00000000 -0.02752519
v 0.46862046 0.00000000 0.02752519
v 0.37954708 0.00000000 -0.02752519
v 0.37954708 0.00000000 0.02752519
v 0.42408377 0.07068063 0.00000000
v 0.42408377 -0.07068063 0.00000000
v 0.40790487 -0.05718183 0.02617801
v 0.44026267 -0.05718183 0.02617801
v 0.40790487 0.05718183 0.02617801
v 0.44026267 0.05718183 0.02617801
v 0.42408377 0.00000000 0.05235602
v 0.40790487 -0.05718183 -0.02617801
v 0.44026267 -0.05718183 -0.02617801
v 0.40790487 0.05718183 -0.02617801
v 0.44026267 0.05718183 -0.02617801
v 0.42408377 0.00000000 -0.05235602
v 0.46644068 0.03534031 -0.01617890
v 0.46644068 -0.03534031 -0.01617890
v 0.45026178 -0.02184152 -0.04235691
v 0.45026178 0.02184152 -0.04235691
v 0.46644068 0.03534031 0.01617890
v 0.46644068 -0.03534031 0.01617890
v 0.45026178 -0.02184152 0.04235691
v 0.45026178 0.02184152 0.04235691
v 0.47643979 0.00000000 0.00000000
v 0.38172686 0.03534031 -0.01617890
v 0.38172686 -0.03534031 -0.01617890
v 0.39790576 -0.02184152 -0.04235691
v 0.39790576 0.02184152 -0.04235691
v 0.38172686 0.03534031 0.01617890
v 0.38172686 -0.03534031 0.01617890
v 0.39790576 -0.02184152 0.04235691
v 0.39790576 0.02184152 0.04235691
v 0.37172775 0.00000000 0.00000000
v 0.21242764 0.12915641 0.00000000
v 0.41060901 0.12915641 0.00000000
v 0.21242764 -0.12915641 0.00000000
v 0.41060901 -0.12915641 0.00000000
v 0.31151832 -0.07982305 0.09352705
v 0.31151832 0.07982305 0.09352705
v 0.31151832 -0.07982305 -0.09352705
v 0.31151832 0.07982305 -0.09352705
v 0.47185041 0.00000000 -0.05780290
v 0.47185041 0.00000000 0.05780290
v 0.15118624 0.00000000 -0.05780290
v 0.15118624 0.00000000 0.05780290
v 0.31151832 0.15183246 0.00000000
v 0.31151832 -0.15183246 0.00000000
v 0.25327428 -0.12283504 0.05497382
v 0.36976237 -0.12283504 0.05497382
v 0.25327428 0.12283504 0.05497382
v 0.36976237 0.12283504 0.05497382
v 0.31151832 0.00000000 0.10994764
v 0.25327428 -0.12283504 -0.05497382
v 0.36976237 -0.12283504 -0.05497382
v 0.25327428 0.12283504 -0.05497382
v 0.36976237 0.12283504 -0.05497382
v 0.31151832 0.00000000 -0.10994764
v 0.46400320 0.07591623 -0.03397569
v 0.46400320 -0.07591623 -0.03397569
v 0.40575916 -0.04691881 -0.08894951
v 0.40575916 0.04691881 -0.08894951
v 0.46400320 0.07591623 0.03397569
v 0.46400320 -0.07591623 0.03397569
v 0.40575916 -0.04691881 0.08894951
v 0.40575916 0.04691881 0.08894951
v 0.50000000 0.00000000 0.00000000
v 0.15903345 0.07591623 -0.03397569
v 0.15903345 -0.07591623 -0.03397569
v 0.21727749 -0.04691881 -0.08894951
v 0.21727749 0.04691881 -0.08894951
v 0.15903345 0.07591623 0.03397569
v 0.15903345 -0.07591623 0.03397569
v 0.21727749 -0.04691881 0.08894951
v 0.21727749 0.04691881 0.08894951
v 0.12303665 0.00000000 0.00000000
v 0.26001259 0.14605347 0.00000000
v 0.36302406 0.14605347 0.00000000
v 0.26001259 -0.14605347 0.00000000
v 0.36302406 -0.14605347 0.00000000
v 0.22973828 -0.13098108 0.02857450
v 0.28124401 -0.10533840 0.07718835
v 0.28089762 -0.14440125 0.02890145
v 0.39329837 -0.13098108 0.02857450
v 0.34179263 -0.10533840 0.07718835
v 0.34213903 -0.14440125 0.02890145
v 0.31151832 -0.12915641 0.05780290
v 0.22973828 0.13098108 0.02857450
v 0.28124401 0.10533840 0.07718835
v 0.28089762 0.14440125 0.02890145
v 0.39329837 0.13098108 0.02857450
v 0.34179263 0.10533840 0.07718835
v 0.34213903 0.14440125 0.02890145
v 0.31151832 0.12915641 0.05780290
v 0.31151832 -0.04149073 0.10576286
v 0.31151832 0.04149073 0.10576286
v 0.22973828 -0.13098108 -0.02857450
v 0.28124401 -0.10533840 -0.07718835
v 0.28089762 -0.14440125 -0.02890145
v 0.39329837 -0.13098108 -0.02857450
v 0.34179263 -0.10533840 -0.07718835
v 0.34213903 -0.14440125 -0.02890145
v 0.31151832 -0.12915641 -0.05780290
v 0.22973828 0.13098108 -0.02857450
v 0.28124401 0.10533840 -0.07718835
v 0.28089762 0.14440125 -0.02890145
v 0.39329837 0.13098108 -0.02857450
v 0.34179263 0.10533840 -0.07718835
v 0.34213903 0.14440125 -0.02890145
v 0.31151832 0.12915641 -0.05780290
v 0.31151832 -0.04149073 -0.10576286
v 0.31151832 0.04149073 -0.10576286
v 0.44228323 0.10659344 -0.01766001
v 0.47411553 0.03946003 -0.04770503
v 0.42230507 0.10448973 -0.04676353
v 0.44228323 -0.10659344 -0.01766001
v 0.47411553 -0.03946003 -0.04770503
v 0.42230507 -0.10448973 -0.04676353
v 0.36050319 -0.06587837 -0.09484837
v 0.44384121 -0.02438764 -0.07627953
v 0.39168437 -0.08924488 -0.07566497
v 0.36106367 -0.02466668 -0.10456642
v 0.44122971 -0.06457820 -0.06462560
v 0.36050319 0.06587837 -0.09484837
v 0.44384121 0.02438764 -0.07627953
v 0.39168437 0.08924488 -0.07566497
v 0.36106367 0.02466668 -0.10456642
v 0.44122971 0.06457820 -0.06462560
v 0.41060901 0.00000000 -0.09352705
v 0.44228323 0.10659344 0.01766001
v 0.47411553 0.03946003 0.04770503
v 0.42230507 0.10448973 0.04676353
v 0.47185041 0.07982305 0.00000000
v 0.44228323 -0.10659344 0.01766001
v 0.47411553 -0.03946003 0.04770503
v 0.42230507 -0.10448973 0.04676353
v 0.47185041 -0.07982305 0.00000000
v 0.36050319 -0.06587837 0.09484837
v 0.44384121 -0.02438764 0.07627953
v 0.39168437 -0.08924488 0.07566497
v 0.36106367 -0.02466668 0.10456642
v 0.44122971 -0.06457820 0.06462560
v 0.36050319 0.06587837 0.09484837
v 0.44384121 0.02438764 0.07627953
v 0.39168437 0.08924488 0.07566497
v 0.36106367 0.02466668 0.10456642
v 0.44122971 0.06457820 0.06462560
v 0.41060901 0.00000000 0.09352705
v 0.49282608 0.00000000 -0.03004501
v 0.49282608 0.00000000 0.03004501
v 0.49077505 0.03991152 -0.01786208
v 0.49077505 -0.03991152 -0.01786208
v 0.49077505 0.03991152 0.01786208
v 0.49077505 -0.03991152 0.01786208
v 0.18075342 0.10659344 -0.01766001
v 0.14892112 0.03946003 -0.04770503
v 0.20073158 0.10448973 -0.04676353
v 0.18075342 -0.10659344 -0.01766001
v 0.14892112 -0.03946003 -0.04770503
v 0.20073158 -0.10448973 -0.04676353
v 0.26253346 -0.06587837 -0.09484837
v 0.17919543 -0.02438764 -0.07627953
v 0.23135228 -0.08924488 -0.07566497
v 0.26197298 -0.02466668 -0.10456642
v 0.18180694 -0.06457820 -0.06462560
v 0.26253346 0.06587837 -0.09484837
v 0.17919543 0.02438764 -0.07627953
v 0.23135228 0.08924488 -0.07566497
v 0.26197298 0.02466668 -0.10456642
v 0.18180694 0.06457820 -0.06462560
v 0.21242764 0.00000000 -0.09352705
v 0.18075342 0.10659344 0.01766001
v 0.14892112 0.03946003 0.04770503
v 0.20073158 0.10448973 0.04676353
v 0.15118624 0.07982305 0.00000000
v 0.18075342 -0.10659344 0.01766001
v 0.14892112 -0.03946003 0.04770503
v 0.20073158 -0.10448973 0.04676353
v 0.15118624 -0.07982305 0.00000000
v 0.26253346 -0.06587837 0.09484837
v 0.17919543 -0.02438764 0.07627953
v 0.23135228 -0.08924488 0.07566497
v 0.26197298 -0.02466668 0.10456642
v 0.18180694 -0.06457820 0.06462560
v 0.26253346 0.06587837 0.09484837
v 0.17919543 0.02438764 0.07627953
v 0.23135228 0.08924488 0.07566497
v 0.26197298 0.02466668 0.10456642
v 0.18180694 0.06457820 0.06462560
v 0.21242764 0.00000000 0.09352705
v 0.13021057 0.00000000 -0.03004501
v 0.13021057 0.00000000 0.03004501
v 0.13226160 0.03991152 -0.01786208
v 0.13226160 -0.03991152 -0.01786208
v 0.13226160 0.03991152 0.01786208
v 0.13226160 -0.03991152 0.01786208
v -0.38219895 0.00000000 -0.00916230
v -0.50000000 0.05759162 -0.00916230
v -0.50000000 -0.05759162 -0.00916230
v -0.38219895 0.00000000 0.00916230
v -0.50000000 0.05759162 0.00916230
v -0.50000000 -0.05759162 0.00916230
f 1 38 17
f 38 12 41
f 17 41 6
f 38 41 17
f 1 17 13
f 17 6 18
f 13 18 2
f 17 18 13
f 1 13 22
f 13 2 23
f 22 23 8
f 13 23 22
f 1 22 34
f 22 8 37
f 34 37 11
f 22 37 34
f 1 34 38
f 34 11 42
f 38 42 12
f 34 42 38
f 2 18 29
f 18 6 32
f 29 32 10
f 18 32 29
f 6 41 19
f 41 12 40
f 19 40 5
f 41 40 19
f 12 42 39
f 42 11 35
f 39 35 3
f 42 35 39
f 11 37 36
f 37 8 24
f 36 24 7
f 37 24 36
f 8 23 28
f 23 2 25
f 28 25 9
f 23 25 28
f 4 30 16
f 30 10 31
f 16 31 5
f 30 31 16
f 4 16 14
f 16 5 15
f 14 15 3
f 16 15 14
f 4 14 21
f 14 3 20
f 21 20 7
f 14 20 21
f 4 21 26
f 21 7 27
f 26 27 9
f 21 27 26
f 4 26 30
f 26 9 33
f 30 33 10
f 26 33 30
f 5 31 19
f 31 10 32
f 19 32 6
f 31 32 19
f 3 15 39
f 15 5 40
f 39 40 12
f 15 40 39
f 7 20 36
f 20 3 35
f 36 35 11
f 20 35 36
f 9 27 28
f 27 7 24
f 28 24 8
f 27 24 28
f 10 33 29
f 33 9 25
f 29 25 2
f 33 25 29
f 43 80 59
f 80 54 83
f 59 83 48
f 80 83 59
f 43 59 55
f 59 48 60
f 55 60 44
f 59 60 55
f 43 55 64
f 55 44 65
f 64 65 50
f 55 65 64
f 43 64 76
f 64 50 79
f 76 79 53
f 64 79 76
f 43 76 80
f 76 53 84
f 80 84 54
f 76 84 80
f 44 60 71
f 60 48 74
f 71 74 52
f 60 74 71
f 48 83 61
f 83 54 82
f 61 82 47
f 83 82 61
f 54 84 81
f 84 53 77
f 81 77 45
f 84 77 81
f 53 79 78
f 79 50 66
f 78 66 49
f 79 66 78
f 50 65 70
f 65 44 67
f 70 67 51
f 65 67 70
f 46 72 58
f 72 52 73
f 58 73 47
f 72 73 58
f 46 58 56
f 58 47 57
f 56 57 45
f 58 57 56
f 46 56 63
f 56 45 62
f 63 62 49
f 56 62 63
f 46 63 68
f 63 49 69
f 68 69 51
f 63 69 68
f 46 68 72
f 68 51 75
f 72 75 52
f 68 75 72
f 47 73 61
f 73 52 74
f 61 74 48
f 73 74 61
f 45 57 81
f 57 47 82
f 81 82 54
f 57 82 81
f 49 62 78
f 62 45 77
f 78 77 53
f 62 77 78
f 51 69 70
f 69 49 66
f 70 66 50
f 69 66 70
f 52 75 71
f 75 51 67
f 71 67 44
f 75 67 71
f 85 122 101
f 122 96 125
f 101 125 90
f 122 125 101
f 85 101 97
f 101 90 102
f 97 102 86
f 101 102 97
f 85 97 106
f 97 86 107
f 106 107 92
f 97 107 106
f 85 106 118
f 106 92 121
f 118 121 95
f 106 121 118
f 85 118 122
f 118 95 126
f 122 126 96
f 118 126 122
f 86 102 113
f 102 90 116
f 113 116 94
f 102 116 113
f 90 125 103
f 125 96 124
f 103 124 89
f 125 124 103
f 96 126 123
f 126 95 119
f 123 119 87
f 126 119 123
f 95 121 120
f 121 92 108
f 120 108 91
f 121 108 120
f 92 107 112
f 107 86 109
f 112 109 93
f 107 109 112
f 88 114 100
f 114 94 115
f 100 115 89
f 114 115 100
f 88 100 98
f 100 89 99
f 98 99 87
f 100 99 98
f 88 98 105
f 98 87 104
f 105 104 91
f 98 104 105
f 88 105 110
f 105 91 111
f 110 111 93
f 105 111 110
f 88 110 114
f 110 93 117
f 114 117 94
f 110 117 114
f 89 115 103
f 115 94 116
f 103 116 90
f 115 116 103
f 87 99 123
f 99 89 124
f 123 124 96
f 99 124 123
f 91 104 120
f 104 87 119
f 120 119 95
f 104 119 120
f 93 111 112
f 111 91 108
f 112 108 92
f 111 108 112
f 94 117 113
f 117 93 109
f 113 109 86
f 117 109 113
f 127 164 143
f 164 138 167
f 143 167 132
f 164 167 143
f 127 143 139
f 143 132 144
f 139 144 128
f 143 144 139
f 127 139 148
f 139 128 149
f 148 149 134
f 139 149 148
f 127 148 160
f 148 134 163
f 160 163 137
f 148 163 160
f 127 160 164
f 160 137 168
f 164 168 138
f 160 168 164
f 128 144 155
f 144 132 158
f 155 158 136
f 144 158 155
f 132 167 145
f 167 138 166
f 145 166 131
f 167 166 145
f 138 168 165
f 168 137 161
f 165 161 129
f 168 161 165
f 137 163 162
f 163 134 150
f 162 150 133
f 163 150 162
f 134 149 154
f 149 128 151
f 154 151 135
f 149 151 154
f 130 156 142
f 156 136 157
f 142 157 131
f 156 157 142
f 130 142 140
f 142 131 141
f 140 141 129
f 142 141 140
f 130 140 147
f 140 129 146
f 147 146 133
f 140 146 147
f 130 147 152
f 147 133 153
f 152 153 135
f 147 153 152
f 130 152 156
f 152 135 159
f 156 159 136
f 152 159 156
f 131 157 145
f 157 136 158
f 145 158 132
f 157 158 145
f 129 141 165
f 141 131 166
f 165 166 138
f 141 166 165
f 133 146 162
f 146 129 161
f 162 161 137
f 146 161 162
f 135 153 154
f 153 133 150
f 154 150 134
f 153 150 154
f 136 159 155
f 159 135 151
f 155 151 128
f 159 151 155
f 169 206 185
f 206 180 209
f 185 209 174
f 206 209 185
f 169 185 181
f 185 174 186
f 181 186 170
f 185 186 181
f 169 181 190
f 181 170 191
f 190 191 176
f 181 191 190
f 169 190 202
f 190 176 205
f 202 205 179
f 190 205 202
f 169 202 206
f 202 179 210
f 206 210 180
f 202 210 206
f 170 186 197
f 186 174 200
f 197 200 178
f 186 200 197
f 174 209 187
f 209 180 208
f 187 208 173
f 209 208 187
f 180 210 207
f 210 179 203
f 207 203 171
f 210 203 207
f 179 205 204
f 205 176 192
f 204 192 175
f 205 192 204
f 176 191 196
f 191 170 193
f 196 193 177
f 191 193 196
f 172 198 184
f 198 178 199
f 184 199 173
f 198 199 184
f 172 184 182
f 184 173 183
f 182 183 171
f 184 183 182
f 172 182 189
f 182 171 188
f 189 188 175
f 182 188 189
f 172 189 194
f 189 175 195
f 194 195 177
f 189 195 194
f 172 194 198
f 194 177 201
f 198 201 178
f 194 201 198
f 173 199 187
f 199 178 200
f 187 200 174
f 199 200 187
f 171 183 207
f 183 173 208
f 207 208 180
f 183 208 207
f 175 188 204
f 188 171 203
f 204 203 179
f 188 203 204
f 177 195 196
f 195 175 192
f 196 192 176
f 195 192 196
f 178 201 197
f 201 177 193
f 197 193 170
f 201 193 197
f 211 248 227
f 248 222 251
f 227 251 216
f 248 251 227
f 211 227 223
f 227 216 228
f 223 228 212
f 227 228 223
f 211 223 232
f 223 212 233
f 232 233 218
f 223 233 232
f 211 232 244
f 232 218 247
f 244 247 221
f 232 247 244
f 211 244 248
f 244 221 252
f 248 252 222
f 244 252 248
f 212 228 239
f 228 216 242
f 239 242 220
f 228 242 239
f 216 251 229
f 251 222 250
f 229 250 215
f 251 250 229
f 222 252 249
f 252 221 245
f 249 245 213
f 252 245 249
f 221 247 246
f 247 218 234
f 246 234 217
f 247 234 246
f 218 233 238
f 233 212 235
f 238 235 219
f 233 235 238
f 214 240 226
f 240 220 241
f 226 241 215
f 240 241 226
f 214 226 224
f 226 215 225
f 224 225 213
f 226 225 224
f 214 224 231
f 224 213 230
f 231 230 217
f 224 230 231
f 214 231 236
f 231 217 237
f 236 237 219
f 231 237 236
f 214 236 240
f 236 219 243
f 240 243 220
f 236 243 240
f 215 241 229
f 241 220 242
f 229 242 216
f 241 242 229
f 213 225 249
f 225 215 250
f 249 250 222
f 225 250 249
f 217 230 246
f 230 213 245
f 246 245 221
f 230 245 246
f 219 237 238
f 237 217 234
f 238 234 218
f 237 234 238
f 220 243 239
f 243 219 235
f 239 235 212
f 243 235 239
f 253 290 269
f 290 264 293
f 269 293 258
f 290 293 269
f 253 269 265
f 269 258 270
f 265 270 254
f 269 270 265
f 253 265 274
f 265 254 275
f 274 275 260
f 265 275 274
f 253 274 286
f 274 260 289
f 286 289 263
f 274 289 286
f 253 286 290
f 286 263 294
f 290 294 264
f 286 294 290
f 254 270 281
f 270 258 284
f 281 284 262
f 270 284 281
f 258 293 271
f 293 264 292
f 271 292 257
f 293 292 271
f 264 294 291
f 294 263 287
f 291 287 255
f 294 287 291
f 263 289 288
f 289 260 276
f 288 276 259
f 289 276 288
f 260 275 280
f 275 254 277
f 280 277 261
f 275 277 280
f 256 282 268
f 282 262 283
f 268 283 257
f 282 283 268
f 256 268 266
f 268 257 267
f 266 267 255
f 268 267 266
f 256 266 273
f 266 255 272
f 273 272 259
f 266 272 273
f 256 273 278
f 273 259 279
f 278 279 261
f 273 279 278
f 256 278 282
f 278 261 285
f 282 285 262
f 278 285 282
f 257 283 271
f 283 262 284
f 271 284 258
f 283 284 271
f 255 267 291
f 267 257 292
f 291 292 264
f 267 292 291
f 259 272 288
f 272 255 287
f 288 287 263
f 272 287 288
f 261 279 280
f 279 259 276
f 280 276 260
f 279 276 280
f 262 285 281
f 285 261 277
f 281 277 254
f 285 277 281
f 295 332 311
f 332 306 335
f 311 335 300
f 332 335 311
f 295 311 307
f 311 300 312
f 307 312 296
f 311 312 307
f 295 307 316
f 307 296 317
f 316 317 302
f 307 317 316
f 295 316 328
f 316 302 331
f 328 331 305
f 316 331 328
f 295 328 332
f 328 305 336
f 332 336 306
f 328 336 332
f 296 312 323
f 312 300 326
f 323 326 304
f 312 326 323
f 300 335 313
f 335 306 334
f 313 334 299
f 335 334 313
f 306 336 333
f 336 305 329
f 333 329 297
f 336 329 333
f 305 331 330
f 331 302 318
f 330 318 301
f 331 318 330
f 302 317 322
f 317 296 319
f 322 319 303
f 317 319 322
f 298 324 310
f 324 304 325
f 310 325 299
f 324 325 310
f 298 310 308
f 310 299 309
f 308 309 297
f 310 309 308
f 298 308 315
f 308 297 314
f 315 314 301
f 308 314 315
f 298 315 320
f 315 301 321
f 320 321 303
f 315 321 320
f 298 320 324
f 320 303 327
f 324 327 304
f 320 327 324
f 299 325 313
f 325 304 326
f 313 326 300
f 325 326 313
f 297 309 333
f 309 299 334
f 333 334 306
f 309 334 333
f 301 314 330
f 314 297 329
f 330 329 305
f 314 329 330
f 303 321 322
f 321 301 318
f 322 318 302
f 321 318 322
f 304 327 323
f 327 303 319
f 323 319 296
f 327 319 323
f 337 374 353
f 374 348 377
f 353 377 342
f 374 377 353
f 337 353 349
f 353 342 354
f 349 354 338
f 353 354 349
f 337 349 358
f 349 338 359
f 358 359 344
f 349 359 358
f 337 358 370
f 358 344 373
f 370 373 347
f 358 373 370
f 337 370 374
f 370 347 378
f 374 378 348
f 370 378 374
f 338 354 365
f 354 342 368
f 365 368 346
f 354 368 365
f 342 377 355
f 377 348 376
f 355 376 341
f 377 376 355
f 348 378 375
f 378 347 371
f 375 371 339
f 378 371 375
f 347 373 372
f 373 344 360
f 372 360 343
f 373 360 372
f 344 359 364
f 359 338 361
f 364 361 345
f 359 361 364
f 340 366 352
f 366 346 367
f 352 367 341
f 366 367 352
f 340 352 350
f 352 341 351
f 350 351 339
f 352 351 350
f 340 350 357
f 350 339 356
f 357 356 343
f 350 356 357
f 340 357 362
f 357 343 363
f 362 363 345
f 357 363 362
f 340 362 366
f 362 345 369
f 366 369 346
f 362 369 366
f 341 367 355
f 367 346 368
f 355 368 342
f 367 368 355
f 339 351 375
f 351 341 376
f 375 376 348
f 351 376 375
f 343 356 372
f 356 339 371
f 372 371 347
f 356 371 372
f 345 363 364
f 363 343 360
f 364 360 344
f 363 360 364
f 346 369 365
f 369 345 361
f 365 361 338
f 369 361 365
f 379 516 432
f 516 416 518
f 432 518 395
f 516 518 432
f 416 517 533
f 517 390 530
f 533 530 419
f 517 530 533
f 395 531 433
f 531 419 529
f 433 529 384
f 531 529 433
f 416 533 518
f 533 419 531
f 518 531 395
f 533 531 518
f 379 432 421
f 432 395 434
f 421 434 391
f 432 434 421
f 395 433 438
f 433 384 436
f 438 436 396
f 433 436 438
f 391 437 422
f 437 396 435
f 422 435 380
f 437 435 422
f 395 438 434
f 438 396 437
f 434 437 391
f 438 437 434
f 379 421 448
f 421 391 450
f 448 450 400
f 421 450 448
f 391 422 453
f 422 380 451
f 453 451 401
f 422 451 453
f 400 454 449
f 454 401 452
f 449 452 386
f 454 452 449
f 391 453 450
f 453 401 454
f 450 454 400
f 453 454 450
f 379 448 499
f 448 400 501
f 499 501 412
f 448 501 499
f 400 449 512
f 449 386 510
f 512 510 415
f 449 510 512
f 412 514 500
f 514 415 511
f 500 511 389
f 514 511 500
f 400 512 501
f 512 415 514
f 501 514 412
f 512 514 501
f 379 499 516
f 499 412 519
f 516 519 416
f 499 519 516
f 412 500 537
f 500 389 535
f 537 535 420
f 500 535 537
f 416 539 517
f 539 420 536
f 517 536 390
f 539 536 517
f 412 537 519
f 537 420 539
f 519 539 416
f 537 539 519
f 380 435 474
f 435 396 476
f 474 476 407
f 435 476 474
f 396 436 489
f 436 384 487
f 489 487 410
f 436 487 489
f 407 491 475
f 491 410 488
f 475 488 388
f 491 488 475
f 396 489 476
f 489 410 491
f 476 491 407
f 489 491 476
f 384 529 440
f 529 419 532
f 440 532 397
f 529 532 440
f 419 530 534
f 530 390 525
f 534 525 418
f 530 525 534
f 397 527 439
f 527 418 524
f 439 524 383
f 527 524 439
f 419 534 532
f 534 418 527
f 532 527 397
f 534 527 532
f 390 536 521
f 536 420 540
f 521 540 417
f 536 540 521
f 420 535 538
f 535 389 503
f 538 503 413
f 535 503 538
f 417 523 520
f 523 413 502
f 520 502 381
f 523 502 520
f 420 538 540
f 538 413 523
f 540 523 417
f 538 523 540
f 389 511 506
f 511 415 515
f 506 515 414
f 511 515 506
f 415 510 513
f 510 386 456
f 513 456 402
f 510 456 513
f 414 508 505
f 508 402 455
f 505 455 385
f 508 455 505
f 415 513 515
f 513 402 508
f 515 508 414
f 513 508 515
f 386 452 468
f 452 401 470
f 468 470 406
f 452 470 468
f 401 451 459
f 451 380 457
f 459 457 403
f 451 457 459
f 406 472 469
f 472 403 458
f 469 458 387
f 472 458 469
f 401 459 470
f 459 403 472
f 470 472 406
f 459 472 470
f 382 478 428
f 478 408 480
f 428 480 394
f 478 480 428
f 408 479 486
f 479 388 483
f 486 483 409
f 479 483 486
f 394 484 429
f 484 409 482
f 429 482 383
f 484 482 429
f 408 486 480
f 486 409 484
f 480 484 394
f 486 484 480
f 382 428 424
f 428 394 430
f 424 430 392
f 428 430 424
f 394 429 431
f 429 383 426
f 431 426 393
f 429 426 431
f 392 427 423
f 427 393 425
f 423 425 381
f 427 425 423
f 394 431 430
f 431 393 427
f 430 427 392
f 431 427 430
f 382 424 444
f 424 392 446
f 444 446 399
f 424 446 444
f 392 423 443
f 423 381 441
f 443 441 398
f 423 441 443
f 399 447 445
f 447 398 442
f 445 442 385
f 447 442 445
f 392 443 446
f 443 398 447
f 446 447 399
f 443 447 446
f 382 444 460
f 444 399 462
f 460 462 404
f 444 462 460
f 399 445 465
f 445 385 463
f 465 463 405
f 445 463 465
f 404 467 461
f 467 405 464
f 461 464 387
f 467 464 461
f 399 465 462
f 465 405 467
f 462 467 404
f 465 467 462
f 382 460 478
f 460 404 481
f 478 481 408
f 460 481 478
f 404 461 496
f 461 387 493
f 496 493 411
f 461 493 496
f 408 498 479
f 498 411 494
f 479 494 388
f 498 494 479
f 404 496 481
f 496 411 498
f 481 498 408
f 496 498 481
f 383 482 439
f 482 409 485
f 439 485 397
f 482 485 439
f 409 483 492
f 483 388 488
f 492 488 410
f 483 488 492
f 397 490 440
f 490 410 487
f 440 487 384
f 490 487 440
f 409 492 485
f 492 410 490
f 485 490 397
f 492 490 485
f 381 425 520
f 425 393 522
f 520 522 417
f 425 522 520
f 393 426 526
f 426 383 524
f 526 524 418
f 426 524 526
f 417 528 521
f 528 418 525
f 521 525 390
f 528 525 521
f 393 526 522
f 526 418 528
f 522 528 417
f 526 528 522
f 385 442 505
f 442 398 507
f 505 507 414
f 442 507 505
f 398 441 504
f 441 381 502
f 504 502 413
f 441 502 504
f 414 509 506
f 509 413 503
f 506 503 389
f 509 503 506
f 398 504 507
f 504 413 509
f 507 509 414
f 504 509 507
f 387 464 469
f 464 405 473
f 469 473 406
f 464 473 469
f 405 463 466
f 463 385 455
f 466 455 402
f 463 455 466
f 406 471 468
f 471 402 456
f 468 456 386
f 471 456 468
f 405 466 473
f 466 402 471
f 473 471 406
f 466 471 473
f 388 494 475
f 494 411 497
f 475 497 407
f 494 497 475
f 411 493 495
f 493 387 458
f 495 458 403
f 493 458 495
f 407 477 474
f 477 403 457
f 474 457 380
f 477 457 474
f 411 495 497
f 495 403 477
f 497 477 407
f 495 477 497
f 541 542 543
f 544 546 545
f 541 544 545
f 541 545 542
f 542 545 546
f 542 546 543
f 543 546 544
f 543 544 541

