# https://github.com/mikedh/trimesh
v -0.15212033 0.05027982 0.00000000
v 0.18563988 0.05027982 0.00000000
v -0.15212033 -0.09703960 0.00000000
v 0.18563988 -0.09703960 0.00000000
v 0.01675978 -0.06890409 0.05940299
v 0.01675978 0.02214431 0.05940299
v 0.01675978 -0.06890409 -0.05940299
v 0.01675978 0.02214431 -0.05940299
v 0.29001353 -0.02337989 -0.03671307
v 0.29001353 -0.02337989 0.03671307
v -0.25649397 -0.02337989 -0.03671307
v -0.25649397 -0.02337989 0.03671307
v 0.01675978 0.06321229 0.00000000
v 0.01675978 -0.10997207 0.00000000
v -0.08250546 -0.09343443 0.03491620
v 0.11602501 -0.09343443 0.03491620
v -0.08250546 0.04667466 0.03491620
v 0.11602501 0.04667466 0.03491620
v 0.01675978 -0.02337989 0.06983240
v -0.08250546 -0.09343443 -0.03491620
v 0.11602501 -0.09343443 -0.03491620
v -0.08250546 0.04667466 -0.03491620
v 0.11602501 0.04667466 -0.03491620
v 0.01675978 -0.02337989 -0.06983240
v 0.27663954 0.01991620 -0.02157940
v 0.27663954 -0.06667598 -0.02157940
v 0.17737430 -0.05013834 -0.05649560
v 0.17737430 0.00337857 -0.05649560
v 0.27663954 0.01991620 0.02157940
v 0.27663954 -0.06667598 0.02157940
v 0.17737430 -0.05013834 0.05649560
v 0.17737430 0.00337857 0.05649560
v 0.33798883 -0.02337989 0.00000000
v -0.24311998 0.01991620 -0.02157940
v -0.24311998 -0.06667598 -0.02157940
v -0.14385475 -0.05013834 -0.05649560
v -0.14385475 0.00337857 -0.05649560
v -0.24311998 0.01991620 0.02157940
v -0.24311998 -0.06667598 0.02157940
v -0.14385475 -0.05013834 0.05649560
v -0.14385475 0.00337857 0.05649560
v -0.30446927 -0.02337989 0.00000000
v -0.07102137 0.05991645 0.00000000
v 0.10454092 0.05991645 0.00000000
v -0.07102137 -0.10667623 0.00000000
v 0.10454092 -0.10667623 0.00000000
v -0.12261783 -0.09808023 0.01814888
v -0.03483669 -0.08345585 0.04902559
v -0.03542705 -0.10573394 0.01835653
v 0.15613739 -0.09808023 0.01814888
v 0.06835624 -0.08345585 0.04902559
v 0.06894660 -0.10573394 0.01835653
v 0.01675978 -0.09703960 0.03671307
v -0.12261783 0.05132046 0.01814888
v -0.03483669 0.03669607 0.04902559
v -0.03542705 0.05897417 0.01835653
v 0.15613739 0.05132046 0.01814888
v 0.06835624 0.03669607 0.04902559
v 0.06894660 0.05897417 0.01835653
v 0.01675978 0.05027982 0.03671307
v 0.01675978 -0.04704263 0.06717447
v 0.01675978 0.00028286 0.06717447
v -0.12261783 -0.09808023 -0.01814888
v -0.03483669 -0.08345585 -0.04902559
v -0.03542705 -0.10573394 -0.01835653
v 0.15613739 -0.09808023 -0.01814888
v 0.06835624 -0.08345585 -0.04902559
v 0.06894660 -0.10573394 -0.01835653
v 0.01675978 -0.09703960 -0.03671307
v -0.12261783 0.05132046 -0.01814888
v -0.03483669 0.03669607 -0.04902559
v -0.03542705 0.05897417 -0.01835653
v 0.15613739 0.05132046 -0.01814888
v 0.06835624 0.03669607 -0.04902559
v 0.06894660 0.05897417 -0.01835653
v 0.01675978 0.05027982 -0.03671307
v 0.01675978 -0.04704263 -0.06717447
v 0.01675978 0.00028286 -0.06717447
v 0.23962222 0.03741184 -0.01121662
v 0.29387395 -0.00087528 -0.03029948
v 0.20557347 0.03621207 -0.02970149
v 0.23962222 -0.08417162 -0.01121662
v 0.29387395 -0.04588450 -0.03029948
v 0.20557347 -0.08297184 -0.02970149
v 0.10024461 -0.06095124 -0.06024221
v 0.24227749 -0.03728850 -0.04844836
v 0.15338665 -0.07427749 -0.04805803
v 0.10119983 -0.03744764 -0.06641456
v 0.23782671 -0.06020974 -0.04104646
v 0.10024461 0.01419147 -0.06024221
v 0.24227749 -0.00947128 -0.04844836
v 0.15338665 0.02751772 -0.04805803
v 0.10119983 -0.00931214 -0.06641456
v 0.23782671 0.01344997 -0.04104646
v 0.18563988 -0.02337989 -0.05940299
v 0.23962222 0.03741184 0.01121662
v 0.29387395 -0.00087528 0.03029948
v 0.20557347 0.03621207 0.02970149
v 0.29001353 0.02214431 0.00000000
v 0.23962222 -0.08417162 0.01121662
v 0.29387395 -0.04588450 0.03029948
v 0.20557347 -0.08297184 0.02970149
v 0.29001353 -0.06890409 0.00000000
v 0.10024461 -0.06095124 0.06024221
v 0.24227749 -0.03728850 0.04844836
v 0.15338665 -0.07427749 0.04805803
v 0.10119983 -0.03744764 0.06641456
v 0.23782671 -0.06020974 0.04104646
v 0.10024461 0.01419147 0.06024221
v 0.24227749 -0.00947128 0.04844836
v 0.15338665 0.02751772 0.04805803
v 0.10119983 -0.00931214 0.06641456
v 0.23782671 0.01344997 0.04104646
v 0.18563988 -0.02337989 0.05940299
v 0.32576232 -0.02337989 -0.01908286
v 0.32576232 -0.02337989 0.01908286
v 0.32226676 -0.00061779 -0.01134496
v 0.32226676 -0.04614199 -0.01134496
v 0.32226676 -0.00061779 0.01134496
v 0.32226676 -0.04614199 0.01134496
v -0.20610267 0.03741184 -0.01121662
v -0.26035440 -0.00087528 -0.03029948
v -0.17205392 0.03621207 -0.02970149
v -0.20610267 -0.08417162 -0.01121662
v -0.26035440 -0.04588450 -0.03029948
v -0.17205392 -0.08297184 -0.02970149
v -0.06672506 -0.06095124 -0.06024221
v -0.20875794 -0.03728850 -0.04844836
v -0.11986710 -0.07427749 -0.04805803
v -0.06768028 -0.03744764 -0.06641456
v -0.20430715 -0.06020974 -0.04104646
v -0.06672506 0.01419147 -0.06024221
v -0.20875794 -0.00947128 -0.04844836
v -0.11986710 0.02751772 -0.04805803
v -0.06768028 -0.00931214 -0.06641456
v -0.20430715 0.01344997 -0.04104646
v -0.15212033 -0.02337989 -0.05940299
v -0.20610267 0.03741184 0.01121662
v -0.26035440 -0.00087528 0.03029948
v -0.17205392 0.03621207 0.02970149
v -0.25649397 0.02214431 0.00000000
v -0.20610267 -0.08417162 0.01121662
v -0.26035440 -0.04588450 0.03029948
v -0.17205392 -0.08297184 0.02970149
v -0.25649397 -0.06890409 0.00000000
v -0.06672506 -0.06095124 0.06024221
v -0.20875794 -0.03728850 0.04844836
v -0.11986710 -0.07427749 0.04805803
v -0.06768028 -0.03744764 0.06641456
v -0.20430715 -0.06020974 0.04104646
v -0.06672506 0.01419147 0.06024221
v -0.20875794 -0.00947128 0.04844836
v -0.11986710 0.02751772 0.04805803
v -0.06768028 -0.00931214 0.06641456
v -0.20430715 0.01344997 0.04104646
v -0.15212033 -0.02337989 0.05940299
v -0.29224277 -0.02337989 -0.01908286
v -0.29224277 -0.02337989 0.01908286
v -0.28874720 -0.00061779 -0.01134496
v -0.28874720 -0.04614199 -0.01134496
v -0.28874720 -0.00061779 0.01134496
v -0.28874720 -0.04614199 0.01134496
v 0.36033520 -0.02337989 0.00000000
v 0.36033520 -0.02337989 -0.05195531
v 0.50000000 -0.02337989 0.00000000
v 0.36033520 0.00715868 -0.04203273
v 0.36033520 0.02603255 -0.01605507
v 0.36033520 0.02603255 0.01605507
v 0.36033520 0.00715868 0.04203273
v 0.36033520 -0.02337989 0.05195531
v 0.36033520 -0.05391845 0.04203273
v 0.36033520 -0.07279232 0.01605507
v 0.36033520 -0.07279232 -0.01605507
v 0.36033520 -0.05391845 -0.04203273
v -0.28212291 -0.02337989 -0.00977654
v -0.50000000 0.05455307 -0.00977654
v -0.50000000 -0.10131285 -0.00977654
v -0.28212291 -0.02337989 0.00977654
v -0.50000000 0.05455307 0.00977654
v -0.50000000 -0.10131285 0.00977654
v -0.02513966 0.02857542 -0.01256983
v -0.19273743 0.02511173 -0.01256983
v -0.12290503 0.12382682 -0.01256983
v -0.02513966 0.02857542 0.01256983
v -0.19273743 0.02511173 0.01256983
v -0.12290503 0.12382682 0.01256983
v 0.05865922 -0.02896648 -0.00977654
v -0.10893855 -0.02896648 -0.00977654
v -0.16480447 -0.12382682 -0.00977654
v 0.05865922 -0.02896648 0.00977654
v -0.10893855 -0.02896648 0.00977654
v -0.16480447 -0.12382682 0.00977654
v 0.27094972 -0.06248603 -0.16061453
v 0.27094972 -0.06248603 0.16061453
v 0.27094972 0.01572626 -0.16061453
v 0.27094972 0.01572626 0.16061453
v 0.34916201 -0.06248603 -0.16061453
v 0.34916201 -0.06248603 0.16061453
v 0.34916201 0.01572626 -0.16061453
v 0.34916201 0.01572626 0.16061453
v 0.29537064 0.00038131 0.15083799
v 0.32474109 0.00038131 0.15083799
v 0.29537064 -0.04714108 0.15083799
v 0.32474109 -0.04714108 0.15083799
v 0.31005587 -0.03806511 0.17459918
v 0.31005587 -0.00869466 0.17459918
v 0.31005587 -0.03806511 0.12707679
v 0.31005587 -0.00869466 0.12707679
v 0.33381706 -0.02337989 0.13615276
v 0.33381706 -0.02337989 0.16552322
v 0.28629467 -0.02337989 0.13615276
v 0.28629467 -0.02337989 0.16552322
v 0.31005587 0.00455307 0.15083799
v 0.31005587 -0.05131285 0.15083799
v 0.30142411 -0.04597813 0.16480447
v 0.31868763 -0.04597813 0.16480447
v 0.30142411 -0.00078165 0.16480447
v 0.31868763 -0.00078165 0.16480447
v 0.31005587 -0.02337989 0.17877095
v 0.30142411 -0.04597813 0.13687151
v 0.31868763 -0.04597813 0.13687151
v 0.30142411 -0.00078165 0.13687151
v 0.31868763 -0.00078165 0.13687151
v 0.31005587 -0.02337989 0.12290503
v 0.33265411 -0.00941341 0.14220623
v 0.33265411 -0.03734637 0.14220623
v 0.32402235 -0.03201165 0.12823975
v 0.32402235 -0.01474813 0.12823975
v 0.33265411 -0.00941341 0.15946975
v 0.33265411 -0.03734637 0.15946975
v 0.32402235 -0.03201165 0.17343623
v 0.32402235 -0.01474813 0.17343623
v 0.33798883 -0.02337989 0.15083799
v 0.28745763 -0.00941341 0.14220623
v 0.28745763 -0.03734637 0.14220623
v 0.29608939 -0.03201165 0.12823975
v 0.29608939 -0.01474813 0.12823975
v 0.28745763 -0.00941341 0.15946975
v 0.28745763 -0.03734637 0.15946975
v 0.29608939 -0.03201165 0.17343623
v 0.29608939 -0.01474813 0.17343623
v 0.28212291 -0.02337989 0.15083799
v 0.29537064 0.00038131 -0.15083799
v 0.32474109 0.00038131 -0.15083799
v 0.29537064 -0.04714108 -0.15083799
v 0.32474109 -0.04714108 -0.15083799
v 0.31005587 -0.03806511 -0.12707679
v 0.31005587 -0.00869466 -0.12707679
v 0.31005587 -0.03806511 -0.17459918
v 0.31005587 -0.00869466 -0.17459918
v 0.33381706 -0.02337989 -0.16552322
v 0.33381706 -0.02337989 -0.13615276
v 0.28629467 -0.02337989 -0.16552322
v 0.28629467 -0.02337989 -0.13615276
v 0.31005587 0.00455307 -0.15083799
v 0.31005587 -0.05131285 -0.15083799
v 0.30142411 -0.04597813 -0.13687151
v 0.31868763 -0.04597813 -0.13687151
v 0.30142411 -0.00078165 -0.13687151
v 0.31868763 -0.00078165 -0.13687151
v 0.31005587 -0.02337989 -0.12290503
v 0.30142411 -0.04597813 -0.16480447
v 0.31868763 -0.04597813 -0.16480447
v 0.30142411 -0.00078165 -0.16480447
v 0.31868763 -0.00078165 -0.16480447
v 0.31005587 -0.02337989 -0.17877095
v 0.33265411 -0.00941341 -0.15946975
v 0.33265411 -0.03734637 -0.15946975
v 0.32402235 -0.03201165 -0.17343623
v 0.32402235 -0.01474813 -0.17343623
v 0.33265411 -0.00941341 -0.14220623
v 0.33265411 -0.03734637 -0.14220623
v 0.32402235 -0.03201165 -0.12823975
v 0.32402235 -0.01474813 -0.12823975
v 0.33798883 -0.02337989 -0.15083799
v 0.28745763 -0.00941341 -0.15946975
v 0.28745763 -0.03734637 -0.15946975
v 0.29608939 -0.03201165 -0.17343623
v 0.29608939 -0.01474813 -0.17343623
v 0.28745763 -0.00941341 -0.14220623
v 0.28745763 -0.03734637 -0.14220623
v 0.29608939 -0.03201165 -0.12823975
v 0.29608939 -0.01474813 -0.12823975
v 0.28212291 -0.02337989 -0.15083799
f 1 138 54
f 138 38 140
f 54 140 17
f 138 140 54
f 38 139 155
f 139 12 152
f 155 152 41
f 139 152 155
f 17 153 55
f 153 41 151
f 55 151 6
f 153 151 55
f 38 155 140
f 155 41 153
f 140 153 17
f 155 153 140
f 1 54 43
f 54 17 56
f 43 56 13
f 54 56 43
f 17 55 60
f 55 6 58
f 60 58 18
f 55 58 60
f 13 59 44
f 59 18 57
f 44 57 2
f 59 57 44
f 17 60 56
f 60 18 59
f 56 59 13
f 60 59 56
f 1 43 70
f 43 13 72
f 70 72 22
f 43 72 70
f 13 44 75
f 44 2 73
f 75 73 23
f 44 73 75
f 22 76 71
f 76 23 74
f 71 74 8
f 76 74 71
f 13 75 72
f 75 23 76
f 72 76 22
f 75 76 72
f 1 70 121
f 70 22 123
f 121 123 34
f 70 123 121
f 22 71 134
f 71 8 132
f 134 132 37
f 71 132 134
f 34 136 122
f 136 37 133
f 122 133 11
f 136 133 122
f 22 134 123
f 134 37 136
f 123 136 34
f 134 136 123
f 1 121 138
f 121 34 141
f 138 141 38
f 121 141 138
f 34 122 159
f 122 11 157
f 159 157 42
f 122 157 159
f 38 161 139
f 161 42 158
f 139 158 12
f 161 158 139
f 34 159 141
f 159 42 161
f 141 161 38
f 159 161 141
f 2 57 96
f 57 18 98
f 96 98 29
f 57 98 96
f 18 58 111
f 58 6 109
f 111 109 32
f 58 109 111
f 29 113 97
f 113 32 110
f 97 110 10
f 113 110 97
f 18 111 98
f 111 32 113
f 98 113 29
f 111 113 98
f 6 151 62
f 151 41 154
f 62 154 19
f 151 154 62
f 41 152 156
f 152 12 147
f 156 147 40
f 152 147 156
f 19 149 61
f 149 40 146
f 61 146 5
f 149 146 61
f 41 156 154
f 156 40 149
f 154 149 19
f 156 149 154
f 12 158 143
f 158 42 162
f 143 162 39
f 158 162 143
f 42 157 160
f 157 11 125
f 160 125 35
f 157 125 160
f 39 145 142
f 145 35 124
f 142 124 3
f 145 124 142
f 42 160 162
f 160 35 145
f 162 145 39
f 160 145 162
f 11 133 128
f 133 37 137
f 128 137 36
f 133 137 128
f 37 132 135
f 132 8 78
f 135 78 24
f 132 78 135
f 36 130 127
f 130 24 77
f 127 77 7
f 130 77 127
f 37 135 137
f 135 24 130
f 137 130 36
f 135 130 137
f 8 74 90
f 74 23 92
f 90 92 28
f 74 92 90
f 23 73 81
f 73 2 79
f 81 79 25
f 73 79 81
f 28 94 91
f 94 25 80
f 91 80 9
f 94 80 91
f 23 81 92
f 81 25 94
f 92 94 28
f 81 94 92
f 4 100 50
f 100 30 102
f 50 102 16
f 100 102 50
f 30 101 108
f 101 10 105
f 108 105 31
f 101 105 108
f 16 106 51
f 106 31 104
f 51 104 5
f 106 104 51
f 30 108 102
f 108 31 106
f 102 106 16
f 108 106 102
f 4 50 46
f 50 16 52
f 46 52 14
f 50 52 46
f 16 51 53
f 51 5 48
f 53 48 15
f 51 48 53
f 14 49 45
f 49 15 47
f 45 47 3
f 49 47 45
f 16 53 52
f 53 15 49
f 52 49 14
f 53 49 52
f 4 46 66
f 46 14 68
f 66 68 21
f 46 68 66
f 14 45 65
f 45 3 63
f 65 63 20
f 45 63 65
f 21 69 67
f 69 20 64
f 67 64 7
f 69 64 67
f 14 65 68
f 65 20 69
f 68 69 21
f 65 69 68
f 4 66 82
f 66 21 84
f 82 84 26
f 66 84 82
f 21 67 87
f 67 7 85
f 87 85 27
f 67 85 87
f 26 89 83
f 89 27 86
f 83 86 9
f 89 86 83
f 21 87 84
f 87 27 89
f 84 89 26
f 87 89 84
f 4 82 100
f 82 26 103
f 100 103 30
f 82 103 100
f 26 83 118
f 83 9 115
f 118 115 33
f 83 115 118
f 30 120 101
f 120 33 116
f 101 116 10
f 120 116 101
f 26 118 103
f 118 33 120
f 103 120 30
f 118 120 103
f 5 104 61
f 104 31 107
f 61 107 19
f 104 107 61
f 31 105 114
f 105 10 110
f 114 110 32
f 105 110 114
f 19 112 62
f 112 32 109
f 62 109 6
f 112 109 62
f 31 114 107
f 114 32 112
f 107 112 19
f 114 112 107
f 3 47 142
f 47 15 144
f 142 144 39
f 47 144 142
f 15 48 148
f 48 5 146
f 148 146 40
f 48 146 148
f 39 150 143
f 150 40 147
f 143 147 12
f 150 147 143
f 15 148 144
f 148 40 150
f 144 150 39
f 148 150 144
f 7 64 127
f 64 20 129
f 127 129 36
f 64 129 127
f 20 63 126
f 63 3 124
f 126 124 35
f 63 124 126
f 36 131 128
f 131 35 125
f 128 125 11
f 131 125 128
f 20 126 129
f 126 35 131
f 129 131 36
f 126 131 129
f 9 86 91
f 86 27 95
f 91 95 28
f 86 95 91
f 27 85 88
f 85 7 77
f 88 77 24
f 85 77 88
f 28 93 90
f 93 24 78
f 90 78 8
f 93 78 90
f 27 88 95
f 88 24 93
f 95 93 28
f 88 93 95
f 10 116 97
f 116 33 119
f 97 119 29
f 116 119 97
f 33 115 117
f 115 9 80
f 117 80 25
f 115 80 117
f 29 99 96
f 99 25 79
f 96 79 2
f 99 79 96
f 33 117 119
f 117 25 99
f 119 99 29
f 117 99 119
f 164 163 166
f 164 166 165
f 166 163 167
f 166 167 165
f 167 163 168
f 167 168 165
f 168 163 169
f 168 169 165
f 169 163 170
f 169 170 165
f 170 163 171
f 170 171 165
f 171 163 172
f 171 172 165
f 172 163 173
f 172 173 165
f 173 163 174
f 173 174 165
f 174 163 164
f 174 164 165
f 175 176 177
f 178 180 179
f 175 178 179
f 175 179 176
f 176 179 180
f 176 180 177
f 177 180 178
f 177 178 175
f 181 182 183
f 184 186 185
f 181 184 185
f 181 185 182
f 182 185 186
f 182 186 183
f 183 186 184
f 183 184 181
f 187 188 189
f 190 192 191
f 187 190 191
f 187 191 188
f 188 191 192
f 188 192 189
f 189 192 190
f 189 190 187
f 194 196 193
f 197 194 193
f 193 196 195
f 195 197 193
f 194 200 196
f 198 194 197
f 198 200 194
f 196 200 195
f 199 197 195
f 195 200 199
f 199 198 197
f 200 198 199
f 201 238 217
f 238 212 241
f 217 241 206
f 238 241 217
f 201 217 213
f 217 206 218
f 213 218 202
f 217 218 213
f 201 213 222
f 213 202 223
f 222 223 208
f 213 223 222
f 201 222 234
f 222 208 237
f 234 237 211
f 222 237 234
f 201 234 238
f 234 211 242
f 238 242 212
f 234 242 238
f 202 218 229
f 218 206 232
f 229 232 210
f 218 232 229
f 206 241 219
f 241 212 240
f 219 240 205
f 241 240 219
f 212 242 239
f 242 211 235
f 239 235 203
f 242 235 239
f 211 237 236
f 237 208 224
f 236 224 207
f 237 224 236
f 208 223 228
f 223 202 225
f 228 225 209
f 223 225 228
f 204 230 216
f 230 210 231
f 216 231 205
f 230 231 216
f 204 216 214
f 216 205 215
f 214 215 203
f 216 215 214
f 204 214 221
f 214 203 220
f 221 220 207
f 214 220 221
f 204 221 226
f 221 207 227
f 226 227 209
f 221 227 226
f 204 226 230
f 226 209 233
f 230 233 210
f 226 233 230
f 205 231 219
f 231 210 232
f 219 232 206
f 231 232 219
f 203 215 239
f 215 205 240
f 239 240 212
f 215 240 239
f 207 220 236
f 220 203 235
f 236 235 211
f 220 235 236
f 209 227 228
f 227 207 224
f 228 224 208
f 227 224 228
f 210 233 229
f 233 209 225
f 229 225 202
f 233 225 229
f 243 280 259
f 280 254 283
f 259 283 248
f 280 283 259
f 243 259 255
f 259 248 260
f 255 260 244
f 259 260 255
f 243 255 264
f 255 244 265
f 264 265 250
f 255 265 264
f 243 264 276
f 264 250 279
f 276 279 253
f 264 279 276
f 243 276 280
f 276 253 284
f 280 284 254
f 276 284 280
f 244 260 271
f 260 248 274
f 271 274 252
f 260 274 271
f 248 283 261
f 283 254 282
f 261 282 247
f 283 282 261
f 254 284 281
f 284 253 277
f 281 277 245
f 284 277 281
f 253 279 278
f 279 250 266
f 278 266 249
f 279 266 278
f 250 265 270
f 265 244 267
f 270 267 251
f 265 267 270
f 246 272 258
f 272 252 273
f 258 273 247
f 272 273 258
f 246 258 256
f 258 247 257
f 256 257 245
f 258 257 256
f 246 256 263
f 256 245 262
f 263 262 249
f 256 262 263
f 246 263 268
f 263 249 269
f 268 269 251
f 263 269 268
f 246 268 272
f 268 251 275
f 272 275 252
f 268 275 272
f 247 273 261
f 273 252 274
f 261 274 248
f 273 274 261
f 245 257 281
f 257 247 282
f 281 282 254
f 257 282 281
f 249 262 278
f 262 245 277
f 278 277 253
f 262 277 278
f 251 269 270
f 269 249 266
f 270 266 250
f 269 266 270
f 252 275 271
f 275 251 267
f 271 267 244
f 275 267 271

