# https://github.com/mikedh/trimesh
v -0.12494636 0.07001637 0.00000000
v 0.30573732 0.07001637 0.00000000
v -0.12494636 -0.19431015 0.00000000
v 0.30573732 -0.19431015 0.00000000
v 0.09039548 -0.14382828 0.08170093
v 0.09039548 0.01953449 0.08170093
v 0.09039548 -0.14382828 -0.08170093
v 0.09039548 0.01953449 -0.08170093
v 0.43882590 -0.06214689 -0.05049395
v 0.43882590 -0.06214689 0.05049395
v -0.25803494 -0.06214689 -0.05049395
v -0.25803494 -0.06214689 0.05049395
v 0.09039548 0.09322034 0.00000000
v 0.09039548 -0.21751412 0.00000000
v -0.03617928 -0.18784162 0.04802260
v 0.21697024 -0.18784162 0.04802260
v -0.03617928 0.06354784 0.04802260
v 0.21697024 0.06354784 0.04802260
v 0.09039548 -0.06214689 0.09604520
v -0.03617928 -0.18784162 -0.04802260
v 0.21697024 -0.18784162 -0.04802260
v -0.03617928 0.06354784 -0.04802260
v 0.21697024 0.06354784 -0.04802260
v 0.09039548 -0.06214689 -0.09604520
v 0.42177250 0.01553672 -0.02967960
v 0.42177250 -0.13983051 -0.02967960
v 0.29519774 -0.11015801 -0.07770220
v 0.29519774 -0.01413578 -0.07770220
v 0.42177250 0.01553672 0.02967960
v 0.42177250 -0.13983051 0.02967960
v 0.29519774 -0.11015801 0.07770220
v 0.29519774 -0.01413578 0.07770220
v 0.50000000 -0.06214689 0.00000000
v -0.24098154 0.01553672 -0.02967960
v -0.24098154 -0.13983051 -0.02967960
v -0.11440678 -0.11015801 -0.07770220
v -0.11440678 -0.01413578 -0.07770220
v -0.24098154 0.01553672 0.02967960
v -0.24098154 -0.13983051 0.02967960
v -0.11440678 -0.11015801 0.07770220
v -0.11440678 -0.01413578 0.07770220
v -0.31920904 -0.06214689 0.00000000
v -0.02153573 0.08730681 0.00000000
v 0.20232669 0.08730681 0.00000000
v -0.02153573 -0.21160059 0.00000000
v 0.20232669 -0.21160059 0.00000000
v -0.08732724 -0.19617731 0.02496137
v 0.02460397 -0.16993764 0.06742819
v 0.02385119 -0.20990991 0.02524697
v 0.26811820 -0.19617731 0.02496137
v 0.15618699 -0.16993764 0.06742819
v 0.15693977 -0.20990991 0.02524697
v 0.09039548 -0.19431015 0.05049395
v -0.08732724 0.07188352 0.02496137
v 0.02460397 0.04564386 0.06742819
v 0.02385119 0.08561613 0.02524697
v 0.26811820 0.07188352 0.02496137
v 0.15618699 0.04564386 0.06742819
v 0.15693977 0.08561613 0.02524697
v 0.09039548 0.07001637 0.05049395
v 0.09039548 -0.10460356 0.09238956
v 0.09039548 -0.01969023 0.09238956
v -0.08732724 -0.19617731 -0.02496137
v 0.02460397 -0.16993764 -0.06742819
v 0.02385119 -0.20990991 -0.02524697
v 0.26811820 -0.19617731 -0.02496137
v 0.15618699 -0.16993764 -0.06742819
v 0.15693977 -0.20990991 -0.02524697
v 0.09039548 -0.19431015 -0.05049395
v -0.08732724 0.07188352 -0.02496137
v 0.02460397 0.04564386 -0.06742819
v 0.02385119 0.08561613 -0.02524697
v 0.26811820 0.07188352 -0.02496137
v 0.15618699 0.04564386 -0.06742819
v 0.15693977 0.08561613 -0.02524697
v 0.09039548 0.07001637 -0.05049395
v 0.09039548 -0.10460356 -0.09238956
v 0.09039548 -0.01969023 -0.09238956
v 0.37457110 0.04692812 -0.01542698
v 0.44374839 -0.02176821 -0.04167291
v 0.33115498 0.04477543 -0.04085046
v 0.37457110 -0.17122191 -0.01542698
v 0.44374839 -0.10252558 -0.04167291
v 0.33115498 -0.16906922 -0.04085046
v 0.19684838 -0.12955896 -0.08285516
v 0.37795688 -0.08710229 -0.06663428
v 0.26461069 -0.15346946 -0.06609744
v 0.19806640 -0.08738783 -0.09134441
v 0.37228161 -0.12822852 -0.05645395
v 0.19684838 0.00526517 -0.08285516
v 0.37795688 -0.03719149 -0.06663428
v 0.26461069 0.02917567 -0.06609744
v 0.19806640 -0.03690596 -0.09134441
v 0.37228161 0.00393474 -0.05645395
v 0.30573732 -0.06214689 -0.08170093
v 0.37457110 0.04692812 0.01542698
v 0.44374839 -0.02176821 0.04167291
v 0.33115498 0.04477543 0.04085046
v 0.43882590 0.01953449 0.00000000
v 0.37457110 -0.17122191 0.01542698
v 0.44374839 -0.10252558 0.04167291
v 0.33115498 -0.16906922 0.04085046
v 0.43882590 -0.14382828 0.00000000
v 0.19684838 -0.12955896 0.08285516
v 0.37795688 -0.08710229 0.06663428
v 0.26461069 -0.15346946 0.06609744
v 0.19806640 -0.08738783 0.09134441
v 0.37228161 -0.12822852 0.05645395
v 0.19684838 0.00526517 0.08285516
v 0.37795688 -0.03719149 0.06663428
v 0.26461069 0.02917567 0.06609744
v 0.19806640 -0.03690596 0.09134441
v 0.37228161 0.00393474 0.05645395
v 0.30573732 -0.06214689 0.08170093
v 0.48440978 -0.06214689 -0.02624594
v 0.48440978 -0.06214689 0.02624594
v 0.47995253 -0.02130620 -0.01560349
v 0.47995253 -0.10298759 -0.01560349
v 0.47995253 -0.02130620 0.01560349
v 0.47995253 -0.10298759 0.01560349
v -0.19378014 0.04692812 -0.01542698
v -0.26295743 -0.02176821 -0.04167291
v -0.15036402 0.04477543 -0.04085046
v -0.19378014 -0.17122191 -0.01542698
v -0.26295743 -0.10252558 -0.04167291
v -0.15036402 -0.16906922 -0.04085046
v -0.01605742 -0.12955896 -0.08285516
v -0.19716592 -0.08710229 -0.06663428
v -0.08381973 -0.15346946 -0.06609744
v -0.01727544 -0.08738783 -0.09134441
v -0.19149065 -0.12822852 -0.05645395
v -0.01605742 0.00526517 -0.08285516
v -0.19716592 -0.03719149 -0.06663428
v -0.08381973 0.02917567 -0.06609744
v -0.01727544 -0.03690596 -0.09134441
v -0.19149065 0.00393474 -0.05645395
v -0.12494636 -0.06214689 -0.08170093
v -0.19378014 0.04692812 0.01542698
v -0.26295743 -0.02176821 0.04167291
v -0.15036402 0.04477543 0.04085046
v -0.25803494 0.01953449 0.00000000
v -0.19378014 -0.17122191 0.01542698
v -0.26295743 -0.10252558 0.04167291
v -0.15036402 -0.16906922 0.04085046
v -0.25803494 -0.14382828 0.00000000
v -0.01605742 -0.12955896 0.08285516
v -0.19716592 -0.08710229 0.06663428
v -0.08381973 -0.15346946 0.06609744
v -0.01727544 -0.08738783 0.09134441
v -0.19149065 -0.12822852 0.05645395
v -0.01605742 0.00526517 0.08285516
v -0.19716592 -0.03719149 0.06663428
v -0.08381973 0.02917567 0.06609744
v -0.01727544 -0.03690596 0.09134441
v -0.19149065 0.00393474 0.05645395
v -0.12494636 -0.06214689 0.08170093
v -0.30361882 -0.06214689 -0.02624594
v -0.30361882 -0.06214689 0.02624594
v -0.29916157 -0.02130620 -0.01560349
v -0.29916157 -0.10298759 -0.01560349
v -0.29916157 -0.02130620 0.01560349
v -0.29916157 -0.10298759 0.01560349
v -0.27401130 -0.06214689 -0.01536723
v -0.50000000 0.08079096 -0.01536723
v -0.50000000 -0.20508475 -0.01536723
v -0.27401130 -0.06214689 0.01536723
v -0.50000000 0.08079096 0.01536723
v -0.50000000 -0.20508475 0.01536723
v 0.00564972 0.05593220 -0.01344633
v -0.31638418 0.04971751 -0.01344633
v -0.16384181 0.09491525 -0.01344633
v 0.00564972 0.05593220 0.01344633
v -0.31638418 0.04971751 0.01344633
v -0.16384181 0.09491525 0.01344633
v 0.14689266 -0.07344633 -0.01152542
v -0.15819209 -0.07909605 -0.01152542
v -0.20338983 -0.19887006 -0.01152542
v 0.14689266 -0.07344633 0.01152542
v -0.15819209 -0.07909605 0.01152542
v -0.20338983 -0.19887006 0.01152542
v 0.37885320 0.21118577 0.00000000
v 0.42340669 0.21118577 0.00000000
v 0.37885320 0.13909672 0.00000000
v 0.42340669 0.13909672 0.00000000
v 0.40112994 0.15286450 0.03604453
v 0.40112994 0.19741798 0.03604453
v 0.40112994 0.15286450 -0.03604453
v 0.40112994 0.19741798 -0.03604453
v 0.43717447 0.17514124 -0.02227674
v 0.43717447 0.17514124 0.02227674
v 0.36508542 0.17514124 -0.02227674
v 0.36508542 0.17514124 0.02227674
v 0.40112994 0.21751412 0.00000000
v 0.40112994 0.13276836 0.00000000
v 0.38803600 0.14086086 0.02118644
v 0.41422388 0.14086086 0.02118644
v 0.38803600 0.20942162 0.02118644
v 0.41422388 0.20942162 0.02118644
v 0.40112994 0.17514124 0.04237288
v 0.38803600 0.14086086 -0.02118644
v 0.41422388 0.14086086 -0.02118644
v 0.38803600 0.20942162 -0.02118644
v 0.41422388 0.20942162 -0.02118644
v 0.40112994 0.17514124 -0.04237288
v 0.43541032 0.19632768 -0.01309394
v 0.43541032 0.15395480 -0.01309394
v 0.42231638 0.16204730 -0.03428038
v 0.42231638 0.18823518 -0.03428038
v 0.43541032 0.19632768 0.01309394
v 0.43541032 0.15395480 0.01309394
v 0.42231638 0.16204730 0.03428038
v 0.42231638 0.18823518 0.03428038
v 0.44350282 0.17514124 0.00000000
v 0.36684956 0.19632768 -0.01309394
v 0.36684956 0.15395480 -0.01309394
v 0.37994350 0.16204730 -0.03428038
v 0.37994350 0.18823518 -0.03428038
v 0.36684956 0.19632768 0.01309394
v 0.36684956 0.15395480 0.01309394
v 0.37994350 0.16204730 0.03428038
v 0.37994350 0.18823518 0.03428038
v 0.35875706 0.17514124 0.00000000
f 1 138 54
f 138 38 140
f 54 140 17
f 138 140 54
f 38 139 155
f 139 12 152
f 155 152 41
f 139 152 155
f 17 153 55
f 153 41 151
f 55 151 6
f 153 151 55
f 38 155 140
f 155 41 153
f 140 153 17
f 155 153 140
f 1 54 43
f 54 17 56
f 43 56 13
f 54 56 43
f 17 55 60
f 55 6 58
f 60 58 18
f 55 58 60
f 13 59 44
f 59 18 57
f 44 57 2
f 59 57 44
f 17 60 56
f 60 18 59
f 56 59 13
f 60 59 56
f 1 43 70
f 43 13 72
f 70 72 22
f 43 72 70
f 13 44 75
f 44 2 73
f 75 73 23
f 44 73 75
f 22 76 71
f 76 23 74
f 71 74 8
f 76 74 71
f 13 75 72
f 75 23 76
f 72 76 22
f 75 76 72
f 1 70 121
f 70 22 123
f 121 123 34
f 70 123 121
f 22 71 134
f 71 8 132
f 134 132 37
f 71 132 134
f 34 136 122
f 136 37 133
f 122 133 11
f 136 133 122
f 22 134 123
f 134 37 136
f 123 136 34
f 134 136 123
f 1 121 138
f 121 34 141
f 138 141 38
f 121 141 138
f 34 122 159
f 122 11 157
f 159 157 42
f 122 157 159
f 38 161 139
f 161 42 158
f 139 158 12
f 161 158 139
f 34 159 141
f 159 42 161
f 141 161 38
f 159 161 141
f 2 57 96
f 57 18 98
f 96 98 29
f 57 98 96
f 18 58 111
f 58 6 109
f 111 109 32
f 58 109 111
f 29 113 97
f 113 32 110
f 97 110 10
f 113 110 97
f 18 111 98
f 111 32 113
f 98 113 29
f 111 113 98
f 6 151 62
f 151 41 154
f 62 154 19
f 151 154 62
f 41 152 156
f 152 12 147
f 156 147 40
f 152 147 156
f 19 149 61
f 149 40 146
f 61 146 5
f 149 146 61
f 41 156 154
f 156 40 149
f 154 149 19
f 156 149 154
f 12 158 143
f 158 42 162
f 143 162 39
f 158 162 143
f 42 157 160
f 157 11 125
f 160 125 35
f 157 125 160
f 39 145 142
f 145 35 124
f 142 124 3
f 145 124 142
f 42 160 162
f 160 35 145
f 162 145 39
f 160 145 162
f 11 133 128
f 133 37 137
f 128 137 36
f 133 137 128
f 37 132 135
f 132 8 78
f 135 78 24
f 132 78 135
f 36 130 127
f 130 24 77
f 127 77 7
f 130 77 127
f 37 135 137
f 135 24 130
f 137 130 36
f 135 130 137
f 8 74 90
f 74 23 92
f 90 92 28
f 74 92 90
f 23 73 81
f 73 2 79
f 81 79 25
f 73 79 81
f 28 94 91
f 94 25 80
f 91 80 9
f 94 80 91
f 23 81 92
f 81 25 94
f 92 94 28
f 81 94 92
f 4 100 50
f 100 30 102
f 50 102 16
f 100 102 50
f 30 101 108
f 101 10 105
f 108 105 31
f 101 105 108
f 16 106 51
f 106 31 104
f 51 104 5
f 106 104 51
f 30 108 102
f 108 31 106
f 102 106 16
f 108 106 102
f 4 50 46
f 50 16 52
f 46 52 14
f 50 52 46
f 16 51 53
f 51 5 48
f 53 48 15
f 51 48 53
f 14 49 45
f 49 15 47
f 45 47 3
f 49 47 45
f 16 53 52
f 53 15 49
f 52 49 14
f 53 49 52
f 4 46 66
f 46 14 68
f 66 68 21
f 46 68 66
f 14 45 65
f 45 3 63
f 65 63 20
f 45 63 65
f 21 69 67
f 69 20 64
f 67 64 7
f 69 64 67
f 14 65 68
f 65 20 69
f 68 69 21
f 65 69 68
f 4 66 82
f 66 21 84
f 82 84 26
f 66 84 82
f 21 67 87
f 67 7 85
f 87 85 27
f 67 85 87
f 26 89 83
f 89 27 86
f 83 86 9
f 89 86 83
f 21 87 84
f 87 27 89
f 84 89 26
f 87 89 84
f 4 82 100
f 82 26 103
f 100 103 30
f 82 103 100
f 26 83 118
f 83 9 115
f 118 115 33
f 83 115 118
f 30 120 101
f 120 33 116
f 101 116 10
f 120 116 101
f 26 118 103
f 118 33 120
f 103 120 30
f 118 120 103
f 5 104 61
f 104 31 107
f 61 107 19
f 104 107 61
f 31 105 114
f 105 10 110
f 114 110 32
f 105 110 114
f 19 112 62
f 112 32 109
f 62 109 6
f 112 109 62
f 31 114 107
f 114 32 112
f 107 112 19
f 114 112 107
f 3 47 142
f 47 15 144
f 142 144 39
f 47 144 142
f 15 48 148
f 48 5 146
f 148 146 40
f 48 146 148
f 39 150 143
f 150 40 147
f 143 147 12
f 150 147 143
f 15 148 144
f 148 40 150
f 144 150 39
f 148 150 144
f 7 64 127
f 64 20 129
f 127 129 36
f 64 129 127
f 20 63 126
f 63 3 124
f 126 124 35
f 63 124 126
f 36 131 128
f 131 35 125
f 128 125 11
f 131 125 128
f 20 126 129
f 126 35 131
f 129 131 36
f 126 131 129
f 9 86 91
f 86 27 95
f 91 95 28
f 86 95 91
f 27 85 88
f 85 7 77
f 88 77 24
f 85 77 88
f 28 93 90
f 93 24 78
f 90 78 8
f 93 78 90
f 27 88 95
f 88 24 93
f 95 93 28
f 88 93 95
f 10 116 97
f 116 33 119
f 97 119 29
f 116 119 97
f 33 115 117
f 115 9 80
f 117 80 25
f 115 80 117
f 29 99 96
f 99 25 79
f 96 79 2
f 99 79 96
f 33 117 119
f 117 25 99
f 119 99 29
f 117 99 119
f 163 164 165
f 166 168 167
f 163 166 167
f 163 167 164
f 164 167 168
f 164 168 165
f 165 168 166
f 165 166 163
f 169 170 171
f 172 174 173
f 169 172 173
f 169 173 170
f 170 173 174
f 170 174 171
f 171 174 172
f 171 172 169
f 175 176 177
f 178 180 179
f 175 178 179
f 175 179 176
f 176 179 180
f 176 180 177
f 177 180 178
f 177 178 175
f 181 218 197
f 218 192 221
f 197 221 186
f 218 221 197
f 181 197 193
f 197 186 198
f 193 198 182
f 197 198 193
f 181 193 202
f 193 182 203
f 202 203 188
f 193 203 202
f 181 202 214
f 202 188 217
f 214 217 191
f 202 217 214
f 181 214 218
f 214 191 222
f 218 222 192
f 214 222 218
f 182 198 209
f 198 186 212
f 209 212 190
f 198 212 209
f 186 221 199
f 221 192 220
f 199 220 185
f 221 220 199
f 192 222 219
f 222 191 215
f 219 215 183
f 222 215 219
f 191 217 216
f 217 188 204
f 216 204 187
f 217 204 216
f 188 203 208
f 203 182 205
f 208 205 189
f 203 205 208
f 184 210 196
f 210 190 211
f 196 211 185
f 210 211 196
f 184 196 194
f 196 185 195
f 194 195 183
f 196 195 194
f 184 194 201
f 194 183 200
f 201 200 187
f 194 200 201
f 184 201 206
f 201 187 207
f 206 207 189
f 201 207 206
f 184 206 210
f 206 189 213
f 210 213 190
f 206 213 210
f 185 211 199
f 211 190 212
f 199 212 186
f 211 212 199
f 183 195 219
f 195 185 220
f 219 220 192
f 195 220 219
f 187 200 216
f 200 183 215
f 216 215 191
f 200 215 216
f 189 207 208
f 207 187 204
f 208 204 188
f 207 204 208
f 190 213 209
f 213 189 205
f 209 205 182
f 213 205 209

