# https://github.com/mikedh/trimesh
v -0.10319602 0.11379907 0.00000000
v 0.31249835 0.11379907 0.00000000
v -0.10319602 -0.22250474 0.00000000
v 0.31249835 -0.22250474 0.00000000
v 0.10465116 -0.15827643 0.09495637
v 0.10465116 0.04957075 0.09495637
v 0.10465116 -0.15827643 -0.09495637
v 0.10465116 0.04957075 -0.09495637
v 0.44095497 -0.05435284 -0.05868626
v 0.44095497 -0.05435284 0.05868626
v -0.23165265 -0.05435284 -0.05868626
v -0.23165265 -0.05435284 0.05868626
v 0.10465116 0.14332158 0.00000000
v 0.10465116 -0.25202726 0.00000000
v -0.01751835 -0.21427480 0.05581395
v 0.22682067 -0.21427480 0.05581395
v -0.01751835 0.10556913 0.05581395
v 0.22682067 0.10556913 0.05581395
v 0.10465116 -0.05435284 0.11162791
v -0.01751835 -0.21427480 -0.05581395
v 0.22682067 -0.21427480 -0.05581395
v -0.01751835 0.10556913 -0.05581395
v 0.22682067 0.10556913 -0.05581395
v 0.10465116 -0.05435284 -0.11162791
v 0.42449509 0.04448437 -0.03449492
v 0.42449509 -0.15319005 -0.03449492
v 0.30232558 -0.11543759 -0.09030887
v 0.30232558 0.00673192 -0.09030887
v 0.42449509 0.04448437 0.03449492
v 0.42449509 -0.15319005 0.03449492
v 0.30232558 -0.11543759 0.09030887
v 0.30232558 0.00673192 0.09030887
v 0.50000000 -0.05435284 0.00000000
v -0.21519277 0.04448437 -0.03449492
v -0.21519277 -0.15319005 -0.03449492
v -0.09302326 -0.11543759 -0.09030887
v -0.09302326 0.00673192 -0.09030887
v -0.21519277 0.04448437 0.03449492
v -0.21519277 -0.15319005 0.03449492
v -0.09302326 -0.11543759 0.09030887
v -0.09302326 0.00673192 0.09030887
v -0.29069767 -0.05435284 0.00000000
v -0.00338444 0.13579777 0.00000000
v 0.21268677 0.13579777 0.00000000
v -0.00338444 -0.24450344 0.00000000
v 0.21268677 -0.24450344 0.00000000
v -0.06688618 -0.22488033 0.02901119
v 0.04114943 -0.19149549 0.07836798
v 0.04042285 -0.24235238 0.02934313
v 0.27618850 -0.22488033 0.02901119
v 0.16815290 -0.19149549 0.07836798
v 0.16887947 -0.24235238 0.02934313
v 0.10465116 -0.22250474 0.05868626
v -0.06688618 0.11617465 0.02901119
v 0.04114943 0.08278981 0.07836798
v 0.04042285 0.13364671 0.02934313
v 0.27618850 0.11617465 0.02901119
v 0.16815290 0.08278981 0.07836798
v 0.16887947 0.13364671 0.02934313
v 0.10465116 0.11379907 0.05868626
v 0.10465116 -0.10837064 0.10737917
v 0.10465116 -0.00033504 0.10737917
v -0.06688618 -0.22488033 -0.02901119
v 0.04114943 -0.19149549 -0.07836798
v 0.04042285 -0.24235238 -0.02934313
v 0.27618850 -0.22488033 -0.02901119
v 0.16815290 -0.19149549 -0.07836798
v 0.16887947 -0.24235238 -0.02934313
v 0.10465116 -0.22250474 -0.05868626
v -0.06688618 0.11617465 -0.02901119
v 0.04114943 0.08278981 -0.07836798
v 0.04042285 0.13364671 -0.02934313
v 0.27618850 0.11617465 -0.02901119
v 0.16815290 0.08278981 -0.07836798
v 0.16887947 0.13364671 -0.02934313
v 0.10465116 0.11379907 -0.05868626
v 0.10465116 -0.10837064 -0.10737917
v 0.10465116 -0.00033504 -0.10737917
v 0.37893647 0.08442378 -0.01792990
v 0.44570614 -0.00297886 -0.04843407
v 0.33703138 0.08168491 -0.04747818
v 0.37893647 -0.19312946 -0.01792990
v 0.44570614 -0.10572682 -0.04843407
v 0.33703138 -0.19039059 -0.04747818
v 0.20739913 -0.14012151 -0.09629788
v 0.38220441 -0.08610371 -0.07744526
v 0.27280307 -0.17054295 -0.07682132
v 0.20857475 -0.08646699 -0.10616445
v 0.37672666 -0.13842879 -0.06561324
v 0.20739913 0.03141583 -0.09629788
v 0.38220441 -0.02260197 -0.07744526
v 0.27280307 0.06183727 -0.07682132
v 0.20857475 -0.02223868 -0.10616445
v 0.37672666 0.02972311 -0.06561324
v 0.31249835 -0.05435284 -0.09495637
v 0.37893647 0.08442378 0.01792990
v 0.44570614 -0.00297886 0.04843407
v 0.33703138 0.08168491 0.04747818
v 0.44095497 0.04957075 0.00000000
v 0.37893647 -0.19312946 0.01792990
v 0.44570614 -0.10572682 0.04843407
v 0.33703138 -0.19039059 0.04747818
v 0.44095497 -0.15827643 0.00000000
v 0.20739913 -0.14012151 0.09629788
v 0.38220441 -0.08610371 0.07744526
v 0.27280307 -0.17054295 0.07682132
v 0.20857475 -0.08646699 0.10616445
v 0.37672666 -0.13842879 0.06561324
v 0.20739913 0.03141583 0.09629788
v 0.38220441 -0.02260197 0.07744526
v 0.27280307 0.06183727 0.07682132
v 0.20857475 -0.02223868 0.10616445
v 0.37672666 0.02972311 0.06561324
v 0.31249835 -0.05435284 0.09495637
v 0.48495237 -0.05435284 -0.03050417
v 0.48495237 -0.05435284 0.03050417
v 0.48065025 -0.00239104 -0.01813505
v 0.48065025 -0.10631463 -0.01813505
v 0.48065025 -0.00239104 0.01813505
v 0.48065025 -0.10631463 0.01813505
v -0.16963414 0.08442378 -0.01792990
v -0.23640382 -0.00297886 -0.04843407
v -0.12772905 0.08168491 -0.04747818
v -0.16963414 -0.19312946 -0.01792990
v -0.23640382 -0.10572682 -0.04843407
v -0.12772905 -0.19039059 -0.04747818
v 0.00190320 -0.14012151 -0.09629788
v -0.17290208 -0.08610371 -0.07744526
v -0.06350074 -0.17054295 -0.07682132
v 0.00072757 -0.08646699 -0.10616445
v -0.16742433 -0.13842879 -0.06561324
v 0.00190320 0.03141583 -0.09629788
v -0.17290208 -0.02260197 -0.07744526
v -0.06350074 0.06183727 -0.07682132
v 0.00072757 -0.02223868 -0.10616445
v -0.16742433 0.02972311 -0.06561324
v -0.10319602 -0.05435284 -0.09495637
v -0.16963414 0.08442378 0.01792990
v -0.23640382 -0.00297886 0.04843407
v -0.12772905 0.08168491 0.04747818
v -0.23165265 0.04957075 0.00000000
v -0.16963414 -0.19312946 0.01792990
v -0.23640382 -0.10572682 0.04843407
v -0.12772905 -0.19039059 0.04747818
v -0.23165265 -0.15827643 0.00000000
v 0.00190320 -0.14012151 0.09629788
v -0.17290208 -0.08610371 0.07744526
v -0.06350074 -0.17054295 0.07682132
v 0.00072757 -0.08646699 0.10616445
v -0.16742433 -0.13842879 0.06561324
v 0.00190320 0.03141583 0.09629788
v -0.17290208 -0.02260197 0.07744526
v -0.06350074 0.06183727 0.07682132
v 0.00072757 -0.02223868 0.10616445
v -0.16742433 0.02972311 0.06561324
v -0.10319602 -0.05435284 0.09495637
v -0.27565005 -0.05435284 -0.03050417
v -0.27565005 -0.05435284 0.03050417
v -0.27134793 -0.00239104 -0.01813505
v -0.27134793 -0.10631463 -0.01813505
v -0.27134793 -0.00239104 0.01813505
v -0.27134793 -0.10631463 0.01813505
v -0.25348837 -0.05435284 -0.01786047
v -0.50000000 0.12750763 -0.01786047
v -0.50000000 -0.23621330 -0.01786047
v -0.25348837 -0.05435284 0.01786047
v -0.50000000 0.12750763 0.01786047
v -0.50000000 -0.23621330 0.01786047
v 0.03488372 0.09587972 -0.01562791
v -0.23023256 0.08797274 -0.01562791
v -0.10465116 0.18099600 -0.01562791
v 0.03488372 0.09587972 0.01562791
v -0.23023256 0.08797274 0.01562791
v -0.10465116 0.18099600 0.01562791
v 0.15116279 -0.06365516 -0.01339535
v -0.10000000 -0.06830633 -0.01339535
v -0.13720930 -0.22830633 -0.01339535
v 0.15116279 -0.06365516 0.01339535
v -0.10000000 -0.06830633 0.01339535
v -0.13720930 -0.22830633 0.01339535
v -0.10465116 0.06192623 0.00000000
v -0.10465116 0.06192623 0.01023256
v -0.16046512 0.38750763 0.01023256
v -0.16046512 0.38750763 0.00000000
v -0.09751968 0.06314877 0.00723551
v -0.15333364 0.38873017 0.00723551
v -0.09456573 0.06365516 0.00000000
v -0.15037968 0.38923656 0.00000000
v -0.09751968 0.06314877 -0.00723551
v -0.15333364 0.38873017 -0.00723551
v -0.10465116 0.06192623 -0.01023256
v -0.16046512 0.38750763 -0.01023256
v -0.11178264 0.06070369 -0.00723551
v -0.16759660 0.38628509 -0.00723551
v -0.11473660 0.06019730 -0.00000000
v -0.17055055 0.38577869 -0.00000000
v -0.11178264 0.06070369 0.00723551
v -0.16759660 0.38628509 0.00723551
v -0.03023256 0.06192623 0.00000000
v -0.03023256 0.06192623 0.01023256
v -0.08604651 0.38750763 0.01023256
v -0.08604651 0.38750763 0.00000000
v -0.02310108 0.06314877 0.00723551
v -0.07891503 0.38873017 0.00723551
v -0.02014712 0.06365516 0.00000000
v -0.07596107 0.38923656 0.00000000
v -0.02310108 0.06314877 -0.00723551
v -0.07891503 0.38873017 -0.00723551
v -0.03023256 0.06192623 -0.01023256
v -0.08604651 0.38750763 -0.01023256
v -0.03736404 0.06070369 -0.00723551
v -0.09317799 0.38628509 -0.00723551
v -0.04031800 0.06019730 -0.00000000
v -0.09613195 0.38577869 -0.00000000
v -0.03736404 0.06070369 0.00723551
v -0.09317799 0.38628509 0.00723551
v 0.04418605 0.06192623 0.00000000
v 0.04418605 0.06192623 0.01023256
v -0.01162791 0.38750763 0.01023256
v -0.01162791 0.38750763 0.00000000
v 0.05131753 0.06314877 0.00723551
v -0.00449643 0.38873017 0.00723551
v 0.05427148 0.06365516 0.00000000
v -0.00154247 0.38923656 0.00000000
v 0.05131753 0.06314877 -0.00723551
v -0.00449643 0.38873017 -0.00723551
v 0.04418605 0.06192623 -0.01023256
v -0.01162791 0.38750763 -0.01023256
v 0.03705457 0.06070369 -0.00723551
v -0.01875939 0.38628509 -0.00723551
v 0.03410061 0.06019730 -0.00000000
v -0.02171334 0.38577869 -0.00000000
v 0.03705457 0.06070369 0.00723551
v -0.01875939 0.38628509 0.00723551
v 0.11860465 0.06192623 0.00000000
v 0.11860465 0.06192623 0.01023256
v 0.06279070 0.38750763 0.01023256
v 0.06279070 0.38750763 0.00000000
v 0.12573613 0.06314877 0.00723551
v 0.06992218 0.38873017 0.00723551
v 0.12869009 0.06365516 0.00000000
v 0.07287613 0.38923656 0.00000000
v 0.12573613 0.06314877 -0.00723551
v 0.06992218 0.38873017 -0.00723551
v 0.11860465 0.06192623 -0.01023256
v 0.06279070 0.38750763 -0.01023256
v 0.11147317 0.06070369 -0.00723551
v 0.05565922 0.38628509 -0.00723551
v 0.10851921 0.06019730 -0.00000000
v 0.05270526 0.38577869 -0.00000000
v 0.11147317 0.06070369 0.00723551
v 0.05565922 0.38628509 0.00723551
v 0.19302326 0.06192623 0.00000000
v 0.19302326 0.06192623 0.01023256
v 0.13720930 0.38750763 0.01023256
v 0.13720930 0.38750763 0.00000000
v 0.20015474 0.06314877 0.00723551
v 0.14434078 0.38873017 0.00723551
v 0.20310869 0.06365516 0.00000000
v 0.14729474 0.38923656 0.00000000
v 0.20015474 0.06314877 -0.00723551
v 0.14434078 0.38873017 -0.00723551
v 0.19302326 0.06192623 -0.01023256
v 0.13720930 0.38750763 -0.01023256
v 0.18589177 0.06070369 -0.00723551
v 0.13007782 0.38628509 -0.00723551
v 0.18293782 0.06019730 -0.00000000
v 0.12712387 0.38577869 -0.00000000
v 0.18589177 0.06070369 0.00723551
v 0.13007782 0.38628509 0.00723551
v 0.26744186 0.06192623 0.00000000
v 0.26744186 0.06192623 0.01023256
v 0.21162791 0.38750763 0.01023256
v 0.21162791 0.38750763 0.00000000
v 0.27457334 0.06314877 0.00723551
v 0.21875939 0.38873017 0.00723551
v 0.27752730 0.06365516 0.00000000
v 0.22171334 0.38923656 0.00000000
v 0.27457334 0.06314877 -0.00723551
v 0.21875939 0.38873017 -0.00723551
v 0.26744186 0.06192623 -0.01023256
v 0.21162791 0.38750763 -0.01023256
v 0.26031038 0.06070369 -0.00723551
v 0.20449643 0.38628509 -0.00723551
v 0.25735642 0.06019730 -0.00000000
v 0.20154247 0.38577869 -0.00000000
v 0.26031038 0.06070369 0.00723551
v 0.20449643 0.38628509 0.00723551
v 0.15116279 -0.05435284 -0.01860465
v -0.03488372 -0.00784121 -0.01860465
v -0.26744186 0.28053088 -0.01860465
v 0.15116279 -0.05435284 0.01860465
v -0.03488372 -0.00784121 0.01860465
v -0.26744186 0.28053088 0.01860465
v 0.15116279 -0.05435284 -0.01860465
v -0.03488372 -0.10086447 -0.01860465
v -0.26744186 -0.38923656 -0.01860465
v 0.15116279 -0.05435284 0.01860465
v -0.03488372 -0.10086447 0.01860465
v -0.26744186 -0.38923656 0.01860465
f 1 138 54
f 138 38 140
f 54 140 17
f 138 140 54
f 38 139 155
f 139 12 152
f 155 152 41
f 139 152 155
f 17 153 55
f 153 41 151
f 55 151 6
f 153 151 55
f 38 155 140
f 155 41 153
f 140 153 17
f 155 153 140
f 1 54 43
f 54 17 56
f 43 56 13
f 54 56 43
f 17 55 60
f 55 6 58
f 60 58 18
f 55 58 60
f 13 59 44
f 59 18 57
f 44 57 2
f 59 57 44
f 17 60 56
f 60 18 59
f 56 59 13
f 60 59 56
f 1 43 70
f 43 13 72
f 70 72 22
f 43 72 70
f 13 44 75
f 44 2 73
f 75 73 23
f 44 73 75
f 22 76 71
f 76 23 74
f 71 74 8
f 76 74 71
f 13 75 72
f 75 23 76
f 72 76 22
f 75 76 72
f 1 70 121
f 70 22 123
f 121 123 34
f 70 123 121
f 22 71 134
f 71 8 132
f 134 132 37
f 71 132 134
f 34 136 122
f 136 37 133
f 122 133 11
f 136 133 122
f 22 134 123
f 134 37 136
f 123 136 34
f 134 136 123
f 1 121 138
f 121 34 141
f 138 141 38
f 121 141 138
f 34 122 159
f 122 11 157
f 159 157 42
f 122 157 159
f 38 161 139
f 161 42 158
f 139 158 12
f 161 158 139
f 34 159 141
f 159 42 161
f 141 161 38
f 159 161 141
f 2 57 96
f 57 18 98
f 96 98 29
f 57 98 96
f 18 58 111
f 58 6 109
f 111 109 32
f 58 109 111
f 29 113 97
f 113 32 110
f 97 110 10
f 113 110 97
f 18 111 98
f 111 32 113
f 98 113 29
f 111 113 98
f 6 151 62
f 151 41 154
f 62 154 19
f 151 154 62
f 41 152 156
f 152 12 147
f 156 147 40
f 152 147 156
f 19 149 61
f 149 40 146
f 61 146 5
f 149 146 61
f 41 156 154
f 156 40 149
f 154 149 19
f 156 149 154
f 12 158 143
f 158 42 162
f 143 162 39
f 158 162 143
f 42 157 160
f 157 11 125
f 160 125 35
f 157 125 160
f 39 145 142
f 145 35 124
f 142 124 3
f 145 124 142
f 42 160 162
f 160 35 145
f 162 145 39
f 160 145 162
f 11 133 128
f 133 37 137
f 128 137 36
f 133 137 128
f 37 132 135
f 132 8 78
f 135 78 24
f 132 78 135
f 36 130 127
f 130 24 77
f 127 77 7
f 130 77 127
f 37 135 137
f 135 24 130
f 137 130 36
f 135 130 137
f 8 74 90
f 74 23 92
f 90 92 28
f 74 92 90
f 23 73 81
f 73 2 79
f 81 79 25
f 73 79 81
f 28 94 91
f 94 25 80
f 91 80 9
f 94 80 91
f 23 81 92
f 81 25 94
f 92 94 28
f 81 94 92
f 4 100 50
f 100 30 102
f 50 102 16
f 100 102 50
f 30 101 108
f 101 10 105
f 108 105 31
f 101 105 108
f 16 106 51
f 106 31 104
f 51 104 5
f 106 104 51
f 30 108 102
f 108 31 106
f 102 106 16
f 108 106 102
f 4 50 46
f 50 16 52
f 46 52 14
f 50 52 46
f 16 51 53
f 51 5 48
f 53 48 15
f 51 48 53
f 14 49 45
f 49 15 47
f 45 47 3
f 49 47 45
f 16 53 52
f 53 15 49
f 52 49 14
f 53 49 52
f 4 46 66
f 46 14 68
f 66 68 21
f 46 68 66
f 14 45 65
f 45 3 63
f 65 63 20
f 45 63 65
f 21 69 67
f 69 20 64
f 67 64 7
f 69 64 67
f 14 65 68
f 65 20 69
f 68 69 21
f 65 69 68
f 4 66 82
f 66 21 84
f 82 84 26
f 66 84 82
f 21 67 87
f 67 7 85
f 87 85 27
f 67 85 87
f 26 89 83
f 89 27 86
f 83 86 9
f 89 86 83
f 21 87 84
f 87 27 89
f 84 89 26
f 87 89 84
f 4 82 100
f 82 26 103
f 100 103 30
f 82 103 100
f 26 83 118
f 83 9 115
f 118 115 33
f 83 115 118
f 30 120 101
f 120 33 116
f 101 116 10
f 120 116 101
f 26 118 103
f 118 33 120
f 103 120 30
f 118 120 103
f 5 104 61
f 104 31 107
f 61 107 19
f 104 107 61
f 31 105 114
f 105 10 110
f 114 110 32
f 105 110 114
f 19 112 62
f 112 32 109
f 62 109 6
f 112 109 62
f 31 114 107
f 114 32 112
f 107 112 19
f 114 112 107
f 3 47 142
f 47 15 144
f 142 144 39
f 47 144 142
f 15 48 148
f 48 5 146
f 148 146 40
f 48 146 148
f 39 150 143
f 150 40 147
f 143 147 12
f 150 147 143
f 15 148 144
f 148 40 150
f 144 150 39
f 148 150 144
f 7 64 127
f 64 20 129
f 127 129 36
f 64 129 127
f 20 63 126
f 63 3 124
f 126 124 35
f 63 124 126
f 36 131 128
f 131 35 125
f 128 125 11
f 131 125 128
f 20 126 129
f 126 35 131
f 129 131 36
f 126 131 129
f 9 86 91
f 86 27 95
f 91 95 28
f 86 95 91
f 27 85 88
f 85 7 77
f 88 77 24
f 85 77 88
f 28 93 90
f 93 24 78
f 90 78 8
f 93 78 90
f 27 88 95
f 88 24 93
f 95 93 28
f 88 93 95
f 10 116 97
f 116 33 119
f 97 119 29
f 116 119 97
f 33 115 117
f 115 9 80
f 117 80 25
f 115 80 117
f 29 99 96
f 99 25 79
f 96 79 2
f 99 79 96
f 33 117 119
f 117 25 99
f 119 99 29
f 117 99 119
f 163 164 165
f 166 168 167
f 163 166 167
f 163 167 164
f 164 167 168
f 164 168 165
f 165 168 166
f 165 166 163
f 169 170 171
f 172 174 173
f 169 172 173
f 169 173 170
f 170 173 174
f 170 174 171
f 171 174 172
f 171 172 169
f 175 176 177
f 178 180 179
f 175 178 179
f 175 179 176
f 176 179 180
f 176 180 177
f 177 180 178
f 177 178 175
f 182 181 185
f 182 185 183
f 183 185 186
f 183 186 184
f 185 181 187
f 185 187 186
f 186 187 188
f 186 188 184
f 187 181 189
f 187 189 188
f 188 189 190
f 188 190 184
f 189 181 191
f 189 191 190
f 190 191 192
f 190 192 184
f 191 181 193
f 191 193 192
f 192 193 194
f 192 194 184
f 193 181 195
f 193 195 194
f 194 195 196
f 194 196 184
f 195 181 197
f 195 197 196
f 196 197 198
f 196 198 184
f 197 181 182
f 197 182 198
f 198 182 183
f 198 183 184
f 200 199 203
f 200 203 201
f 201 203 204
f 201 204 202
f 203 199 205
f 203 205 204
f 204 205 206
f 204 206 202
f 205 199 207
f 205 207 206
f 206 207 208
f 206 208 202
f 207 199 209
f 207 209 208
f 208 209 210
f 208 210 202
f 209 199 211
f 209 211 210
f 210 211 212
f 210 212 202
f 211 199 213
f 211 213 212
f 212 213 214
f 212 214 202
f 213 199 215
f 213 215 214
f 214 215 216
f 214 216 202
f 215 199 200
f 215 200 216
f 216 200 201
f 216 201 202
f 218 217 221
f 218 221 219
f 219 221 222
f 219 222 220
f 221 217 223
f 221 223 222
f 222 223 224
f 222 224 220
f 223 217 225
f 223 225 224
f 224 225 226
f 224 226 220
f 225 217 227
f 225 227 226
f 226 227 228
f 226 228 220
f 227 217 229
f 227 229 228
f 228 229 230
f 228 230 220
f 229 217 231
f 229 231 230
f 230 231 232
f 230 232 220
f 231 217 233
f 231 233 232
f 232 233 234
f 232 234 220
f 233 217 218
f 233 218 234
f 234 218 219
f 234 219 220
f 236 235 239
f 236 239 237
f 237 239 240
f 237 240 238
f 239 235 241
f 239 241 240
f 240 241 242
f 240 242 238
f 241 235 243
f 241 243 242
f 242 243 244
f 242 244 238
f 243 235 245
f 243 245 244
f 244 245 246
f 244 246 238
f 245 235 247
f 245 247 246
f 246 247 248
f 246 248 238
f 247 235 249
f 247 249 248
f 248 249 250
f 248 250 238
f 249 235 251
f 249 251 250
f 250 251 252
f 250 252 238
f 251 235 236
f 251 236 252
f 252 236 237
f 252 237 238
f 254 253 257
f 254 257 255
f 255 257 258
f 255 258 256
f 257 253 259
f 257 259 258
f 258 259 260
f 258 260 256
f 259 253 261
f 259 261 260
f 260 261 262
f 260 262 256
f 261 253 263
f 261 263 262
f 262 263 264
f 262 264 256
f 263 253 265
f 263 265 264
f 264 265 266
f 264 266 256
f 265 253 267
f 265 267 266
f 266 267 268
f 266 268 256
f 267 253 269
f 267 269 268
f 268 269 270
f 268 270 256
f 269 253 254
f 269 254 270
f 270 254 255
f 270 255 256
f 272 271 275
f 272 275 273
f 273 275 276
f 273 276 274
f 275 271 277
f 275 277 276
f 276 277 278
f 276 278 274
f 277 271 279
f 277 279 278
f 278 279 280
f 278 280 274
f 279 271 281
f 279 281 280
f 280 281 282
f 280 282 274
f 281 271 283
f 281 283 282
f 282 283 284
f 282 284 274
f 283 271 285
f 283 285 284
f 284 285 286
f 284 286 274
f 285 271 287
f 285 287 286
f 286 287 288
f 286 288 274
f 287 271 272
f 287 272 288
f 288 272 273
f 288 273 274
f 289 290 291
f 292 294 293
f 289 292 293
f 289 293 290
f 290 293 294
f 290 294 291
f 291 294 292
f 291 292 289
f 295 296 297
f 298 300 299
f 295 298 299
f 295 299 296
f 296 299 300
f 296 300 297
f 297 300 298
f 297 298 295

