# https://github.com/mikedh/trimesh
v 0.12379233 0.08739563 0.00000000
v 0.38305699 0.08739563 0.00000000
v 0.12379233 -0.08739563 0.00000000
v 0.38305699 -0.08739563 0.00000000
v 0.25342466 -0.05401347 0.05243738
v 0.25342466 0.05401347 0.05243738
v 0.25342466 -0.05401347 -0.05243738
v 0.25342466 0.05401347 -0.05243738
v 0.46317417 0.00000000 -0.03240808
v 0.46317417 0.00000000 0.03240808
v 0.04367514 0.00000000 -0.03240808
v 0.04367514 0.00000000 0.03240808
v 0.25342466 0.10273973 0.00000000
v 0.25342466 -0.10273973 0.00000000
v 0.17722869 -0.08311818 0.03082192
v 0.32962063 -0.08311818 0.03082192
v 0.17722869 0.08311818 0.03082192
v 0.32962063 0.08311818 0.03082192
v 0.25342466 0.00000000 0.06164384
v 0.17722869 -0.08311818 -0.03082192
v 0.32962063 -0.08311818 -0.03082192
v 0.17722869 0.08311818 -0.03082192
v 0.32962063 0.08311818 -0.03082192
v 0.25342466 0.00000000 -0.06164384
v 0.45290830 0.05136986 -0.01904899
v 0.45290830 -0.05136986 -0.01904899
v 0.37671233 -0.03174832 -0.04987091
v 0.37671233 0.03174832 -0.04987091
v 0.45290830 0.05136986 0.01904899
v 0.45290830 -0.05136986 0.01904899
v 0.37671233 -0.03174832 0.04987091
v 0.37671233 0.03174832 0.04987091
v 0.50000000 0.00000000 0.00000000
v 0.05394102 0.05136986 -0.01904899
v 0.05394102 -0.05136986 -0.01904899
v 0.13013699 -0.03174832 -0.04987091
v 0.13013699 0.03174832 -0.04987091
v 0.05394102 0.05136986 0.01904899
v 0.05394102 -0.05136986 0.01904899
v 0.13013699 -0.03174832 0.04987091
v 0.13013699 0.03174832 0.04987091
v 0.00684932 0.00000000 0.00000000
v 0.35616438 0.00000000 -0.03082192
v 0.08219178 0.39383562 -0.03082192
v -0.08904110 0.03424658 -0.03082192
v 0.35616438 0.00000000 0.03082192
v 0.08219178 0.39383562 0.03082192
v -0.08904110 0.03424658 0.03082192
v 0.35616438 0.00000000 -0.03082192
v 0.08219178 -0.39383562 -0.03082192
v -0.08904110 -0.03424658 -0.03082192
v 0.35616438 0.00000000 0.03082192
v 0.08219178 -0.39383562 0.03082192
v -0.08904110 -0.03424658 0.03082192
v -0.15753425 0.00000000 0.00000000
v -0.15753425 0.00000000 0.01541096
v -0.50000000 0.00000000 -0.00000000
v -0.15753425 0.01089719 0.01089719
v -0.15753425 0.01541096 0.00000000
v -0.15753425 0.01089719 -0.01089719
v -0.15753425 0.00000000 -0.01541096
v -0.15753425 -0.01089719 -0.01089719
v -0.15753425 -0.01541096 -0.00000000
v -0.15753425 -0.01089719 0.01089719
f 1 38 17
f 38 12 41
f 17 41 6
f 38 41 17
f 1 17 13
f 17 6 18
f 13 18 2
f 17 18 13
f 1 13 22
f 13 2 23
f 22 23 8
f 13 23 22
f 1 22 34
f 22 8 37
f 34 37 11
f 22 37 34
f 1 34 38
f 34 11 42
f 38 42 12
f 34 42 38
f 2 18 29
f 18 6 32
f 29 32 10
f 18 32 29
f 6 41 19
f 41 12 40
f 19 40 5
f 41 40 19
f 12 42 39
f 42 11 35
f 39 35 3
f 42 35 39
f 11 37 36
f 37 8 24
f 36 24 7
f 37 24 36
f 8 23 28
f 23 2 25
f 28 25 9
f 23 25 28
f 4 30 16
f 30 10 31
f 16 31 5
f 30 31 16
f 4 16 14
f 16 5 15
f 14 15 3
f 16 15 14
f 4 14 21
f 14 3 20
f 21 20 7
f 14 20 21
f 4 21 26
f 21 7 27
f 26 27 9
f 21 27 26
f 4 26 30
f 26 9 33
f 30 33 10
f 26 33 30
f 5 31 19
f 31 10 32
f 19 32 6
f 31 32 19
f 3 15 39
f 15 5 40
f 39 40 12
f 15 40 39
f 7 20 36
f 20 3 35
f 36 35 11
f 20 35 36
f 9 27 28
f 27 7 24
f 28 24 8
f 27 24 28
f 10 33 29
f 33 9 25
f 29 25 2
f 33 25 29
f 43 44 45
f 46 48 47
f 43 46 47
f 43 47 44
f 44 47 48
f 44 48 45
f 45 48 46
f 45 46 43
f 49 50 51
f 52 54 53
f 49 52 53
f 49 53 50
f 50 53 54
f 50 54 51
f 51 54 52
f 51 52 49
f 56 55 58
f 56 58 57
f 58 55 59
f 58 59 57
f 59 55 60
f 59 60 57
f 60 55 61
f 60 61 57
f 61 55 62
f 61 62 57
f 62 55 63
f 62 63 57
f 63 55 64
f 63 64 57
f 64 55 56
f 64 56 57

