# https://github.com/mikedh/trimesh
v -0.46239812 0.03175014 0.00000000
v -0.37903411 0.03175014 0.00000000
v -0.46239812 -0.02089884 0.00000000
v -0.37903411 -0.02089884 0.00000000
v -0.42071611 -0.01084378 0.02105959
v -0.42071611 0.02169508 0.02105959
v -0.42071611 -0.01084378 -0.02105959
v -0.42071611 0.02169508 -0.02105959
v -0.35327321 0.00542565 -0.01301554
v -0.35327321 0.00542565 0.01301554
v -0.48815902 0.00542565 -0.01301554
v -0.48815902 0.00542565 0.01301554
v -0.42071611 0.03637194 0.00000000
v -0.42071611 -0.02552064 0.00000000
v -0.44521618 -0.01961043 0.01237852
v -0.39621604 -0.01961043 0.01237852
v -0.44521618 0.03046172 0.01237852
v -0.39621604 0.03046172 0.01237852
v -0.42071611 0.00542565 0.02475703
v -0.44521618 -0.01961043 -0.01237852
v -0.39621604 -0.01961043 -0.01237852
v -0.44521618 0.03046172 -0.01237852
v -0.39621604 0.03046172 -0.01237852
v -0.42071611 0.00542565 -0.02475703
v -0.35657410 0.02089879 -0.00765034
v -0.35657410 -0.01004750 -0.00765034
v -0.38107417 -0.00413728 -0.02002886
v -0.38107417 0.01498858 -0.02002886
v -0.35657410 0.02089879 0.00765034
v -0.35657410 -0.01004750 0.00765034
v -0.38107417 -0.00413728 0.02002886
v -0.38107417 0.01498858 0.02002886
v -0.34143223 0.00542565 0.00000000
v -0.48485812 0.02089879 -0.00765034
v -0.48485812 -0.01004750 -0.00765034
v -0.46035806 -0.00413728 -0.02002886
v -0.46035806 0.01498858 -0.02002886
v -0.48485812 0.02089879 0.00765034
v -0.48485812 -0.01004750 0.00765034
v -0.46035806 -0.00413728 0.02002886
v -0.46035806 0.01498858 0.02002886
v -0.50000000 0.00542565 0.00000000
v -0.34913542 0.06682013 0.00000000
v -0.26577141 0.06682013 0.00000000
v -0.34913542 0.00801738 0.00000000
v -0.26577141 0.00801738 0.00000000
v -0.30745342 0.01924770 0.02352110
v -0.30745342 0.05558980 0.02352110
v -0.30745342 0.01924770 -0.02352110
v -0.30745342 0.05558980 -0.02352110
v -0.24001051 0.03741875 -0.01453684
v -0.24001051 0.03741875 0.01453684
v -0.37489632 0.03741875 -0.01453684
v -0.37489632 0.03741875 0.01453684
v -0.30745342 0.07198214 0.00000000
v -0.30745342 0.00285536 0.00000000
v -0.33195348 0.00945638 0.01382536
v -0.28295335 0.00945638 0.01382536
v -0.33195348 0.06538112 0.01382536
v -0.28295335 0.06538112 0.01382536
v -0.30745342 0.03741875 0.02765071
v -0.33195348 0.00945638 -0.01382536
v -0.28295335 0.00945638 -0.01382536
v -0.33195348 0.06538112 -0.01382536
v -0.28295335 0.06538112 -0.01382536
v -0.30745342 0.03741875 -0.02765071
v -0.24331140 0.05470045 -0.00854454
v -0.24331140 0.02013706 -0.00854454
v -0.26781147 0.02673808 -0.02236990
v -0.26781147 0.04809943 -0.02236990
v -0.24331140 0.05470045 0.00854454
v -0.24331140 0.02013706 0.00854454
v -0.26781147 0.02673808 0.02236990
v -0.26781147 0.04809943 0.02236990
v -0.22816953 0.03741875 0.00000000
v -0.37159543 0.05470045 -0.00854454
v -0.37159543 0.02013706 -0.00854454
v -0.34709536 0.02673808 -0.02236990
v -0.34709536 0.04809943 -0.02236990
v -0.37159543 0.05470045 0.00854454
v -0.37159543 0.02013706 0.00854454
v -0.34709536 0.02673808 0.02236990
v -0.34709536 0.04809943 0.02236990
v -0.38673730 0.03741875 0.00000000
v -0.23587273 0.07779866 0.00000000
v -0.15250871 0.07779866 0.00000000
v -0.23587273 0.01284213 0.00000000
v -0.15250871 0.01284213 0.00000000
v -0.19419072 0.02524773 0.02598261
v -0.19419072 0.06539307 0.02598261
v -0.19419072 0.02524773 -0.02598261
v -0.19419072 0.06539307 -0.02598261
v -0.12674782 0.04532040 -0.01605814
v -0.12674782 0.04532040 0.01605814
v -0.26163362 0.04532040 -0.01605814
v -0.26163362 0.04532040 0.01605814
v -0.19419072 0.08350089 0.00000000
v -0.19419072 0.00713991 0.00000000
v -0.21869079 0.01443173 0.01527220
v -0.16969065 0.01443173 0.01527220
v -0.21869079 0.07620906 0.01527220
v -0.16969065 0.07620906 0.01527220
v -0.19419072 0.04532040 0.03054439
v -0.21869079 0.01443173 -0.01527220
v -0.16969065 0.01443173 -0.01527220
v -0.21869079 0.07620906 -0.01527220
v -0.16969065 0.07620906 -0.01527220
v -0.19419072 0.04532040 -0.03054439
v -0.13004871 0.06441064 -0.00943874
v -0.13004871 0.02623015 -0.00943874
v -0.15454878 0.03352198 -0.02471093
v -0.15454878 0.05711882 -0.02471093
v -0.13004871 0.06441064 0.00943874
v -0.13004871 0.02623015 0.00943874
v -0.15454878 0.03352198 0.02471093
v -0.15454878 0.05711882 0.02471093
v -0.11490683 0.04532040 0.00000000
v -0.25833273 0.06441064 -0.00943874
v -0.25833273 0.02623015 -0.00943874
v -0.23383266 0.03352198 -0.02471093
v -0.23383266 0.05711882 -0.02471093
v -0.25833273 0.06441064 0.00943874
v -0.25833273 0.02623015 0.00943874
v -0.23383266 0.03352198 0.02471093
v -0.23383266 0.05711882 0.02471093
v -0.27347461 0.04532040 0.00000000
v -0.12261003 0.05873563 0.00000000
v -0.03924602 0.05873563 0.00000000
v -0.12261003 -0.01237467 0.00000000
v -0.03924602 -0.01237467 0.00000000
v -0.08092802 0.00120619 0.02844412
v -0.08092802 0.04515477 0.02844412
v -0.08092802 0.00120619 -0.02844412
v -0.08092802 0.04515477 -0.02844412
v -0.01348512 0.02318048 -0.01757943
v -0.01348512 0.02318048 0.01757943
v -0.14837093 0.02318048 -0.01757943
v -0.14837093 0.02318048 0.01757943
v -0.08092802 0.06497807 0.00000000
v -0.08092802 -0.01861711 0.00000000
v -0.10542809 -0.01063448 0.01671904
v -0.05642795 -0.01063448 0.01671904
v -0.10542809 0.05699544 0.01671904
v -0.05642795 0.05699544 0.01671904
v -0.08092802 0.02318048 0.03343807
v -0.10542809 -0.01063448 -0.01671904
v -0.05642795 -0.01063448 -0.01671904
v -0.10542809 0.05699544 -0.01671904
v -0.05642795 0.05699544 -0.01671904
v -0.08092802 0.02318048 -0.03343807
v -0.01678601 0.04407928 -0.01033293
v -0.01678601 0.00228169 -0.01033293
v -0.04128608 0.01026432 -0.02705197
v -0.04128608 0.03609665 -0.02705197
v -0.01678601 0.04407928 0.01033293
v -0.01678601 0.00228169 0.01033293
v -0.04128608 0.01026432 0.02705197
v -0.04128608 0.03609665 0.02705197
v -0.00164414 0.02318048 0.00000000
v -0.14507004 0.04407928 -0.01033293
v -0.14507004 0.00228169 -0.01033293
v -0.12056997 0.01026432 -0.02705197
v -0.12056997 0.03609665 -0.02705197
v -0.14507004 0.04407928 0.01033293
v -0.14507004 0.00228169 0.01033293
v -0.12056997 0.01026432 0.02705197
v -0.12056997 0.03609665 0.02705197
v -0.16021191 0.02318048 0.00000000
v -0.00934733 0.02630286 0.00000000
v 0.07401668 0.02630286 0.00000000
v -0.00934733 -0.05096123 0.00000000
v 0.07401668 -0.05096123 0.00000000
v 0.03233467 -0.03620510 0.03090563
v 0.03233467 0.01154673 0.03090563
v 0.03233467 -0.03620510 -0.03090563
v 0.03233467 0.01154673 -0.03090563
v 0.09977758 -0.01232918 -0.01910073
v 0.09977758 -0.01232918 0.01910073
v -0.03510823 -0.01232918 -0.01910073
v -0.03510823 -0.01232918 0.01910073
v 0.03233467 0.03308550 0.00000000
v 0.03233467 -0.05774387 0.00000000
v 0.00783460 -0.04907044 0.01816588
v 0.05683474 -0.04907044 0.01816588
v 0.00783460 0.02441207 0.01816588
v 0.05683474 0.02441207 0.01816588
v 0.03233467 -0.01232918 0.03633175
v 0.00783460 -0.04907044 -0.01816588
v 0.05683474 -0.04907044 -0.01816588
v 0.00783460 0.02441207 -0.01816588
v 0.05683474 0.02441207 -0.01816588
v 0.03233467 -0.01232918 -0.03633175
v 0.09647669 0.01037816 -0.01122713
v 0.09647669 -0.03503653 -0.01122713
v 0.07197662 -0.02636310 -0.02939300
v 0.07197662 0.00170473 -0.02939300
v 0.09647669 0.01037816 0.01122713
v 0.09647669 -0.03503653 0.01122713
v 0.07197662 -0.02636310 0.02939300
v 0.07197662 0.00170473 0.02939300
v 0.11161856 -0.01232918 0.00000000
v -0.03180734 0.01037816 -0.01122713
v -0.03180734 -0.03503653 -0.01122713
v -0.00730727 -0.02636310 -0.02939300
v -0.00730727 0.00170473 -0.02939300
v -0.03180734 0.01037816 0.01122713
v -0.03180734 -0.03503653 0.01122713
v -0.00730727 -0.02636310 0.02939300
v -0.00730727 0.00170473 0.02939300
v -0.04694921 -0.01232918 0.00000000
v 0.10391536 0.00723983 0.00000000
v 0.18727938 0.00723983 0.00000000
v 0.10391536 -0.07617803 0.00000000
v 0.18727938 -0.07617803 0.00000000
v 0.14559737 -0.06024664 0.03336714
v 0.14559737 -0.00869156 0.03336714
v 0.14559737 -0.06024664 -0.03336714
v 0.14559737 -0.00869156 -0.03336714
v 0.21304027 -0.03446910 -0.02062203
v 0.21304027 -0.03446910 0.02062203
v 0.07815447 -0.03446910 -0.02062203
v 0.07815447 -0.03446910 0.02062203
v 0.14559737 0.01456269 0.00000000
v 0.14559737 -0.08350089 0.00000000
v 0.12109730 -0.07413665 0.01961271
v 0.17009744 -0.07413665 0.01961271
v 0.12109730 0.00519845 0.01961271
v 0.17009744 0.00519845 0.01961271
v 0.14559737 -0.03446910 0.03922543
v 0.12109730 -0.07413665 -0.01961271
v 0.17009744 -0.07413665 -0.01961271
v 0.12109730 0.00519845 -0.01961271
v 0.17009744 0.00519845 -0.01961271
v 0.14559737 -0.03446910 -0.03922543
v 0.20973938 -0.00995321 -0.01212132
v 0.20973938 -0.05898499 -0.01212132
v 0.18523931 -0.04962076 -0.03173404
v 0.18523931 -0.01931744 -0.03173404
v 0.20973938 -0.00995321 0.01212132
v 0.20973938 -0.05898499 0.01212132
v 0.18523931 -0.04962076 0.03173404
v 0.18523931 -0.01931744 0.03173404
v 0.22488126 -0.03446910 0.00000000
v 0.08145536 -0.00995321 -0.01212132
v 0.08145536 -0.05898499 -0.01212132
v 0.10595543 -0.04962076 -0.03173404
v 0.10595543 -0.01931744 -0.03173404
v 0.08145536 -0.00995321 0.01212132
v 0.08145536 -0.05898499 0.01212132
v 0.10595543 -0.04962076 0.03173404
v 0.10595543 -0.01931744 0.03173404
v 0.06631348 -0.03446910 0.00000000
v 0.21717806 0.01821836 0.00000000
v 0.30054207 0.01821836 0.00000000
v 0.21717806 -0.07135327 0.00000000
v 0.30054207 -0.07135327 0.00000000
v 0.25886007 -0.05424661 0.03582865
v 0.25886007 0.00111170 0.03582865
v 0.25886007 -0.05424661 -0.03582865
v 0.25886007 0.00111170 -0.03582865
v 0.32630297 -0.02656746 -0.02214333
v 0.32630297 -0.02656746 0.02214333
v 0.19141716 -0.02656746 -0.02214333
v 0.19141716 -0.02656746 0.02214333
v 0.25886007 0.02608143 0.00000000
v 0.25886007 -0.07921634 0.00000000
v 0.23436000 -0.06916130 0.02105955
v 0.28336013 -0.06916130 0.02105955
v 0.23436000 0.01602639 0.02105955
v 0.28336013 0.01602639 0.02105955
v 0.25886007 -0.02656746 0.04211911
v 0.23436000 -0.06916130 -0.02105955
v 0.28336013 -0.06916130 -0.02105955
v 0.23436000 0.01602639 -0.02105955
v 0.28336013 0.01602639 -0.02105955
v 0.25886007 -0.02656746 -0.04211911
v 0.32300208 -0.00024301 -0.01301552
v 0.32300208 -0.05289190 -0.01301552
v 0.29850201 -0.04283686 -0.03407507
v 0.29850201 -0.01029806 -0.03407507
v 0.32300208 -0.00024301 0.01301552
v 0.32300208 -0.05289190 0.01301552
v 0.29850201 -0.04283686 0.03407507
v 0.29850201 -0.01029806 0.03407507
v 0.33814395 -0.02656746 0.00000000
v 0.19471805 -0.00024301 -0.01301552
v 0.19471805 -0.05289190 -0.01301552
v 0.21921812 -0.04283686 -0.03407507
v 0.21921812 -0.01029806 -0.03407507
v 0.19471805 -0.00024301 0.01301552
v 0.19471805 -0.05289190 0.01301552
v 0.21921812 -0.04283686 0.03407507
v 0.21921812 -0.01029806 0.03407507
v 0.17957618 -0.02656746 0.00000000
v 0.33044076 0.05328835 0.00000000
v 0.41380477 0.05328835 0.00000000
v 0.33044076 -0.04243706 0.00000000
v 0.41380477 -0.04243706 0.00000000
v 0.37212276 -0.02415513 0.03829016
v 0.37212276 0.03500643 0.03829016
v 0.37212276 -0.02415513 -0.03829016
v 0.37212276 0.03500643 -0.03829016
v 0.43956567 0.00542565 -0.02366462
v 0.43956567 0.00542565 0.02366462
v 0.30467986 0.00542565 -0.02366462
v 0.30467986 0.00542565 0.02366462
v 0.37212276 0.06169163 0.00000000
v 0.37212276 -0.05084034 0.00000000
v 0.34762269 -0.04009449 0.02250639
v 0.39662283 -0.04009449 0.02250639
v 0.34762269 0.05094579 0.02250639
v 0.39662283 0.05094579 0.02250639
v 0.37212276 0.00542565 0.04501279
v 0.34762269 -0.04009449 -0.02250639
v 0.39662283 -0.04009449 -0.02250639
v 0.34762269 0.05094579 -0.02250639
v 0.39662283 0.05094579 -0.02250639
v 0.37212276 0.00542565 -0.04501279
v 0.43626477 0.03355864 -0.01390972
v 0.43626477 -0.02270734 -0.01390972
v 0.41176471 -0.01196150 -0.03641611
v 0.41176471 0.02281279 -0.03641611
v 0.43626477 0.03355864 0.01390972
v 0.43626477 -0.02270734 0.01390972
v 0.41176471 -0.01196150 0.03641611
v 0.41176471 0.02281279 0.03641611
v 0.45140665 0.00542565 0.00000000
v 0.30798075 0.03355864 -0.01390972
v 0.30798075 -0.02270734 -0.01390972
v 0.33248082 -0.01196150 -0.03641611
v 0.33248082 0.02281279 -0.03641611
v 0.30798075 0.03355864 0.01390972
v 0.30798075 -0.02270734 0.01390972
v 0.33248082 -0.01196150 0.03641611
v 0.33248082 0.02281279 0.03641611
v 0.29283887 0.00542565 0.00000000
v 0.37513198 0.07004030 0.00000000
v 0.46118515 0.07004030 0.00000000
v 0.37513198 -0.05918900 0.00000000
v 0.46118515 -0.05918900 0.00000000
v 0.41815857 -0.03450840 0.04786271
v 0.41815857 0.04535970 0.04786271
v 0.41815857 -0.03450840 -0.04786271
v 0.41815857 0.04535970 -0.04786271
v 0.48777705 0.00542565 -0.02958078
v 0.48777705 0.00542565 0.02958078
v 0.34854009 0.00542565 -0.02958078
v 0.34854009 0.00542565 0.02958078
v 0.41815857 0.08138473 0.00000000
v 0.41815857 -0.07053343 0.00000000
v 0.39286817 -0.05602654 0.02813299
v 0.44344896 -0.05602654 0.02813299
v 0.39286817 0.06687783 0.02813299
v 0.44344896 0.06687783 0.02813299
v 0.41815857 0.00542565 0.05626598
v 0.39286817 -0.05602654 -0.02813299
v 0.44344896 -0.05602654 -0.02813299
v 0.39286817 0.06687783 -0.02813299
v 0.44344896 0.06687783 -0.02813299
v 0.41815857 0.00542565 -0.05626598
v 0.48436968 0.04340519 -0.01738715
v 0.48436968 -0.03255389 -0.01738715
v 0.45907928 -0.01804700 -0.04552014
v 0.45907928 0.02889829 -0.04552014
v 0.48436968 0.04340519 0.01738715
v 0.48436968 -0.03255389 0.01738715
v 0.45907928 -0.01804700 0.04552014
v 0.45907928 0.02889829 0.04552014
v 0.50000000 0.00542565 0.00000000
v 0.35194746 0.04340519 -0.01738715
v 0.35194746 -0.03255389 -0.01738715
v 0.37723785 -0.01804700 -0.04552014
v 0.37723785 0.02889829 -0.04552014
v 0.35194746 0.04340519 0.01738715
v 0.35194746 -0.03255389 0.01738715
v 0.37723785 -0.01804700 0.04552014
v 0.37723785 0.02889829 0.04552014
v 0.33631714 0.00542565 0.00000000
f 1 38 17
f 38 12 41
f 17 41 6
f 38 41 17
f 1 17 13
f 17 6 18
f 13 18 2
f 17 18 13
f 1 13 22
f 13 2 23
f 22 23 8
f 13 23 22
f 1 22 34
f 22 8 37
f 34 37 11
f 22 37 34
f 1 34 38
f 34 11 42
f 38 42 12
f 34 42 38
f 2 18 29
f 18 6 32
f 29 32 10
f 18 32 29
f 6 41 19
f 41 12 40
f 19 40 5
f 41 40 19
f 12 42 39
f 42 11 35
f 39 35 3
f 42 35 39
f 11 37 36
f 37 8 24
f 36 24 7
f 37 24 36
f 8 23 28
f 23 2 25
f 28 25 9
f 23 25 28
f 4 30 16
f 30 10 31
f 16 31 5
f 30 31 16
f 4 16 14
f 16 5 15
f 14 15 3
f 16 15 14
f 4 14 21
f 14 3 20
f 21 20 7
f 14 20 21
f 4 21 26
f 21 7 27
f 26 27 9
f 21 27 26
f 4 26 30
f 26 9 33
f 30 33 10
f 26 33 30
f 5 31 19
f 31 10 32
f 19 32 6
f 31 32 19
f 3 15 39
f 15 5 40
f 39 40 12
f 15 40 39
f 7 20 36
f 20 3 35
f 36 35 11
f 20 35 36
f 9 27 28
f 27 7 24
f 28 24 8
f 27 24 28
f 10 33 29
f 33 9 25
f 29 25 2
f 33 25 29
f 43 80 59
f 80 54 83
f 59 83 48
f 80 83 59
f 43 59 55
f 59 48 60
f 55 60 44
f 59 60 55
f 43 55 64
f 55 44 65
f 64 65 50
f 55 65 64
f 43 64 76
f 64 50 79
f 76 79 53
f 64 79 76
f 43 76 80
f 76 53 84
f 80 84 54
f 76 84 80
f 44 60 71
f 60 48 74
f 71 74 52
f 60 74 71
f 48 83 61
f 83 54 82
f 61 82 47
f 83 82 61
f 54 84 81
f 84 53 77
f 81 77 45
f 84 77 81
f 53 79 78
f 79 50 66
f 78 66 49
f 79 66 78
f 50 65 70
f 65 44 67
f 70 67 51
f 65 67 70
f 46 72 58
f 72 52 73
f 58 73 47
f 72 73 58
f 46 58 56
f 58 47 57
f 56 57 45
f 58 57 56
f 46 56 63
f 56 45 62
f 63 62 49
f 56 62 63
f 46 63 68
f 63 49 69
f 68 69 51
f 63 69 68
f 46 68 72
f 68 51 75
f 72 75 52
f 68 75 72
f 47 73 61
f 73 52 74
f 61 74 48
f 73 74 61
f 45 57 81
f 57 47 82
f 81 82 54
f 57 82 81
f 49 62 78
f 62 45 77
f 78 77 53
f 62 77 78
f 51 69 70
f 69 49 66
f 70 66 50
f 69 66 70
f 52 75 71
f 75 51 67
f 71 67 44
f 75 67 71
f 85 122 101
f 122 96 125
f 101 125 90
f 122 125 101
f 85 101 97
f 101 90 102
f 97 102 86
f 101 102 97
f 85 97 106
f 97 86 107
f 106 107 92
f 97 107 106
f 85 106 118
f 106 92 121
f 118 121 95
f 106 121 118
f 85 118 122
f 118 95 126
f 122 126 96
f 118 126 122
f 86 102 113
f 102 90 116
f 113 116 94
f 102 116 113
f 90 125 103
f 125 96 124
f 103 124 89
f 125 124 103
f 96 126 123
f 126 95 119
f 123 119 87
f 126 119 123
f 95 121 120
f 121 92 108
f 120 108 91
f 121 108 120
f 92 107 112
f 107 86 109
f 112 109 93
f 107 109 112
f 88 114 100
f 114 94 115
f 100 115 89
f 114 115 100
f 88 100 98
f 100 89 99
f 98 99 87
f 100 99 98
f 88 98 105
f 98 87 104
f 105 104 91
f 98 104 105
f 88 105 110
f 105 91 111
f 110 111 93
f 105 111 110
f 88 110 114
f 110 93 117
f 114 117 94
f 110 117 114
f 89 115 103
f 115 94 116
f 103 116 90
f 115 116 103
f 87 99 123
f 99 89 124
f 123 124 96
f 99 124 123
f 91 104 120
f 104 87 119
f 120 119 95
f 104 119 120
f 93 111 112
f 111 91 108
f 112 108 92
f 111 108 112
f 94 117 113
f 117 93 109
f 113 109 86
f 117 109 113
f 127 164 143
f 164 138 167
f 143 167 132
f 164 167 143
f 127 143 139
f 143 132 144
f 139 144 128
f 143 144 139
f 127 139 148
f 139 128 149
f 148 149 134
f 139 149 148
f 127 148 160
f 148 134 163
f 160 163 137
f 148 163 160
f 127 160 164
f 160 137 168
f 164 168 138
f 160 168 164
f 128 144 155
f 144 132 158
f 155 158 136
f 144 158 155
f 132 167 145
f 167 138 166
f 145 166 131
f 167 166 145
f 138 168 165
f 168 137 161
f 165 161 129
f 168 161 165
f 137 163 162
f 163 134 150
f 162 150 133
f 163 150 162
f 134 149 154
f 149 128 151
f 154 151 135
f 149 151 154
f 130 156 142
f 156 136 157
f 142 157 131
f 156 157 142
f 130 142 140
f 142 131 141
f 140 141 129
f 142 141 140
f 130 140 147
f 140 129 146
f 147 146 133
f 140 146 147
f 130 147 152
f 147 133 153
f 152 153 135
f 147 153 152
f 130 152 156
f 152 135 159
f 156 159 136
f 152 159 156
f 131 157 145
f 157 136 158
f 145 158 132
f 157 158 145
f 129 141 165
f 141 131 166
f 165 166 138
f 141 166 165
f 133 146 162
f 146 129 161
f 162 161 137
f 146 161 162
f 135 153 154
f 153 133 150
f 154 150 134
f 153 150 154
f 136 159 155
f 159 135 151
f 155 151 128
f 159 151 155
f 169 206 185
f 206 180 209
f 185 209 174
f 206 209 185
f 169 185 181
f 185 174 186
f 181 186 170
f 185 186 181
f 169 181 190
f 181 170 191
f 190 191 176
f 181 191 190
f 169 190 202
f 190 176 205
f 202 205 179
f 190 205 202
f 169 202 206
f 202 179 210
f 206 210 180
f 202 210 206
f 170 186 197
f 186 174 200
f 197 200 178
f 186 200 197
f 174 209 187
f 209 180 208
f 187 208 173
f 209 208 187
f 180 210 207
f 210 179 203
f 207 203 171
f 210 203 207
f 179 205 204
f 205 176 192
f 204 192 175
f 205 192 204
f 176 191 196
f 191 170 193
f 196 193 177
f 191 193 196
f 172 198 184
f 198 178 199
f 184 199 173
f 198 199 184
f 172 184 182
f 184 173 183
f 182 183 171
f 184 183 182
f 172 182 189
f 182 171 188
f 189 188 175
f 182 188 189
f 172 189 194
f 189 175 195
f 194 195 177
f 189 195 194
f 172 194 198
f 194 177 201
f 198 201 178
f 194 201 198
f 173 199 187
f 199 178 200
f 187 200 174
f 199 200 187
f 171 183 207
f 183 173 208
f 207 208 180
f 183 208 207
f 175 188 204
f 188 171 203
f 204 203 179
f 188 203 204
f 177 195 196
f 195 175 192
f 196 192 176
f 195 192 196
f 178 201 197
f 201 177 193
f 197 193 170
f 201 193 197
f 211 248 227
f 248 222 251
f 227 251 216
f 248 251 227
f 211 227 223
f 227 216 228
f 223 228 212
f 227 228 223
f 211 223 232
f 223 212 233
f 232 233 218
f 223 233 232
f 211 232 244
f 232 218 247
f 244 247 221
f 232 247 244
f 211 244 248
f 244 221 252
f 248 252 222
f 244 252 248
f 212 228 239
f 228 216 242
f 239 242 220
f 228 242 239
f 216 251 229
f 251 222 250
f 229 250 215
f 251 250 229
f 222 252 249
f 252 221 245
f 249 245 213
f 252 245 249
f 221 247 246
f 247 218 234
f 246 234 217
f 247 234 246
f 218 233 238
f 233 212 235
f 238 235 219
f 233 235 238
f 214 240 226
f 240 220 241
f 226 241 215
f 240 241 226
f 214 226 224
f 226 215 225
f 224 225 213
f 226 225 224
f 214 224 231
f 224 213 230
f 231 230 217
f 224 230 231
f 214 231 236
f 231 217 237
f 236 237 219
f 231 237 236
f 214 236 240
f 236 219 243
f 240 243 220
f 236 243 240
f 215 241 229
f 241 220 242
f 229 242 216
f 241 242 229
f 213 225 249
f 225 215 250
f 249 250 222
f 225 250 249
f 217 230 246
f 230 213 245
f 246 245 221
f 230 245 246
f 219 237 238
f 237 217 234
f 238 234 218
f 237 234 238
f 220 243 239
f 243 219 235
f 239 235 212
f 243 235 239
f 253 290 269
f 290 264 293
f 269 293 258
f 290 293 269
f 253 269 265
f 269 258 270
f 265 270 254
f 269 270 265
f 253 265 274
f 265 254 275
f 274 275 260
f 265 275 274
f 253 274 286
f 274 260 289
f 286 289 263
f 274 289 286
f 253 286 290
f 286 263 294
f 290 294 264
f 286 294 290
f 254 270 281
f 270 258 284
f 281 284 262
f 270 284 281
f 258 293 271
f 293 264 292
f 271 292 257
f 293 292 271
f 264 294 291
f 294 263 287
f 291 287 255
f 294 287 291
f 263 289 288
f 289 260 276
f 288 276 259
f 289 276 288
f 260 275 280
f 275 254 277
f 280 277 261
f 275 277 280
f 256 282 268
f 282 262 283
f 268 283 257
f 282 283 268
f 256 268 266
f 268 257 267
f 266 267 255
f 268 267 266
f 256 266 273
f 266 255 272
f 273 272 259
f 266 272 273
f 256 273 278
f 273 259 279
f 278 279 261
f 273 279 278
f 256 278 282
f 278 261 285
f 282 285 262
f 278 285 282
f 257 283 271
f 283 262 284
f 271 284 258
f 283 284 271
f 255 267 291
f 267 257 292
f 291 292 264
f 267 292 291
f 259 272 288
f 272 255 287
f 288 287 263
f 272 287 288
f 261 279 280
f 279 259 276
f 280 276 260
f 279 276 280
f 262 285 281
f 285 261 277
f 281 277 254
f 285 277 281
f 295 332 311
f 332 306 335
f 311 335 300
f 332 335 311
f 295 311 307
f 311 300 312
f 307 312 296
f 311 312 307
f 295 307 316
f 307 296 317
f 316 317 302
f 307 317 316
f 295 316 328
f 316 302 331
f 328 331 305
f 316 331 328
f 295 328 332
f 328 305 336
f 332 336 306
f 328 336 332
f 296 312 323
f 312 300 326
f 323 326 304
f 312 326 323
f 300 335 313
f 335 306 334
f 313 334 299
f 335 334 313
f 306 336 333
f 336 305 329
f 333 329 297
f 336 329 333
f 305 331 330
f 331 302 318
f 330 318 301
f 331 318 330
f 302 317 322
f 317 296 319
f 322 319 303
f 317 319 322
f 298 324 310
f 324 304 325
f 310 325 299
f 324 325 310
f 298 310 308
f 310 299 309
f 308 309 297
f 310 309 308
f 298 308 315
f 308 297 314
f 315 314 301
f 308 314 315
f 298 315 320
f 315 301 321
f 320 321 303
f 315 321 320
f 298 320 324
f 320 303 327
f 324 327 304
f 320 327 324
f 299 325 313
f 325 304 326
f 313 326 300
f 325 326 313
f 297 309 333
f 309 299 334
f 333 334 306
f 309 334 333
f 301 314 330
f 314 297 329
f 330 329 305
f 314 329 330
f 303 321 322
f 321 301 318
f 322 318 302
f 321 318 322
f 304 327 323
f 327 303 319
f 323 319 296
f 327 319 323
f 337 374 353
f 374 348 377
f 353 377 342
f 374 377 353
f 337 353 349
f 353 342 354
f 349 354 338
f 353 354 349
f 337 349 358
f 349 338 359
f 358 359 344
f 349 359 358
f 337 358 370
f 358 344 373
f 370 373 347
f 358 373 370
f 337 370 374
f 370 347 378
f 374 378 348
f 370 378 374
f 338 354 365
f 354 342 368
f 365 368 346
f 354 368 365
f 342 377 355
f 377 348 376
f 355 376 341
f 377 376 355
f 348 378 375
f 378 347 371
f 375 371 339
f 378 371 375
f 347 373 372
f 373 344 360
f 372 360 343
f 373 360 372
f 344 359 364
f 359 338 361
f 364 361 345
f 359 361 364
f 340 366 352
f 366 346 367
f 352 367 341
f 366 367 352
f 340 352 350
f 352 341 351
f 350 351 339
f 352 351 350
f 340 350 357
f 350 339 356
f 357 356 343
f 350 356 357
f 340 357 362
f 357 343 363
f 362 363 345
f 357 363 362
f 340 362 366
f 362 345 369
f 366 369 346
f 362 369 366
f 341 367 355
f 367 346 368
f 355 368 342
f 367 368 355
f 339 351 375
f 351 341 376
f 375 376 348
f 351 376 375
f 343 356 372
f 356 339 371
f 372 371 347
f 356 371 372
f 345 363 364
f 363 343 360
f 364 360 344
f 363 360 364
f 346 369 365
f 369 345 361
f 365 361 338
f 369 361 365

