# https://github.com/mikedh/trimesh
v -0.12854880 0.48119719 0.00000000
v -0.02024010 0.48119719 0.00000000
v -0.12854880 0.26700622 0.00000000
v -0.02024010 0.26700622 0.00000000
v -0.07439445 0.30791306 0.06328370
v -0.07439445 0.44029036 0.06328370
v -0.07439445 0.30791306 -0.06328370
v -0.07439445 0.44029036 -0.06328370
v 0.01322913 0.37410171 -0.03911148
v 0.01322913 0.37410171 0.03911148
v -0.16201803 0.37410171 -0.03911148
v -0.16201803 0.37410171 0.03911148
v -0.07439445 0.50000000 0.00000000
v -0.07439445 0.24820341 0.00000000
v -0.10622557 0.27224785 0.03719722
v -0.04256332 0.27224785 0.03719722
v -0.10622557 0.47595557 0.03719722
v -0.04256332 0.47595557 0.03719722
v -0.07439445 0.37410171 0.07439445
v -0.10622557 0.27224785 -0.03719722
v -0.04256332 0.27224785 -0.03719722
v -0.10622557 0.47595557 -0.03719722
v -0.04256332 0.47595557 -0.03719722
v -0.07439445 0.37410171 -0.07439445
v 0.00894053 0.43705085 -0.02298915
v 0.00894053 0.31115256 -0.02298915
v -0.02289060 0.33519699 -0.06018637
v -0.02289060 0.41300642 -0.06018637
v 0.00894053 0.43705085 0.02298915
v 0.00894053 0.31115256 0.02298915
v -0.02289060 0.33519699 0.06018637
v -0.02289060 0.41300642 0.06018637
v 0.02861325 0.37410171 0.00000000
v -0.15772942 0.43705085 -0.02298915
v -0.15772942 0.31115256 -0.02298915
v -0.12589829 0.33519699 -0.06018637
v -0.12589829 0.41300642 -0.06018637
v -0.15772942 0.43705085 0.02298915
v -0.15772942 0.31115256 0.02298915
v -0.12589829 0.33519699 0.06018637
v -0.12589829 0.41300642 0.06018637
v -0.17740214 0.37410171 0.00000000
v -0.22583384 0.30951770 0.00000000
v -0.11752514 0.30951770 0.00000000
v -0.22583384 0.09532673 0.00000000
v -0.11752514 0.09532673 0.00000000
v -0.17167949 0.13623356 0.06328370
v -0.17167949 0.26861086 0.06328370
v -0.17167949 0.13623356 -0.06328370
v -0.17167949 0.26861086 -0.06328370
v -0.08405591 0.20242221 -0.03911148
v -0.08405591 0.20242221 0.03911148
v -0.25930307 0.20242221 -0.03911148
v -0.25930307 0.20242221 0.03911148
v -0.17167949 0.32832051 0.00000000
v -0.17167949 0.07652392 0.00000000
v -0.20351062 0.10056835 0.03719722
v -0.13984836 0.10056835 0.03719722
v -0.20351062 0.30427607 0.03719722
v -0.13984836 0.30427607 0.03719722
v -0.17167949 0.20242221 0.07439445
v -0.20351062 0.10056835 -0.03719722
v -0.13984836 0.10056835 -0.03719722
v -0.20351062 0.30427607 -0.03719722
v -0.13984836 0.30427607 -0.03719722
v -0.17167949 0.20242221 -0.07439445
v -0.08834452 0.26537136 -0.02298915
v -0.08834452 0.13947307 -0.02298915
v -0.12017564 0.16351750 -0.06018637
v -0.12017564 0.24132693 -0.06018637
v -0.08834452 0.26537136 0.02298915
v -0.08834452 0.13947307 0.02298915
v -0.12017564 0.16351750 0.06018637
v -0.12017564 0.24132693 0.06018637
v -0.06867180 0.20242221 0.00000000
v -0.25501447 0.26537136 -0.02298915
v -0.25501447 0.13947307 -0.02298915
v -0.22318334 0.16351750 -0.06018637
v -0.22318334 0.24132693 -0.06018637
v -0.25501447 0.26537136 0.02298915
v -0.25501447 0.13947307 0.02298915
v -0.22318334 0.16351750 0.06018637
v -0.22318334 0.24132693 0.06018637
v -0.27468719 0.20242221 0.00000000
v -0.18577529 0.13783821 0.00000000
v -0.07746659 0.13783821 0.00000000
v -0.18577529 -0.07635276 0.00000000
v -0.07746659 -0.07635276 0.00000000
v -0.13162094 -0.03544593 0.06328370
v -0.13162094 0.09693137 0.06328370
v -0.13162094 -0.03544593 -0.06328370
v -0.13162094 0.09693137 -0.06328370
v -0.04399736 0.03074272 -0.03911148
v -0.04399736 0.03074272 0.03911148
v -0.21924452 0.03074272 -0.03911148
v -0.21924452 0.03074272 0.03911148
v -0.13162094 0.15664102 0.00000000
v -0.13162094 -0.09515557 0.00000000
v -0.16345207 -0.07111114 0.03719722
v -0.09978982 -0.07111114 0.03719722
v -0.16345207 0.13259658 0.03719722
v -0.09978982 0.13259658 0.03719722
v -0.13162094 0.03074272 0.07439445
v -0.16345207 -0.07111114 -0.03719722
v -0.09978982 -0.07111114 -0.03719722
v -0.16345207 0.13259658 -0.03719722
v -0.09978982 0.13259658 -0.03719722
v -0.13162094 0.03074272 -0.07439445
v -0.04828597 0.09369187 -0.02298915
v -0.04828597 -0.03220643 -0.02298915
v -0.08011710 -0.00816199 -0.06018637
v -0.08011710 0.06964743 -0.06018637
v -0.04828597 0.09369187 0.02298915
v -0.04828597 -0.03220643 0.02298915
v -0.08011710 -0.00816199 0.06018637
v -0.08011710 0.06964743 0.06018637
v -0.02861325 0.03074272 0.00000000
v -0.21495592 0.09369187 -0.02298915
v -0.21495592 -0.03220643 -0.02298915
v -0.18312479 -0.00816199 -0.06018637
v -0.18312479 0.06964743 -0.06018637
v -0.21495592 0.09369187 0.02298915
v -0.21495592 -0.03220643 0.02298915
v -0.18312479 -0.00816199 0.06018637
v -0.18312479 0.06964743 0.06018637
v -0.23462864 0.03074272 0.00000000
v -0.12854880 -0.03384128 0.00000000
v -0.02024010 -0.03384128 0.00000000
v -0.12854880 -0.24803226 0.00000000
v -0.02024010 -0.24803226 0.00000000
v -0.07439445 -0.20712542 0.06328370
v -0.07439445 -0.07474812 0.06328370
v -0.07439445 -0.20712542 -0.06328370
v -0.07439445 -0.07474812 -0.06328370
v 0.01322913 -0.14093677 -0.03911148
v 0.01322913 -0.14093677 0.03911148
v -0.16201803 -0.14093677 -0.03911148
v -0.16201803 -0.14093677 0.03911148
v -0.07439445 -0.01503848 0.00000000
v -0.07439445 -0.26683506 0.00000000
v -0.10622557 -0.24279063 0.03719722
v -0.04256332 -0.24279063 0.03719722
v -0.10622557 -0.03908291 0.03719722
v -0.04256332 -0.03908291 0.03719722
v -0.07439445 -0.14093677 0.07439445
v -0.10622557 -0.24279063 -0.03719722
v -0.04256332 -0.24279063 -0.03719722
v -0.10622557 -0.03908291 -0.03719722
v -0.04256332 -0.03908291 -0.03719722
v -0.07439445 -0.14093677 -0.07439445
v 0.00894053 -0.07798762 -0.02298915
v 0.00894053 -0.20388592 -0.02298915
v -0.02289060 -0.17984148 -0.06018637
v -0.02289060 -0.10203206 -0.06018637
v 0.00894053 -0.07798762 0.02298915
v 0.00894053 -0.20388592 0.02298915
v -0.02289060 -0.17984148 0.06018637
v -0.02289060 -0.10203206 0.06018637
v 0.02861325 -0.14093677 0.00000000
v -0.15772942 -0.07798762 -0.02298915
v -0.15772942 -0.20388592 -0.02298915
v -0.12589829 -0.17984148 -0.06018637
v -0.12589829 -0.10203206 -0.06018637
v -0.15772942 -0.07798762 0.02298915
v -0.15772942 -0.20388592 0.02298915
v -0.12589829 -0.17984148 0.06018637
v -0.12589829 -0.10203206 0.06018637
v -0.17740214 -0.14093677 0.00000000
v -0.21438854 -0.17690753 0.00000000
v -0.10607984 -0.17690753 0.00000000
v -0.21438854 -0.39109850 0.00000000
v -0.10607984 -0.39109850 0.00000000
v -0.16023419 -0.35019166 0.06328370
v -0.16023419 -0.21781436 0.06328370
v -0.16023419 -0.35019166 -0.06328370
v -0.16023419 -0.21781436 -0.06328370
v -0.07261061 -0.28400301 -0.03911148
v -0.07261061 -0.28400301 0.03911148
v -0.24785777 -0.28400301 -0.03911148
v -0.24785777 -0.28400301 0.03911148
v -0.16023419 -0.15810472 0.00000000
v -0.16023419 -0.40990131 0.00000000
v -0.19206532 -0.38585687 0.03719722
v -0.12840306 -0.38585687 0.03719722
v -0.19206532 -0.18214915 0.03719722
v -0.12840306 -0.18214915 0.03719722
v -0.16023419 -0.28400301 0.07439445
v -0.19206532 -0.38585687 -0.03719722
v -0.12840306 -0.38585687 -0.03719722
v -0.19206532 -0.18214915 -0.03719722
v -0.12840306 -0.18214915 -0.03719722
v -0.16023419 -0.28400301 -0.07439445
v -0.07689922 -0.22105387 -0.02298915
v -0.07689922 -0.34695216 -0.02298915
v -0.10873034 -0.32290773 -0.06018637
v -0.10873034 -0.24509830 -0.06018637
v -0.07689922 -0.22105387 0.02298915
v -0.07689922 -0.34695216 0.02298915
v -0.10873034 -0.32290773 0.06018637
v -0.10873034 -0.24509830 0.06018637
v -0.05722650 -0.28400301 0.00000000
v -0.24356917 -0.22105387 -0.02298915
v -0.24356917 -0.34695216 -0.02298915
v -0.21173804 -0.32290773 -0.06018637
v -0.21173804 -0.24509830 -0.06018637
v -0.24356917 -0.22105387 0.02298915
v -0.24356917 -0.34695216 0.02298915
v -0.21173804 -0.32290773 0.06018637
v -0.21173804 -0.24509830 0.06018637
v -0.26324189 -0.28400301 0.00000000
v 0.06867180 0.36265641 0.00000000
v 0.06867180 0.36265641 -0.04005855
v 0.30902309 0.36265641 0.00000000
v 0.06867180 0.39098208 -0.02832567
v 0.06867180 0.40271495 -0.00000000
v 0.06867180 0.39098208 0.02832567
v 0.06867180 0.36265641 0.04005855
v 0.06867180 0.33433074 0.02832567
v 0.06867180 0.32259786 0.00000000
v 0.06867180 0.33433074 -0.02832567
v -0.11445299 0.20242221 -0.02289060
v -0.30902309 0.31687521 -0.02289060
v -0.27468719 0.10513717 -0.02289060
v -0.11445299 0.20242221 0.02289060
v -0.30902309 0.31687521 0.02289060
v -0.27468719 0.10513717 0.02289060
v -0.16023419 -0.32978421 0.00000000
v -0.16023419 -0.32978421 0.03147457
v -0.26324189 -0.40990131 0.03147457
v -0.26324189 -0.40990131 0.00000000
v -0.17389798 -0.31221648 0.02225588
v -0.27690568 -0.39233358 0.02225588
v -0.17955771 -0.30493969 0.00000000
v -0.28256541 -0.38505678 0.00000000
v -0.17389798 -0.31221648 -0.02225588
v -0.27690568 -0.39233358 -0.02225588
v -0.16023419 -0.32978421 -0.03147457
v -0.26324189 -0.40990131 -0.03147457
v -0.14657040 -0.34735194 -0.02225588
v -0.24957810 -0.42746904 -0.02225588
v -0.14091067 -0.35462874 -0.00000000
v -0.24391837 -0.43474583 -0.00000000
v -0.14657040 -0.34735194 0.02225588
v -0.24957810 -0.42746904 0.02225588
v -0.26324189 -0.40990131 0.00000000
v -0.26324189 -0.40990131 -0.02575192
v -0.16023419 -0.47857310 -0.02575192
v -0.16023419 -0.47857310 0.00000000
v -0.25314115 -0.39475020 -0.01820936
v -0.15013346 -0.46342200 -0.01820936
v -0.24895729 -0.38847441 -0.00000000
v -0.14594960 -0.45714621 -0.00000000
v -0.25314115 -0.39475020 0.01820936
v -0.15013346 -0.46342200 0.01820936
v -0.26324189 -0.40990131 0.02575192
v -0.16023419 -0.47857310 0.02575192
v -0.27334262 -0.42505241 0.01820936
v -0.17033493 -0.49372421 0.01820936
v -0.27752648 -0.43132820 0.00000000
v -0.17451879 -0.50000000 0.00000000
v -0.27334262 -0.42505241 -0.01820936
v -0.17033493 -0.49372421 -0.01820936
f 1 38 17
f 38 12 41
f 17 41 6
f 38 41 17
f 1 17 13
f 17 6 18
f 13 18 2
f 17 18 13
f 1 13 22
f 13 2 23
f 22 23 8
f 13 23 22
f 1 22 34
f 22 8 37
f 34 37 11
f 22 37 34
f 1 34 38
f 34 11 42
f 38 42 12
f 34 42 38
f 2 18 29
f 18 6 32
f 29 32 10
f 18 32 29
f 6 41 19
f 41 12 40
f 19 40 5
f 41 40 19
f 12 42 39
f 42 11 35
f 39 35 3
f 42 35 39
f 11 37 36
f 37 8 24
f 36 24 7
f 37 24 36
f 8 23 28
f 23 2 25
f 28 25 9
f 23 25 28
f 4 30 16
f 30 10 31
f 16 31 5
f 30 31 16
f 4 16 14
f 16 5 15
f 14 15 3
f 16 15 14
f 4 14 21
f 14 3 20
f 21 20 7
f 14 20 21
f 4 21 26
f 21 7 27
f 26 27 9
f 21 27 26
f 4 26 30
f 26 9 33
f 30 33 10
f 26 33 30
f 5 31 19
f 31 10 32
f 19 32 6
f 31 32 19
f 3 15 39
f 15 5 40
f 39 40 12
f 15 40 39
f 7 20 36
f 20 3 35
f 36 35 11
f 20 35 36
f 9 27 28
f 27 7 24
f 28 24 8
f 27 24 28
f 10 33 29
f 33 9 25
f 29 25 2
f 33 25 29
f 43 80 59
f 80 54 83
f 59 83 48
f 80 83 59
f 43 59 55
f 59 48 60
f 55 60 44
f 59 60 55
f 43 55 64
f 55 44 65
f 64 65 50
f 55 65 64
f 43 64 76
f 64 50 79
f 76 79 53
f 64 79 76
f 43 76 80
f 76 53 84
f 80 84 54
f 76 84 80
f 44 60 71
f 60 48 74
f 71 74 52
f 60 74 71
f 48 83 61
f 83 54 82
f 61 82 47
f 83 82 61
f 54 84 81
f 84 53 77
f 81 77 45
f 84 77 81
f 53 79 78
f 79 50 66
f 78 66 49
f 79 66 78
f 50 65 70
f 65 44 67
f 70 67 51
f 65 67 70
f 46 72 58
f 72 52 73
f 58 73 47
f 72 73 58
f 46 58 56
f 58 47 57
f 56 57 45
f 58 57 56
f 46 56 63
f 56 45 62
f 63 62 49
f 56 62 63
f 46 63 68
f 63 49 69
f 68 69 51
f 63 69 68
f 46 68 72
f 68 51 75
f 72 75 52
f 68 75 72
f 47 73 61
f 73 52 74
f 61 74 48
f 73 74 61
f 45 57 81
f 57 47 82
f 81 82 54
f 57 82 81
f 49 62 78
f 62 45 77
f 78 77 53
f 62 77 78
f 51 69 70
f 69 49 66
f 70 66 50
f 69 66 70
f 52 75 71
f 75 51 67
f 71 67 44
f 75 67 71
f 85 122 101
f 122 96 125
f 101 125 90
f 122 125 101
f 85 101 97
f 101 90 102
f 97 102 86
f 101 102 97
f 85 97 106
f 97 86 107
f 106 107 92
f 97 107 106
f 85 106 118
f 106 92 121
f 118 121 95
f 106 121 118
f 85 118 122
f 118 95 126
f 122 126 96
f 118 126 122
f 86 102 113
f 102 90 116
f 113 116 94
f 102 116 113
f 90 125 103
f 125 96 124
f 103 124 89
f 125 124 103
f 96 126 123
f 126 95 119
f 123 119 87
f 126 119 123
f 95 121 120
f 121 92 108
f 120 108 91
f 121 108 120
f 92 107 112
f 107 86 109
f 112 109 93
f 107 109 112
f 88 114 100
f 114 94 115
f 100 115 89
f 114 115 100
f 88 100 98
f 100 89 99
f 98 99 87
f 100 99 98
f 88 98 105
f 98 87 104
f 105 104 91
f 98 104 105
f 88 105 110
f 105 91 111
f 110 111 93
f 105 111 110
f 88 110 114
f 110 93 117
f 114 117 94
f 110 117 114
f 89 115 103
f 115 94 116
f 103 116 90
f 115 116 103
f 87 99 123
f 99 89 124
f 123 124 96
f 99 124 123
f 91 104 120
f 104 87 119
f 120 119 95
f 104 119 120
f 93 111 112
f 111 91 108
f 112 108 92
f 111 108 112
f 94 117 113
f 117 93 109
f 113 109 86
f 117 109 113
f 127 164 143
f 164 138 167
f 143 167 132
f 164 167 143
f 127 143 139
f 143 132 144
f 139 144 128
f 143 144 139
f 127 139 148
f 139 128 149
f 148 149 134
f 139 149 148
f 127 148 160
f 148 134 163
f 160 163 137
f 148 163 160
f 127 160 164
f 160 137 168
f 164 168 138
f 160 168 164
f 128 144 155
f 144 132 158
f 155 158 136
f 144 158 155
f 132 167 145
f 167 138 166
f 145 166 131
f 167 166 145
f 138 168 165
f 168 137 161
f 165 161 129
f 168 161 165
f 137 163 162
f 163 134 150
f 162 150 133
f 163 150 162
f 134 149 154
f 149 128 151
f 154 151 135
f 149 151 154
f 130 156 142
f 156 136 157
f 142 157 131
f 156 157 142
f 130 142 140
f 142 131 141
f 140 141 129
f 142 141 140
f 130 140 147
f 140 129 146
f 147 146 133
f 140 146 147
f 130 147 152
f 147 133 153
f 152 153 135
f 147 153 152
f 130 152 156
f 152 135 159
f 156 159 136
f 152 159 156
f 131 157 145
f 157 136 158
f 145 158 132
f 157 158 145
f 129 141 165
f 141 131 166
f 165 166 138
f 141 166 165
f 133 146 162
f 146 129 161
f 162 161 137
f 146 161 162
f 135 153 154
f 153 133 150
f 154 150 134
f 153 150 154
f 136 159 155
f 159 135 151
f 155 151 128
f 159 151 155
f 169 206 185
f 206 180 209
f 185 209 174
f 206 209 185
f 169 185 181
f 185 174 186
f 181 186 170
f 185 186 181
f 169 181 190
f 181 170 191
f 190 191 176
f 181 191 190
f 169 190 202
f 190 176 205
f 202 205 179
f 190 205 202
f 169 202 206
f 202 179 210
f 206 210 180
f 202 210 206
f 170 186 197
f 186 174 200
f 197 200 178
f 186 200 197
f 174 209 187
f 209 180 208
f 187 208 173
f 209 208 187
f 180 210 207
f 210 179 203
f 207 203 171
f 210 203 207
f 179 205 204
f 205 176 192
f 204 192 175
f 205 192 204
f 176 191 196
f 191 170 193
f 196 193 177
f 191 193 196
f 172 198 184
f 198 178 199
f 184 199 173
f 198 199 184
f 172 184 182
f 184 173 183
f 182 183 171
f 184 183 182
f 172 182 189
f 182 171 188
f 189 188 175
f 182 188 189
f 172 189 194
f 189 175 195
f 194 195 177
f 189 195 194
f 172 194 198
f 194 177 201
f 198 201 178
f 194 201 198
f 173 199 187
f 199 178 200
f 187 200 174
f 199 200 187
f 171 183 207
f 183 173 208
f 207 208 180
f 183 208 207
f 175 188 204
f 188 171 203
f 204 203 179
f 188 203 204
f 177 195 196
f 195 175 192
f 196 192 176
f 195 192 196
f 178 201 197
f 201 177 193
f 197 193 170
f 201 193 197
f 212 211 214
f 212 214 213
f 214 211 215
f 214 215 213
f 215 211 216
f 215 216 213
f 216 211 217
f 216 217 213
f 217 211 218
f 217 218 213
f 218 211 219
f 218 219 213
f 219 211 220
f 219 220 213
f 220 211 212
f 220 212 213
f 221 222 223
f 224 226 225
f 221 224 225
f 221 225 222
f 222 225 226
f 222 226 223
f 223 226 224
f 223 224 221
f 228 227 231
f 228 231 229
f 229 231 232
f 229 232 230
f 231 227 233
f 231 233 232
f 232 233 234
f 232 234 230
f 233 227 235
f 233 235 234
f 234 235 236
f 234 236 230
f 235 227 237
f 235 237 236
f 236 237 238
f 236 238 230
f 237 227 239
f 237 239 238
f 238 239 240
f 238 240 230
f 239 227 241
f 239 241 240
f 240 241 242
f 240 242 230
f 241 227 243
f 241 243 242
f 242 243 244
f 242 244 230
f 243 227 228
f 243 228 244
f 244 228 229
f 244 229 230
f 246 245 249
f 246 249 247
f 247 249 250
f 247 250 248
f 249 245 251
f 249 251 250
f 250 251 252
f 250 252 248
f 251 245 253
f 251 253 252
f 252 253 254
f 252 254 248
f 253 245 255
f 253 255 254
f 254 255 256
f 254 256 248
f 255 245 257
f 255 257 256
f 256 257 258
f 256 258 248
f 257 245 259
f 257 259 258
f 258 259 260
f 258 260 248
f 259 245 261
f 259 261 260
f 260 261 262
f 260 262 248
f 261 245 246
f 261 246 262
f 262 246 247
f 262 247 248

